<?xml version="1.0" encoding="utf-8" standalone="no"?>
<!DOCTYPE svg PUBLIC "-//W3C//DTD SVG 1.1//EN"
  "http://www.w3.org/Graphics/SVG/1.1/DTD/svg11.dtd">
<svg xmlns:xlink="http://www.w3.org/1999/xlink" width="1440pt" height="360pt" viewBox="0 0 1440 360" xmlns="http://www.w3.org/2000/svg" version="1.1">
 <metadata>
  <rdf:RDF xmlns:dc="http://purl.org/dc/elements/1.1/" xmlns:cc="http://creativecommons.org/ns#" xmlns:rdf="http://www.w3.org/1999/02/22-rdf-syntax-ns#">
   <cc:Work>
    <dc:type rdf:resource="http://purl.org/dc/dcmitype/StillImage"/>
    <dc:date>2023-08-21T14:10:24.187220</dc:date>
    <dc:format>image/svg+xml</dc:format>
    <dc:creator>
     <cc:Agent>
      <dc:title>Matplotlib v3.7.1, https://matplotlib.org/</dc:title>
     </cc:Agent>
    </dc:creator>
   </cc:Work>
  </rdf:RDF>
 </metadata>
 <defs>
  <style type="text/css">*{stroke-linejoin: round; stroke-linecap: butt}</style>
 </defs>
 <g id="figure_1">
  <g id="patch_1">
   <path d="M 0 360 
L 1440 360 
L 1440 0 
L 0 0 
z
" style="fill: #ffffff"/>
  </g>
  <g id="axes_1">
   <g id="patch_2">
    <path d="M 180 320.4 
L 1296 320.4 
L 1296 43.2 
L 180 43.2 
z
" style="fill: #ffffff"/>
   </g>
   <g id="PolyCollection_1">
    <defs>
     <path id="md84b2c9f08" d="M 230.727273 -264.819963 
L 230.727273 -185.325907 
L 236.066986 -153.375327 
L 241.406699 -142.213133 
L 246.746411 -150.832904 
L 252.086124 -136.790476 
L 257.425837 -140.526604 
L 262.76555 -141.769501 
L 268.105263 -147.27325 
L 273.444976 -149.102888 
L 278.784689 -142.272305 
L 284.124402 -122.228958 
L 289.464115 -111.944172 
L 294.803828 -78.838901 
L 300.143541 -90.233571 
L 305.483254 -83.517782 
L 310.822967 -71.478958 
L 316.162679 -69.918995 
L 321.502392 -63.4902 
L 326.842105 -56.915762 
L 332.181818 -59.801816 
L 337.521531 -70.031643 
L 342.861244 -81.938443 
L 348.200957 -125.822896 
L 353.54067 -162.492921 
L 358.880383 -186.392082 
L 364.220096 -202.717742 
L 369.559809 -203.856249 
L 374.899522 -203.181687 
L 380.239234 -205.349082 
L 385.578947 -186.183267 
L 390.91866 -168.611831 
L 396.258373 -143.513489 
L 401.598086 -137.374037 
L 406.937799 -135.372429 
L 412.277512 -140.887236 
L 417.617225 -150.835765 
L 422.956938 -121.151513 
L 428.296651 -107.698245 
L 433.636364 -113.669313 
L 438.976077 -118.060733 
L 444.315789 -124.250826 
L 449.655502 -130.364383 
L 454.995215 -115.538393 
L 460.334928 -109.075719 
L 465.674641 -126.959372 
L 471.014354 -133.677015 
L 476.354067 -132.937028 
L 481.69378 -146.722013 
L 487.033493 -194.65184 
L 492.373206 -215.130146 
L 497.712919 -213.620921 
L 503.052632 -201.871845 
L 508.392344 -194.003119 
L 513.732057 -197.396578 
L 519.07177 -193.798436 
L 524.411483 -186.322807 
L 529.751196 -166.119254 
L 535.090909 -170.892165 
L 540.430622 -151.943998 
L 545.770335 -137.277259 
L 551.110048 -109.449917 
L 556.449761 -109.14579 
L 561.789474 -107.699288 
L 567.129187 -109.389932 
L 572.4689 -96.562246 
L 577.808612 -93.181593 
L 583.148325 -69.005051 
L 588.488038 -104.892586 
L 593.827751 -126.04503 
L 599.167464 -133.422116 
L 604.507177 -168.941234 
L 609.84689 -196.910996 
L 615.186603 -208.782001 
L 620.526316 -221.448598 
L 625.866029 -221.900479 
L 631.205742 -224.705944 
L 636.545455 -214.73364 
L 641.885167 -205.665097 
L 647.22488 -182.577141 
L 652.564593 -174.791767 
L 657.904306 -165.546662 
L 663.244019 -147.636991 
L 668.583732 -153.397353 
L 673.923445 -143.781865 
L 679.263158 -121.385128 
L 684.602871 -123.439037 
L 689.942584 -124.920318 
L 695.282297 -118.848711 
L 700.62201 -126.127624 
L 705.961722 -114.117184 
L 711.301435 -97.535371 
L 716.641148 -94.176302 
L 721.980861 -118.198877 
L 727.320574 -125.96929 
L 732.660287 -164.372952 
L 738 -197.24296 
L 743.339713 -202.263406 
L 748.679426 -206.842339 
L 754.019139 -210.446946 
L 759.358852 -216.436048 
L 764.698565 -207.356872 
L 770.038278 -201.791424 
L 775.37799 -193.098792 
L 780.717703 -157.267263 
L 786.057416 -142.753719 
L 791.397129 -146.60049 
L 796.736842 -157.775384 
L 802.076555 -149.54032 
L 807.416268 -99.806239 
L 812.755981 -59.746724 
L 818.095694 -57.298129 
L 823.435407 -52.2 
L 828.77512 -64.658973 
L 834.114833 -90.131892 
L 839.454545 -90.216747 
L 844.794258 -84.115129 
L 850.133971 -99.128762 
L 855.473684 -114.394375 
L 860.813397 -122.467007 
L 866.15311 -148.91442 
L 871.492823 -188.104665 
L 876.832536 -204.04567 
L 882.172249 -193.893854 
L 887.511962 -197.437769 
L 892.851675 -194.60671 
L 898.191388 -186.145891 
L 903.5311 -164.954994 
L 908.870813 -149.480194 
L 914.210526 -157.77526 
L 919.550239 -148.112611 
L 924.889952 -141.882864 
L 930.229665 -144.621421 
L 935.569378 -123.597671 
L 940.909091 -134.883226 
L 946.248804 -123.093843 
L 951.588517 -117.755281 
L 956.92823 -125.567079 
L 962.267943 -120.727505 
L 967.607656 -106.244519 
L 972.947368 -94.805117 
L 978.287081 -106.709629 
L 983.626794 -120.409672 
L 988.966507 -153.342049 
L 994.30622 -184.755894 
L 999.645933 -195.909203 
L 1004.985646 -184.263405 
L 1010.325359 -190.659311 
L 1015.665072 -190.477608 
L 1021.004785 -183.236354 
L 1026.344498 -176.215343 
L 1031.684211 -156.485944 
L 1037.023923 -146.207746 
L 1042.363636 -152.311324 
L 1047.703349 -136.751193 
L 1053.043062 -130.033426 
L 1058.382775 -142.111481 
L 1063.722488 -100.598068 
L 1069.062201 -99.80993 
L 1074.401914 -92.010815 
L 1079.741627 -74.584055 
L 1085.08134 -81.420387 
L 1090.421053 -79.782061 
L 1095.760766 -78.117726 
L 1101.100478 -105.592053 
L 1106.440191 -97.370361 
L 1111.779904 -92.237506 
L 1117.119617 -110.726975 
L 1122.45933 -123.449476 
L 1127.799043 -149.925469 
L 1133.138756 -179.873628 
L 1138.478469 -190.987372 
L 1143.818182 -195.07175 
L 1149.157895 -189.450363 
L 1154.497608 -183.578457 
L 1159.837321 -173.479824 
L 1165.177033 -174.990179 
L 1170.516746 -167.257036 
L 1175.856459 -148.841594 
L 1181.196172 -138.897922 
L 1186.535885 -146.626473 
L 1191.875598 -135.585149 
L 1197.215311 -129.467104 
L 1202.555024 -119.675125 
L 1207.894737 -117.133444 
L 1213.23445 -104.178988 
L 1218.574163 -98.254692 
L 1223.913876 -86.150968 
L 1229.253589 -88.728038 
L 1234.593301 -100.978429 
L 1239.933014 -127.265371 
L 1245.272727 -157.153829 
L 1245.272727 -236.647885 
L 1245.272727 -236.647885 
L 1239.933014 -206.759428 
L 1234.593301 -180.472486 
L 1229.253589 -168.22209 
L 1223.913876 -165.645011 
L 1218.574163 -177.748731 
L 1213.23445 -183.673026 
L 1207.894737 -196.6275 
L 1202.555024 -199.169163 
L 1197.215311 -208.96116 
L 1191.875598 -215.079205 
L 1186.535885 -226.120529 
L 1181.196172 -218.391978 
L 1175.856459 -228.33565 
L 1170.516746 -246.751093 
L 1165.177033 -254.484236 
L 1159.837321 -252.97388 
L 1154.497608 -263.072513 
L 1149.157895 -268.944419 
L 1143.818182 -274.565806 
L 1138.478469 -270.481428 
L 1133.138756 -259.367684 
L 1127.799043 -229.419525 
L 1122.45933 -202.943514 
L 1117.119617 -190.221013 
L 1111.779904 -171.731544 
L 1106.440191 -176.864417 
L 1101.100478 -185.086092 
L 1095.760766 -157.611768 
L 1090.421053 -159.276112 
L 1085.08134 -160.914438 
L 1079.741627 -154.078098 
L 1074.401914 -171.504871 
L 1069.062201 -179.303969 
L 1063.722488 -180.092106 
L 1058.382775 -221.605537 
L 1053.043062 -209.527482 
L 1047.703349 -216.245249 
L 1042.363636 -231.80538 
L 1037.023923 -225.701802 
L 1031.684211 -235.98 
L 1026.344498 -255.709399 
L 1021.004785 -262.73041 
L 1015.665072 -269.971664 
L 1010.325359 -270.153367 
L 1004.985646 -263.757461 
L 999.645933 -275.403259 
L 994.30622 -264.24995 
L 988.966507 -232.836105 
L 983.626794 -199.903728 
L 978.287081 -186.203668 
L 972.947368 -174.299155 
L 967.607656 -185.738557 
L 962.267943 -200.221544 
L 956.92823 -205.061135 
L 951.588517 -197.249319 
L 946.248804 -202.587899 
L 940.909091 -214.377282 
L 935.569378 -203.091727 
L 930.229665 -224.115477 
L 924.889952 -221.37692 
L 919.550239 -227.606667 
L 914.210526 -237.269316 
L 908.870813 -228.97425 
L 903.5311 -244.44905 
L 898.191388 -265.639947 
L 892.851675 -274.100766 
L 887.511962 -276.931825 
L 882.172249 -273.38791 
L 876.832536 -283.539726 
L 871.492823 -267.598721 
L 866.15311 -228.408476 
L 860.813397 -201.961063 
L 855.473684 -193.888431 
L 850.133971 -178.622818 
L 844.794258 -163.609172 
L 839.454545 -169.71079 
L 834.114833 -169.625935 
L 828.77512 -144.153025 
L 823.435407 -131.694043 
L 818.095694 -136.792172 
L 812.755981 -139.240767 
L 807.416268 -179.300295 
L 802.076555 -229.034376 
L 796.736842 -237.26944 
L 791.397129 -226.094546 
L 786.057416 -222.247775 
L 780.717703 -236.761319 
L 775.37799 -272.592848 
L 770.038278 -281.28548 
L 764.698565 -286.850928 
L 759.358852 -295.930104 
L 754.019139 -289.941002 
L 748.679426 -286.336395 
L 743.339713 -281.757462 
L 738 -276.737016 
L 732.660287 -243.867008 
L 727.320574 -205.463346 
L 721.980861 -197.692916 
L 716.641148 -173.670341 
L 711.301435 -177.02941 
L 705.961722 -193.61124 
L 700.62201 -205.62168 
L 695.282297 -198.342767 
L 689.942584 -204.414374 
L 684.602871 -202.933075 
L 679.263158 -200.879167 
L 673.923445 -223.275922 
L 668.583732 -232.891409 
L 663.244019 -227.131047 
L 657.904306 -245.040718 
L 652.564593 -254.285823 
L 647.22488 -262.071197 
L 641.885167 -285.159153 
L 636.545455 -294.227696 
L 631.205742 -304.2 
L 625.866029 -301.394535 
L 620.526316 -300.942654 
L 615.186603 -288.276057 
L 609.84689 -276.405052 
L 604.507177 -248.43529 
L 599.167464 -212.916172 
L 593.827751 -205.539086 
L 588.488038 -184.386624 
L 583.148325 -148.499102 
L 577.808612 -172.675631 
L 572.4689 -176.056284 
L 567.129187 -188.883988 
L 561.789474 -187.193344 
L 556.449761 -188.639846 
L 551.110048 -188.943973 
L 545.770335 -216.771315 
L 540.430622 -231.438054 
L 535.090909 -250.386222 
L 529.751196 -245.61331 
L 524.411483 -265.816863 
L 519.07177 -273.292492 
L 513.732057 -276.890634 
L 508.392344 -273.497175 
L 503.052632 -281.365902 
L 497.712919 -293.114977 
L 492.373206 -294.624202 
L 487.033493 -274.145896 
L 481.69378 -226.21607 
L 476.354067 -212.431084 
L 471.014354 -213.171072 
L 465.674641 -206.453428 
L 460.334928 -188.569758 
L 454.995215 -195.032431 
L 449.655502 -209.858439 
L 444.315789 -203.744882 
L 438.976077 -197.554771 
L 433.636364 -193.163352 
L 428.296651 -187.192301 
L 422.956938 -200.645569 
L 417.617225 -230.329822 
L 412.277512 -220.381292 
L 406.937799 -214.866485 
L 401.598086 -216.868093 
L 396.258373 -223.007545 
L 390.91866 -248.105887 
L 385.578947 -265.677323 
L 380.239234 -284.843138 
L 374.899522 -282.675743 
L 369.559809 -283.350305 
L 364.220096 -282.211798 
L 358.880383 -265.886138 
L 353.54067 -241.986977 
L 348.200957 -205.316952 
L 342.861244 -161.432486 
L 337.521531 -149.525695 
L 332.181818 -139.295859 
L 326.842105 -136.409814 
L 321.502392 -142.984243 
L 316.162679 -149.413038 
L 310.822967 -150.973009 
L 305.483254 -163.011834 
L 300.143541 -169.727623 
L 294.803828 -158.332944 
L 289.464115 -191.438228 
L 284.124402 -201.723014 
L 278.784689 -221.766361 
L 273.444976 -228.596944 
L 268.105263 -226.767306 
L 262.76555 -221.263557 
L 257.425837 -220.02066 
L 252.086124 -216.284532 
L 246.746411 -230.32696 
L 241.406699 -221.707189 
L 236.066986 -232.869383 
L 230.727273 -264.819963 
z
" style="stroke: #0000ff; stroke-opacity: 0.05"/>
    </defs>
    <g clip-path="url(#p5b97eeac29)">
     <use xlink:href="#md84b2c9f08" x="0" y="360" style="fill: #0000ff; fill-opacity: 0.05; stroke: #0000ff; stroke-opacity: 0.05"/>
    </g>
   </g>
   <g id="matplotlib.axis_1">
    <g id="xtick_1">
     <g id="line2d_1">
      <defs>
       <path id="m06b29f9862" d="M 0 0 
L 0 3.5 
" style="stroke: #000000; stroke-width: 0.8"/>
      </defs>
      <g>
       <use xlink:href="#m06b29f9862" x="230.727273" y="320.4" style="stroke: #000000; stroke-width: 0.8"/>
      </g>
     </g>
     <g id="text_1">
      <!-- 0 -->
      <g transform="translate(227.546023 334.998438) scale(0.1 -0.1)">
       <defs>
        <path id="DejaVuSans-30" d="M 2034 4250 
Q 1547 4250 1301 3770 
Q 1056 3291 1056 2328 
Q 1056 1369 1301 889 
Q 1547 409 2034 409 
Q 2525 409 2770 889 
Q 3016 1369 3016 2328 
Q 3016 3291 2770 3770 
Q 2525 4250 2034 4250 
z
M 2034 4750 
Q 2819 4750 3233 4129 
Q 3647 3509 3647 2328 
Q 3647 1150 3233 529 
Q 2819 -91 2034 -91 
Q 1250 -91 836 529 
Q 422 1150 422 2328 
Q 422 3509 836 4129 
Q 1250 4750 2034 4750 
z
" transform="scale(0.015625)"/>
       </defs>
       <use xlink:href="#DejaVuSans-30"/>
      </g>
     </g>
    </g>
    <g id="xtick_2">
     <g id="line2d_2">
      <g>
       <use xlink:href="#m06b29f9862" x="364.220096" y="320.4" style="stroke: #000000; stroke-width: 0.8"/>
      </g>
     </g>
     <g id="text_2">
      <!-- 25 -->
      <g transform="translate(357.857596 334.998438) scale(0.1 -0.1)">
       <defs>
        <path id="DejaVuSans-32" d="M 1228 531 
L 3431 531 
L 3431 0 
L 469 0 
L 469 531 
Q 828 903 1448 1529 
Q 2069 2156 2228 2338 
Q 2531 2678 2651 2914 
Q 2772 3150 2772 3378 
Q 2772 3750 2511 3984 
Q 2250 4219 1831 4219 
Q 1534 4219 1204 4116 
Q 875 4013 500 3803 
L 500 4441 
Q 881 4594 1212 4672 
Q 1544 4750 1819 4750 
Q 2544 4750 2975 4387 
Q 3406 4025 3406 3419 
Q 3406 3131 3298 2873 
Q 3191 2616 2906 2266 
Q 2828 2175 2409 1742 
Q 1991 1309 1228 531 
z
" transform="scale(0.015625)"/>
        <path id="DejaVuSans-35" d="M 691 4666 
L 3169 4666 
L 3169 4134 
L 1269 4134 
L 1269 2991 
Q 1406 3038 1543 3061 
Q 1681 3084 1819 3084 
Q 2600 3084 3056 2656 
Q 3513 2228 3513 1497 
Q 3513 744 3044 326 
Q 2575 -91 1722 -91 
Q 1428 -91 1123 -41 
Q 819 9 494 109 
L 494 744 
Q 775 591 1075 516 
Q 1375 441 1709 441 
Q 2250 441 2565 725 
Q 2881 1009 2881 1497 
Q 2881 1984 2565 2268 
Q 2250 2553 1709 2553 
Q 1456 2553 1204 2497 
Q 953 2441 691 2322 
L 691 4666 
z
" transform="scale(0.015625)"/>
       </defs>
       <use xlink:href="#DejaVuSans-32"/>
       <use xlink:href="#DejaVuSans-35" x="63.623047"/>
      </g>
     </g>
    </g>
    <g id="xtick_3">
     <g id="line2d_3">
      <g>
       <use xlink:href="#m06b29f9862" x="497.712919" y="320.4" style="stroke: #000000; stroke-width: 0.8"/>
      </g>
     </g>
     <g id="text_3">
      <!-- 50 -->
      <g transform="translate(491.350419 334.998438) scale(0.1 -0.1)">
       <use xlink:href="#DejaVuSans-35"/>
       <use xlink:href="#DejaVuSans-30" x="63.623047"/>
      </g>
     </g>
    </g>
    <g id="xtick_4">
     <g id="line2d_4">
      <g>
       <use xlink:href="#m06b29f9862" x="631.205742" y="320.4" style="stroke: #000000; stroke-width: 0.8"/>
      </g>
     </g>
     <g id="text_4">
      <!-- 75 -->
      <g transform="translate(624.843242 334.998438) scale(0.1 -0.1)">
       <defs>
        <path id="DejaVuSans-37" d="M 525 4666 
L 3525 4666 
L 3525 4397 
L 1831 0 
L 1172 0 
L 2766 4134 
L 525 4134 
L 525 4666 
z
" transform="scale(0.015625)"/>
       </defs>
       <use xlink:href="#DejaVuSans-37"/>
       <use xlink:href="#DejaVuSans-35" x="63.623047"/>
      </g>
     </g>
    </g>
    <g id="xtick_5">
     <g id="line2d_5">
      <g>
       <use xlink:href="#m06b29f9862" x="764.698565" y="320.4" style="stroke: #000000; stroke-width: 0.8"/>
      </g>
     </g>
     <g id="text_5">
      <!-- 100 -->
      <g transform="translate(755.154815 334.998438) scale(0.1 -0.1)">
       <defs>
        <path id="DejaVuSans-31" d="M 794 531 
L 1825 531 
L 1825 4091 
L 703 3866 
L 703 4441 
L 1819 4666 
L 2450 4666 
L 2450 531 
L 3481 531 
L 3481 0 
L 794 0 
L 794 531 
z
" transform="scale(0.015625)"/>
       </defs>
       <use xlink:href="#DejaVuSans-31"/>
       <use xlink:href="#DejaVuSans-30" x="63.623047"/>
       <use xlink:href="#DejaVuSans-30" x="127.246094"/>
      </g>
     </g>
    </g>
    <g id="xtick_6">
     <g id="line2d_6">
      <g>
       <use xlink:href="#m06b29f9862" x="898.191388" y="320.4" style="stroke: #000000; stroke-width: 0.8"/>
      </g>
     </g>
     <g id="text_6">
      <!-- 125 -->
      <g transform="translate(888.647638 334.998438) scale(0.1 -0.1)">
       <use xlink:href="#DejaVuSans-31"/>
       <use xlink:href="#DejaVuSans-32" x="63.623047"/>
       <use xlink:href="#DejaVuSans-35" x="127.246094"/>
      </g>
     </g>
    </g>
    <g id="xtick_7">
     <g id="line2d_7">
      <g>
       <use xlink:href="#m06b29f9862" x="1031.684211" y="320.4" style="stroke: #000000; stroke-width: 0.8"/>
      </g>
     </g>
     <g id="text_7">
      <!-- 150 -->
      <g transform="translate(1022.140461 334.998438) scale(0.1 -0.1)">
       <use xlink:href="#DejaVuSans-31"/>
       <use xlink:href="#DejaVuSans-35" x="63.623047"/>
       <use xlink:href="#DejaVuSans-30" x="127.246094"/>
      </g>
     </g>
    </g>
    <g id="xtick_8">
     <g id="line2d_8">
      <g>
       <use xlink:href="#m06b29f9862" x="1165.177033" y="320.4" style="stroke: #000000; stroke-width: 0.8"/>
      </g>
     </g>
     <g id="text_8">
      <!-- 175 -->
      <g transform="translate(1155.633283 334.998438) scale(0.1 -0.1)">
       <use xlink:href="#DejaVuSans-31"/>
       <use xlink:href="#DejaVuSans-37" x="63.623047"/>
       <use xlink:href="#DejaVuSans-35" x="127.246094"/>
      </g>
     </g>
    </g>
    <g id="text_9">
     <!-- Amostras -->
     <g transform="translate(714.360937 348.676562) scale(0.1 -0.1)">
      <defs>
       <path id="DejaVuSans-41" d="M 2188 4044 
L 1331 1722 
L 3047 1722 
L 2188 4044 
z
M 1831 4666 
L 2547 4666 
L 4325 0 
L 3669 0 
L 3244 1197 
L 1141 1197 
L 716 0 
L 50 0 
L 1831 4666 
z
" transform="scale(0.015625)"/>
       <path id="DejaVuSans-6d" d="M 3328 2828 
Q 3544 3216 3844 3400 
Q 4144 3584 4550 3584 
Q 5097 3584 5394 3201 
Q 5691 2819 5691 2113 
L 5691 0 
L 5113 0 
L 5113 2094 
Q 5113 2597 4934 2840 
Q 4756 3084 4391 3084 
Q 3944 3084 3684 2787 
Q 3425 2491 3425 1978 
L 3425 0 
L 2847 0 
L 2847 2094 
Q 2847 2600 2669 2842 
Q 2491 3084 2119 3084 
Q 1678 3084 1418 2786 
Q 1159 2488 1159 1978 
L 1159 0 
L 581 0 
L 581 3500 
L 1159 3500 
L 1159 2956 
Q 1356 3278 1631 3431 
Q 1906 3584 2284 3584 
Q 2666 3584 2933 3390 
Q 3200 3197 3328 2828 
z
" transform="scale(0.015625)"/>
       <path id="DejaVuSans-6f" d="M 1959 3097 
Q 1497 3097 1228 2736 
Q 959 2375 959 1747 
Q 959 1119 1226 758 
Q 1494 397 1959 397 
Q 2419 397 2687 759 
Q 2956 1122 2956 1747 
Q 2956 2369 2687 2733 
Q 2419 3097 1959 3097 
z
M 1959 3584 
Q 2709 3584 3137 3096 
Q 3566 2609 3566 1747 
Q 3566 888 3137 398 
Q 2709 -91 1959 -91 
Q 1206 -91 779 398 
Q 353 888 353 1747 
Q 353 2609 779 3096 
Q 1206 3584 1959 3584 
z
" transform="scale(0.015625)"/>
       <path id="DejaVuSans-73" d="M 2834 3397 
L 2834 2853 
Q 2591 2978 2328 3040 
Q 2066 3103 1784 3103 
Q 1356 3103 1142 2972 
Q 928 2841 928 2578 
Q 928 2378 1081 2264 
Q 1234 2150 1697 2047 
L 1894 2003 
Q 2506 1872 2764 1633 
Q 3022 1394 3022 966 
Q 3022 478 2636 193 
Q 2250 -91 1575 -91 
Q 1294 -91 989 -36 
Q 684 19 347 128 
L 347 722 
Q 666 556 975 473 
Q 1284 391 1588 391 
Q 1994 391 2212 530 
Q 2431 669 2431 922 
Q 2431 1156 2273 1281 
Q 2116 1406 1581 1522 
L 1381 1569 
Q 847 1681 609 1914 
Q 372 2147 372 2553 
Q 372 3047 722 3315 
Q 1072 3584 1716 3584 
Q 2034 3584 2315 3537 
Q 2597 3491 2834 3397 
z
" transform="scale(0.015625)"/>
       <path id="DejaVuSans-74" d="M 1172 4494 
L 1172 3500 
L 2356 3500 
L 2356 3053 
L 1172 3053 
L 1172 1153 
Q 1172 725 1289 603 
Q 1406 481 1766 481 
L 2356 481 
L 2356 0 
L 1766 0 
Q 1100 0 847 248 
Q 594 497 594 1153 
L 594 3053 
L 172 3053 
L 172 3500 
L 594 3500 
L 594 4494 
L 1172 4494 
z
" transform="scale(0.015625)"/>
       <path id="DejaVuSans-72" d="M 2631 2963 
Q 2534 3019 2420 3045 
Q 2306 3072 2169 3072 
Q 1681 3072 1420 2755 
Q 1159 2438 1159 1844 
L 1159 0 
L 581 0 
L 581 3500 
L 1159 3500 
L 1159 2956 
Q 1341 3275 1631 3429 
Q 1922 3584 2338 3584 
Q 2397 3584 2469 3576 
Q 2541 3569 2628 3553 
L 2631 2963 
z
" transform="scale(0.015625)"/>
       <path id="DejaVuSans-61" d="M 2194 1759 
Q 1497 1759 1228 1600 
Q 959 1441 959 1056 
Q 959 750 1161 570 
Q 1363 391 1709 391 
Q 2188 391 2477 730 
Q 2766 1069 2766 1631 
L 2766 1759 
L 2194 1759 
z
M 3341 1997 
L 3341 0 
L 2766 0 
L 2766 531 
Q 2569 213 2275 61 
Q 1981 -91 1556 -91 
Q 1019 -91 701 211 
Q 384 513 384 1019 
Q 384 1609 779 1909 
Q 1175 2209 1959 2209 
L 2766 2209 
L 2766 2266 
Q 2766 2663 2505 2880 
Q 2244 3097 1772 3097 
Q 1472 3097 1187 3025 
Q 903 2953 641 2809 
L 641 3341 
Q 956 3463 1253 3523 
Q 1550 3584 1831 3584 
Q 2591 3584 2966 3190 
Q 3341 2797 3341 1997 
z
" transform="scale(0.015625)"/>
      </defs>
      <use xlink:href="#DejaVuSans-41"/>
      <use xlink:href="#DejaVuSans-6d" x="68.408203"/>
      <use xlink:href="#DejaVuSans-6f" x="165.820312"/>
      <use xlink:href="#DejaVuSans-73" x="227.001953"/>
      <use xlink:href="#DejaVuSans-74" x="279.101562"/>
      <use xlink:href="#DejaVuSans-72" x="318.310547"/>
      <use xlink:href="#DejaVuSans-61" x="359.423828"/>
      <use xlink:href="#DejaVuSans-73" x="420.703125"/>
     </g>
    </g>
   </g>
   <g id="matplotlib.axis_2">
    <g id="ytick_1">
     <g id="line2d_9">
      <defs>
       <path id="mef139f74e4" d="M 0 0 
L -3.5 0 
" style="stroke: #000000; stroke-width: 0.8"/>
      </defs>
      <g>
       <use xlink:href="#mef139f74e4" x="180" y="305.816988" style="stroke: #000000; stroke-width: 0.8"/>
      </g>
     </g>
     <g id="text_10">
      <!-- 2 -->
      <g transform="translate(166.6375 309.616206) scale(0.1 -0.1)">
       <use xlink:href="#DejaVuSans-32"/>
      </g>
     </g>
    </g>
    <g id="ytick_2">
     <g id="line2d_10">
      <g>
       <use xlink:href="#mef139f74e4" x="180" y="268.77432" style="stroke: #000000; stroke-width: 0.8"/>
      </g>
     </g>
     <g id="text_11">
      <!-- 4 -->
      <g transform="translate(166.6375 272.573539) scale(0.1 -0.1)">
       <defs>
        <path id="DejaVuSans-34" d="M 2419 4116 
L 825 1625 
L 2419 1625 
L 2419 4116 
z
M 2253 4666 
L 3047 4666 
L 3047 1625 
L 3713 1625 
L 3713 1100 
L 3047 1100 
L 3047 0 
L 2419 0 
L 2419 1100 
L 313 1100 
L 313 1709 
L 2253 4666 
z
" transform="scale(0.015625)"/>
       </defs>
       <use xlink:href="#DejaVuSans-34"/>
      </g>
     </g>
    </g>
    <g id="ytick_3">
     <g id="line2d_11">
      <g>
       <use xlink:href="#mef139f74e4" x="180" y="231.731652" style="stroke: #000000; stroke-width: 0.8"/>
      </g>
     </g>
     <g id="text_12">
      <!-- 6 -->
      <g transform="translate(166.6375 235.530871) scale(0.1 -0.1)">
       <defs>
        <path id="DejaVuSans-36" d="M 2113 2584 
Q 1688 2584 1439 2293 
Q 1191 2003 1191 1497 
Q 1191 994 1439 701 
Q 1688 409 2113 409 
Q 2538 409 2786 701 
Q 3034 994 3034 1497 
Q 3034 2003 2786 2293 
Q 2538 2584 2113 2584 
z
M 3366 4563 
L 3366 3988 
Q 3128 4100 2886 4159 
Q 2644 4219 2406 4219 
Q 1781 4219 1451 3797 
Q 1122 3375 1075 2522 
Q 1259 2794 1537 2939 
Q 1816 3084 2150 3084 
Q 2853 3084 3261 2657 
Q 3669 2231 3669 1497 
Q 3669 778 3244 343 
Q 2819 -91 2113 -91 
Q 1303 -91 875 529 
Q 447 1150 447 2328 
Q 447 3434 972 4092 
Q 1497 4750 2381 4750 
Q 2619 4750 2861 4703 
Q 3103 4656 3366 4563 
z
" transform="scale(0.015625)"/>
       </defs>
       <use xlink:href="#DejaVuSans-36"/>
      </g>
     </g>
    </g>
    <g id="ytick_4">
     <g id="line2d_12">
      <g>
       <use xlink:href="#mef139f74e4" x="180" y="194.688985" style="stroke: #000000; stroke-width: 0.8"/>
      </g>
     </g>
     <g id="text_13">
      <!-- 8 -->
      <g transform="translate(166.6375 198.488203) scale(0.1 -0.1)">
       <defs>
        <path id="DejaVuSans-38" d="M 2034 2216 
Q 1584 2216 1326 1975 
Q 1069 1734 1069 1313 
Q 1069 891 1326 650 
Q 1584 409 2034 409 
Q 2484 409 2743 651 
Q 3003 894 3003 1313 
Q 3003 1734 2745 1975 
Q 2488 2216 2034 2216 
z
M 1403 2484 
Q 997 2584 770 2862 
Q 544 3141 544 3541 
Q 544 4100 942 4425 
Q 1341 4750 2034 4750 
Q 2731 4750 3128 4425 
Q 3525 4100 3525 3541 
Q 3525 3141 3298 2862 
Q 3072 2584 2669 2484 
Q 3125 2378 3379 2068 
Q 3634 1759 3634 1313 
Q 3634 634 3220 271 
Q 2806 -91 2034 -91 
Q 1263 -91 848 271 
Q 434 634 434 1313 
Q 434 1759 690 2068 
Q 947 2378 1403 2484 
z
M 1172 3481 
Q 1172 3119 1398 2916 
Q 1625 2713 2034 2713 
Q 2441 2713 2670 2916 
Q 2900 3119 2900 3481 
Q 2900 3844 2670 4047 
Q 2441 4250 2034 4250 
Q 1625 4250 1398 4047 
Q 1172 3844 1172 3481 
z
" transform="scale(0.015625)"/>
       </defs>
       <use xlink:href="#DejaVuSans-38"/>
      </g>
     </g>
    </g>
    <g id="ytick_5">
     <g id="line2d_13">
      <g>
       <use xlink:href="#mef139f74e4" x="180" y="157.646317" style="stroke: #000000; stroke-width: 0.8"/>
      </g>
     </g>
     <g id="text_14">
      <!-- 10 -->
      <g transform="translate(160.275 161.445536) scale(0.1 -0.1)">
       <use xlink:href="#DejaVuSans-31"/>
       <use xlink:href="#DejaVuSans-30" x="63.623047"/>
      </g>
     </g>
    </g>
    <g id="ytick_6">
     <g id="line2d_14">
      <g>
       <use xlink:href="#mef139f74e4" x="180" y="120.603649" style="stroke: #000000; stroke-width: 0.8"/>
      </g>
     </g>
     <g id="text_15">
      <!-- 12 -->
      <g transform="translate(160.275 124.402868) scale(0.1 -0.1)">
       <use xlink:href="#DejaVuSans-31"/>
       <use xlink:href="#DejaVuSans-32" x="63.623047"/>
      </g>
     </g>
    </g>
    <g id="ytick_7">
     <g id="line2d_15">
      <g>
       <use xlink:href="#mef139f74e4" x="180" y="83.560981" style="stroke: #000000; stroke-width: 0.8"/>
      </g>
     </g>
     <g id="text_16">
      <!-- 14 -->
      <g transform="translate(160.275 87.3602) scale(0.1 -0.1)">
       <use xlink:href="#DejaVuSans-31"/>
       <use xlink:href="#DejaVuSans-34" x="63.623047"/>
      </g>
     </g>
    </g>
    <g id="ytick_8">
     <g id="line2d_16">
      <g>
       <use xlink:href="#mef139f74e4" x="180" y="46.518314" style="stroke: #000000; stroke-width: 0.8"/>
      </g>
     </g>
     <g id="text_17">
      <!-- 16 -->
      <g transform="translate(160.275 50.317532) scale(0.1 -0.1)">
       <use xlink:href="#DejaVuSans-31"/>
       <use xlink:href="#DejaVuSans-36" x="63.623047"/>
      </g>
     </g>
    </g>
    <g id="text_18">
     <!-- Velocidade do Vento (m/s) -->
     <g transform="translate(154.195312 247.344531) rotate(-90) scale(0.1 -0.1)">
      <defs>
       <path id="DejaVuSans-56" d="M 1831 0 
L 50 4666 
L 709 4666 
L 2188 738 
L 3669 4666 
L 4325 4666 
L 2547 0 
L 1831 0 
z
" transform="scale(0.015625)"/>
       <path id="DejaVuSans-65" d="M 3597 1894 
L 3597 1613 
L 953 1613 
Q 991 1019 1311 708 
Q 1631 397 2203 397 
Q 2534 397 2845 478 
Q 3156 559 3463 722 
L 3463 178 
Q 3153 47 2828 -22 
Q 2503 -91 2169 -91 
Q 1331 -91 842 396 
Q 353 884 353 1716 
Q 353 2575 817 3079 
Q 1281 3584 2069 3584 
Q 2775 3584 3186 3129 
Q 3597 2675 3597 1894 
z
M 3022 2063 
Q 3016 2534 2758 2815 
Q 2500 3097 2075 3097 
Q 1594 3097 1305 2825 
Q 1016 2553 972 2059 
L 3022 2063 
z
" transform="scale(0.015625)"/>
       <path id="DejaVuSans-6c" d="M 603 4863 
L 1178 4863 
L 1178 0 
L 603 0 
L 603 4863 
z
" transform="scale(0.015625)"/>
       <path id="DejaVuSans-63" d="M 3122 3366 
L 3122 2828 
Q 2878 2963 2633 3030 
Q 2388 3097 2138 3097 
Q 1578 3097 1268 2742 
Q 959 2388 959 1747 
Q 959 1106 1268 751 
Q 1578 397 2138 397 
Q 2388 397 2633 464 
Q 2878 531 3122 666 
L 3122 134 
Q 2881 22 2623 -34 
Q 2366 -91 2075 -91 
Q 1284 -91 818 406 
Q 353 903 353 1747 
Q 353 2603 823 3093 
Q 1294 3584 2113 3584 
Q 2378 3584 2631 3529 
Q 2884 3475 3122 3366 
z
" transform="scale(0.015625)"/>
       <path id="DejaVuSans-69" d="M 603 3500 
L 1178 3500 
L 1178 0 
L 603 0 
L 603 3500 
z
M 603 4863 
L 1178 4863 
L 1178 4134 
L 603 4134 
L 603 4863 
z
" transform="scale(0.015625)"/>
       <path id="DejaVuSans-64" d="M 2906 2969 
L 2906 4863 
L 3481 4863 
L 3481 0 
L 2906 0 
L 2906 525 
Q 2725 213 2448 61 
Q 2172 -91 1784 -91 
Q 1150 -91 751 415 
Q 353 922 353 1747 
Q 353 2572 751 3078 
Q 1150 3584 1784 3584 
Q 2172 3584 2448 3432 
Q 2725 3281 2906 2969 
z
M 947 1747 
Q 947 1113 1208 752 
Q 1469 391 1925 391 
Q 2381 391 2643 752 
Q 2906 1113 2906 1747 
Q 2906 2381 2643 2742 
Q 2381 3103 1925 3103 
Q 1469 3103 1208 2742 
Q 947 2381 947 1747 
z
" transform="scale(0.015625)"/>
       <path id="DejaVuSans-20" transform="scale(0.015625)"/>
       <path id="DejaVuSans-6e" d="M 3513 2113 
L 3513 0 
L 2938 0 
L 2938 2094 
Q 2938 2591 2744 2837 
Q 2550 3084 2163 3084 
Q 1697 3084 1428 2787 
Q 1159 2491 1159 1978 
L 1159 0 
L 581 0 
L 581 3500 
L 1159 3500 
L 1159 2956 
Q 1366 3272 1645 3428 
Q 1925 3584 2291 3584 
Q 2894 3584 3203 3211 
Q 3513 2838 3513 2113 
z
" transform="scale(0.015625)"/>
       <path id="DejaVuSans-28" d="M 1984 4856 
Q 1566 4138 1362 3434 
Q 1159 2731 1159 2009 
Q 1159 1288 1364 580 
Q 1569 -128 1984 -844 
L 1484 -844 
Q 1016 -109 783 600 
Q 550 1309 550 2009 
Q 550 2706 781 3412 
Q 1013 4119 1484 4856 
L 1984 4856 
z
" transform="scale(0.015625)"/>
       <path id="DejaVuSans-2f" d="M 1625 4666 
L 2156 4666 
L 531 -594 
L 0 -594 
L 1625 4666 
z
" transform="scale(0.015625)"/>
       <path id="DejaVuSans-29" d="M 513 4856 
L 1013 4856 
Q 1481 4119 1714 3412 
Q 1947 2706 1947 2009 
Q 1947 1309 1714 600 
Q 1481 -109 1013 -844 
L 513 -844 
Q 928 -128 1133 580 
Q 1338 1288 1338 2009 
Q 1338 2731 1133 3434 
Q 928 4138 513 4856 
z
" transform="scale(0.015625)"/>
      </defs>
      <use xlink:href="#DejaVuSans-56"/>
      <use xlink:href="#DejaVuSans-65" x="60.658203"/>
      <use xlink:href="#DejaVuSans-6c" x="122.181641"/>
      <use xlink:href="#DejaVuSans-6f" x="149.964844"/>
      <use xlink:href="#DejaVuSans-63" x="211.146484"/>
      <use xlink:href="#DejaVuSans-69" x="266.126953"/>
      <use xlink:href="#DejaVuSans-64" x="293.910156"/>
      <use xlink:href="#DejaVuSans-61" x="357.386719"/>
      <use xlink:href="#DejaVuSans-64" x="418.666016"/>
      <use xlink:href="#DejaVuSans-65" x="482.142578"/>
      <use xlink:href="#DejaVuSans-20" x="543.666016"/>
      <use xlink:href="#DejaVuSans-64" x="575.453125"/>
      <use xlink:href="#DejaVuSans-6f" x="638.929688"/>
      <use xlink:href="#DejaVuSans-20" x="700.111328"/>
      <use xlink:href="#DejaVuSans-56" x="731.898438"/>
      <use xlink:href="#DejaVuSans-65" x="792.556641"/>
      <use xlink:href="#DejaVuSans-6e" x="854.080078"/>
      <use xlink:href="#DejaVuSans-74" x="917.458984"/>
      <use xlink:href="#DejaVuSans-6f" x="956.667969"/>
      <use xlink:href="#DejaVuSans-20" x="1017.849609"/>
      <use xlink:href="#DejaVuSans-28" x="1049.636719"/>
      <use xlink:href="#DejaVuSans-6d" x="1088.650391"/>
      <use xlink:href="#DejaVuSans-2f" x="1186.0625"/>
      <use xlink:href="#DejaVuSans-73" x="1219.753906"/>
      <use xlink:href="#DejaVuSans-29" x="1271.853516"/>
     </g>
    </g>
   </g>
   <g id="line2d_17">
    <path d="M 230.727273 134.927065 
L 236.066986 166.877645 
L 241.406699 178.039839 
L 246.746411 169.420068 
L 252.086124 183.462496 
L 257.425837 179.726368 
L 262.76555 178.483471 
L 268.105263 172.979722 
L 273.444976 171.150084 
L 278.784689 177.980667 
L 284.124402 198.024014 
L 289.464115 208.3088 
L 294.803828 241.414075 
L 300.143541 230.019405 
L 305.483254 236.735194 
L 310.822967 248.774019 
L 316.162679 250.333981 
L 326.842105 263.337214 
L 332.181818 260.45116 
L 337.521531 250.221333 
L 342.861244 238.314533 
L 348.200957 194.430076 
L 353.54067 157.760051 
L 358.880383 133.86089 
L 364.220096 117.53523 
L 369.559809 116.396723 
L 374.899522 117.071285 
L 380.239234 114.90389 
L 385.578947 134.069705 
L 390.91866 151.641141 
L 396.258373 176.739483 
L 401.598086 182.878935 
L 406.937799 184.880543 
L 412.277512 179.365736 
L 417.617225 169.417207 
L 422.956938 199.101459 
L 428.296651 212.554727 
L 433.636364 206.583668 
L 438.976077 202.192248 
L 449.655502 189.888589 
L 454.995215 204.714588 
L 460.334928 211.177261 
L 465.674641 193.2936 
L 471.014354 186.575956 
L 476.354067 187.315944 
L 481.69378 173.530959 
L 487.033493 125.601132 
L 492.373206 105.122826 
L 497.712919 106.632051 
L 503.052632 118.381127 
L 508.392344 126.249853 
L 513.732057 122.856394 
L 519.07177 126.454536 
L 524.411483 133.930165 
L 529.751196 154.133718 
L 535.090909 149.360806 
L 540.430622 168.308974 
L 545.770335 182.975713 
L 551.110048 210.803055 
L 556.449761 211.107182 
L 561.789474 212.553684 
L 567.129187 210.86304 
L 572.4689 223.690735 
L 577.808612 227.071388 
L 583.148325 251.247926 
L 588.488038 215.360395 
L 593.827751 194.207942 
L 599.167464 186.830856 
L 604.507177 151.311738 
L 609.84689 123.341976 
L 615.186603 111.470971 
L 620.526316 98.804374 
L 625.866029 98.352493 
L 631.205742 95.547028 
L 636.545455 105.519332 
L 641.885167 114.587875 
L 647.22488 137.675831 
L 652.564593 145.461205 
L 657.904306 154.70631 
L 663.244019 172.615981 
L 668.583732 166.855619 
L 673.923445 176.471107 
L 679.263158 198.867852 
L 684.602871 196.813944 
L 689.942584 195.332654 
L 695.282297 201.404261 
L 700.62201 194.125348 
L 705.961722 206.135788 
L 711.301435 222.717609 
L 716.641148 226.076678 
L 721.980861 202.054103 
L 727.320574 194.283682 
L 732.660287 155.88002 
L 738 123.010012 
L 743.339713 117.989566 
L 748.679426 113.410633 
L 754.019139 109.806026 
L 759.358852 103.816924 
L 764.698565 112.8961 
L 770.038278 118.461548 
L 775.37799 127.15418 
L 780.717703 162.985709 
L 786.057416 177.499253 
L 791.397129 173.652482 
L 796.736842 162.477588 
L 802.076555 170.712652 
L 807.416268 220.446733 
L 812.755981 260.506252 
L 818.095694 262.954848 
L 823.435407 268.052976 
L 828.77512 255.594003 
L 834.114833 230.121084 
L 839.454545 230.03623 
L 844.794258 236.137847 
L 855.473684 205.858597 
L 860.813397 197.785965 
L 866.15311 171.338552 
L 871.492823 132.148307 
L 876.832536 116.207302 
L 882.172249 126.359118 
L 887.511962 122.815203 
L 892.851675 125.646262 
L 898.191388 134.107081 
L 903.5311 155.297978 
L 908.870813 170.772778 
L 914.210526 162.477712 
L 919.550239 172.140361 
L 924.889952 178.370108 
L 930.229665 175.631551 
L 935.569378 196.655301 
L 940.909091 185.369746 
L 946.248804 197.159129 
L 951.588517 202.4977 
L 956.92823 194.685893 
L 962.267943 199.525475 
L 967.607656 214.008462 
L 972.947368 225.447864 
L 978.287081 213.543351 
L 983.626794 199.8433 
L 988.966507 166.910923 
L 994.30622 135.497078 
L 999.645933 124.343769 
L 1004.985646 135.989567 
L 1010.325359 129.593661 
L 1015.665072 129.775364 
L 1021.004785 137.016618 
L 1026.344498 144.037629 
L 1031.684211 163.767028 
L 1037.023923 174.045226 
L 1042.363636 167.941648 
L 1047.703349 183.501779 
L 1053.043062 190.219546 
L 1058.382775 178.141491 
L 1063.722488 219.654913 
L 1069.062201 220.443051 
L 1074.401914 228.242157 
L 1079.741627 245.668922 
L 1085.08134 238.83259 
L 1095.760766 242.135251 
L 1101.100478 214.660927 
L 1106.440191 222.882611 
L 1111.779904 228.015475 
L 1117.119617 209.526006 
L 1122.45933 196.803505 
L 1127.799043 170.327503 
L 1133.138756 140.379344 
L 1138.478469 129.2656 
L 1143.818182 125.181222 
L 1149.157895 130.802609 
L 1154.497608 136.674515 
L 1159.837321 146.773148 
L 1165.177033 145.262793 
L 1170.516746 152.995935 
L 1175.856459 171.411378 
L 1181.196172 181.35505 
L 1186.535885 173.626499 
L 1191.875598 184.667823 
L 1197.215311 190.785868 
L 1202.555024 200.577856 
L 1207.894737 203.119528 
L 1213.23445 216.073993 
L 1218.574163 221.998288 
L 1223.913876 234.102008 
L 1229.253589 231.524938 
L 1234.593301 219.274543 
L 1239.933014 192.9876 
L 1245.272727 163.099143 
L 1245.272727 163.099143 
" clip-path="url(#p5b97eeac29)" style="fill: none; stroke: #0000ff; stroke-width: 1.5; stroke-linecap: square"/>
   </g>
   <g id="line2d_18">
    <path d="M 230.727273 171.197759 
L 236.066986 181.086094 
L 241.406699 163.902411 
L 246.746411 183.195468 
L 252.086124 180.571612 
L 257.425837 176.764449 
L 262.76555 170.209955 
L 268.105263 164.900505 
L 273.444976 172.967576 
L 278.784689 199.082656 
L 284.124402 210.205746 
L 289.464115 231.309777 
L 294.803828 219.56931 
L 300.143541 231.77281 
L 305.483254 248.318535 
L 310.822967 251.715902 
L 316.162679 261.365786 
L 321.502392 272.10816 
L 326.842105 270.358923 
L 332.181818 255.572725 
L 337.521531 243.791098 
L 342.861244 196.438221 
L 348.200957 155.89708 
L 353.54067 128.444347 
L 358.880383 102.689403 
L 364.220096 104.891384 
L 369.559809 105.601369 
L 374.899522 103.471415 
L 380.239234 132.467593 
L 385.578947 152.161945 
L 390.91866 182.886779 
L 396.258373 187.403926 
L 401.598086 188.823895 
L 406.937799 177.474433 
L 412.277512 156.70996 
L 417.617225 178.009495 
L 422.956938 195.789974 
L 428.296651 193.248436 
L 433.636364 190.909775 
L 438.976077 186.600074 
L 444.315789 182.074059 
L 449.655502 205.35933 
L 454.995215 216.379524 
L 460.334928 210.246905 
L 465.674641 217.099798 
L 471.014354 215.000714 
L 476.354067 192.342949 
L 481.69378 128.526664 
L 487.033493 88.448556 
L 492.373206 85.505722 
L 497.712919 104.191688 
L 503.052632 120.922627 
L 508.392344 110.612419 
L 513.732057 105.426445 
L 519.07177 117.280098 
L 524.411483 147.109736 
L 529.751196 131.757608 
L 535.090909 158.572383 
L 540.430622 172.936707 
L 545.770335 188.43289 
L 551.110048 193.40278 
L 556.449761 198.825415 
L 561.789474 198.599044 
L 567.129187 212.850182 
L 572.4689 219.476703 
L 577.808612 253.967542 
L 583.148325 219.744233 
L 588.488038 210.565883 
L 593.827751 208.086083 
L 599.167464 167.616968 
L 604.507177 128.588402 
L 609.84689 100.230182 
L 615.186603 59.226006 
L 620.526316 73.940178 
L 625.866029 86.802216 
L 631.205742 106.331933 
L 636.545455 102.401294 
L 641.885167 139.341065 
L 647.22488 137.190532 
L 652.564593 140.8948 
L 657.904306 160.692047 
L 663.244019 148.581153 
L 668.583732 158.562094 
L 673.923445 169.963004 
L 679.263158 169.355916 
L 684.602871 170.467196 
L 689.942584 181.384493 
L 695.282297 177.083428 
L 700.62201 196.222138 
L 705.961722 219.394386 
L 711.301435 234.170294 
L 716.641148 218.756429 
L 721.980861 222.429827 
L 727.320574 166.145551 
L 732.660287 123.001132 
L 738 113.997706 
L 743.339713 100.693215 
L 748.679426 78.467615 
L 754.019139 84.682552 
L 759.358852 93.318562 
L 764.698565 101.732468 
L 770.038278 112.001519 
L 775.37799 164.725582 
L 780.717703 178.832665 
L 786.057416 162.863159 
L 791.397129 137.386035 
L 796.736842 146.070484 
L 802.076555 195.09028 
L 807.416268 248.956492 
L 812.755981 254.29681 
L 818.095694 259.935528 
L 823.435407 249.03881 
L 828.77512 226.751471 
L 834.114833 230.929061 
L 839.454545 252.063961 
L 844.794258 249.177554 
L 850.133971 231.54965 
L 855.473684 215.021293 
L 860.813397 170.220244 
L 866.15311 111.260665 
L 871.492823 86.452368 
L 876.832536 103.944738 
L 882.172249 97.071266 
L 887.511962 96.700839 
L 892.851675 118.566302 
L 898.191388 151.842966 
L 903.5311 171.393262 
L 908.870813 153.324672 
L 914.210526 168.429849 
L 919.550239 171.382973 
L 924.889952 157.378786 
L 930.229665 161.988541 
L 935.569378 151.235877 
L 940.909091 172.802941 
L 946.248804 185.541504 
L 951.588517 180.8803 
L 956.92823 195.491575 
L 962.267943 215.319692 
L 967.607656 238.635994 
L 972.947368 236.125324 
L 978.287081 217.254143 
L 983.626794 174.809419 
L 988.966507 133.36279 
L 994.30622 109.552586 
L 999.645933 139.886415 
L 1004.985646 123.217214 
L 1010.325359 120.912338 
L 1015.665072 135.225213 
L 1021.004785 142.613167 
L 1026.344498 170.168797 
L 1031.684211 186.611625 
L 1037.023923 176.280837 
L 1042.363636 198.650491 
L 1047.703349 204.392105 
L 1053.043062 176.939373 
L 1058.382775 199.041498 
L 1063.722488 199.514821 
L 1069.062201 216.307497 
L 1074.401914 245.519757 
L 1079.741627 244.511373 
L 1085.08134 252.022803 
L 1090.421053 248.349404 
L 1095.760766 217.758334 
L 1101.100478 246.24003 
L 1106.440191 264.771654 
L 1111.779904 233.244228 
L 1117.119617 216.883716 
L 1122.45933 183.648211 
L 1127.799043 134.144802 
L 1133.138756 116.127659 
L 1138.478469 109.99504 
L 1143.818182 116.137949 
L 1149.157895 115.274885 
L 1154.497608 134.172087 
L 1159.837321 136.223307 
L 1165.177033 148.282754 
L 1170.516746 178.4005 
L 1175.856459 192.950036 
L 1181.196172 156.812857 
L 1186.535885 140.421477 
L 1191.875598 152.933667 
L 1197.215311 173.008734 
L 1202.555024 183.102862 
L 1207.894737 205.565123 
L 1213.23445 218.046445 
L 1218.574163 240.179438 
L 1223.913876 248.030426 
L 1229.253589 246.229741 
L 1234.593301 206.347135 
L 1239.933014 150.227493 
L 1245.272727 113.184826 
L 1245.272727 113.184826 
" clip-path="url(#p5b97eeac29)" style="fill: none; stroke: #ffa500; stroke-width: 1.5; stroke-linecap: square"/>
   </g>
   <g id="patch_3">
    <path d="M 180 320.4 
L 180 43.2 
" style="fill: none; stroke: #000000; stroke-width: 0.8; stroke-linejoin: miter; stroke-linecap: square"/>
   </g>
   <g id="patch_4">
    <path d="M 1296 320.4 
L 1296 43.2 
" style="fill: none; stroke: #000000; stroke-width: 0.8; stroke-linejoin: miter; stroke-linecap: square"/>
   </g>
   <g id="patch_5">
    <path d="M 180 320.4 
L 1296 320.4 
" style="fill: none; stroke: #000000; stroke-width: 0.8; stroke-linejoin: miter; stroke-linecap: square"/>
   </g>
   <g id="patch_6">
    <path d="M 180 43.2 
L 1296 43.2 
" style="fill: none; stroke: #000000; stroke-width: 0.8; stroke-linejoin: miter; stroke-linecap: square"/>
   </g>
   <g id="text_19">
    <!-- Previsão do vento para 1 hora(s) à frente com 6 camadas -->
    <g transform="translate(564.882187 37.2) scale(0.12 -0.12)">
     <defs>
      <path id="DejaVuSans-50" d="M 1259 4147 
L 1259 2394 
L 2053 2394 
Q 2494 2394 2734 2622 
Q 2975 2850 2975 3272 
Q 2975 3691 2734 3919 
Q 2494 4147 2053 4147 
L 1259 4147 
z
M 628 4666 
L 2053 4666 
Q 2838 4666 3239 4311 
Q 3641 3956 3641 3272 
Q 3641 2581 3239 2228 
Q 2838 1875 2053 1875 
L 1259 1875 
L 1259 0 
L 628 0 
L 628 4666 
z
" transform="scale(0.015625)"/>
      <path id="DejaVuSans-76" d="M 191 3500 
L 800 3500 
L 1894 563 
L 2988 3500 
L 3597 3500 
L 2284 0 
L 1503 0 
L 191 3500 
z
" transform="scale(0.015625)"/>
      <path id="DejaVuSans-e3" d="M 2194 1759 
Q 1497 1759 1228 1600 
Q 959 1441 959 1056 
Q 959 750 1161 570 
Q 1363 391 1709 391 
Q 2188 391 2477 730 
Q 2766 1069 2766 1631 
L 2766 1759 
L 2194 1759 
z
M 3341 1997 
L 3341 0 
L 2766 0 
L 2766 531 
Q 2569 213 2275 61 
Q 1981 -91 1556 -91 
Q 1019 -91 701 211 
Q 384 513 384 1019 
Q 384 1609 779 1909 
Q 1175 2209 1959 2209 
L 2766 2209 
L 2766 2266 
Q 2766 2663 2505 2880 
Q 2244 3097 1772 3097 
Q 1472 3097 1187 3025 
Q 903 2953 641 2809 
L 641 3341 
Q 956 3463 1253 3523 
Q 1550 3584 1831 3584 
Q 2591 3584 2966 3190 
Q 3341 2797 3341 1997 
z
M 1844 4281 
L 1666 4453 
Q 1597 4516 1545 4545 
Q 1494 4575 1453 4575 
Q 1334 4575 1278 4461 
Q 1222 4347 1216 4091 
L 825 4091 
Q 831 4513 990 4742 
Q 1150 4972 1434 4972 
Q 1553 4972 1653 4928 
Q 1753 4884 1869 4781 
L 2047 4609 
Q 2116 4547 2167 4517 
Q 2219 4488 2259 4488 
Q 2378 4488 2434 4602 
Q 2491 4716 2497 4972 
L 2888 4972 
Q 2881 4550 2722 4320 
Q 2563 4091 2278 4091 
Q 2159 4091 2059 4134 
Q 1959 4178 1844 4281 
z
" transform="scale(0.015625)"/>
      <path id="DejaVuSans-70" d="M 1159 525 
L 1159 -1331 
L 581 -1331 
L 581 3500 
L 1159 3500 
L 1159 2969 
Q 1341 3281 1617 3432 
Q 1894 3584 2278 3584 
Q 2916 3584 3314 3078 
Q 3713 2572 3713 1747 
Q 3713 922 3314 415 
Q 2916 -91 2278 -91 
Q 1894 -91 1617 61 
Q 1341 213 1159 525 
z
M 3116 1747 
Q 3116 2381 2855 2742 
Q 2594 3103 2138 3103 
Q 1681 3103 1420 2742 
Q 1159 2381 1159 1747 
Q 1159 1113 1420 752 
Q 1681 391 2138 391 
Q 2594 391 2855 752 
Q 3116 1113 3116 1747 
z
" transform="scale(0.015625)"/>
      <path id="DejaVuSans-68" d="M 3513 2113 
L 3513 0 
L 2938 0 
L 2938 2094 
Q 2938 2591 2744 2837 
Q 2550 3084 2163 3084 
Q 1697 3084 1428 2787 
Q 1159 2491 1159 1978 
L 1159 0 
L 581 0 
L 581 4863 
L 1159 4863 
L 1159 2956 
Q 1366 3272 1645 3428 
Q 1925 3584 2291 3584 
Q 2894 3584 3203 3211 
Q 3513 2838 3513 2113 
z
" transform="scale(0.015625)"/>
      <path id="DejaVuSans-e0" d="M 2194 1759 
Q 1497 1759 1228 1600 
Q 959 1441 959 1056 
Q 959 750 1161 570 
Q 1363 391 1709 391 
Q 2188 391 2477 730 
Q 2766 1069 2766 1631 
L 2766 1759 
L 2194 1759 
z
M 3341 1997 
L 3341 0 
L 2766 0 
L 2766 531 
Q 2569 213 2275 61 
Q 1981 -91 1556 -91 
Q 1019 -91 701 211 
Q 384 513 384 1019 
Q 384 1609 779 1909 
Q 1175 2209 1959 2209 
L 2766 2209 
L 2766 2266 
Q 2766 2663 2505 2880 
Q 2244 3097 1772 3097 
Q 1472 3097 1187 3025 
Q 903 2953 641 2809 
L 641 3341 
Q 956 3463 1253 3523 
Q 1550 3584 1831 3584 
Q 2591 3584 2966 3190 
Q 3341 2797 3341 1997 
z
M 1403 5119 
L 2284 3950 
L 1806 3950 
L 788 5119 
L 1403 5119 
z
" transform="scale(0.015625)"/>
      <path id="DejaVuSans-66" d="M 2375 4863 
L 2375 4384 
L 1825 4384 
Q 1516 4384 1395 4259 
Q 1275 4134 1275 3809 
L 1275 3500 
L 2222 3500 
L 2222 3053 
L 1275 3053 
L 1275 0 
L 697 0 
L 697 3053 
L 147 3053 
L 147 3500 
L 697 3500 
L 697 3744 
Q 697 4328 969 4595 
Q 1241 4863 1831 4863 
L 2375 4863 
z
" transform="scale(0.015625)"/>
     </defs>
     <use xlink:href="#DejaVuSans-50"/>
     <use xlink:href="#DejaVuSans-72" x="58.552734"/>
     <use xlink:href="#DejaVuSans-65" x="97.416016"/>
     <use xlink:href="#DejaVuSans-76" x="158.939453"/>
     <use xlink:href="#DejaVuSans-69" x="218.119141"/>
     <use xlink:href="#DejaVuSans-73" x="245.902344"/>
     <use xlink:href="#DejaVuSans-e3" x="298.001953"/>
     <use xlink:href="#DejaVuSans-6f" x="359.28125"/>
     <use xlink:href="#DejaVuSans-20" x="420.462891"/>
     <use xlink:href="#DejaVuSans-64" x="452.25"/>
     <use xlink:href="#DejaVuSans-6f" x="515.726562"/>
     <use xlink:href="#DejaVuSans-20" x="576.908203"/>
     <use xlink:href="#DejaVuSans-76" x="608.695312"/>
     <use xlink:href="#DejaVuSans-65" x="667.875"/>
     <use xlink:href="#DejaVuSans-6e" x="729.398438"/>
     <use xlink:href="#DejaVuSans-74" x="792.777344"/>
     <use xlink:href="#DejaVuSans-6f" x="831.986328"/>
     <use xlink:href="#DejaVuSans-20" x="893.167969"/>
     <use xlink:href="#DejaVuSans-70" x="924.955078"/>
     <use xlink:href="#DejaVuSans-61" x="988.431641"/>
     <use xlink:href="#DejaVuSans-72" x="1049.710938"/>
     <use xlink:href="#DejaVuSans-61" x="1090.824219"/>
     <use xlink:href="#DejaVuSans-20" x="1152.103516"/>
     <use xlink:href="#DejaVuSans-31" x="1183.890625"/>
     <use xlink:href="#DejaVuSans-20" x="1247.513672"/>
     <use xlink:href="#DejaVuSans-68" x="1279.300781"/>
     <use xlink:href="#DejaVuSans-6f" x="1342.679688"/>
     <use xlink:href="#DejaVuSans-72" x="1403.861328"/>
     <use xlink:href="#DejaVuSans-61" x="1444.974609"/>
     <use xlink:href="#DejaVuSans-28" x="1506.253906"/>
     <use xlink:href="#DejaVuSans-73" x="1545.267578"/>
     <use xlink:href="#DejaVuSans-29" x="1597.367188"/>
     <use xlink:href="#DejaVuSans-20" x="1636.380859"/>
     <use xlink:href="#DejaVuSans-e0" x="1668.167969"/>
     <use xlink:href="#DejaVuSans-20" x="1729.447266"/>
     <use xlink:href="#DejaVuSans-66" x="1761.234375"/>
     <use xlink:href="#DejaVuSans-72" x="1796.439453"/>
     <use xlink:href="#DejaVuSans-65" x="1835.302734"/>
     <use xlink:href="#DejaVuSans-6e" x="1896.826172"/>
     <use xlink:href="#DejaVuSans-74" x="1960.205078"/>
     <use xlink:href="#DejaVuSans-65" x="1999.414062"/>
     <use xlink:href="#DejaVuSans-20" x="2060.9375"/>
     <use xlink:href="#DejaVuSans-63" x="2092.724609"/>
     <use xlink:href="#DejaVuSans-6f" x="2147.705078"/>
     <use xlink:href="#DejaVuSans-6d" x="2208.886719"/>
     <use xlink:href="#DejaVuSans-20" x="2306.298828"/>
     <use xlink:href="#DejaVuSans-36" x="2338.085938"/>
     <use xlink:href="#DejaVuSans-20" x="2401.708984"/>
     <use xlink:href="#DejaVuSans-63" x="2433.496094"/>
     <use xlink:href="#DejaVuSans-61" x="2488.476562"/>
     <use xlink:href="#DejaVuSans-6d" x="2549.755859"/>
     <use xlink:href="#DejaVuSans-61" x="2647.167969"/>
     <use xlink:href="#DejaVuSans-64" x="2708.447266"/>
     <use xlink:href="#DejaVuSans-61" x="2771.923828"/>
     <use xlink:href="#DejaVuSans-73" x="2833.203125"/>
    </g>
   </g>
   <g id="legend_1">
    <g id="patch_7">
     <path d="M 1217.86875 80.55625 
L 1289 80.55625 
Q 1291 80.55625 1291 78.55625 
L 1291 50.2 
Q 1291 48.2 1289 48.2 
L 1217.86875 48.2 
Q 1215.86875 48.2 1215.86875 50.2 
L 1215.86875 78.55625 
Q 1215.86875 80.55625 1217.86875 80.55625 
z
" style="fill: #ffffff; opacity: 0.8; stroke: #cccccc; stroke-linejoin: miter"/>
    </g>
    <g id="line2d_19">
     <path d="M 1219.86875 56.298437 
L 1229.86875 56.298437 
L 1239.86875 56.298437 
" style="fill: none; stroke: #0000ff; stroke-width: 1.5; stroke-linecap: square"/>
    </g>
    <g id="text_20">
     <!-- Predito -->
     <g transform="translate(1247.86875 59.798437) scale(0.1 -0.1)">
      <use xlink:href="#DejaVuSans-50"/>
      <use xlink:href="#DejaVuSans-72" x="58.552734"/>
      <use xlink:href="#DejaVuSans-65" x="97.416016"/>
      <use xlink:href="#DejaVuSans-64" x="158.939453"/>
      <use xlink:href="#DejaVuSans-69" x="222.416016"/>
      <use xlink:href="#DejaVuSans-74" x="250.199219"/>
      <use xlink:href="#DejaVuSans-6f" x="289.408203"/>
     </g>
    </g>
    <g id="line2d_20">
     <path d="M 1219.86875 70.976562 
L 1229.86875 70.976562 
L 1239.86875 70.976562 
" style="fill: none; stroke: #ffa500; stroke-width: 1.5; stroke-linecap: square"/>
    </g>
    <g id="text_21">
     <!-- Original -->
     <g transform="translate(1247.86875 74.476562) scale(0.1 -0.1)">
      <defs>
       <path id="DejaVuSans-4f" d="M 2522 4238 
Q 1834 4238 1429 3725 
Q 1025 3213 1025 2328 
Q 1025 1447 1429 934 
Q 1834 422 2522 422 
Q 3209 422 3611 934 
Q 4013 1447 4013 2328 
Q 4013 3213 3611 3725 
Q 3209 4238 2522 4238 
z
M 2522 4750 
Q 3503 4750 4090 4092 
Q 4678 3434 4678 2328 
Q 4678 1225 4090 567 
Q 3503 -91 2522 -91 
Q 1538 -91 948 565 
Q 359 1222 359 2328 
Q 359 3434 948 4092 
Q 1538 4750 2522 4750 
z
" transform="scale(0.015625)"/>
       <path id="DejaVuSans-67" d="M 2906 1791 
Q 2906 2416 2648 2759 
Q 2391 3103 1925 3103 
Q 1463 3103 1205 2759 
Q 947 2416 947 1791 
Q 947 1169 1205 825 
Q 1463 481 1925 481 
Q 2391 481 2648 825 
Q 2906 1169 2906 1791 
z
M 3481 434 
Q 3481 -459 3084 -895 
Q 2688 -1331 1869 -1331 
Q 1566 -1331 1297 -1286 
Q 1028 -1241 775 -1147 
L 775 -588 
Q 1028 -725 1275 -790 
Q 1522 -856 1778 -856 
Q 2344 -856 2625 -561 
Q 2906 -266 2906 331 
L 2906 616 
Q 2728 306 2450 153 
Q 2172 0 1784 0 
Q 1141 0 747 490 
Q 353 981 353 1791 
Q 353 2603 747 3093 
Q 1141 3584 1784 3584 
Q 2172 3584 2450 3431 
Q 2728 3278 2906 2969 
L 2906 3500 
L 3481 3500 
L 3481 434 
z
" transform="scale(0.015625)"/>
      </defs>
      <use xlink:href="#DejaVuSans-4f"/>
      <use xlink:href="#DejaVuSans-72" x="78.710938"/>
      <use xlink:href="#DejaVuSans-69" x="119.824219"/>
      <use xlink:href="#DejaVuSans-67" x="147.607422"/>
      <use xlink:href="#DejaVuSans-69" x="211.083984"/>
      <use xlink:href="#DejaVuSans-6e" x="238.867188"/>
      <use xlink:href="#DejaVuSans-61" x="302.246094"/>
      <use xlink:href="#DejaVuSans-6c" x="363.525391"/>
     </g>
    </g>
   </g>
  </g>
 </g>
 <defs>
  <clipPath id="p5b97eeac29">
   <rect x="180" y="43.2" width="1116" height="277.2"/>
  </clipPath>
 </defs>
</svg>
