<?xml version="1.0" encoding="utf-8" standalone="no"?>
<!DOCTYPE svg PUBLIC "-//W3C//DTD SVG 1.1//EN"
  "http://www.w3.org/Graphics/SVG/1.1/DTD/svg11.dtd">
<svg xmlns:xlink="http://www.w3.org/1999/xlink" width="1440pt" height="360pt" viewBox="0 0 1440 360" xmlns="http://www.w3.org/2000/svg" version="1.1">
 <metadata>
  <rdf:RDF xmlns:dc="http://purl.org/dc/elements/1.1/" xmlns:cc="http://creativecommons.org/ns#" xmlns:rdf="http://www.w3.org/1999/02/22-rdf-syntax-ns#">
   <cc:Work>
    <dc:type rdf:resource="http://purl.org/dc/dcmitype/StillImage"/>
    <dc:date>2023-08-21T13:58:09.021350</dc:date>
    <dc:format>image/svg+xml</dc:format>
    <dc:creator>
     <cc:Agent>
      <dc:title>Matplotlib v3.7.1, https://matplotlib.org/</dc:title>
     </cc:Agent>
    </dc:creator>
   </cc:Work>
  </rdf:RDF>
 </metadata>
 <defs>
  <style type="text/css">*{stroke-linejoin: round; stroke-linecap: butt}</style>
 </defs>
 <g id="figure_1">
  <g id="patch_1">
   <path d="M 0 360 
L 1440 360 
L 1440 0 
L 0 0 
z
" style="fill: #ffffff"/>
  </g>
  <g id="axes_1">
   <g id="patch_2">
    <path d="M 180 320.4 
L 1296 320.4 
L 1296 43.2 
L 180 43.2 
z
" style="fill: #ffffff"/>
   </g>
   <g id="PolyCollection_1">
    <defs>
     <path id="mc3cbbbed65" d="M 230.727273 -265.141199 
L 230.727273 -189.642657 
L 236.066986 -159.451079 
L 241.406699 -147.683129 
L 246.746411 -156.120484 
L 252.086124 -141.757401 
L 257.425837 -145.138203 
L 262.76555 -147.082563 
L 268.105263 -153.59356 
L 273.444976 -156.312537 
L 278.784689 -150.30642 
L 284.124402 -129.899805 
L 289.464115 -120.056537 
L 294.803828 -90.327251 
L 300.143541 -102.724832 
L 305.483254 -92.167611 
L 310.822967 -76.800483 
L 316.162679 -74.218739 
L 321.502392 -66.176036 
L 326.842105 -58.62398 
L 332.181818 -62.195417 
L 337.521531 -74.507334 
L 342.861244 -86.60432 
L 348.200957 -131.691816 
L 353.54067 -167.78606 
L 358.880383 -190.094045 
L 364.220096 -206.079734 
L 369.559809 -206.026158 
L 374.899522 -205.027846 
L 380.239234 -207.804845 
L 385.578947 -189.116257 
L 390.91866 -172.662273 
L 396.258373 -147.485651 
L 401.598086 -142.193922 
L 406.937799 -141.186036 
L 412.277512 -148.755857 
L 417.617225 -161.588686 
L 422.956938 -144.764251 
L 428.296651 -125.409158 
L 433.636364 -129.511567 
L 438.976077 -132.29819 
L 444.315789 -137.235495 
L 449.655502 -141.99183 
L 454.995215 -121.950191 
L 460.334928 -113.597954 
L 465.674641 -131.632997 
L 471.014354 -136.528357 
L 476.354067 -135.028068 
L 481.69378 -150.64017 
L 487.033493 -199.371937 
L 492.373206 -219.288589 
L 497.712919 -216.674208 
L 503.052632 -204.257459 
L 508.392344 -196.052957 
L 513.732057 -199.802054 
L 519.07177 -197.306572 
L 524.411483 -190.373372 
L 529.751196 -171.028833 
L 535.090909 -178.295483 
L 540.430622 -159.76895 
L 545.770335 -146.680238 
L 551.110048 -131.903182 
L 556.449761 -127.523388 
L 561.789474 -122.412413 
L 567.129187 -122.404598 
L 572.4689 -105.886287 
L 577.808612 -99.931128 
L 583.148325 -69.397114 
L 588.488038 -108.222502 
L 593.827751 -130.11897 
L 599.167464 -137.761116 
L 604.507177 -175.719364 
L 609.84689 -204.776476 
L 615.186603 -215.664464 
L 620.526316 -227.198216 
L 625.866029 -225.576572 
L 631.205742 -228.701458 
L 636.545455 -219.488324 
L 641.885167 -209.854797 
L 647.22488 -187.789969 
L 652.564593 -181.144659 
L 657.904306 -172.156049 
L 663.244019 -154.826932 
L 668.583732 -162.327332 
L 673.923445 -154.15628 
L 679.263158 -149.889179 
L 684.602871 -149.470478 
L 689.942584 -148.194099 
L 695.282297 -137.050925 
L 700.62201 -142.773334 
L 705.961722 -124.943502 
L 711.301435 -102.524981 
L 716.641148 -95.298645 
L 721.980861 -121.156708 
L 727.320574 -127.982258 
L 732.660287 -170.772253 
L 738 -205.586053 
L 743.339713 -209.995116 
L 748.679426 -213.091182 
L 754.019139 -216.177192 
L 759.358852 -220.385375 
L 764.698565 -211.110386 
L 770.038278 -205.771403 
L 775.37799 -197.325105 
L 780.717703 -161.268791 
L 786.057416 -146.686543 
L 791.397129 -152.739151 
L 796.736842 -166.650797 
L 802.076555 -160.007245 
L 807.416268 -121.196181 
L 812.755981 -63.510373 
L 818.095694 -59.092939 
L 823.435407 -52.2 
L 828.77512 -66.223381 
L 834.114833 -94.536935 
L 839.454545 -92.908 
L 844.794258 -80.673116 
L 850.133971 -95.63923 
L 855.473684 -111.63531 
L 860.813397 -121.178759 
L 866.15311 -154.399852 
L 871.492823 -197.410339 
L 876.832536 -212.743743 
L 882.172249 -200.325103 
L 887.511962 -202.591199 
L 892.851675 -199.381611 
L 898.191388 -189.718201 
L 903.5311 -167.74302 
L 908.870813 -152.098232 
L 914.210526 -163.215606 
L 919.550239 -153.156077 
L 924.889952 -148.18509 
L 930.229665 -153.634128 
L 935.569378 -156.557719 
L 940.909091 -167.828619 
L 946.248804 -146.729549 
L 951.588517 -135.096876 
L 956.92823 -141.616435 
L 962.267943 -129.813194 
L 967.607656 -108.81079 
L 972.947368 -90.577401 
L 978.287081 -102.178949 
L 983.626794 -118.518153 
L 988.966507 -157.439388 
L 994.30622 -191.806795 
L 999.645933 -203.308541 
L 1004.985646 -188.00769 
L 1010.325359 -194.993885 
L 1015.665072 -193.732754 
L 1021.004785 -185.211278 
L 1026.344498 -177.642369 
L 1031.684211 -156.569399 
L 1037.023923 -145.572949 
L 1042.363636 -153.520223 
L 1047.703349 -136.375163 
L 1053.043062 -130.290764 
L 1058.382775 -147.160645 
L 1063.722488 -119.698812 
L 1069.062201 -117.2767 
L 1074.401914 -100.87759 
L 1079.741627 -71.703305 
L 1085.08134 -76.929769 
L 1090.421053 -72.308692 
L 1095.760766 -72.513696 
L 1101.100478 -106.466744 
L 1106.440191 -90.67293 
L 1111.779904 -80.984002 
L 1117.119617 -104.740206 
L 1122.45933 -119.853035 
L 1127.799043 -150.191653 
L 1133.138756 -184.946667 
L 1138.478469 -196.165667 
L 1143.818182 -199.543964 
L 1149.157895 -193.24868 
L 1154.497608 -188.699082 
L 1159.837321 -177.688943 
L 1165.177033 -177.139862 
L 1170.516746 -169.77915 
L 1175.856459 -149.914914 
L 1181.196172 -139.691803 
L 1186.535885 -154.602657 
L 1191.875598 -179.424607 
L 1197.215311 -166.231316 
L 1202.555024 -145.698136 
L 1207.894737 -136.410919 
L 1213.23445 -113.362595 
L 1218.574163 -101.556654 
L 1223.913876 -81.38003 
L 1229.253589 -80.090245 
L 1234.593301 -91.974969 
L 1239.933014 -126.374867 
L 1245.272727 -168.357358 
L 1245.272727 -243.8559 
L 1245.272727 -243.8559 
L 1239.933014 -201.873409 
L 1234.593301 -167.473515 
L 1229.253589 -155.588791 
L 1223.913876 -156.878576 
L 1218.574163 -177.055209 
L 1213.23445 -188.861154 
L 1207.894737 -211.90946 
L 1202.555024 -221.196678 
L 1197.215311 -241.729858 
L 1191.875598 -254.923149 
L 1186.535885 -230.101199 
L 1181.196172 -215.190345 
L 1175.856459 -225.413455 
L 1170.516746 -245.277692 
L 1165.177033 -252.638403 
L 1159.837321 -253.187485 
L 1154.497608 -264.197624 
L 1149.157895 -268.747222 
L 1143.818182 -275.042506 
L 1138.478469 -271.664209 
L 1133.138756 -260.445209 
L 1127.799043 -225.690195 
L 1122.45933 -195.351577 
L 1117.119617 -180.238748 
L 1111.779904 -156.482556 
L 1106.440191 -166.171485 
L 1101.100478 -181.965286 
L 1095.760766 -148.01225 
L 1090.421053 -147.807238 
L 1085.08134 -152.428315 
L 1079.741627 -147.20186 
L 1074.401914 -176.376145 
L 1069.062201 -192.775242 
L 1063.722488 -195.19737 
L 1058.382775 -222.659187 
L 1053.043062 -205.789306 
L 1047.703349 -211.873705 
L 1042.363636 -229.018765 
L 1037.023923 -221.071491 
L 1031.684211 -232.067941 
L 1026.344498 -253.140911 
L 1021.004785 -260.70982 
L 1015.665072 -269.231296 
L 1010.325359 -270.492427 
L 1004.985646 -263.506232 
L 999.645933 -278.807083 
L 994.30622 -267.305337 
L 988.966507 -232.93793 
L 983.626794 -194.016711 
L 978.287081 -177.677495 
L 972.947368 -166.075948 
L 967.607656 -184.309332 
L 962.267943 -205.311753 
L 956.92823 -217.114977 
L 951.588517 -210.595418 
L 946.248804 -222.228091 
L 940.909091 -243.327161 
L 935.569378 -232.05626 
L 930.229665 -229.13267 
L 924.889952 -223.683632 
L 919.550239 -228.654619 
L 914.210526 -238.714148 
L 908.870813 -227.596774 
L 903.5311 -243.241562 
L 898.191388 -265.216743 
L 892.851675 -274.880153 
L 887.511962 -278.089741 
L 882.172249 -275.823645 
L 876.832536 -288.242285 
L 871.492823 -272.908881 
L 866.15311 -229.898394 
L 860.813397 -196.677301 
L 855.473684 -187.133868 
L 850.133971 -171.137776 
L 844.794258 -156.171671 
L 839.454545 -168.406554 
L 834.114833 -170.035481 
L 828.77512 -141.721927 
L 823.435407 -127.69855 
L 818.095694 -134.591489 
L 812.755981 -139.008923 
L 807.416268 -196.694739 
L 802.076555 -235.505787 
L 796.736842 -242.149339 
L 791.397129 -228.237693 
L 786.057416 -222.185085 
L 780.717703 -236.767333 
L 775.37799 -272.823647 
L 770.038278 -281.269945 
L 764.698565 -286.608928 
L 759.358852 -295.883917 
L 754.019139 -291.675734 
L 748.679426 -288.589723 
L 743.339713 -285.493658 
L 738 -281.084595 
L 732.660287 -246.270795 
L 727.320574 -203.4808 
L 721.980861 -196.65525 
L 716.641148 -170.797191 
L 711.301435 -178.023539 
L 705.961722 -200.44206 
L 700.62201 -218.271876 
L 695.282297 -212.549467 
L 689.942584 -223.692641 
L 684.602871 -224.96902 
L 679.263158 -225.387721 
L 673.923445 -229.654822 
L 668.583732 -237.825874 
L 663.244019 -230.325474 
L 657.904306 -247.654591 
L 652.564593 -256.643201 
L 647.22488 -263.288511 
L 641.885167 -285.353339 
L 636.545455 -294.986866 
L 631.205742 -304.2 
L 625.866029 -301.075114 
L 620.526316 -302.696758 
L 615.186603 -291.163006 
L 609.84689 -280.275018 
L 604.507177 -251.217906 
L 599.167464 -213.259658 
L 593.827751 -205.617528 
L 588.488038 -183.721044 
L 583.148325 -144.89566 
L 577.808612 -175.429683 
L 572.4689 -181.384846 
L 567.129187 -197.903157 
L 561.789474 -197.910955 
L 556.449761 -203.021946 
L 551.110048 -207.401741 
L 545.770335 -222.17878 
L 540.430622 -235.267492 
L 535.090909 -253.794025 
L 529.751196 -246.527375 
L 524.411483 -265.871914 
L 519.07177 -272.805114 
L 513.732057 -275.300596 
L 508.392344 -271.551499 
L 503.052632 -279.756001 
L 497.712919 -292.17275 
L 492.373206 -294.787131 
L 487.033493 -274.870479 
L 481.69378 -226.138712 
L 476.354067 -210.52661 
L 471.014354 -212.026899 
L 465.674641 -207.131539 
L 460.334928 -189.096512 
L 454.995215 -197.44875 
L 449.655502 -217.490372 
L 444.315789 -212.734037 
L 438.976077 -207.796748 
L 433.636364 -205.010109 
L 428.296651 -200.907717 
L 422.956938 -220.262793 
L 417.617225 -237.087228 
L 412.277512 -224.254399 
L 406.937799 -216.684578 
L 401.598086 -217.692464 
L 396.258373 -222.984192 
L 390.91866 -248.160815 
L 385.578947 -264.614799 
L 380.239234 -283.303387 
L 374.899522 -280.526388 
L 369.559809 -281.5247 
L 364.220096 -281.578276 
L 358.880383 -265.592587 
L 353.54067 -243.284602 
L 348.200957 -207.190358 
L 342.861244 -162.102875 
L 337.521531 -150.005888 
L 332.181818 -137.693967 
L 326.842105 -134.122531 
L 321.502392 -141.67459 
L 316.162679 -149.717285 
L 310.822967 -152.299029 
L 305.483254 -167.666166 
L 300.143541 -178.223391 
L 294.803828 -165.825805 
L 289.464115 -195.555079 
L 284.124402 -205.398363 
L 278.784689 -225.804962 
L 273.444976 -231.811079 
L 268.105263 -229.092102 
L 262.76555 -222.581104 
L 257.425837 -220.636745 
L 252.086124 -217.255943 
L 246.746411 -231.619026 
L 241.406699 -223.181671 
L 236.066986 -234.94962 
L 230.727273 -265.141199 
z
" style="stroke: #0000ff; stroke-opacity: 0.05"/>
    </defs>
    <g clip-path="url(#p1e4d467d05)">
     <use xlink:href="#mc3cbbbed65" x="0" y="360" style="fill: #0000ff; fill-opacity: 0.05; stroke: #0000ff; stroke-opacity: 0.05"/>
    </g>
   </g>
   <g id="matplotlib.axis_1">
    <g id="xtick_1">
     <g id="line2d_1">
      <defs>
       <path id="me5d3094592" d="M 0 0 
L 0 3.5 
" style="stroke: #000000; stroke-width: 0.8"/>
      </defs>
      <g>
       <use xlink:href="#me5d3094592" x="230.727273" y="320.4" style="stroke: #000000; stroke-width: 0.8"/>
      </g>
     </g>
     <g id="text_1">
      <!-- 0 -->
      <g transform="translate(227.546023 334.998438) scale(0.1 -0.1)">
       <defs>
        <path id="DejaVuSans-30" d="M 2034 4250 
Q 1547 4250 1301 3770 
Q 1056 3291 1056 2328 
Q 1056 1369 1301 889 
Q 1547 409 2034 409 
Q 2525 409 2770 889 
Q 3016 1369 3016 2328 
Q 3016 3291 2770 3770 
Q 2525 4250 2034 4250 
z
M 2034 4750 
Q 2819 4750 3233 4129 
Q 3647 3509 3647 2328 
Q 3647 1150 3233 529 
Q 2819 -91 2034 -91 
Q 1250 -91 836 529 
Q 422 1150 422 2328 
Q 422 3509 836 4129 
Q 1250 4750 2034 4750 
z
" transform="scale(0.015625)"/>
       </defs>
       <use xlink:href="#DejaVuSans-30"/>
      </g>
     </g>
    </g>
    <g id="xtick_2">
     <g id="line2d_2">
      <g>
       <use xlink:href="#me5d3094592" x="364.220096" y="320.4" style="stroke: #000000; stroke-width: 0.8"/>
      </g>
     </g>
     <g id="text_2">
      <!-- 25 -->
      <g transform="translate(357.857596 334.998438) scale(0.1 -0.1)">
       <defs>
        <path id="DejaVuSans-32" d="M 1228 531 
L 3431 531 
L 3431 0 
L 469 0 
L 469 531 
Q 828 903 1448 1529 
Q 2069 2156 2228 2338 
Q 2531 2678 2651 2914 
Q 2772 3150 2772 3378 
Q 2772 3750 2511 3984 
Q 2250 4219 1831 4219 
Q 1534 4219 1204 4116 
Q 875 4013 500 3803 
L 500 4441 
Q 881 4594 1212 4672 
Q 1544 4750 1819 4750 
Q 2544 4750 2975 4387 
Q 3406 4025 3406 3419 
Q 3406 3131 3298 2873 
Q 3191 2616 2906 2266 
Q 2828 2175 2409 1742 
Q 1991 1309 1228 531 
z
" transform="scale(0.015625)"/>
        <path id="DejaVuSans-35" d="M 691 4666 
L 3169 4666 
L 3169 4134 
L 1269 4134 
L 1269 2991 
Q 1406 3038 1543 3061 
Q 1681 3084 1819 3084 
Q 2600 3084 3056 2656 
Q 3513 2228 3513 1497 
Q 3513 744 3044 326 
Q 2575 -91 1722 -91 
Q 1428 -91 1123 -41 
Q 819 9 494 109 
L 494 744 
Q 775 591 1075 516 
Q 1375 441 1709 441 
Q 2250 441 2565 725 
Q 2881 1009 2881 1497 
Q 2881 1984 2565 2268 
Q 2250 2553 1709 2553 
Q 1456 2553 1204 2497 
Q 953 2441 691 2322 
L 691 4666 
z
" transform="scale(0.015625)"/>
       </defs>
       <use xlink:href="#DejaVuSans-32"/>
       <use xlink:href="#DejaVuSans-35" x="63.623047"/>
      </g>
     </g>
    </g>
    <g id="xtick_3">
     <g id="line2d_3">
      <g>
       <use xlink:href="#me5d3094592" x="497.712919" y="320.4" style="stroke: #000000; stroke-width: 0.8"/>
      </g>
     </g>
     <g id="text_3">
      <!-- 50 -->
      <g transform="translate(491.350419 334.998438) scale(0.1 -0.1)">
       <use xlink:href="#DejaVuSans-35"/>
       <use xlink:href="#DejaVuSans-30" x="63.623047"/>
      </g>
     </g>
    </g>
    <g id="xtick_4">
     <g id="line2d_4">
      <g>
       <use xlink:href="#me5d3094592" x="631.205742" y="320.4" style="stroke: #000000; stroke-width: 0.8"/>
      </g>
     </g>
     <g id="text_4">
      <!-- 75 -->
      <g transform="translate(624.843242 334.998438) scale(0.1 -0.1)">
       <defs>
        <path id="DejaVuSans-37" d="M 525 4666 
L 3525 4666 
L 3525 4397 
L 1831 0 
L 1172 0 
L 2766 4134 
L 525 4134 
L 525 4666 
z
" transform="scale(0.015625)"/>
       </defs>
       <use xlink:href="#DejaVuSans-37"/>
       <use xlink:href="#DejaVuSans-35" x="63.623047"/>
      </g>
     </g>
    </g>
    <g id="xtick_5">
     <g id="line2d_5">
      <g>
       <use xlink:href="#me5d3094592" x="764.698565" y="320.4" style="stroke: #000000; stroke-width: 0.8"/>
      </g>
     </g>
     <g id="text_5">
      <!-- 100 -->
      <g transform="translate(755.154815 334.998438) scale(0.1 -0.1)">
       <defs>
        <path id="DejaVuSans-31" d="M 794 531 
L 1825 531 
L 1825 4091 
L 703 3866 
L 703 4441 
L 1819 4666 
L 2450 4666 
L 2450 531 
L 3481 531 
L 3481 0 
L 794 0 
L 794 531 
z
" transform="scale(0.015625)"/>
       </defs>
       <use xlink:href="#DejaVuSans-31"/>
       <use xlink:href="#DejaVuSans-30" x="63.623047"/>
       <use xlink:href="#DejaVuSans-30" x="127.246094"/>
      </g>
     </g>
    </g>
    <g id="xtick_6">
     <g id="line2d_6">
      <g>
       <use xlink:href="#me5d3094592" x="898.191388" y="320.4" style="stroke: #000000; stroke-width: 0.8"/>
      </g>
     </g>
     <g id="text_6">
      <!-- 125 -->
      <g transform="translate(888.647638 334.998438) scale(0.1 -0.1)">
       <use xlink:href="#DejaVuSans-31"/>
       <use xlink:href="#DejaVuSans-32" x="63.623047"/>
       <use xlink:href="#DejaVuSans-35" x="127.246094"/>
      </g>
     </g>
    </g>
    <g id="xtick_7">
     <g id="line2d_7">
      <g>
       <use xlink:href="#me5d3094592" x="1031.684211" y="320.4" style="stroke: #000000; stroke-width: 0.8"/>
      </g>
     </g>
     <g id="text_7">
      <!-- 150 -->
      <g transform="translate(1022.140461 334.998438) scale(0.1 -0.1)">
       <use xlink:href="#DejaVuSans-31"/>
       <use xlink:href="#DejaVuSans-35" x="63.623047"/>
       <use xlink:href="#DejaVuSans-30" x="127.246094"/>
      </g>
     </g>
    </g>
    <g id="xtick_8">
     <g id="line2d_8">
      <g>
       <use xlink:href="#me5d3094592" x="1165.177033" y="320.4" style="stroke: #000000; stroke-width: 0.8"/>
      </g>
     </g>
     <g id="text_8">
      <!-- 175 -->
      <g transform="translate(1155.633283 334.998438) scale(0.1 -0.1)">
       <use xlink:href="#DejaVuSans-31"/>
       <use xlink:href="#DejaVuSans-37" x="63.623047"/>
       <use xlink:href="#DejaVuSans-35" x="127.246094"/>
      </g>
     </g>
    </g>
    <g id="text_9">
     <!-- Amostras -->
     <g transform="translate(714.360937 348.676562) scale(0.1 -0.1)">
      <defs>
       <path id="DejaVuSans-41" d="M 2188 4044 
L 1331 1722 
L 3047 1722 
L 2188 4044 
z
M 1831 4666 
L 2547 4666 
L 4325 0 
L 3669 0 
L 3244 1197 
L 1141 1197 
L 716 0 
L 50 0 
L 1831 4666 
z
" transform="scale(0.015625)"/>
       <path id="DejaVuSans-6d" d="M 3328 2828 
Q 3544 3216 3844 3400 
Q 4144 3584 4550 3584 
Q 5097 3584 5394 3201 
Q 5691 2819 5691 2113 
L 5691 0 
L 5113 0 
L 5113 2094 
Q 5113 2597 4934 2840 
Q 4756 3084 4391 3084 
Q 3944 3084 3684 2787 
Q 3425 2491 3425 1978 
L 3425 0 
L 2847 0 
L 2847 2094 
Q 2847 2600 2669 2842 
Q 2491 3084 2119 3084 
Q 1678 3084 1418 2786 
Q 1159 2488 1159 1978 
L 1159 0 
L 581 0 
L 581 3500 
L 1159 3500 
L 1159 2956 
Q 1356 3278 1631 3431 
Q 1906 3584 2284 3584 
Q 2666 3584 2933 3390 
Q 3200 3197 3328 2828 
z
" transform="scale(0.015625)"/>
       <path id="DejaVuSans-6f" d="M 1959 3097 
Q 1497 3097 1228 2736 
Q 959 2375 959 1747 
Q 959 1119 1226 758 
Q 1494 397 1959 397 
Q 2419 397 2687 759 
Q 2956 1122 2956 1747 
Q 2956 2369 2687 2733 
Q 2419 3097 1959 3097 
z
M 1959 3584 
Q 2709 3584 3137 3096 
Q 3566 2609 3566 1747 
Q 3566 888 3137 398 
Q 2709 -91 1959 -91 
Q 1206 -91 779 398 
Q 353 888 353 1747 
Q 353 2609 779 3096 
Q 1206 3584 1959 3584 
z
" transform="scale(0.015625)"/>
       <path id="DejaVuSans-73" d="M 2834 3397 
L 2834 2853 
Q 2591 2978 2328 3040 
Q 2066 3103 1784 3103 
Q 1356 3103 1142 2972 
Q 928 2841 928 2578 
Q 928 2378 1081 2264 
Q 1234 2150 1697 2047 
L 1894 2003 
Q 2506 1872 2764 1633 
Q 3022 1394 3022 966 
Q 3022 478 2636 193 
Q 2250 -91 1575 -91 
Q 1294 -91 989 -36 
Q 684 19 347 128 
L 347 722 
Q 666 556 975 473 
Q 1284 391 1588 391 
Q 1994 391 2212 530 
Q 2431 669 2431 922 
Q 2431 1156 2273 1281 
Q 2116 1406 1581 1522 
L 1381 1569 
Q 847 1681 609 1914 
Q 372 2147 372 2553 
Q 372 3047 722 3315 
Q 1072 3584 1716 3584 
Q 2034 3584 2315 3537 
Q 2597 3491 2834 3397 
z
" transform="scale(0.015625)"/>
       <path id="DejaVuSans-74" d="M 1172 4494 
L 1172 3500 
L 2356 3500 
L 2356 3053 
L 1172 3053 
L 1172 1153 
Q 1172 725 1289 603 
Q 1406 481 1766 481 
L 2356 481 
L 2356 0 
L 1766 0 
Q 1100 0 847 248 
Q 594 497 594 1153 
L 594 3053 
L 172 3053 
L 172 3500 
L 594 3500 
L 594 4494 
L 1172 4494 
z
" transform="scale(0.015625)"/>
       <path id="DejaVuSans-72" d="M 2631 2963 
Q 2534 3019 2420 3045 
Q 2306 3072 2169 3072 
Q 1681 3072 1420 2755 
Q 1159 2438 1159 1844 
L 1159 0 
L 581 0 
L 581 3500 
L 1159 3500 
L 1159 2956 
Q 1341 3275 1631 3429 
Q 1922 3584 2338 3584 
Q 2397 3584 2469 3576 
Q 2541 3569 2628 3553 
L 2631 2963 
z
" transform="scale(0.015625)"/>
       <path id="DejaVuSans-61" d="M 2194 1759 
Q 1497 1759 1228 1600 
Q 959 1441 959 1056 
Q 959 750 1161 570 
Q 1363 391 1709 391 
Q 2188 391 2477 730 
Q 2766 1069 2766 1631 
L 2766 1759 
L 2194 1759 
z
M 3341 1997 
L 3341 0 
L 2766 0 
L 2766 531 
Q 2569 213 2275 61 
Q 1981 -91 1556 -91 
Q 1019 -91 701 211 
Q 384 513 384 1019 
Q 384 1609 779 1909 
Q 1175 2209 1959 2209 
L 2766 2209 
L 2766 2266 
Q 2766 2663 2505 2880 
Q 2244 3097 1772 3097 
Q 1472 3097 1187 3025 
Q 903 2953 641 2809 
L 641 3341 
Q 956 3463 1253 3523 
Q 1550 3584 1831 3584 
Q 2591 3584 2966 3190 
Q 3341 2797 3341 1997 
z
" transform="scale(0.015625)"/>
      </defs>
      <use xlink:href="#DejaVuSans-41"/>
      <use xlink:href="#DejaVuSans-6d" x="68.408203"/>
      <use xlink:href="#DejaVuSans-6f" x="165.820312"/>
      <use xlink:href="#DejaVuSans-73" x="227.001953"/>
      <use xlink:href="#DejaVuSans-74" x="279.101562"/>
      <use xlink:href="#DejaVuSans-72" x="318.310547"/>
      <use xlink:href="#DejaVuSans-61" x="359.423828"/>
      <use xlink:href="#DejaVuSans-73" x="420.703125"/>
     </g>
    </g>
   </g>
   <g id="matplotlib.axis_2">
    <g id="ytick_1">
     <g id="line2d_9">
      <defs>
       <path id="m25c9234828" d="M 0 0 
L -3.5 0 
" style="stroke: #000000; stroke-width: 0.8"/>
      </defs>
      <g>
       <use xlink:href="#m25c9234828" x="180" y="292.318536" style="stroke: #000000; stroke-width: 0.8"/>
      </g>
     </g>
     <g id="text_10">
      <!-- 2 -->
      <g transform="translate(166.6375 296.117755) scale(0.1 -0.1)">
       <use xlink:href="#DejaVuSans-32"/>
      </g>
     </g>
    </g>
    <g id="ytick_2">
     <g id="line2d_10">
      <g>
       <use xlink:href="#m25c9234828" x="180" y="257.522423" style="stroke: #000000; stroke-width: 0.8"/>
      </g>
     </g>
     <g id="text_11">
      <!-- 4 -->
      <g transform="translate(166.6375 261.321642) scale(0.1 -0.1)">
       <defs>
        <path id="DejaVuSans-34" d="M 2419 4116 
L 825 1625 
L 2419 1625 
L 2419 4116 
z
M 2253 4666 
L 3047 4666 
L 3047 1625 
L 3713 1625 
L 3713 1100 
L 3047 1100 
L 3047 0 
L 2419 0 
L 2419 1100 
L 313 1100 
L 313 1709 
L 2253 4666 
z
" transform="scale(0.015625)"/>
       </defs>
       <use xlink:href="#DejaVuSans-34"/>
      </g>
     </g>
    </g>
    <g id="ytick_3">
     <g id="line2d_11">
      <g>
       <use xlink:href="#m25c9234828" x="180" y="222.72631" style="stroke: #000000; stroke-width: 0.8"/>
      </g>
     </g>
     <g id="text_12">
      <!-- 6 -->
      <g transform="translate(166.6375 226.525529) scale(0.1 -0.1)">
       <defs>
        <path id="DejaVuSans-36" d="M 2113 2584 
Q 1688 2584 1439 2293 
Q 1191 2003 1191 1497 
Q 1191 994 1439 701 
Q 1688 409 2113 409 
Q 2538 409 2786 701 
Q 3034 994 3034 1497 
Q 3034 2003 2786 2293 
Q 2538 2584 2113 2584 
z
M 3366 4563 
L 3366 3988 
Q 3128 4100 2886 4159 
Q 2644 4219 2406 4219 
Q 1781 4219 1451 3797 
Q 1122 3375 1075 2522 
Q 1259 2794 1537 2939 
Q 1816 3084 2150 3084 
Q 2853 3084 3261 2657 
Q 3669 2231 3669 1497 
Q 3669 778 3244 343 
Q 2819 -91 2113 -91 
Q 1303 -91 875 529 
Q 447 1150 447 2328 
Q 447 3434 972 4092 
Q 1497 4750 2381 4750 
Q 2619 4750 2861 4703 
Q 3103 4656 3366 4563 
z
" transform="scale(0.015625)"/>
       </defs>
       <use xlink:href="#DejaVuSans-36"/>
      </g>
     </g>
    </g>
    <g id="ytick_4">
     <g id="line2d_12">
      <g>
       <use xlink:href="#m25c9234828" x="180" y="187.930197" style="stroke: #000000; stroke-width: 0.8"/>
      </g>
     </g>
     <g id="text_13">
      <!-- 8 -->
      <g transform="translate(166.6375 191.729416) scale(0.1 -0.1)">
       <defs>
        <path id="DejaVuSans-38" d="M 2034 2216 
Q 1584 2216 1326 1975 
Q 1069 1734 1069 1313 
Q 1069 891 1326 650 
Q 1584 409 2034 409 
Q 2484 409 2743 651 
Q 3003 894 3003 1313 
Q 3003 1734 2745 1975 
Q 2488 2216 2034 2216 
z
M 1403 2484 
Q 997 2584 770 2862 
Q 544 3141 544 3541 
Q 544 4100 942 4425 
Q 1341 4750 2034 4750 
Q 2731 4750 3128 4425 
Q 3525 4100 3525 3541 
Q 3525 3141 3298 2862 
Q 3072 2584 2669 2484 
Q 3125 2378 3379 2068 
Q 3634 1759 3634 1313 
Q 3634 634 3220 271 
Q 2806 -91 2034 -91 
Q 1263 -91 848 271 
Q 434 634 434 1313 
Q 434 1759 690 2068 
Q 947 2378 1403 2484 
z
M 1172 3481 
Q 1172 3119 1398 2916 
Q 1625 2713 2034 2713 
Q 2441 2713 2670 2916 
Q 2900 3119 2900 3481 
Q 2900 3844 2670 4047 
Q 2441 4250 2034 4250 
Q 1625 4250 1398 4047 
Q 1172 3844 1172 3481 
z
" transform="scale(0.015625)"/>
       </defs>
       <use xlink:href="#DejaVuSans-38"/>
      </g>
     </g>
    </g>
    <g id="ytick_5">
     <g id="line2d_13">
      <g>
       <use xlink:href="#m25c9234828" x="180" y="153.134084" style="stroke: #000000; stroke-width: 0.8"/>
      </g>
     </g>
     <g id="text_14">
      <!-- 10 -->
      <g transform="translate(160.275 156.933303) scale(0.1 -0.1)">
       <use xlink:href="#DejaVuSans-31"/>
       <use xlink:href="#DejaVuSans-30" x="63.623047"/>
      </g>
     </g>
    </g>
    <g id="ytick_6">
     <g id="line2d_14">
      <g>
       <use xlink:href="#m25c9234828" x="180" y="118.337971" style="stroke: #000000; stroke-width: 0.8"/>
      </g>
     </g>
     <g id="text_15">
      <!-- 12 -->
      <g transform="translate(160.275 122.137189) scale(0.1 -0.1)">
       <use xlink:href="#DejaVuSans-31"/>
       <use xlink:href="#DejaVuSans-32" x="63.623047"/>
      </g>
     </g>
    </g>
    <g id="ytick_7">
     <g id="line2d_15">
      <g>
       <use xlink:href="#m25c9234828" x="180" y="83.541858" style="stroke: #000000; stroke-width: 0.8"/>
      </g>
     </g>
     <g id="text_16">
      <!-- 14 -->
      <g transform="translate(160.275 87.341076) scale(0.1 -0.1)">
       <use xlink:href="#DejaVuSans-31"/>
       <use xlink:href="#DejaVuSans-34" x="63.623047"/>
      </g>
     </g>
    </g>
    <g id="ytick_8">
     <g id="line2d_16">
      <g>
       <use xlink:href="#m25c9234828" x="180" y="48.745745" style="stroke: #000000; stroke-width: 0.8"/>
      </g>
     </g>
     <g id="text_17">
      <!-- 16 -->
      <g transform="translate(160.275 52.544963) scale(0.1 -0.1)">
       <use xlink:href="#DejaVuSans-31"/>
       <use xlink:href="#DejaVuSans-36" x="63.623047"/>
      </g>
     </g>
    </g>
    <g id="text_18">
     <!-- Velocidade do Vento (m/s) -->
     <g transform="translate(154.195312 247.344531) rotate(-90) scale(0.1 -0.1)">
      <defs>
       <path id="DejaVuSans-56" d="M 1831 0 
L 50 4666 
L 709 4666 
L 2188 738 
L 3669 4666 
L 4325 4666 
L 2547 0 
L 1831 0 
z
" transform="scale(0.015625)"/>
       <path id="DejaVuSans-65" d="M 3597 1894 
L 3597 1613 
L 953 1613 
Q 991 1019 1311 708 
Q 1631 397 2203 397 
Q 2534 397 2845 478 
Q 3156 559 3463 722 
L 3463 178 
Q 3153 47 2828 -22 
Q 2503 -91 2169 -91 
Q 1331 -91 842 396 
Q 353 884 353 1716 
Q 353 2575 817 3079 
Q 1281 3584 2069 3584 
Q 2775 3584 3186 3129 
Q 3597 2675 3597 1894 
z
M 3022 2063 
Q 3016 2534 2758 2815 
Q 2500 3097 2075 3097 
Q 1594 3097 1305 2825 
Q 1016 2553 972 2059 
L 3022 2063 
z
" transform="scale(0.015625)"/>
       <path id="DejaVuSans-6c" d="M 603 4863 
L 1178 4863 
L 1178 0 
L 603 0 
L 603 4863 
z
" transform="scale(0.015625)"/>
       <path id="DejaVuSans-63" d="M 3122 3366 
L 3122 2828 
Q 2878 2963 2633 3030 
Q 2388 3097 2138 3097 
Q 1578 3097 1268 2742 
Q 959 2388 959 1747 
Q 959 1106 1268 751 
Q 1578 397 2138 397 
Q 2388 397 2633 464 
Q 2878 531 3122 666 
L 3122 134 
Q 2881 22 2623 -34 
Q 2366 -91 2075 -91 
Q 1284 -91 818 406 
Q 353 903 353 1747 
Q 353 2603 823 3093 
Q 1294 3584 2113 3584 
Q 2378 3584 2631 3529 
Q 2884 3475 3122 3366 
z
" transform="scale(0.015625)"/>
       <path id="DejaVuSans-69" d="M 603 3500 
L 1178 3500 
L 1178 0 
L 603 0 
L 603 3500 
z
M 603 4863 
L 1178 4863 
L 1178 4134 
L 603 4134 
L 603 4863 
z
" transform="scale(0.015625)"/>
       <path id="DejaVuSans-64" d="M 2906 2969 
L 2906 4863 
L 3481 4863 
L 3481 0 
L 2906 0 
L 2906 525 
Q 2725 213 2448 61 
Q 2172 -91 1784 -91 
Q 1150 -91 751 415 
Q 353 922 353 1747 
Q 353 2572 751 3078 
Q 1150 3584 1784 3584 
Q 2172 3584 2448 3432 
Q 2725 3281 2906 2969 
z
M 947 1747 
Q 947 1113 1208 752 
Q 1469 391 1925 391 
Q 2381 391 2643 752 
Q 2906 1113 2906 1747 
Q 2906 2381 2643 2742 
Q 2381 3103 1925 3103 
Q 1469 3103 1208 2742 
Q 947 2381 947 1747 
z
" transform="scale(0.015625)"/>
       <path id="DejaVuSans-20" transform="scale(0.015625)"/>
       <path id="DejaVuSans-6e" d="M 3513 2113 
L 3513 0 
L 2938 0 
L 2938 2094 
Q 2938 2591 2744 2837 
Q 2550 3084 2163 3084 
Q 1697 3084 1428 2787 
Q 1159 2491 1159 1978 
L 1159 0 
L 581 0 
L 581 3500 
L 1159 3500 
L 1159 2956 
Q 1366 3272 1645 3428 
Q 1925 3584 2291 3584 
Q 2894 3584 3203 3211 
Q 3513 2838 3513 2113 
z
" transform="scale(0.015625)"/>
       <path id="DejaVuSans-28" d="M 1984 4856 
Q 1566 4138 1362 3434 
Q 1159 2731 1159 2009 
Q 1159 1288 1364 580 
Q 1569 -128 1984 -844 
L 1484 -844 
Q 1016 -109 783 600 
Q 550 1309 550 2009 
Q 550 2706 781 3412 
Q 1013 4119 1484 4856 
L 1984 4856 
z
" transform="scale(0.015625)"/>
       <path id="DejaVuSans-2f" d="M 1625 4666 
L 2156 4666 
L 531 -594 
L 0 -594 
L 1625 4666 
z
" transform="scale(0.015625)"/>
       <path id="DejaVuSans-29" d="M 513 4856 
L 1013 4856 
Q 1481 4119 1714 3412 
Q 1947 2706 1947 2009 
Q 1947 1309 1714 600 
Q 1481 -109 1013 -844 
L 513 -844 
Q 928 -128 1133 580 
Q 1338 1288 1338 2009 
Q 1338 2731 1133 3434 
Q 928 4138 513 4856 
z
" transform="scale(0.015625)"/>
      </defs>
      <use xlink:href="#DejaVuSans-56"/>
      <use xlink:href="#DejaVuSans-65" x="60.658203"/>
      <use xlink:href="#DejaVuSans-6c" x="122.181641"/>
      <use xlink:href="#DejaVuSans-6f" x="149.964844"/>
      <use xlink:href="#DejaVuSans-63" x="211.146484"/>
      <use xlink:href="#DejaVuSans-69" x="266.126953"/>
      <use xlink:href="#DejaVuSans-64" x="293.910156"/>
      <use xlink:href="#DejaVuSans-61" x="357.386719"/>
      <use xlink:href="#DejaVuSans-64" x="418.666016"/>
      <use xlink:href="#DejaVuSans-65" x="482.142578"/>
      <use xlink:href="#DejaVuSans-20" x="543.666016"/>
      <use xlink:href="#DejaVuSans-64" x="575.453125"/>
      <use xlink:href="#DejaVuSans-6f" x="638.929688"/>
      <use xlink:href="#DejaVuSans-20" x="700.111328"/>
      <use xlink:href="#DejaVuSans-56" x="731.898438"/>
      <use xlink:href="#DejaVuSans-65" x="792.556641"/>
      <use xlink:href="#DejaVuSans-6e" x="854.080078"/>
      <use xlink:href="#DejaVuSans-74" x="917.458984"/>
      <use xlink:href="#DejaVuSans-6f" x="956.667969"/>
      <use xlink:href="#DejaVuSans-20" x="1017.849609"/>
      <use xlink:href="#DejaVuSans-28" x="1049.636719"/>
      <use xlink:href="#DejaVuSans-6d" x="1088.650391"/>
      <use xlink:href="#DejaVuSans-2f" x="1186.0625"/>
      <use xlink:href="#DejaVuSans-73" x="1219.753906"/>
      <use xlink:href="#DejaVuSans-29" x="1271.853516"/>
     </g>
    </g>
   </g>
   <g id="line2d_17">
    <path d="M 230.727273 132.608072 
L 236.066986 162.79965 
L 241.406699 174.5676 
L 246.746411 166.130245 
L 252.086124 180.493328 
L 257.425837 177.112526 
L 262.76555 175.168166 
L 268.105263 168.657169 
L 273.444976 165.938192 
L 278.784689 171.944309 
L 284.124402 192.350916 
L 289.464115 202.194192 
L 294.803828 231.923474 
L 300.143541 219.525889 
L 305.483254 230.083114 
L 310.822967 245.450242 
L 316.162679 248.031986 
L 321.502392 256.074689 
L 326.842105 263.626745 
L 332.181818 260.055308 
L 342.861244 235.646405 
L 348.200957 190.558913 
L 353.54067 154.464669 
L 358.880383 132.156684 
L 364.220096 116.170995 
L 369.559809 116.224571 
L 374.899522 117.222883 
L 380.239234 114.445884 
L 385.578947 133.134472 
L 390.91866 149.588456 
L 396.258373 174.765079 
L 401.598086 180.056807 
L 406.937799 181.064693 
L 412.277512 173.494872 
L 417.617225 160.662043 
L 422.956938 177.486478 
L 428.296651 196.841562 
L 433.636364 192.739162 
L 438.976077 189.952531 
L 444.315789 185.015234 
L 449.655502 180.258899 
L 454.995215 200.30053 
L 460.334928 208.652767 
L 465.674641 190.617732 
L 471.014354 185.722372 
L 476.354067 187.222661 
L 481.69378 171.610559 
L 487.033493 122.878792 
L 492.373206 102.96214 
L 497.712919 105.576521 
L 503.052632 117.99327 
L 508.392344 126.197772 
L 513.732057 122.448675 
L 519.07177 124.944157 
L 524.411483 131.877357 
L 529.751196 151.221896 
L 535.090909 143.955246 
L 540.430622 162.481779 
L 545.770335 175.570491 
L 551.110048 190.347538 
L 556.449761 194.727333 
L 561.789474 199.838316 
L 567.129187 199.846122 
L 572.4689 216.364434 
L 577.808612 222.319597 
L 583.148325 252.853611 
L 588.488038 214.028227 
L 593.827751 192.131751 
L 599.167464 184.489613 
L 604.507177 146.531365 
L 609.84689 117.474253 
L 615.186603 106.586265 
L 620.526316 95.052513 
L 625.866029 96.674157 
L 631.205742 93.549271 
L 636.545455 102.762405 
L 641.885167 112.395932 
L 647.22488 134.46076 
L 652.564593 141.10607 
L 657.904306 150.09468 
L 663.244019 167.423797 
L 668.583732 159.923397 
L 673.923445 168.094449 
L 679.263158 172.36155 
L 684.602871 172.780251 
L 689.942584 174.05663 
L 695.282297 185.199804 
L 700.62201 179.477395 
L 705.961722 197.307219 
L 711.301435 219.72574 
L 716.641148 226.95208 
L 721.980861 201.094021 
L 727.320574 194.268471 
L 732.660287 151.478476 
L 738 116.664676 
L 743.339713 112.255613 
L 754.019139 106.073537 
L 759.358852 101.865354 
L 764.698565 111.140343 
L 770.038278 116.479326 
L 775.37799 124.925624 
L 780.717703 160.981938 
L 786.057416 175.564186 
L 791.397129 169.511578 
L 796.736842 155.599932 
L 802.076555 162.243484 
L 807.416268 201.05454 
L 812.755981 258.740352 
L 818.095694 263.157786 
L 823.435407 270.050725 
L 828.77512 256.027344 
L 834.114833 227.71379 
L 839.454545 229.342725 
L 844.794258 241.577609 
L 850.133971 226.611495 
L 855.473684 210.615411 
L 860.813397 201.07197 
L 866.15311 167.850877 
L 871.492823 124.84039 
L 876.832536 109.506986 
L 882.172249 121.925626 
L 887.511962 119.65953 
L 892.851675 122.869118 
L 898.191388 132.532528 
L 903.5311 154.507709 
L 908.870813 170.152497 
L 914.210526 159.035123 
L 919.550239 169.094652 
L 924.889952 174.065639 
L 930.229665 168.616601 
L 935.569378 165.693011 
L 940.909091 154.42211 
L 946.248804 175.52118 
L 951.588517 187.153853 
L 956.92823 180.634294 
L 962.267943 192.437527 
L 967.607656 213.439939 
L 972.947368 231.673323 
L 978.287081 220.071776 
L 983.626794 203.732568 
L 988.966507 164.811341 
L 994.30622 130.443934 
L 999.645933 118.942188 
L 1004.985646 134.243039 
L 1010.325359 127.256844 
L 1015.665072 128.517975 
L 1021.004785 137.039451 
L 1026.344498 144.60836 
L 1031.684211 165.68133 
L 1037.023923 176.67778 
L 1042.363636 168.730506 
L 1047.703349 185.875566 
L 1053.043062 191.959965 
L 1058.382775 175.090084 
L 1063.722488 202.551909 
L 1069.062201 204.974029 
L 1074.401914 221.373135 
L 1079.741627 250.54742 
L 1085.08134 245.320956 
L 1090.421053 249.942033 
L 1095.760766 249.737029 
L 1101.100478 215.783985 
L 1106.440191 231.577795 
L 1111.779904 241.266723 
L 1117.119617 217.510523 
L 1122.45933 202.397694 
L 1127.799043 172.059076 
L 1133.138756 137.304062 
L 1138.478469 126.085062 
L 1143.818182 122.706765 
L 1149.157895 129.002049 
L 1154.497608 133.551647 
L 1159.837321 144.561786 
L 1165.177033 145.110868 
L 1170.516746 152.471579 
L 1175.856459 172.335816 
L 1181.196172 182.558926 
L 1186.535885 167.648072 
L 1191.875598 142.826122 
L 1197.215311 156.019413 
L 1202.555024 176.552593 
L 1207.894737 185.839811 
L 1213.23445 208.888126 
L 1218.574163 220.694071 
L 1223.913876 240.870695 
L 1229.253589 242.16048 
L 1234.593301 230.275756 
L 1239.933014 195.875862 
L 1245.272727 153.893371 
L 1245.272727 153.893371 
" clip-path="url(#p1e4d467d05)" style="fill: none; stroke: #0000ff; stroke-width: 1.5; stroke-linecap: square"/>
   </g>
   <g id="line2d_18">
    <path d="M 230.727273 165.863661 
L 236.066986 175.152291 
L 241.406699 159.01076 
L 246.746411 177.133736 
L 252.086124 174.669012 
L 257.425837 171.092744 
L 262.76555 164.935765 
L 268.105263 159.948322 
L 273.444976 167.526143 
L 278.784689 192.057402 
L 284.124402 202.505902 
L 289.464115 222.330021 
L 294.803828 211.301586 
L 300.143541 222.764972 
L 305.483254 238.307236 
L 310.822967 241.49856 
L 316.162679 250.5632 
L 321.502392 260.654073 
L 326.842105 259.010924 
L 332.181818 245.121475 
L 337.521531 234.054378 
L 342.861244 189.573346 
L 348.200957 151.490934 
L 353.54067 125.703148 
L 358.880383 101.510184 
L 364.220096 103.578619 
L 369.559809 104.245545 
L 374.899522 102.244768 
L 380.239234 129.482393 
L 385.578947 147.982326 
L 390.91866 176.843768 
L 396.258373 181.086961 
L 401.598086 182.420812 
L 406.937799 171.759669 
L 412.277512 152.254515 
L 417.617225 172.262281 
L 422.956938 188.964413 
L 428.296651 186.577014 
L 433.636364 184.380188 
L 438.976077 180.331861 
L 444.315789 176.080339 
L 449.655502 197.95341 
L 454.995215 208.305254 
L 460.334928 202.544565 
L 465.674641 208.981845 
L 471.014354 207.010065 
L 476.354067 185.726443 
L 481.69378 125.780473 
L 487.033493 88.133011 
L 492.373206 85.368654 
L 497.712919 102.921358 
L 503.052632 118.637604 
L 508.392344 108.952686 
L 513.732057 104.08123 
L 519.07177 115.215985 
L 524.411483 143.236523 
L 529.751196 128.815467 
L 535.090909 154.003987 
L 540.430622 167.497146 
L 545.770335 182.05352 
L 551.110048 186.721998 
L 556.449761 191.815762 
L 561.789474 191.60312 
L 567.129187 204.989958 
L 572.4689 211.214596 
L 577.808612 243.613643 
L 583.148325 211.465901 
L 588.488038 202.844198 
L 593.827751 200.514791 
L 599.167464 162.500037 
L 604.507177 125.838466 
L 609.84689 99.200108 
L 615.186603 60.682744 
L 620.526316 74.504534 
L 625.866029 86.586518 
L 631.205742 104.931802 
L 636.545455 101.239548 
L 641.885167 135.939004 
L 647.22488 133.918897 
L 652.564593 137.398508 
L 657.904306 155.995097 
L 663.244019 144.618702 
L 668.583732 153.994321 
L 673.923445 164.703792 
L 679.263158 164.133522 
L 684.602871 165.177405 
L 689.942584 175.432593 
L 695.282297 171.392378 
L 700.62201 189.370368 
L 705.961722 211.137271 
L 711.301435 225.017054 
L 716.641148 210.538005 
L 721.980861 213.98862 
L 727.320574 161.117858 
L 732.660287 120.590052 
L 738 112.132663 
L 743.339713 99.63506 
L 748.679426 78.757392 
L 754.019139 84.595408 
L 759.358852 92.707663 
L 764.698565 100.611284 
L 770.038278 110.25754 
L 775.37799 159.784008 
L 780.717703 173.035528 
L 786.057416 158.034536 
L 791.397129 134.102542 
L 796.736842 142.260299 
L 802.076555 188.307155 
L 807.416268 238.906502 
L 812.755981 243.922942 
L 818.095694 249.219684 
L 823.435407 238.983827 
L 828.77512 218.048165 
L 834.114833 221.972394 
L 839.454545 241.82551 
L 844.794258 239.114157 
L 850.133971 222.555346 
L 855.473684 207.029397 
L 860.813397 164.945431 
L 866.15311 109.561617 
L 871.492823 86.257888 
L 876.832536 102.689385 
L 882.172249 96.232773 
L 887.511962 95.884812 
L 892.851675 116.424184 
L 898.191388 147.682693 
L 903.5311 166.047308 
L 908.870813 149.074537 
L 914.210526 163.263619 
L 919.550239 166.037643 
L 924.889952 152.882778 
L 930.229665 157.212962 
L 935.569378 147.112423 
L 940.909091 167.371493 
L 946.248804 179.33749 
L 951.588517 174.958978 
L 956.92823 188.684112 
L 962.267943 207.309699 
L 967.607656 229.211919 
L 972.947368 226.853516 
L 978.287081 209.126829 
L 983.626794 169.256282 
L 988.966507 130.323298 
L 994.30622 107.95713 
L 999.645933 136.45128 
L 1004.985646 120.793029 
L 1010.325359 118.627939 
L 1015.665072 132.07277 
L 1021.004785 139.012661 
L 1026.344498 164.897104 
L 1031.684211 180.342711 
L 1037.023923 170.638462 
L 1042.363636 191.651447 
L 1047.703349 197.044845 
L 1053.043062 171.257059 
L 1058.382775 192.01874 
L 1063.722488 192.463357 
L 1069.062201 208.237595 
L 1074.401914 235.678197 
L 1079.741627 234.730969 
L 1085.08134 241.786848 
L 1090.421053 238.336233 
L 1095.760766 209.600442 
L 1101.100478 236.354787 
L 1106.440191 253.76251 
L 1111.779904 224.147151 
L 1117.119617 208.778868 
L 1122.45933 177.559022 
L 1127.799043 131.057883 
L 1133.138756 114.133439 
L 1138.478469 108.37275 
L 1143.818182 114.143105 
L 1149.157895 113.332384 
L 1154.497608 131.083513 
L 1159.837321 133.010331 
L 1165.177033 144.3384 
L 1170.516746 172.629573 
L 1175.856459 186.296712 
L 1181.196172 152.351171 
L 1186.535885 136.953892 
L 1191.875598 148.707245 
L 1197.215311 167.564805 
L 1202.555024 177.046746 
L 1207.894737 198.146722 
L 1213.23445 209.871079 
L 1218.574163 230.661757 
L 1223.913876 238.0366 
L 1229.253589 236.345122 
L 1234.593301 198.881307 
L 1239.933014 146.165195 
L 1245.272727 111.369082 
L 1245.272727 111.369082 
" clip-path="url(#p1e4d467d05)" style="fill: none; stroke: #ffa500; stroke-width: 1.5; stroke-linecap: square"/>
   </g>
   <g id="patch_3">
    <path d="M 180 320.4 
L 180 43.2 
" style="fill: none; stroke: #000000; stroke-width: 0.8; stroke-linejoin: miter; stroke-linecap: square"/>
   </g>
   <g id="patch_4">
    <path d="M 1296 320.4 
L 1296 43.2 
" style="fill: none; stroke: #000000; stroke-width: 0.8; stroke-linejoin: miter; stroke-linecap: square"/>
   </g>
   <g id="patch_5">
    <path d="M 180 320.4 
L 1296 320.4 
" style="fill: none; stroke: #000000; stroke-width: 0.8; stroke-linejoin: miter; stroke-linecap: square"/>
   </g>
   <g id="patch_6">
    <path d="M 180 43.2 
L 1296 43.2 
" style="fill: none; stroke: #000000; stroke-width: 0.8; stroke-linejoin: miter; stroke-linecap: square"/>
   </g>
   <g id="text_19">
    <!-- Previsão do vento para 1 hora(s) à frente com 2 camadas -->
    <g transform="translate(564.882187 37.2) scale(0.12 -0.12)">
     <defs>
      <path id="DejaVuSans-50" d="M 1259 4147 
L 1259 2394 
L 2053 2394 
Q 2494 2394 2734 2622 
Q 2975 2850 2975 3272 
Q 2975 3691 2734 3919 
Q 2494 4147 2053 4147 
L 1259 4147 
z
M 628 4666 
L 2053 4666 
Q 2838 4666 3239 4311 
Q 3641 3956 3641 3272 
Q 3641 2581 3239 2228 
Q 2838 1875 2053 1875 
L 1259 1875 
L 1259 0 
L 628 0 
L 628 4666 
z
" transform="scale(0.015625)"/>
      <path id="DejaVuSans-76" d="M 191 3500 
L 800 3500 
L 1894 563 
L 2988 3500 
L 3597 3500 
L 2284 0 
L 1503 0 
L 191 3500 
z
" transform="scale(0.015625)"/>
      <path id="DejaVuSans-e3" d="M 2194 1759 
Q 1497 1759 1228 1600 
Q 959 1441 959 1056 
Q 959 750 1161 570 
Q 1363 391 1709 391 
Q 2188 391 2477 730 
Q 2766 1069 2766 1631 
L 2766 1759 
L 2194 1759 
z
M 3341 1997 
L 3341 0 
L 2766 0 
L 2766 531 
Q 2569 213 2275 61 
Q 1981 -91 1556 -91 
Q 1019 -91 701 211 
Q 384 513 384 1019 
Q 384 1609 779 1909 
Q 1175 2209 1959 2209 
L 2766 2209 
L 2766 2266 
Q 2766 2663 2505 2880 
Q 2244 3097 1772 3097 
Q 1472 3097 1187 3025 
Q 903 2953 641 2809 
L 641 3341 
Q 956 3463 1253 3523 
Q 1550 3584 1831 3584 
Q 2591 3584 2966 3190 
Q 3341 2797 3341 1997 
z
M 1844 4281 
L 1666 4453 
Q 1597 4516 1545 4545 
Q 1494 4575 1453 4575 
Q 1334 4575 1278 4461 
Q 1222 4347 1216 4091 
L 825 4091 
Q 831 4513 990 4742 
Q 1150 4972 1434 4972 
Q 1553 4972 1653 4928 
Q 1753 4884 1869 4781 
L 2047 4609 
Q 2116 4547 2167 4517 
Q 2219 4488 2259 4488 
Q 2378 4488 2434 4602 
Q 2491 4716 2497 4972 
L 2888 4972 
Q 2881 4550 2722 4320 
Q 2563 4091 2278 4091 
Q 2159 4091 2059 4134 
Q 1959 4178 1844 4281 
z
" transform="scale(0.015625)"/>
      <path id="DejaVuSans-70" d="M 1159 525 
L 1159 -1331 
L 581 -1331 
L 581 3500 
L 1159 3500 
L 1159 2969 
Q 1341 3281 1617 3432 
Q 1894 3584 2278 3584 
Q 2916 3584 3314 3078 
Q 3713 2572 3713 1747 
Q 3713 922 3314 415 
Q 2916 -91 2278 -91 
Q 1894 -91 1617 61 
Q 1341 213 1159 525 
z
M 3116 1747 
Q 3116 2381 2855 2742 
Q 2594 3103 2138 3103 
Q 1681 3103 1420 2742 
Q 1159 2381 1159 1747 
Q 1159 1113 1420 752 
Q 1681 391 2138 391 
Q 2594 391 2855 752 
Q 3116 1113 3116 1747 
z
" transform="scale(0.015625)"/>
      <path id="DejaVuSans-68" d="M 3513 2113 
L 3513 0 
L 2938 0 
L 2938 2094 
Q 2938 2591 2744 2837 
Q 2550 3084 2163 3084 
Q 1697 3084 1428 2787 
Q 1159 2491 1159 1978 
L 1159 0 
L 581 0 
L 581 4863 
L 1159 4863 
L 1159 2956 
Q 1366 3272 1645 3428 
Q 1925 3584 2291 3584 
Q 2894 3584 3203 3211 
Q 3513 2838 3513 2113 
z
" transform="scale(0.015625)"/>
      <path id="DejaVuSans-e0" d="M 2194 1759 
Q 1497 1759 1228 1600 
Q 959 1441 959 1056 
Q 959 750 1161 570 
Q 1363 391 1709 391 
Q 2188 391 2477 730 
Q 2766 1069 2766 1631 
L 2766 1759 
L 2194 1759 
z
M 3341 1997 
L 3341 0 
L 2766 0 
L 2766 531 
Q 2569 213 2275 61 
Q 1981 -91 1556 -91 
Q 1019 -91 701 211 
Q 384 513 384 1019 
Q 384 1609 779 1909 
Q 1175 2209 1959 2209 
L 2766 2209 
L 2766 2266 
Q 2766 2663 2505 2880 
Q 2244 3097 1772 3097 
Q 1472 3097 1187 3025 
Q 903 2953 641 2809 
L 641 3341 
Q 956 3463 1253 3523 
Q 1550 3584 1831 3584 
Q 2591 3584 2966 3190 
Q 3341 2797 3341 1997 
z
M 1403 5119 
L 2284 3950 
L 1806 3950 
L 788 5119 
L 1403 5119 
z
" transform="scale(0.015625)"/>
      <path id="DejaVuSans-66" d="M 2375 4863 
L 2375 4384 
L 1825 4384 
Q 1516 4384 1395 4259 
Q 1275 4134 1275 3809 
L 1275 3500 
L 2222 3500 
L 2222 3053 
L 1275 3053 
L 1275 0 
L 697 0 
L 697 3053 
L 147 3053 
L 147 3500 
L 697 3500 
L 697 3744 
Q 697 4328 969 4595 
Q 1241 4863 1831 4863 
L 2375 4863 
z
" transform="scale(0.015625)"/>
     </defs>
     <use xlink:href="#DejaVuSans-50"/>
     <use xlink:href="#DejaVuSans-72" x="58.552734"/>
     <use xlink:href="#DejaVuSans-65" x="97.416016"/>
     <use xlink:href="#DejaVuSans-76" x="158.939453"/>
     <use xlink:href="#DejaVuSans-69" x="218.119141"/>
     <use xlink:href="#DejaVuSans-73" x="245.902344"/>
     <use xlink:href="#DejaVuSans-e3" x="298.001953"/>
     <use xlink:href="#DejaVuSans-6f" x="359.28125"/>
     <use xlink:href="#DejaVuSans-20" x="420.462891"/>
     <use xlink:href="#DejaVuSans-64" x="452.25"/>
     <use xlink:href="#DejaVuSans-6f" x="515.726562"/>
     <use xlink:href="#DejaVuSans-20" x="576.908203"/>
     <use xlink:href="#DejaVuSans-76" x="608.695312"/>
     <use xlink:href="#DejaVuSans-65" x="667.875"/>
     <use xlink:href="#DejaVuSans-6e" x="729.398438"/>
     <use xlink:href="#DejaVuSans-74" x="792.777344"/>
     <use xlink:href="#DejaVuSans-6f" x="831.986328"/>
     <use xlink:href="#DejaVuSans-20" x="893.167969"/>
     <use xlink:href="#DejaVuSans-70" x="924.955078"/>
     <use xlink:href="#DejaVuSans-61" x="988.431641"/>
     <use xlink:href="#DejaVuSans-72" x="1049.710938"/>
     <use xlink:href="#DejaVuSans-61" x="1090.824219"/>
     <use xlink:href="#DejaVuSans-20" x="1152.103516"/>
     <use xlink:href="#DejaVuSans-31" x="1183.890625"/>
     <use xlink:href="#DejaVuSans-20" x="1247.513672"/>
     <use xlink:href="#DejaVuSans-68" x="1279.300781"/>
     <use xlink:href="#DejaVuSans-6f" x="1342.679688"/>
     <use xlink:href="#DejaVuSans-72" x="1403.861328"/>
     <use xlink:href="#DejaVuSans-61" x="1444.974609"/>
     <use xlink:href="#DejaVuSans-28" x="1506.253906"/>
     <use xlink:href="#DejaVuSans-73" x="1545.267578"/>
     <use xlink:href="#DejaVuSans-29" x="1597.367188"/>
     <use xlink:href="#DejaVuSans-20" x="1636.380859"/>
     <use xlink:href="#DejaVuSans-e0" x="1668.167969"/>
     <use xlink:href="#DejaVuSans-20" x="1729.447266"/>
     <use xlink:href="#DejaVuSans-66" x="1761.234375"/>
     <use xlink:href="#DejaVuSans-72" x="1796.439453"/>
     <use xlink:href="#DejaVuSans-65" x="1835.302734"/>
     <use xlink:href="#DejaVuSans-6e" x="1896.826172"/>
     <use xlink:href="#DejaVuSans-74" x="1960.205078"/>
     <use xlink:href="#DejaVuSans-65" x="1999.414062"/>
     <use xlink:href="#DejaVuSans-20" x="2060.9375"/>
     <use xlink:href="#DejaVuSans-63" x="2092.724609"/>
     <use xlink:href="#DejaVuSans-6f" x="2147.705078"/>
     <use xlink:href="#DejaVuSans-6d" x="2208.886719"/>
     <use xlink:href="#DejaVuSans-20" x="2306.298828"/>
     <use xlink:href="#DejaVuSans-32" x="2338.085938"/>
     <use xlink:href="#DejaVuSans-20" x="2401.708984"/>
     <use xlink:href="#DejaVuSans-63" x="2433.496094"/>
     <use xlink:href="#DejaVuSans-61" x="2488.476562"/>
     <use xlink:href="#DejaVuSans-6d" x="2549.755859"/>
     <use xlink:href="#DejaVuSans-61" x="2647.167969"/>
     <use xlink:href="#DejaVuSans-64" x="2708.447266"/>
     <use xlink:href="#DejaVuSans-61" x="2771.923828"/>
     <use xlink:href="#DejaVuSans-73" x="2833.203125"/>
    </g>
   </g>
   <g id="legend_1">
    <g id="patch_7">
     <path d="M 1217.86875 80.55625 
L 1289 80.55625 
Q 1291 80.55625 1291 78.55625 
L 1291 50.2 
Q 1291 48.2 1289 48.2 
L 1217.86875 48.2 
Q 1215.86875 48.2 1215.86875 50.2 
L 1215.86875 78.55625 
Q 1215.86875 80.55625 1217.86875 80.55625 
z
" style="fill: #ffffff; opacity: 0.8; stroke: #cccccc; stroke-linejoin: miter"/>
    </g>
    <g id="line2d_19">
     <path d="M 1219.86875 56.298437 
L 1229.86875 56.298437 
L 1239.86875 56.298437 
" style="fill: none; stroke: #0000ff; stroke-width: 1.5; stroke-linecap: square"/>
    </g>
    <g id="text_20">
     <!-- Predito -->
     <g transform="translate(1247.86875 59.798437) scale(0.1 -0.1)">
      <use xlink:href="#DejaVuSans-50"/>
      <use xlink:href="#DejaVuSans-72" x="58.552734"/>
      <use xlink:href="#DejaVuSans-65" x="97.416016"/>
      <use xlink:href="#DejaVuSans-64" x="158.939453"/>
      <use xlink:href="#DejaVuSans-69" x="222.416016"/>
      <use xlink:href="#DejaVuSans-74" x="250.199219"/>
      <use xlink:href="#DejaVuSans-6f" x="289.408203"/>
     </g>
    </g>
    <g id="line2d_20">
     <path d="M 1219.86875 70.976562 
L 1229.86875 70.976562 
L 1239.86875 70.976562 
" style="fill: none; stroke: #ffa500; stroke-width: 1.5; stroke-linecap: square"/>
    </g>
    <g id="text_21">
     <!-- Original -->
     <g transform="translate(1247.86875 74.476562) scale(0.1 -0.1)">
      <defs>
       <path id="DejaVuSans-4f" d="M 2522 4238 
Q 1834 4238 1429 3725 
Q 1025 3213 1025 2328 
Q 1025 1447 1429 934 
Q 1834 422 2522 422 
Q 3209 422 3611 934 
Q 4013 1447 4013 2328 
Q 4013 3213 3611 3725 
Q 3209 4238 2522 4238 
z
M 2522 4750 
Q 3503 4750 4090 4092 
Q 4678 3434 4678 2328 
Q 4678 1225 4090 567 
Q 3503 -91 2522 -91 
Q 1538 -91 948 565 
Q 359 1222 359 2328 
Q 359 3434 948 4092 
Q 1538 4750 2522 4750 
z
" transform="scale(0.015625)"/>
       <path id="DejaVuSans-67" d="M 2906 1791 
Q 2906 2416 2648 2759 
Q 2391 3103 1925 3103 
Q 1463 3103 1205 2759 
Q 947 2416 947 1791 
Q 947 1169 1205 825 
Q 1463 481 1925 481 
Q 2391 481 2648 825 
Q 2906 1169 2906 1791 
z
M 3481 434 
Q 3481 -459 3084 -895 
Q 2688 -1331 1869 -1331 
Q 1566 -1331 1297 -1286 
Q 1028 -1241 775 -1147 
L 775 -588 
Q 1028 -725 1275 -790 
Q 1522 -856 1778 -856 
Q 2344 -856 2625 -561 
Q 2906 -266 2906 331 
L 2906 616 
Q 2728 306 2450 153 
Q 2172 0 1784 0 
Q 1141 0 747 490 
Q 353 981 353 1791 
Q 353 2603 747 3093 
Q 1141 3584 1784 3584 
Q 2172 3584 2450 3431 
Q 2728 3278 2906 2969 
L 2906 3500 
L 3481 3500 
L 3481 434 
z
" transform="scale(0.015625)"/>
      </defs>
      <use xlink:href="#DejaVuSans-4f"/>
      <use xlink:href="#DejaVuSans-72" x="78.710938"/>
      <use xlink:href="#DejaVuSans-69" x="119.824219"/>
      <use xlink:href="#DejaVuSans-67" x="147.607422"/>
      <use xlink:href="#DejaVuSans-69" x="211.083984"/>
      <use xlink:href="#DejaVuSans-6e" x="238.867188"/>
      <use xlink:href="#DejaVuSans-61" x="302.246094"/>
      <use xlink:href="#DejaVuSans-6c" x="363.525391"/>
     </g>
    </g>
   </g>
  </g>
 </g>
 <defs>
  <clipPath id="p1e4d467d05">
   <rect x="180" y="43.2" width="1116" height="277.2"/>
  </clipPath>
 </defs>
</svg>
