<?xml version="1.0" encoding="utf-8" standalone="no"?>
<!DOCTYPE svg PUBLIC "-//W3C//DTD SVG 1.1//EN"
  "http://www.w3.org/Graphics/SVG/1.1/DTD/svg11.dtd">
<svg xmlns:xlink="http://www.w3.org/1999/xlink" width="1440pt" height="360pt" viewBox="0 0 1440 360" xmlns="http://www.w3.org/2000/svg" version="1.1">
 <metadata>
  <rdf:RDF xmlns:dc="http://purl.org/dc/elements/1.1/" xmlns:cc="http://creativecommons.org/ns#" xmlns:rdf="http://www.w3.org/1999/02/22-rdf-syntax-ns#">
   <cc:Work>
    <dc:type rdf:resource="http://purl.org/dc/dcmitype/StillImage"/>
    <dc:date>2023-08-21T14:34:05.823868</dc:date>
    <dc:format>image/svg+xml</dc:format>
    <dc:creator>
     <cc:Agent>
      <dc:title>Matplotlib v3.7.1, https://matplotlib.org/</dc:title>
     </cc:Agent>
    </dc:creator>
   </cc:Work>
  </rdf:RDF>
 </metadata>
 <defs>
  <style type="text/css">*{stroke-linejoin: round; stroke-linecap: butt}</style>
 </defs>
 <g id="figure_1">
  <g id="patch_1">
   <path d="M 0 360 
L 1440 360 
L 1440 0 
L 0 0 
z
" style="fill: #ffffff"/>
  </g>
  <g id="axes_1">
   <g id="patch_2">
    <path d="M 180 320.4 
L 1296 320.4 
L 1296 43.2 
L 180 43.2 
z
" style="fill: #ffffff"/>
   </g>
   <g id="PolyCollection_1">
    <defs>
     <path id="m0c4c01f540" d="M 230.727273 -265.288968 
L 230.727273 -187.675565 
L 236.066986 -152.814839 
L 241.406699 -142.850224 
L 246.746411 -148.975784 
L 252.086124 -138.768319 
L 257.425837 -145.088539 
L 262.76555 -147.179993 
L 268.105263 -154.554867 
L 273.444976 -158.270543 
L 278.784689 -153.56781 
L 284.124402 -133.797566 
L 289.464115 -123.626372 
L 294.803828 -83.984704 
L 300.143541 -96.536263 
L 305.483254 -87.97732 
L 310.822967 -73.856808 
L 316.162679 -71.764825 
L 321.502392 -64.246579 
L 326.842105 -57.190403 
L 332.181818 -60.572316 
L 337.521531 -71.121265 
L 342.861244 -83.00955 
L 348.200957 -127.538379 
L 353.54067 -165.78404 
L 358.880383 -191.664292 
L 364.220096 -207.713233 
L 369.559809 -210.261467 
L 374.899522 -210.848445 
L 380.239234 -212.591406 
L 385.578947 -195.834139 
L 390.91866 -178.574544 
L 396.258373 -153.692995 
L 401.598086 -148.240599 
L 406.937799 -147.345492 
L 412.277512 -155.484643 
L 417.617225 -169.760762 
L 422.956938 -133.84458 
L 428.296651 -117.682323 
L 433.636364 -122.797379 
L 438.976077 -126.630158 
L 444.315789 -132.416109 
L 449.655502 -138.345765 
L 454.995215 -120.264612 
L 460.334928 -111.962589 
L 465.674641 -127.836856 
L 471.014354 -132.763647 
L 476.354067 -136.563923 
L 481.69378 -149.77676 
L 487.033493 -198.342213 
L 492.373206 -219.207204 
L 497.712919 -220.639273 
L 503.052632 -211.498843 
L 508.392344 -204.996243 
L 513.732057 -210.187048 
L 519.07177 -207.582317 
L 524.411483 -202.518728 
L 529.751196 -182.393459 
L 535.090909 -188.911901 
L 540.430622 -169.585697 
L 545.770335 -153.647447 
L 551.110048 -121.555552 
L 556.449761 -119.952799 
L 561.789474 -116.821049 
L 567.129187 -117.663855 
L 572.4689 -102.061377 
L 577.808612 -97.400777 
L 583.148325 -68.066696 
L 588.488038 -107.535175 
L 593.827751 -127.56372 
L 599.167464 -134.990826 
L 604.507177 -169.05866 
L 609.84689 -195.136828 
L 615.186603 -211.794541 
L 620.526316 -226.187063 
L 625.866029 -226.586596 
L 631.205742 -218.012442 
L 636.545455 -209.288598 
L 641.885167 -213.557317 
L 647.22488 -189.853546 
L 652.564593 -185.038195 
L 657.904306 -179.287458 
L 663.244019 -161.315239 
L 668.583732 -170.461279 
L 673.923445 -161.272316 
L 679.263158 -137.822548 
L 684.602871 -139.706315 
L 689.942584 -139.972392 
L 695.282297 -131.193211 
L 700.62201 -137.837691 
L 705.961722 -121.499976 
L 711.301435 -100.711929 
L 716.641148 -94.356917 
L 721.980861 -118.71972 
L 727.320574 -126.414319 
L 732.660287 -169.286981 
L 738 -200.438903 
L 743.339713 -205.663507 
L 748.679426 -214.351642 
L 754.019139 -221.169619 
L 759.358852 -224.749213 
L 764.698565 -219.828646 
L 770.038278 -215.296902 
L 775.37799 -208.53474 
L 780.717703 -169.193054 
L 786.057416 -154.769 
L 791.397129 -161.470983 
L 796.736842 -176.645279 
L 802.076555 -169.019847 
L 807.416268 -113.442662 
L 812.755981 -73.116021 
L 818.095694 -69.204006 
L 823.435407 -52.2 
L 828.77512 -65.034969 
L 834.114833 -92.748435 
L 839.454545 -91.659564 
L 844.794258 -81.292228 
L 850.133971 -98.039912 
L 855.473684 -116.700246 
L 860.813397 -126.484014 
L 866.15311 -155.713356 
L 871.492823 -199.542448 
L 876.832536 -215.426624 
L 882.172249 -206.829261 
L 887.511962 -212.110582 
L 892.851675 -209.755592 
L 898.191388 -202.547342 
L 903.5311 -179.309541 
L 908.870813 -161.959293 
L 914.210526 -172.190138 
L 919.550239 -163.354818 
L 924.889952 -157.830527 
L 930.229665 -163.854128 
L 935.569378 -144.514861 
L 940.909091 -156.243156 
L 946.248804 -139.238536 
L 951.588517 -129.618544 
L 956.92823 -136.879897 
L 962.267943 -128.511964 
L 967.607656 -110.12865 
L 972.947368 -93.861172 
L 978.287081 -106.917143 
L 983.626794 -124.225884 
L 988.966507 -162.711872 
L 994.30622 -198.059271 
L 999.645933 -211.661835 
L 1004.985646 -197.675802 
L 1010.325359 -206.364808 
L 1015.665072 -207.98625 
L 1021.004785 -200.716525 
L 1026.344498 -194.188823 
L 1031.684211 -171.085535 
L 1037.023923 -158.551234 
L 1042.363636 -167.818811 
L 1047.703349 -148.509114 
L 1053.043062 -141.063608 
L 1058.382775 -160.956906 
L 1063.722488 -113.272321 
L 1069.062201 -111.592813 
L 1074.401914 -98.577795 
L 1079.741627 -73.536427 
L 1085.08134 -80.193671 
L 1090.421053 -76.389098 
L 1095.760766 -74.441902 
L 1101.100478 -107.883924 
L 1106.440191 -93.793847 
L 1111.779904 -86.209973 
L 1117.119617 -110.994188 
L 1122.45933 -126.553829 
L 1127.799043 -159.458057 
L 1133.138756 -196.241192 
L 1138.478469 -209.64103 
L 1143.818182 -214.93492 
L 1149.157895 -209.690569 
L 1154.497608 -202.121105 
L 1159.837321 -190.941419 
L 1165.177033 -197.723892 
L 1170.516746 -189.0723 
L 1175.856459 -165.599783 
L 1181.196172 -152.782216 
L 1186.535885 -165.884959 
L 1191.875598 -160.834602 
L 1197.215311 -151.952268 
L 1202.555024 -136.886206 
L 1207.894737 -130.749767 
L 1213.23445 -111.351207 
L 1218.574163 -101.442748 
L 1223.913876 -83.205685 
L 1229.253589 -83.094491 
L 1234.593301 -96.447042 
L 1239.933014 -132.658329 
L 1245.272727 -171.11768 
L 1245.272727 -248.731084 
L 1245.272727 -248.731084 
L 1239.933014 -210.271733 
L 1234.593301 -174.06045 
L 1229.253589 -160.707899 
L 1223.913876 -160.819101 
L 1218.574163 -179.056169 
L 1213.23445 -188.964628 
L 1207.894737 -208.36317 
L 1202.555024 -214.49961 
L 1197.215311 -229.565672 
L 1191.875598 -238.448006 
L 1186.535885 -243.498363 
L 1181.196172 -230.39562 
L 1175.856459 -243.213187 
L 1170.516746 -266.685704 
L 1165.177033 -275.337295 
L 1159.837321 -268.554823 
L 1154.497608 -279.734509 
L 1149.157895 -287.303973 
L 1143.818182 -292.548324 
L 1138.478469 -287.254434 
L 1133.138756 -273.854596 
L 1127.799043 -237.071461 
L 1122.45933 -204.167233 
L 1117.119617 -188.607592 
L 1111.779904 -163.823381 
L 1106.440191 -171.407255 
L 1101.100478 -185.497328 
L 1095.760766 -152.055319 
L 1090.421053 -154.002506 
L 1085.08134 -157.807079 
L 1079.741627 -151.149843 
L 1074.401914 -176.191212 
L 1069.062201 -189.206234 
L 1063.722488 -190.885724 
L 1058.382775 -238.57031 
L 1053.043062 -218.677011 
L 1047.703349 -226.122518 
L 1042.363636 -245.432215 
L 1037.023923 -236.164638 
L 1031.684211 -248.698939 
L 1026.344498 -271.802226 
L 1021.004785 -278.329928 
L 1015.665072 -285.599654 
L 1010.325359 -283.978211 
L 1004.985646 -275.289206 
L 999.645933 -289.275239 
L 994.30622 -275.672675 
L 988.966507 -240.325276 
L 983.626794 -201.839305 
L 978.287081 -184.530547 
L 972.947368 -171.47458 
L 967.607656 -187.742071 
L 962.267943 -206.125385 
L 956.92823 -214.493301 
L 951.588517 -207.231965 
L 946.248804 -216.85194 
L 940.909091 -233.85656 
L 935.569378 -222.128265 
L 930.229665 -241.467531 
L 924.889952 -235.443931 
L 919.550239 -240.968222 
L 914.210526 -249.803541 
L 908.870813 -239.572697 
L 903.5311 -256.922945 
L 898.191388 -280.160746 
L 892.851675 -287.368996 
L 887.511962 -289.723986 
L 882.172249 -284.442665 
L 876.832536 -293.040028 
L 871.492823 -277.155852 
L 866.15311 -233.32676 
L 860.813397 -204.097435 
L 855.473684 -194.31365 
L 850.133971 -175.653329 
L 844.794258 -158.905645 
L 839.454545 -169.272981 
L 834.114833 -170.361843 
L 828.77512 -142.648386 
L 823.435407 -129.813408 
L 818.095694 -146.817414 
L 812.755981 -150.729438 
L 807.416268 -191.056066 
L 802.076555 -246.633251 
L 796.736842 -254.258683 
L 791.397129 -239.084387 
L 786.057416 -232.382404 
L 780.717703 -246.806458 
L 775.37799 -286.148144 
L 770.038278 -292.910306 
L 764.698565 -297.44205 
L 759.358852 -302.362617 
L 754.019139 -298.783023 
L 748.679426 -291.965046 
L 743.339713 -283.27691 
L 738 -278.052307 
L 732.660287 -246.900385 
L 727.320574 -204.027723 
L 721.980861 -196.333141 
L 716.641148 -171.970325 
L 711.301435 -178.325333 
L 705.961722 -199.113397 
L 700.62201 -215.451095 
L 695.282297 -208.806631 
L 689.942584 -217.585795 
L 684.602871 -217.319719 
L 679.263158 -215.435952 
L 673.923445 -238.88572 
L 668.583732 -248.074683 
L 663.244019 -238.928642 
L 657.904306 -256.900862 
L 652.564593 -262.651599 
L 647.22488 -267.466949 
L 641.885167 -291.170721 
L 636.545455 -286.902002 
L 631.205742 -295.625846 
L 625.866029 -304.2 
L 620.526316 -303.800467 
L 615.186603 -289.407944 
L 609.84689 -272.750232 
L 604.507177 -246.672064 
L 599.167464 -212.60423 
L 593.827751 -205.17714 
L 588.488038 -185.148578 
L 583.148325 -145.680104 
L 577.808612 -175.014185 
L 572.4689 -179.674781 
L 567.129187 -195.277259 
L 561.789474 -194.434453 
L 556.449761 -197.566203 
L 551.110048 -199.168956 
L 545.770335 -231.260851 
L 540.430622 -247.199101 
L 535.090909 -266.525305 
L 529.751196 -260.006862 
L 524.411483 -280.132131 
L 519.07177 -285.195721 
L 513.732057 -287.800452 
L 508.392344 -282.609647 
L 503.052632 -289.112247 
L 497.712919 -298.252677 
L 492.373206 -296.820607 
L 487.033493 -275.955617 
L 481.69378 -227.390164 
L 476.354067 -214.177327 
L 471.014354 -210.377051 
L 465.674641 -205.45026 
L 460.334928 -189.575992 
L 454.995215 -197.878033 
L 449.655502 -215.959169 
L 444.315789 -210.02953 
L 438.976077 -204.243562 
L 433.636364 -200.4108 
L 428.296651 -195.295727 
L 422.956938 -211.457984 
L 417.617225 -247.374166 
L 412.277512 -233.098047 
L 406.937799 -224.958896 
L 401.598086 -225.854003 
L 396.258373 -231.306399 
L 390.91866 -256.187948 
L 385.578947 -273.447543 
L 380.239234 -290.20481 
L 374.899522 -288.461849 
L 369.559809 -287.87487 
L 364.220096 -285.326637 
L 358.880383 -269.277696 
L 353.54067 -243.397444 
L 348.200957 -205.151783 
L 342.861244 -160.622959 
L 337.521531 -148.734673 
L 332.181818 -138.185724 
L 326.842105 -134.803815 
L 321.502392 -141.859996 
L 316.162679 -149.378233 
L 310.822967 -151.470216 
L 305.483254 -165.590728 
L 300.143541 -174.149671 
L 294.803828 -161.598112 
L 289.464115 -201.239776 
L 284.124402 -211.410969 
L 278.784689 -231.181214 
L 273.444976 -235.883947 
L 268.105263 -232.168271 
L 262.76555 -224.793397 
L 257.425837 -222.701942 
L 252.086124 -216.381723 
L 246.746411 -226.589188 
L 241.406699 -220.463628 
L 236.066986 -230.428242 
L 230.727273 -265.288968 
z
" style="stroke: #0000ff; stroke-opacity: 0.05"/>
    </defs>
    <g clip-path="url(#p39fbe89b85)">
     <use xlink:href="#m0c4c01f540" x="0" y="360" style="fill: #0000ff; fill-opacity: 0.05; stroke: #0000ff; stroke-opacity: 0.05"/>
    </g>
   </g>
   <g id="matplotlib.axis_1">
    <g id="xtick_1">
     <g id="line2d_1">
      <defs>
       <path id="m01cea88a3b" d="M 0 0 
L 0 3.5 
" style="stroke: #000000; stroke-width: 0.8"/>
      </defs>
      <g>
       <use xlink:href="#m01cea88a3b" x="230.727273" y="320.4" style="stroke: #000000; stroke-width: 0.8"/>
      </g>
     </g>
     <g id="text_1">
      <!-- 0 -->
      <g transform="translate(227.546023 334.998438) scale(0.1 -0.1)">
       <defs>
        <path id="DejaVuSans-30" d="M 2034 4250 
Q 1547 4250 1301 3770 
Q 1056 3291 1056 2328 
Q 1056 1369 1301 889 
Q 1547 409 2034 409 
Q 2525 409 2770 889 
Q 3016 1369 3016 2328 
Q 3016 3291 2770 3770 
Q 2525 4250 2034 4250 
z
M 2034 4750 
Q 2819 4750 3233 4129 
Q 3647 3509 3647 2328 
Q 3647 1150 3233 529 
Q 2819 -91 2034 -91 
Q 1250 -91 836 529 
Q 422 1150 422 2328 
Q 422 3509 836 4129 
Q 1250 4750 2034 4750 
z
" transform="scale(0.015625)"/>
       </defs>
       <use xlink:href="#DejaVuSans-30"/>
      </g>
     </g>
    </g>
    <g id="xtick_2">
     <g id="line2d_2">
      <g>
       <use xlink:href="#m01cea88a3b" x="364.220096" y="320.4" style="stroke: #000000; stroke-width: 0.8"/>
      </g>
     </g>
     <g id="text_2">
      <!-- 25 -->
      <g transform="translate(357.857596 334.998438) scale(0.1 -0.1)">
       <defs>
        <path id="DejaVuSans-32" d="M 1228 531 
L 3431 531 
L 3431 0 
L 469 0 
L 469 531 
Q 828 903 1448 1529 
Q 2069 2156 2228 2338 
Q 2531 2678 2651 2914 
Q 2772 3150 2772 3378 
Q 2772 3750 2511 3984 
Q 2250 4219 1831 4219 
Q 1534 4219 1204 4116 
Q 875 4013 500 3803 
L 500 4441 
Q 881 4594 1212 4672 
Q 1544 4750 1819 4750 
Q 2544 4750 2975 4387 
Q 3406 4025 3406 3419 
Q 3406 3131 3298 2873 
Q 3191 2616 2906 2266 
Q 2828 2175 2409 1742 
Q 1991 1309 1228 531 
z
" transform="scale(0.015625)"/>
        <path id="DejaVuSans-35" d="M 691 4666 
L 3169 4666 
L 3169 4134 
L 1269 4134 
L 1269 2991 
Q 1406 3038 1543 3061 
Q 1681 3084 1819 3084 
Q 2600 3084 3056 2656 
Q 3513 2228 3513 1497 
Q 3513 744 3044 326 
Q 2575 -91 1722 -91 
Q 1428 -91 1123 -41 
Q 819 9 494 109 
L 494 744 
Q 775 591 1075 516 
Q 1375 441 1709 441 
Q 2250 441 2565 725 
Q 2881 1009 2881 1497 
Q 2881 1984 2565 2268 
Q 2250 2553 1709 2553 
Q 1456 2553 1204 2497 
Q 953 2441 691 2322 
L 691 4666 
z
" transform="scale(0.015625)"/>
       </defs>
       <use xlink:href="#DejaVuSans-32"/>
       <use xlink:href="#DejaVuSans-35" x="63.623047"/>
      </g>
     </g>
    </g>
    <g id="xtick_3">
     <g id="line2d_3">
      <g>
       <use xlink:href="#m01cea88a3b" x="497.712919" y="320.4" style="stroke: #000000; stroke-width: 0.8"/>
      </g>
     </g>
     <g id="text_3">
      <!-- 50 -->
      <g transform="translate(491.350419 334.998438) scale(0.1 -0.1)">
       <use xlink:href="#DejaVuSans-35"/>
       <use xlink:href="#DejaVuSans-30" x="63.623047"/>
      </g>
     </g>
    </g>
    <g id="xtick_4">
     <g id="line2d_4">
      <g>
       <use xlink:href="#m01cea88a3b" x="631.205742" y="320.4" style="stroke: #000000; stroke-width: 0.8"/>
      </g>
     </g>
     <g id="text_4">
      <!-- 75 -->
      <g transform="translate(624.843242 334.998438) scale(0.1 -0.1)">
       <defs>
        <path id="DejaVuSans-37" d="M 525 4666 
L 3525 4666 
L 3525 4397 
L 1831 0 
L 1172 0 
L 2766 4134 
L 525 4134 
L 525 4666 
z
" transform="scale(0.015625)"/>
       </defs>
       <use xlink:href="#DejaVuSans-37"/>
       <use xlink:href="#DejaVuSans-35" x="63.623047"/>
      </g>
     </g>
    </g>
    <g id="xtick_5">
     <g id="line2d_5">
      <g>
       <use xlink:href="#m01cea88a3b" x="764.698565" y="320.4" style="stroke: #000000; stroke-width: 0.8"/>
      </g>
     </g>
     <g id="text_5">
      <!-- 100 -->
      <g transform="translate(755.154815 334.998438) scale(0.1 -0.1)">
       <defs>
        <path id="DejaVuSans-31" d="M 794 531 
L 1825 531 
L 1825 4091 
L 703 3866 
L 703 4441 
L 1819 4666 
L 2450 4666 
L 2450 531 
L 3481 531 
L 3481 0 
L 794 0 
L 794 531 
z
" transform="scale(0.015625)"/>
       </defs>
       <use xlink:href="#DejaVuSans-31"/>
       <use xlink:href="#DejaVuSans-30" x="63.623047"/>
       <use xlink:href="#DejaVuSans-30" x="127.246094"/>
      </g>
     </g>
    </g>
    <g id="xtick_6">
     <g id="line2d_6">
      <g>
       <use xlink:href="#m01cea88a3b" x="898.191388" y="320.4" style="stroke: #000000; stroke-width: 0.8"/>
      </g>
     </g>
     <g id="text_6">
      <!-- 125 -->
      <g transform="translate(888.647638 334.998438) scale(0.1 -0.1)">
       <use xlink:href="#DejaVuSans-31"/>
       <use xlink:href="#DejaVuSans-32" x="63.623047"/>
       <use xlink:href="#DejaVuSans-35" x="127.246094"/>
      </g>
     </g>
    </g>
    <g id="xtick_7">
     <g id="line2d_7">
      <g>
       <use xlink:href="#m01cea88a3b" x="1031.684211" y="320.4" style="stroke: #000000; stroke-width: 0.8"/>
      </g>
     </g>
     <g id="text_7">
      <!-- 150 -->
      <g transform="translate(1022.140461 334.998438) scale(0.1 -0.1)">
       <use xlink:href="#DejaVuSans-31"/>
       <use xlink:href="#DejaVuSans-35" x="63.623047"/>
       <use xlink:href="#DejaVuSans-30" x="127.246094"/>
      </g>
     </g>
    </g>
    <g id="xtick_8">
     <g id="line2d_8">
      <g>
       <use xlink:href="#m01cea88a3b" x="1165.177033" y="320.4" style="stroke: #000000; stroke-width: 0.8"/>
      </g>
     </g>
     <g id="text_8">
      <!-- 175 -->
      <g transform="translate(1155.633283 334.998438) scale(0.1 -0.1)">
       <use xlink:href="#DejaVuSans-31"/>
       <use xlink:href="#DejaVuSans-37" x="63.623047"/>
       <use xlink:href="#DejaVuSans-35" x="127.246094"/>
      </g>
     </g>
    </g>
    <g id="text_9">
     <!-- Amostras -->
     <g transform="translate(714.360937 348.676562) scale(0.1 -0.1)">
      <defs>
       <path id="DejaVuSans-41" d="M 2188 4044 
L 1331 1722 
L 3047 1722 
L 2188 4044 
z
M 1831 4666 
L 2547 4666 
L 4325 0 
L 3669 0 
L 3244 1197 
L 1141 1197 
L 716 0 
L 50 0 
L 1831 4666 
z
" transform="scale(0.015625)"/>
       <path id="DejaVuSans-6d" d="M 3328 2828 
Q 3544 3216 3844 3400 
Q 4144 3584 4550 3584 
Q 5097 3584 5394 3201 
Q 5691 2819 5691 2113 
L 5691 0 
L 5113 0 
L 5113 2094 
Q 5113 2597 4934 2840 
Q 4756 3084 4391 3084 
Q 3944 3084 3684 2787 
Q 3425 2491 3425 1978 
L 3425 0 
L 2847 0 
L 2847 2094 
Q 2847 2600 2669 2842 
Q 2491 3084 2119 3084 
Q 1678 3084 1418 2786 
Q 1159 2488 1159 1978 
L 1159 0 
L 581 0 
L 581 3500 
L 1159 3500 
L 1159 2956 
Q 1356 3278 1631 3431 
Q 1906 3584 2284 3584 
Q 2666 3584 2933 3390 
Q 3200 3197 3328 2828 
z
" transform="scale(0.015625)"/>
       <path id="DejaVuSans-6f" d="M 1959 3097 
Q 1497 3097 1228 2736 
Q 959 2375 959 1747 
Q 959 1119 1226 758 
Q 1494 397 1959 397 
Q 2419 397 2687 759 
Q 2956 1122 2956 1747 
Q 2956 2369 2687 2733 
Q 2419 3097 1959 3097 
z
M 1959 3584 
Q 2709 3584 3137 3096 
Q 3566 2609 3566 1747 
Q 3566 888 3137 398 
Q 2709 -91 1959 -91 
Q 1206 -91 779 398 
Q 353 888 353 1747 
Q 353 2609 779 3096 
Q 1206 3584 1959 3584 
z
" transform="scale(0.015625)"/>
       <path id="DejaVuSans-73" d="M 2834 3397 
L 2834 2853 
Q 2591 2978 2328 3040 
Q 2066 3103 1784 3103 
Q 1356 3103 1142 2972 
Q 928 2841 928 2578 
Q 928 2378 1081 2264 
Q 1234 2150 1697 2047 
L 1894 2003 
Q 2506 1872 2764 1633 
Q 3022 1394 3022 966 
Q 3022 478 2636 193 
Q 2250 -91 1575 -91 
Q 1294 -91 989 -36 
Q 684 19 347 128 
L 347 722 
Q 666 556 975 473 
Q 1284 391 1588 391 
Q 1994 391 2212 530 
Q 2431 669 2431 922 
Q 2431 1156 2273 1281 
Q 2116 1406 1581 1522 
L 1381 1569 
Q 847 1681 609 1914 
Q 372 2147 372 2553 
Q 372 3047 722 3315 
Q 1072 3584 1716 3584 
Q 2034 3584 2315 3537 
Q 2597 3491 2834 3397 
z
" transform="scale(0.015625)"/>
       <path id="DejaVuSans-74" d="M 1172 4494 
L 1172 3500 
L 2356 3500 
L 2356 3053 
L 1172 3053 
L 1172 1153 
Q 1172 725 1289 603 
Q 1406 481 1766 481 
L 2356 481 
L 2356 0 
L 1766 0 
Q 1100 0 847 248 
Q 594 497 594 1153 
L 594 3053 
L 172 3053 
L 172 3500 
L 594 3500 
L 594 4494 
L 1172 4494 
z
" transform="scale(0.015625)"/>
       <path id="DejaVuSans-72" d="M 2631 2963 
Q 2534 3019 2420 3045 
Q 2306 3072 2169 3072 
Q 1681 3072 1420 2755 
Q 1159 2438 1159 1844 
L 1159 0 
L 581 0 
L 581 3500 
L 1159 3500 
L 1159 2956 
Q 1341 3275 1631 3429 
Q 1922 3584 2338 3584 
Q 2397 3584 2469 3576 
Q 2541 3569 2628 3553 
L 2631 2963 
z
" transform="scale(0.015625)"/>
       <path id="DejaVuSans-61" d="M 2194 1759 
Q 1497 1759 1228 1600 
Q 959 1441 959 1056 
Q 959 750 1161 570 
Q 1363 391 1709 391 
Q 2188 391 2477 730 
Q 2766 1069 2766 1631 
L 2766 1759 
L 2194 1759 
z
M 3341 1997 
L 3341 0 
L 2766 0 
L 2766 531 
Q 2569 213 2275 61 
Q 1981 -91 1556 -91 
Q 1019 -91 701 211 
Q 384 513 384 1019 
Q 384 1609 779 1909 
Q 1175 2209 1959 2209 
L 2766 2209 
L 2766 2266 
Q 2766 2663 2505 2880 
Q 2244 3097 1772 3097 
Q 1472 3097 1187 3025 
Q 903 2953 641 2809 
L 641 3341 
Q 956 3463 1253 3523 
Q 1550 3584 1831 3584 
Q 2591 3584 2966 3190 
Q 3341 2797 3341 1997 
z
" transform="scale(0.015625)"/>
      </defs>
      <use xlink:href="#DejaVuSans-41"/>
      <use xlink:href="#DejaVuSans-6d" x="68.408203"/>
      <use xlink:href="#DejaVuSans-6f" x="165.820312"/>
      <use xlink:href="#DejaVuSans-73" x="227.001953"/>
      <use xlink:href="#DejaVuSans-74" x="279.101562"/>
      <use xlink:href="#DejaVuSans-72" x="318.310547"/>
      <use xlink:href="#DejaVuSans-61" x="359.423828"/>
      <use xlink:href="#DejaVuSans-73" x="420.703125"/>
     </g>
    </g>
   </g>
   <g id="matplotlib.axis_2">
    <g id="ytick_1">
     <g id="line2d_9">
      <defs>
       <path id="md76629c639" d="M 0 0 
L -3.5 0 
" style="stroke: #000000; stroke-width: 0.8"/>
      </defs>
      <g>
       <use xlink:href="#md76629c639" x="180" y="295.981542" style="stroke: #000000; stroke-width: 0.8"/>
      </g>
     </g>
     <g id="text_10">
      <!-- 2 -->
      <g transform="translate(166.6375 299.780761) scale(0.1 -0.1)">
       <use xlink:href="#DejaVuSans-32"/>
      </g>
     </g>
    </g>
    <g id="ytick_2">
     <g id="line2d_10">
      <g>
       <use xlink:href="#md76629c639" x="180" y="260.21899" style="stroke: #000000; stroke-width: 0.8"/>
      </g>
     </g>
     <g id="text_11">
      <!-- 4 -->
      <g transform="translate(166.6375 264.018209) scale(0.1 -0.1)">
       <defs>
        <path id="DejaVuSans-34" d="M 2419 4116 
L 825 1625 
L 2419 1625 
L 2419 4116 
z
M 2253 4666 
L 3047 4666 
L 3047 1625 
L 3713 1625 
L 3713 1100 
L 3047 1100 
L 3047 0 
L 2419 0 
L 2419 1100 
L 313 1100 
L 313 1709 
L 2253 4666 
z
" transform="scale(0.015625)"/>
       </defs>
       <use xlink:href="#DejaVuSans-34"/>
      </g>
     </g>
    </g>
    <g id="ytick_3">
     <g id="line2d_11">
      <g>
       <use xlink:href="#md76629c639" x="180" y="224.456438" style="stroke: #000000; stroke-width: 0.8"/>
      </g>
     </g>
     <g id="text_12">
      <!-- 6 -->
      <g transform="translate(166.6375 228.255656) scale(0.1 -0.1)">
       <defs>
        <path id="DejaVuSans-36" d="M 2113 2584 
Q 1688 2584 1439 2293 
Q 1191 2003 1191 1497 
Q 1191 994 1439 701 
Q 1688 409 2113 409 
Q 2538 409 2786 701 
Q 3034 994 3034 1497 
Q 3034 2003 2786 2293 
Q 2538 2584 2113 2584 
z
M 3366 4563 
L 3366 3988 
Q 3128 4100 2886 4159 
Q 2644 4219 2406 4219 
Q 1781 4219 1451 3797 
Q 1122 3375 1075 2522 
Q 1259 2794 1537 2939 
Q 1816 3084 2150 3084 
Q 2853 3084 3261 2657 
Q 3669 2231 3669 1497 
Q 3669 778 3244 343 
Q 2819 -91 2113 -91 
Q 1303 -91 875 529 
Q 447 1150 447 2328 
Q 447 3434 972 4092 
Q 1497 4750 2381 4750 
Q 2619 4750 2861 4703 
Q 3103 4656 3366 4563 
z
" transform="scale(0.015625)"/>
       </defs>
       <use xlink:href="#DejaVuSans-36"/>
      </g>
     </g>
    </g>
    <g id="ytick_4">
     <g id="line2d_12">
      <g>
       <use xlink:href="#md76629c639" x="180" y="188.693886" style="stroke: #000000; stroke-width: 0.8"/>
      </g>
     </g>
     <g id="text_13">
      <!-- 8 -->
      <g transform="translate(166.6375 192.493104) scale(0.1 -0.1)">
       <defs>
        <path id="DejaVuSans-38" d="M 2034 2216 
Q 1584 2216 1326 1975 
Q 1069 1734 1069 1313 
Q 1069 891 1326 650 
Q 1584 409 2034 409 
Q 2484 409 2743 651 
Q 3003 894 3003 1313 
Q 3003 1734 2745 1975 
Q 2488 2216 2034 2216 
z
M 1403 2484 
Q 997 2584 770 2862 
Q 544 3141 544 3541 
Q 544 4100 942 4425 
Q 1341 4750 2034 4750 
Q 2731 4750 3128 4425 
Q 3525 4100 3525 3541 
Q 3525 3141 3298 2862 
Q 3072 2584 2669 2484 
Q 3125 2378 3379 2068 
Q 3634 1759 3634 1313 
Q 3634 634 3220 271 
Q 2806 -91 2034 -91 
Q 1263 -91 848 271 
Q 434 634 434 1313 
Q 434 1759 690 2068 
Q 947 2378 1403 2484 
z
M 1172 3481 
Q 1172 3119 1398 2916 
Q 1625 2713 2034 2713 
Q 2441 2713 2670 2916 
Q 2900 3119 2900 3481 
Q 2900 3844 2670 4047 
Q 2441 4250 2034 4250 
Q 1625 4250 1398 4047 
Q 1172 3844 1172 3481 
z
" transform="scale(0.015625)"/>
       </defs>
       <use xlink:href="#DejaVuSans-38"/>
      </g>
     </g>
    </g>
    <g id="ytick_5">
     <g id="line2d_13">
      <g>
       <use xlink:href="#md76629c639" x="180" y="152.931333" style="stroke: #000000; stroke-width: 0.8"/>
      </g>
     </g>
     <g id="text_14">
      <!-- 10 -->
      <g transform="translate(160.275 156.730552) scale(0.1 -0.1)">
       <use xlink:href="#DejaVuSans-31"/>
       <use xlink:href="#DejaVuSans-30" x="63.623047"/>
      </g>
     </g>
    </g>
    <g id="ytick_6">
     <g id="line2d_14">
      <g>
       <use xlink:href="#md76629c639" x="180" y="117.168781" style="stroke: #000000; stroke-width: 0.8"/>
      </g>
     </g>
     <g id="text_15">
      <!-- 12 -->
      <g transform="translate(160.275 120.968) scale(0.1 -0.1)">
       <use xlink:href="#DejaVuSans-31"/>
       <use xlink:href="#DejaVuSans-32" x="63.623047"/>
      </g>
     </g>
    </g>
    <g id="ytick_7">
     <g id="line2d_15">
      <g>
       <use xlink:href="#md76629c639" x="180" y="81.406229" style="stroke: #000000; stroke-width: 0.8"/>
      </g>
     </g>
     <g id="text_16">
      <!-- 14 -->
      <g transform="translate(160.275 85.205448) scale(0.1 -0.1)">
       <use xlink:href="#DejaVuSans-31"/>
       <use xlink:href="#DejaVuSans-34" x="63.623047"/>
      </g>
     </g>
    </g>
    <g id="ytick_8">
     <g id="line2d_16">
      <g>
       <use xlink:href="#md76629c639" x="180" y="45.643677" style="stroke: #000000; stroke-width: 0.8"/>
      </g>
     </g>
     <g id="text_17">
      <!-- 16 -->
      <g transform="translate(160.275 49.442896) scale(0.1 -0.1)">
       <use xlink:href="#DejaVuSans-31"/>
       <use xlink:href="#DejaVuSans-36" x="63.623047"/>
      </g>
     </g>
    </g>
    <g id="text_18">
     <!-- Velocidade do Vento (m/s) -->
     <g transform="translate(154.195312 247.344531) rotate(-90) scale(0.1 -0.1)">
      <defs>
       <path id="DejaVuSans-56" d="M 1831 0 
L 50 4666 
L 709 4666 
L 2188 738 
L 3669 4666 
L 4325 4666 
L 2547 0 
L 1831 0 
z
" transform="scale(0.015625)"/>
       <path id="DejaVuSans-65" d="M 3597 1894 
L 3597 1613 
L 953 1613 
Q 991 1019 1311 708 
Q 1631 397 2203 397 
Q 2534 397 2845 478 
Q 3156 559 3463 722 
L 3463 178 
Q 3153 47 2828 -22 
Q 2503 -91 2169 -91 
Q 1331 -91 842 396 
Q 353 884 353 1716 
Q 353 2575 817 3079 
Q 1281 3584 2069 3584 
Q 2775 3584 3186 3129 
Q 3597 2675 3597 1894 
z
M 3022 2063 
Q 3016 2534 2758 2815 
Q 2500 3097 2075 3097 
Q 1594 3097 1305 2825 
Q 1016 2553 972 2059 
L 3022 2063 
z
" transform="scale(0.015625)"/>
       <path id="DejaVuSans-6c" d="M 603 4863 
L 1178 4863 
L 1178 0 
L 603 0 
L 603 4863 
z
" transform="scale(0.015625)"/>
       <path id="DejaVuSans-63" d="M 3122 3366 
L 3122 2828 
Q 2878 2963 2633 3030 
Q 2388 3097 2138 3097 
Q 1578 3097 1268 2742 
Q 959 2388 959 1747 
Q 959 1106 1268 751 
Q 1578 397 2138 397 
Q 2388 397 2633 464 
Q 2878 531 3122 666 
L 3122 134 
Q 2881 22 2623 -34 
Q 2366 -91 2075 -91 
Q 1284 -91 818 406 
Q 353 903 353 1747 
Q 353 2603 823 3093 
Q 1294 3584 2113 3584 
Q 2378 3584 2631 3529 
Q 2884 3475 3122 3366 
z
" transform="scale(0.015625)"/>
       <path id="DejaVuSans-69" d="M 603 3500 
L 1178 3500 
L 1178 0 
L 603 0 
L 603 3500 
z
M 603 4863 
L 1178 4863 
L 1178 4134 
L 603 4134 
L 603 4863 
z
" transform="scale(0.015625)"/>
       <path id="DejaVuSans-64" d="M 2906 2969 
L 2906 4863 
L 3481 4863 
L 3481 0 
L 2906 0 
L 2906 525 
Q 2725 213 2448 61 
Q 2172 -91 1784 -91 
Q 1150 -91 751 415 
Q 353 922 353 1747 
Q 353 2572 751 3078 
Q 1150 3584 1784 3584 
Q 2172 3584 2448 3432 
Q 2725 3281 2906 2969 
z
M 947 1747 
Q 947 1113 1208 752 
Q 1469 391 1925 391 
Q 2381 391 2643 752 
Q 2906 1113 2906 1747 
Q 2906 2381 2643 2742 
Q 2381 3103 1925 3103 
Q 1469 3103 1208 2742 
Q 947 2381 947 1747 
z
" transform="scale(0.015625)"/>
       <path id="DejaVuSans-20" transform="scale(0.015625)"/>
       <path id="DejaVuSans-6e" d="M 3513 2113 
L 3513 0 
L 2938 0 
L 2938 2094 
Q 2938 2591 2744 2837 
Q 2550 3084 2163 3084 
Q 1697 3084 1428 2787 
Q 1159 2491 1159 1978 
L 1159 0 
L 581 0 
L 581 3500 
L 1159 3500 
L 1159 2956 
Q 1366 3272 1645 3428 
Q 1925 3584 2291 3584 
Q 2894 3584 3203 3211 
Q 3513 2838 3513 2113 
z
" transform="scale(0.015625)"/>
       <path id="DejaVuSans-28" d="M 1984 4856 
Q 1566 4138 1362 3434 
Q 1159 2731 1159 2009 
Q 1159 1288 1364 580 
Q 1569 -128 1984 -844 
L 1484 -844 
Q 1016 -109 783 600 
Q 550 1309 550 2009 
Q 550 2706 781 3412 
Q 1013 4119 1484 4856 
L 1984 4856 
z
" transform="scale(0.015625)"/>
       <path id="DejaVuSans-2f" d="M 1625 4666 
L 2156 4666 
L 531 -594 
L 0 -594 
L 1625 4666 
z
" transform="scale(0.015625)"/>
       <path id="DejaVuSans-29" d="M 513 4856 
L 1013 4856 
Q 1481 4119 1714 3412 
Q 1947 2706 1947 2009 
Q 1947 1309 1714 600 
Q 1481 -109 1013 -844 
L 513 -844 
Q 928 -128 1133 580 
Q 1338 1288 1338 2009 
Q 1338 2731 1133 3434 
Q 928 4138 513 4856 
z
" transform="scale(0.015625)"/>
      </defs>
      <use xlink:href="#DejaVuSans-56"/>
      <use xlink:href="#DejaVuSans-65" x="60.658203"/>
      <use xlink:href="#DejaVuSans-6c" x="122.181641"/>
      <use xlink:href="#DejaVuSans-6f" x="149.964844"/>
      <use xlink:href="#DejaVuSans-63" x="211.146484"/>
      <use xlink:href="#DejaVuSans-69" x="266.126953"/>
      <use xlink:href="#DejaVuSans-64" x="293.910156"/>
      <use xlink:href="#DejaVuSans-61" x="357.386719"/>
      <use xlink:href="#DejaVuSans-64" x="418.666016"/>
      <use xlink:href="#DejaVuSans-65" x="482.142578"/>
      <use xlink:href="#DejaVuSans-20" x="543.666016"/>
      <use xlink:href="#DejaVuSans-64" x="575.453125"/>
      <use xlink:href="#DejaVuSans-6f" x="638.929688"/>
      <use xlink:href="#DejaVuSans-20" x="700.111328"/>
      <use xlink:href="#DejaVuSans-56" x="731.898438"/>
      <use xlink:href="#DejaVuSans-65" x="792.556641"/>
      <use xlink:href="#DejaVuSans-6e" x="854.080078"/>
      <use xlink:href="#DejaVuSans-74" x="917.458984"/>
      <use xlink:href="#DejaVuSans-6f" x="956.667969"/>
      <use xlink:href="#DejaVuSans-20" x="1017.849609"/>
      <use xlink:href="#DejaVuSans-28" x="1049.636719"/>
      <use xlink:href="#DejaVuSans-6d" x="1088.650391"/>
      <use xlink:href="#DejaVuSans-2f" x="1186.0625"/>
      <use xlink:href="#DejaVuSans-73" x="1219.753906"/>
      <use xlink:href="#DejaVuSans-29" x="1271.853516"/>
     </g>
    </g>
   </g>
   <g id="line2d_17">
    <path d="M 230.727273 133.517734 
L 236.066986 168.378459 
L 241.406699 178.343074 
L 246.746411 172.217514 
L 252.086124 182.424979 
L 257.425837 176.10476 
L 262.76555 174.013305 
L 268.105263 166.638431 
L 273.444976 162.922755 
L 278.784689 167.625488 
L 284.124402 187.395732 
L 289.464115 197.566926 
L 294.803828 237.20859 
L 300.143541 224.657031 
L 305.483254 233.215974 
L 310.822967 247.336486 
L 316.162679 249.428469 
L 321.502392 256.946715 
L 326.842105 264.002891 
L 332.181818 260.620978 
L 337.521531 250.072029 
L 342.861244 238.183743 
L 348.200957 193.654919 
L 353.54067 155.409258 
L 358.880383 129.529006 
L 364.220096 113.480065 
L 369.559809 110.931831 
L 374.899522 110.344853 
L 380.239234 108.601892 
L 385.578947 125.359159 
L 390.91866 142.618754 
L 396.258373 167.500303 
L 401.598086 172.952699 
L 406.937799 173.847806 
L 412.277512 165.708655 
L 417.617225 151.432536 
L 422.956938 187.348718 
L 428.296651 203.510975 
L 433.636364 198.395911 
L 438.976077 194.56314 
L 449.655502 182.847533 
L 454.995215 200.928678 
L 460.334928 209.23071 
L 465.674641 193.356442 
L 471.014354 188.429651 
L 476.354067 184.629375 
L 481.69378 171.416538 
L 487.033493 122.851085 
L 492.373206 101.986095 
L 497.712919 100.554025 
L 503.052632 109.694455 
L 508.392344 116.197055 
L 513.732057 111.00625 
L 519.07177 113.610981 
L 524.411483 118.67457 
L 529.751196 138.79984 
L 535.090909 132.281397 
L 540.430622 151.607601 
L 545.770335 167.545851 
L 551.110048 199.637746 
L 556.449761 201.240499 
L 561.789474 204.372249 
L 567.129187 203.529443 
L 572.4689 219.131921 
L 577.808612 223.792517 
L 583.148325 253.126598 
L 588.488038 213.658123 
L 593.827751 193.62957 
L 599.167464 186.202472 
L 604.507177 152.134638 
L 609.84689 126.05647 
L 615.186603 109.398757 
L 620.526316 95.006235 
L 625.866029 94.606702 
L 636.545455 111.9047 
L 641.885167 107.635981 
L 647.22488 131.339752 
L 652.564593 136.155103 
L 657.904306 141.90584 
L 663.244019 159.878059 
L 668.583732 150.732019 
L 673.923445 159.920982 
L 679.263158 183.37075 
L 684.602871 181.486983 
L 689.942584 181.220906 
L 695.282297 190.000079 
L 700.62201 183.355607 
L 705.961722 199.693313 
L 711.301435 220.481369 
L 716.641148 226.836376 
L 721.980861 202.473569 
L 727.320574 194.778979 
L 732.660287 151.906317 
L 738 120.754395 
L 743.339713 115.529792 
L 748.679426 106.841656 
L 754.019139 100.023679 
L 759.358852 96.444085 
L 764.698565 101.364652 
L 770.038278 105.896396 
L 775.37799 112.658558 
L 780.717703 152.000244 
L 786.057416 166.424298 
L 791.397129 159.722315 
L 796.736842 144.548019 
L 802.076555 152.173451 
L 807.416268 207.750636 
L 812.755981 248.077273 
L 818.095694 251.989288 
L 823.435407 268.993294 
L 828.77512 256.158324 
L 834.114833 228.444858 
L 839.454545 229.53373 
L 844.794258 239.901066 
L 850.133971 223.153382 
L 855.473684 204.493052 
L 860.813397 194.709275 
L 866.15311 165.479942 
L 871.492823 121.65085 
L 876.832536 105.766674 
L 882.172249 114.364037 
L 887.511962 109.082716 
L 892.851675 111.437706 
L 898.191388 118.645956 
L 903.5311 141.883757 
L 908.870813 159.234005 
L 914.210526 149.003161 
L 919.550239 157.83848 
L 924.889952 163.362771 
L 930.229665 157.33917 
L 935.569378 176.678437 
L 940.909091 164.950142 
L 946.248804 181.954762 
L 951.588517 191.574745 
L 956.92823 184.313401 
L 962.267943 192.681326 
L 967.607656 211.06464 
L 972.947368 227.332122 
L 978.287081 214.276155 
L 983.626794 196.967405 
L 988.966507 158.481426 
L 994.30622 123.134027 
L 999.645933 109.531463 
L 1004.985646 123.517496 
L 1010.325359 114.82849 
L 1015.665072 113.207048 
L 1021.004785 120.476774 
L 1026.344498 127.004475 
L 1031.684211 150.107763 
L 1037.023923 162.642064 
L 1042.363636 153.374487 
L 1047.703349 172.684184 
L 1053.043062 180.129691 
L 1058.382775 160.236392 
L 1063.722488 207.920978 
L 1069.062201 209.600476 
L 1074.401914 222.615499 
L 1079.741627 247.656867 
L 1085.08134 240.999623 
L 1090.421053 244.804196 
L 1095.760766 246.751392 
L 1101.100478 213.309374 
L 1106.440191 227.399447 
L 1111.779904 234.983321 
L 1117.119617 210.19911 
L 1122.45933 194.639469 
L 1127.799043 161.735241 
L 1133.138756 124.952106 
L 1138.478469 111.552268 
L 1143.818182 106.258378 
L 1149.157895 111.502729 
L 1154.497608 119.072193 
L 1159.837321 130.251879 
L 1165.177033 123.469406 
L 1170.516746 132.120998 
L 1175.856459 155.593515 
L 1181.196172 168.411082 
L 1186.535885 155.308339 
L 1191.875598 160.358696 
L 1197.215311 169.24103 
L 1202.555024 184.307092 
L 1207.894737 190.443532 
L 1213.23445 209.842082 
L 1218.574163 219.750541 
L 1223.913876 237.987609 
L 1229.253589 238.098803 
L 1234.593301 224.746252 
L 1239.933014 188.534969 
L 1245.272727 150.075618 
L 1245.272727 150.075618 
" clip-path="url(#p39fbe89b85)" style="fill: none; stroke: #0000ff; stroke-width: 1.5; stroke-linecap: square"/>
   </g>
   <g id="line2d_18">
    <path d="M 230.727273 166.014467 
L 236.066986 175.561082 
L 241.406699 158.971231 
L 246.746411 177.59756 
L 252.086124 175.064379 
L 257.425837 171.388784 
L 262.76555 165.060799 
L 268.105263 159.934832 
L 273.444976 167.723122 
L 278.784689 192.935721 
L 284.124402 203.674421 
L 289.464115 224.049142 
L 294.803828 212.7144 
L 300.143541 224.496174 
L 305.483254 240.470114 
L 310.822967 243.750074 
L 316.162679 253.066479 
L 321.502392 263.43762 
L 326.842105 261.748833 
L 332.181818 247.473614 
L 337.521531 236.099135 
L 342.861244 190.382672 
L 348.200957 151.242546 
L 353.54067 124.738521 
L 358.880383 99.873613 
L 364.220096 101.999498 
L 369.559809 102.684947 
L 374.899522 100.628601 
L 380.239234 128.622732 
L 385.578947 147.636489 
L 390.91866 177.299539 
L 396.258373 181.660583 
L 401.598086 183.031481 
L 406.937799 172.074232 
L 412.277512 152.027335 
L 417.617225 172.590803 
L 422.956938 189.756827 
L 428.296651 187.303119 
L 433.636364 185.045277 
L 438.976077 180.884511 
L 444.315789 176.514905 
L 449.655502 198.995487 
L 454.995215 209.634847 
L 460.334928 203.714158 
L 465.674641 210.33023 
L 471.014354 208.303685 
L 476.354067 186.428924 
L 481.69378 124.817994 
L 487.033493 86.124899 
L 492.373206 83.283763 
L 497.712919 101.323983 
L 503.052632 117.476736 
L 508.392344 107.522826 
L 513.732057 102.516068 
L 519.07177 113.960085 
L 524.411483 142.758874 
L 529.751196 127.937283 
L 535.090909 153.825397 
L 540.430622 167.693321 
L 545.770335 182.653988 
L 551.110048 187.45213 
L 556.449761 192.68737 
L 561.789474 192.468822 
L 567.129187 206.22747 
L 572.4689 212.624994 
L 577.808612 245.923903 
L 583.148325 212.883279 
L 588.488038 204.022113 
L 593.827751 201.628009 
L 599.167464 162.55742 
L 604.507177 124.877598 
L 609.84689 97.499377 
L 615.186603 57.912218 
L 620.526316 72.1179 
L 625.866029 84.535453 
L 631.205742 103.390265 
L 636.545455 99.595461 
L 641.885167 135.258672 
L 647.22488 133.182457 
L 652.564593 136.758713 
L 657.904306 155.871809 
L 663.244019 144.179442 
L 668.583732 153.815463 
L 673.923445 164.822383 
L 679.263158 164.236274 
L 684.602871 165.30915 
L 689.942584 175.849169 
L 695.282297 171.69674 
L 700.62201 190.174057 
L 705.961722 212.545521 
L 711.301435 226.810806 
L 716.641148 211.92961 
L 721.980861 215.476064 
L 727.320574 161.136852 
L 732.660287 119.483412 
L 738 110.791125 
L 743.339713 97.946409 
L 748.679426 76.488878 
L 754.019139 82.489041 
L 759.358852 90.826608 
L 764.698565 98.949748 
L 770.038278 108.863922 
L 775.37799 159.765954 
L 780.717703 173.385527 
L 786.057416 157.967893 
L 791.397129 133.371203 
L 796.736842 141.755536 
L 802.076555 189.081313 
L 807.416268 241.086024 
L 812.755981 246.241792 
L 818.095694 251.685648 
L 823.435407 241.165497 
L 828.77512 219.64836 
L 834.114833 223.681583 
L 839.454545 244.086105 
L 844.794258 241.299446 
L 850.133971 224.280725 
L 855.473684 208.323553 
L 860.813397 165.070733 
L 866.15311 108.14867 
L 871.492823 84.197695 
L 876.832536 101.085566 
L 882.172249 94.449627 
L 887.511962 94.092001 
L 892.851675 115.20184 
L 898.191388 147.328534 
L 903.5311 166.203214 
L 908.870813 148.759035 
L 914.210526 163.34221 
L 919.550239 166.19328 
L 924.889952 152.673048 
L 930.229665 157.1235 
L 935.569378 146.742425 
L 940.909091 167.564177 
L 946.248804 179.862522 
L 951.588517 175.3624 
L 956.92823 189.46874 
L 962.267943 208.61164 
L 967.607656 231.12218 
L 972.947368 228.698274 
L 978.287081 210.47924 
L 983.626794 169.501315 
L 988.966507 129.486993 
L 994.30622 106.49962 
L 999.645933 135.785176 
L 1004.985646 119.692027 
L 1010.325359 117.466803 
L 1015.665072 131.285055 
L 1021.004785 138.417697 
L 1026.344498 165.021063 
L 1031.684211 180.895662 
L 1037.023923 170.921884 
L 1042.363636 192.518491 
L 1047.703349 198.061687 
L 1053.043062 171.557663 
L 1058.382775 192.895986 
L 1063.722488 193.352952 
L 1069.062201 209.565308 
L 1074.401914 237.768055 
L 1079.741627 236.794518 
L 1085.08134 244.046369 
L 1090.421053 240.499916 
L 1095.760766 210.966008 
L 1101.100478 238.463437 
L 1106.440191 256.354647 
L 1111.779904 225.916742 
L 1117.119617 210.121615 
L 1122.45933 178.034658 
L 1127.799043 130.241981 
L 1133.138756 112.847472 
L 1138.478469 106.926783 
L 1143.818182 112.857406 
L 1149.157895 112.024168 
L 1154.497608 130.268322 
L 1159.837321 132.248657 
L 1165.177033 143.891355 
L 1170.516746 172.968297 
L 1175.856459 187.015032 
L 1181.196172 152.126676 
L 1186.535885 136.301747 
L 1191.875598 148.381542 
L 1197.215311 167.762858 
L 1202.555024 177.508154 
L 1207.894737 199.194168 
L 1213.23445 211.244162 
L 1218.574163 232.612286 
L 1223.913876 240.191961 
L 1229.253589 238.453503 
L 1234.593301 199.949155 
L 1239.933014 145.768889 
L 1245.272727 110.006337 
L 1245.272727 110.006337 
" clip-path="url(#p39fbe89b85)" style="fill: none; stroke: #ffa500; stroke-width: 1.5; stroke-linecap: square"/>
   </g>
   <g id="patch_3">
    <path d="M 180 320.4 
L 180 43.2 
" style="fill: none; stroke: #000000; stroke-width: 0.8; stroke-linejoin: miter; stroke-linecap: square"/>
   </g>
   <g id="patch_4">
    <path d="M 1296 320.4 
L 1296 43.2 
" style="fill: none; stroke: #000000; stroke-width: 0.8; stroke-linejoin: miter; stroke-linecap: square"/>
   </g>
   <g id="patch_5">
    <path d="M 180 320.4 
L 1296 320.4 
" style="fill: none; stroke: #000000; stroke-width: 0.8; stroke-linejoin: miter; stroke-linecap: square"/>
   </g>
   <g id="patch_6">
    <path d="M 180 43.2 
L 1296 43.2 
" style="fill: none; stroke: #000000; stroke-width: 0.8; stroke-linejoin: miter; stroke-linecap: square"/>
   </g>
   <g id="text_19">
    <!-- Previsão do vento para 1 hora(s) à frente com 2 camadas -->
    <g transform="translate(564.882187 37.2) scale(0.12 -0.12)">
     <defs>
      <path id="DejaVuSans-50" d="M 1259 4147 
L 1259 2394 
L 2053 2394 
Q 2494 2394 2734 2622 
Q 2975 2850 2975 3272 
Q 2975 3691 2734 3919 
Q 2494 4147 2053 4147 
L 1259 4147 
z
M 628 4666 
L 2053 4666 
Q 2838 4666 3239 4311 
Q 3641 3956 3641 3272 
Q 3641 2581 3239 2228 
Q 2838 1875 2053 1875 
L 1259 1875 
L 1259 0 
L 628 0 
L 628 4666 
z
" transform="scale(0.015625)"/>
      <path id="DejaVuSans-76" d="M 191 3500 
L 800 3500 
L 1894 563 
L 2988 3500 
L 3597 3500 
L 2284 0 
L 1503 0 
L 191 3500 
z
" transform="scale(0.015625)"/>
      <path id="DejaVuSans-e3" d="M 2194 1759 
Q 1497 1759 1228 1600 
Q 959 1441 959 1056 
Q 959 750 1161 570 
Q 1363 391 1709 391 
Q 2188 391 2477 730 
Q 2766 1069 2766 1631 
L 2766 1759 
L 2194 1759 
z
M 3341 1997 
L 3341 0 
L 2766 0 
L 2766 531 
Q 2569 213 2275 61 
Q 1981 -91 1556 -91 
Q 1019 -91 701 211 
Q 384 513 384 1019 
Q 384 1609 779 1909 
Q 1175 2209 1959 2209 
L 2766 2209 
L 2766 2266 
Q 2766 2663 2505 2880 
Q 2244 3097 1772 3097 
Q 1472 3097 1187 3025 
Q 903 2953 641 2809 
L 641 3341 
Q 956 3463 1253 3523 
Q 1550 3584 1831 3584 
Q 2591 3584 2966 3190 
Q 3341 2797 3341 1997 
z
M 1844 4281 
L 1666 4453 
Q 1597 4516 1545 4545 
Q 1494 4575 1453 4575 
Q 1334 4575 1278 4461 
Q 1222 4347 1216 4091 
L 825 4091 
Q 831 4513 990 4742 
Q 1150 4972 1434 4972 
Q 1553 4972 1653 4928 
Q 1753 4884 1869 4781 
L 2047 4609 
Q 2116 4547 2167 4517 
Q 2219 4488 2259 4488 
Q 2378 4488 2434 4602 
Q 2491 4716 2497 4972 
L 2888 4972 
Q 2881 4550 2722 4320 
Q 2563 4091 2278 4091 
Q 2159 4091 2059 4134 
Q 1959 4178 1844 4281 
z
" transform="scale(0.015625)"/>
      <path id="DejaVuSans-70" d="M 1159 525 
L 1159 -1331 
L 581 -1331 
L 581 3500 
L 1159 3500 
L 1159 2969 
Q 1341 3281 1617 3432 
Q 1894 3584 2278 3584 
Q 2916 3584 3314 3078 
Q 3713 2572 3713 1747 
Q 3713 922 3314 415 
Q 2916 -91 2278 -91 
Q 1894 -91 1617 61 
Q 1341 213 1159 525 
z
M 3116 1747 
Q 3116 2381 2855 2742 
Q 2594 3103 2138 3103 
Q 1681 3103 1420 2742 
Q 1159 2381 1159 1747 
Q 1159 1113 1420 752 
Q 1681 391 2138 391 
Q 2594 391 2855 752 
Q 3116 1113 3116 1747 
z
" transform="scale(0.015625)"/>
      <path id="DejaVuSans-68" d="M 3513 2113 
L 3513 0 
L 2938 0 
L 2938 2094 
Q 2938 2591 2744 2837 
Q 2550 3084 2163 3084 
Q 1697 3084 1428 2787 
Q 1159 2491 1159 1978 
L 1159 0 
L 581 0 
L 581 4863 
L 1159 4863 
L 1159 2956 
Q 1366 3272 1645 3428 
Q 1925 3584 2291 3584 
Q 2894 3584 3203 3211 
Q 3513 2838 3513 2113 
z
" transform="scale(0.015625)"/>
      <path id="DejaVuSans-e0" d="M 2194 1759 
Q 1497 1759 1228 1600 
Q 959 1441 959 1056 
Q 959 750 1161 570 
Q 1363 391 1709 391 
Q 2188 391 2477 730 
Q 2766 1069 2766 1631 
L 2766 1759 
L 2194 1759 
z
M 3341 1997 
L 3341 0 
L 2766 0 
L 2766 531 
Q 2569 213 2275 61 
Q 1981 -91 1556 -91 
Q 1019 -91 701 211 
Q 384 513 384 1019 
Q 384 1609 779 1909 
Q 1175 2209 1959 2209 
L 2766 2209 
L 2766 2266 
Q 2766 2663 2505 2880 
Q 2244 3097 1772 3097 
Q 1472 3097 1187 3025 
Q 903 2953 641 2809 
L 641 3341 
Q 956 3463 1253 3523 
Q 1550 3584 1831 3584 
Q 2591 3584 2966 3190 
Q 3341 2797 3341 1997 
z
M 1403 5119 
L 2284 3950 
L 1806 3950 
L 788 5119 
L 1403 5119 
z
" transform="scale(0.015625)"/>
      <path id="DejaVuSans-66" d="M 2375 4863 
L 2375 4384 
L 1825 4384 
Q 1516 4384 1395 4259 
Q 1275 4134 1275 3809 
L 1275 3500 
L 2222 3500 
L 2222 3053 
L 1275 3053 
L 1275 0 
L 697 0 
L 697 3053 
L 147 3053 
L 147 3500 
L 697 3500 
L 697 3744 
Q 697 4328 969 4595 
Q 1241 4863 1831 4863 
L 2375 4863 
z
" transform="scale(0.015625)"/>
     </defs>
     <use xlink:href="#DejaVuSans-50"/>
     <use xlink:href="#DejaVuSans-72" x="58.552734"/>
     <use xlink:href="#DejaVuSans-65" x="97.416016"/>
     <use xlink:href="#DejaVuSans-76" x="158.939453"/>
     <use xlink:href="#DejaVuSans-69" x="218.119141"/>
     <use xlink:href="#DejaVuSans-73" x="245.902344"/>
     <use xlink:href="#DejaVuSans-e3" x="298.001953"/>
     <use xlink:href="#DejaVuSans-6f" x="359.28125"/>
     <use xlink:href="#DejaVuSans-20" x="420.462891"/>
     <use xlink:href="#DejaVuSans-64" x="452.25"/>
     <use xlink:href="#DejaVuSans-6f" x="515.726562"/>
     <use xlink:href="#DejaVuSans-20" x="576.908203"/>
     <use xlink:href="#DejaVuSans-76" x="608.695312"/>
     <use xlink:href="#DejaVuSans-65" x="667.875"/>
     <use xlink:href="#DejaVuSans-6e" x="729.398438"/>
     <use xlink:href="#DejaVuSans-74" x="792.777344"/>
     <use xlink:href="#DejaVuSans-6f" x="831.986328"/>
     <use xlink:href="#DejaVuSans-20" x="893.167969"/>
     <use xlink:href="#DejaVuSans-70" x="924.955078"/>
     <use xlink:href="#DejaVuSans-61" x="988.431641"/>
     <use xlink:href="#DejaVuSans-72" x="1049.710938"/>
     <use xlink:href="#DejaVuSans-61" x="1090.824219"/>
     <use xlink:href="#DejaVuSans-20" x="1152.103516"/>
     <use xlink:href="#DejaVuSans-31" x="1183.890625"/>
     <use xlink:href="#DejaVuSans-20" x="1247.513672"/>
     <use xlink:href="#DejaVuSans-68" x="1279.300781"/>
     <use xlink:href="#DejaVuSans-6f" x="1342.679688"/>
     <use xlink:href="#DejaVuSans-72" x="1403.861328"/>
     <use xlink:href="#DejaVuSans-61" x="1444.974609"/>
     <use xlink:href="#DejaVuSans-28" x="1506.253906"/>
     <use xlink:href="#DejaVuSans-73" x="1545.267578"/>
     <use xlink:href="#DejaVuSans-29" x="1597.367188"/>
     <use xlink:href="#DejaVuSans-20" x="1636.380859"/>
     <use xlink:href="#DejaVuSans-e0" x="1668.167969"/>
     <use xlink:href="#DejaVuSans-20" x="1729.447266"/>
     <use xlink:href="#DejaVuSans-66" x="1761.234375"/>
     <use xlink:href="#DejaVuSans-72" x="1796.439453"/>
     <use xlink:href="#DejaVuSans-65" x="1835.302734"/>
     <use xlink:href="#DejaVuSans-6e" x="1896.826172"/>
     <use xlink:href="#DejaVuSans-74" x="1960.205078"/>
     <use xlink:href="#DejaVuSans-65" x="1999.414062"/>
     <use xlink:href="#DejaVuSans-20" x="2060.9375"/>
     <use xlink:href="#DejaVuSans-63" x="2092.724609"/>
     <use xlink:href="#DejaVuSans-6f" x="2147.705078"/>
     <use xlink:href="#DejaVuSans-6d" x="2208.886719"/>
     <use xlink:href="#DejaVuSans-20" x="2306.298828"/>
     <use xlink:href="#DejaVuSans-32" x="2338.085938"/>
     <use xlink:href="#DejaVuSans-20" x="2401.708984"/>
     <use xlink:href="#DejaVuSans-63" x="2433.496094"/>
     <use xlink:href="#DejaVuSans-61" x="2488.476562"/>
     <use xlink:href="#DejaVuSans-6d" x="2549.755859"/>
     <use xlink:href="#DejaVuSans-61" x="2647.167969"/>
     <use xlink:href="#DejaVuSans-64" x="2708.447266"/>
     <use xlink:href="#DejaVuSans-61" x="2771.923828"/>
     <use xlink:href="#DejaVuSans-73" x="2833.203125"/>
    </g>
   </g>
   <g id="legend_1">
    <g id="patch_7">
     <path d="M 1217.86875 80.55625 
L 1289 80.55625 
Q 1291 80.55625 1291 78.55625 
L 1291 50.2 
Q 1291 48.2 1289 48.2 
L 1217.86875 48.2 
Q 1215.86875 48.2 1215.86875 50.2 
L 1215.86875 78.55625 
Q 1215.86875 80.55625 1217.86875 80.55625 
z
" style="fill: #ffffff; opacity: 0.8; stroke: #cccccc; stroke-linejoin: miter"/>
    </g>
    <g id="line2d_19">
     <path d="M 1219.86875 56.298437 
L 1229.86875 56.298437 
L 1239.86875 56.298437 
" style="fill: none; stroke: #0000ff; stroke-width: 1.5; stroke-linecap: square"/>
    </g>
    <g id="text_20">
     <!-- Predito -->
     <g transform="translate(1247.86875 59.798437) scale(0.1 -0.1)">
      <use xlink:href="#DejaVuSans-50"/>
      <use xlink:href="#DejaVuSans-72" x="58.552734"/>
      <use xlink:href="#DejaVuSans-65" x="97.416016"/>
      <use xlink:href="#DejaVuSans-64" x="158.939453"/>
      <use xlink:href="#DejaVuSans-69" x="222.416016"/>
      <use xlink:href="#DejaVuSans-74" x="250.199219"/>
      <use xlink:href="#DejaVuSans-6f" x="289.408203"/>
     </g>
    </g>
    <g id="line2d_20">
     <path d="M 1219.86875 70.976562 
L 1229.86875 70.976562 
L 1239.86875 70.976562 
" style="fill: none; stroke: #ffa500; stroke-width: 1.5; stroke-linecap: square"/>
    </g>
    <g id="text_21">
     <!-- Original -->
     <g transform="translate(1247.86875 74.476562) scale(0.1 -0.1)">
      <defs>
       <path id="DejaVuSans-4f" d="M 2522 4238 
Q 1834 4238 1429 3725 
Q 1025 3213 1025 2328 
Q 1025 1447 1429 934 
Q 1834 422 2522 422 
Q 3209 422 3611 934 
Q 4013 1447 4013 2328 
Q 4013 3213 3611 3725 
Q 3209 4238 2522 4238 
z
M 2522 4750 
Q 3503 4750 4090 4092 
Q 4678 3434 4678 2328 
Q 4678 1225 4090 567 
Q 3503 -91 2522 -91 
Q 1538 -91 948 565 
Q 359 1222 359 2328 
Q 359 3434 948 4092 
Q 1538 4750 2522 4750 
z
" transform="scale(0.015625)"/>
       <path id="DejaVuSans-67" d="M 2906 1791 
Q 2906 2416 2648 2759 
Q 2391 3103 1925 3103 
Q 1463 3103 1205 2759 
Q 947 2416 947 1791 
Q 947 1169 1205 825 
Q 1463 481 1925 481 
Q 2391 481 2648 825 
Q 2906 1169 2906 1791 
z
M 3481 434 
Q 3481 -459 3084 -895 
Q 2688 -1331 1869 -1331 
Q 1566 -1331 1297 -1286 
Q 1028 -1241 775 -1147 
L 775 -588 
Q 1028 -725 1275 -790 
Q 1522 -856 1778 -856 
Q 2344 -856 2625 -561 
Q 2906 -266 2906 331 
L 2906 616 
Q 2728 306 2450 153 
Q 2172 0 1784 0 
Q 1141 0 747 490 
Q 353 981 353 1791 
Q 353 2603 747 3093 
Q 1141 3584 1784 3584 
Q 2172 3584 2450 3431 
Q 2728 3278 2906 2969 
L 2906 3500 
L 3481 3500 
L 3481 434 
z
" transform="scale(0.015625)"/>
      </defs>
      <use xlink:href="#DejaVuSans-4f"/>
      <use xlink:href="#DejaVuSans-72" x="78.710938"/>
      <use xlink:href="#DejaVuSans-69" x="119.824219"/>
      <use xlink:href="#DejaVuSans-67" x="147.607422"/>
      <use xlink:href="#DejaVuSans-69" x="211.083984"/>
      <use xlink:href="#DejaVuSans-6e" x="238.867188"/>
      <use xlink:href="#DejaVuSans-61" x="302.246094"/>
      <use xlink:href="#DejaVuSans-6c" x="363.525391"/>
     </g>
    </g>
   </g>
  </g>
 </g>
 <defs>
  <clipPath id="p39fbe89b85">
   <rect x="180" y="43.2" width="1116" height="277.2"/>
  </clipPath>
 </defs>
</svg>
