<?xml version="1.0" encoding="utf-8" standalone="no"?>
<!DOCTYPE svg PUBLIC "-//W3C//DTD SVG 1.1//EN"
  "http://www.w3.org/Graphics/SVG/1.1/DTD/svg11.dtd">
<svg xmlns:xlink="http://www.w3.org/1999/xlink" width="1440pt" height="360pt" viewBox="0 0 1440 360" xmlns="http://www.w3.org/2000/svg" version="1.1">
 <metadata>
  <rdf:RDF xmlns:dc="http://purl.org/dc/elements/1.1/" xmlns:cc="http://creativecommons.org/ns#" xmlns:rdf="http://www.w3.org/1999/02/22-rdf-syntax-ns#">
   <cc:Work>
    <dc:type rdf:resource="http://purl.org/dc/dcmitype/StillImage"/>
    <dc:date>2023-08-20T14:38:29.671398</dc:date>
    <dc:format>image/svg+xml</dc:format>
    <dc:creator>
     <cc:Agent>
      <dc:title>Matplotlib v3.7.1, https://matplotlib.org/</dc:title>
     </cc:Agent>
    </dc:creator>
   </cc:Work>
  </rdf:RDF>
 </metadata>
 <defs>
  <style type="text/css">*{stroke-linejoin: round; stroke-linecap: butt}</style>
 </defs>
 <g id="figure_1">
  <g id="patch_1">
   <path d="M 0 360 
L 1440 360 
L 1440 0 
L 0 0 
z
" style="fill: #ffffff"/>
  </g>
  <g id="axes_1">
   <g id="patch_2">
    <path d="M 180 320.4 
L 1296 320.4 
L 1296 43.2 
L 180 43.2 
z
" style="fill: #ffffff"/>
   </g>
   <g id="PolyCollection_1">
    <defs>
     <path id="m4b803c99d1" d="M 230.727273 -270.195661 
L 230.727273 -183.367724 
L 236.066986 -155.709286 
L 241.406699 -146.154566 
L 246.746411 -154.370088 
L 252.086124 -139.977574 
L 257.425837 -141.95263 
L 262.76555 -142.924636 
L 268.105263 -147.317454 
L 273.444976 -148.094307 
L 278.784689 -141.458699 
L 284.124402 -125.619971 
L 289.464115 -119.060829 
L 294.803828 -74.535459 
L 300.143541 -85.523288 
L 305.483254 -77.251437 
L 310.822967 -65.073666 
L 316.162679 -63.6234 
L 321.502392 -58.254805 
L 326.842105 -52.2 
L 332.181818 -55.453406 
L 337.521531 -68.720368 
L 342.861244 -82.020201 
L 348.200957 -126.592399 
L 353.54067 -162.715091 
L 358.880383 -184.305277 
L 364.220096 -200.312035 
L 369.559809 -198.283261 
L 374.899522 -195.874691 
L 380.239234 -197.08831 
L 385.578947 -178.418344 
L 390.91866 -162.512819 
L 396.258373 -139.707151 
L 401.598086 -134.935293 
L 406.937799 -133.416832 
L 412.277512 -136.949794 
L 417.617225 -143.14352 
L 422.956938 -118.771289 
L 428.296651 -104.459099 
L 433.636364 -108.891046 
L 438.976077 -112.630095 
L 444.315789 -118.456884 
L 449.655502 -123.63022 
L 454.995215 -107.318427 
L 460.334928 -101.57669 
L 465.674641 -118.064714 
L 471.014354 -120.320792 
L 476.354067 -127.982011 
L 481.69378 -145.865158 
L 487.033493 -192.348673 
L 492.373206 -209.959533 
L 497.712919 -205.264439 
L 503.052632 -190.907521 
L 508.392344 -182.209776 
L 513.732057 -183.162516 
L 519.07177 -178.203274 
L 524.411483 -170.856064 
L 529.751196 -154.320359 
L 535.090909 -158.381248 
L 540.430622 -143.341961 
L 545.770335 -133.816667 
L 551.110048 -108.358892 
L 556.449761 -105.016267 
L 561.789474 -101.819911 
L 567.129187 -103.379927 
L 572.4689 -92.094261 
L 577.808612 -88.233008 
L 583.148325 -65.742492 
L 588.488038 -96.716141 
L 593.827751 -117.211001 
L 599.167464 -127.435978 
L 604.507177 -165.806452 
L 609.84689 -194.885335 
L 615.186603 -206.89983 
L 620.526316 -217.372063 
L 625.866029 -214.331011 
L 631.205742 -210.726207 
L 636.545455 -199.400551 
L 641.885167 -194.314447 
L 647.22488 -172.472435 
L 652.564593 -166.46038 
L 657.904306 -157.595536 
L 663.244019 -142.61547 
L 668.583732 -146.201184 
L 673.923445 -139.186554 
L 679.263158 -120.710977 
L 684.602871 -121.770672 
L 689.942584 -122.772798 
L 695.282297 -114.78908 
L 700.62201 -120.919639 
L 705.961722 -107.739909 
L 711.301435 -90.564515 
L 716.641148 -84.299386 
L 721.980861 -106.608477 
L 727.320574 -113.533115 
L 732.660287 -161.263235 
L 738 -195.290619 
L 743.339713 -199.741744 
L 748.679426 -202.531428 
L 754.019139 -203.783807 
L 759.358852 -205.796673 
L 764.698565 -195.243052 
L 770.038278 -189.064197 
L 775.37799 -179.700289 
L 780.717703 -148.163372 
L 786.057416 -135.39797 
L 791.397129 -139.233646 
L 796.736842 -147.475377 
L 802.076555 -143.328724 
L 807.416268 -96.298799 
L 812.755981 -58.509558 
L 818.095694 -55.667984 
L 823.435407 -52.325139 
L 828.77512 -60.641288 
L 834.114833 -80.988306 
L 839.454545 -79.721275 
L 844.794258 -68.183608 
L 850.133971 -80.198727 
L 855.473684 -99.373724 
L 860.813397 -110.904484 
L 866.15311 -144.787296 
L 871.492823 -187.329841 
L 876.832536 -202.747447 
L 882.172249 -189.574739 
L 887.511962 -190.39893 
L 892.851675 -185.974207 
L 898.191388 -176.363237 
L 903.5311 -156.318758 
L 908.870813 -142.232176 
L 914.210526 -151.182627 
L 919.550239 -140.993069 
L 924.889952 -136.207553 
L 930.229665 -139.16052 
L 935.569378 -120.204284 
L 940.909091 -130.96836 
L 946.248804 -116.669661 
L 951.588517 -109.952763 
L 956.92823 -116.99303 
L 962.267943 -107.891179 
L 967.607656 -91.839376 
L 972.947368 -77.811673 
L 978.287081 -87.150268 
L 983.626794 -104.894019 
L 988.966507 -143.326791 
L 994.30622 -177.716322 
L 999.645933 -188.880048 
L 1004.985646 -176.053368 
L 1010.325359 -183.656499 
L 1015.665072 -181.336577 
L 1021.004785 -172.705962 
L 1026.344498 -164.694119 
L 1031.684211 -145.420991 
L 1037.023923 -135.004692 
L 1042.363636 -140.932864 
L 1047.703349 -126.669374 
L 1053.043062 -121.904266 
L 1058.382775 -132.748209 
L 1063.722488 -91.092961 
L 1069.062201 -92.213046 
L 1074.401914 -81.504517 
L 1079.741627 -62.160179 
L 1085.08134 -65.71855 
L 1090.421053 -62.997492 
L 1095.760766 -65.731725 
L 1101.100478 -91.434963 
L 1106.440191 -76.717515 
L 1111.779904 -67.679517 
L 1117.119617 -93.214179 
L 1122.45933 -108.621071 
L 1127.799043 -137.968452 
L 1133.138756 -170.553806 
L 1138.478469 -181.669895 
L 1143.818182 -185.320719 
L 1149.157895 -178.879034 
L 1154.497608 -172.874784 
L 1159.837321 -160.290473 
L 1165.177033 -160.62917 
L 1170.516746 -153.813561 
L 1175.856459 -136.556498 
L 1181.196172 -127.74351 
L 1186.535885 -139.359119 
L 1191.875598 -137.424494 
L 1197.215311 -130.838369 
L 1202.555024 -116.021938 
L 1207.894737 -109.945028 
L 1213.23445 -93.738626 
L 1218.574163 -86.195269 
L 1223.913876 -72.151859 
L 1229.253589 -70.518234 
L 1234.593301 -78.049954 
L 1239.933014 -111.175408 
L 1245.272727 -151.281469 
L 1245.272727 -238.109406 
L 1245.272727 -238.109406 
L 1239.933014 -198.003345 
L 1234.593301 -164.877891 
L 1229.253589 -157.346171 
L 1223.913876 -158.979796 
L 1218.574163 -173.023197 
L 1213.23445 -180.566562 
L 1207.894737 -196.772974 
L 1202.555024 -202.849875 
L 1197.215311 -217.666305 
L 1191.875598 -224.252431 
L 1186.535885 -226.187056 
L 1181.196172 -214.571446 
L 1175.856459 -223.384435 
L 1170.516746 -240.641498 
L 1165.177033 -247.457107 
L 1159.837321 -247.118409 
L 1154.497608 -259.70272 
L 1149.157895 -265.706971 
L 1143.818182 -272.148655 
L 1138.478469 -268.497832 
L 1133.138756 -257.381743 
L 1127.799043 -224.796389 
L 1122.45933 -195.449016 
L 1117.119617 -180.042116 
L 1111.779904 -154.507453 
L 1106.440191 -163.545452 
L 1101.100478 -178.262899 
L 1095.760766 -152.559662 
L 1090.421053 -149.825429 
L 1085.08134 -152.546487 
L 1079.741627 -148.988116 
L 1074.401914 -168.332445 
L 1069.062201 -179.040982 
L 1063.722488 -177.920897 
L 1058.382775 -219.576146 
L 1053.043062 -208.732203 
L 1047.703349 -213.497311 
L 1042.363636 -227.7608 
L 1037.023923 -221.832628 
L 1031.684211 -232.248928 
L 1026.344498 -251.522056 
L 1021.004785 -259.533899 
L 1015.665072 -268.164513 
L 1010.325359 -270.484436 
L 1004.985646 -262.881305 
L 999.645933 -275.707984 
L 994.30622 -264.544258 
L 988.966507 -230.154727 
L 983.626794 -191.721956 
L 978.287081 -173.978205 
L 972.947368 -164.639609 
L 967.607656 -178.667322 
L 962.267943 -194.719115 
L 956.92823 -203.820967 
L 951.588517 -196.780708 
L 946.248804 -203.497598 
L 940.909091 -217.796297 
L 935.569378 -207.032229 
L 930.229665 -225.988457 
L 924.889952 -223.035489 
L 919.550239 -227.821006 
L 914.210526 -238.010563 
L 908.870813 -229.060113 
L 903.5311 -243.146695 
L 898.191388 -263.191174 
L 892.851675 -272.802144 
L 887.511962 -277.226867 
L 882.172249 -276.402676 
L 876.832536 -289.575383 
L 871.492823 -274.157777 
L 866.15311 -231.615232 
L 860.813397 -197.732429 
L 855.473684 -186.20167 
L 850.133971 -167.026663 
L 844.794258 -155.011544 
L 839.454545 -166.549212 
L 834.114833 -167.816242 
L 828.77512 -147.469225 
L 823.435407 -139.153076 
L 818.095694 -142.49592 
L 812.755981 -145.337495 
L 807.416268 -183.126744 
L 802.076555 -230.156661 
L 796.736842 -234.303314 
L 791.397129 -226.061582 
L 786.057416 -222.225906 
L 780.717703 -234.991308 
L 775.37799 -266.528226 
L 770.038278 -275.892134 
L 764.698565 -282.070989 
L 759.358852 -292.624609 
L 754.019139 -290.611743 
L 748.679426 -289.359364 
L 743.339713 -286.569681 
L 738 -282.118556 
L 732.660287 -248.091171 
L 727.320574 -200.361043 
L 721.980861 -193.436414 
L 716.641148 -171.127314 
L 711.301435 -177.392443 
L 705.961722 -194.567855 
L 700.62201 -207.747576 
L 695.282297 -201.617008 
L 689.942584 -209.600726 
L 684.602871 -208.598608 
L 679.263158 -207.538904 
L 673.923445 -226.01449 
L 668.583732 -233.02912 
L 663.244019 -229.443406 
L 657.904306 -244.423473 
L 652.564593 -253.288317 
L 647.22488 -259.300372 
L 641.885167 -281.142383 
L 636.545455 -286.228487 
L 631.205742 -297.554144 
L 625.866029 -301.158948 
L 620.526316 -304.2 
L 615.186603 -293.727767 
L 609.84689 -281.713272 
L 604.507177 -252.634389 
L 599.167464 -214.263915 
L 593.827751 -204.038937 
L 588.488038 -183.544087 
L 583.148325 -152.570428 
L 577.808612 -175.060936 
L 572.4689 -178.922206 
L 567.129187 -190.207855 
L 561.789474 -188.647857 
L 556.449761 -191.844213 
L 551.110048 -195.186819 
L 545.770335 -220.644603 
L 540.430622 -230.169897 
L 535.090909 -245.209184 
L 529.751196 -241.148296 
L 524.411483 -257.684001 
L 519.07177 -265.031211 
L 513.732057 -269.990452 
L 508.392344 -269.037712 
L 503.052632 -277.735458 
L 497.712919 -292.092376 
L 492.373206 -296.787469 
L 487.033493 -279.176609 
L 481.69378 -232.693095 
L 476.354067 -214.809948 
L 471.014354 -207.148738 
L 465.674641 -204.892642 
L 460.334928 -188.404627 
L 454.995215 -194.146364 
L 449.655502 -210.458157 
L 444.315789 -205.284812 
L 438.976077 -199.458032 
L 433.636364 -195.718983 
L 428.296651 -191.287035 
L 422.956938 -205.599216 
L 417.617225 -229.971457 
L 412.277512 -223.77773 
L 406.937799 -220.244769 
L 401.598086 -221.763229 
L 396.258373 -226.535087 
L 390.91866 -249.340755 
L 385.578947 -265.24628 
L 380.239234 -283.916246 
L 374.899522 -282.702628 
L 369.559809 -285.111197 
L 364.220096 -287.139972 
L 358.880383 -271.133213 
L 353.54067 -249.543028 
L 348.200957 -213.420336 
L 342.861244 -168.848137 
L 337.521531 -155.548304 
L 332.181818 -142.281343 
L 326.842105 -139.027937 
L 321.502392 -145.082742 
L 316.162679 -150.451337 
L 310.822967 -151.901603 
L 305.483254 -164.079373 
L 300.143541 -172.351216 
L 294.803828 -161.363395 
L 289.464115 -205.888765 
L 284.124402 -212.447908 
L 278.784689 -228.286635 
L 273.444976 -234.922243 
L 268.105263 -234.145391 
L 262.76555 -229.752572 
L 257.425837 -228.780566 
L 252.086124 -226.805511 
L 246.746411 -241.198025 
L 241.406699 -232.982503 
L 236.066986 -242.537222 
L 230.727273 -270.195661 
z
" style="stroke: #0000ff; stroke-opacity: 0.05"/>
    </defs>
    <g clip-path="url(#p6cc3875e00)">
     <use xlink:href="#m4b803c99d1" x="0" y="360" style="fill: #0000ff; fill-opacity: 0.05; stroke: #0000ff; stroke-opacity: 0.05"/>
    </g>
   </g>
   <g id="matplotlib.axis_1">
    <g id="xtick_1">
     <g id="line2d_1">
      <defs>
       <path id="m8be910b664" d="M 0 0 
L 0 3.5 
" style="stroke: #000000; stroke-width: 0.8"/>
      </defs>
      <g>
       <use xlink:href="#m8be910b664" x="230.727273" y="320.4" style="stroke: #000000; stroke-width: 0.8"/>
      </g>
     </g>
     <g id="text_1">
      <!-- 0 -->
      <g transform="translate(227.546023 334.998438) scale(0.1 -0.1)">
       <defs>
        <path id="DejaVuSans-30" d="M 2034 4250 
Q 1547 4250 1301 3770 
Q 1056 3291 1056 2328 
Q 1056 1369 1301 889 
Q 1547 409 2034 409 
Q 2525 409 2770 889 
Q 3016 1369 3016 2328 
Q 3016 3291 2770 3770 
Q 2525 4250 2034 4250 
z
M 2034 4750 
Q 2819 4750 3233 4129 
Q 3647 3509 3647 2328 
Q 3647 1150 3233 529 
Q 2819 -91 2034 -91 
Q 1250 -91 836 529 
Q 422 1150 422 2328 
Q 422 3509 836 4129 
Q 1250 4750 2034 4750 
z
" transform="scale(0.015625)"/>
       </defs>
       <use xlink:href="#DejaVuSans-30"/>
      </g>
     </g>
    </g>
    <g id="xtick_2">
     <g id="line2d_2">
      <g>
       <use xlink:href="#m8be910b664" x="364.220096" y="320.4" style="stroke: #000000; stroke-width: 0.8"/>
      </g>
     </g>
     <g id="text_2">
      <!-- 25 -->
      <g transform="translate(357.857596 334.998438) scale(0.1 -0.1)">
       <defs>
        <path id="DejaVuSans-32" d="M 1228 531 
L 3431 531 
L 3431 0 
L 469 0 
L 469 531 
Q 828 903 1448 1529 
Q 2069 2156 2228 2338 
Q 2531 2678 2651 2914 
Q 2772 3150 2772 3378 
Q 2772 3750 2511 3984 
Q 2250 4219 1831 4219 
Q 1534 4219 1204 4116 
Q 875 4013 500 3803 
L 500 4441 
Q 881 4594 1212 4672 
Q 1544 4750 1819 4750 
Q 2544 4750 2975 4387 
Q 3406 4025 3406 3419 
Q 3406 3131 3298 2873 
Q 3191 2616 2906 2266 
Q 2828 2175 2409 1742 
Q 1991 1309 1228 531 
z
" transform="scale(0.015625)"/>
        <path id="DejaVuSans-35" d="M 691 4666 
L 3169 4666 
L 3169 4134 
L 1269 4134 
L 1269 2991 
Q 1406 3038 1543 3061 
Q 1681 3084 1819 3084 
Q 2600 3084 3056 2656 
Q 3513 2228 3513 1497 
Q 3513 744 3044 326 
Q 2575 -91 1722 -91 
Q 1428 -91 1123 -41 
Q 819 9 494 109 
L 494 744 
Q 775 591 1075 516 
Q 1375 441 1709 441 
Q 2250 441 2565 725 
Q 2881 1009 2881 1497 
Q 2881 1984 2565 2268 
Q 2250 2553 1709 2553 
Q 1456 2553 1204 2497 
Q 953 2441 691 2322 
L 691 4666 
z
" transform="scale(0.015625)"/>
       </defs>
       <use xlink:href="#DejaVuSans-32"/>
       <use xlink:href="#DejaVuSans-35" x="63.623047"/>
      </g>
     </g>
    </g>
    <g id="xtick_3">
     <g id="line2d_3">
      <g>
       <use xlink:href="#m8be910b664" x="497.712919" y="320.4" style="stroke: #000000; stroke-width: 0.8"/>
      </g>
     </g>
     <g id="text_3">
      <!-- 50 -->
      <g transform="translate(491.350419 334.998438) scale(0.1 -0.1)">
       <use xlink:href="#DejaVuSans-35"/>
       <use xlink:href="#DejaVuSans-30" x="63.623047"/>
      </g>
     </g>
    </g>
    <g id="xtick_4">
     <g id="line2d_4">
      <g>
       <use xlink:href="#m8be910b664" x="631.205742" y="320.4" style="stroke: #000000; stroke-width: 0.8"/>
      </g>
     </g>
     <g id="text_4">
      <!-- 75 -->
      <g transform="translate(624.843242 334.998438) scale(0.1 -0.1)">
       <defs>
        <path id="DejaVuSans-37" d="M 525 4666 
L 3525 4666 
L 3525 4397 
L 1831 0 
L 1172 0 
L 2766 4134 
L 525 4134 
L 525 4666 
z
" transform="scale(0.015625)"/>
       </defs>
       <use xlink:href="#DejaVuSans-37"/>
       <use xlink:href="#DejaVuSans-35" x="63.623047"/>
      </g>
     </g>
    </g>
    <g id="xtick_5">
     <g id="line2d_5">
      <g>
       <use xlink:href="#m8be910b664" x="764.698565" y="320.4" style="stroke: #000000; stroke-width: 0.8"/>
      </g>
     </g>
     <g id="text_5">
      <!-- 100 -->
      <g transform="translate(755.154815 334.998438) scale(0.1 -0.1)">
       <defs>
        <path id="DejaVuSans-31" d="M 794 531 
L 1825 531 
L 1825 4091 
L 703 3866 
L 703 4441 
L 1819 4666 
L 2450 4666 
L 2450 531 
L 3481 531 
L 3481 0 
L 794 0 
L 794 531 
z
" transform="scale(0.015625)"/>
       </defs>
       <use xlink:href="#DejaVuSans-31"/>
       <use xlink:href="#DejaVuSans-30" x="63.623047"/>
       <use xlink:href="#DejaVuSans-30" x="127.246094"/>
      </g>
     </g>
    </g>
    <g id="xtick_6">
     <g id="line2d_6">
      <g>
       <use xlink:href="#m8be910b664" x="898.191388" y="320.4" style="stroke: #000000; stroke-width: 0.8"/>
      </g>
     </g>
     <g id="text_6">
      <!-- 125 -->
      <g transform="translate(888.647638 334.998438) scale(0.1 -0.1)">
       <use xlink:href="#DejaVuSans-31"/>
       <use xlink:href="#DejaVuSans-32" x="63.623047"/>
       <use xlink:href="#DejaVuSans-35" x="127.246094"/>
      </g>
     </g>
    </g>
    <g id="xtick_7">
     <g id="line2d_7">
      <g>
       <use xlink:href="#m8be910b664" x="1031.684211" y="320.4" style="stroke: #000000; stroke-width: 0.8"/>
      </g>
     </g>
     <g id="text_7">
      <!-- 150 -->
      <g transform="translate(1022.140461 334.998438) scale(0.1 -0.1)">
       <use xlink:href="#DejaVuSans-31"/>
       <use xlink:href="#DejaVuSans-35" x="63.623047"/>
       <use xlink:href="#DejaVuSans-30" x="127.246094"/>
      </g>
     </g>
    </g>
    <g id="xtick_8">
     <g id="line2d_8">
      <g>
       <use xlink:href="#m8be910b664" x="1165.177033" y="320.4" style="stroke: #000000; stroke-width: 0.8"/>
      </g>
     </g>
     <g id="text_8">
      <!-- 175 -->
      <g transform="translate(1155.633283 334.998438) scale(0.1 -0.1)">
       <use xlink:href="#DejaVuSans-31"/>
       <use xlink:href="#DejaVuSans-37" x="63.623047"/>
       <use xlink:href="#DejaVuSans-35" x="127.246094"/>
      </g>
     </g>
    </g>
    <g id="text_9">
     <!-- Amostras -->
     <g transform="translate(714.360937 348.676562) scale(0.1 -0.1)">
      <defs>
       <path id="DejaVuSans-41" d="M 2188 4044 
L 1331 1722 
L 3047 1722 
L 2188 4044 
z
M 1831 4666 
L 2547 4666 
L 4325 0 
L 3669 0 
L 3244 1197 
L 1141 1197 
L 716 0 
L 50 0 
L 1831 4666 
z
" transform="scale(0.015625)"/>
       <path id="DejaVuSans-6d" d="M 3328 2828 
Q 3544 3216 3844 3400 
Q 4144 3584 4550 3584 
Q 5097 3584 5394 3201 
Q 5691 2819 5691 2113 
L 5691 0 
L 5113 0 
L 5113 2094 
Q 5113 2597 4934 2840 
Q 4756 3084 4391 3084 
Q 3944 3084 3684 2787 
Q 3425 2491 3425 1978 
L 3425 0 
L 2847 0 
L 2847 2094 
Q 2847 2600 2669 2842 
Q 2491 3084 2119 3084 
Q 1678 3084 1418 2786 
Q 1159 2488 1159 1978 
L 1159 0 
L 581 0 
L 581 3500 
L 1159 3500 
L 1159 2956 
Q 1356 3278 1631 3431 
Q 1906 3584 2284 3584 
Q 2666 3584 2933 3390 
Q 3200 3197 3328 2828 
z
" transform="scale(0.015625)"/>
       <path id="DejaVuSans-6f" d="M 1959 3097 
Q 1497 3097 1228 2736 
Q 959 2375 959 1747 
Q 959 1119 1226 758 
Q 1494 397 1959 397 
Q 2419 397 2687 759 
Q 2956 1122 2956 1747 
Q 2956 2369 2687 2733 
Q 2419 3097 1959 3097 
z
M 1959 3584 
Q 2709 3584 3137 3096 
Q 3566 2609 3566 1747 
Q 3566 888 3137 398 
Q 2709 -91 1959 -91 
Q 1206 -91 779 398 
Q 353 888 353 1747 
Q 353 2609 779 3096 
Q 1206 3584 1959 3584 
z
" transform="scale(0.015625)"/>
       <path id="DejaVuSans-73" d="M 2834 3397 
L 2834 2853 
Q 2591 2978 2328 3040 
Q 2066 3103 1784 3103 
Q 1356 3103 1142 2972 
Q 928 2841 928 2578 
Q 928 2378 1081 2264 
Q 1234 2150 1697 2047 
L 1894 2003 
Q 2506 1872 2764 1633 
Q 3022 1394 3022 966 
Q 3022 478 2636 193 
Q 2250 -91 1575 -91 
Q 1294 -91 989 -36 
Q 684 19 347 128 
L 347 722 
Q 666 556 975 473 
Q 1284 391 1588 391 
Q 1994 391 2212 530 
Q 2431 669 2431 922 
Q 2431 1156 2273 1281 
Q 2116 1406 1581 1522 
L 1381 1569 
Q 847 1681 609 1914 
Q 372 2147 372 2553 
Q 372 3047 722 3315 
Q 1072 3584 1716 3584 
Q 2034 3584 2315 3537 
Q 2597 3491 2834 3397 
z
" transform="scale(0.015625)"/>
       <path id="DejaVuSans-74" d="M 1172 4494 
L 1172 3500 
L 2356 3500 
L 2356 3053 
L 1172 3053 
L 1172 1153 
Q 1172 725 1289 603 
Q 1406 481 1766 481 
L 2356 481 
L 2356 0 
L 1766 0 
Q 1100 0 847 248 
Q 594 497 594 1153 
L 594 3053 
L 172 3053 
L 172 3500 
L 594 3500 
L 594 4494 
L 1172 4494 
z
" transform="scale(0.015625)"/>
       <path id="DejaVuSans-72" d="M 2631 2963 
Q 2534 3019 2420 3045 
Q 2306 3072 2169 3072 
Q 1681 3072 1420 2755 
Q 1159 2438 1159 1844 
L 1159 0 
L 581 0 
L 581 3500 
L 1159 3500 
L 1159 2956 
Q 1341 3275 1631 3429 
Q 1922 3584 2338 3584 
Q 2397 3584 2469 3576 
Q 2541 3569 2628 3553 
L 2631 2963 
z
" transform="scale(0.015625)"/>
       <path id="DejaVuSans-61" d="M 2194 1759 
Q 1497 1759 1228 1600 
Q 959 1441 959 1056 
Q 959 750 1161 570 
Q 1363 391 1709 391 
Q 2188 391 2477 730 
Q 2766 1069 2766 1631 
L 2766 1759 
L 2194 1759 
z
M 3341 1997 
L 3341 0 
L 2766 0 
L 2766 531 
Q 2569 213 2275 61 
Q 1981 -91 1556 -91 
Q 1019 -91 701 211 
Q 384 513 384 1019 
Q 384 1609 779 1909 
Q 1175 2209 1959 2209 
L 2766 2209 
L 2766 2266 
Q 2766 2663 2505 2880 
Q 2244 3097 1772 3097 
Q 1472 3097 1187 3025 
Q 903 2953 641 2809 
L 641 3341 
Q 956 3463 1253 3523 
Q 1550 3584 1831 3584 
Q 2591 3584 2966 3190 
Q 3341 2797 3341 1997 
z
" transform="scale(0.015625)"/>
      </defs>
      <use xlink:href="#DejaVuSans-41"/>
      <use xlink:href="#DejaVuSans-6d" x="68.408203"/>
      <use xlink:href="#DejaVuSans-6f" x="165.820312"/>
      <use xlink:href="#DejaVuSans-73" x="227.001953"/>
      <use xlink:href="#DejaVuSans-74" x="279.101562"/>
      <use xlink:href="#DejaVuSans-72" x="318.310547"/>
      <use xlink:href="#DejaVuSans-61" x="359.423828"/>
      <use xlink:href="#DejaVuSans-73" x="420.703125"/>
     </g>
    </g>
   </g>
   <g id="matplotlib.axis_2">
    <g id="ytick_1">
     <g id="line2d_9">
      <defs>
       <path id="m7c6bf47297" d="M 0 0 
L -3.5 0 
" style="stroke: #000000; stroke-width: 0.8"/>
      </defs>
      <g>
       <use xlink:href="#m7c6bf47297" x="180" y="302.571064" style="stroke: #000000; stroke-width: 0.8"/>
      </g>
     </g>
     <g id="text_10">
      <!-- 2 -->
      <g transform="translate(166.6375 306.370283) scale(0.1 -0.1)">
       <use xlink:href="#DejaVuSans-32"/>
      </g>
     </g>
    </g>
    <g id="ytick_2">
     <g id="line2d_10">
      <g>
       <use xlink:href="#m7c6bf47297" x="180" y="265.706834" style="stroke: #000000; stroke-width: 0.8"/>
      </g>
     </g>
     <g id="text_11">
      <!-- 4 -->
      <g transform="translate(166.6375 269.506053) scale(0.1 -0.1)">
       <defs>
        <path id="DejaVuSans-34" d="M 2419 4116 
L 825 1625 
L 2419 1625 
L 2419 4116 
z
M 2253 4666 
L 3047 4666 
L 3047 1625 
L 3713 1625 
L 3713 1100 
L 3047 1100 
L 3047 0 
L 2419 0 
L 2419 1100 
L 313 1100 
L 313 1709 
L 2253 4666 
z
" transform="scale(0.015625)"/>
       </defs>
       <use xlink:href="#DejaVuSans-34"/>
      </g>
     </g>
    </g>
    <g id="ytick_3">
     <g id="line2d_11">
      <g>
       <use xlink:href="#m7c6bf47297" x="180" y="228.842604" style="stroke: #000000; stroke-width: 0.8"/>
      </g>
     </g>
     <g id="text_12">
      <!-- 6 -->
      <g transform="translate(166.6375 232.641822) scale(0.1 -0.1)">
       <defs>
        <path id="DejaVuSans-36" d="M 2113 2584 
Q 1688 2584 1439 2293 
Q 1191 2003 1191 1497 
Q 1191 994 1439 701 
Q 1688 409 2113 409 
Q 2538 409 2786 701 
Q 3034 994 3034 1497 
Q 3034 2003 2786 2293 
Q 2538 2584 2113 2584 
z
M 3366 4563 
L 3366 3988 
Q 3128 4100 2886 4159 
Q 2644 4219 2406 4219 
Q 1781 4219 1451 3797 
Q 1122 3375 1075 2522 
Q 1259 2794 1537 2939 
Q 1816 3084 2150 3084 
Q 2853 3084 3261 2657 
Q 3669 2231 3669 1497 
Q 3669 778 3244 343 
Q 2819 -91 2113 -91 
Q 1303 -91 875 529 
Q 447 1150 447 2328 
Q 447 3434 972 4092 
Q 1497 4750 2381 4750 
Q 2619 4750 2861 4703 
Q 3103 4656 3366 4563 
z
" transform="scale(0.015625)"/>
       </defs>
       <use xlink:href="#DejaVuSans-36"/>
      </g>
     </g>
    </g>
    <g id="ytick_4">
     <g id="line2d_12">
      <g>
       <use xlink:href="#m7c6bf47297" x="180" y="191.978374" style="stroke: #000000; stroke-width: 0.8"/>
      </g>
     </g>
     <g id="text_13">
      <!-- 8 -->
      <g transform="translate(166.6375 195.777592) scale(0.1 -0.1)">
       <defs>
        <path id="DejaVuSans-38" d="M 2034 2216 
Q 1584 2216 1326 1975 
Q 1069 1734 1069 1313 
Q 1069 891 1326 650 
Q 1584 409 2034 409 
Q 2484 409 2743 651 
Q 3003 894 3003 1313 
Q 3003 1734 2745 1975 
Q 2488 2216 2034 2216 
z
M 1403 2484 
Q 997 2584 770 2862 
Q 544 3141 544 3541 
Q 544 4100 942 4425 
Q 1341 4750 2034 4750 
Q 2731 4750 3128 4425 
Q 3525 4100 3525 3541 
Q 3525 3141 3298 2862 
Q 3072 2584 2669 2484 
Q 3125 2378 3379 2068 
Q 3634 1759 3634 1313 
Q 3634 634 3220 271 
Q 2806 -91 2034 -91 
Q 1263 -91 848 271 
Q 434 634 434 1313 
Q 434 1759 690 2068 
Q 947 2378 1403 2484 
z
M 1172 3481 
Q 1172 3119 1398 2916 
Q 1625 2713 2034 2713 
Q 2441 2713 2670 2916 
Q 2900 3119 2900 3481 
Q 2900 3844 2670 4047 
Q 2441 4250 2034 4250 
Q 1625 4250 1398 4047 
Q 1172 3844 1172 3481 
z
" transform="scale(0.015625)"/>
       </defs>
       <use xlink:href="#DejaVuSans-38"/>
      </g>
     </g>
    </g>
    <g id="ytick_5">
     <g id="line2d_13">
      <g>
       <use xlink:href="#m7c6bf47297" x="180" y="155.114143" style="stroke: #000000; stroke-width: 0.8"/>
      </g>
     </g>
     <g id="text_14">
      <!-- 10 -->
      <g transform="translate(160.275 158.913362) scale(0.1 -0.1)">
       <use xlink:href="#DejaVuSans-31"/>
       <use xlink:href="#DejaVuSans-30" x="63.623047"/>
      </g>
     </g>
    </g>
    <g id="ytick_6">
     <g id="line2d_14">
      <g>
       <use xlink:href="#m7c6bf47297" x="180" y="118.249913" style="stroke: #000000; stroke-width: 0.8"/>
      </g>
     </g>
     <g id="text_15">
      <!-- 12 -->
      <g transform="translate(160.275 122.049132) scale(0.1 -0.1)">
       <use xlink:href="#DejaVuSans-31"/>
       <use xlink:href="#DejaVuSans-32" x="63.623047"/>
      </g>
     </g>
    </g>
    <g id="ytick_7">
     <g id="line2d_15">
      <g>
       <use xlink:href="#m7c6bf47297" x="180" y="81.385683" style="stroke: #000000; stroke-width: 0.8"/>
      </g>
     </g>
     <g id="text_16">
      <!-- 14 -->
      <g transform="translate(160.275 85.184902) scale(0.1 -0.1)">
       <use xlink:href="#DejaVuSans-31"/>
       <use xlink:href="#DejaVuSans-34" x="63.623047"/>
      </g>
     </g>
    </g>
    <g id="ytick_8">
     <g id="line2d_16">
      <g>
       <use xlink:href="#m7c6bf47297" x="180" y="44.521453" style="stroke: #000000; stroke-width: 0.8"/>
      </g>
     </g>
     <g id="text_17">
      <!-- 16 -->
      <g transform="translate(160.275 48.320672) scale(0.1 -0.1)">
       <use xlink:href="#DejaVuSans-31"/>
       <use xlink:href="#DejaVuSans-36" x="63.623047"/>
      </g>
     </g>
    </g>
    <g id="text_18">
     <!-- Velocidade do Vento (m/s) -->
     <g transform="translate(154.195312 247.344531) rotate(-90) scale(0.1 -0.1)">
      <defs>
       <path id="DejaVuSans-56" d="M 1831 0 
L 50 4666 
L 709 4666 
L 2188 738 
L 3669 4666 
L 4325 4666 
L 2547 0 
L 1831 0 
z
" transform="scale(0.015625)"/>
       <path id="DejaVuSans-65" d="M 3597 1894 
L 3597 1613 
L 953 1613 
Q 991 1019 1311 708 
Q 1631 397 2203 397 
Q 2534 397 2845 478 
Q 3156 559 3463 722 
L 3463 178 
Q 3153 47 2828 -22 
Q 2503 -91 2169 -91 
Q 1331 -91 842 396 
Q 353 884 353 1716 
Q 353 2575 817 3079 
Q 1281 3584 2069 3584 
Q 2775 3584 3186 3129 
Q 3597 2675 3597 1894 
z
M 3022 2063 
Q 3016 2534 2758 2815 
Q 2500 3097 2075 3097 
Q 1594 3097 1305 2825 
Q 1016 2553 972 2059 
L 3022 2063 
z
" transform="scale(0.015625)"/>
       <path id="DejaVuSans-6c" d="M 603 4863 
L 1178 4863 
L 1178 0 
L 603 0 
L 603 4863 
z
" transform="scale(0.015625)"/>
       <path id="DejaVuSans-63" d="M 3122 3366 
L 3122 2828 
Q 2878 2963 2633 3030 
Q 2388 3097 2138 3097 
Q 1578 3097 1268 2742 
Q 959 2388 959 1747 
Q 959 1106 1268 751 
Q 1578 397 2138 397 
Q 2388 397 2633 464 
Q 2878 531 3122 666 
L 3122 134 
Q 2881 22 2623 -34 
Q 2366 -91 2075 -91 
Q 1284 -91 818 406 
Q 353 903 353 1747 
Q 353 2603 823 3093 
Q 1294 3584 2113 3584 
Q 2378 3584 2631 3529 
Q 2884 3475 3122 3366 
z
" transform="scale(0.015625)"/>
       <path id="DejaVuSans-69" d="M 603 3500 
L 1178 3500 
L 1178 0 
L 603 0 
L 603 3500 
z
M 603 4863 
L 1178 4863 
L 1178 4134 
L 603 4134 
L 603 4863 
z
" transform="scale(0.015625)"/>
       <path id="DejaVuSans-64" d="M 2906 2969 
L 2906 4863 
L 3481 4863 
L 3481 0 
L 2906 0 
L 2906 525 
Q 2725 213 2448 61 
Q 2172 -91 1784 -91 
Q 1150 -91 751 415 
Q 353 922 353 1747 
Q 353 2572 751 3078 
Q 1150 3584 1784 3584 
Q 2172 3584 2448 3432 
Q 2725 3281 2906 2969 
z
M 947 1747 
Q 947 1113 1208 752 
Q 1469 391 1925 391 
Q 2381 391 2643 752 
Q 2906 1113 2906 1747 
Q 2906 2381 2643 2742 
Q 2381 3103 1925 3103 
Q 1469 3103 1208 2742 
Q 947 2381 947 1747 
z
" transform="scale(0.015625)"/>
       <path id="DejaVuSans-20" transform="scale(0.015625)"/>
       <path id="DejaVuSans-6e" d="M 3513 2113 
L 3513 0 
L 2938 0 
L 2938 2094 
Q 2938 2591 2744 2837 
Q 2550 3084 2163 3084 
Q 1697 3084 1428 2787 
Q 1159 2491 1159 1978 
L 1159 0 
L 581 0 
L 581 3500 
L 1159 3500 
L 1159 2956 
Q 1366 3272 1645 3428 
Q 1925 3584 2291 3584 
Q 2894 3584 3203 3211 
Q 3513 2838 3513 2113 
z
" transform="scale(0.015625)"/>
       <path id="DejaVuSans-28" d="M 1984 4856 
Q 1566 4138 1362 3434 
Q 1159 2731 1159 2009 
Q 1159 1288 1364 580 
Q 1569 -128 1984 -844 
L 1484 -844 
Q 1016 -109 783 600 
Q 550 1309 550 2009 
Q 550 2706 781 3412 
Q 1013 4119 1484 4856 
L 1984 4856 
z
" transform="scale(0.015625)"/>
       <path id="DejaVuSans-2f" d="M 1625 4666 
L 2156 4666 
L 531 -594 
L 0 -594 
L 1625 4666 
z
" transform="scale(0.015625)"/>
       <path id="DejaVuSans-29" d="M 513 4856 
L 1013 4856 
Q 1481 4119 1714 3412 
Q 1947 2706 1947 2009 
Q 1947 1309 1714 600 
Q 1481 -109 1013 -844 
L 513 -844 
Q 928 -128 1133 580 
Q 1338 1288 1338 2009 
Q 1338 2731 1133 3434 
Q 928 4138 513 4856 
z
" transform="scale(0.015625)"/>
      </defs>
      <use xlink:href="#DejaVuSans-56"/>
      <use xlink:href="#DejaVuSans-65" x="60.658203"/>
      <use xlink:href="#DejaVuSans-6c" x="122.181641"/>
      <use xlink:href="#DejaVuSans-6f" x="149.964844"/>
      <use xlink:href="#DejaVuSans-63" x="211.146484"/>
      <use xlink:href="#DejaVuSans-69" x="266.126953"/>
      <use xlink:href="#DejaVuSans-64" x="293.910156"/>
      <use xlink:href="#DejaVuSans-61" x="357.386719"/>
      <use xlink:href="#DejaVuSans-64" x="418.666016"/>
      <use xlink:href="#DejaVuSans-65" x="482.142578"/>
      <use xlink:href="#DejaVuSans-20" x="543.666016"/>
      <use xlink:href="#DejaVuSans-64" x="575.453125"/>
      <use xlink:href="#DejaVuSans-6f" x="638.929688"/>
      <use xlink:href="#DejaVuSans-20" x="700.111328"/>
      <use xlink:href="#DejaVuSans-56" x="731.898438"/>
      <use xlink:href="#DejaVuSans-65" x="792.556641"/>
      <use xlink:href="#DejaVuSans-6e" x="854.080078"/>
      <use xlink:href="#DejaVuSans-74" x="917.458984"/>
      <use xlink:href="#DejaVuSans-6f" x="956.667969"/>
      <use xlink:href="#DejaVuSans-20" x="1017.849609"/>
      <use xlink:href="#DejaVuSans-28" x="1049.636719"/>
      <use xlink:href="#DejaVuSans-6d" x="1088.650391"/>
      <use xlink:href="#DejaVuSans-2f" x="1186.0625"/>
      <use xlink:href="#DejaVuSans-73" x="1219.753906"/>
      <use xlink:href="#DejaVuSans-29" x="1271.853516"/>
     </g>
    </g>
   </g>
   <g id="line2d_17">
    <path d="M 230.727273 133.218308 
L 236.066986 160.876746 
L 241.406699 170.431466 
L 246.746411 162.215944 
L 252.086124 176.608457 
L 257.425837 174.633402 
L 262.76555 173.661396 
L 268.105263 169.268578 
L 273.444976 168.491725 
L 278.784689 175.127333 
L 284.124402 190.966061 
L 289.464115 197.525203 
L 294.803828 242.050573 
L 300.143541 231.062744 
L 305.483254 239.334595 
L 310.822967 251.512365 
L 316.162679 252.962631 
L 321.502392 258.331226 
L 326.842105 264.386032 
L 332.181818 261.132626 
L 342.861244 234.565831 
L 348.200957 189.993633 
L 353.54067 153.87094 
L 358.880383 132.280755 
L 364.220096 116.273997 
L 369.559809 118.302771 
L 374.899522 120.711341 
L 380.239234 119.497722 
L 385.578947 138.167688 
L 390.91866 154.073213 
L 396.258373 176.878881 
L 401.598086 181.650739 
L 406.937799 183.169199 
L 412.277512 179.636238 
L 417.617225 173.442512 
L 422.956938 197.814743 
L 428.296651 212.126933 
L 433.636364 207.694985 
L 438.976077 203.955937 
L 444.315789 198.129147 
L 449.655502 192.955811 
L 454.995215 209.267605 
L 460.334928 215.009342 
L 465.674641 198.521318 
L 471.014354 196.265239 
L 476.354067 188.604021 
L 481.69378 170.720874 
L 487.033493 124.237359 
L 492.373206 106.626499 
L 497.712919 111.321593 
L 503.052632 125.67851 
L 508.392344 134.376256 
L 513.732057 133.423516 
L 519.07177 138.382758 
L 524.411483 145.729968 
L 529.751196 162.265672 
L 535.090909 158.204784 
L 540.430622 173.244071 
L 545.770335 182.769365 
L 551.110048 208.22714 
L 556.449761 211.569764 
L 561.789474 214.76612 
L 567.129187 213.206105 
L 572.4689 224.491771 
L 577.808612 228.353024 
L 583.148325 250.84354 
L 588.488038 219.869891 
L 593.827751 199.375031 
L 599.167464 189.150053 
L 604.507177 150.779579 
L 609.84689 121.700697 
L 615.186603 109.686202 
L 620.526316 99.213968 
L 625.866029 102.25502 
L 631.205742 105.859824 
L 636.545455 117.185481 
L 641.885167 122.271585 
L 647.22488 144.113596 
L 652.564593 150.125651 
L 657.904306 158.990496 
L 663.244019 173.970562 
L 668.583732 170.384848 
L 673.923445 177.399478 
L 679.263158 195.875055 
L 689.942584 193.813234 
L 695.282297 201.796952 
L 700.62201 195.666393 
L 705.961722 208.846122 
L 711.301435 226.021517 
L 716.641148 232.286646 
L 721.980861 209.977554 
L 727.320574 203.052916 
L 732.660287 155.322797 
L 738 121.295413 
L 743.339713 116.844287 
L 748.679426 114.054604 
L 754.019139 112.802225 
L 759.358852 110.789359 
L 764.698565 121.342979 
L 770.038278 127.521834 
L 775.37799 136.885743 
L 780.717703 168.42266 
L 786.057416 181.188062 
L 791.397129 177.352386 
L 796.736842 169.110655 
L 802.076555 173.257308 
L 807.416268 220.287233 
L 812.755981 258.076474 
L 818.095694 260.918048 
L 823.435407 264.260892 
L 828.77512 255.944744 
L 834.114833 235.597726 
L 839.454545 236.864756 
L 844.794258 248.402424 
L 850.133971 236.387305 
L 855.473684 217.212308 
L 860.813397 205.681548 
L 866.15311 171.798736 
L 871.492823 129.256191 
L 876.832536 113.838585 
L 882.172249 127.011292 
L 887.511962 126.187102 
L 892.851675 130.611824 
L 898.191388 140.222795 
L 903.5311 160.267273 
L 908.870813 174.353855 
L 914.210526 165.403405 
L 919.550239 175.592963 
L 924.889952 180.378479 
L 930.229665 177.425511 
L 935.569378 196.381748 
L 940.909091 185.617672 
L 946.248804 199.91637 
L 951.588517 206.633269 
L 956.92823 199.593001 
L 962.267943 208.694853 
L 967.607656 224.746655 
L 972.947368 238.774359 
L 978.287081 229.435764 
L 983.626794 211.692012 
L 988.966507 173.259241 
L 994.30622 138.86971 
L 999.645933 127.705984 
L 1004.985646 140.532664 
L 1010.325359 132.929532 
L 1015.665072 135.249455 
L 1021.004785 143.880069 
L 1026.344498 151.891912 
L 1031.684211 171.165041 
L 1037.023923 181.58134 
L 1042.363636 175.653168 
L 1047.703349 189.916658 
L 1053.043062 194.681765 
L 1058.382775 183.837823 
L 1063.722488 225.493071 
L 1069.062201 224.372986 
L 1074.401914 235.081515 
L 1079.741627 254.425852 
L 1085.08134 250.867481 
L 1090.421053 253.588539 
L 1095.760766 250.854307 
L 1101.100478 225.151069 
L 1106.440191 239.868516 
L 1111.779904 248.906515 
L 1117.119617 223.371853 
L 1122.45933 207.964961 
L 1127.799043 178.617579 
L 1133.138756 146.032225 
L 1138.478469 134.916137 
L 1143.818182 131.265313 
L 1149.157895 137.706998 
L 1154.497608 143.711248 
L 1159.837321 156.295559 
L 1165.177033 155.956862 
L 1170.516746 162.772471 
L 1175.856459 180.029533 
L 1181.196172 188.842522 
L 1186.535885 177.226912 
L 1191.875598 179.161538 
L 1197.215311 185.747663 
L 1202.555024 200.564093 
L 1207.894737 206.641003 
L 1213.23445 222.847406 
L 1218.574163 230.390763 
L 1223.913876 244.434173 
L 1229.253589 246.067797 
L 1234.593301 238.536077 
L 1239.933014 205.410623 
L 1245.272727 165.304563 
L 1245.272727 165.304563 
" clip-path="url(#p6cc3875e00)" style="fill: none; stroke: #0000ff; stroke-width: 1.5; stroke-linecap: square"/>
   </g>
   <g id="line2d_18">
    <path d="M 230.727273 168.600307 
L 236.066986 178.441009 
L 241.406699 161.340102 
L 246.746411 180.540222 
L 252.086124 177.929006 
L 257.425837 174.140182 
L 262.76555 167.617261 
L 268.105263 162.333388 
L 273.444976 170.361599 
L 278.784689 196.350881 
L 284.124402 207.42039 
L 289.464115 228.422761 
L 294.803828 216.738848 
L 300.143541 228.883564 
L 305.483254 245.349587 
L 310.822967 248.730588 
L 316.162679 258.333988 
L 321.502392 269.024615 
L 326.842105 267.283804 
L 332.181818 252.568832 
L 337.521531 240.843959 
L 342.861244 193.719184 
L 348.200957 153.373333 
L 353.54067 126.052842 
L 358.880383 100.421962 
L 364.220096 102.613336 
L 369.559809 103.3199 
L 374.899522 101.200207 
L 380.239234 130.056707 
L 385.578947 149.65619 
L 390.91866 180.23302 
L 396.258373 184.728408 
L 401.598086 186.141537 
L 406.937799 174.846746 
L 412.277512 154.182298 
L 417.617225 175.37923 
L 422.956938 193.074059 
L 428.296651 190.544764 
L 433.636364 188.217369 
L 438.976077 183.928428 
L 444.315789 179.424216 
L 449.655502 202.597319 
L 454.995215 213.564428 
L 460.334928 207.461351 
L 465.674641 214.281233 
L 471.014354 212.192259 
L 476.354067 189.643639 
L 481.69378 126.134762 
L 487.033493 86.249714 
L 492.373206 83.321055 
L 497.712919 101.91701 
L 503.052632 118.567355 
L 508.392344 108.306811 
L 513.732057 103.145819 
L 519.07177 114.942372 
L 524.411483 144.628318 
L 529.751196 129.350143 
L 535.090909 156.035749 
L 540.430622 170.330879 
L 545.770335 185.752415 
L 551.110048 190.698365 
L 556.449761 196.094878 
L 561.789474 195.869598 
L 567.129187 210.052087 
L 572.4689 216.646688 
L 577.808612 250.971382 
L 583.148325 216.912929 
L 588.488038 207.778792 
L 593.827751 205.310937 
L 599.167464 165.036765 
L 604.507177 126.196203 
L 609.84689 97.974587 
L 615.186603 57.167931 
L 620.526316 71.811224 
L 625.866029 84.611304 
L 631.205742 104.046945 
L 636.545455 100.13524 
L 641.885167 136.89707 
L 647.22488 134.756896 
L 652.564593 138.44332 
L 657.904306 158.145202 
L 663.244019 146.092647 
L 668.583732 156.025509 
L 673.923445 167.371501 
L 679.263158 166.767336 
L 684.602871 167.873263 
L 689.942584 178.737971 
L 695.282297 174.457625 
L 700.62201 193.504142 
L 705.961722 216.564767 
L 711.301435 231.269499 
L 716.641148 215.929883 
L 721.980861 219.585586 
L 727.320574 163.572436 
L 732.660287 120.635847 
L 738 111.675792 
L 743.339713 98.435389 
L 748.679426 76.316852 
L 754.019139 82.501851 
L 759.358852 91.096261 
L 764.698565 99.469636 
L 770.038278 109.68922 
L 775.37799 162.159307 
L 780.717703 176.198435 
L 786.057416 160.305856 
L 791.397129 134.951457 
L 796.736842 143.594072 
L 802.076555 192.377736 
L 807.416268 245.98447 
L 812.755981 251.299064 
L 818.095694 256.910619 
L 823.435407 246.066391 
L 828.77512 223.886412 
L 834.114833 228.043879 
L 839.454545 249.07697 
L 844.794258 246.204467 
L 850.133971 228.661478 
L 855.473684 212.21274 
L 860.813397 167.627501 
L 866.15311 108.951935 
L 871.492823 84.263141 
L 876.832536 101.671249 
L 882.172249 94.830887 
L 887.511962 94.462245 
L 892.851675 116.22238 
L 898.191388 149.338748 
L 903.5311 168.794869 
L 908.870813 150.813316 
L 914.210526 165.84573 
L 919.550239 168.784629 
L 924.889952 154.847902 
L 930.229665 159.435451 
L 935.569378 148.734583 
L 940.909091 170.197757 
L 946.248804 182.874957 
L 951.588517 178.236207 
L 956.92823 192.777098 
L 962.267943 212.509702 
L 967.607656 235.713687 
L 972.947368 233.215111 
L 978.287081 214.434834 
L 983.626794 172.19457 
L 988.966507 130.947592 
L 994.30622 107.252084 
L 999.645933 137.439793 
L 1004.985646 120.850889 
L 1010.325359 118.557115 
L 1015.665072 132.801044 
L 1021.004785 140.153409 
L 1026.344498 167.576302 
L 1031.684211 183.939923 
L 1037.023923 173.6589 
L 1042.363636 195.920797 
L 1047.703349 201.634754 
L 1053.043062 174.314263 
L 1058.382775 196.309921 
L 1063.722488 196.780964 
L 1069.062201 213.492748 
L 1074.401914 242.56429 
L 1079.741627 241.560763 
L 1085.08134 249.03601 
L 1090.421053 245.380307 
L 1095.760766 214.936596 
L 1101.100478 243.281094 
L 1106.440191 261.723449 
L 1111.779904 230.347893 
L 1117.119617 214.066192 
L 1122.45933 180.990785 
L 1127.799043 131.725837 
L 1133.138756 113.795485 
L 1138.478469 107.692407 
L 1143.818182 113.805725 
L 1149.157895 112.946818 
L 1154.497608 131.752991 
L 1159.837321 133.79433 
L 1165.177033 145.795686 
L 1170.516746 175.768352 
L 1175.856459 190.247802 
L 1181.196172 154.284698 
L 1186.535885 137.972277 
L 1191.875598 150.424195 
L 1197.215311 170.402559 
L 1202.555024 180.448062 
L 1207.894737 202.802121 
L 1213.23445 215.223319 
L 1218.574163 237.249696 
L 1223.913876 245.062865 
L 1229.253589 243.270854 
L 1234.593301 203.580366 
L 1239.933014 147.731057 
L 1245.272727 110.866827 
L 1245.272727 110.866827 
" clip-path="url(#p6cc3875e00)" style="fill: none; stroke: #ffa500; stroke-width: 1.5; stroke-linecap: square"/>
   </g>
   <g id="patch_3">
    <path d="M 180 320.4 
L 180 43.2 
" style="fill: none; stroke: #000000; stroke-width: 0.8; stroke-linejoin: miter; stroke-linecap: square"/>
   </g>
   <g id="patch_4">
    <path d="M 1296 320.4 
L 1296 43.2 
" style="fill: none; stroke: #000000; stroke-width: 0.8; stroke-linejoin: miter; stroke-linecap: square"/>
   </g>
   <g id="patch_5">
    <path d="M 180 320.4 
L 1296 320.4 
" style="fill: none; stroke: #000000; stroke-width: 0.8; stroke-linejoin: miter; stroke-linecap: square"/>
   </g>
   <g id="patch_6">
    <path d="M 180 43.2 
L 1296 43.2 
" style="fill: none; stroke: #000000; stroke-width: 0.8; stroke-linejoin: miter; stroke-linecap: square"/>
   </g>
   <g id="text_19">
    <!-- Previsão do vento para 1 hora(s) à frente com 4 camadas -->
    <g transform="translate(564.882187 37.2) scale(0.12 -0.12)">
     <defs>
      <path id="DejaVuSans-50" d="M 1259 4147 
L 1259 2394 
L 2053 2394 
Q 2494 2394 2734 2622 
Q 2975 2850 2975 3272 
Q 2975 3691 2734 3919 
Q 2494 4147 2053 4147 
L 1259 4147 
z
M 628 4666 
L 2053 4666 
Q 2838 4666 3239 4311 
Q 3641 3956 3641 3272 
Q 3641 2581 3239 2228 
Q 2838 1875 2053 1875 
L 1259 1875 
L 1259 0 
L 628 0 
L 628 4666 
z
" transform="scale(0.015625)"/>
      <path id="DejaVuSans-76" d="M 191 3500 
L 800 3500 
L 1894 563 
L 2988 3500 
L 3597 3500 
L 2284 0 
L 1503 0 
L 191 3500 
z
" transform="scale(0.015625)"/>
      <path id="DejaVuSans-e3" d="M 2194 1759 
Q 1497 1759 1228 1600 
Q 959 1441 959 1056 
Q 959 750 1161 570 
Q 1363 391 1709 391 
Q 2188 391 2477 730 
Q 2766 1069 2766 1631 
L 2766 1759 
L 2194 1759 
z
M 3341 1997 
L 3341 0 
L 2766 0 
L 2766 531 
Q 2569 213 2275 61 
Q 1981 -91 1556 -91 
Q 1019 -91 701 211 
Q 384 513 384 1019 
Q 384 1609 779 1909 
Q 1175 2209 1959 2209 
L 2766 2209 
L 2766 2266 
Q 2766 2663 2505 2880 
Q 2244 3097 1772 3097 
Q 1472 3097 1187 3025 
Q 903 2953 641 2809 
L 641 3341 
Q 956 3463 1253 3523 
Q 1550 3584 1831 3584 
Q 2591 3584 2966 3190 
Q 3341 2797 3341 1997 
z
M 1844 4281 
L 1666 4453 
Q 1597 4516 1545 4545 
Q 1494 4575 1453 4575 
Q 1334 4575 1278 4461 
Q 1222 4347 1216 4091 
L 825 4091 
Q 831 4513 990 4742 
Q 1150 4972 1434 4972 
Q 1553 4972 1653 4928 
Q 1753 4884 1869 4781 
L 2047 4609 
Q 2116 4547 2167 4517 
Q 2219 4488 2259 4488 
Q 2378 4488 2434 4602 
Q 2491 4716 2497 4972 
L 2888 4972 
Q 2881 4550 2722 4320 
Q 2563 4091 2278 4091 
Q 2159 4091 2059 4134 
Q 1959 4178 1844 4281 
z
" transform="scale(0.015625)"/>
      <path id="DejaVuSans-70" d="M 1159 525 
L 1159 -1331 
L 581 -1331 
L 581 3500 
L 1159 3500 
L 1159 2969 
Q 1341 3281 1617 3432 
Q 1894 3584 2278 3584 
Q 2916 3584 3314 3078 
Q 3713 2572 3713 1747 
Q 3713 922 3314 415 
Q 2916 -91 2278 -91 
Q 1894 -91 1617 61 
Q 1341 213 1159 525 
z
M 3116 1747 
Q 3116 2381 2855 2742 
Q 2594 3103 2138 3103 
Q 1681 3103 1420 2742 
Q 1159 2381 1159 1747 
Q 1159 1113 1420 752 
Q 1681 391 2138 391 
Q 2594 391 2855 752 
Q 3116 1113 3116 1747 
z
" transform="scale(0.015625)"/>
      <path id="DejaVuSans-68" d="M 3513 2113 
L 3513 0 
L 2938 0 
L 2938 2094 
Q 2938 2591 2744 2837 
Q 2550 3084 2163 3084 
Q 1697 3084 1428 2787 
Q 1159 2491 1159 1978 
L 1159 0 
L 581 0 
L 581 4863 
L 1159 4863 
L 1159 2956 
Q 1366 3272 1645 3428 
Q 1925 3584 2291 3584 
Q 2894 3584 3203 3211 
Q 3513 2838 3513 2113 
z
" transform="scale(0.015625)"/>
      <path id="DejaVuSans-e0" d="M 2194 1759 
Q 1497 1759 1228 1600 
Q 959 1441 959 1056 
Q 959 750 1161 570 
Q 1363 391 1709 391 
Q 2188 391 2477 730 
Q 2766 1069 2766 1631 
L 2766 1759 
L 2194 1759 
z
M 3341 1997 
L 3341 0 
L 2766 0 
L 2766 531 
Q 2569 213 2275 61 
Q 1981 -91 1556 -91 
Q 1019 -91 701 211 
Q 384 513 384 1019 
Q 384 1609 779 1909 
Q 1175 2209 1959 2209 
L 2766 2209 
L 2766 2266 
Q 2766 2663 2505 2880 
Q 2244 3097 1772 3097 
Q 1472 3097 1187 3025 
Q 903 2953 641 2809 
L 641 3341 
Q 956 3463 1253 3523 
Q 1550 3584 1831 3584 
Q 2591 3584 2966 3190 
Q 3341 2797 3341 1997 
z
M 1403 5119 
L 2284 3950 
L 1806 3950 
L 788 5119 
L 1403 5119 
z
" transform="scale(0.015625)"/>
      <path id="DejaVuSans-66" d="M 2375 4863 
L 2375 4384 
L 1825 4384 
Q 1516 4384 1395 4259 
Q 1275 4134 1275 3809 
L 1275 3500 
L 2222 3500 
L 2222 3053 
L 1275 3053 
L 1275 0 
L 697 0 
L 697 3053 
L 147 3053 
L 147 3500 
L 697 3500 
L 697 3744 
Q 697 4328 969 4595 
Q 1241 4863 1831 4863 
L 2375 4863 
z
" transform="scale(0.015625)"/>
     </defs>
     <use xlink:href="#DejaVuSans-50"/>
     <use xlink:href="#DejaVuSans-72" x="58.552734"/>
     <use xlink:href="#DejaVuSans-65" x="97.416016"/>
     <use xlink:href="#DejaVuSans-76" x="158.939453"/>
     <use xlink:href="#DejaVuSans-69" x="218.119141"/>
     <use xlink:href="#DejaVuSans-73" x="245.902344"/>
     <use xlink:href="#DejaVuSans-e3" x="298.001953"/>
     <use xlink:href="#DejaVuSans-6f" x="359.28125"/>
     <use xlink:href="#DejaVuSans-20" x="420.462891"/>
     <use xlink:href="#DejaVuSans-64" x="452.25"/>
     <use xlink:href="#DejaVuSans-6f" x="515.726562"/>
     <use xlink:href="#DejaVuSans-20" x="576.908203"/>
     <use xlink:href="#DejaVuSans-76" x="608.695312"/>
     <use xlink:href="#DejaVuSans-65" x="667.875"/>
     <use xlink:href="#DejaVuSans-6e" x="729.398438"/>
     <use xlink:href="#DejaVuSans-74" x="792.777344"/>
     <use xlink:href="#DejaVuSans-6f" x="831.986328"/>
     <use xlink:href="#DejaVuSans-20" x="893.167969"/>
     <use xlink:href="#DejaVuSans-70" x="924.955078"/>
     <use xlink:href="#DejaVuSans-61" x="988.431641"/>
     <use xlink:href="#DejaVuSans-72" x="1049.710938"/>
     <use xlink:href="#DejaVuSans-61" x="1090.824219"/>
     <use xlink:href="#DejaVuSans-20" x="1152.103516"/>
     <use xlink:href="#DejaVuSans-31" x="1183.890625"/>
     <use xlink:href="#DejaVuSans-20" x="1247.513672"/>
     <use xlink:href="#DejaVuSans-68" x="1279.300781"/>
     <use xlink:href="#DejaVuSans-6f" x="1342.679688"/>
     <use xlink:href="#DejaVuSans-72" x="1403.861328"/>
     <use xlink:href="#DejaVuSans-61" x="1444.974609"/>
     <use xlink:href="#DejaVuSans-28" x="1506.253906"/>
     <use xlink:href="#DejaVuSans-73" x="1545.267578"/>
     <use xlink:href="#DejaVuSans-29" x="1597.367188"/>
     <use xlink:href="#DejaVuSans-20" x="1636.380859"/>
     <use xlink:href="#DejaVuSans-e0" x="1668.167969"/>
     <use xlink:href="#DejaVuSans-20" x="1729.447266"/>
     <use xlink:href="#DejaVuSans-66" x="1761.234375"/>
     <use xlink:href="#DejaVuSans-72" x="1796.439453"/>
     <use xlink:href="#DejaVuSans-65" x="1835.302734"/>
     <use xlink:href="#DejaVuSans-6e" x="1896.826172"/>
     <use xlink:href="#DejaVuSans-74" x="1960.205078"/>
     <use xlink:href="#DejaVuSans-65" x="1999.414062"/>
     <use xlink:href="#DejaVuSans-20" x="2060.9375"/>
     <use xlink:href="#DejaVuSans-63" x="2092.724609"/>
     <use xlink:href="#DejaVuSans-6f" x="2147.705078"/>
     <use xlink:href="#DejaVuSans-6d" x="2208.886719"/>
     <use xlink:href="#DejaVuSans-20" x="2306.298828"/>
     <use xlink:href="#DejaVuSans-34" x="2338.085938"/>
     <use xlink:href="#DejaVuSans-20" x="2401.708984"/>
     <use xlink:href="#DejaVuSans-63" x="2433.496094"/>
     <use xlink:href="#DejaVuSans-61" x="2488.476562"/>
     <use xlink:href="#DejaVuSans-6d" x="2549.755859"/>
     <use xlink:href="#DejaVuSans-61" x="2647.167969"/>
     <use xlink:href="#DejaVuSans-64" x="2708.447266"/>
     <use xlink:href="#DejaVuSans-61" x="2771.923828"/>
     <use xlink:href="#DejaVuSans-73" x="2833.203125"/>
    </g>
   </g>
   <g id="legend_1">
    <g id="patch_7">
     <path d="M 1217.86875 80.55625 
L 1289 80.55625 
Q 1291 80.55625 1291 78.55625 
L 1291 50.2 
Q 1291 48.2 1289 48.2 
L 1217.86875 48.2 
Q 1215.86875 48.2 1215.86875 50.2 
L 1215.86875 78.55625 
Q 1215.86875 80.55625 1217.86875 80.55625 
z
" style="fill: #ffffff; opacity: 0.8; stroke: #cccccc; stroke-linejoin: miter"/>
    </g>
    <g id="line2d_19">
     <path d="M 1219.86875 56.298437 
L 1229.86875 56.298437 
L 1239.86875 56.298437 
" style="fill: none; stroke: #0000ff; stroke-width: 1.5; stroke-linecap: square"/>
    </g>
    <g id="text_20">
     <!-- Predito -->
     <g transform="translate(1247.86875 59.798437) scale(0.1 -0.1)">
      <use xlink:href="#DejaVuSans-50"/>
      <use xlink:href="#DejaVuSans-72" x="58.552734"/>
      <use xlink:href="#DejaVuSans-65" x="97.416016"/>
      <use xlink:href="#DejaVuSans-64" x="158.939453"/>
      <use xlink:href="#DejaVuSans-69" x="222.416016"/>
      <use xlink:href="#DejaVuSans-74" x="250.199219"/>
      <use xlink:href="#DejaVuSans-6f" x="289.408203"/>
     </g>
    </g>
    <g id="line2d_20">
     <path d="M 1219.86875 70.976562 
L 1229.86875 70.976562 
L 1239.86875 70.976562 
" style="fill: none; stroke: #ffa500; stroke-width: 1.5; stroke-linecap: square"/>
    </g>
    <g id="text_21">
     <!-- Original -->
     <g transform="translate(1247.86875 74.476562) scale(0.1 -0.1)">
      <defs>
       <path id="DejaVuSans-4f" d="M 2522 4238 
Q 1834 4238 1429 3725 
Q 1025 3213 1025 2328 
Q 1025 1447 1429 934 
Q 1834 422 2522 422 
Q 3209 422 3611 934 
Q 4013 1447 4013 2328 
Q 4013 3213 3611 3725 
Q 3209 4238 2522 4238 
z
M 2522 4750 
Q 3503 4750 4090 4092 
Q 4678 3434 4678 2328 
Q 4678 1225 4090 567 
Q 3503 -91 2522 -91 
Q 1538 -91 948 565 
Q 359 1222 359 2328 
Q 359 3434 948 4092 
Q 1538 4750 2522 4750 
z
" transform="scale(0.015625)"/>
       <path id="DejaVuSans-67" d="M 2906 1791 
Q 2906 2416 2648 2759 
Q 2391 3103 1925 3103 
Q 1463 3103 1205 2759 
Q 947 2416 947 1791 
Q 947 1169 1205 825 
Q 1463 481 1925 481 
Q 2391 481 2648 825 
Q 2906 1169 2906 1791 
z
M 3481 434 
Q 3481 -459 3084 -895 
Q 2688 -1331 1869 -1331 
Q 1566 -1331 1297 -1286 
Q 1028 -1241 775 -1147 
L 775 -588 
Q 1028 -725 1275 -790 
Q 1522 -856 1778 -856 
Q 2344 -856 2625 -561 
Q 2906 -266 2906 331 
L 2906 616 
Q 2728 306 2450 153 
Q 2172 0 1784 0 
Q 1141 0 747 490 
Q 353 981 353 1791 
Q 353 2603 747 3093 
Q 1141 3584 1784 3584 
Q 2172 3584 2450 3431 
Q 2728 3278 2906 2969 
L 2906 3500 
L 3481 3500 
L 3481 434 
z
" transform="scale(0.015625)"/>
      </defs>
      <use xlink:href="#DejaVuSans-4f"/>
      <use xlink:href="#DejaVuSans-72" x="78.710938"/>
      <use xlink:href="#DejaVuSans-69" x="119.824219"/>
      <use xlink:href="#DejaVuSans-67" x="147.607422"/>
      <use xlink:href="#DejaVuSans-69" x="211.083984"/>
      <use xlink:href="#DejaVuSans-6e" x="238.867188"/>
      <use xlink:href="#DejaVuSans-61" x="302.246094"/>
      <use xlink:href="#DejaVuSans-6c" x="363.525391"/>
     </g>
    </g>
   </g>
  </g>
 </g>
 <defs>
  <clipPath id="p6cc3875e00">
   <rect x="180" y="43.2" width="1116" height="277.2"/>
  </clipPath>
 </defs>
</svg>
