<?xml version="1.0" encoding="utf-8" standalone="no"?>
<!DOCTYPE svg PUBLIC "-//W3C//DTD SVG 1.1//EN"
  "http://www.w3.org/Graphics/SVG/1.1/DTD/svg11.dtd">
<svg xmlns:xlink="http://www.w3.org/1999/xlink" width="1440pt" height="360pt" viewBox="0 0 1440 360" xmlns="http://www.w3.org/2000/svg" version="1.1">
 <metadata>
  <rdf:RDF xmlns:dc="http://purl.org/dc/elements/1.1/" xmlns:cc="http://creativecommons.org/ns#" xmlns:rdf="http://www.w3.org/1999/02/22-rdf-syntax-ns#">
   <cc:Work>
    <dc:type rdf:resource="http://purl.org/dc/dcmitype/StillImage"/>
    <dc:date>2023-08-20T14:24:23.994439</dc:date>
    <dc:format>image/svg+xml</dc:format>
    <dc:creator>
     <cc:Agent>
      <dc:title>Matplotlib v3.7.1, https://matplotlib.org/</dc:title>
     </cc:Agent>
    </dc:creator>
   </cc:Work>
  </rdf:RDF>
 </metadata>
 <defs>
  <style type="text/css">*{stroke-linejoin: round; stroke-linecap: butt}</style>
 </defs>
 <g id="figure_1">
  <g id="patch_1">
   <path d="M 0 360 
L 1440 360 
L 1440 0 
L 0 0 
z
" style="fill: #ffffff"/>
  </g>
  <g id="axes_1">
   <g id="patch_2">
    <path d="M 180 320.4 
L 1296 320.4 
L 1296 43.2 
L 180 43.2 
z
" style="fill: #ffffff"/>
   </g>
   <g id="PolyCollection_1">
    <defs>
     <path id="m4858f6ba40" d="M 230.727273 -258.539832 
L 230.727273 -163.918045 
L 236.066986 -157.191488 
L 241.406699 -146.590221 
L 246.746411 -144.032647 
L 252.086124 -139.484328 
L 257.425837 -141.527505 
L 262.76555 -141.385878 
L 268.105263 -145.857429 
L 273.444976 -145.670994 
L 278.784689 -141.584824 
L 284.124402 -124.064687 
L 289.464115 -113.654019 
L 294.803828 -83.252353 
L 300.143541 -94.723598 
L 305.483254 -86.444782 
L 310.822967 -71.793117 
L 316.162679 -68.629331 
L 321.502392 -63.858788 
L 326.842105 -63.318083 
L 332.181818 -74.289475 
L 337.521531 -96.549119 
L 342.861244 -109.034676 
L 348.200957 -136.137768 
L 353.54067 -156.415048 
L 358.880383 -170.090671 
L 364.220096 -178.797242 
L 369.559809 -182.570061 
L 374.899522 -183.283387 
L 380.239234 -186.173995 
L 385.578947 -177.211881 
L 390.91866 -166.213357 
L 396.258373 -145.456361 
L 401.598086 -139.26857 
L 406.937799 -136.584853 
L 412.277512 -141.777003 
L 417.617225 -152.631111 
L 422.956938 -130.724771 
L 428.296651 -114.920336 
L 433.636364 -121.202025 
L 438.976077 -125.626317 
L 444.315789 -131.712116 
L 449.655502 -137.634337 
L 454.995215 -121.338933 
L 460.334928 -113.311026 
L 465.674641 -125.771706 
L 471.014354 -115.917556 
L 476.354067 -132.190724 
L 481.69378 -148.137357 
L 487.033493 -178.689892 
L 492.373206 -187.135795 
L 497.712919 -187.685611 
L 503.052632 -183.430439 
L 508.392344 -183.092468 
L 513.732057 -184.452078 
L 519.07177 -180.803303 
L 524.411483 -179.124431 
L 529.751196 -166.974431 
L 535.090909 -170.784567 
L 540.430622 -152.657579 
L 545.770335 -138.826188 
L 551.110048 -119.074086 
L 556.449761 -118.104393 
L 561.789474 -115.588284 
L 567.129187 -117.316986 
L 572.4689 -103.392754 
L 577.808612 -98.344045 
L 583.148325 -71.541519 
L 588.488038 -111.202586 
L 593.827751 -127.685785 
L 599.167464 -133.920046 
L 604.507177 -164.720584 
L 609.84689 -183.958876 
L 615.186603 -190.065702 
L 620.526316 -192.21591 
L 625.866029 -199.658766 
L 631.205742 -209.578214 
L 636.545455 -198.820573 
L 641.885167 -196.892958 
L 647.22488 -181.588745 
L 652.564593 -176.301706 
L 657.904306 -166.798694 
L 663.244019 -150.419738 
L 668.583732 -155.847128 
L 673.923445 -146.936555 
L 679.263158 -135.86061 
L 684.602871 -137.268907 
L 689.942584 -137.784714 
L 695.282297 -130.061173 
L 700.62201 -137.627686 
L 705.961722 -123.747423 
L 711.301435 -104.375111 
L 716.641148 -96.267896 
L 721.980861 -118.069561 
L 727.320574 -116.518175 
L 732.660287 -165.533418 
L 738 -188.147072 
L 743.339713 -189.080389 
L 748.679426 -190.467811 
L 754.019139 -187.326395 
L 759.358852 -201.743375 
L 764.698565 -196.711528 
L 770.038278 -193.042179 
L 775.37799 -189.561936 
L 780.717703 -161.074764 
L 786.057416 -146.903689 
L 791.397129 -150.147265 
L 796.736842 -160.833193 
L 802.076555 -154.159875 
L 807.416268 -111.965557 
L 812.755981 -120.489001 
L 818.095694 -124.715454 
L 823.435407 -52.2 
L 828.77512 -67.360537 
L 834.114833 -93.920413 
L 839.454545 -91.983452 
L 844.794258 -77.502636 
L 850.133971 -90.61463 
L 855.473684 -122.814173 
L 860.813397 -135.511521 
L 866.15311 -153.365481 
L 871.492823 -176.707863 
L 876.832536 -188.026488 
L 882.172249 -181.520627 
L 887.511962 -182.536287 
L 892.851675 -179.172967 
L 898.191388 -180.580357 
L 903.5311 -166.490163 
L 908.870813 -152.920294 
L 914.210526 -161.374512 
L 919.550239 -152.740493 
L 924.889952 -146.438651 
L 930.229665 -150.411626 
L 935.569378 -144.992029 
L 940.909091 -157.955719 
L 946.248804 -141.713117 
L 951.588517 -133.224656 
L 956.92823 -141.46377 
L 962.267943 -133.852147 
L 967.607656 -115.680234 
L 972.947368 -99.249736 
L 978.287081 -111.386737 
L 983.626794 -132.800513 
L 988.966507 -161.106741 
L 994.30622 -184.448384 
L 999.645933 -192.411716 
L 1004.985646 -184.317874 
L 1010.325359 -185.224723 
L 1015.665072 -186.222128 
L 1021.004785 -183.4471 
L 1026.344498 -178.047908 
L 1031.684211 -160.393633 
L 1037.023923 -149.876018 
L 1042.363636 -155.669795 
L 1047.703349 -137.837482 
L 1053.043062 -129.649356 
L 1058.382775 -145.94738 
L 1063.722488 -115.180902 
L 1069.062201 -114.100297 
L 1074.401914 -102.709809 
L 1079.741627 -77.583014 
L 1085.08134 -82.637996 
L 1090.421053 -80.520781 
L 1095.760766 -80.311614 
L 1101.100478 -114.615265 
L 1106.440191 -97.767979 
L 1111.779904 -94.551707 
L 1117.119617 -125.907204 
L 1122.45933 -136.933824 
L 1127.799043 -157.413427 
L 1133.138756 -178.523291 
L 1138.478469 -186.831631 
L 1143.818182 -190.527062 
L 1149.157895 -186.365183 
L 1154.497608 -179.54152 
L 1159.837321 -173.035726 
L 1165.177033 -178.974154 
L 1170.516746 -171.601415 
L 1175.856459 -151.700196 
L 1181.196172 -139.792539 
L 1186.535885 -150.487789 
L 1191.875598 -162.296828 
L 1197.215311 -153.377439 
L 1202.555024 -139.852579 
L 1207.894737 -135.68405 
L 1213.23445 -118.056344 
L 1218.574163 -109.349001 
L 1223.913876 -91.264902 
L 1229.253589 -87.762809 
L 1234.593301 -99.626754 
L 1239.933014 -141.099616 
L 1245.272727 -163.509151 
L 1245.272727 -258.130938 
L 1245.272727 -258.130938 
L 1239.933014 -235.721403 
L 1234.593301 -194.24854 
L 1229.253589 -182.384583 
L 1223.913876 -185.886676 
L 1218.574163 -203.970787 
L 1213.23445 -212.67813 
L 1207.894737 -230.305836 
L 1202.555024 -234.474366 
L 1197.215311 -247.999225 
L 1191.875598 -256.918615 
L 1186.535885 -245.109575 
L 1181.196172 -234.414326 
L 1175.856459 -246.321982 
L 1170.516746 -266.223201 
L 1165.177033 -273.595941 
L 1159.837321 -267.657513 
L 1154.497608 -274.163307 
L 1149.157895 -280.986969 
L 1143.818182 -285.148848 
L 1138.478469 -281.453418 
L 1133.138756 -273.145077 
L 1127.799043 -252.035213 
L 1122.45933 -231.555611 
L 1117.119617 -220.52899 
L 1111.779904 -189.173481 
L 1106.440191 -192.389749 
L 1101.100478 -209.237051 
L 1095.760766 -174.933397 
L 1090.421053 -175.142554 
L 1085.08134 -177.259778 
L 1079.741627 -172.204788 
L 1074.401914 -197.331578 
L 1069.062201 -208.722084 
L 1063.722488 -209.802688 
L 1058.382775 -240.569166 
L 1053.043062 -224.271143 
L 1047.703349 -232.459269 
L 1042.363636 -250.291582 
L 1037.023923 -244.497804 
L 1031.684211 -255.015419 
L 1026.344498 -272.669694 
L 1021.004785 -278.068886 
L 1015.665072 -280.843914 
L 1010.325359 -279.84651 
L 1004.985646 -278.939661 
L 999.645933 -287.033503 
L 994.30622 -279.07017 
L 988.966507 -255.728527 
L 983.626794 -227.422299 
L 978.287081 -206.008523 
L 972.947368 -193.871522 
L 967.607656 -210.302003 
L 962.267943 -228.473933 
L 956.92823 -236.085557 
L 951.588517 -227.846443 
L 946.248804 -236.334903 
L 940.909091 -252.577505 
L 935.569378 -239.613815 
L 930.229665 -245.033412 
L 924.889952 -241.060437 
L 919.550239 -247.36228 
L 914.210526 -255.996298 
L 908.870813 -247.542081 
L 903.5311 -261.11195 
L 898.191388 -275.202143 
L 892.851675 -273.794753 
L 887.511962 -277.158073 
L 882.172249 -276.142413 
L 876.832536 -282.648275 
L 871.492823 -271.329649 
L 866.15311 -247.987268 
L 860.813397 -230.133307 
L 855.473684 -217.43596 
L 850.133971 -185.236412 
L 844.794258 -172.12441 
L 839.454545 -186.605226 
L 834.114833 -188.542195 
L 828.77512 -161.982319 
L 823.435407 -146.821782 
L 818.095694 -219.337241 
L 812.755981 -215.110787 
L 807.416268 -206.587327 
L 802.076555 -248.781661 
L 796.736842 -255.45498 
L 791.397129 -244.769051 
L 786.057416 -241.525475 
L 780.717703 -255.696551 
L 775.37799 -284.183722 
L 770.038278 -287.663966 
L 764.698565 -291.333314 
L 759.358852 -296.365162 
L 754.019139 -281.948182 
L 748.679426 -285.089597 
L 743.339713 -283.702176 
L 738 -282.768859 
L 732.660287 -260.155204 
L 727.320574 -211.139962 
L 721.980861 -212.691347 
L 716.641148 -190.88967 
L 711.301435 -198.996881 
L 705.961722 -218.369209 
L 700.62201 -232.249473 
L 695.282297 -224.682959 
L 689.942584 -232.406501 
L 684.602871 -231.890693 
L 679.263158 -230.482396 
L 673.923445 -241.558342 
L 668.583732 -250.468914 
L 663.244019 -245.041524 
L 657.904306 -261.42048 
L 652.564593 -270.923493 
L 647.22488 -276.210532 
L 641.885167 -291.514745 
L 636.545455 -293.442359 
L 631.205742 -304.2 
L 625.866029 -294.280553 
L 620.526316 -286.837696 
L 615.186603 -284.687488 
L 609.84689 -278.580663 
L 604.507177 -259.34237 
L 599.167464 -228.541833 
L 593.827751 -222.307571 
L 588.488038 -205.824372 
L 583.148325 -166.163293 
L 577.808612 -192.965815 
L 572.4689 -198.014524 
L 567.129187 -211.938772 
L 561.789474 -210.210054 
L 556.449761 -212.726162 
L 551.110048 -213.695856 
L 545.770335 -233.447974 
L 540.430622 -247.279366 
L 535.090909 -265.406353 
L 529.751196 -261.596217 
L 524.411483 -273.746217 
L 519.07177 -275.425089 
L 513.732057 -279.073865 
L 508.392344 -277.714255 
L 503.052632 -278.052226 
L 497.712919 -282.307398 
L 492.373206 -281.757582 
L 487.033493 -273.311678 
L 481.69378 -242.759144 
L 476.354067 -226.81251 
L 471.014354 -210.539342 
L 465.674641 -220.393493 
L 460.334928 -207.932813 
L 454.995215 -215.96072 
L 449.655502 -232.256123 
L 444.315789 -226.333902 
L 438.976077 -220.248103 
L 433.636364 -215.823811 
L 428.296651 -209.542122 
L 422.956938 -225.346558 
L 417.617225 -247.252898 
L 412.277512 -236.39879 
L 406.937799 -231.206639 
L 401.598086 -233.890356 
L 396.258373 -240.078148 
L 390.91866 -260.835144 
L 385.578947 -271.833667 
L 380.239234 -280.795781 
L 374.899522 -277.905174 
L 369.559809 -277.191847 
L 364.220096 -273.419028 
L 358.880383 -264.712458 
L 353.54067 -251.036835 
L 348.200957 -230.759555 
L 342.861244 -203.656446 
L 337.521531 -191.170893 
L 332.181818 -168.911249 
L 326.842105 -157.939865 
L 321.502392 -158.480562 
L 316.162679 -163.251105 
L 310.822967 -166.41489 
L 305.483254 -181.066556 
L 300.143541 -189.345372 
L 294.803828 -177.874136 
L 289.464115 -208.275805 
L 284.124402 -218.686473 
L 278.784689 -236.206611 
L 273.444976 -240.29278 
L 268.105263 -240.479215 
L 262.76555 -236.007664 
L 257.425837 -236.149291 
L 252.086124 -234.106114 
L 246.746411 -238.654433 
L 241.406699 -241.212007 
L 236.066986 -251.813275 
L 230.727273 -258.539832 
z
" style="stroke: #0000ff; stroke-opacity: 0.05"/>
    </defs>
    <g clip-path="url(#p9316069e9d)">
     <use xlink:href="#m4858f6ba40" x="0" y="360" style="fill: #0000ff; fill-opacity: 0.05; stroke: #0000ff; stroke-opacity: 0.05"/>
    </g>
   </g>
   <g id="matplotlib.axis_1">
    <g id="xtick_1">
     <g id="line2d_1">
      <defs>
       <path id="m9a3290257a" d="M 0 0 
L 0 3.5 
" style="stroke: #000000; stroke-width: 0.8"/>
      </defs>
      <g>
       <use xlink:href="#m9a3290257a" x="230.727273" y="320.4" style="stroke: #000000; stroke-width: 0.8"/>
      </g>
     </g>
     <g id="text_1">
      <!-- 0 -->
      <g transform="translate(227.546023 334.998438) scale(0.1 -0.1)">
       <defs>
        <path id="DejaVuSans-30" d="M 2034 4250 
Q 1547 4250 1301 3770 
Q 1056 3291 1056 2328 
Q 1056 1369 1301 889 
Q 1547 409 2034 409 
Q 2525 409 2770 889 
Q 3016 1369 3016 2328 
Q 3016 3291 2770 3770 
Q 2525 4250 2034 4250 
z
M 2034 4750 
Q 2819 4750 3233 4129 
Q 3647 3509 3647 2328 
Q 3647 1150 3233 529 
Q 2819 -91 2034 -91 
Q 1250 -91 836 529 
Q 422 1150 422 2328 
Q 422 3509 836 4129 
Q 1250 4750 2034 4750 
z
" transform="scale(0.015625)"/>
       </defs>
       <use xlink:href="#DejaVuSans-30"/>
      </g>
     </g>
    </g>
    <g id="xtick_2">
     <g id="line2d_2">
      <g>
       <use xlink:href="#m9a3290257a" x="364.220096" y="320.4" style="stroke: #000000; stroke-width: 0.8"/>
      </g>
     </g>
     <g id="text_2">
      <!-- 25 -->
      <g transform="translate(357.857596 334.998438) scale(0.1 -0.1)">
       <defs>
        <path id="DejaVuSans-32" d="M 1228 531 
L 3431 531 
L 3431 0 
L 469 0 
L 469 531 
Q 828 903 1448 1529 
Q 2069 2156 2228 2338 
Q 2531 2678 2651 2914 
Q 2772 3150 2772 3378 
Q 2772 3750 2511 3984 
Q 2250 4219 1831 4219 
Q 1534 4219 1204 4116 
Q 875 4013 500 3803 
L 500 4441 
Q 881 4594 1212 4672 
Q 1544 4750 1819 4750 
Q 2544 4750 2975 4387 
Q 3406 4025 3406 3419 
Q 3406 3131 3298 2873 
Q 3191 2616 2906 2266 
Q 2828 2175 2409 1742 
Q 1991 1309 1228 531 
z
" transform="scale(0.015625)"/>
        <path id="DejaVuSans-35" d="M 691 4666 
L 3169 4666 
L 3169 4134 
L 1269 4134 
L 1269 2991 
Q 1406 3038 1543 3061 
Q 1681 3084 1819 3084 
Q 2600 3084 3056 2656 
Q 3513 2228 3513 1497 
Q 3513 744 3044 326 
Q 2575 -91 1722 -91 
Q 1428 -91 1123 -41 
Q 819 9 494 109 
L 494 744 
Q 775 591 1075 516 
Q 1375 441 1709 441 
Q 2250 441 2565 725 
Q 2881 1009 2881 1497 
Q 2881 1984 2565 2268 
Q 2250 2553 1709 2553 
Q 1456 2553 1204 2497 
Q 953 2441 691 2322 
L 691 4666 
z
" transform="scale(0.015625)"/>
       </defs>
       <use xlink:href="#DejaVuSans-32"/>
       <use xlink:href="#DejaVuSans-35" x="63.623047"/>
      </g>
     </g>
    </g>
    <g id="xtick_3">
     <g id="line2d_3">
      <g>
       <use xlink:href="#m9a3290257a" x="497.712919" y="320.4" style="stroke: #000000; stroke-width: 0.8"/>
      </g>
     </g>
     <g id="text_3">
      <!-- 50 -->
      <g transform="translate(491.350419 334.998438) scale(0.1 -0.1)">
       <use xlink:href="#DejaVuSans-35"/>
       <use xlink:href="#DejaVuSans-30" x="63.623047"/>
      </g>
     </g>
    </g>
    <g id="xtick_4">
     <g id="line2d_4">
      <g>
       <use xlink:href="#m9a3290257a" x="631.205742" y="320.4" style="stroke: #000000; stroke-width: 0.8"/>
      </g>
     </g>
     <g id="text_4">
      <!-- 75 -->
      <g transform="translate(624.843242 334.998438) scale(0.1 -0.1)">
       <defs>
        <path id="DejaVuSans-37" d="M 525 4666 
L 3525 4666 
L 3525 4397 
L 1831 0 
L 1172 0 
L 2766 4134 
L 525 4134 
L 525 4666 
z
" transform="scale(0.015625)"/>
       </defs>
       <use xlink:href="#DejaVuSans-37"/>
       <use xlink:href="#DejaVuSans-35" x="63.623047"/>
      </g>
     </g>
    </g>
    <g id="xtick_5">
     <g id="line2d_5">
      <g>
       <use xlink:href="#m9a3290257a" x="764.698565" y="320.4" style="stroke: #000000; stroke-width: 0.8"/>
      </g>
     </g>
     <g id="text_5">
      <!-- 100 -->
      <g transform="translate(755.154815 334.998438) scale(0.1 -0.1)">
       <defs>
        <path id="DejaVuSans-31" d="M 794 531 
L 1825 531 
L 1825 4091 
L 703 3866 
L 703 4441 
L 1819 4666 
L 2450 4666 
L 2450 531 
L 3481 531 
L 3481 0 
L 794 0 
L 794 531 
z
" transform="scale(0.015625)"/>
       </defs>
       <use xlink:href="#DejaVuSans-31"/>
       <use xlink:href="#DejaVuSans-30" x="63.623047"/>
       <use xlink:href="#DejaVuSans-30" x="127.246094"/>
      </g>
     </g>
    </g>
    <g id="xtick_6">
     <g id="line2d_6">
      <g>
       <use xlink:href="#m9a3290257a" x="898.191388" y="320.4" style="stroke: #000000; stroke-width: 0.8"/>
      </g>
     </g>
     <g id="text_6">
      <!-- 125 -->
      <g transform="translate(888.647638 334.998438) scale(0.1 -0.1)">
       <use xlink:href="#DejaVuSans-31"/>
       <use xlink:href="#DejaVuSans-32" x="63.623047"/>
       <use xlink:href="#DejaVuSans-35" x="127.246094"/>
      </g>
     </g>
    </g>
    <g id="xtick_7">
     <g id="line2d_7">
      <g>
       <use xlink:href="#m9a3290257a" x="1031.684211" y="320.4" style="stroke: #000000; stroke-width: 0.8"/>
      </g>
     </g>
     <g id="text_7">
      <!-- 150 -->
      <g transform="translate(1022.140461 334.998438) scale(0.1 -0.1)">
       <use xlink:href="#DejaVuSans-31"/>
       <use xlink:href="#DejaVuSans-35" x="63.623047"/>
       <use xlink:href="#DejaVuSans-30" x="127.246094"/>
      </g>
     </g>
    </g>
    <g id="xtick_8">
     <g id="line2d_8">
      <g>
       <use xlink:href="#m9a3290257a" x="1165.177033" y="320.4" style="stroke: #000000; stroke-width: 0.8"/>
      </g>
     </g>
     <g id="text_8">
      <!-- 175 -->
      <g transform="translate(1155.633283 334.998438) scale(0.1 -0.1)">
       <use xlink:href="#DejaVuSans-31"/>
       <use xlink:href="#DejaVuSans-37" x="63.623047"/>
       <use xlink:href="#DejaVuSans-35" x="127.246094"/>
      </g>
     </g>
    </g>
    <g id="text_9">
     <!-- Amostras -->
     <g transform="translate(714.360937 348.676562) scale(0.1 -0.1)">
      <defs>
       <path id="DejaVuSans-41" d="M 2188 4044 
L 1331 1722 
L 3047 1722 
L 2188 4044 
z
M 1831 4666 
L 2547 4666 
L 4325 0 
L 3669 0 
L 3244 1197 
L 1141 1197 
L 716 0 
L 50 0 
L 1831 4666 
z
" transform="scale(0.015625)"/>
       <path id="DejaVuSans-6d" d="M 3328 2828 
Q 3544 3216 3844 3400 
Q 4144 3584 4550 3584 
Q 5097 3584 5394 3201 
Q 5691 2819 5691 2113 
L 5691 0 
L 5113 0 
L 5113 2094 
Q 5113 2597 4934 2840 
Q 4756 3084 4391 3084 
Q 3944 3084 3684 2787 
Q 3425 2491 3425 1978 
L 3425 0 
L 2847 0 
L 2847 2094 
Q 2847 2600 2669 2842 
Q 2491 3084 2119 3084 
Q 1678 3084 1418 2786 
Q 1159 2488 1159 1978 
L 1159 0 
L 581 0 
L 581 3500 
L 1159 3500 
L 1159 2956 
Q 1356 3278 1631 3431 
Q 1906 3584 2284 3584 
Q 2666 3584 2933 3390 
Q 3200 3197 3328 2828 
z
" transform="scale(0.015625)"/>
       <path id="DejaVuSans-6f" d="M 1959 3097 
Q 1497 3097 1228 2736 
Q 959 2375 959 1747 
Q 959 1119 1226 758 
Q 1494 397 1959 397 
Q 2419 397 2687 759 
Q 2956 1122 2956 1747 
Q 2956 2369 2687 2733 
Q 2419 3097 1959 3097 
z
M 1959 3584 
Q 2709 3584 3137 3096 
Q 3566 2609 3566 1747 
Q 3566 888 3137 398 
Q 2709 -91 1959 -91 
Q 1206 -91 779 398 
Q 353 888 353 1747 
Q 353 2609 779 3096 
Q 1206 3584 1959 3584 
z
" transform="scale(0.015625)"/>
       <path id="DejaVuSans-73" d="M 2834 3397 
L 2834 2853 
Q 2591 2978 2328 3040 
Q 2066 3103 1784 3103 
Q 1356 3103 1142 2972 
Q 928 2841 928 2578 
Q 928 2378 1081 2264 
Q 1234 2150 1697 2047 
L 1894 2003 
Q 2506 1872 2764 1633 
Q 3022 1394 3022 966 
Q 3022 478 2636 193 
Q 2250 -91 1575 -91 
Q 1294 -91 989 -36 
Q 684 19 347 128 
L 347 722 
Q 666 556 975 473 
Q 1284 391 1588 391 
Q 1994 391 2212 530 
Q 2431 669 2431 922 
Q 2431 1156 2273 1281 
Q 2116 1406 1581 1522 
L 1381 1569 
Q 847 1681 609 1914 
Q 372 2147 372 2553 
Q 372 3047 722 3315 
Q 1072 3584 1716 3584 
Q 2034 3584 2315 3537 
Q 2597 3491 2834 3397 
z
" transform="scale(0.015625)"/>
       <path id="DejaVuSans-74" d="M 1172 4494 
L 1172 3500 
L 2356 3500 
L 2356 3053 
L 1172 3053 
L 1172 1153 
Q 1172 725 1289 603 
Q 1406 481 1766 481 
L 2356 481 
L 2356 0 
L 1766 0 
Q 1100 0 847 248 
Q 594 497 594 1153 
L 594 3053 
L 172 3053 
L 172 3500 
L 594 3500 
L 594 4494 
L 1172 4494 
z
" transform="scale(0.015625)"/>
       <path id="DejaVuSans-72" d="M 2631 2963 
Q 2534 3019 2420 3045 
Q 2306 3072 2169 3072 
Q 1681 3072 1420 2755 
Q 1159 2438 1159 1844 
L 1159 0 
L 581 0 
L 581 3500 
L 1159 3500 
L 1159 2956 
Q 1341 3275 1631 3429 
Q 1922 3584 2338 3584 
Q 2397 3584 2469 3576 
Q 2541 3569 2628 3553 
L 2631 2963 
z
" transform="scale(0.015625)"/>
       <path id="DejaVuSans-61" d="M 2194 1759 
Q 1497 1759 1228 1600 
Q 959 1441 959 1056 
Q 959 750 1161 570 
Q 1363 391 1709 391 
Q 2188 391 2477 730 
Q 2766 1069 2766 1631 
L 2766 1759 
L 2194 1759 
z
M 3341 1997 
L 3341 0 
L 2766 0 
L 2766 531 
Q 2569 213 2275 61 
Q 1981 -91 1556 -91 
Q 1019 -91 701 211 
Q 384 513 384 1019 
Q 384 1609 779 1909 
Q 1175 2209 1959 2209 
L 2766 2209 
L 2766 2266 
Q 2766 2663 2505 2880 
Q 2244 3097 1772 3097 
Q 1472 3097 1187 3025 
Q 903 2953 641 2809 
L 641 3341 
Q 956 3463 1253 3523 
Q 1550 3584 1831 3584 
Q 2591 3584 2966 3190 
Q 3341 2797 3341 1997 
z
" transform="scale(0.015625)"/>
      </defs>
      <use xlink:href="#DejaVuSans-41"/>
      <use xlink:href="#DejaVuSans-6d" x="68.408203"/>
      <use xlink:href="#DejaVuSans-6f" x="165.820312"/>
      <use xlink:href="#DejaVuSans-73" x="227.001953"/>
      <use xlink:href="#DejaVuSans-74" x="279.101562"/>
      <use xlink:href="#DejaVuSans-72" x="318.310547"/>
      <use xlink:href="#DejaVuSans-61" x="359.423828"/>
      <use xlink:href="#DejaVuSans-73" x="420.703125"/>
     </g>
    </g>
   </g>
   <g id="matplotlib.axis_2">
    <g id="ytick_1">
     <g id="line2d_9">
      <defs>
       <path id="m15c6a8f9ca" d="M 0 0 
L -3.5 0 
" style="stroke: #000000; stroke-width: 0.8"/>
      </defs>
      <g>
       <use xlink:href="#m15c6a8f9ca" x="180" y="298.624298" style="stroke: #000000; stroke-width: 0.8"/>
      </g>
     </g>
     <g id="text_10">
      <!-- 2 -->
      <g transform="translate(166.6375 302.423517) scale(0.1 -0.1)">
       <use xlink:href="#DejaVuSans-32"/>
      </g>
     </g>
    </g>
    <g id="ytick_2">
     <g id="line2d_10">
      <g>
       <use xlink:href="#m15c6a8f9ca" x="180" y="263.403819" style="stroke: #000000; stroke-width: 0.8"/>
      </g>
     </g>
     <g id="text_11">
      <!-- 4 -->
      <g transform="translate(166.6375 267.203037) scale(0.1 -0.1)">
       <defs>
        <path id="DejaVuSans-34" d="M 2419 4116 
L 825 1625 
L 2419 1625 
L 2419 4116 
z
M 2253 4666 
L 3047 4666 
L 3047 1625 
L 3713 1625 
L 3713 1100 
L 3047 1100 
L 3047 0 
L 2419 0 
L 2419 1100 
L 313 1100 
L 313 1709 
L 2253 4666 
z
" transform="scale(0.015625)"/>
       </defs>
       <use xlink:href="#DejaVuSans-34"/>
      </g>
     </g>
    </g>
    <g id="ytick_3">
     <g id="line2d_11">
      <g>
       <use xlink:href="#m15c6a8f9ca" x="180" y="228.183339" style="stroke: #000000; stroke-width: 0.8"/>
      </g>
     </g>
     <g id="text_12">
      <!-- 6 -->
      <g transform="translate(166.6375 231.982557) scale(0.1 -0.1)">
       <defs>
        <path id="DejaVuSans-36" d="M 2113 2584 
Q 1688 2584 1439 2293 
Q 1191 2003 1191 1497 
Q 1191 994 1439 701 
Q 1688 409 2113 409 
Q 2538 409 2786 701 
Q 3034 994 3034 1497 
Q 3034 2003 2786 2293 
Q 2538 2584 2113 2584 
z
M 3366 4563 
L 3366 3988 
Q 3128 4100 2886 4159 
Q 2644 4219 2406 4219 
Q 1781 4219 1451 3797 
Q 1122 3375 1075 2522 
Q 1259 2794 1537 2939 
Q 1816 3084 2150 3084 
Q 2853 3084 3261 2657 
Q 3669 2231 3669 1497 
Q 3669 778 3244 343 
Q 2819 -91 2113 -91 
Q 1303 -91 875 529 
Q 447 1150 447 2328 
Q 447 3434 972 4092 
Q 1497 4750 2381 4750 
Q 2619 4750 2861 4703 
Q 3103 4656 3366 4563 
z
" transform="scale(0.015625)"/>
       </defs>
       <use xlink:href="#DejaVuSans-36"/>
      </g>
     </g>
    </g>
    <g id="ytick_4">
     <g id="line2d_12">
      <g>
       <use xlink:href="#m15c6a8f9ca" x="180" y="192.962859" style="stroke: #000000; stroke-width: 0.8"/>
      </g>
     </g>
     <g id="text_13">
      <!-- 8 -->
      <g transform="translate(166.6375 196.762078) scale(0.1 -0.1)">
       <defs>
        <path id="DejaVuSans-38" d="M 2034 2216 
Q 1584 2216 1326 1975 
Q 1069 1734 1069 1313 
Q 1069 891 1326 650 
Q 1584 409 2034 409 
Q 2484 409 2743 651 
Q 3003 894 3003 1313 
Q 3003 1734 2745 1975 
Q 2488 2216 2034 2216 
z
M 1403 2484 
Q 997 2584 770 2862 
Q 544 3141 544 3541 
Q 544 4100 942 4425 
Q 1341 4750 2034 4750 
Q 2731 4750 3128 4425 
Q 3525 4100 3525 3541 
Q 3525 3141 3298 2862 
Q 3072 2584 2669 2484 
Q 3125 2378 3379 2068 
Q 3634 1759 3634 1313 
Q 3634 634 3220 271 
Q 2806 -91 2034 -91 
Q 1263 -91 848 271 
Q 434 634 434 1313 
Q 434 1759 690 2068 
Q 947 2378 1403 2484 
z
M 1172 3481 
Q 1172 3119 1398 2916 
Q 1625 2713 2034 2713 
Q 2441 2713 2670 2916 
Q 2900 3119 2900 3481 
Q 2900 3844 2670 4047 
Q 2441 4250 2034 4250 
Q 1625 4250 1398 4047 
Q 1172 3844 1172 3481 
z
" transform="scale(0.015625)"/>
       </defs>
       <use xlink:href="#DejaVuSans-38"/>
      </g>
     </g>
    </g>
    <g id="ytick_5">
     <g id="line2d_13">
      <g>
       <use xlink:href="#m15c6a8f9ca" x="180" y="157.742379" style="stroke: #000000; stroke-width: 0.8"/>
      </g>
     </g>
     <g id="text_14">
      <!-- 10 -->
      <g transform="translate(160.275 161.541598) scale(0.1 -0.1)">
       <use xlink:href="#DejaVuSans-31"/>
       <use xlink:href="#DejaVuSans-30" x="63.623047"/>
      </g>
     </g>
    </g>
    <g id="ytick_6">
     <g id="line2d_14">
      <g>
       <use xlink:href="#m15c6a8f9ca" x="180" y="122.521899" style="stroke: #000000; stroke-width: 0.8"/>
      </g>
     </g>
     <g id="text_15">
      <!-- 12 -->
      <g transform="translate(160.275 126.321118) scale(0.1 -0.1)">
       <use xlink:href="#DejaVuSans-31"/>
       <use xlink:href="#DejaVuSans-32" x="63.623047"/>
      </g>
     </g>
    </g>
    <g id="ytick_7">
     <g id="line2d_15">
      <g>
       <use xlink:href="#m15c6a8f9ca" x="180" y="87.30142" style="stroke: #000000; stroke-width: 0.8"/>
      </g>
     </g>
     <g id="text_16">
      <!-- 14 -->
      <g transform="translate(160.275 91.100638) scale(0.1 -0.1)">
       <use xlink:href="#DejaVuSans-31"/>
       <use xlink:href="#DejaVuSans-34" x="63.623047"/>
      </g>
     </g>
    </g>
    <g id="ytick_8">
     <g id="line2d_16">
      <g>
       <use xlink:href="#m15c6a8f9ca" x="180" y="52.08094" style="stroke: #000000; stroke-width: 0.8"/>
      </g>
     </g>
     <g id="text_17">
      <!-- 16 -->
      <g transform="translate(160.275 55.880159) scale(0.1 -0.1)">
       <use xlink:href="#DejaVuSans-31"/>
       <use xlink:href="#DejaVuSans-36" x="63.623047"/>
      </g>
     </g>
    </g>
    <g id="text_18">
     <!-- Velocidade do Vento (m/s) -->
     <g transform="translate(154.195312 247.344531) rotate(-90) scale(0.1 -0.1)">
      <defs>
       <path id="DejaVuSans-56" d="M 1831 0 
L 50 4666 
L 709 4666 
L 2188 738 
L 3669 4666 
L 4325 4666 
L 2547 0 
L 1831 0 
z
" transform="scale(0.015625)"/>
       <path id="DejaVuSans-65" d="M 3597 1894 
L 3597 1613 
L 953 1613 
Q 991 1019 1311 708 
Q 1631 397 2203 397 
Q 2534 397 2845 478 
Q 3156 559 3463 722 
L 3463 178 
Q 3153 47 2828 -22 
Q 2503 -91 2169 -91 
Q 1331 -91 842 396 
Q 353 884 353 1716 
Q 353 2575 817 3079 
Q 1281 3584 2069 3584 
Q 2775 3584 3186 3129 
Q 3597 2675 3597 1894 
z
M 3022 2063 
Q 3016 2534 2758 2815 
Q 2500 3097 2075 3097 
Q 1594 3097 1305 2825 
Q 1016 2553 972 2059 
L 3022 2063 
z
" transform="scale(0.015625)"/>
       <path id="DejaVuSans-6c" d="M 603 4863 
L 1178 4863 
L 1178 0 
L 603 0 
L 603 4863 
z
" transform="scale(0.015625)"/>
       <path id="DejaVuSans-63" d="M 3122 3366 
L 3122 2828 
Q 2878 2963 2633 3030 
Q 2388 3097 2138 3097 
Q 1578 3097 1268 2742 
Q 959 2388 959 1747 
Q 959 1106 1268 751 
Q 1578 397 2138 397 
Q 2388 397 2633 464 
Q 2878 531 3122 666 
L 3122 134 
Q 2881 22 2623 -34 
Q 2366 -91 2075 -91 
Q 1284 -91 818 406 
Q 353 903 353 1747 
Q 353 2603 823 3093 
Q 1294 3584 2113 3584 
Q 2378 3584 2631 3529 
Q 2884 3475 3122 3366 
z
" transform="scale(0.015625)"/>
       <path id="DejaVuSans-69" d="M 603 3500 
L 1178 3500 
L 1178 0 
L 603 0 
L 603 3500 
z
M 603 4863 
L 1178 4863 
L 1178 4134 
L 603 4134 
L 603 4863 
z
" transform="scale(0.015625)"/>
       <path id="DejaVuSans-64" d="M 2906 2969 
L 2906 4863 
L 3481 4863 
L 3481 0 
L 2906 0 
L 2906 525 
Q 2725 213 2448 61 
Q 2172 -91 1784 -91 
Q 1150 -91 751 415 
Q 353 922 353 1747 
Q 353 2572 751 3078 
Q 1150 3584 1784 3584 
Q 2172 3584 2448 3432 
Q 2725 3281 2906 2969 
z
M 947 1747 
Q 947 1113 1208 752 
Q 1469 391 1925 391 
Q 2381 391 2643 752 
Q 2906 1113 2906 1747 
Q 2906 2381 2643 2742 
Q 2381 3103 1925 3103 
Q 1469 3103 1208 2742 
Q 947 2381 947 1747 
z
" transform="scale(0.015625)"/>
       <path id="DejaVuSans-20" transform="scale(0.015625)"/>
       <path id="DejaVuSans-6e" d="M 3513 2113 
L 3513 0 
L 2938 0 
L 2938 2094 
Q 2938 2591 2744 2837 
Q 2550 3084 2163 3084 
Q 1697 3084 1428 2787 
Q 1159 2491 1159 1978 
L 1159 0 
L 581 0 
L 581 3500 
L 1159 3500 
L 1159 2956 
Q 1366 3272 1645 3428 
Q 1925 3584 2291 3584 
Q 2894 3584 3203 3211 
Q 3513 2838 3513 2113 
z
" transform="scale(0.015625)"/>
       <path id="DejaVuSans-28" d="M 1984 4856 
Q 1566 4138 1362 3434 
Q 1159 2731 1159 2009 
Q 1159 1288 1364 580 
Q 1569 -128 1984 -844 
L 1484 -844 
Q 1016 -109 783 600 
Q 550 1309 550 2009 
Q 550 2706 781 3412 
Q 1013 4119 1484 4856 
L 1984 4856 
z
" transform="scale(0.015625)"/>
       <path id="DejaVuSans-2f" d="M 1625 4666 
L 2156 4666 
L 531 -594 
L 0 -594 
L 1625 4666 
z
" transform="scale(0.015625)"/>
       <path id="DejaVuSans-29" d="M 513 4856 
L 1013 4856 
Q 1481 4119 1714 3412 
Q 1947 2706 1947 2009 
Q 1947 1309 1714 600 
Q 1481 -109 1013 -844 
L 513 -844 
Q 928 -128 1133 580 
Q 1338 1288 1338 2009 
Q 1338 2731 1133 3434 
Q 928 4138 513 4856 
z
" transform="scale(0.015625)"/>
      </defs>
      <use xlink:href="#DejaVuSans-56"/>
      <use xlink:href="#DejaVuSans-65" x="60.658203"/>
      <use xlink:href="#DejaVuSans-6c" x="122.181641"/>
      <use xlink:href="#DejaVuSans-6f" x="149.964844"/>
      <use xlink:href="#DejaVuSans-63" x="211.146484"/>
      <use xlink:href="#DejaVuSans-69" x="266.126953"/>
      <use xlink:href="#DejaVuSans-64" x="293.910156"/>
      <use xlink:href="#DejaVuSans-61" x="357.386719"/>
      <use xlink:href="#DejaVuSans-64" x="418.666016"/>
      <use xlink:href="#DejaVuSans-65" x="482.142578"/>
      <use xlink:href="#DejaVuSans-20" x="543.666016"/>
      <use xlink:href="#DejaVuSans-64" x="575.453125"/>
      <use xlink:href="#DejaVuSans-6f" x="638.929688"/>
      <use xlink:href="#DejaVuSans-20" x="700.111328"/>
      <use xlink:href="#DejaVuSans-56" x="731.898438"/>
      <use xlink:href="#DejaVuSans-65" x="792.556641"/>
      <use xlink:href="#DejaVuSans-6e" x="854.080078"/>
      <use xlink:href="#DejaVuSans-74" x="917.458984"/>
      <use xlink:href="#DejaVuSans-6f" x="956.667969"/>
      <use xlink:href="#DejaVuSans-20" x="1017.849609"/>
      <use xlink:href="#DejaVuSans-28" x="1049.636719"/>
      <use xlink:href="#DejaVuSans-6d" x="1088.650391"/>
      <use xlink:href="#DejaVuSans-2f" x="1186.0625"/>
      <use xlink:href="#DejaVuSans-73" x="1219.753906"/>
      <use xlink:href="#DejaVuSans-29" x="1271.853516"/>
     </g>
    </g>
   </g>
   <g id="line2d_17">
    <path d="M 230.727273 148.771062 
L 236.066986 155.497618 
L 241.406699 166.098886 
L 246.746411 168.65646 
L 252.086124 173.204779 
L 257.425837 171.161602 
L 262.76555 171.303229 
L 268.105263 166.831678 
L 273.444976 167.018113 
L 278.784689 171.104282 
L 284.124402 188.62442 
L 289.464115 199.035088 
L 294.803828 229.436758 
L 300.143541 217.965513 
L 305.483254 226.244329 
L 310.822967 240.895994 
L 316.162679 244.05978 
L 321.502392 248.830323 
L 326.842105 249.371028 
L 332.181818 238.399636 
L 337.521531 216.139992 
L 342.861244 203.654439 
L 348.200957 176.551339 
L 353.54067 156.274059 
L 358.880383 142.598435 
L 364.220096 133.891865 
L 369.559809 130.119046 
L 374.899522 129.405719 
L 380.239234 126.515112 
L 385.578947 135.477226 
L 390.91866 146.47575 
L 396.258373 167.232746 
L 401.598086 173.420537 
L 406.937799 176.104254 
L 412.277512 170.912104 
L 417.617225 160.057996 
L 422.956938 181.964336 
L 428.296651 197.768771 
L 433.636364 191.487082 
L 438.976077 187.06279 
L 449.655502 175.05477 
L 454.995215 191.350173 
L 460.334928 199.378081 
L 465.674641 186.9174 
L 471.014354 196.771551 
L 481.69378 164.551749 
L 487.033493 133.999215 
L 492.373206 125.553311 
L 497.712919 125.003495 
L 503.052632 129.258667 
L 508.392344 129.596639 
L 513.732057 128.237028 
L 519.07177 131.885804 
L 524.411483 133.564676 
L 529.751196 145.714676 
L 535.090909 141.90454 
L 540.430622 160.031528 
L 545.770335 173.862919 
L 551.110048 193.615029 
L 556.449761 194.584723 
L 561.789474 197.100831 
L 567.129187 195.372121 
L 572.4689 209.296361 
L 577.808612 214.34507 
L 583.148325 241.147592 
L 588.488038 201.486521 
L 593.827751 185.003322 
L 599.167464 178.76906 
L 604.507177 147.968523 
L 609.84689 128.73023 
L 615.186603 122.623405 
L 620.526316 120.473197 
L 625.866029 113.030341 
L 631.205742 103.110893 
L 636.545455 113.868534 
L 641.885167 115.796149 
L 647.22488 131.100362 
L 652.564593 136.387401 
L 657.904306 145.890413 
L 663.244019 162.269369 
L 668.583732 156.841979 
L 673.923445 165.752551 
L 679.263158 176.828497 
L 684.602871 175.4202 
L 689.942584 174.904392 
L 695.282297 182.627934 
L 700.62201 175.06142 
L 705.961722 188.941684 
L 711.301435 208.314004 
L 716.641148 216.421214 
L 721.980861 194.619546 
L 727.320574 196.170932 
L 732.660287 147.155689 
L 738 124.542035 
L 743.339713 123.608718 
L 748.679426 122.221296 
L 754.019139 125.362711 
L 759.358852 110.945732 
L 764.698565 115.977579 
L 770.038278 119.646928 
L 775.37799 123.127171 
L 780.717703 151.614342 
L 786.057416 165.785418 
L 791.397129 162.541842 
L 796.736842 151.855913 
L 802.076555 158.529232 
L 807.416268 200.723558 
L 812.755981 192.200106 
L 818.095694 187.973653 
L 823.435407 260.489111 
L 828.77512 245.328574 
L 834.114833 218.768698 
L 839.454545 220.705659 
L 844.794258 235.186475 
L 850.133971 222.074481 
L 855.473684 189.874934 
L 860.813397 177.177586 
L 866.15311 159.323625 
L 871.492823 135.981244 
L 876.832536 124.662619 
L 882.172249 131.16848 
L 887.511962 130.15282 
L 892.851675 133.51614 
L 898.191388 132.10875 
L 903.5311 146.198944 
L 908.870813 159.768812 
L 914.210526 151.314595 
L 919.550239 159.948614 
L 924.889952 166.250456 
L 930.229665 162.277481 
L 935.569378 167.697078 
L 940.909091 154.733388 
L 946.248804 170.97599 
L 951.588517 179.464451 
L 956.92823 171.225337 
L 962.267943 178.83696 
L 967.607656 197.008882 
L 972.947368 213.439371 
L 978.287081 201.30237 
L 983.626794 179.888594 
L 988.966507 151.582366 
L 994.30622 128.240723 
L 999.645933 120.277391 
L 1004.985646 128.371233 
L 1015.665072 126.466979 
L 1021.004785 129.242007 
L 1026.344498 134.641199 
L 1031.684211 152.295474 
L 1037.023923 162.813089 
L 1042.363636 157.019312 
L 1047.703349 174.851624 
L 1053.043062 183.03975 
L 1058.382775 166.741727 
L 1063.722488 197.508205 
L 1069.062201 198.588809 
L 1074.401914 209.979306 
L 1079.741627 235.106097 
L 1085.08134 230.051115 
L 1090.421053 232.16833 
L 1095.760766 232.377497 
L 1101.100478 198.073842 
L 1106.440191 214.921136 
L 1111.779904 218.137404 
L 1117.119617 186.781903 
L 1122.45933 175.755282 
L 1127.799043 155.27568 
L 1133.138756 134.165816 
L 1138.478469 125.857475 
L 1143.818182 122.162045 
L 1149.157895 126.323924 
L 1154.497608 133.147586 
L 1159.837321 139.65338 
L 1165.177033 133.714953 
L 1170.516746 141.087692 
L 1175.856459 160.988911 
L 1181.196172 172.896568 
L 1186.535885 162.201318 
L 1191.875598 150.392279 
L 1197.215311 159.311668 
L 1202.555024 172.836527 
L 1207.894737 177.005057 
L 1213.23445 194.632763 
L 1218.574163 203.340106 
L 1223.913876 221.424209 
L 1229.253589 224.926302 
L 1234.593301 213.062353 
L 1239.933014 171.58949 
L 1245.272727 149.179956 
L 1245.272727 149.179956 
" clip-path="url(#p9316069e9d)" style="fill: none; stroke: #0000ff; stroke-width: 1.5; stroke-linecap: square"/>
   </g>
   <g id="line2d_18">
    <path d="M 230.727273 170.627204 
L 236.066986 180.029116 
L 241.406699 163.690727 
L 246.746411 182.034727 
L 252.086124 179.539943 
L 257.425837 175.92006 
L 262.76555 169.687992 
L 268.105263 164.639722 
L 273.444976 172.309961 
L 278.784689 197.140399 
L 284.124402 207.716326 
L 289.464115 227.782217 
L 294.803828 216.619281 
L 300.143541 228.222472 
L 305.483254 243.954287 
L 310.822967 247.184531 
L 316.162679 256.359723 
L 321.502392 266.573662 
L 326.842105 264.910473 
L 332.181818 250.851631 
L 337.521531 239.649562 
L 342.861244 194.626048 
L 348.200957 156.07919 
L 353.54067 129.976901 
L 358.880383 105.488884 
L 364.220096 107.582546 
L 369.559809 108.257605 
L 374.899522 106.232427 
L 380.239234 133.802237 
L 385.578947 152.527792 
L 390.91866 181.741223 
L 396.258373 186.036164 
L 401.598086 187.386283 
L 406.937799 176.595119 
L 412.277512 156.852084 
L 417.617225 177.10386 
L 422.956938 194.009689 
L 428.296651 191.593173 
L 433.636364 189.369555 
L 438.976077 185.271855 
L 444.315789 180.968482 
L 449.655502 203.108313 
L 454.995215 213.586407 
L 460.334928 207.755461 
L 465.674641 214.271249 
L 471.014354 212.275422 
L 476.354067 190.732229 
L 481.69378 130.055169 
L 487.033493 91.948566 
L 492.373206 89.150495 
L 497.712919 106.917269 
L 503.052632 122.825186 
L 508.392344 113.022153 
L 513.732057 108.091286 
L 519.07177 119.361839 
L 524.411483 147.724109 
L 529.751196 133.127177 
L 535.090909 158.622891 
L 540.430622 172.280611 
L 545.770335 187.014511 
L 551.110048 191.739925 
L 556.449761 196.895812 
L 561.789474 196.680577 
L 567.129187 210.230678 
L 572.4689 216.53123 
L 577.808612 249.32541 
L 583.148325 216.7856 
L 588.488038 208.058748 
L 593.827751 205.700932 
L 599.167464 167.222558 
L 604.507177 130.11387 
L 609.84689 103.150635 
L 615.186603 64.16352 
L 620.526316 78.153879 
L 625.866029 90.383212 
L 631.205742 108.952232 
L 636.545455 105.214947 
L 641.885167 140.337592 
L 647.22488 138.292847 
L 652.564593 141.814896 
L 657.904306 160.638285 
L 663.244019 149.123145 
L 668.583732 158.613108 
L 673.923445 169.453189 
L 679.263158 168.875964 
L 684.602871 169.932579 
L 689.942584 180.312837 
L 695.282297 176.223348 
L 700.62201 194.420595 
L 705.961722 216.452962 
L 711.301435 230.50202 
L 716.641148 215.846387 
L 721.980861 219.339085 
L 727.320574 165.823522 
L 732.660287 124.801446 
L 738 116.240913 
L 743.339713 103.590891 
L 748.679426 82.458604 
L 754.019139 88.367818 
L 759.358852 96.579009 
L 764.698565 104.579022 
L 770.038278 114.342921 
L 775.37799 164.473404 
L 780.717703 177.886537 
L 786.057416 162.702597 
L 791.397129 138.478733 
L 796.736842 146.73598 
L 802.076555 193.344414 
L 807.416268 244.560861 
L 812.755981 249.638481 
L 818.095694 254.999821 
L 823.435407 244.63913 
L 828.77512 223.44814 
L 834.114833 227.420229 
L 839.454545 247.515469 
L 844.794258 244.771048 
L 850.133971 228.01029 
L 855.473684 212.294989 
L 860.813397 169.697775 
L 866.15311 113.638511 
L 871.492823 90.050574 
L 876.832536 106.682467 
L 882.172249 100.147111 
L 887.511962 99.794906 
L 892.851675 120.584773 
L 898.191388 152.224504 
L 903.5311 170.81309 
L 908.870813 153.633323 
L 914.210526 167.995452 
L 919.550239 170.803307 
L 924.889952 157.488009 
L 930.229665 161.871003 
L 935.569378 151.647279 
L 940.909091 172.153425 
L 946.248804 184.265357 
L 951.588517 179.833446 
L 956.92823 193.725968 
L 962.267943 212.578709 
L 967.607656 234.748045 
L 972.947368 232.360879 
L 978.287081 214.418001 
L 983.626794 174.061201 
L 988.966507 134.653398 
L 994.30622 112.014456 
L 999.645933 140.856115 
L 1004.985646 125.006899 
L 1010.325359 122.815404 
L 1015.665072 136.424205 
L 1021.004785 143.448734 
L 1026.344498 169.648859 
L 1031.684211 185.282838 
L 1037.023923 175.460237 
L 1042.363636 196.729493 
L 1047.703349 202.188668 
L 1053.043062 176.086379 
L 1058.382775 197.101266 
L 1063.722488 197.551305 
L 1069.062201 213.517922 
L 1074.401914 241.293184 
L 1079.741627 240.334404 
L 1085.08134 247.476335 
L 1090.421053 243.983637 
L 1095.760766 214.897391 
L 1101.100478 241.978027 
L 1106.440191 259.59805 
L 1111.779904 229.621508 
L 1117.119617 214.065797 
L 1122.45933 182.465199 
L 1127.799043 135.396941 
L 1133.138756 118.266091 
L 1138.478469 112.435145 
L 1143.818182 118.275874 
L 1149.157895 117.455266 
L 1154.497608 135.422884 
L 1159.837321 137.373201 
L 1165.177033 148.839425 
L 1170.516746 177.475631 
L 1175.856459 191.309452 
L 1181.196172 156.949918 
L 1186.535885 141.364856 
L 1191.875598 153.261552 
L 1197.215311 172.349095 
L 1202.555024 181.946676 
L 1207.894737 203.303983 
L 1213.23445 215.171328 
L 1218.574163 236.215565 
L 1223.913876 243.68035 
L 1229.253589 241.968243 
L 1234.593301 204.047527 
L 1239.933014 150.6885 
L 1245.272727 115.46802 
L 1245.272727 115.46802 
" clip-path="url(#p9316069e9d)" style="fill: none; stroke: #ffa500; stroke-width: 1.5; stroke-linecap: square"/>
   </g>
   <g id="patch_3">
    <path d="M 180 320.4 
L 180 43.2 
" style="fill: none; stroke: #000000; stroke-width: 0.8; stroke-linejoin: miter; stroke-linecap: square"/>
   </g>
   <g id="patch_4">
    <path d="M 1296 320.4 
L 1296 43.2 
" style="fill: none; stroke: #000000; stroke-width: 0.8; stroke-linejoin: miter; stroke-linecap: square"/>
   </g>
   <g id="patch_5">
    <path d="M 180 320.4 
L 1296 320.4 
" style="fill: none; stroke: #000000; stroke-width: 0.8; stroke-linejoin: miter; stroke-linecap: square"/>
   </g>
   <g id="patch_6">
    <path d="M 180 43.2 
L 1296 43.2 
" style="fill: none; stroke: #000000; stroke-width: 0.8; stroke-linejoin: miter; stroke-linecap: square"/>
   </g>
   <g id="text_19">
    <!-- Previsão do vento para 1 hora(s) à frente com 1camadas -->
    <g transform="translate(566.789062 37.2) scale(0.12 -0.12)">
     <defs>
      <path id="DejaVuSans-50" d="M 1259 4147 
L 1259 2394 
L 2053 2394 
Q 2494 2394 2734 2622 
Q 2975 2850 2975 3272 
Q 2975 3691 2734 3919 
Q 2494 4147 2053 4147 
L 1259 4147 
z
M 628 4666 
L 2053 4666 
Q 2838 4666 3239 4311 
Q 3641 3956 3641 3272 
Q 3641 2581 3239 2228 
Q 2838 1875 2053 1875 
L 1259 1875 
L 1259 0 
L 628 0 
L 628 4666 
z
" transform="scale(0.015625)"/>
      <path id="DejaVuSans-76" d="M 191 3500 
L 800 3500 
L 1894 563 
L 2988 3500 
L 3597 3500 
L 2284 0 
L 1503 0 
L 191 3500 
z
" transform="scale(0.015625)"/>
      <path id="DejaVuSans-e3" d="M 2194 1759 
Q 1497 1759 1228 1600 
Q 959 1441 959 1056 
Q 959 750 1161 570 
Q 1363 391 1709 391 
Q 2188 391 2477 730 
Q 2766 1069 2766 1631 
L 2766 1759 
L 2194 1759 
z
M 3341 1997 
L 3341 0 
L 2766 0 
L 2766 531 
Q 2569 213 2275 61 
Q 1981 -91 1556 -91 
Q 1019 -91 701 211 
Q 384 513 384 1019 
Q 384 1609 779 1909 
Q 1175 2209 1959 2209 
L 2766 2209 
L 2766 2266 
Q 2766 2663 2505 2880 
Q 2244 3097 1772 3097 
Q 1472 3097 1187 3025 
Q 903 2953 641 2809 
L 641 3341 
Q 956 3463 1253 3523 
Q 1550 3584 1831 3584 
Q 2591 3584 2966 3190 
Q 3341 2797 3341 1997 
z
M 1844 4281 
L 1666 4453 
Q 1597 4516 1545 4545 
Q 1494 4575 1453 4575 
Q 1334 4575 1278 4461 
Q 1222 4347 1216 4091 
L 825 4091 
Q 831 4513 990 4742 
Q 1150 4972 1434 4972 
Q 1553 4972 1653 4928 
Q 1753 4884 1869 4781 
L 2047 4609 
Q 2116 4547 2167 4517 
Q 2219 4488 2259 4488 
Q 2378 4488 2434 4602 
Q 2491 4716 2497 4972 
L 2888 4972 
Q 2881 4550 2722 4320 
Q 2563 4091 2278 4091 
Q 2159 4091 2059 4134 
Q 1959 4178 1844 4281 
z
" transform="scale(0.015625)"/>
      <path id="DejaVuSans-70" d="M 1159 525 
L 1159 -1331 
L 581 -1331 
L 581 3500 
L 1159 3500 
L 1159 2969 
Q 1341 3281 1617 3432 
Q 1894 3584 2278 3584 
Q 2916 3584 3314 3078 
Q 3713 2572 3713 1747 
Q 3713 922 3314 415 
Q 2916 -91 2278 -91 
Q 1894 -91 1617 61 
Q 1341 213 1159 525 
z
M 3116 1747 
Q 3116 2381 2855 2742 
Q 2594 3103 2138 3103 
Q 1681 3103 1420 2742 
Q 1159 2381 1159 1747 
Q 1159 1113 1420 752 
Q 1681 391 2138 391 
Q 2594 391 2855 752 
Q 3116 1113 3116 1747 
z
" transform="scale(0.015625)"/>
      <path id="DejaVuSans-68" d="M 3513 2113 
L 3513 0 
L 2938 0 
L 2938 2094 
Q 2938 2591 2744 2837 
Q 2550 3084 2163 3084 
Q 1697 3084 1428 2787 
Q 1159 2491 1159 1978 
L 1159 0 
L 581 0 
L 581 4863 
L 1159 4863 
L 1159 2956 
Q 1366 3272 1645 3428 
Q 1925 3584 2291 3584 
Q 2894 3584 3203 3211 
Q 3513 2838 3513 2113 
z
" transform="scale(0.015625)"/>
      <path id="DejaVuSans-e0" d="M 2194 1759 
Q 1497 1759 1228 1600 
Q 959 1441 959 1056 
Q 959 750 1161 570 
Q 1363 391 1709 391 
Q 2188 391 2477 730 
Q 2766 1069 2766 1631 
L 2766 1759 
L 2194 1759 
z
M 3341 1997 
L 3341 0 
L 2766 0 
L 2766 531 
Q 2569 213 2275 61 
Q 1981 -91 1556 -91 
Q 1019 -91 701 211 
Q 384 513 384 1019 
Q 384 1609 779 1909 
Q 1175 2209 1959 2209 
L 2766 2209 
L 2766 2266 
Q 2766 2663 2505 2880 
Q 2244 3097 1772 3097 
Q 1472 3097 1187 3025 
Q 903 2953 641 2809 
L 641 3341 
Q 956 3463 1253 3523 
Q 1550 3584 1831 3584 
Q 2591 3584 2966 3190 
Q 3341 2797 3341 1997 
z
M 1403 5119 
L 2284 3950 
L 1806 3950 
L 788 5119 
L 1403 5119 
z
" transform="scale(0.015625)"/>
      <path id="DejaVuSans-66" d="M 2375 4863 
L 2375 4384 
L 1825 4384 
Q 1516 4384 1395 4259 
Q 1275 4134 1275 3809 
L 1275 3500 
L 2222 3500 
L 2222 3053 
L 1275 3053 
L 1275 0 
L 697 0 
L 697 3053 
L 147 3053 
L 147 3500 
L 697 3500 
L 697 3744 
Q 697 4328 969 4595 
Q 1241 4863 1831 4863 
L 2375 4863 
z
" transform="scale(0.015625)"/>
     </defs>
     <use xlink:href="#DejaVuSans-50"/>
     <use xlink:href="#DejaVuSans-72" x="58.552734"/>
     <use xlink:href="#DejaVuSans-65" x="97.416016"/>
     <use xlink:href="#DejaVuSans-76" x="158.939453"/>
     <use xlink:href="#DejaVuSans-69" x="218.119141"/>
     <use xlink:href="#DejaVuSans-73" x="245.902344"/>
     <use xlink:href="#DejaVuSans-e3" x="298.001953"/>
     <use xlink:href="#DejaVuSans-6f" x="359.28125"/>
     <use xlink:href="#DejaVuSans-20" x="420.462891"/>
     <use xlink:href="#DejaVuSans-64" x="452.25"/>
     <use xlink:href="#DejaVuSans-6f" x="515.726562"/>
     <use xlink:href="#DejaVuSans-20" x="576.908203"/>
     <use xlink:href="#DejaVuSans-76" x="608.695312"/>
     <use xlink:href="#DejaVuSans-65" x="667.875"/>
     <use xlink:href="#DejaVuSans-6e" x="729.398438"/>
     <use xlink:href="#DejaVuSans-74" x="792.777344"/>
     <use xlink:href="#DejaVuSans-6f" x="831.986328"/>
     <use xlink:href="#DejaVuSans-20" x="893.167969"/>
     <use xlink:href="#DejaVuSans-70" x="924.955078"/>
     <use xlink:href="#DejaVuSans-61" x="988.431641"/>
     <use xlink:href="#DejaVuSans-72" x="1049.710938"/>
     <use xlink:href="#DejaVuSans-61" x="1090.824219"/>
     <use xlink:href="#DejaVuSans-20" x="1152.103516"/>
     <use xlink:href="#DejaVuSans-31" x="1183.890625"/>
     <use xlink:href="#DejaVuSans-20" x="1247.513672"/>
     <use xlink:href="#DejaVuSans-68" x="1279.300781"/>
     <use xlink:href="#DejaVuSans-6f" x="1342.679688"/>
     <use xlink:href="#DejaVuSans-72" x="1403.861328"/>
     <use xlink:href="#DejaVuSans-61" x="1444.974609"/>
     <use xlink:href="#DejaVuSans-28" x="1506.253906"/>
     <use xlink:href="#DejaVuSans-73" x="1545.267578"/>
     <use xlink:href="#DejaVuSans-29" x="1597.367188"/>
     <use xlink:href="#DejaVuSans-20" x="1636.380859"/>
     <use xlink:href="#DejaVuSans-e0" x="1668.167969"/>
     <use xlink:href="#DejaVuSans-20" x="1729.447266"/>
     <use xlink:href="#DejaVuSans-66" x="1761.234375"/>
     <use xlink:href="#DejaVuSans-72" x="1796.439453"/>
     <use xlink:href="#DejaVuSans-65" x="1835.302734"/>
     <use xlink:href="#DejaVuSans-6e" x="1896.826172"/>
     <use xlink:href="#DejaVuSans-74" x="1960.205078"/>
     <use xlink:href="#DejaVuSans-65" x="1999.414062"/>
     <use xlink:href="#DejaVuSans-20" x="2060.9375"/>
     <use xlink:href="#DejaVuSans-63" x="2092.724609"/>
     <use xlink:href="#DejaVuSans-6f" x="2147.705078"/>
     <use xlink:href="#DejaVuSans-6d" x="2208.886719"/>
     <use xlink:href="#DejaVuSans-20" x="2306.298828"/>
     <use xlink:href="#DejaVuSans-31" x="2338.085938"/>
     <use xlink:href="#DejaVuSans-63" x="2401.708984"/>
     <use xlink:href="#DejaVuSans-61" x="2456.689453"/>
     <use xlink:href="#DejaVuSans-6d" x="2517.96875"/>
     <use xlink:href="#DejaVuSans-61" x="2615.380859"/>
     <use xlink:href="#DejaVuSans-64" x="2676.660156"/>
     <use xlink:href="#DejaVuSans-61" x="2740.136719"/>
     <use xlink:href="#DejaVuSans-73" x="2801.416016"/>
    </g>
   </g>
   <g id="legend_1">
    <g id="patch_7">
     <path d="M 1217.86875 80.55625 
L 1289 80.55625 
Q 1291 80.55625 1291 78.55625 
L 1291 50.2 
Q 1291 48.2 1289 48.2 
L 1217.86875 48.2 
Q 1215.86875 48.2 1215.86875 50.2 
L 1215.86875 78.55625 
Q 1215.86875 80.55625 1217.86875 80.55625 
z
" style="fill: #ffffff; opacity: 0.8; stroke: #cccccc; stroke-linejoin: miter"/>
    </g>
    <g id="line2d_19">
     <path d="M 1219.86875 56.298437 
L 1229.86875 56.298437 
L 1239.86875 56.298437 
" style="fill: none; stroke: #0000ff; stroke-width: 1.5; stroke-linecap: square"/>
    </g>
    <g id="text_20">
     <!-- Predito -->
     <g transform="translate(1247.86875 59.798437) scale(0.1 -0.1)">
      <use xlink:href="#DejaVuSans-50"/>
      <use xlink:href="#DejaVuSans-72" x="58.552734"/>
      <use xlink:href="#DejaVuSans-65" x="97.416016"/>
      <use xlink:href="#DejaVuSans-64" x="158.939453"/>
      <use xlink:href="#DejaVuSans-69" x="222.416016"/>
      <use xlink:href="#DejaVuSans-74" x="250.199219"/>
      <use xlink:href="#DejaVuSans-6f" x="289.408203"/>
     </g>
    </g>
    <g id="line2d_20">
     <path d="M 1219.86875 70.976562 
L 1229.86875 70.976562 
L 1239.86875 70.976562 
" style="fill: none; stroke: #ffa500; stroke-width: 1.5; stroke-linecap: square"/>
    </g>
    <g id="text_21">
     <!-- Original -->
     <g transform="translate(1247.86875 74.476562) scale(0.1 -0.1)">
      <defs>
       <path id="DejaVuSans-4f" d="M 2522 4238 
Q 1834 4238 1429 3725 
Q 1025 3213 1025 2328 
Q 1025 1447 1429 934 
Q 1834 422 2522 422 
Q 3209 422 3611 934 
Q 4013 1447 4013 2328 
Q 4013 3213 3611 3725 
Q 3209 4238 2522 4238 
z
M 2522 4750 
Q 3503 4750 4090 4092 
Q 4678 3434 4678 2328 
Q 4678 1225 4090 567 
Q 3503 -91 2522 -91 
Q 1538 -91 948 565 
Q 359 1222 359 2328 
Q 359 3434 948 4092 
Q 1538 4750 2522 4750 
z
" transform="scale(0.015625)"/>
       <path id="DejaVuSans-67" d="M 2906 1791 
Q 2906 2416 2648 2759 
Q 2391 3103 1925 3103 
Q 1463 3103 1205 2759 
Q 947 2416 947 1791 
Q 947 1169 1205 825 
Q 1463 481 1925 481 
Q 2391 481 2648 825 
Q 2906 1169 2906 1791 
z
M 3481 434 
Q 3481 -459 3084 -895 
Q 2688 -1331 1869 -1331 
Q 1566 -1331 1297 -1286 
Q 1028 -1241 775 -1147 
L 775 -588 
Q 1028 -725 1275 -790 
Q 1522 -856 1778 -856 
Q 2344 -856 2625 -561 
Q 2906 -266 2906 331 
L 2906 616 
Q 2728 306 2450 153 
Q 2172 0 1784 0 
Q 1141 0 747 490 
Q 353 981 353 1791 
Q 353 2603 747 3093 
Q 1141 3584 1784 3584 
Q 2172 3584 2450 3431 
Q 2728 3278 2906 2969 
L 2906 3500 
L 3481 3500 
L 3481 434 
z
" transform="scale(0.015625)"/>
      </defs>
      <use xlink:href="#DejaVuSans-4f"/>
      <use xlink:href="#DejaVuSans-72" x="78.710938"/>
      <use xlink:href="#DejaVuSans-69" x="119.824219"/>
      <use xlink:href="#DejaVuSans-67" x="147.607422"/>
      <use xlink:href="#DejaVuSans-69" x="211.083984"/>
      <use xlink:href="#DejaVuSans-6e" x="238.867188"/>
      <use xlink:href="#DejaVuSans-61" x="302.246094"/>
      <use xlink:href="#DejaVuSans-6c" x="363.525391"/>
     </g>
    </g>
   </g>
  </g>
 </g>
 <defs>
  <clipPath id="p9316069e9d">
   <rect x="180" y="43.2" width="1116" height="277.2"/>
  </clipPath>
 </defs>
</svg>
