<?xml version="1.0" encoding="utf-8" standalone="no"?>
<!DOCTYPE svg PUBLIC "-//W3C//DTD SVG 1.1//EN"
  "http://www.w3.org/Graphics/SVG/1.1/DTD/svg11.dtd">
<svg xmlns:xlink="http://www.w3.org/1999/xlink" width="1440pt" height="360pt" viewBox="0 0 1440 360" xmlns="http://www.w3.org/2000/svg" version="1.1">
 <metadata>
  <rdf:RDF xmlns:dc="http://purl.org/dc/elements/1.1/" xmlns:cc="http://creativecommons.org/ns#" xmlns:rdf="http://www.w3.org/1999/02/22-rdf-syntax-ns#">
   <cc:Work>
    <dc:type rdf:resource="http://purl.org/dc/dcmitype/StillImage"/>
    <dc:date>2023-08-20T14:31:57.857970</dc:date>
    <dc:format>image/svg+xml</dc:format>
    <dc:creator>
     <cc:Agent>
      <dc:title>Matplotlib v3.7.1, https://matplotlib.org/</dc:title>
     </cc:Agent>
    </dc:creator>
   </cc:Work>
  </rdf:RDF>
 </metadata>
 <defs>
  <style type="text/css">*{stroke-linejoin: round; stroke-linecap: butt}</style>
 </defs>
 <g id="figure_1">
  <g id="patch_1">
   <path d="M 0 360 
L 1440 360 
L 1440 0 
L 0 0 
z
" style="fill: #ffffff"/>
  </g>
  <g id="axes_1">
   <g id="patch_2">
    <path d="M 180 320.4 
L 1296 320.4 
L 1296 43.2 
L 180 43.2 
z
" style="fill: #ffffff"/>
   </g>
   <g id="PolyCollection_1">
    <defs>
     <path id="mf4e1608ca5" d="M 230.727273 -251.28046 
L 230.727273 -154.817565 
L 236.066986 -147.114875 
L 241.406699 -132.988273 
L 246.746411 -129.527597 
L 252.086124 -124.742177 
L 257.425837 -128.836963 
L 262.76555 -130.094002 
L 268.105263 -137.824227 
L 273.444976 -139.328509 
L 278.784689 -136.327707 
L 284.124402 -117.621273 
L 289.464115 -106.901283 
L 294.803828 -86.40076 
L 300.143541 -95.079754 
L 305.483254 -87.271259 
L 310.822967 -73.589438 
L 316.162679 -69.744179 
L 321.502392 -63.594405 
L 326.842105 -61.583028 
L 332.181818 -69.708825 
L 337.521531 -85.533175 
L 342.861244 -94.832959 
L 348.200957 -120.550378 
L 353.54067 -142.886278 
L 358.880383 -160.674097 
L 364.220096 -174.662408 
L 369.559809 -179.187073 
L 374.899522 -180.853916 
L 380.239234 -185.485751 
L 385.578947 -173.322922 
L 390.91866 -161.135744 
L 396.258373 -138.316668 
L 401.598086 -132.297335 
L 406.937799 -130.718673 
L 412.277512 -138.719267 
L 417.617225 -153.651644 
L 422.956938 -128.734328 
L 428.296651 -112.598937 
L 433.636364 -117.298628 
L 438.976077 -119.969726 
L 444.315789 -124.410683 
L 449.655502 -129.131513 
L 454.995215 -114.534983 
L 460.334928 -107.545934 
L 465.674641 -121.321733 
L 471.014354 -110.404324 
L 476.354067 -120.815828 
L 481.69378 -135.202131 
L 487.033493 -170.184252 
L 492.373206 -185.739798 
L 497.712919 -187.663146 
L 503.052632 -180.724736 
L 508.392344 -179.397166 
L 513.732057 -183.393933 
L 519.07177 -181.055351 
L 524.411483 -179.225246 
L 529.751196 -164.779089 
L 535.090909 -171.681124 
L 540.430622 -151.087828 
L 545.770335 -136.32857 
L 551.110048 -116.467651 
L 556.449761 -115.347329 
L 561.789474 -111.74171 
L 567.129187 -110.950957 
L 572.4689 -95.376772 
L 577.808612 -90.390204 
L 583.148325 -66.122739 
L 588.488038 -103.896464 
L 593.827751 -121.870235 
L 599.167464 -124.370227 
L 604.507177 -152.679763 
L 609.84689 -174.605133 
L 615.186603 -185.810936 
L 620.526316 -196.492099 
L 625.866029 -201.73332 
L 631.205742 -207.737128 
L 636.545455 -194.375588 
L 641.885167 -197.344383 
L 647.22488 -178.558266 
L 652.564593 -174.942201 
L 657.904306 -164.925135 
L 663.244019 -146.473114 
L 668.583732 -154.887601 
L 673.923445 -145.995991 
L 679.263158 -132.109029 
L 684.602871 -131.705023 
L 689.942584 -130.776107 
L 695.282297 -122.364592 
L 700.62201 -129.423636 
L 705.961722 -115.890871 
L 711.301435 -96.745007 
L 716.641148 -92.52109 
L 721.980861 -113.903939 
L 727.320574 -109.247052 
L 732.660287 -153.733579 
L 738 -179.706666 
L 743.339713 -182.323571 
L 748.679426 -186.674304 
L 754.019139 -188.171399 
L 759.358852 -202.692647 
L 764.698565 -197.495603 
L 770.038278 -193.524486 
L 775.37799 -189.728516 
L 780.717703 -155.969798 
L 786.057416 -141.462317 
L 791.397129 -145.540924 
L 796.736842 -160.473764 
L 802.076555 -154.625808 
L 807.416268 -110.30181 
L 812.755981 -120.532538 
L 818.095694 -123.198237 
L 823.435407 -52.2 
L 828.77512 -65.426547 
L 834.114833 -91.560278 
L 839.454545 -90.178347 
L 844.794258 -78.159719 
L 850.133971 -88.687274 
L 855.473684 -113.862581 
L 860.813397 -122.686279 
L 866.15311 -138.058596 
L 871.492823 -169.201256 
L 876.832536 -186.537075 
L 882.172249 -177.153168 
L 887.511962 -180.281137 
L 892.851675 -177.60437 
L 898.191388 -177.397312 
L 903.5311 -160.06912 
L 908.870813 -145.329251 
L 914.210526 -157.629453 
L 919.550239 -149.125014 
L 924.889952 -143.49964 
L 930.229665 -150.00873 
L 935.569378 -141.001405 
L 940.909091 -152.521308 
L 946.248804 -136.741136 
L 951.588517 -127.864683 
L 956.92823 -134.912755 
L 962.267943 -127.614662 
L 967.607656 -109.285951 
L 972.947368 -95.180847 
L 978.287081 -106.125328 
L 983.626794 -122.024138 
L 988.966507 -148.538404 
L 994.30622 -174.883457 
L 999.645933 -186.348832 
L 1004.985646 -175.256173 
L 1010.325359 -178.506741 
L 1015.665072 -180.89097 
L 1021.004785 -177.531507 
L 1026.344498 -172.213813 
L 1031.684211 -152.384334 
L 1037.023923 -142.35386 
L 1042.363636 -150.494383 
L 1047.703349 -131.746326 
L 1053.043062 -124.413925 
L 1058.382775 -144.79589 
L 1063.722488 -115.190215 
L 1069.062201 -111.353724 
L 1074.401914 -100.213629 
L 1079.741627 -77.388204 
L 1085.08134 -82.99398 
L 1090.421053 -80.298223 
L 1095.760766 -75.859006 
L 1101.100478 -107.387383 
L 1106.440191 -94.10103 
L 1111.779904 -90.541984 
L 1117.119617 -114.421368 
L 1122.45933 -123.42553 
L 1127.799043 -143.715498 
L 1133.138756 -168.952097 
L 1138.478469 -180.984692 
L 1143.818182 -186.879062 
L 1149.157895 -182.578161 
L 1154.497608 -176.069837 
L 1159.837321 -167.84698 
L 1165.177033 -176.439519 
L 1170.516746 -168.950947 
L 1175.856459 -147.130623 
L 1181.196172 -135.718753 
L 1186.535885 -149.479522 
L 1191.875598 -156.748979 
L 1197.215311 -146.812258 
L 1202.555024 -132.630618 
L 1207.894737 -128.416411 
L 1213.23445 -111.561405 
L 1218.574163 -102.578333 
L 1223.913876 -86.055523 
L 1229.253589 -85.307431 
L 1234.593301 -96.479245 
L 1239.933014 -129.285449 
L 1245.272727 -149.131003 
L 1245.272727 -245.593883 
L 1245.272727 -245.593883 
L 1239.933014 -225.748329 
L 1234.593301 -192.942125 
L 1229.253589 -181.77031 
L 1223.913876 -182.51841 
L 1218.574163 -199.04122 
L 1213.23445 -208.0243 
L 1207.894737 -224.879306 
L 1202.555024 -229.093513 
L 1197.215311 -243.275138 
L 1191.875598 -253.211858 
L 1186.535885 -245.942418 
L 1181.196172 -232.181648 
L 1175.856459 -243.593519 
L 1170.516746 -265.41385 
L 1165.177033 -272.902423 
L 1159.837321 -264.309852 
L 1154.497608 -272.532709 
L 1149.157895 -279.041032 
L 1143.818182 -283.341965 
L 1138.478469 -277.447596 
L 1133.138756 -265.415 
L 1127.799043 -240.178378 
L 1122.45933 -219.888426 
L 1117.119617 -210.884263 
L 1111.779904 -187.004871 
L 1106.440191 -190.563917 
L 1101.100478 -203.850278 
L 1095.760766 -172.321894 
L 1090.421053 -176.76111 
L 1085.08134 -179.456868 
L 1079.741627 -173.851092 
L 1074.401914 -196.676509 
L 1069.062201 -207.816604 
L 1063.722488 -211.653111 
L 1058.382775 -241.25877 
L 1053.043062 -220.876821 
L 1047.703349 -228.209222 
L 1042.363636 -246.957262 
L 1037.023923 -238.816755 
L 1031.684211 -248.84723 
L 1026.344498 -268.676716 
L 1021.004785 -273.994379 
L 1015.665072 -277.353842 
L 1010.325359 -274.969613 
L 1004.985646 -271.719045 
L 999.645933 -282.811704 
L 994.30622 -271.346328 
L 988.966507 -245.001299 
L 983.626794 -218.487034 
L 978.287081 -202.588224 
L 972.947368 -191.643735 
L 967.607656 -205.748839 
L 962.267943 -224.077557 
L 956.92823 -231.375651 
L 951.588517 -224.327579 
L 946.248804 -233.204031 
L 940.909091 -248.984203 
L 935.569378 -237.464301 
L 930.229665 -246.471626 
L 924.889952 -239.962536 
L 919.550239 -245.587909 
L 914.210526 -254.092348 
L 908.870813 -241.79213 
L 903.5311 -256.531999 
L 898.191388 -273.860216 
L 892.851675 -274.067274 
L 887.511962 -276.744041 
L 882.172249 -273.61604 
L 876.832536 -282.999979 
L 871.492823 -265.664127 
L 866.15311 -234.521476 
L 860.813397 -219.149158 
L 855.473684 -210.325476 
L 850.133971 -185.150153 
L 844.794258 -174.622606 
L 839.454545 -186.641243 
L 834.114833 -188.023165 
L 828.77512 -161.889434 
L 823.435407 -148.662888 
L 818.095694 -219.661116 
L 812.755981 -216.995433 
L 807.416268 -206.764705 
L 802.076555 -251.088703 
L 796.736842 -256.936659 
L 791.397129 -242.00382 
L 786.057416 -237.925213 
L 780.717703 -252.432693 
L 775.37799 -286.191387 
L 770.038278 -289.987358 
L 764.698565 -293.958475 
L 759.358852 -299.155518 
L 754.019139 -284.634303 
L 748.679426 -283.137176 
L 743.339713 -278.786475 
L 738 -276.169537 
L 732.660287 -250.196458 
L 727.320574 -205.709932 
L 721.980861 -210.366827 
L 716.641148 -188.983977 
L 711.301435 -193.207895 
L 705.961722 -212.353759 
L 700.62201 -225.886516 
L 695.282297 -218.827487 
L 689.942584 -227.239003 
L 684.602871 -228.167919 
L 679.263158 -228.571908 
L 673.923445 -242.458886 
L 668.583732 -251.35048 
L 663.244019 -242.935994 
L 657.904306 -261.388014 
L 652.564593 -271.405072 
L 647.22488 -275.02117 
L 641.885167 -293.807286 
L 636.545455 -290.83846 
L 631.205742 -304.2 
L 625.866029 -298.196192 
L 620.526316 -292.955003 
L 615.186603 -282.273808 
L 609.84689 -271.068037 
L 604.507177 -249.142643 
L 599.167464 -220.833122 
L 593.827751 -218.33313 
L 588.488038 -200.359352 
L 583.148325 -162.585627 
L 577.808612 -186.853092 
L 572.4689 -191.83966 
L 567.129187 -207.413844 
L 561.789474 -208.204589 
L 556.449761 -211.810209 
L 551.110048 -212.93053 
L 545.770335 -232.791449 
L 540.430622 -247.550708 
L 535.090909 -268.144027 
L 529.751196 -261.241969 
L 524.411483 -275.688117 
L 519.07177 -277.518223 
L 513.732057 -279.856837 
L 508.392344 -275.860069 
L 503.052632 -277.187608 
L 497.712919 -284.126018 
L 492.373206 -282.202669 
L 487.033493 -266.647156 
L 481.69378 -231.665027 
L 476.354067 -217.278708 
L 471.014354 -206.867212 
L 465.674641 -217.784629 
L 460.334928 -204.008814 
L 454.995215 -210.99787 
L 449.655502 -225.594393 
L 444.315789 -220.873563 
L 438.976077 -216.432621 
L 433.636364 -213.761508 
L 428.296651 -209.061824 
L 422.956938 -225.197208 
L 417.617225 -250.114523 
L 412.277512 -235.182163 
L 406.937799 -227.181568 
L 401.598086 -228.760215 
L 396.258373 -234.779547 
L 390.91866 -257.598624 
L 385.578947 -269.785826 
L 380.239234 -281.948655 
L 374.899522 -277.316819 
L 369.559809 -275.649977 
L 364.220096 -271.125311 
L 358.880383 -257.136977 
L 353.54067 -239.349157 
L 348.200957 -217.013258 
L 342.861244 -191.295854 
L 337.521531 -181.996055 
L 332.181818 -166.171705 
L 326.842105 -158.045916 
L 321.502392 -160.057293 
L 316.162679 -166.207066 
L 310.822967 -170.052326 
L 305.483254 -183.734147 
L 300.143541 -191.542649 
L 294.803828 -182.863639 
L 289.464115 -203.364163 
L 284.124402 -214.084169 
L 278.784689 -232.790587 
L 273.444976 -235.791389 
L 268.105263 -234.287107 
L 262.76555 -226.556882 
L 257.425837 -225.299842 
L 252.086124 -221.205072 
L 246.746411 -225.990492 
L 241.406699 -229.451152 
L 236.066986 -243.57777 
L 230.727273 -251.28046 
z
" style="stroke: #0000ff; stroke-opacity: 0.05"/>
    </defs>
    <g clip-path="url(#p68437424a7)">
     <use xlink:href="#mf4e1608ca5" x="0" y="360" style="fill: #0000ff; fill-opacity: 0.05; stroke: #0000ff; stroke-opacity: 0.05"/>
    </g>
   </g>
   <g id="matplotlib.axis_1">
    <g id="xtick_1">
     <g id="line2d_1">
      <defs>
       <path id="m4e11de5c4e" d="M 0 0 
L 0 3.5 
" style="stroke: #000000; stroke-width: 0.8"/>
      </defs>
      <g>
       <use xlink:href="#m4e11de5c4e" x="230.727273" y="320.4" style="stroke: #000000; stroke-width: 0.8"/>
      </g>
     </g>
     <g id="text_1">
      <!-- 0 -->
      <g transform="translate(227.546023 334.998438) scale(0.1 -0.1)">
       <defs>
        <path id="DejaVuSans-30" d="M 2034 4250 
Q 1547 4250 1301 3770 
Q 1056 3291 1056 2328 
Q 1056 1369 1301 889 
Q 1547 409 2034 409 
Q 2525 409 2770 889 
Q 3016 1369 3016 2328 
Q 3016 3291 2770 3770 
Q 2525 4250 2034 4250 
z
M 2034 4750 
Q 2819 4750 3233 4129 
Q 3647 3509 3647 2328 
Q 3647 1150 3233 529 
Q 2819 -91 2034 -91 
Q 1250 -91 836 529 
Q 422 1150 422 2328 
Q 422 3509 836 4129 
Q 1250 4750 2034 4750 
z
" transform="scale(0.015625)"/>
       </defs>
       <use xlink:href="#DejaVuSans-30"/>
      </g>
     </g>
    </g>
    <g id="xtick_2">
     <g id="line2d_2">
      <g>
       <use xlink:href="#m4e11de5c4e" x="364.220096" y="320.4" style="stroke: #000000; stroke-width: 0.8"/>
      </g>
     </g>
     <g id="text_2">
      <!-- 25 -->
      <g transform="translate(357.857596 334.998438) scale(0.1 -0.1)">
       <defs>
        <path id="DejaVuSans-32" d="M 1228 531 
L 3431 531 
L 3431 0 
L 469 0 
L 469 531 
Q 828 903 1448 1529 
Q 2069 2156 2228 2338 
Q 2531 2678 2651 2914 
Q 2772 3150 2772 3378 
Q 2772 3750 2511 3984 
Q 2250 4219 1831 4219 
Q 1534 4219 1204 4116 
Q 875 4013 500 3803 
L 500 4441 
Q 881 4594 1212 4672 
Q 1544 4750 1819 4750 
Q 2544 4750 2975 4387 
Q 3406 4025 3406 3419 
Q 3406 3131 3298 2873 
Q 3191 2616 2906 2266 
Q 2828 2175 2409 1742 
Q 1991 1309 1228 531 
z
" transform="scale(0.015625)"/>
        <path id="DejaVuSans-35" d="M 691 4666 
L 3169 4666 
L 3169 4134 
L 1269 4134 
L 1269 2991 
Q 1406 3038 1543 3061 
Q 1681 3084 1819 3084 
Q 2600 3084 3056 2656 
Q 3513 2228 3513 1497 
Q 3513 744 3044 326 
Q 2575 -91 1722 -91 
Q 1428 -91 1123 -41 
Q 819 9 494 109 
L 494 744 
Q 775 591 1075 516 
Q 1375 441 1709 441 
Q 2250 441 2565 725 
Q 2881 1009 2881 1497 
Q 2881 1984 2565 2268 
Q 2250 2553 1709 2553 
Q 1456 2553 1204 2497 
Q 953 2441 691 2322 
L 691 4666 
z
" transform="scale(0.015625)"/>
       </defs>
       <use xlink:href="#DejaVuSans-32"/>
       <use xlink:href="#DejaVuSans-35" x="63.623047"/>
      </g>
     </g>
    </g>
    <g id="xtick_3">
     <g id="line2d_3">
      <g>
       <use xlink:href="#m4e11de5c4e" x="497.712919" y="320.4" style="stroke: #000000; stroke-width: 0.8"/>
      </g>
     </g>
     <g id="text_3">
      <!-- 50 -->
      <g transform="translate(491.350419 334.998438) scale(0.1 -0.1)">
       <use xlink:href="#DejaVuSans-35"/>
       <use xlink:href="#DejaVuSans-30" x="63.623047"/>
      </g>
     </g>
    </g>
    <g id="xtick_4">
     <g id="line2d_4">
      <g>
       <use xlink:href="#m4e11de5c4e" x="631.205742" y="320.4" style="stroke: #000000; stroke-width: 0.8"/>
      </g>
     </g>
     <g id="text_4">
      <!-- 75 -->
      <g transform="translate(624.843242 334.998438) scale(0.1 -0.1)">
       <defs>
        <path id="DejaVuSans-37" d="M 525 4666 
L 3525 4666 
L 3525 4397 
L 1831 0 
L 1172 0 
L 2766 4134 
L 525 4134 
L 525 4666 
z
" transform="scale(0.015625)"/>
       </defs>
       <use xlink:href="#DejaVuSans-37"/>
       <use xlink:href="#DejaVuSans-35" x="63.623047"/>
      </g>
     </g>
    </g>
    <g id="xtick_5">
     <g id="line2d_5">
      <g>
       <use xlink:href="#m4e11de5c4e" x="764.698565" y="320.4" style="stroke: #000000; stroke-width: 0.8"/>
      </g>
     </g>
     <g id="text_5">
      <!-- 100 -->
      <g transform="translate(755.154815 334.998438) scale(0.1 -0.1)">
       <defs>
        <path id="DejaVuSans-31" d="M 794 531 
L 1825 531 
L 1825 4091 
L 703 3866 
L 703 4441 
L 1819 4666 
L 2450 4666 
L 2450 531 
L 3481 531 
L 3481 0 
L 794 0 
L 794 531 
z
" transform="scale(0.015625)"/>
       </defs>
       <use xlink:href="#DejaVuSans-31"/>
       <use xlink:href="#DejaVuSans-30" x="63.623047"/>
       <use xlink:href="#DejaVuSans-30" x="127.246094"/>
      </g>
     </g>
    </g>
    <g id="xtick_6">
     <g id="line2d_6">
      <g>
       <use xlink:href="#m4e11de5c4e" x="898.191388" y="320.4" style="stroke: #000000; stroke-width: 0.8"/>
      </g>
     </g>
     <g id="text_6">
      <!-- 125 -->
      <g transform="translate(888.647638 334.998438) scale(0.1 -0.1)">
       <use xlink:href="#DejaVuSans-31"/>
       <use xlink:href="#DejaVuSans-32" x="63.623047"/>
       <use xlink:href="#DejaVuSans-35" x="127.246094"/>
      </g>
     </g>
    </g>
    <g id="xtick_7">
     <g id="line2d_7">
      <g>
       <use xlink:href="#m4e11de5c4e" x="1031.684211" y="320.4" style="stroke: #000000; stroke-width: 0.8"/>
      </g>
     </g>
     <g id="text_7">
      <!-- 150 -->
      <g transform="translate(1022.140461 334.998438) scale(0.1 -0.1)">
       <use xlink:href="#DejaVuSans-31"/>
       <use xlink:href="#DejaVuSans-35" x="63.623047"/>
       <use xlink:href="#DejaVuSans-30" x="127.246094"/>
      </g>
     </g>
    </g>
    <g id="xtick_8">
     <g id="line2d_8">
      <g>
       <use xlink:href="#m4e11de5c4e" x="1165.177033" y="320.4" style="stroke: #000000; stroke-width: 0.8"/>
      </g>
     </g>
     <g id="text_8">
      <!-- 175 -->
      <g transform="translate(1155.633283 334.998438) scale(0.1 -0.1)">
       <use xlink:href="#DejaVuSans-31"/>
       <use xlink:href="#DejaVuSans-37" x="63.623047"/>
       <use xlink:href="#DejaVuSans-35" x="127.246094"/>
      </g>
     </g>
    </g>
    <g id="text_9">
     <!-- Amostras -->
     <g transform="translate(714.360937 348.676562) scale(0.1 -0.1)">
      <defs>
       <path id="DejaVuSans-41" d="M 2188 4044 
L 1331 1722 
L 3047 1722 
L 2188 4044 
z
M 1831 4666 
L 2547 4666 
L 4325 0 
L 3669 0 
L 3244 1197 
L 1141 1197 
L 716 0 
L 50 0 
L 1831 4666 
z
" transform="scale(0.015625)"/>
       <path id="DejaVuSans-6d" d="M 3328 2828 
Q 3544 3216 3844 3400 
Q 4144 3584 4550 3584 
Q 5097 3584 5394 3201 
Q 5691 2819 5691 2113 
L 5691 0 
L 5113 0 
L 5113 2094 
Q 5113 2597 4934 2840 
Q 4756 3084 4391 3084 
Q 3944 3084 3684 2787 
Q 3425 2491 3425 1978 
L 3425 0 
L 2847 0 
L 2847 2094 
Q 2847 2600 2669 2842 
Q 2491 3084 2119 3084 
Q 1678 3084 1418 2786 
Q 1159 2488 1159 1978 
L 1159 0 
L 581 0 
L 581 3500 
L 1159 3500 
L 1159 2956 
Q 1356 3278 1631 3431 
Q 1906 3584 2284 3584 
Q 2666 3584 2933 3390 
Q 3200 3197 3328 2828 
z
" transform="scale(0.015625)"/>
       <path id="DejaVuSans-6f" d="M 1959 3097 
Q 1497 3097 1228 2736 
Q 959 2375 959 1747 
Q 959 1119 1226 758 
Q 1494 397 1959 397 
Q 2419 397 2687 759 
Q 2956 1122 2956 1747 
Q 2956 2369 2687 2733 
Q 2419 3097 1959 3097 
z
M 1959 3584 
Q 2709 3584 3137 3096 
Q 3566 2609 3566 1747 
Q 3566 888 3137 398 
Q 2709 -91 1959 -91 
Q 1206 -91 779 398 
Q 353 888 353 1747 
Q 353 2609 779 3096 
Q 1206 3584 1959 3584 
z
" transform="scale(0.015625)"/>
       <path id="DejaVuSans-73" d="M 2834 3397 
L 2834 2853 
Q 2591 2978 2328 3040 
Q 2066 3103 1784 3103 
Q 1356 3103 1142 2972 
Q 928 2841 928 2578 
Q 928 2378 1081 2264 
Q 1234 2150 1697 2047 
L 1894 2003 
Q 2506 1872 2764 1633 
Q 3022 1394 3022 966 
Q 3022 478 2636 193 
Q 2250 -91 1575 -91 
Q 1294 -91 989 -36 
Q 684 19 347 128 
L 347 722 
Q 666 556 975 473 
Q 1284 391 1588 391 
Q 1994 391 2212 530 
Q 2431 669 2431 922 
Q 2431 1156 2273 1281 
Q 2116 1406 1581 1522 
L 1381 1569 
Q 847 1681 609 1914 
Q 372 2147 372 2553 
Q 372 3047 722 3315 
Q 1072 3584 1716 3584 
Q 2034 3584 2315 3537 
Q 2597 3491 2834 3397 
z
" transform="scale(0.015625)"/>
       <path id="DejaVuSans-74" d="M 1172 4494 
L 1172 3500 
L 2356 3500 
L 2356 3053 
L 1172 3053 
L 1172 1153 
Q 1172 725 1289 603 
Q 1406 481 1766 481 
L 2356 481 
L 2356 0 
L 1766 0 
Q 1100 0 847 248 
Q 594 497 594 1153 
L 594 3053 
L 172 3053 
L 172 3500 
L 594 3500 
L 594 4494 
L 1172 4494 
z
" transform="scale(0.015625)"/>
       <path id="DejaVuSans-72" d="M 2631 2963 
Q 2534 3019 2420 3045 
Q 2306 3072 2169 3072 
Q 1681 3072 1420 2755 
Q 1159 2438 1159 1844 
L 1159 0 
L 581 0 
L 581 3500 
L 1159 3500 
L 1159 2956 
Q 1341 3275 1631 3429 
Q 1922 3584 2338 3584 
Q 2397 3584 2469 3576 
Q 2541 3569 2628 3553 
L 2631 2963 
z
" transform="scale(0.015625)"/>
       <path id="DejaVuSans-61" d="M 2194 1759 
Q 1497 1759 1228 1600 
Q 959 1441 959 1056 
Q 959 750 1161 570 
Q 1363 391 1709 391 
Q 2188 391 2477 730 
Q 2766 1069 2766 1631 
L 2766 1759 
L 2194 1759 
z
M 3341 1997 
L 3341 0 
L 2766 0 
L 2766 531 
Q 2569 213 2275 61 
Q 1981 -91 1556 -91 
Q 1019 -91 701 211 
Q 384 513 384 1019 
Q 384 1609 779 1909 
Q 1175 2209 1959 2209 
L 2766 2209 
L 2766 2266 
Q 2766 2663 2505 2880 
Q 2244 3097 1772 3097 
Q 1472 3097 1187 3025 
Q 903 2953 641 2809 
L 641 3341 
Q 956 3463 1253 3523 
Q 1550 3584 1831 3584 
Q 2591 3584 2966 3190 
Q 3341 2797 3341 1997 
z
" transform="scale(0.015625)"/>
      </defs>
      <use xlink:href="#DejaVuSans-41"/>
      <use xlink:href="#DejaVuSans-6d" x="68.408203"/>
      <use xlink:href="#DejaVuSans-6f" x="165.820312"/>
      <use xlink:href="#DejaVuSans-73" x="227.001953"/>
      <use xlink:href="#DejaVuSans-74" x="279.101562"/>
      <use xlink:href="#DejaVuSans-72" x="318.310547"/>
      <use xlink:href="#DejaVuSans-61" x="359.423828"/>
      <use xlink:href="#DejaVuSans-73" x="420.703125"/>
     </g>
    </g>
   </g>
   <g id="matplotlib.axis_2">
    <g id="ytick_1">
     <g id="line2d_9">
      <defs>
       <path id="m3ac5cb375d" d="M 0 0 
L -3.5 0 
" style="stroke: #000000; stroke-width: 0.8"/>
      </defs>
      <g>
       <use xlink:href="#m3ac5cb375d" x="180" y="294.831772" style="stroke: #000000; stroke-width: 0.8"/>
      </g>
     </g>
     <g id="text_10">
      <!-- 2 -->
      <g transform="translate(166.6375 298.630991) scale(0.1 -0.1)">
       <use xlink:href="#DejaVuSans-32"/>
      </g>
     </g>
    </g>
    <g id="ytick_2">
     <g id="line2d_10">
      <g>
       <use xlink:href="#m3ac5cb375d" x="180" y="261.336612" style="stroke: #000000; stroke-width: 0.8"/>
      </g>
     </g>
     <g id="text_11">
      <!-- 4 -->
      <g transform="translate(166.6375 265.13583) scale(0.1 -0.1)">
       <defs>
        <path id="DejaVuSans-34" d="M 2419 4116 
L 825 1625 
L 2419 1625 
L 2419 4116 
z
M 2253 4666 
L 3047 4666 
L 3047 1625 
L 3713 1625 
L 3713 1100 
L 3047 1100 
L 3047 0 
L 2419 0 
L 2419 1100 
L 313 1100 
L 313 1709 
L 2253 4666 
z
" transform="scale(0.015625)"/>
       </defs>
       <use xlink:href="#DejaVuSans-34"/>
      </g>
     </g>
    </g>
    <g id="ytick_3">
     <g id="line2d_11">
      <g>
       <use xlink:href="#m3ac5cb375d" x="180" y="227.841451" style="stroke: #000000; stroke-width: 0.8"/>
      </g>
     </g>
     <g id="text_12">
      <!-- 6 -->
      <g transform="translate(166.6375 231.64067) scale(0.1 -0.1)">
       <defs>
        <path id="DejaVuSans-36" d="M 2113 2584 
Q 1688 2584 1439 2293 
Q 1191 2003 1191 1497 
Q 1191 994 1439 701 
Q 1688 409 2113 409 
Q 2538 409 2786 701 
Q 3034 994 3034 1497 
Q 3034 2003 2786 2293 
Q 2538 2584 2113 2584 
z
M 3366 4563 
L 3366 3988 
Q 3128 4100 2886 4159 
Q 2644 4219 2406 4219 
Q 1781 4219 1451 3797 
Q 1122 3375 1075 2522 
Q 1259 2794 1537 2939 
Q 1816 3084 2150 3084 
Q 2853 3084 3261 2657 
Q 3669 2231 3669 1497 
Q 3669 778 3244 343 
Q 2819 -91 2113 -91 
Q 1303 -91 875 529 
Q 447 1150 447 2328 
Q 447 3434 972 4092 
Q 1497 4750 2381 4750 
Q 2619 4750 2861 4703 
Q 3103 4656 3366 4563 
z
" transform="scale(0.015625)"/>
       </defs>
       <use xlink:href="#DejaVuSans-36"/>
      </g>
     </g>
    </g>
    <g id="ytick_4">
     <g id="line2d_12">
      <g>
       <use xlink:href="#m3ac5cb375d" x="180" y="194.346291" style="stroke: #000000; stroke-width: 0.8"/>
      </g>
     </g>
     <g id="text_13">
      <!-- 8 -->
      <g transform="translate(166.6375 198.145509) scale(0.1 -0.1)">
       <defs>
        <path id="DejaVuSans-38" d="M 2034 2216 
Q 1584 2216 1326 1975 
Q 1069 1734 1069 1313 
Q 1069 891 1326 650 
Q 1584 409 2034 409 
Q 2484 409 2743 651 
Q 3003 894 3003 1313 
Q 3003 1734 2745 1975 
Q 2488 2216 2034 2216 
z
M 1403 2484 
Q 997 2584 770 2862 
Q 544 3141 544 3541 
Q 544 4100 942 4425 
Q 1341 4750 2034 4750 
Q 2731 4750 3128 4425 
Q 3525 4100 3525 3541 
Q 3525 3141 3298 2862 
Q 3072 2584 2669 2484 
Q 3125 2378 3379 2068 
Q 3634 1759 3634 1313 
Q 3634 634 3220 271 
Q 2806 -91 2034 -91 
Q 1263 -91 848 271 
Q 434 634 434 1313 
Q 434 1759 690 2068 
Q 947 2378 1403 2484 
z
M 1172 3481 
Q 1172 3119 1398 2916 
Q 1625 2713 2034 2713 
Q 2441 2713 2670 2916 
Q 2900 3119 2900 3481 
Q 2900 3844 2670 4047 
Q 2441 4250 2034 4250 
Q 1625 4250 1398 4047 
Q 1172 3844 1172 3481 
z
" transform="scale(0.015625)"/>
       </defs>
       <use xlink:href="#DejaVuSans-38"/>
      </g>
     </g>
    </g>
    <g id="ytick_5">
     <g id="line2d_13">
      <g>
       <use xlink:href="#m3ac5cb375d" x="180" y="160.85113" style="stroke: #000000; stroke-width: 0.8"/>
      </g>
     </g>
     <g id="text_14">
      <!-- 10 -->
      <g transform="translate(160.275 164.650349) scale(0.1 -0.1)">
       <use xlink:href="#DejaVuSans-31"/>
       <use xlink:href="#DejaVuSans-30" x="63.623047"/>
      </g>
     </g>
    </g>
    <g id="ytick_6">
     <g id="line2d_14">
      <g>
       <use xlink:href="#m3ac5cb375d" x="180" y="127.35597" style="stroke: #000000; stroke-width: 0.8"/>
      </g>
     </g>
     <g id="text_15">
      <!-- 12 -->
      <g transform="translate(160.275 131.155188) scale(0.1 -0.1)">
       <use xlink:href="#DejaVuSans-31"/>
       <use xlink:href="#DejaVuSans-32" x="63.623047"/>
      </g>
     </g>
    </g>
    <g id="ytick_7">
     <g id="line2d_15">
      <g>
       <use xlink:href="#m3ac5cb375d" x="180" y="93.860809" style="stroke: #000000; stroke-width: 0.8"/>
      </g>
     </g>
     <g id="text_16">
      <!-- 14 -->
      <g transform="translate(160.275 97.660028) scale(0.1 -0.1)">
       <use xlink:href="#DejaVuSans-31"/>
       <use xlink:href="#DejaVuSans-34" x="63.623047"/>
      </g>
     </g>
    </g>
    <g id="ytick_8">
     <g id="line2d_16">
      <g>
       <use xlink:href="#m3ac5cb375d" x="180" y="60.365649" style="stroke: #000000; stroke-width: 0.8"/>
      </g>
     </g>
     <g id="text_17">
      <!-- 16 -->
      <g transform="translate(160.275 64.164868) scale(0.1 -0.1)">
       <use xlink:href="#DejaVuSans-31"/>
       <use xlink:href="#DejaVuSans-36" x="63.623047"/>
      </g>
     </g>
    </g>
    <g id="text_18">
     <!-- Velocidade do Vento (m/s) -->
     <g transform="translate(154.195312 247.344531) rotate(-90) scale(0.1 -0.1)">
      <defs>
       <path id="DejaVuSans-56" d="M 1831 0 
L 50 4666 
L 709 4666 
L 2188 738 
L 3669 4666 
L 4325 4666 
L 2547 0 
L 1831 0 
z
" transform="scale(0.015625)"/>
       <path id="DejaVuSans-65" d="M 3597 1894 
L 3597 1613 
L 953 1613 
Q 991 1019 1311 708 
Q 1631 397 2203 397 
Q 2534 397 2845 478 
Q 3156 559 3463 722 
L 3463 178 
Q 3153 47 2828 -22 
Q 2503 -91 2169 -91 
Q 1331 -91 842 396 
Q 353 884 353 1716 
Q 353 2575 817 3079 
Q 1281 3584 2069 3584 
Q 2775 3584 3186 3129 
Q 3597 2675 3597 1894 
z
M 3022 2063 
Q 3016 2534 2758 2815 
Q 2500 3097 2075 3097 
Q 1594 3097 1305 2825 
Q 1016 2553 972 2059 
L 3022 2063 
z
" transform="scale(0.015625)"/>
       <path id="DejaVuSans-6c" d="M 603 4863 
L 1178 4863 
L 1178 0 
L 603 0 
L 603 4863 
z
" transform="scale(0.015625)"/>
       <path id="DejaVuSans-63" d="M 3122 3366 
L 3122 2828 
Q 2878 2963 2633 3030 
Q 2388 3097 2138 3097 
Q 1578 3097 1268 2742 
Q 959 2388 959 1747 
Q 959 1106 1268 751 
Q 1578 397 2138 397 
Q 2388 397 2633 464 
Q 2878 531 3122 666 
L 3122 134 
Q 2881 22 2623 -34 
Q 2366 -91 2075 -91 
Q 1284 -91 818 406 
Q 353 903 353 1747 
Q 353 2603 823 3093 
Q 1294 3584 2113 3584 
Q 2378 3584 2631 3529 
Q 2884 3475 3122 3366 
z
" transform="scale(0.015625)"/>
       <path id="DejaVuSans-69" d="M 603 3500 
L 1178 3500 
L 1178 0 
L 603 0 
L 603 3500 
z
M 603 4863 
L 1178 4863 
L 1178 4134 
L 603 4134 
L 603 4863 
z
" transform="scale(0.015625)"/>
       <path id="DejaVuSans-64" d="M 2906 2969 
L 2906 4863 
L 3481 4863 
L 3481 0 
L 2906 0 
L 2906 525 
Q 2725 213 2448 61 
Q 2172 -91 1784 -91 
Q 1150 -91 751 415 
Q 353 922 353 1747 
Q 353 2572 751 3078 
Q 1150 3584 1784 3584 
Q 2172 3584 2448 3432 
Q 2725 3281 2906 2969 
z
M 947 1747 
Q 947 1113 1208 752 
Q 1469 391 1925 391 
Q 2381 391 2643 752 
Q 2906 1113 2906 1747 
Q 2906 2381 2643 2742 
Q 2381 3103 1925 3103 
Q 1469 3103 1208 2742 
Q 947 2381 947 1747 
z
" transform="scale(0.015625)"/>
       <path id="DejaVuSans-20" transform="scale(0.015625)"/>
       <path id="DejaVuSans-6e" d="M 3513 2113 
L 3513 0 
L 2938 0 
L 2938 2094 
Q 2938 2591 2744 2837 
Q 2550 3084 2163 3084 
Q 1697 3084 1428 2787 
Q 1159 2491 1159 1978 
L 1159 0 
L 581 0 
L 581 3500 
L 1159 3500 
L 1159 2956 
Q 1366 3272 1645 3428 
Q 1925 3584 2291 3584 
Q 2894 3584 3203 3211 
Q 3513 2838 3513 2113 
z
" transform="scale(0.015625)"/>
       <path id="DejaVuSans-28" d="M 1984 4856 
Q 1566 4138 1362 3434 
Q 1159 2731 1159 2009 
Q 1159 1288 1364 580 
Q 1569 -128 1984 -844 
L 1484 -844 
Q 1016 -109 783 600 
Q 550 1309 550 2009 
Q 550 2706 781 3412 
Q 1013 4119 1484 4856 
L 1984 4856 
z
" transform="scale(0.015625)"/>
       <path id="DejaVuSans-2f" d="M 1625 4666 
L 2156 4666 
L 531 -594 
L 0 -594 
L 1625 4666 
z
" transform="scale(0.015625)"/>
       <path id="DejaVuSans-29" d="M 513 4856 
L 1013 4856 
Q 1481 4119 1714 3412 
Q 1947 2706 1947 2009 
Q 1947 1309 1714 600 
Q 1481 -109 1013 -844 
L 513 -844 
Q 928 -128 1133 580 
Q 1338 1288 1338 2009 
Q 1338 2731 1133 3434 
Q 928 4138 513 4856 
z
" transform="scale(0.015625)"/>
      </defs>
      <use xlink:href="#DejaVuSans-56"/>
      <use xlink:href="#DejaVuSans-65" x="60.658203"/>
      <use xlink:href="#DejaVuSans-6c" x="122.181641"/>
      <use xlink:href="#DejaVuSans-6f" x="149.964844"/>
      <use xlink:href="#DejaVuSans-63" x="211.146484"/>
      <use xlink:href="#DejaVuSans-69" x="266.126953"/>
      <use xlink:href="#DejaVuSans-64" x="293.910156"/>
      <use xlink:href="#DejaVuSans-61" x="357.386719"/>
      <use xlink:href="#DejaVuSans-64" x="418.666016"/>
      <use xlink:href="#DejaVuSans-65" x="482.142578"/>
      <use xlink:href="#DejaVuSans-20" x="543.666016"/>
      <use xlink:href="#DejaVuSans-64" x="575.453125"/>
      <use xlink:href="#DejaVuSans-6f" x="638.929688"/>
      <use xlink:href="#DejaVuSans-20" x="700.111328"/>
      <use xlink:href="#DejaVuSans-56" x="731.898438"/>
      <use xlink:href="#DejaVuSans-65" x="792.556641"/>
      <use xlink:href="#DejaVuSans-6e" x="854.080078"/>
      <use xlink:href="#DejaVuSans-74" x="917.458984"/>
      <use xlink:href="#DejaVuSans-6f" x="956.667969"/>
      <use xlink:href="#DejaVuSans-20" x="1017.849609"/>
      <use xlink:href="#DejaVuSans-28" x="1049.636719"/>
      <use xlink:href="#DejaVuSans-6d" x="1088.650391"/>
      <use xlink:href="#DejaVuSans-2f" x="1186.0625"/>
      <use xlink:href="#DejaVuSans-73" x="1219.753906"/>
      <use xlink:href="#DejaVuSans-29" x="1271.853516"/>
     </g>
    </g>
   </g>
   <g id="line2d_17">
    <path d="M 230.727273 156.950992 
L 236.066986 164.653681 
L 241.406699 178.780284 
L 246.746411 182.24096 
L 252.086124 187.02638 
L 257.425837 182.931594 
L 262.76555 181.674554 
L 268.105263 173.944329 
L 273.444976 172.440047 
L 278.784689 175.440849 
L 284.124402 194.147283 
L 289.464115 204.867273 
L 294.803828 225.367796 
L 300.143541 216.688802 
L 305.483254 224.497297 
L 310.822967 238.179118 
L 316.162679 242.024378 
L 321.502392 248.174151 
L 326.842105 250.185528 
L 332.181818 242.059731 
L 337.521531 226.235381 
L 342.861244 216.935598 
L 348.200957 191.218178 
L 353.54067 168.882279 
L 358.880383 151.094459 
L 364.220096 137.10614 
L 369.559809 132.581475 
L 374.899522 130.914632 
L 380.239234 126.282797 
L 390.91866 150.632812 
L 396.258373 173.451888 
L 401.598086 179.471221 
L 406.937799 181.049883 
L 412.277512 173.049289 
L 417.617225 158.116913 
L 422.956938 183.034228 
L 428.296651 199.169619 
L 433.636364 194.469928 
L 438.976077 191.798831 
L 444.315789 187.357873 
L 449.655502 182.637043 
L 454.995215 197.233573 
L 460.334928 204.222622 
L 465.674641 190.446823 
L 471.014354 201.364232 
L 476.354067 190.952728 
L 481.69378 176.566425 
L 487.033493 141.584296 
L 492.373206 126.028766 
L 497.712919 124.105418 
L 503.052632 131.043828 
L 508.392344 132.371383 
L 513.732057 128.374615 
L 519.07177 130.713213 
L 524.411483 132.543318 
L 529.751196 146.989467 
L 535.090909 140.087425 
L 540.430622 160.680728 
L 545.770335 175.439986 
L 551.110048 195.300905 
L 556.449761 196.421227 
L 561.789474 200.026847 
L 567.129187 200.817599 
L 572.4689 216.391784 
L 577.808612 221.378352 
L 583.148325 245.645817 
L 588.488038 207.872092 
L 593.827751 189.898322 
L 599.167464 187.398329 
L 604.507177 159.088793 
L 609.84689 137.163415 
L 615.186603 125.957628 
L 620.526316 115.276449 
L 625.866029 110.035244 
L 631.205742 104.031436 
L 636.545455 117.392976 
L 641.885167 114.424165 
L 647.22488 133.210282 
L 652.564593 136.826363 
L 657.904306 146.843422 
L 663.244019 165.295442 
L 668.583732 156.880956 
L 673.923445 165.772565 
L 679.263158 179.659528 
L 684.602871 180.063533 
L 689.942584 180.992449 
L 695.282297 189.403964 
L 700.62201 182.34492 
L 705.961722 195.877685 
L 711.301435 215.023549 
L 716.641148 219.247467 
L 721.980861 197.864617 
L 727.320574 202.521504 
L 732.660287 158.034978 
L 738 132.061898 
L 743.339713 129.444977 
L 748.679426 125.09426 
L 754.019139 123.597149 
L 759.358852 109.075917 
L 764.698565 114.272961 
L 770.038278 118.244078 
L 775.37799 122.040049 
L 780.717703 155.798759 
L 786.057416 170.306239 
L 791.397129 166.227632 
L 796.736842 151.294793 
L 802.076555 157.142748 
L 807.416268 201.466747 
L 812.755981 191.236018 
L 818.095694 188.57032 
L 823.435407 259.568556 
L 828.77512 246.342009 
L 834.114833 220.208278 
L 839.454545 221.590209 
L 844.794258 233.608837 
L 850.133971 223.081282 
L 855.473684 197.905976 
L 860.813397 189.082278 
L 866.15311 173.70996 
L 871.492823 142.567308 
L 876.832536 125.231473 
L 882.172249 134.615396 
L 887.511962 131.487411 
L 892.851675 134.164178 
L 898.191388 134.371236 
L 903.5311 151.699437 
L 908.870813 166.439306 
L 914.210526 154.139103 
L 919.550239 162.643542 
L 924.889952 168.268916 
L 930.229665 161.759826 
L 935.569378 170.767151 
L 940.909091 159.247248 
L 946.248804 175.02742 
L 951.588517 183.903873 
L 956.92823 176.855801 
L 962.267943 184.153895 
L 967.607656 202.482605 
L 972.947368 216.587709 
L 978.287081 205.643228 
L 983.626794 189.744418 
L 994.30622 136.885107 
L 999.645933 125.419732 
L 1004.985646 136.512391 
L 1010.325359 133.261823 
L 1015.665072 130.877594 
L 1021.004785 134.237057 
L 1026.344498 139.554735 
L 1031.684211 159.384222 
L 1037.023923 169.414696 
L 1042.363636 161.274174 
L 1047.703349 180.02223 
L 1053.043062 187.354631 
L 1058.382775 166.972666 
L 1063.722488 196.578341 
L 1069.062201 200.414832 
L 1074.401914 211.554927 
L 1079.741627 234.380352 
L 1085.08134 228.774576 
L 1090.421053 231.470334 
L 1095.760766 235.90955 
L 1101.100478 204.381173 
L 1106.440191 217.667526 
L 1111.779904 221.226572 
L 1117.119617 197.347188 
L 1122.45933 188.343026 
L 1127.799043 168.053058 
L 1133.138756 142.816452 
L 1138.478469 130.783856 
L 1143.818182 124.889486 
L 1149.157895 129.190404 
L 1154.497608 135.698727 
L 1159.837321 143.921584 
L 1165.177033 135.329029 
L 1170.516746 142.817602 
L 1175.856459 164.637933 
L 1181.196172 176.049803 
L 1186.535885 162.289034 
L 1191.875598 155.019577 
L 1197.215311 164.956298 
L 1202.555024 179.137939 
L 1207.894737 183.352145 
L 1213.23445 200.207152 
L 1218.574163 209.190223 
L 1223.913876 225.713033 
L 1229.253589 226.461126 
L 1234.593301 215.289311 
L 1239.933014 182.483107 
L 1245.272727 162.637553 
L 1245.272727 162.637553 
" clip-path="url(#p68437424a7)" style="fill: none; stroke: #0000ff; stroke-width: 1.5; stroke-linecap: square"/>
   </g>
   <g id="line2d_18">
    <path d="M 230.727273 173.104776 
L 236.066986 182.046123 
L 241.406699 166.50809 
L 246.746411 183.953487 
L 252.086124 181.580913 
L 257.425837 178.138355 
L 262.76555 172.211572 
L 268.105263 167.410598 
L 273.444976 174.705101 
L 278.784689 198.319189 
L 284.124402 208.377041 
L 289.464115 227.459978 
L 294.803828 216.843873 
L 300.143541 227.878668 
L 305.483254 242.839839 
L 310.822967 245.911846 
L 316.162679 254.637579 
L 321.502392 264.351176 
L 326.842105 262.76946 
L 332.181818 249.399308 
L 337.521531 238.745987 
L 342.861244 195.928006 
L 348.200957 159.269414 
L 353.54067 134.445778 
L 358.880383 111.157338 
L 364.220096 113.148439 
L 369.559809 113.79043 
L 374.899522 111.864458 
L 380.239234 138.083726 
L 385.578947 155.891986 
L 390.91866 183.67436 
L 396.258373 187.758909 
L 401.598086 189.04289 
L 406.937799 178.780345 
L 412.277512 160.004447 
L 417.617225 179.264165 
L 422.956938 195.34184 
L 428.296651 193.043701 
L 433.636364 190.929009 
L 438.976077 187.03204 
L 444.315789 182.939473 
L 449.655502 203.994757 
L 454.995215 213.959568 
L 460.334928 208.414258 
L 465.674641 214.610863 
L 471.014354 212.712803 
L 476.354067 192.22493 
L 481.69378 134.520212 
L 487.033493 98.28031 
L 492.373206 95.619305 
L 497.712919 112.515752 
L 503.052632 127.6444 
L 508.392344 118.321581 
L 513.732057 113.632258 
L 519.07177 124.350709 
L 524.411483 151.323618 
L 529.751196 137.441735 
L 535.090909 161.688509 
L 540.430622 174.677188 
L 545.770335 188.68933 
L 551.110048 193.183264 
L 556.449761 198.086583 
L 561.789474 197.881891 
L 567.129187 210.768224 
L 572.4689 216.760136 
L 577.808612 247.947852 
L 583.148325 217.002045 
L 588.488038 208.702689 
L 593.827751 206.460374 
L 599.167464 169.866911 
L 604.507177 134.576038 
L 609.84689 108.933631 
L 615.186603 71.856349 
L 620.526316 85.161372 
L 625.866029 96.791636 
L 631.205742 114.451029 
L 636.545455 110.89682 
L 641.885167 144.298938 
L 647.22488 142.354358 
L 652.564593 145.703875 
L 657.904306 163.605176 
L 663.244019 152.65412 
L 668.583732 161.679205 
L 673.923445 171.988272 
L 679.263158 171.439323 
L 684.602871 172.444178 
L 689.942584 182.315946 
L 695.282297 178.426786 
L 700.62201 195.732617 
L 705.961722 216.685702 
L 711.301435 230.046549 
L 716.641148 216.108841 
L 721.980861 219.430444 
L 727.320574 168.536408 
L 732.660287 129.52385 
L 738 121.382666 
L 743.339713 109.352321 
L 748.679426 89.255225 
L 754.019139 94.874969 
L 759.358852 102.683924 
L 764.698565 110.292046 
L 770.038278 119.577649 
L 775.37799 167.252428 
L 780.717703 180.008501 
L 786.057416 165.568365 
L 791.397129 142.531138 
L 796.736842 150.383893 
L 802.076555 194.709155 
L 807.416268 243.4167 
L 812.755981 248.245586 
L 818.095694 253.344294 
L 823.435407 243.491135 
L 828.77512 223.338212 
L 834.114833 227.115723 
L 839.454545 246.226572 
L 844.794258 243.616591 
L 850.133971 227.676879 
L 855.473684 212.731412 
L 860.813397 172.220876 
L 866.15311 118.907746 
L 871.492823 96.475293 
L 876.832536 112.292451 
L 882.172249 106.077239 
L 887.511962 105.742287 
L 892.851675 125.513735 
L 898.191388 155.603555 
L 903.5311 173.281556 
L 908.870813 156.943361 
L 914.210526 170.601944 
L 919.550239 173.272252 
L 924.889952 160.609221 
L 930.229665 164.777508 
L 935.569378 155.054606 
L 940.909091 174.556233 
L 946.248804 186.074847 
L 951.588517 181.860038 
L 956.92823 195.072018 
L 962.267943 213.001234 
L 967.607656 234.084577 
L 972.947368 231.814349 
L 978.287081 214.750426 
L 983.626794 176.370554 
L 988.966507 138.893191 
L 994.30622 117.363247 
L 999.645933 144.792061 
L 1004.985646 129.719239 
L 1010.325359 127.635096 
L 1015.665072 140.577254 
L 1021.004785 147.257677 
L 1026.344498 172.174356 
L 1031.684211 187.042485 
L 1037.023923 177.701057 
L 1042.363636 197.928411 
L 1047.703349 203.120162 
L 1053.043062 178.296526 
L 1058.382775 198.281972 
L 1063.722488 198.709966 
L 1069.062201 213.894439 
L 1074.401914 240.309094 
L 1079.741627 239.397282 
L 1085.08134 246.189356 
L 1090.421053 242.867752 
L 1095.760766 215.206332 
L 1101.100478 240.960389 
L 1106.440191 257.717273 
L 1111.779904 229.20917 
L 1117.119617 214.415474 
L 1122.45933 184.362872 
L 1127.799043 139.600312 
L 1133.138756 123.308637 
L 1138.478469 117.763328 
L 1143.818182 123.317941 
L 1149.157895 122.537531 
L 1154.497608 139.624983 
L 1159.837321 141.479762 
L 1165.177033 152.384298 
L 1170.516746 179.617724 
L 1175.856459 192.773878 
L 1181.196172 160.097489 
L 1186.535885 145.275881 
L 1191.875598 156.589802 
L 1197.215311 174.742317 
L 1202.555024 183.869749 
L 1207.894737 204.180842 
L 1213.23445 215.46685 
L 1218.574163 235.480209 
L 1223.913876 242.579322 
L 1229.253589 240.951085 
L 1234.593301 204.887962 
L 1239.933014 154.142794 
L 1245.272727 120.647633 
L 1245.272727 120.647633 
" clip-path="url(#p68437424a7)" style="fill: none; stroke: #ffa500; stroke-width: 1.5; stroke-linecap: square"/>
   </g>
   <g id="patch_3">
    <path d="M 180 320.4 
L 180 43.2 
" style="fill: none; stroke: #000000; stroke-width: 0.8; stroke-linejoin: miter; stroke-linecap: square"/>
   </g>
   <g id="patch_4">
    <path d="M 1296 320.4 
L 1296 43.2 
" style="fill: none; stroke: #000000; stroke-width: 0.8; stroke-linejoin: miter; stroke-linecap: square"/>
   </g>
   <g id="patch_5">
    <path d="M 180 320.4 
L 1296 320.4 
" style="fill: none; stroke: #000000; stroke-width: 0.8; stroke-linejoin: miter; stroke-linecap: square"/>
   </g>
   <g id="patch_6">
    <path d="M 180 43.2 
L 1296 43.2 
" style="fill: none; stroke: #000000; stroke-width: 0.8; stroke-linejoin: miter; stroke-linecap: square"/>
   </g>
   <g id="text_19">
    <!-- Previsão do vento para 1 hora(s) à frente com 1 camadas -->
    <g transform="translate(564.882187 37.2) scale(0.12 -0.12)">
     <defs>
      <path id="DejaVuSans-50" d="M 1259 4147 
L 1259 2394 
L 2053 2394 
Q 2494 2394 2734 2622 
Q 2975 2850 2975 3272 
Q 2975 3691 2734 3919 
Q 2494 4147 2053 4147 
L 1259 4147 
z
M 628 4666 
L 2053 4666 
Q 2838 4666 3239 4311 
Q 3641 3956 3641 3272 
Q 3641 2581 3239 2228 
Q 2838 1875 2053 1875 
L 1259 1875 
L 1259 0 
L 628 0 
L 628 4666 
z
" transform="scale(0.015625)"/>
      <path id="DejaVuSans-76" d="M 191 3500 
L 800 3500 
L 1894 563 
L 2988 3500 
L 3597 3500 
L 2284 0 
L 1503 0 
L 191 3500 
z
" transform="scale(0.015625)"/>
      <path id="DejaVuSans-e3" d="M 2194 1759 
Q 1497 1759 1228 1600 
Q 959 1441 959 1056 
Q 959 750 1161 570 
Q 1363 391 1709 391 
Q 2188 391 2477 730 
Q 2766 1069 2766 1631 
L 2766 1759 
L 2194 1759 
z
M 3341 1997 
L 3341 0 
L 2766 0 
L 2766 531 
Q 2569 213 2275 61 
Q 1981 -91 1556 -91 
Q 1019 -91 701 211 
Q 384 513 384 1019 
Q 384 1609 779 1909 
Q 1175 2209 1959 2209 
L 2766 2209 
L 2766 2266 
Q 2766 2663 2505 2880 
Q 2244 3097 1772 3097 
Q 1472 3097 1187 3025 
Q 903 2953 641 2809 
L 641 3341 
Q 956 3463 1253 3523 
Q 1550 3584 1831 3584 
Q 2591 3584 2966 3190 
Q 3341 2797 3341 1997 
z
M 1844 4281 
L 1666 4453 
Q 1597 4516 1545 4545 
Q 1494 4575 1453 4575 
Q 1334 4575 1278 4461 
Q 1222 4347 1216 4091 
L 825 4091 
Q 831 4513 990 4742 
Q 1150 4972 1434 4972 
Q 1553 4972 1653 4928 
Q 1753 4884 1869 4781 
L 2047 4609 
Q 2116 4547 2167 4517 
Q 2219 4488 2259 4488 
Q 2378 4488 2434 4602 
Q 2491 4716 2497 4972 
L 2888 4972 
Q 2881 4550 2722 4320 
Q 2563 4091 2278 4091 
Q 2159 4091 2059 4134 
Q 1959 4178 1844 4281 
z
" transform="scale(0.015625)"/>
      <path id="DejaVuSans-70" d="M 1159 525 
L 1159 -1331 
L 581 -1331 
L 581 3500 
L 1159 3500 
L 1159 2969 
Q 1341 3281 1617 3432 
Q 1894 3584 2278 3584 
Q 2916 3584 3314 3078 
Q 3713 2572 3713 1747 
Q 3713 922 3314 415 
Q 2916 -91 2278 -91 
Q 1894 -91 1617 61 
Q 1341 213 1159 525 
z
M 3116 1747 
Q 3116 2381 2855 2742 
Q 2594 3103 2138 3103 
Q 1681 3103 1420 2742 
Q 1159 2381 1159 1747 
Q 1159 1113 1420 752 
Q 1681 391 2138 391 
Q 2594 391 2855 752 
Q 3116 1113 3116 1747 
z
" transform="scale(0.015625)"/>
      <path id="DejaVuSans-68" d="M 3513 2113 
L 3513 0 
L 2938 0 
L 2938 2094 
Q 2938 2591 2744 2837 
Q 2550 3084 2163 3084 
Q 1697 3084 1428 2787 
Q 1159 2491 1159 1978 
L 1159 0 
L 581 0 
L 581 4863 
L 1159 4863 
L 1159 2956 
Q 1366 3272 1645 3428 
Q 1925 3584 2291 3584 
Q 2894 3584 3203 3211 
Q 3513 2838 3513 2113 
z
" transform="scale(0.015625)"/>
      <path id="DejaVuSans-e0" d="M 2194 1759 
Q 1497 1759 1228 1600 
Q 959 1441 959 1056 
Q 959 750 1161 570 
Q 1363 391 1709 391 
Q 2188 391 2477 730 
Q 2766 1069 2766 1631 
L 2766 1759 
L 2194 1759 
z
M 3341 1997 
L 3341 0 
L 2766 0 
L 2766 531 
Q 2569 213 2275 61 
Q 1981 -91 1556 -91 
Q 1019 -91 701 211 
Q 384 513 384 1019 
Q 384 1609 779 1909 
Q 1175 2209 1959 2209 
L 2766 2209 
L 2766 2266 
Q 2766 2663 2505 2880 
Q 2244 3097 1772 3097 
Q 1472 3097 1187 3025 
Q 903 2953 641 2809 
L 641 3341 
Q 956 3463 1253 3523 
Q 1550 3584 1831 3584 
Q 2591 3584 2966 3190 
Q 3341 2797 3341 1997 
z
M 1403 5119 
L 2284 3950 
L 1806 3950 
L 788 5119 
L 1403 5119 
z
" transform="scale(0.015625)"/>
      <path id="DejaVuSans-66" d="M 2375 4863 
L 2375 4384 
L 1825 4384 
Q 1516 4384 1395 4259 
Q 1275 4134 1275 3809 
L 1275 3500 
L 2222 3500 
L 2222 3053 
L 1275 3053 
L 1275 0 
L 697 0 
L 697 3053 
L 147 3053 
L 147 3500 
L 697 3500 
L 697 3744 
Q 697 4328 969 4595 
Q 1241 4863 1831 4863 
L 2375 4863 
z
" transform="scale(0.015625)"/>
     </defs>
     <use xlink:href="#DejaVuSans-50"/>
     <use xlink:href="#DejaVuSans-72" x="58.552734"/>
     <use xlink:href="#DejaVuSans-65" x="97.416016"/>
     <use xlink:href="#DejaVuSans-76" x="158.939453"/>
     <use xlink:href="#DejaVuSans-69" x="218.119141"/>
     <use xlink:href="#DejaVuSans-73" x="245.902344"/>
     <use xlink:href="#DejaVuSans-e3" x="298.001953"/>
     <use xlink:href="#DejaVuSans-6f" x="359.28125"/>
     <use xlink:href="#DejaVuSans-20" x="420.462891"/>
     <use xlink:href="#DejaVuSans-64" x="452.25"/>
     <use xlink:href="#DejaVuSans-6f" x="515.726562"/>
     <use xlink:href="#DejaVuSans-20" x="576.908203"/>
     <use xlink:href="#DejaVuSans-76" x="608.695312"/>
     <use xlink:href="#DejaVuSans-65" x="667.875"/>
     <use xlink:href="#DejaVuSans-6e" x="729.398438"/>
     <use xlink:href="#DejaVuSans-74" x="792.777344"/>
     <use xlink:href="#DejaVuSans-6f" x="831.986328"/>
     <use xlink:href="#DejaVuSans-20" x="893.167969"/>
     <use xlink:href="#DejaVuSans-70" x="924.955078"/>
     <use xlink:href="#DejaVuSans-61" x="988.431641"/>
     <use xlink:href="#DejaVuSans-72" x="1049.710938"/>
     <use xlink:href="#DejaVuSans-61" x="1090.824219"/>
     <use xlink:href="#DejaVuSans-20" x="1152.103516"/>
     <use xlink:href="#DejaVuSans-31" x="1183.890625"/>
     <use xlink:href="#DejaVuSans-20" x="1247.513672"/>
     <use xlink:href="#DejaVuSans-68" x="1279.300781"/>
     <use xlink:href="#DejaVuSans-6f" x="1342.679688"/>
     <use xlink:href="#DejaVuSans-72" x="1403.861328"/>
     <use xlink:href="#DejaVuSans-61" x="1444.974609"/>
     <use xlink:href="#DejaVuSans-28" x="1506.253906"/>
     <use xlink:href="#DejaVuSans-73" x="1545.267578"/>
     <use xlink:href="#DejaVuSans-29" x="1597.367188"/>
     <use xlink:href="#DejaVuSans-20" x="1636.380859"/>
     <use xlink:href="#DejaVuSans-e0" x="1668.167969"/>
     <use xlink:href="#DejaVuSans-20" x="1729.447266"/>
     <use xlink:href="#DejaVuSans-66" x="1761.234375"/>
     <use xlink:href="#DejaVuSans-72" x="1796.439453"/>
     <use xlink:href="#DejaVuSans-65" x="1835.302734"/>
     <use xlink:href="#DejaVuSans-6e" x="1896.826172"/>
     <use xlink:href="#DejaVuSans-74" x="1960.205078"/>
     <use xlink:href="#DejaVuSans-65" x="1999.414062"/>
     <use xlink:href="#DejaVuSans-20" x="2060.9375"/>
     <use xlink:href="#DejaVuSans-63" x="2092.724609"/>
     <use xlink:href="#DejaVuSans-6f" x="2147.705078"/>
     <use xlink:href="#DejaVuSans-6d" x="2208.886719"/>
     <use xlink:href="#DejaVuSans-20" x="2306.298828"/>
     <use xlink:href="#DejaVuSans-31" x="2338.085938"/>
     <use xlink:href="#DejaVuSans-20" x="2401.708984"/>
     <use xlink:href="#DejaVuSans-63" x="2433.496094"/>
     <use xlink:href="#DejaVuSans-61" x="2488.476562"/>
     <use xlink:href="#DejaVuSans-6d" x="2549.755859"/>
     <use xlink:href="#DejaVuSans-61" x="2647.167969"/>
     <use xlink:href="#DejaVuSans-64" x="2708.447266"/>
     <use xlink:href="#DejaVuSans-61" x="2771.923828"/>
     <use xlink:href="#DejaVuSans-73" x="2833.203125"/>
    </g>
   </g>
   <g id="legend_1">
    <g id="patch_7">
     <path d="M 1217.86875 80.55625 
L 1289 80.55625 
Q 1291 80.55625 1291 78.55625 
L 1291 50.2 
Q 1291 48.2 1289 48.2 
L 1217.86875 48.2 
Q 1215.86875 48.2 1215.86875 50.2 
L 1215.86875 78.55625 
Q 1215.86875 80.55625 1217.86875 80.55625 
z
" style="fill: #ffffff; opacity: 0.8; stroke: #cccccc; stroke-linejoin: miter"/>
    </g>
    <g id="line2d_19">
     <path d="M 1219.86875 56.298437 
L 1229.86875 56.298437 
L 1239.86875 56.298437 
" style="fill: none; stroke: #0000ff; stroke-width: 1.5; stroke-linecap: square"/>
    </g>
    <g id="text_20">
     <!-- Predito -->
     <g transform="translate(1247.86875 59.798437) scale(0.1 -0.1)">
      <use xlink:href="#DejaVuSans-50"/>
      <use xlink:href="#DejaVuSans-72" x="58.552734"/>
      <use xlink:href="#DejaVuSans-65" x="97.416016"/>
      <use xlink:href="#DejaVuSans-64" x="158.939453"/>
      <use xlink:href="#DejaVuSans-69" x="222.416016"/>
      <use xlink:href="#DejaVuSans-74" x="250.199219"/>
      <use xlink:href="#DejaVuSans-6f" x="289.408203"/>
     </g>
    </g>
    <g id="line2d_20">
     <path d="M 1219.86875 70.976562 
L 1229.86875 70.976562 
L 1239.86875 70.976562 
" style="fill: none; stroke: #ffa500; stroke-width: 1.5; stroke-linecap: square"/>
    </g>
    <g id="text_21">
     <!-- Original -->
     <g transform="translate(1247.86875 74.476562) scale(0.1 -0.1)">
      <defs>
       <path id="DejaVuSans-4f" d="M 2522 4238 
Q 1834 4238 1429 3725 
Q 1025 3213 1025 2328 
Q 1025 1447 1429 934 
Q 1834 422 2522 422 
Q 3209 422 3611 934 
Q 4013 1447 4013 2328 
Q 4013 3213 3611 3725 
Q 3209 4238 2522 4238 
z
M 2522 4750 
Q 3503 4750 4090 4092 
Q 4678 3434 4678 2328 
Q 4678 1225 4090 567 
Q 3503 -91 2522 -91 
Q 1538 -91 948 565 
Q 359 1222 359 2328 
Q 359 3434 948 4092 
Q 1538 4750 2522 4750 
z
" transform="scale(0.015625)"/>
       <path id="DejaVuSans-67" d="M 2906 1791 
Q 2906 2416 2648 2759 
Q 2391 3103 1925 3103 
Q 1463 3103 1205 2759 
Q 947 2416 947 1791 
Q 947 1169 1205 825 
Q 1463 481 1925 481 
Q 2391 481 2648 825 
Q 2906 1169 2906 1791 
z
M 3481 434 
Q 3481 -459 3084 -895 
Q 2688 -1331 1869 -1331 
Q 1566 -1331 1297 -1286 
Q 1028 -1241 775 -1147 
L 775 -588 
Q 1028 -725 1275 -790 
Q 1522 -856 1778 -856 
Q 2344 -856 2625 -561 
Q 2906 -266 2906 331 
L 2906 616 
Q 2728 306 2450 153 
Q 2172 0 1784 0 
Q 1141 0 747 490 
Q 353 981 353 1791 
Q 353 2603 747 3093 
Q 1141 3584 1784 3584 
Q 2172 3584 2450 3431 
Q 2728 3278 2906 2969 
L 2906 3500 
L 3481 3500 
L 3481 434 
z
" transform="scale(0.015625)"/>
      </defs>
      <use xlink:href="#DejaVuSans-4f"/>
      <use xlink:href="#DejaVuSans-72" x="78.710938"/>
      <use xlink:href="#DejaVuSans-69" x="119.824219"/>
      <use xlink:href="#DejaVuSans-67" x="147.607422"/>
      <use xlink:href="#DejaVuSans-69" x="211.083984"/>
      <use xlink:href="#DejaVuSans-6e" x="238.867188"/>
      <use xlink:href="#DejaVuSans-61" x="302.246094"/>
      <use xlink:href="#DejaVuSans-6c" x="363.525391"/>
     </g>
    </g>
   </g>
  </g>
 </g>
 <defs>
  <clipPath id="p68437424a7">
   <rect x="180" y="43.2" width="1116" height="277.2"/>
  </clipPath>
 </defs>
</svg>
