<?xml version="1.0" encoding="utf-8" standalone="no"?>
<!DOCTYPE svg PUBLIC "-//W3C//DTD SVG 1.1//EN"
  "http://www.w3.org/Graphics/SVG/1.1/DTD/svg11.dtd">
<svg xmlns:xlink="http://www.w3.org/1999/xlink" width="1440pt" height="360pt" viewBox="0 0 1440 360" xmlns="http://www.w3.org/2000/svg" version="1.1">
 <metadata>
  <rdf:RDF xmlns:dc="http://purl.org/dc/elements/1.1/" xmlns:cc="http://creativecommons.org/ns#" xmlns:rdf="http://www.w3.org/1999/02/22-rdf-syntax-ns#">
   <cc:Work>
    <dc:type rdf:resource="http://purl.org/dc/dcmitype/StillImage"/>
    <dc:date>2023-08-21T14:06:30.491812</dc:date>
    <dc:format>image/svg+xml</dc:format>
    <dc:creator>
     <cc:Agent>
      <dc:title>Matplotlib v3.7.1, https://matplotlib.org/</dc:title>
     </cc:Agent>
    </dc:creator>
   </cc:Work>
  </rdf:RDF>
 </metadata>
 <defs>
  <style type="text/css">*{stroke-linejoin: round; stroke-linecap: butt}</style>
 </defs>
 <g id="figure_1">
  <g id="patch_1">
   <path d="M 0 360 
L 1440 360 
L 1440 0 
L 0 0 
z
" style="fill: #ffffff"/>
  </g>
  <g id="axes_1">
   <g id="patch_2">
    <path d="M 180 320.4 
L 1296 320.4 
L 1296 43.2 
L 180 43.2 
z
" style="fill: #ffffff"/>
   </g>
   <g id="PolyCollection_1">
    <defs>
     <path id="m442e98d433" d="M 230.727273 -273.012512 
L 230.727273 -192.795938 
L 236.066986 -161.079181 
L 241.406699 -151.246395 
L 246.746411 -157.932838 
L 252.086124 -146.695719 
L 257.425837 -149.894296 
L 262.76555 -150.413928 
L 268.105263 -154.107993 
L 273.444976 -154.704463 
L 278.784689 -149.925513 
L 284.124402 -137.369716 
L 289.464115 -130.670099 
L 294.803828 -80.539115 
L 300.143541 -95.289336 
L 305.483254 -86.805471 
L 310.822967 -73.436557 
L 316.162679 -73.065056 
L 321.502392 -67.723664 
L 326.842105 -62.744897 
L 332.181818 -67.629338 
L 337.521531 -79.733456 
L 342.861244 -93.069299 
L 348.200957 -136.722653 
L 353.54067 -172.096842 
L 358.880383 -193.671412 
L 364.220096 -206.663613 
L 369.559809 -205.343653 
L 374.899522 -202.465669 
L 380.239234 -201.811926 
L 385.578947 -185.552461 
L 390.91866 -171.316677 
L 396.258373 -153.75304 
L 401.598086 -149.196077 
L 406.937799 -147.813119 
L 412.277512 -150.137931 
L 417.617225 -153.840933 
L 422.956938 -137.296227 
L 428.296651 -118.617053 
L 433.636364 -125.101757 
L 438.976077 -129.898699 
L 444.315789 -136.661228 
L 449.655502 -143.254464 
L 454.995215 -125.265803 
L 460.334928 -118.230746 
L 465.674641 -135.593822 
L 471.014354 -141.730083 
L 476.354067 -142.416871 
L 481.69378 -156.17521 
L 487.033493 -200.780163 
L 492.373206 -217.681854 
L 497.712919 -213.44439 
L 503.052632 -200.794276 
L 508.392344 -192.761236 
L 513.732057 -192.834605 
L 519.07177 -186.910421 
L 524.411483 -180.347717 
L 529.751196 -166.880839 
L 535.090909 -166.719919 
L 540.430622 -155.839684 
L 545.770335 -146.254787 
L 551.110048 -122.955379 
L 556.449761 -121.013371 
L 561.789474 -118.15478 
L 567.129187 -120.03608 
L 572.4689 -105.040411 
L 577.808612 -101.444234 
L 583.148325 -75.494419 
L 588.488038 -114.352284 
L 593.827751 -135.125398 
L 599.167464 -142.489215 
L 604.507177 -178.098513 
L 609.84689 -204.749575 
L 615.186603 -214.619439 
L 620.526316 -223.983426 
L 625.866029 -220.665774 
L 631.205742 -219.645271 
L 636.545455 -208.873313 
L 641.885167 -198.395361 
L 647.22488 -181.022562 
L 652.564593 -172.553391 
L 657.904306 -164.419302 
L 663.244019 -152.781626 
L 668.583732 -154.22401 
L 673.923445 -148.117189 
L 679.263158 -141.518468 
L 684.602871 -143.126265 
L 689.942584 -143.482329 
L 695.282297 -133.99286 
L 700.62201 -141.665018 
L 705.961722 -125.721566 
L 711.301435 -106.63295 
L 716.641148 -102.70979 
L 721.980861 -127.338932 
L 727.320574 -134.938781 
L 732.660287 -174.942584 
L 738 -205.999959 
L 743.339713 -208.325659 
L 748.679426 -210.101348 
L 754.019139 -209.955703 
L 759.358852 -212.116827 
L 764.698565 -201.400075 
L 770.038278 -194.451253 
L 775.37799 -185.892463 
L 780.717703 -163.243056 
L 786.057416 -153.823197 
L 791.397129 -152.705233 
L 796.736842 -154.602423 
L 802.076555 -149.394108 
L 807.416268 -112.255542 
L 812.755981 -58.072352 
L 818.095694 -56.120892 
L 823.435407 -52.2 
L 828.77512 -67.782236 
L 834.114833 -97.298391 
L 839.454545 -98.008853 
L 844.794258 -91.865074 
L 850.133971 -107.747104 
L 855.473684 -125.381478 
L 860.813397 -135.36941 
L 866.15311 -160.972323 
L 871.492823 -196.273177 
L 876.832536 -207.698434 
L 882.172249 -195.794125 
L 887.511962 -195.761849 
L 892.851675 -190.152038 
L 898.191388 -182.91519 
L 903.5311 -168.681012 
L 908.870813 -158.92696 
L 914.210526 -160.736616 
L 919.550239 -156.360888 
L 924.889952 -151.606371 
L 930.229665 -148.95468 
L 935.569378 -148.020241 
L 940.909091 -161.942028 
L 946.248804 -142.116749 
L 951.588517 -132.537029 
L 956.92823 -141.043004 
L 962.267943 -132.986726 
L 967.607656 -116.335692 
L 972.947368 -103.961131 
L 978.287081 -116.834428 
L 983.626794 -132.663349 
L 988.966507 -166.138571 
L 994.30622 -195.943956 
L 999.645933 -204.397168 
L 1004.985646 -191.532517 
L 1010.325359 -194.404436 
L 1015.665072 -191.848052 
L 1021.004785 -185.03734 
L 1026.344498 -178.526391 
L 1031.684211 -166.123039 
L 1037.023923 -161.211003 
L 1042.363636 -163.659469 
L 1047.703349 -157.507557 
L 1053.043062 -154.120381 
L 1058.382775 -154.840283 
L 1063.722488 -111.87988 
L 1069.062201 -111.111334 
L 1074.401914 -98.78068 
L 1079.741627 -76.215005 
L 1085.08134 -84.805327 
L 1090.421053 -84.067971 
L 1095.760766 -85.218289 
L 1101.100478 -116.579259 
L 1106.440191 -107.463555 
L 1111.779904 -104.655249 
L 1117.119617 -125.141004 
L 1122.45933 -138.645507 
L 1127.799043 -163.116019 
L 1133.138756 -187.71138 
L 1138.478469 -194.402761 
L 1143.818182 -194.75264 
L 1149.157895 -187.651151 
L 1154.497608 -179.156025 
L 1159.837321 -171.76229 
L 1165.177033 -173.188972 
L 1170.516746 -168.54726 
L 1175.856459 -162.026264 
L 1181.196172 -158.8465 
L 1186.535885 -150.706362 
L 1191.875598 -168.94985 
L 1197.215311 -156.756712 
L 1202.555024 -139.197518 
L 1207.894737 -133.113473 
L 1213.23445 -114.693671 
L 1218.574163 -107.184722 
L 1223.913876 -93.721735 
L 1229.253589 -97.520395 
L 1234.593301 -111.161345 
L 1239.933014 -140.538135 
L 1245.272727 -171.800444 
L 1245.272727 -252.017018 
L 1245.272727 -252.017018 
L 1239.933014 -220.754709 
L 1234.593301 -191.37792 
L 1229.253589 -177.736965 
L 1223.913876 -173.938296 
L 1218.574163 -187.401296 
L 1213.23445 -194.910228 
L 1207.894737 -213.330047 
L 1202.555024 -219.414092 
L 1197.215311 -236.973286 
L 1191.875598 -249.166424 
L 1186.535885 -230.922936 
L 1181.196172 -239.063074 
L 1175.856459 -242.242838 
L 1170.516746 -248.763834 
L 1165.177033 -253.405546 
L 1159.837321 -251.978864 
L 1154.497608 -259.372599 
L 1149.157895 -267.867725 
L 1143.818182 -274.969214 
L 1138.478469 -274.619335 
L 1133.138756 -267.927954 
L 1127.799043 -243.332593 
L 1122.45933 -218.862081 
L 1117.119617 -205.357561 
L 1111.779904 -184.871806 
L 1106.440191 -187.680112 
L 1101.100478 -196.795816 
L 1095.760766 -165.43485 
L 1090.421053 -164.284541 
L 1085.08134 -165.021888 
L 1079.741627 -156.431575 
L 1074.401914 -178.997241 
L 1069.062201 -191.327908 
L 1063.722488 -192.096437 
L 1058.382775 -235.056857 
L 1053.043062 -234.336955 
L 1047.703349 -237.724131 
L 1042.363636 -243.876043 
L 1037.023923 -241.427577 
L 1031.684211 -246.339613 
L 1026.344498 -258.742965 
L 1021.004785 -265.253914 
L 1015.665072 -272.064626 
L 1010.325359 -274.62101 
L 1004.985646 -271.749091 
L 999.645933 -284.613742 
L 994.30622 -276.16053 
L 988.966507 -246.355145 
L 983.626794 -212.879923 
L 978.287081 -197.050985 
L 972.947368 -184.177705 
L 967.607656 -196.552266 
L 962.267943 -213.2033 
L 956.92823 -221.259578 
L 951.588517 -212.753603 
L 946.248804 -222.333323 
L 940.909091 -242.158602 
L 935.569378 -228.236815 
L 930.229665 -229.171254 
L 924.889952 -231.822946 
L 919.550239 -236.577462 
L 914.210526 -240.95319 
L 908.870813 -239.143534 
L 903.5311 -248.897586 
L 898.191388 -263.131764 
L 892.851675 -270.368612 
L 887.511962 -275.978423 
L 882.172249 -276.010699 
L 876.832536 -287.915008 
L 871.492823 -276.489751 
L 866.15311 -241.188897 
L 860.813397 -215.585984 
L 855.473684 -205.598053 
L 850.133971 -187.963678 
L 844.794258 -172.081635 
L 839.454545 -178.225414 
L 834.114833 -177.514961 
L 828.77512 -147.998798 
L 823.435407 -132.41657 
L 818.095694 -136.337457 
L 812.755981 -138.288914 
L 807.416268 -192.472099 
L 802.076555 -229.610682 
L 796.736842 -234.818997 
L 791.397129 -232.921807 
L 786.057416 -234.039771 
L 780.717703 -243.45963 
L 775.37799 -266.109037 
L 770.038278 -274.667827 
L 764.698565 -281.616649 
L 759.358852 -292.333401 
L 754.019139 -290.172277 
L 748.679426 -290.317922 
L 743.339713 -288.542233 
L 738 -286.216533 
L 732.660287 -255.159158 
L 727.320574 -215.155355 
L 721.980861 -207.555506 
L 716.641148 -182.926347 
L 711.301435 -186.849525 
L 705.961722 -205.938123 
L 700.62201 -221.881592 
L 695.282297 -214.209434 
L 689.942584 -223.698903 
L 684.602871 -223.342839 
L 679.263158 -221.735042 
L 673.923445 -228.333763 
L 668.583732 -234.440584 
L 663.244019 -232.9982 
L 657.904306 -244.635876 
L 652.564593 -252.769965 
L 647.22488 -261.239136 
L 641.885167 -278.611935 
L 636.545455 -289.089887 
L 631.205742 -299.861845 
L 625.866029 -300.882348 
L 620.526316 -304.2 
L 615.186603 -294.836013 
L 609.84689 -284.96615 
L 604.507177 -258.315087 
L 599.167464 -222.705789 
L 593.827751 -215.341973 
L 588.488038 -194.568858 
L 583.148325 -155.710989 
L 577.808612 -181.660808 
L 572.4689 -185.256985 
L 567.129187 -200.252637 
L 561.789474 -198.371337 
L 556.449761 -201.229945 
L 551.110048 -203.171936 
L 545.770335 -226.471361 
L 540.430622 -236.056258 
L 535.090909 -246.936493 
L 529.751196 -247.097413 
L 524.411483 -260.564291 
L 519.07177 -267.126995 
L 513.732057 -273.051179 
L 508.392344 -272.97781 
L 503.052632 -281.01085 
L 497.712919 -293.660964 
L 492.373206 -297.898428 
L 487.033493 -280.996737 
L 481.69378 -236.391784 
L 476.354067 -222.633446 
L 471.014354 -221.946657 
L 465.674641 -215.810397 
L 460.334928 -198.447303 
L 454.995215 -205.482378 
L 449.655502 -223.471039 
L 444.315789 -216.877802 
L 438.976077 -210.115273 
L 433.636364 -205.318331 
L 428.296651 -198.83361 
L 422.956938 -217.512801 
L 417.617225 -234.057507 
L 412.277512 -230.354505 
L 406.937799 -228.029694 
L 401.598086 -229.412651 
L 396.258373 -233.969614 
L 390.91866 -251.533251 
L 385.578947 -265.769035 
L 380.239234 -282.0285 
L 374.899522 -282.682243 
L 369.559809 -285.560227 
L 364.220096 -286.880187 
L 358.880383 -273.887986 
L 353.54067 -252.313416 
L 348.200957 -216.939228 
L 342.861244 -173.285869 
L 337.521531 -159.950026 
L 332.181818 -147.845908 
L 326.842105 -142.961467 
L 321.502392 -147.940225 
L 316.162679 -153.281626 
L 310.822967 -153.653119 
L 305.483254 -167.022041 
L 300.143541 -175.505906 
L 294.803828 -160.755684 
L 289.464115 -210.886673 
L 284.124402 -217.58629 
L 278.784689 -230.142087 
L 273.444976 -234.921037 
L 268.105263 -234.324567 
L 262.76555 -230.630502 
L 257.425837 -230.11087 
L 252.086124 -226.912293 
L 246.746411 -238.149412 
L 241.406699 -231.462969 
L 236.066986 -241.295755 
L 230.727273 -273.012512 
z
" style="stroke: #0000ff; stroke-opacity: 0.05"/>
    </defs>
    <g clip-path="url(#p88c1a25dbd)">
     <use xlink:href="#m442e98d433" x="0" y="360" style="fill: #0000ff; fill-opacity: 0.05; stroke: #0000ff; stroke-opacity: 0.05"/>
    </g>
   </g>
   <g id="matplotlib.axis_1">
    <g id="xtick_1">
     <g id="line2d_1">
      <defs>
       <path id="me2e17c3315" d="M 0 0 
L 0 3.5 
" style="stroke: #000000; stroke-width: 0.8"/>
      </defs>
      <g>
       <use xlink:href="#me2e17c3315" x="230.727273" y="320.4" style="stroke: #000000; stroke-width: 0.8"/>
      </g>
     </g>
     <g id="text_1">
      <!-- 0 -->
      <g transform="translate(227.546023 334.998438) scale(0.1 -0.1)">
       <defs>
        <path id="DejaVuSans-30" d="M 2034 4250 
Q 1547 4250 1301 3770 
Q 1056 3291 1056 2328 
Q 1056 1369 1301 889 
Q 1547 409 2034 409 
Q 2525 409 2770 889 
Q 3016 1369 3016 2328 
Q 3016 3291 2770 3770 
Q 2525 4250 2034 4250 
z
M 2034 4750 
Q 2819 4750 3233 4129 
Q 3647 3509 3647 2328 
Q 3647 1150 3233 529 
Q 2819 -91 2034 -91 
Q 1250 -91 836 529 
Q 422 1150 422 2328 
Q 422 3509 836 4129 
Q 1250 4750 2034 4750 
z
" transform="scale(0.015625)"/>
       </defs>
       <use xlink:href="#DejaVuSans-30"/>
      </g>
     </g>
    </g>
    <g id="xtick_2">
     <g id="line2d_2">
      <g>
       <use xlink:href="#me2e17c3315" x="364.220096" y="320.4" style="stroke: #000000; stroke-width: 0.8"/>
      </g>
     </g>
     <g id="text_2">
      <!-- 25 -->
      <g transform="translate(357.857596 334.998438) scale(0.1 -0.1)">
       <defs>
        <path id="DejaVuSans-32" d="M 1228 531 
L 3431 531 
L 3431 0 
L 469 0 
L 469 531 
Q 828 903 1448 1529 
Q 2069 2156 2228 2338 
Q 2531 2678 2651 2914 
Q 2772 3150 2772 3378 
Q 2772 3750 2511 3984 
Q 2250 4219 1831 4219 
Q 1534 4219 1204 4116 
Q 875 4013 500 3803 
L 500 4441 
Q 881 4594 1212 4672 
Q 1544 4750 1819 4750 
Q 2544 4750 2975 4387 
Q 3406 4025 3406 3419 
Q 3406 3131 3298 2873 
Q 3191 2616 2906 2266 
Q 2828 2175 2409 1742 
Q 1991 1309 1228 531 
z
" transform="scale(0.015625)"/>
        <path id="DejaVuSans-35" d="M 691 4666 
L 3169 4666 
L 3169 4134 
L 1269 4134 
L 1269 2991 
Q 1406 3038 1543 3061 
Q 1681 3084 1819 3084 
Q 2600 3084 3056 2656 
Q 3513 2228 3513 1497 
Q 3513 744 3044 326 
Q 2575 -91 1722 -91 
Q 1428 -91 1123 -41 
Q 819 9 494 109 
L 494 744 
Q 775 591 1075 516 
Q 1375 441 1709 441 
Q 2250 441 2565 725 
Q 2881 1009 2881 1497 
Q 2881 1984 2565 2268 
Q 2250 2553 1709 2553 
Q 1456 2553 1204 2497 
Q 953 2441 691 2322 
L 691 4666 
z
" transform="scale(0.015625)"/>
       </defs>
       <use xlink:href="#DejaVuSans-32"/>
       <use xlink:href="#DejaVuSans-35" x="63.623047"/>
      </g>
     </g>
    </g>
    <g id="xtick_3">
     <g id="line2d_3">
      <g>
       <use xlink:href="#me2e17c3315" x="497.712919" y="320.4" style="stroke: #000000; stroke-width: 0.8"/>
      </g>
     </g>
     <g id="text_3">
      <!-- 50 -->
      <g transform="translate(491.350419 334.998438) scale(0.1 -0.1)">
       <use xlink:href="#DejaVuSans-35"/>
       <use xlink:href="#DejaVuSans-30" x="63.623047"/>
      </g>
     </g>
    </g>
    <g id="xtick_4">
     <g id="line2d_4">
      <g>
       <use xlink:href="#me2e17c3315" x="631.205742" y="320.4" style="stroke: #000000; stroke-width: 0.8"/>
      </g>
     </g>
     <g id="text_4">
      <!-- 75 -->
      <g transform="translate(624.843242 334.998438) scale(0.1 -0.1)">
       <defs>
        <path id="DejaVuSans-37" d="M 525 4666 
L 3525 4666 
L 3525 4397 
L 1831 0 
L 1172 0 
L 2766 4134 
L 525 4134 
L 525 4666 
z
" transform="scale(0.015625)"/>
       </defs>
       <use xlink:href="#DejaVuSans-37"/>
       <use xlink:href="#DejaVuSans-35" x="63.623047"/>
      </g>
     </g>
    </g>
    <g id="xtick_5">
     <g id="line2d_5">
      <g>
       <use xlink:href="#me2e17c3315" x="764.698565" y="320.4" style="stroke: #000000; stroke-width: 0.8"/>
      </g>
     </g>
     <g id="text_5">
      <!-- 100 -->
      <g transform="translate(755.154815 334.998438) scale(0.1 -0.1)">
       <defs>
        <path id="DejaVuSans-31" d="M 794 531 
L 1825 531 
L 1825 4091 
L 703 3866 
L 703 4441 
L 1819 4666 
L 2450 4666 
L 2450 531 
L 3481 531 
L 3481 0 
L 794 0 
L 794 531 
z
" transform="scale(0.015625)"/>
       </defs>
       <use xlink:href="#DejaVuSans-31"/>
       <use xlink:href="#DejaVuSans-30" x="63.623047"/>
       <use xlink:href="#DejaVuSans-30" x="127.246094"/>
      </g>
     </g>
    </g>
    <g id="xtick_6">
     <g id="line2d_6">
      <g>
       <use xlink:href="#me2e17c3315" x="898.191388" y="320.4" style="stroke: #000000; stroke-width: 0.8"/>
      </g>
     </g>
     <g id="text_6">
      <!-- 125 -->
      <g transform="translate(888.647638 334.998438) scale(0.1 -0.1)">
       <use xlink:href="#DejaVuSans-31"/>
       <use xlink:href="#DejaVuSans-32" x="63.623047"/>
       <use xlink:href="#DejaVuSans-35" x="127.246094"/>
      </g>
     </g>
    </g>
    <g id="xtick_7">
     <g id="line2d_7">
      <g>
       <use xlink:href="#me2e17c3315" x="1031.684211" y="320.4" style="stroke: #000000; stroke-width: 0.8"/>
      </g>
     </g>
     <g id="text_7">
      <!-- 150 -->
      <g transform="translate(1022.140461 334.998438) scale(0.1 -0.1)">
       <use xlink:href="#DejaVuSans-31"/>
       <use xlink:href="#DejaVuSans-35" x="63.623047"/>
       <use xlink:href="#DejaVuSans-30" x="127.246094"/>
      </g>
     </g>
    </g>
    <g id="xtick_8">
     <g id="line2d_8">
      <g>
       <use xlink:href="#me2e17c3315" x="1165.177033" y="320.4" style="stroke: #000000; stroke-width: 0.8"/>
      </g>
     </g>
     <g id="text_8">
      <!-- 175 -->
      <g transform="translate(1155.633283 334.998438) scale(0.1 -0.1)">
       <use xlink:href="#DejaVuSans-31"/>
       <use xlink:href="#DejaVuSans-37" x="63.623047"/>
       <use xlink:href="#DejaVuSans-35" x="127.246094"/>
      </g>
     </g>
    </g>
    <g id="text_9">
     <!-- Amostras -->
     <g transform="translate(714.360937 348.676562) scale(0.1 -0.1)">
      <defs>
       <path id="DejaVuSans-41" d="M 2188 4044 
L 1331 1722 
L 3047 1722 
L 2188 4044 
z
M 1831 4666 
L 2547 4666 
L 4325 0 
L 3669 0 
L 3244 1197 
L 1141 1197 
L 716 0 
L 50 0 
L 1831 4666 
z
" transform="scale(0.015625)"/>
       <path id="DejaVuSans-6d" d="M 3328 2828 
Q 3544 3216 3844 3400 
Q 4144 3584 4550 3584 
Q 5097 3584 5394 3201 
Q 5691 2819 5691 2113 
L 5691 0 
L 5113 0 
L 5113 2094 
Q 5113 2597 4934 2840 
Q 4756 3084 4391 3084 
Q 3944 3084 3684 2787 
Q 3425 2491 3425 1978 
L 3425 0 
L 2847 0 
L 2847 2094 
Q 2847 2600 2669 2842 
Q 2491 3084 2119 3084 
Q 1678 3084 1418 2786 
Q 1159 2488 1159 1978 
L 1159 0 
L 581 0 
L 581 3500 
L 1159 3500 
L 1159 2956 
Q 1356 3278 1631 3431 
Q 1906 3584 2284 3584 
Q 2666 3584 2933 3390 
Q 3200 3197 3328 2828 
z
" transform="scale(0.015625)"/>
       <path id="DejaVuSans-6f" d="M 1959 3097 
Q 1497 3097 1228 2736 
Q 959 2375 959 1747 
Q 959 1119 1226 758 
Q 1494 397 1959 397 
Q 2419 397 2687 759 
Q 2956 1122 2956 1747 
Q 2956 2369 2687 2733 
Q 2419 3097 1959 3097 
z
M 1959 3584 
Q 2709 3584 3137 3096 
Q 3566 2609 3566 1747 
Q 3566 888 3137 398 
Q 2709 -91 1959 -91 
Q 1206 -91 779 398 
Q 353 888 353 1747 
Q 353 2609 779 3096 
Q 1206 3584 1959 3584 
z
" transform="scale(0.015625)"/>
       <path id="DejaVuSans-73" d="M 2834 3397 
L 2834 2853 
Q 2591 2978 2328 3040 
Q 2066 3103 1784 3103 
Q 1356 3103 1142 2972 
Q 928 2841 928 2578 
Q 928 2378 1081 2264 
Q 1234 2150 1697 2047 
L 1894 2003 
Q 2506 1872 2764 1633 
Q 3022 1394 3022 966 
Q 3022 478 2636 193 
Q 2250 -91 1575 -91 
Q 1294 -91 989 -36 
Q 684 19 347 128 
L 347 722 
Q 666 556 975 473 
Q 1284 391 1588 391 
Q 1994 391 2212 530 
Q 2431 669 2431 922 
Q 2431 1156 2273 1281 
Q 2116 1406 1581 1522 
L 1381 1569 
Q 847 1681 609 1914 
Q 372 2147 372 2553 
Q 372 3047 722 3315 
Q 1072 3584 1716 3584 
Q 2034 3584 2315 3537 
Q 2597 3491 2834 3397 
z
" transform="scale(0.015625)"/>
       <path id="DejaVuSans-74" d="M 1172 4494 
L 1172 3500 
L 2356 3500 
L 2356 3053 
L 1172 3053 
L 1172 1153 
Q 1172 725 1289 603 
Q 1406 481 1766 481 
L 2356 481 
L 2356 0 
L 1766 0 
Q 1100 0 847 248 
Q 594 497 594 1153 
L 594 3053 
L 172 3053 
L 172 3500 
L 594 3500 
L 594 4494 
L 1172 4494 
z
" transform="scale(0.015625)"/>
       <path id="DejaVuSans-72" d="M 2631 2963 
Q 2534 3019 2420 3045 
Q 2306 3072 2169 3072 
Q 1681 3072 1420 2755 
Q 1159 2438 1159 1844 
L 1159 0 
L 581 0 
L 581 3500 
L 1159 3500 
L 1159 2956 
Q 1341 3275 1631 3429 
Q 1922 3584 2338 3584 
Q 2397 3584 2469 3576 
Q 2541 3569 2628 3553 
L 2631 2963 
z
" transform="scale(0.015625)"/>
       <path id="DejaVuSans-61" d="M 2194 1759 
Q 1497 1759 1228 1600 
Q 959 1441 959 1056 
Q 959 750 1161 570 
Q 1363 391 1709 391 
Q 2188 391 2477 730 
Q 2766 1069 2766 1631 
L 2766 1759 
L 2194 1759 
z
M 3341 1997 
L 3341 0 
L 2766 0 
L 2766 531 
Q 2569 213 2275 61 
Q 1981 -91 1556 -91 
Q 1019 -91 701 211 
Q 384 513 384 1019 
Q 384 1609 779 1909 
Q 1175 2209 1959 2209 
L 2766 2209 
L 2766 2266 
Q 2766 2663 2505 2880 
Q 2244 3097 1772 3097 
Q 1472 3097 1187 3025 
Q 903 2953 641 2809 
L 641 3341 
Q 956 3463 1253 3523 
Q 1550 3584 1831 3584 
Q 2591 3584 2966 3190 
Q 3341 2797 3341 1997 
z
" transform="scale(0.015625)"/>
      </defs>
      <use xlink:href="#DejaVuSans-41"/>
      <use xlink:href="#DejaVuSans-6d" x="68.408203"/>
      <use xlink:href="#DejaVuSans-6f" x="165.820312"/>
      <use xlink:href="#DejaVuSans-73" x="227.001953"/>
      <use xlink:href="#DejaVuSans-74" x="279.101562"/>
      <use xlink:href="#DejaVuSans-72" x="318.310547"/>
      <use xlink:href="#DejaVuSans-61" x="359.423828"/>
      <use xlink:href="#DejaVuSans-73" x="420.703125"/>
     </g>
    </g>
   </g>
   <g id="matplotlib.axis_2">
    <g id="ytick_1">
     <g id="line2d_9">
      <defs>
       <path id="mbc51d7bd94" d="M 0 0 
L -3.5 0 
" style="stroke: #000000; stroke-width: 0.8"/>
      </defs>
      <g>
       <use xlink:href="#mbc51d7bd94" x="180" y="295.569191" style="stroke: #000000; stroke-width: 0.8"/>
      </g>
     </g>
     <g id="text_10">
      <!-- 2 -->
      <g transform="translate(166.6375 299.36841) scale(0.1 -0.1)">
       <use xlink:href="#DejaVuSans-32"/>
      </g>
     </g>
    </g>
    <g id="ytick_2">
     <g id="line2d_10">
      <g>
       <use xlink:href="#mbc51d7bd94" x="180" y="259.736386" style="stroke: #000000; stroke-width: 0.8"/>
      </g>
     </g>
     <g id="text_11">
      <!-- 4 -->
      <g transform="translate(166.6375 263.535605) scale(0.1 -0.1)">
       <defs>
        <path id="DejaVuSans-34" d="M 2419 4116 
L 825 1625 
L 2419 1625 
L 2419 4116 
z
M 2253 4666 
L 3047 4666 
L 3047 1625 
L 3713 1625 
L 3713 1100 
L 3047 1100 
L 3047 0 
L 2419 0 
L 2419 1100 
L 313 1100 
L 313 1709 
L 2253 4666 
z
" transform="scale(0.015625)"/>
       </defs>
       <use xlink:href="#DejaVuSans-34"/>
      </g>
     </g>
    </g>
    <g id="ytick_3">
     <g id="line2d_11">
      <g>
       <use xlink:href="#mbc51d7bd94" x="180" y="223.903581" style="stroke: #000000; stroke-width: 0.8"/>
      </g>
     </g>
     <g id="text_12">
      <!-- 6 -->
      <g transform="translate(166.6375 227.702799) scale(0.1 -0.1)">
       <defs>
        <path id="DejaVuSans-36" d="M 2113 2584 
Q 1688 2584 1439 2293 
Q 1191 2003 1191 1497 
Q 1191 994 1439 701 
Q 1688 409 2113 409 
Q 2538 409 2786 701 
Q 3034 994 3034 1497 
Q 3034 2003 2786 2293 
Q 2538 2584 2113 2584 
z
M 3366 4563 
L 3366 3988 
Q 3128 4100 2886 4159 
Q 2644 4219 2406 4219 
Q 1781 4219 1451 3797 
Q 1122 3375 1075 2522 
Q 1259 2794 1537 2939 
Q 1816 3084 2150 3084 
Q 2853 3084 3261 2657 
Q 3669 2231 3669 1497 
Q 3669 778 3244 343 
Q 2819 -91 2113 -91 
Q 1303 -91 875 529 
Q 447 1150 447 2328 
Q 447 3434 972 4092 
Q 1497 4750 2381 4750 
Q 2619 4750 2861 4703 
Q 3103 4656 3366 4563 
z
" transform="scale(0.015625)"/>
       </defs>
       <use xlink:href="#DejaVuSans-36"/>
      </g>
     </g>
    </g>
    <g id="ytick_4">
     <g id="line2d_12">
      <g>
       <use xlink:href="#mbc51d7bd94" x="180" y="188.070776" style="stroke: #000000; stroke-width: 0.8"/>
      </g>
     </g>
     <g id="text_13">
      <!-- 8 -->
      <g transform="translate(166.6375 191.869994) scale(0.1 -0.1)">
       <defs>
        <path id="DejaVuSans-38" d="M 2034 2216 
Q 1584 2216 1326 1975 
Q 1069 1734 1069 1313 
Q 1069 891 1326 650 
Q 1584 409 2034 409 
Q 2484 409 2743 651 
Q 3003 894 3003 1313 
Q 3003 1734 2745 1975 
Q 2488 2216 2034 2216 
z
M 1403 2484 
Q 997 2584 770 2862 
Q 544 3141 544 3541 
Q 544 4100 942 4425 
Q 1341 4750 2034 4750 
Q 2731 4750 3128 4425 
Q 3525 4100 3525 3541 
Q 3525 3141 3298 2862 
Q 3072 2584 2669 2484 
Q 3125 2378 3379 2068 
Q 3634 1759 3634 1313 
Q 3634 634 3220 271 
Q 2806 -91 2034 -91 
Q 1263 -91 848 271 
Q 434 634 434 1313 
Q 434 1759 690 2068 
Q 947 2378 1403 2484 
z
M 1172 3481 
Q 1172 3119 1398 2916 
Q 1625 2713 2034 2713 
Q 2441 2713 2670 2916 
Q 2900 3119 2900 3481 
Q 2900 3844 2670 4047 
Q 2441 4250 2034 4250 
Q 1625 4250 1398 4047 
Q 1172 3844 1172 3481 
z
" transform="scale(0.015625)"/>
       </defs>
       <use xlink:href="#DejaVuSans-38"/>
      </g>
     </g>
    </g>
    <g id="ytick_5">
     <g id="line2d_13">
      <g>
       <use xlink:href="#mbc51d7bd94" x="180" y="152.23797" style="stroke: #000000; stroke-width: 0.8"/>
      </g>
     </g>
     <g id="text_14">
      <!-- 10 -->
      <g transform="translate(160.275 156.037189) scale(0.1 -0.1)">
       <use xlink:href="#DejaVuSans-31"/>
       <use xlink:href="#DejaVuSans-30" x="63.623047"/>
      </g>
     </g>
    </g>
    <g id="ytick_6">
     <g id="line2d_14">
      <g>
       <use xlink:href="#mbc51d7bd94" x="180" y="116.405165" style="stroke: #000000; stroke-width: 0.8"/>
      </g>
     </g>
     <g id="text_15">
      <!-- 12 -->
      <g transform="translate(160.275 120.204384) scale(0.1 -0.1)">
       <use xlink:href="#DejaVuSans-31"/>
       <use xlink:href="#DejaVuSans-32" x="63.623047"/>
      </g>
     </g>
    </g>
    <g id="ytick_7">
     <g id="line2d_15">
      <g>
       <use xlink:href="#mbc51d7bd94" x="180" y="80.57236" style="stroke: #000000; stroke-width: 0.8"/>
      </g>
     </g>
     <g id="text_16">
      <!-- 14 -->
      <g transform="translate(160.275 84.371579) scale(0.1 -0.1)">
       <use xlink:href="#DejaVuSans-31"/>
       <use xlink:href="#DejaVuSans-34" x="63.623047"/>
      </g>
     </g>
    </g>
    <g id="ytick_8">
     <g id="line2d_16">
      <g>
       <use xlink:href="#mbc51d7bd94" x="180" y="44.739555" style="stroke: #000000; stroke-width: 0.8"/>
      </g>
     </g>
     <g id="text_17">
      <!-- 16 -->
      <g transform="translate(160.275 48.538774) scale(0.1 -0.1)">
       <use xlink:href="#DejaVuSans-31"/>
       <use xlink:href="#DejaVuSans-36" x="63.623047"/>
      </g>
     </g>
    </g>
    <g id="text_18">
     <!-- Velocidade do Vento (m/s) -->
     <g transform="translate(154.195312 247.344531) rotate(-90) scale(0.1 -0.1)">
      <defs>
       <path id="DejaVuSans-56" d="M 1831 0 
L 50 4666 
L 709 4666 
L 2188 738 
L 3669 4666 
L 4325 4666 
L 2547 0 
L 1831 0 
z
" transform="scale(0.015625)"/>
       <path id="DejaVuSans-65" d="M 3597 1894 
L 3597 1613 
L 953 1613 
Q 991 1019 1311 708 
Q 1631 397 2203 397 
Q 2534 397 2845 478 
Q 3156 559 3463 722 
L 3463 178 
Q 3153 47 2828 -22 
Q 2503 -91 2169 -91 
Q 1331 -91 842 396 
Q 353 884 353 1716 
Q 353 2575 817 3079 
Q 1281 3584 2069 3584 
Q 2775 3584 3186 3129 
Q 3597 2675 3597 1894 
z
M 3022 2063 
Q 3016 2534 2758 2815 
Q 2500 3097 2075 3097 
Q 1594 3097 1305 2825 
Q 1016 2553 972 2059 
L 3022 2063 
z
" transform="scale(0.015625)"/>
       <path id="DejaVuSans-6c" d="M 603 4863 
L 1178 4863 
L 1178 0 
L 603 0 
L 603 4863 
z
" transform="scale(0.015625)"/>
       <path id="DejaVuSans-63" d="M 3122 3366 
L 3122 2828 
Q 2878 2963 2633 3030 
Q 2388 3097 2138 3097 
Q 1578 3097 1268 2742 
Q 959 2388 959 1747 
Q 959 1106 1268 751 
Q 1578 397 2138 397 
Q 2388 397 2633 464 
Q 2878 531 3122 666 
L 3122 134 
Q 2881 22 2623 -34 
Q 2366 -91 2075 -91 
Q 1284 -91 818 406 
Q 353 903 353 1747 
Q 353 2603 823 3093 
Q 1294 3584 2113 3584 
Q 2378 3584 2631 3529 
Q 2884 3475 3122 3366 
z
" transform="scale(0.015625)"/>
       <path id="DejaVuSans-69" d="M 603 3500 
L 1178 3500 
L 1178 0 
L 603 0 
L 603 3500 
z
M 603 4863 
L 1178 4863 
L 1178 4134 
L 603 4134 
L 603 4863 
z
" transform="scale(0.015625)"/>
       <path id="DejaVuSans-64" d="M 2906 2969 
L 2906 4863 
L 3481 4863 
L 3481 0 
L 2906 0 
L 2906 525 
Q 2725 213 2448 61 
Q 2172 -91 1784 -91 
Q 1150 -91 751 415 
Q 353 922 353 1747 
Q 353 2572 751 3078 
Q 1150 3584 1784 3584 
Q 2172 3584 2448 3432 
Q 2725 3281 2906 2969 
z
M 947 1747 
Q 947 1113 1208 752 
Q 1469 391 1925 391 
Q 2381 391 2643 752 
Q 2906 1113 2906 1747 
Q 2906 2381 2643 2742 
Q 2381 3103 1925 3103 
Q 1469 3103 1208 2742 
Q 947 2381 947 1747 
z
" transform="scale(0.015625)"/>
       <path id="DejaVuSans-20" transform="scale(0.015625)"/>
       <path id="DejaVuSans-6e" d="M 3513 2113 
L 3513 0 
L 2938 0 
L 2938 2094 
Q 2938 2591 2744 2837 
Q 2550 3084 2163 3084 
Q 1697 3084 1428 2787 
Q 1159 2491 1159 1978 
L 1159 0 
L 581 0 
L 581 3500 
L 1159 3500 
L 1159 2956 
Q 1366 3272 1645 3428 
Q 1925 3584 2291 3584 
Q 2894 3584 3203 3211 
Q 3513 2838 3513 2113 
z
" transform="scale(0.015625)"/>
       <path id="DejaVuSans-28" d="M 1984 4856 
Q 1566 4138 1362 3434 
Q 1159 2731 1159 2009 
Q 1159 1288 1364 580 
Q 1569 -128 1984 -844 
L 1484 -844 
Q 1016 -109 783 600 
Q 550 1309 550 2009 
Q 550 2706 781 3412 
Q 1013 4119 1484 4856 
L 1984 4856 
z
" transform="scale(0.015625)"/>
       <path id="DejaVuSans-2f" d="M 1625 4666 
L 2156 4666 
L 531 -594 
L 0 -594 
L 1625 4666 
z
" transform="scale(0.015625)"/>
       <path id="DejaVuSans-29" d="M 513 4856 
L 1013 4856 
Q 1481 4119 1714 3412 
Q 1947 2706 1947 2009 
Q 1947 1309 1714 600 
Q 1481 -109 1013 -844 
L 513 -844 
Q 928 -128 1133 580 
Q 1338 1288 1338 2009 
Q 1338 2731 1133 3434 
Q 928 4138 513 4856 
z
" transform="scale(0.015625)"/>
      </defs>
      <use xlink:href="#DejaVuSans-56"/>
      <use xlink:href="#DejaVuSans-65" x="60.658203"/>
      <use xlink:href="#DejaVuSans-6c" x="122.181641"/>
      <use xlink:href="#DejaVuSans-6f" x="149.964844"/>
      <use xlink:href="#DejaVuSans-63" x="211.146484"/>
      <use xlink:href="#DejaVuSans-69" x="266.126953"/>
      <use xlink:href="#DejaVuSans-64" x="293.910156"/>
      <use xlink:href="#DejaVuSans-61" x="357.386719"/>
      <use xlink:href="#DejaVuSans-64" x="418.666016"/>
      <use xlink:href="#DejaVuSans-65" x="482.142578"/>
      <use xlink:href="#DejaVuSans-20" x="543.666016"/>
      <use xlink:href="#DejaVuSans-64" x="575.453125"/>
      <use xlink:href="#DejaVuSans-6f" x="638.929688"/>
      <use xlink:href="#DejaVuSans-20" x="700.111328"/>
      <use xlink:href="#DejaVuSans-56" x="731.898438"/>
      <use xlink:href="#DejaVuSans-65" x="792.556641"/>
      <use xlink:href="#DejaVuSans-6e" x="854.080078"/>
      <use xlink:href="#DejaVuSans-74" x="917.458984"/>
      <use xlink:href="#DejaVuSans-6f" x="956.667969"/>
      <use xlink:href="#DejaVuSans-20" x="1017.849609"/>
      <use xlink:href="#DejaVuSans-28" x="1049.636719"/>
      <use xlink:href="#DejaVuSans-6d" x="1088.650391"/>
      <use xlink:href="#DejaVuSans-2f" x="1186.0625"/>
      <use xlink:href="#DejaVuSans-73" x="1219.753906"/>
      <use xlink:href="#DejaVuSans-29" x="1271.853516"/>
     </g>
    </g>
   </g>
   <g id="line2d_17">
    <path d="M 230.727273 127.095775 
L 236.066986 158.812532 
L 241.406699 168.645318 
L 246.746411 161.958875 
L 252.086124 173.195994 
L 257.425837 169.997417 
L 262.76555 169.477785 
L 268.105263 165.78372 
L 273.444976 165.18725 
L 278.784689 169.9662 
L 284.124402 182.521997 
L 289.464115 189.221614 
L 294.803828 239.352603 
L 300.143541 224.602381 
L 305.483254 233.086246 
L 310.822967 246.45516 
L 316.162679 246.826661 
L 321.502392 252.168053 
L 326.842105 257.14682 
L 332.181818 252.262379 
L 337.521531 240.158261 
L 342.861244 226.822418 
L 348.200957 183.16906 
L 353.54067 147.794871 
L 358.880383 126.220301 
L 364.220096 113.2281 
L 369.559809 114.54806 
L 374.899522 117.426044 
L 380.239234 118.079787 
L 385.578947 134.339252 
L 390.91866 148.575036 
L 396.258373 166.138673 
L 401.598086 170.695636 
L 406.937799 172.078593 
L 412.277512 169.753782 
L 417.617225 166.05078 
L 422.956938 182.595486 
L 428.296651 201.274669 
L 433.636364 194.789956 
L 438.976077 189.993014 
L 449.655502 176.637248 
L 454.995215 194.62591 
L 460.334928 201.660975 
L 465.674641 184.29789 
L 471.014354 178.16163 
L 476.354067 177.474842 
L 481.69378 163.716503 
L 487.033493 119.11155 
L 492.373206 102.209859 
L 497.712919 106.447323 
L 503.052632 119.097437 
L 508.392344 127.130477 
L 513.732057 127.057108 
L 519.07177 132.981292 
L 524.411483 139.543996 
L 529.751196 153.010874 
L 535.090909 153.171794 
L 540.430622 164.052029 
L 545.770335 173.636926 
L 551.110048 196.936343 
L 556.449761 198.878342 
L 561.789474 201.736941 
L 567.129187 199.855642 
L 572.4689 214.851302 
L 577.808612 218.447479 
L 583.148325 244.397298 
L 588.488038 205.539429 
L 593.827751 184.766314 
L 599.167464 177.402498 
L 604.507177 141.7932 
L 609.84689 115.142138 
L 615.186603 105.272274 
L 620.526316 95.908287 
L 625.866029 99.225939 
L 631.205742 100.246442 
L 636.545455 111.0184 
L 641.885167 121.496352 
L 647.22488 138.869151 
L 652.564593 147.338322 
L 657.904306 155.472411 
L 663.244019 167.110087 
L 668.583732 165.667703 
L 673.923445 171.774524 
L 679.263158 178.373245 
L 684.602871 176.765448 
L 689.942584 176.409384 
L 695.282297 185.898853 
L 700.62201 178.226695 
L 705.961722 194.170155 
L 711.301435 213.258762 
L 716.641148 217.181931 
L 721.980861 192.552781 
L 727.320574 184.952932 
L 732.660287 144.949129 
L 738 113.891754 
L 743.339713 111.566054 
L 748.679426 109.790365 
L 754.019139 109.93601 
L 759.358852 107.774886 
L 764.698565 118.491638 
L 770.038278 125.44046 
L 775.37799 133.99925 
L 780.717703 156.648657 
L 786.057416 166.068516 
L 791.397129 167.18648 
L 796.736842 165.28929 
L 802.076555 170.497605 
L 807.416268 207.636179 
L 812.755981 261.819365 
L 818.095694 263.770825 
L 823.435407 267.691717 
L 828.77512 252.109481 
L 834.114833 222.593326 
L 839.454545 221.882865 
L 844.794258 228.026643 
L 850.133971 212.144609 
L 855.473684 194.510234 
L 860.813397 184.522303 
L 866.15311 158.91939 
L 871.492823 123.618536 
L 876.832536 112.193279 
L 882.172249 124.097588 
L 887.511962 124.129864 
L 892.851675 129.739675 
L 898.191388 136.976523 
L 903.5311 151.210701 
L 908.870813 160.964753 
L 914.210526 159.155097 
L 919.550239 163.530825 
L 924.889952 168.285341 
L 930.229665 170.937033 
L 935.569378 171.871472 
L 940.909091 157.949685 
L 946.248804 177.774964 
L 951.588517 187.354684 
L 956.92823 178.848709 
L 962.267943 186.904987 
L 967.607656 203.556021 
L 972.947368 215.930582 
L 978.287081 203.057294 
L 983.626794 187.228364 
L 988.966507 153.753142 
L 994.30622 123.947757 
L 999.645933 115.494545 
L 1004.985646 128.359196 
L 1010.325359 125.487277 
L 1015.665072 128.043661 
L 1021.004785 134.854373 
L 1026.344498 141.365322 
L 1031.684211 153.768674 
L 1037.023923 158.68071 
L 1042.363636 156.232244 
L 1047.703349 162.384156 
L 1053.043062 165.771332 
L 1058.382775 165.05143 
L 1063.722488 208.011841 
L 1069.062201 208.780379 
L 1074.401914 221.111037 
L 1079.741627 243.676713 
L 1085.08134 235.08639 
L 1090.421053 235.823746 
L 1095.760766 234.673429 
L 1101.100478 203.312462 
L 1106.440191 212.428166 
L 1111.779904 215.236472 
L 1117.119617 194.750717 
L 1122.45933 181.246206 
L 1133.138756 132.180333 
L 1138.478469 125.488952 
L 1143.818182 125.139073 
L 1149.157895 132.240562 
L 1154.497608 140.735688 
L 1159.837321 148.129423 
L 1165.177033 146.702741 
L 1170.516746 151.344453 
L 1175.856459 157.865449 
L 1181.196172 161.045213 
L 1186.535885 169.185351 
L 1191.875598 150.941863 
L 1197.215311 163.135001 
L 1202.555024 180.694195 
L 1207.894737 186.77824 
L 1213.23445 205.198051 
L 1218.574163 212.706991 
L 1223.913876 226.169982 
L 1229.253589 222.371322 
L 1234.593301 208.730368 
L 1239.933014 179.353578 
L 1245.272727 148.091269 
L 1245.272727 148.091269 
" clip-path="url(#p88c1a25dbd)" style="fill: none; stroke: #0000ff; stroke-width: 1.5; stroke-linecap: square"/>
   </g>
   <g id="line2d_18">
    <path d="M 230.727273 165.346804 
L 236.066986 174.912173 
L 241.406699 158.289733 
L 246.746411 176.952652 
L 252.086124 174.414495 
L 257.425837 170.731679 
L 262.76555 164.391263 
L 268.105263 159.255227 
L 273.444976 167.058817 
L 278.784689 192.320944 
L 284.124402 203.080739 
L 289.464115 223.495485 
L 294.803828 212.138476 
L 300.143541 223.943395 
L 305.483254 239.948714 
L 310.822967 243.235118 
L 316.162679 252.569825 
L 321.502392 262.961339 
L 326.842105 261.269234 
L 332.181818 246.965972 
L 337.521531 235.569149 
L 342.861244 189.76288 
L 348.200957 150.545866 
L 353.54067 123.989775 
L 358.880383 99.076022 
L 364.220096 101.206084 
L 369.559809 101.892879 
L 374.899522 99.832493 
L 380.239234 127.881617 
L 385.578947 146.932725 
L 390.91866 176.654046 
L 396.258373 181.023657 
L 401.598086 182.397248 
L 406.937799 171.418474 
L 412.277512 151.332197 
L 417.617225 171.93606 
L 422.956938 189.135805 
L 428.296651 186.677277 
L 433.636364 184.415 
L 438.976077 180.24606 
L 444.315789 175.86787 
L 449.655502 198.392614 
L 454.995215 209.052874 
L 460.334928 203.120554 
L 465.674641 209.749623 
L 471.014354 207.719097 
L 476.354067 185.801364 
L 481.69378 124.069404 
L 487.033493 85.3003 
L 492.373206 82.453582 
L 497.712919 100.529241 
L 503.052632 116.713725 
L 508.392344 106.740261 
L 513.732057 101.723668 
L 519.07177 113.190165 
L 524.411483 142.045528 
L 529.751196 127.194821 
L 535.090909 153.13379 
L 540.430622 167.028956 
L 545.770335 182.019013 
L 551.110048 186.82658 
L 556.449761 192.072105 
L 561.789474 191.853128 
L 567.129187 205.638804 
L 572.4689 212.048895 
L 577.808612 245.413217 
L 583.148325 212.307687 
L 588.488038 203.429114 
L 593.827751 201.030307 
L 599.167464 161.882967 
L 604.507177 124.129126 
L 609.84689 96.697122 
L 615.186603 57.032197 
L 620.526316 71.265785 
L 625.866029 83.707731 
L 631.205742 102.599582 
L 636.545455 98.797323 
L 641.885167 134.530592 
L 647.22488 132.450299 
L 652.564593 136.03358 
L 657.904306 155.184223 
L 663.244019 143.468887 
L 668.583732 153.123837 
L 673.923445 164.152379 
L 679.263158 163.565118 
L 684.602871 164.640103 
L 689.942584 175.200826 
L 695.282297 171.04024 
L 700.62201 189.553855 
L 705.961722 211.969266 
L 711.301435 226.262574 
L 716.641148 211.352145 
L 721.980861 214.905565 
L 727.320574 160.459608 
L 732.660287 118.724343 
L 738 110.014981 
L 743.339713 97.145032 
L 748.679426 75.645349 
L 754.019139 81.657299 
L 759.358852 90.011245 
L 764.698565 98.150342 
L 770.038278 108.083992 
L 775.37799 159.086018 
L 780.717703 172.732344 
L 786.057416 157.284424 
L 791.397129 132.639416 
L 796.736842 141.040219 
L 802.076555 188.458964 
L 807.416268 240.565835 
L 812.755981 245.731731 
L 818.095694 251.186281 
L 823.435407 240.645464 
L 828.77512 219.086058 
L 834.114833 223.127204 
L 839.454545 243.571809 
L 844.794258 240.779676 
L 850.133971 223.727523 
L 855.473684 207.739004 
L 860.813397 164.401217 
L 866.15311 107.367335 
L 871.492823 83.36931 
L 876.832536 100.290356 
L 882.172249 93.64138 
L 887.511962 93.283052 
L 892.851675 114.43436 
L 898.191388 146.624165 
L 903.5311 165.535922 
L 908.870813 148.057476 
L 914.210526 162.669298 
L 919.550239 165.525969 
L 924.889952 151.979178 
L 930.229665 156.438372 
L 935.569378 146.036904 
L 940.909091 166.899559 
L 946.248804 179.222064 
L 951.588517 174.713101 
L 956.92823 188.847152 
L 962.267943 208.027657 
L 967.607656 230.582417 
L 972.947368 228.153749 
L 978.287081 209.898926 
L 983.626794 168.840503 
L 988.966507 128.747575 
L 994.30622 105.715045 
L 999.645933 135.058131 
L 1004.985646 118.933368 
L 1010.325359 116.703772 
L 1015.665072 130.549169 
L 1021.004785 137.695823 
L 1026.344498 164.35145 
L 1031.684211 180.257233 
L 1037.023923 170.263862 
L 1042.363636 191.902894 
L 1047.703349 197.45698 
L 1053.043062 170.90089 
L 1058.382775 192.28113 
L 1063.722488 192.738994 
L 1069.062201 208.983199 
L 1074.401914 237.241347 
L 1079.741627 236.265899 
L 1085.08134 243.531995 
L 1090.421053 239.978575 
L 1095.760766 210.38665 
L 1101.100478 237.938096 
L 1106.440191 255.864452 
L 1111.779904 225.366753 
L 1117.119617 209.540598 
L 1122.45933 177.390609 
L 1127.799043 129.504046 
L 1133.138756 112.075367 
L 1138.478469 106.143047 
L 1143.818182 112.085321 
L 1149.157895 111.250445 
L 1154.497608 129.53044 
L 1159.837321 131.514664 
L 1165.177033 143.180234 
L 1170.516746 172.314295 
L 1175.856459 186.388624 
L 1181.196172 151.431732 
L 1186.535885 135.575716 
L 1191.875598 147.679242 
L 1197.215311 167.098631 
L 1202.555024 176.863071 
L 1207.894737 198.591685 
L 1213.23445 210.66535 
L 1218.574163 232.075451 
L 1223.913876 239.670015 
L 1229.253589 237.928142 
L 1234.593301 199.348155 
L 1239.933014 145.061455 
L 1245.272727 109.22865 
L 1245.272727 109.22865 
" clip-path="url(#p88c1a25dbd)" style="fill: none; stroke: #ffa500; stroke-width: 1.5; stroke-linecap: square"/>
   </g>
   <g id="patch_3">
    <path d="M 180 320.4 
L 180 43.2 
" style="fill: none; stroke: #000000; stroke-width: 0.8; stroke-linejoin: miter; stroke-linecap: square"/>
   </g>
   <g id="patch_4">
    <path d="M 1296 320.4 
L 1296 43.2 
" style="fill: none; stroke: #000000; stroke-width: 0.8; stroke-linejoin: miter; stroke-linecap: square"/>
   </g>
   <g id="patch_5">
    <path d="M 180 320.4 
L 1296 320.4 
" style="fill: none; stroke: #000000; stroke-width: 0.8; stroke-linejoin: miter; stroke-linecap: square"/>
   </g>
   <g id="patch_6">
    <path d="M 180 43.2 
L 1296 43.2 
" style="fill: none; stroke: #000000; stroke-width: 0.8; stroke-linejoin: miter; stroke-linecap: square"/>
   </g>
   <g id="text_19">
    <!-- Previsão do vento para 1 hora(s) à frente com 5 camadas -->
    <g transform="translate(564.882187 37.2) scale(0.12 -0.12)">
     <defs>
      <path id="DejaVuSans-50" d="M 1259 4147 
L 1259 2394 
L 2053 2394 
Q 2494 2394 2734 2622 
Q 2975 2850 2975 3272 
Q 2975 3691 2734 3919 
Q 2494 4147 2053 4147 
L 1259 4147 
z
M 628 4666 
L 2053 4666 
Q 2838 4666 3239 4311 
Q 3641 3956 3641 3272 
Q 3641 2581 3239 2228 
Q 2838 1875 2053 1875 
L 1259 1875 
L 1259 0 
L 628 0 
L 628 4666 
z
" transform="scale(0.015625)"/>
      <path id="DejaVuSans-76" d="M 191 3500 
L 800 3500 
L 1894 563 
L 2988 3500 
L 3597 3500 
L 2284 0 
L 1503 0 
L 191 3500 
z
" transform="scale(0.015625)"/>
      <path id="DejaVuSans-e3" d="M 2194 1759 
Q 1497 1759 1228 1600 
Q 959 1441 959 1056 
Q 959 750 1161 570 
Q 1363 391 1709 391 
Q 2188 391 2477 730 
Q 2766 1069 2766 1631 
L 2766 1759 
L 2194 1759 
z
M 3341 1997 
L 3341 0 
L 2766 0 
L 2766 531 
Q 2569 213 2275 61 
Q 1981 -91 1556 -91 
Q 1019 -91 701 211 
Q 384 513 384 1019 
Q 384 1609 779 1909 
Q 1175 2209 1959 2209 
L 2766 2209 
L 2766 2266 
Q 2766 2663 2505 2880 
Q 2244 3097 1772 3097 
Q 1472 3097 1187 3025 
Q 903 2953 641 2809 
L 641 3341 
Q 956 3463 1253 3523 
Q 1550 3584 1831 3584 
Q 2591 3584 2966 3190 
Q 3341 2797 3341 1997 
z
M 1844 4281 
L 1666 4453 
Q 1597 4516 1545 4545 
Q 1494 4575 1453 4575 
Q 1334 4575 1278 4461 
Q 1222 4347 1216 4091 
L 825 4091 
Q 831 4513 990 4742 
Q 1150 4972 1434 4972 
Q 1553 4972 1653 4928 
Q 1753 4884 1869 4781 
L 2047 4609 
Q 2116 4547 2167 4517 
Q 2219 4488 2259 4488 
Q 2378 4488 2434 4602 
Q 2491 4716 2497 4972 
L 2888 4972 
Q 2881 4550 2722 4320 
Q 2563 4091 2278 4091 
Q 2159 4091 2059 4134 
Q 1959 4178 1844 4281 
z
" transform="scale(0.015625)"/>
      <path id="DejaVuSans-70" d="M 1159 525 
L 1159 -1331 
L 581 -1331 
L 581 3500 
L 1159 3500 
L 1159 2969 
Q 1341 3281 1617 3432 
Q 1894 3584 2278 3584 
Q 2916 3584 3314 3078 
Q 3713 2572 3713 1747 
Q 3713 922 3314 415 
Q 2916 -91 2278 -91 
Q 1894 -91 1617 61 
Q 1341 213 1159 525 
z
M 3116 1747 
Q 3116 2381 2855 2742 
Q 2594 3103 2138 3103 
Q 1681 3103 1420 2742 
Q 1159 2381 1159 1747 
Q 1159 1113 1420 752 
Q 1681 391 2138 391 
Q 2594 391 2855 752 
Q 3116 1113 3116 1747 
z
" transform="scale(0.015625)"/>
      <path id="DejaVuSans-68" d="M 3513 2113 
L 3513 0 
L 2938 0 
L 2938 2094 
Q 2938 2591 2744 2837 
Q 2550 3084 2163 3084 
Q 1697 3084 1428 2787 
Q 1159 2491 1159 1978 
L 1159 0 
L 581 0 
L 581 4863 
L 1159 4863 
L 1159 2956 
Q 1366 3272 1645 3428 
Q 1925 3584 2291 3584 
Q 2894 3584 3203 3211 
Q 3513 2838 3513 2113 
z
" transform="scale(0.015625)"/>
      <path id="DejaVuSans-e0" d="M 2194 1759 
Q 1497 1759 1228 1600 
Q 959 1441 959 1056 
Q 959 750 1161 570 
Q 1363 391 1709 391 
Q 2188 391 2477 730 
Q 2766 1069 2766 1631 
L 2766 1759 
L 2194 1759 
z
M 3341 1997 
L 3341 0 
L 2766 0 
L 2766 531 
Q 2569 213 2275 61 
Q 1981 -91 1556 -91 
Q 1019 -91 701 211 
Q 384 513 384 1019 
Q 384 1609 779 1909 
Q 1175 2209 1959 2209 
L 2766 2209 
L 2766 2266 
Q 2766 2663 2505 2880 
Q 2244 3097 1772 3097 
Q 1472 3097 1187 3025 
Q 903 2953 641 2809 
L 641 3341 
Q 956 3463 1253 3523 
Q 1550 3584 1831 3584 
Q 2591 3584 2966 3190 
Q 3341 2797 3341 1997 
z
M 1403 5119 
L 2284 3950 
L 1806 3950 
L 788 5119 
L 1403 5119 
z
" transform="scale(0.015625)"/>
      <path id="DejaVuSans-66" d="M 2375 4863 
L 2375 4384 
L 1825 4384 
Q 1516 4384 1395 4259 
Q 1275 4134 1275 3809 
L 1275 3500 
L 2222 3500 
L 2222 3053 
L 1275 3053 
L 1275 0 
L 697 0 
L 697 3053 
L 147 3053 
L 147 3500 
L 697 3500 
L 697 3744 
Q 697 4328 969 4595 
Q 1241 4863 1831 4863 
L 2375 4863 
z
" transform="scale(0.015625)"/>
     </defs>
     <use xlink:href="#DejaVuSans-50"/>
     <use xlink:href="#DejaVuSans-72" x="58.552734"/>
     <use xlink:href="#DejaVuSans-65" x="97.416016"/>
     <use xlink:href="#DejaVuSans-76" x="158.939453"/>
     <use xlink:href="#DejaVuSans-69" x="218.119141"/>
     <use xlink:href="#DejaVuSans-73" x="245.902344"/>
     <use xlink:href="#DejaVuSans-e3" x="298.001953"/>
     <use xlink:href="#DejaVuSans-6f" x="359.28125"/>
     <use xlink:href="#DejaVuSans-20" x="420.462891"/>
     <use xlink:href="#DejaVuSans-64" x="452.25"/>
     <use xlink:href="#DejaVuSans-6f" x="515.726562"/>
     <use xlink:href="#DejaVuSans-20" x="576.908203"/>
     <use xlink:href="#DejaVuSans-76" x="608.695312"/>
     <use xlink:href="#DejaVuSans-65" x="667.875"/>
     <use xlink:href="#DejaVuSans-6e" x="729.398438"/>
     <use xlink:href="#DejaVuSans-74" x="792.777344"/>
     <use xlink:href="#DejaVuSans-6f" x="831.986328"/>
     <use xlink:href="#DejaVuSans-20" x="893.167969"/>
     <use xlink:href="#DejaVuSans-70" x="924.955078"/>
     <use xlink:href="#DejaVuSans-61" x="988.431641"/>
     <use xlink:href="#DejaVuSans-72" x="1049.710938"/>
     <use xlink:href="#DejaVuSans-61" x="1090.824219"/>
     <use xlink:href="#DejaVuSans-20" x="1152.103516"/>
     <use xlink:href="#DejaVuSans-31" x="1183.890625"/>
     <use xlink:href="#DejaVuSans-20" x="1247.513672"/>
     <use xlink:href="#DejaVuSans-68" x="1279.300781"/>
     <use xlink:href="#DejaVuSans-6f" x="1342.679688"/>
     <use xlink:href="#DejaVuSans-72" x="1403.861328"/>
     <use xlink:href="#DejaVuSans-61" x="1444.974609"/>
     <use xlink:href="#DejaVuSans-28" x="1506.253906"/>
     <use xlink:href="#DejaVuSans-73" x="1545.267578"/>
     <use xlink:href="#DejaVuSans-29" x="1597.367188"/>
     <use xlink:href="#DejaVuSans-20" x="1636.380859"/>
     <use xlink:href="#DejaVuSans-e0" x="1668.167969"/>
     <use xlink:href="#DejaVuSans-20" x="1729.447266"/>
     <use xlink:href="#DejaVuSans-66" x="1761.234375"/>
     <use xlink:href="#DejaVuSans-72" x="1796.439453"/>
     <use xlink:href="#DejaVuSans-65" x="1835.302734"/>
     <use xlink:href="#DejaVuSans-6e" x="1896.826172"/>
     <use xlink:href="#DejaVuSans-74" x="1960.205078"/>
     <use xlink:href="#DejaVuSans-65" x="1999.414062"/>
     <use xlink:href="#DejaVuSans-20" x="2060.9375"/>
     <use xlink:href="#DejaVuSans-63" x="2092.724609"/>
     <use xlink:href="#DejaVuSans-6f" x="2147.705078"/>
     <use xlink:href="#DejaVuSans-6d" x="2208.886719"/>
     <use xlink:href="#DejaVuSans-20" x="2306.298828"/>
     <use xlink:href="#DejaVuSans-35" x="2338.085938"/>
     <use xlink:href="#DejaVuSans-20" x="2401.708984"/>
     <use xlink:href="#DejaVuSans-63" x="2433.496094"/>
     <use xlink:href="#DejaVuSans-61" x="2488.476562"/>
     <use xlink:href="#DejaVuSans-6d" x="2549.755859"/>
     <use xlink:href="#DejaVuSans-61" x="2647.167969"/>
     <use xlink:href="#DejaVuSans-64" x="2708.447266"/>
     <use xlink:href="#DejaVuSans-61" x="2771.923828"/>
     <use xlink:href="#DejaVuSans-73" x="2833.203125"/>
    </g>
   </g>
   <g id="legend_1">
    <g id="patch_7">
     <path d="M 1217.86875 80.55625 
L 1289 80.55625 
Q 1291 80.55625 1291 78.55625 
L 1291 50.2 
Q 1291 48.2 1289 48.2 
L 1217.86875 48.2 
Q 1215.86875 48.2 1215.86875 50.2 
L 1215.86875 78.55625 
Q 1215.86875 80.55625 1217.86875 80.55625 
z
" style="fill: #ffffff; opacity: 0.8; stroke: #cccccc; stroke-linejoin: miter"/>
    </g>
    <g id="line2d_19">
     <path d="M 1219.86875 56.298437 
L 1229.86875 56.298437 
L 1239.86875 56.298437 
" style="fill: none; stroke: #0000ff; stroke-width: 1.5; stroke-linecap: square"/>
    </g>
    <g id="text_20">
     <!-- Predito -->
     <g transform="translate(1247.86875 59.798437) scale(0.1 -0.1)">
      <use xlink:href="#DejaVuSans-50"/>
      <use xlink:href="#DejaVuSans-72" x="58.552734"/>
      <use xlink:href="#DejaVuSans-65" x="97.416016"/>
      <use xlink:href="#DejaVuSans-64" x="158.939453"/>
      <use xlink:href="#DejaVuSans-69" x="222.416016"/>
      <use xlink:href="#DejaVuSans-74" x="250.199219"/>
      <use xlink:href="#DejaVuSans-6f" x="289.408203"/>
     </g>
    </g>
    <g id="line2d_20">
     <path d="M 1219.86875 70.976562 
L 1229.86875 70.976562 
L 1239.86875 70.976562 
" style="fill: none; stroke: #ffa500; stroke-width: 1.5; stroke-linecap: square"/>
    </g>
    <g id="text_21">
     <!-- Original -->
     <g transform="translate(1247.86875 74.476562) scale(0.1 -0.1)">
      <defs>
       <path id="DejaVuSans-4f" d="M 2522 4238 
Q 1834 4238 1429 3725 
Q 1025 3213 1025 2328 
Q 1025 1447 1429 934 
Q 1834 422 2522 422 
Q 3209 422 3611 934 
Q 4013 1447 4013 2328 
Q 4013 3213 3611 3725 
Q 3209 4238 2522 4238 
z
M 2522 4750 
Q 3503 4750 4090 4092 
Q 4678 3434 4678 2328 
Q 4678 1225 4090 567 
Q 3503 -91 2522 -91 
Q 1538 -91 948 565 
Q 359 1222 359 2328 
Q 359 3434 948 4092 
Q 1538 4750 2522 4750 
z
" transform="scale(0.015625)"/>
       <path id="DejaVuSans-67" d="M 2906 1791 
Q 2906 2416 2648 2759 
Q 2391 3103 1925 3103 
Q 1463 3103 1205 2759 
Q 947 2416 947 1791 
Q 947 1169 1205 825 
Q 1463 481 1925 481 
Q 2391 481 2648 825 
Q 2906 1169 2906 1791 
z
M 3481 434 
Q 3481 -459 3084 -895 
Q 2688 -1331 1869 -1331 
Q 1566 -1331 1297 -1286 
Q 1028 -1241 775 -1147 
L 775 -588 
Q 1028 -725 1275 -790 
Q 1522 -856 1778 -856 
Q 2344 -856 2625 -561 
Q 2906 -266 2906 331 
L 2906 616 
Q 2728 306 2450 153 
Q 2172 0 1784 0 
Q 1141 0 747 490 
Q 353 981 353 1791 
Q 353 2603 747 3093 
Q 1141 3584 1784 3584 
Q 2172 3584 2450 3431 
Q 2728 3278 2906 2969 
L 2906 3500 
L 3481 3500 
L 3481 434 
z
" transform="scale(0.015625)"/>
      </defs>
      <use xlink:href="#DejaVuSans-4f"/>
      <use xlink:href="#DejaVuSans-72" x="78.710938"/>
      <use xlink:href="#DejaVuSans-69" x="119.824219"/>
      <use xlink:href="#DejaVuSans-67" x="147.607422"/>
      <use xlink:href="#DejaVuSans-69" x="211.083984"/>
      <use xlink:href="#DejaVuSans-6e" x="238.867188"/>
      <use xlink:href="#DejaVuSans-61" x="302.246094"/>
      <use xlink:href="#DejaVuSans-6c" x="363.525391"/>
     </g>
    </g>
   </g>
  </g>
 </g>
 <defs>
  <clipPath id="p88c1a25dbd">
   <rect x="180" y="43.2" width="1116" height="277.2"/>
  </clipPath>
 </defs>
</svg>
