<?xml version="1.0" encoding="utf-8" standalone="no"?>
<!DOCTYPE svg PUBLIC "-//W3C//DTD SVG 1.1//EN"
  "http://www.w3.org/Graphics/SVG/1.1/DTD/svg11.dtd">
<svg xmlns:xlink="http://www.w3.org/1999/xlink" width="1440pt" height="360pt" viewBox="0 0 1440 360" xmlns="http://www.w3.org/2000/svg" version="1.1">
 <metadata>
  <rdf:RDF xmlns:dc="http://purl.org/dc/elements/1.1/" xmlns:cc="http://creativecommons.org/ns#" xmlns:rdf="http://www.w3.org/1999/02/22-rdf-syntax-ns#">
   <cc:Work>
    <dc:type rdf:resource="http://purl.org/dc/dcmitype/StillImage"/>
    <dc:date>2023-08-21T14:56:19.516672</dc:date>
    <dc:format>image/svg+xml</dc:format>
    <dc:creator>
     <cc:Agent>
      <dc:title>Matplotlib v3.7.1, https://matplotlib.org/</dc:title>
     </cc:Agent>
    </dc:creator>
   </cc:Work>
  </rdf:RDF>
 </metadata>
 <defs>
  <style type="text/css">*{stroke-linejoin: round; stroke-linecap: butt}</style>
 </defs>
 <g id="figure_1">
  <g id="patch_1">
   <path d="M 0 360 
L 1440 360 
L 1440 0 
L 0 0 
z
" style="fill: #ffffff"/>
  </g>
  <g id="axes_1">
   <g id="patch_2">
    <path d="M 180 320.4 
L 1296 320.4 
L 1296 43.2 
L 180 43.2 
z
" style="fill: #ffffff"/>
   </g>
   <g id="PolyCollection_1">
    <defs>
     <path id="mdf6be46e88" d="M 230.727273 -261.414462 
L 230.727273 -184.420597 
L 236.066986 -159.267777 
L 241.406699 -149.104892 
L 246.746411 -156.204419 
L 252.086124 -142.978798 
L 257.425837 -147.412429 
L 262.76555 -149.414721 
L 268.105263 -156.755361 
L 273.444976 -159.912079 
L 278.784689 -153.415909 
L 284.124402 -130.351245 
L 289.464115 -118.789392 
L 294.803828 -92.697905 
L 300.143541 -103.251665 
L 305.483254 -94.774058 
L 310.822967 -80.890832 
L 316.162679 -77.641024 
L 321.502392 -69.57384 
L 326.842105 -62.869874 
L 332.181818 -66.516264 
L 337.521531 -76.382112 
L 342.861244 -88.072417 
L 348.200957 -132.722114 
L 353.54067 -168.066371 
L 358.880383 -190.754133 
L 364.220096 -205.669027 
L 369.559809 -207.599079 
L 374.899522 -207.808513 
L 380.239234 -211.135954 
L 385.578947 -194.869289 
L 390.91866 -178.189466 
L 396.258373 -151.434448 
L 401.598086 -145.32204 
L 406.937799 -144.173388 
L 412.277512 -152.331667 
L 417.617225 -166.789666 
L 422.956938 -137.932351 
L 428.296651 -120.673377 
L 433.636364 -125.292596 
L 438.976077 -127.71915 
L 444.315789 -131.97587 
L 449.655502 -136.311922 
L 454.995215 -120.120553 
L 460.334928 -114.406277 
L 465.674641 -136.827469 
L 471.014354 -142.061928 
L 476.354067 -146.955405 
L 481.69378 -159.380932 
L 487.033493 -202.631637 
L 492.373206 -218.842729 
L 497.712919 -217.429197 
L 503.052632 -207.739478 
L 508.392344 -202.019444 
L 513.732057 -205.852909 
L 519.07177 -202.944018 
L 524.411483 -197.256875 
L 529.751196 -177.559121 
L 535.090909 -185.526629 
L 540.430622 -165.693891 
L 545.770335 -150.508247 
L 551.110048 -125.915269 
L 556.449761 -122.488607 
L 561.789474 -117.968737 
L 567.129187 -117.171092 
L 572.4689 -100.757488 
L 577.808612 -95.148775 
L 583.148325 -69.161112 
L 588.488038 -109.28617 
L 593.827751 -137.383611 
L 599.167464 -146.449205 
L 604.507177 -180.128323 
L 609.84689 -204.824813 
L 615.186603 -215.357024 
L 620.526316 -223.52363 
L 625.866029 -225.558318 
L 631.205742 -227.206136 
L 636.545455 -219.764847 
L 641.885167 -215.312712 
L 647.22488 -194.30581 
L 652.564593 -188.065747 
L 657.904306 -179.354005 
L 663.244019 -160.176369 
L 668.583732 -169.283053 
L 673.923445 -160.288344 
L 679.263158 -140.999825 
L 684.602871 -139.937946 
L 689.942584 -138.761412 
L 695.282297 -129.078161 
L 700.62201 -135.464246 
L 705.961722 -121.237941 
L 711.301435 -101.263656 
L 716.641148 -99.687004 
L 721.980861 -128.701793 
L 727.320574 -136.981777 
L 732.660287 -177.981404 
L 738 -207.880515 
L 743.339713 -212.20533 
L 748.679426 -216.141008 
L 754.019139 -217.896493 
L 759.358852 -224.268693 
L 764.698565 -217.308354 
L 770.038278 -213.660971 
L 775.37799 -206.363431 
L 780.717703 -168.705186 
L 786.057416 -151.030924 
L 791.397129 -158.069502 
L 796.736842 -174.840716 
L 802.076555 -168.337743 
L 807.416268 -116.64347 
L 812.755981 -56.70003 
L 818.095694 -52.2 
L 823.435407 -54.535239 
L 828.77512 -68.16168 
L 834.114833 -96.656177 
L 839.454545 -95.681605 
L 844.794258 -89.539519 
L 850.133971 -109.360525 
L 855.473684 -126.953956 
L 860.813397 -131.714133 
L 866.15311 -158.655552 
L 871.492823 -198.91691 
L 876.832536 -214.309628 
L 882.172249 -204.888521 
L 887.511962 -208.342834 
L 892.851675 -205.904398 
L 898.191388 -199.039349 
L 903.5311 -177.129023 
L 908.870813 -159.720031 
L 914.210526 -172.121664 
L 919.550239 -160.806539 
L 924.889952 -154.842839 
L 930.229665 -161.807246 
L 935.569378 -147.093444 
L 940.909091 -157.195412 
L 946.248804 -140.632047 
L 951.588517 -132.670042 
L 956.92823 -140.034895 
L 962.267943 -132.62329 
L 967.607656 -112.405636 
L 972.947368 -98.898235 
L 978.287081 -116.492607 
L 983.626794 -130.504078 
L 988.966507 -166.378358 
L 994.30622 -198.268987 
L 999.645933 -207.735458 
L 1004.985646 -197.847151 
L 1010.325359 -204.164608 
L 1015.665072 -203.4547 
L 1021.004785 -196.693587 
L 1026.344498 -189.188526 
L 1031.684211 -166.600776 
L 1037.023923 -154.259964 
L 1042.363636 -163.412076 
L 1047.703349 -142.577762 
L 1053.043062 -134.076404 
L 1058.382775 -154.78607 
L 1063.722488 -120.602468 
L 1069.062201 -116.488691 
L 1074.401914 -103.97289 
L 1079.741627 -79.399851 
L 1085.08134 -85.352783 
L 1090.421053 -82.05801 
L 1095.760766 -77.598308 
L 1101.100478 -111.316361 
L 1106.440191 -105.114978 
L 1111.779904 -98.796724 
L 1117.119617 -118.489971 
L 1122.45933 -132.393032 
L 1127.799043 -162.068712 
L 1133.138756 -193.222493 
L 1138.478469 -205.078495 
L 1143.818182 -209.85944 
L 1149.157895 -204.614422 
L 1154.497608 -199.758923 
L 1159.837321 -189.376587 
L 1165.177033 -190.238219 
L 1170.516746 -182.95513 
L 1175.856459 -159.782878 
L 1181.196172 -146.58978 
L 1186.535885 -164.987795 
L 1191.875598 -167.467768 
L 1197.215311 -157.044837 
L 1202.555024 -140.611789 
L 1207.894737 -134.521105 
L 1213.23445 -115.477663 
L 1218.574163 -105.537101 
L 1223.913876 -88.099398 
L 1229.253589 -90.259652 
L 1234.593301 -108.286228 
L 1239.933014 -137.77053 
L 1245.272727 -171.415202 
L 1245.272727 -248.409074 
L 1245.272727 -248.409074 
L 1239.933014 -214.764418 
L 1234.593301 -185.280108 
L 1229.253589 -167.253532 
L 1223.913876 -165.093278 
L 1218.574163 -182.530981 
L 1213.23445 -192.471544 
L 1207.894737 -211.514978 
L 1202.555024 -217.605677 
L 1197.215311 -234.038709 
L 1191.875598 -244.461656 
L 1186.535885 -241.981684 
L 1181.196172 -223.583668 
L 1175.856459 -236.776766 
L 1170.516746 -259.948995 
L 1165.177033 -267.232115 
L 1159.837321 -266.370451 
L 1154.497608 -276.752819 
L 1149.157895 -281.608286 
L 1143.818182 -286.853336 
L 1138.478469 -282.07236 
L 1133.138756 -270.216389 
L 1127.799043 -239.062585 
L 1122.45933 -209.386912 
L 1117.119617 -195.483843 
L 1111.779904 -175.790604 
L 1106.440191 -182.108858 
L 1101.100478 -188.310241 
L 1095.760766 -154.592188 
L 1090.421053 -159.051891 
L 1085.08134 -162.346664 
L 1079.741627 -156.393731 
L 1074.401914 -180.966763 
L 1069.062201 -193.482571 
L 1063.722488 -197.59634 
L 1058.382775 -231.779943 
L 1053.043062 -211.070284 
L 1047.703349 -219.57165 
L 1042.363636 -240.405964 
L 1037.023923 -231.253852 
L 1031.684211 -243.594664 
L 1026.344498 -266.182422 
L 1021.004785 -273.687451 
L 1015.665072 -280.448565 
L 1010.325359 -281.158473 
L 1004.985646 -274.841048 
L 999.645933 -284.729355 
L 994.30622 -275.262852 
L 988.966507 -243.372246 
L 983.626794 -207.49795 
L 978.287081 -193.486479 
L 972.947368 -175.892115 
L 967.607656 -189.399524 
L 962.267943 -209.617179 
L 956.92823 -217.028767 
L 951.588517 -209.663915 
L 946.248804 -217.625935 
L 940.909091 -234.189285 
L 935.569378 -224.087332 
L 930.229665 -238.801119 
L 924.889952 -231.836728 
L 919.550239 -237.800427 
L 914.210526 -249.115536 
L 908.870813 -236.71392 
L 903.5311 -254.122919 
L 898.191388 -276.033245 
L 892.851675 -282.898262 
L 887.511962 -285.336731 
L 882.172249 -281.882385 
L 876.832536 -291.303524 
L 871.492823 -275.910806 
L 866.15311 -235.649424 
L 860.813397 -208.708013 
L 855.473684 -203.947836 
L 850.133971 -186.354413 
L 844.794258 -166.5334 
L 839.454545 -172.675485 
L 834.114833 -173.650049 
L 828.77512 -145.155561 
L 823.435407 -131.529119 
L 818.095694 -129.193884 
L 812.755981 -133.693911 
L 807.416268 -193.637342 
L 802.076555 -245.331615 
L 796.736842 -251.834612 
L 791.397129 -235.063391 
L 786.057416 -228.024796 
L 780.717703 -245.699058 
L 775.37799 -283.357296 
L 770.038278 -290.654836 
L 764.698565 -294.302218 
L 759.358852 -301.262589 
L 754.019139 -294.890389 
L 748.679426 -293.134904 
L 743.339713 -289.199194 
L 738 -284.874412 
L 732.660287 -254.975268 
L 727.320574 -213.975649 
L 721.980861 -205.695665 
L 716.641148 -176.680884 
L 711.301435 -178.257545 
L 705.961722 -198.231822 
L 700.62201 -212.458119 
L 695.282297 -206.072041 
L 689.942584 -215.755284 
L 684.602871 -216.931818 
L 679.263158 -217.993697 
L 673.923445 -237.282216 
L 668.583732 -246.276925 
L 663.244019 -237.170241 
L 657.904306 -256.347901 
L 652.564593 -265.059611 
L 647.22488 -271.299674 
L 641.885167 -292.306609 
L 636.545455 -296.758711 
L 631.205742 -304.2 
L 625.866029 -302.552215 
L 620.526316 -300.517494 
L 615.186603 -292.35092 
L 609.84689 -281.81871 
L 604.507177 -257.122219 
L 599.167464 -223.443078 
L 593.827751 -214.377483 
L 588.488038 -186.28005 
L 583.148325 -146.154992 
L 577.808612 -172.142655 
L 572.4689 -177.751361 
L 567.129187 -194.164964 
L 561.789474 -194.962618 
L 556.449761 -199.482495 
L 551.110048 -202.90915 
L 545.770335 -227.502119 
L 540.430622 -242.687764 
L 535.090909 -262.520493 
L 529.751196 -254.553018 
L 524.411483 -274.250771 
L 519.07177 -279.937883 
L 513.732057 -282.846805 
L 508.392344 -279.013308 
L 503.052632 -284.733374 
L 497.712919 -294.423062 
L 492.373206 -295.836625 
L 487.033493 -279.625501 
L 481.69378 -236.374805 
L 476.354067 -223.949294 
L 471.014354 -219.0558 
L 465.674641 -213.821341 
L 460.334928 -191.400158 
L 454.995215 -197.114434 
L 449.655502 -213.30581 
L 444.315789 -208.96975 
L 438.976077 -204.71303 
L 433.636364 -202.286477 
L 428.296651 -197.667258 
L 422.956938 -214.926224 
L 417.617225 -243.783554 
L 412.277512 -229.325555 
L 406.937799 -221.167276 
L 401.598086 -222.315928 
L 396.258373 -228.428321 
L 390.91866 -255.183331 
L 385.578947 -271.863154 
L 380.239234 -288.129818 
L 374.899522 -284.80241 
L 369.559809 -284.592975 
L 364.220096 -282.662924 
L 358.880383 -267.747997 
L 353.54067 -245.060259 
L 348.200957 -209.715994 
L 342.861244 -165.066298 
L 337.521531 -153.375992 
L 332.181818 -143.510144 
L 326.842105 -139.863751 
L 321.502392 -146.56772 
L 316.162679 -154.634904 
L 310.822967 -157.884712 
L 305.483254 -171.767938 
L 300.143541 -180.245545 
L 294.803828 -169.691785 
L 289.464115 -195.783272 
L 284.124402 -207.345125 
L 278.784689 -230.409798 
L 273.444976 -236.905968 
L 268.105263 -233.749233 
L 262.76555 -226.408594 
L 257.425837 -224.406317 
L 252.086124 -219.972686 
L 246.746411 -233.198291 
L 241.406699 -226.098765 
L 236.066986 -236.26165 
L 230.727273 -261.414462 
z
" style="stroke: #0000ff; stroke-opacity: 0.05"/>
    </defs>
    <g clip-path="url(#p4b57187329)">
     <use xlink:href="#mdf6be46e88" x="0" y="360" style="fill: #0000ff; fill-opacity: 0.05; stroke: #0000ff; stroke-opacity: 0.05"/>
    </g>
   </g>
   <g id="matplotlib.axis_1">
    <g id="xtick_1">
     <g id="line2d_1">
      <defs>
       <path id="m506b03782f" d="M 0 0 
L 0 3.5 
" style="stroke: #000000; stroke-width: 0.8"/>
      </defs>
      <g>
       <use xlink:href="#m506b03782f" x="230.727273" y="320.4" style="stroke: #000000; stroke-width: 0.8"/>
      </g>
     </g>
     <g id="text_1">
      <!-- 0 -->
      <g transform="translate(227.546023 334.998438) scale(0.1 -0.1)">
       <defs>
        <path id="DejaVuSans-30" d="M 2034 4250 
Q 1547 4250 1301 3770 
Q 1056 3291 1056 2328 
Q 1056 1369 1301 889 
Q 1547 409 2034 409 
Q 2525 409 2770 889 
Q 3016 1369 3016 2328 
Q 3016 3291 2770 3770 
Q 2525 4250 2034 4250 
z
M 2034 4750 
Q 2819 4750 3233 4129 
Q 3647 3509 3647 2328 
Q 3647 1150 3233 529 
Q 2819 -91 2034 -91 
Q 1250 -91 836 529 
Q 422 1150 422 2328 
Q 422 3509 836 4129 
Q 1250 4750 2034 4750 
z
" transform="scale(0.015625)"/>
       </defs>
       <use xlink:href="#DejaVuSans-30"/>
      </g>
     </g>
    </g>
    <g id="xtick_2">
     <g id="line2d_2">
      <g>
       <use xlink:href="#m506b03782f" x="364.220096" y="320.4" style="stroke: #000000; stroke-width: 0.8"/>
      </g>
     </g>
     <g id="text_2">
      <!-- 25 -->
      <g transform="translate(357.857596 334.998438) scale(0.1 -0.1)">
       <defs>
        <path id="DejaVuSans-32" d="M 1228 531 
L 3431 531 
L 3431 0 
L 469 0 
L 469 531 
Q 828 903 1448 1529 
Q 2069 2156 2228 2338 
Q 2531 2678 2651 2914 
Q 2772 3150 2772 3378 
Q 2772 3750 2511 3984 
Q 2250 4219 1831 4219 
Q 1534 4219 1204 4116 
Q 875 4013 500 3803 
L 500 4441 
Q 881 4594 1212 4672 
Q 1544 4750 1819 4750 
Q 2544 4750 2975 4387 
Q 3406 4025 3406 3419 
Q 3406 3131 3298 2873 
Q 3191 2616 2906 2266 
Q 2828 2175 2409 1742 
Q 1991 1309 1228 531 
z
" transform="scale(0.015625)"/>
        <path id="DejaVuSans-35" d="M 691 4666 
L 3169 4666 
L 3169 4134 
L 1269 4134 
L 1269 2991 
Q 1406 3038 1543 3061 
Q 1681 3084 1819 3084 
Q 2600 3084 3056 2656 
Q 3513 2228 3513 1497 
Q 3513 744 3044 326 
Q 2575 -91 1722 -91 
Q 1428 -91 1123 -41 
Q 819 9 494 109 
L 494 744 
Q 775 591 1075 516 
Q 1375 441 1709 441 
Q 2250 441 2565 725 
Q 2881 1009 2881 1497 
Q 2881 1984 2565 2268 
Q 2250 2553 1709 2553 
Q 1456 2553 1204 2497 
Q 953 2441 691 2322 
L 691 4666 
z
" transform="scale(0.015625)"/>
       </defs>
       <use xlink:href="#DejaVuSans-32"/>
       <use xlink:href="#DejaVuSans-35" x="63.623047"/>
      </g>
     </g>
    </g>
    <g id="xtick_3">
     <g id="line2d_3">
      <g>
       <use xlink:href="#m506b03782f" x="497.712919" y="320.4" style="stroke: #000000; stroke-width: 0.8"/>
      </g>
     </g>
     <g id="text_3">
      <!-- 50 -->
      <g transform="translate(491.350419 334.998438) scale(0.1 -0.1)">
       <use xlink:href="#DejaVuSans-35"/>
       <use xlink:href="#DejaVuSans-30" x="63.623047"/>
      </g>
     </g>
    </g>
    <g id="xtick_4">
     <g id="line2d_4">
      <g>
       <use xlink:href="#m506b03782f" x="631.205742" y="320.4" style="stroke: #000000; stroke-width: 0.8"/>
      </g>
     </g>
     <g id="text_4">
      <!-- 75 -->
      <g transform="translate(624.843242 334.998438) scale(0.1 -0.1)">
       <defs>
        <path id="DejaVuSans-37" d="M 525 4666 
L 3525 4666 
L 3525 4397 
L 1831 0 
L 1172 0 
L 2766 4134 
L 525 4134 
L 525 4666 
z
" transform="scale(0.015625)"/>
       </defs>
       <use xlink:href="#DejaVuSans-37"/>
       <use xlink:href="#DejaVuSans-35" x="63.623047"/>
      </g>
     </g>
    </g>
    <g id="xtick_5">
     <g id="line2d_5">
      <g>
       <use xlink:href="#m506b03782f" x="764.698565" y="320.4" style="stroke: #000000; stroke-width: 0.8"/>
      </g>
     </g>
     <g id="text_5">
      <!-- 100 -->
      <g transform="translate(755.154815 334.998438) scale(0.1 -0.1)">
       <defs>
        <path id="DejaVuSans-31" d="M 794 531 
L 1825 531 
L 1825 4091 
L 703 3866 
L 703 4441 
L 1819 4666 
L 2450 4666 
L 2450 531 
L 3481 531 
L 3481 0 
L 794 0 
L 794 531 
z
" transform="scale(0.015625)"/>
       </defs>
       <use xlink:href="#DejaVuSans-31"/>
       <use xlink:href="#DejaVuSans-30" x="63.623047"/>
       <use xlink:href="#DejaVuSans-30" x="127.246094"/>
      </g>
     </g>
    </g>
    <g id="xtick_6">
     <g id="line2d_6">
      <g>
       <use xlink:href="#m506b03782f" x="898.191388" y="320.4" style="stroke: #000000; stroke-width: 0.8"/>
      </g>
     </g>
     <g id="text_6">
      <!-- 125 -->
      <g transform="translate(888.647638 334.998438) scale(0.1 -0.1)">
       <use xlink:href="#DejaVuSans-31"/>
       <use xlink:href="#DejaVuSans-32" x="63.623047"/>
       <use xlink:href="#DejaVuSans-35" x="127.246094"/>
      </g>
     </g>
    </g>
    <g id="xtick_7">
     <g id="line2d_7">
      <g>
       <use xlink:href="#m506b03782f" x="1031.684211" y="320.4" style="stroke: #000000; stroke-width: 0.8"/>
      </g>
     </g>
     <g id="text_7">
      <!-- 150 -->
      <g transform="translate(1022.140461 334.998438) scale(0.1 -0.1)">
       <use xlink:href="#DejaVuSans-31"/>
       <use xlink:href="#DejaVuSans-35" x="63.623047"/>
       <use xlink:href="#DejaVuSans-30" x="127.246094"/>
      </g>
     </g>
    </g>
    <g id="xtick_8">
     <g id="line2d_8">
      <g>
       <use xlink:href="#m506b03782f" x="1165.177033" y="320.4" style="stroke: #000000; stroke-width: 0.8"/>
      </g>
     </g>
     <g id="text_8">
      <!-- 175 -->
      <g transform="translate(1155.633283 334.998438) scale(0.1 -0.1)">
       <use xlink:href="#DejaVuSans-31"/>
       <use xlink:href="#DejaVuSans-37" x="63.623047"/>
       <use xlink:href="#DejaVuSans-35" x="127.246094"/>
      </g>
     </g>
    </g>
    <g id="text_9">
     <!-- Amostras -->
     <g transform="translate(714.360937 348.676562) scale(0.1 -0.1)">
      <defs>
       <path id="DejaVuSans-41" d="M 2188 4044 
L 1331 1722 
L 3047 1722 
L 2188 4044 
z
M 1831 4666 
L 2547 4666 
L 4325 0 
L 3669 0 
L 3244 1197 
L 1141 1197 
L 716 0 
L 50 0 
L 1831 4666 
z
" transform="scale(0.015625)"/>
       <path id="DejaVuSans-6d" d="M 3328 2828 
Q 3544 3216 3844 3400 
Q 4144 3584 4550 3584 
Q 5097 3584 5394 3201 
Q 5691 2819 5691 2113 
L 5691 0 
L 5113 0 
L 5113 2094 
Q 5113 2597 4934 2840 
Q 4756 3084 4391 3084 
Q 3944 3084 3684 2787 
Q 3425 2491 3425 1978 
L 3425 0 
L 2847 0 
L 2847 2094 
Q 2847 2600 2669 2842 
Q 2491 3084 2119 3084 
Q 1678 3084 1418 2786 
Q 1159 2488 1159 1978 
L 1159 0 
L 581 0 
L 581 3500 
L 1159 3500 
L 1159 2956 
Q 1356 3278 1631 3431 
Q 1906 3584 2284 3584 
Q 2666 3584 2933 3390 
Q 3200 3197 3328 2828 
z
" transform="scale(0.015625)"/>
       <path id="DejaVuSans-6f" d="M 1959 3097 
Q 1497 3097 1228 2736 
Q 959 2375 959 1747 
Q 959 1119 1226 758 
Q 1494 397 1959 397 
Q 2419 397 2687 759 
Q 2956 1122 2956 1747 
Q 2956 2369 2687 2733 
Q 2419 3097 1959 3097 
z
M 1959 3584 
Q 2709 3584 3137 3096 
Q 3566 2609 3566 1747 
Q 3566 888 3137 398 
Q 2709 -91 1959 -91 
Q 1206 -91 779 398 
Q 353 888 353 1747 
Q 353 2609 779 3096 
Q 1206 3584 1959 3584 
z
" transform="scale(0.015625)"/>
       <path id="DejaVuSans-73" d="M 2834 3397 
L 2834 2853 
Q 2591 2978 2328 3040 
Q 2066 3103 1784 3103 
Q 1356 3103 1142 2972 
Q 928 2841 928 2578 
Q 928 2378 1081 2264 
Q 1234 2150 1697 2047 
L 1894 2003 
Q 2506 1872 2764 1633 
Q 3022 1394 3022 966 
Q 3022 478 2636 193 
Q 2250 -91 1575 -91 
Q 1294 -91 989 -36 
Q 684 19 347 128 
L 347 722 
Q 666 556 975 473 
Q 1284 391 1588 391 
Q 1994 391 2212 530 
Q 2431 669 2431 922 
Q 2431 1156 2273 1281 
Q 2116 1406 1581 1522 
L 1381 1569 
Q 847 1681 609 1914 
Q 372 2147 372 2553 
Q 372 3047 722 3315 
Q 1072 3584 1716 3584 
Q 2034 3584 2315 3537 
Q 2597 3491 2834 3397 
z
" transform="scale(0.015625)"/>
       <path id="DejaVuSans-74" d="M 1172 4494 
L 1172 3500 
L 2356 3500 
L 2356 3053 
L 1172 3053 
L 1172 1153 
Q 1172 725 1289 603 
Q 1406 481 1766 481 
L 2356 481 
L 2356 0 
L 1766 0 
Q 1100 0 847 248 
Q 594 497 594 1153 
L 594 3053 
L 172 3053 
L 172 3500 
L 594 3500 
L 594 4494 
L 1172 4494 
z
" transform="scale(0.015625)"/>
       <path id="DejaVuSans-72" d="M 2631 2963 
Q 2534 3019 2420 3045 
Q 2306 3072 2169 3072 
Q 1681 3072 1420 2755 
Q 1159 2438 1159 1844 
L 1159 0 
L 581 0 
L 581 3500 
L 1159 3500 
L 1159 2956 
Q 1341 3275 1631 3429 
Q 1922 3584 2338 3584 
Q 2397 3584 2469 3576 
Q 2541 3569 2628 3553 
L 2631 2963 
z
" transform="scale(0.015625)"/>
       <path id="DejaVuSans-61" d="M 2194 1759 
Q 1497 1759 1228 1600 
Q 959 1441 959 1056 
Q 959 750 1161 570 
Q 1363 391 1709 391 
Q 2188 391 2477 730 
Q 2766 1069 2766 1631 
L 2766 1759 
L 2194 1759 
z
M 3341 1997 
L 3341 0 
L 2766 0 
L 2766 531 
Q 2569 213 2275 61 
Q 1981 -91 1556 -91 
Q 1019 -91 701 211 
Q 384 513 384 1019 
Q 384 1609 779 1909 
Q 1175 2209 1959 2209 
L 2766 2209 
L 2766 2266 
Q 2766 2663 2505 2880 
Q 2244 3097 1772 3097 
Q 1472 3097 1187 3025 
Q 903 2953 641 2809 
L 641 3341 
Q 956 3463 1253 3523 
Q 1550 3584 1831 3584 
Q 2591 3584 2966 3190 
Q 3341 2797 3341 1997 
z
" transform="scale(0.015625)"/>
      </defs>
      <use xlink:href="#DejaVuSans-41"/>
      <use xlink:href="#DejaVuSans-6d" x="68.408203"/>
      <use xlink:href="#DejaVuSans-6f" x="165.820312"/>
      <use xlink:href="#DejaVuSans-73" x="227.001953"/>
      <use xlink:href="#DejaVuSans-74" x="279.101562"/>
      <use xlink:href="#DejaVuSans-72" x="318.310547"/>
      <use xlink:href="#DejaVuSans-61" x="359.423828"/>
      <use xlink:href="#DejaVuSans-73" x="420.703125"/>
     </g>
    </g>
   </g>
   <g id="matplotlib.axis_2">
    <g id="ytick_1">
     <g id="line2d_9">
      <defs>
       <path id="mbc2fd437a2" d="M 0 0 
L -3.5 0 
" style="stroke: #000000; stroke-width: 0.8"/>
      </defs>
      <g>
       <use xlink:href="#mbc2fd437a2" x="180" y="287.653849" style="stroke: #000000; stroke-width: 0.8"/>
      </g>
     </g>
     <g id="text_10">
      <!-- 2 -->
      <g transform="translate(166.6375 291.453067) scale(0.1 -0.1)">
       <use xlink:href="#DejaVuSans-32"/>
      </g>
     </g>
    </g>
    <g id="ytick_2">
     <g id="line2d_10">
      <g>
       <use xlink:href="#mbc2fd437a2" x="180" y="254.202517" style="stroke: #000000; stroke-width: 0.8"/>
      </g>
     </g>
     <g id="text_11">
      <!-- 4 -->
      <g transform="translate(166.6375 258.001736) scale(0.1 -0.1)">
       <defs>
        <path id="DejaVuSans-34" d="M 2419 4116 
L 825 1625 
L 2419 1625 
L 2419 4116 
z
M 2253 4666 
L 3047 4666 
L 3047 1625 
L 3713 1625 
L 3713 1100 
L 3047 1100 
L 3047 0 
L 2419 0 
L 2419 1100 
L 313 1100 
L 313 1709 
L 2253 4666 
z
" transform="scale(0.015625)"/>
       </defs>
       <use xlink:href="#DejaVuSans-34"/>
      </g>
     </g>
    </g>
    <g id="ytick_3">
     <g id="line2d_11">
      <g>
       <use xlink:href="#mbc2fd437a2" x="180" y="220.751186" style="stroke: #000000; stroke-width: 0.8"/>
      </g>
     </g>
     <g id="text_12">
      <!-- 6 -->
      <g transform="translate(166.6375 224.550405) scale(0.1 -0.1)">
       <defs>
        <path id="DejaVuSans-36" d="M 2113 2584 
Q 1688 2584 1439 2293 
Q 1191 2003 1191 1497 
Q 1191 994 1439 701 
Q 1688 409 2113 409 
Q 2538 409 2786 701 
Q 3034 994 3034 1497 
Q 3034 2003 2786 2293 
Q 2538 2584 2113 2584 
z
M 3366 4563 
L 3366 3988 
Q 3128 4100 2886 4159 
Q 2644 4219 2406 4219 
Q 1781 4219 1451 3797 
Q 1122 3375 1075 2522 
Q 1259 2794 1537 2939 
Q 1816 3084 2150 3084 
Q 2853 3084 3261 2657 
Q 3669 2231 3669 1497 
Q 3669 778 3244 343 
Q 2819 -91 2113 -91 
Q 1303 -91 875 529 
Q 447 1150 447 2328 
Q 447 3434 972 4092 
Q 1497 4750 2381 4750 
Q 2619 4750 2861 4703 
Q 3103 4656 3366 4563 
z
" transform="scale(0.015625)"/>
       </defs>
       <use xlink:href="#DejaVuSans-36"/>
      </g>
     </g>
    </g>
    <g id="ytick_4">
     <g id="line2d_12">
      <g>
       <use xlink:href="#mbc2fd437a2" x="180" y="187.299855" style="stroke: #000000; stroke-width: 0.8"/>
      </g>
     </g>
     <g id="text_13">
      <!-- 8 -->
      <g transform="translate(166.6375 191.099074) scale(0.1 -0.1)">
       <defs>
        <path id="DejaVuSans-38" d="M 2034 2216 
Q 1584 2216 1326 1975 
Q 1069 1734 1069 1313 
Q 1069 891 1326 650 
Q 1584 409 2034 409 
Q 2484 409 2743 651 
Q 3003 894 3003 1313 
Q 3003 1734 2745 1975 
Q 2488 2216 2034 2216 
z
M 1403 2484 
Q 997 2584 770 2862 
Q 544 3141 544 3541 
Q 544 4100 942 4425 
Q 1341 4750 2034 4750 
Q 2731 4750 3128 4425 
Q 3525 4100 3525 3541 
Q 3525 3141 3298 2862 
Q 3072 2584 2669 2484 
Q 3125 2378 3379 2068 
Q 3634 1759 3634 1313 
Q 3634 634 3220 271 
Q 2806 -91 2034 -91 
Q 1263 -91 848 271 
Q 434 634 434 1313 
Q 434 1759 690 2068 
Q 947 2378 1403 2484 
z
M 1172 3481 
Q 1172 3119 1398 2916 
Q 1625 2713 2034 2713 
Q 2441 2713 2670 2916 
Q 2900 3119 2900 3481 
Q 2900 3844 2670 4047 
Q 2441 4250 2034 4250 
Q 1625 4250 1398 4047 
Q 1172 3844 1172 3481 
z
" transform="scale(0.015625)"/>
       </defs>
       <use xlink:href="#DejaVuSans-38"/>
      </g>
     </g>
    </g>
    <g id="ytick_5">
     <g id="line2d_13">
      <g>
       <use xlink:href="#mbc2fd437a2" x="180" y="153.848524" style="stroke: #000000; stroke-width: 0.8"/>
      </g>
     </g>
     <g id="text_14">
      <!-- 10 -->
      <g transform="translate(160.275 157.647742) scale(0.1 -0.1)">
       <use xlink:href="#DejaVuSans-31"/>
       <use xlink:href="#DejaVuSans-30" x="63.623047"/>
      </g>
     </g>
    </g>
    <g id="ytick_6">
     <g id="line2d_14">
      <g>
       <use xlink:href="#mbc2fd437a2" x="180" y="120.397192" style="stroke: #000000; stroke-width: 0.8"/>
      </g>
     </g>
     <g id="text_15">
      <!-- 12 -->
      <g transform="translate(160.275 124.196411) scale(0.1 -0.1)">
       <use xlink:href="#DejaVuSans-31"/>
       <use xlink:href="#DejaVuSans-32" x="63.623047"/>
      </g>
     </g>
    </g>
    <g id="ytick_7">
     <g id="line2d_15">
      <g>
       <use xlink:href="#mbc2fd437a2" x="180" y="86.945861" style="stroke: #000000; stroke-width: 0.8"/>
      </g>
     </g>
     <g id="text_16">
      <!-- 14 -->
      <g transform="translate(160.275 90.74508) scale(0.1 -0.1)">
       <use xlink:href="#DejaVuSans-31"/>
       <use xlink:href="#DejaVuSans-34" x="63.623047"/>
      </g>
     </g>
    </g>
    <g id="ytick_8">
     <g id="line2d_16">
      <g>
       <use xlink:href="#mbc2fd437a2" x="180" y="53.49453" style="stroke: #000000; stroke-width: 0.8"/>
      </g>
     </g>
     <g id="text_17">
      <!-- 16 -->
      <g transform="translate(160.275 57.293748) scale(0.1 -0.1)">
       <use xlink:href="#DejaVuSans-31"/>
       <use xlink:href="#DejaVuSans-36" x="63.623047"/>
      </g>
     </g>
    </g>
    <g id="text_18">
     <!-- Velocidade do Vento (m/s) -->
     <g transform="translate(154.195312 247.344531) rotate(-90) scale(0.1 -0.1)">
      <defs>
       <path id="DejaVuSans-56" d="M 1831 0 
L 50 4666 
L 709 4666 
L 2188 738 
L 3669 4666 
L 4325 4666 
L 2547 0 
L 1831 0 
z
" transform="scale(0.015625)"/>
       <path id="DejaVuSans-65" d="M 3597 1894 
L 3597 1613 
L 953 1613 
Q 991 1019 1311 708 
Q 1631 397 2203 397 
Q 2534 397 2845 478 
Q 3156 559 3463 722 
L 3463 178 
Q 3153 47 2828 -22 
Q 2503 -91 2169 -91 
Q 1331 -91 842 396 
Q 353 884 353 1716 
Q 353 2575 817 3079 
Q 1281 3584 2069 3584 
Q 2775 3584 3186 3129 
Q 3597 2675 3597 1894 
z
M 3022 2063 
Q 3016 2534 2758 2815 
Q 2500 3097 2075 3097 
Q 1594 3097 1305 2825 
Q 1016 2553 972 2059 
L 3022 2063 
z
" transform="scale(0.015625)"/>
       <path id="DejaVuSans-6c" d="M 603 4863 
L 1178 4863 
L 1178 0 
L 603 0 
L 603 4863 
z
" transform="scale(0.015625)"/>
       <path id="DejaVuSans-63" d="M 3122 3366 
L 3122 2828 
Q 2878 2963 2633 3030 
Q 2388 3097 2138 3097 
Q 1578 3097 1268 2742 
Q 959 2388 959 1747 
Q 959 1106 1268 751 
Q 1578 397 2138 397 
Q 2388 397 2633 464 
Q 2878 531 3122 666 
L 3122 134 
Q 2881 22 2623 -34 
Q 2366 -91 2075 -91 
Q 1284 -91 818 406 
Q 353 903 353 1747 
Q 353 2603 823 3093 
Q 1294 3584 2113 3584 
Q 2378 3584 2631 3529 
Q 2884 3475 3122 3366 
z
" transform="scale(0.015625)"/>
       <path id="DejaVuSans-69" d="M 603 3500 
L 1178 3500 
L 1178 0 
L 603 0 
L 603 3500 
z
M 603 4863 
L 1178 4863 
L 1178 4134 
L 603 4134 
L 603 4863 
z
" transform="scale(0.015625)"/>
       <path id="DejaVuSans-64" d="M 2906 2969 
L 2906 4863 
L 3481 4863 
L 3481 0 
L 2906 0 
L 2906 525 
Q 2725 213 2448 61 
Q 2172 -91 1784 -91 
Q 1150 -91 751 415 
Q 353 922 353 1747 
Q 353 2572 751 3078 
Q 1150 3584 1784 3584 
Q 2172 3584 2448 3432 
Q 2725 3281 2906 2969 
z
M 947 1747 
Q 947 1113 1208 752 
Q 1469 391 1925 391 
Q 2381 391 2643 752 
Q 2906 1113 2906 1747 
Q 2906 2381 2643 2742 
Q 2381 3103 1925 3103 
Q 1469 3103 1208 2742 
Q 947 2381 947 1747 
z
" transform="scale(0.015625)"/>
       <path id="DejaVuSans-20" transform="scale(0.015625)"/>
       <path id="DejaVuSans-6e" d="M 3513 2113 
L 3513 0 
L 2938 0 
L 2938 2094 
Q 2938 2591 2744 2837 
Q 2550 3084 2163 3084 
Q 1697 3084 1428 2787 
Q 1159 2491 1159 1978 
L 1159 0 
L 581 0 
L 581 3500 
L 1159 3500 
L 1159 2956 
Q 1366 3272 1645 3428 
Q 1925 3584 2291 3584 
Q 2894 3584 3203 3211 
Q 3513 2838 3513 2113 
z
" transform="scale(0.015625)"/>
       <path id="DejaVuSans-28" d="M 1984 4856 
Q 1566 4138 1362 3434 
Q 1159 2731 1159 2009 
Q 1159 1288 1364 580 
Q 1569 -128 1984 -844 
L 1484 -844 
Q 1016 -109 783 600 
Q 550 1309 550 2009 
Q 550 2706 781 3412 
Q 1013 4119 1484 4856 
L 1984 4856 
z
" transform="scale(0.015625)"/>
       <path id="DejaVuSans-2f" d="M 1625 4666 
L 2156 4666 
L 531 -594 
L 0 -594 
L 1625 4666 
z
" transform="scale(0.015625)"/>
       <path id="DejaVuSans-29" d="M 513 4856 
L 1013 4856 
Q 1481 4119 1714 3412 
Q 1947 2706 1947 2009 
Q 1947 1309 1714 600 
Q 1481 -109 1013 -844 
L 513 -844 
Q 928 -128 1133 580 
Q 1338 1288 1338 2009 
Q 1338 2731 1133 3434 
Q 928 4138 513 4856 
z
" transform="scale(0.015625)"/>
      </defs>
      <use xlink:href="#DejaVuSans-56"/>
      <use xlink:href="#DejaVuSans-65" x="60.658203"/>
      <use xlink:href="#DejaVuSans-6c" x="122.181641"/>
      <use xlink:href="#DejaVuSans-6f" x="149.964844"/>
      <use xlink:href="#DejaVuSans-63" x="211.146484"/>
      <use xlink:href="#DejaVuSans-69" x="266.126953"/>
      <use xlink:href="#DejaVuSans-64" x="293.910156"/>
      <use xlink:href="#DejaVuSans-61" x="357.386719"/>
      <use xlink:href="#DejaVuSans-64" x="418.666016"/>
      <use xlink:href="#DejaVuSans-65" x="482.142578"/>
      <use xlink:href="#DejaVuSans-20" x="543.666016"/>
      <use xlink:href="#DejaVuSans-64" x="575.453125"/>
      <use xlink:href="#DejaVuSans-6f" x="638.929688"/>
      <use xlink:href="#DejaVuSans-20" x="700.111328"/>
      <use xlink:href="#DejaVuSans-56" x="731.898438"/>
      <use xlink:href="#DejaVuSans-65" x="792.556641"/>
      <use xlink:href="#DejaVuSans-6e" x="854.080078"/>
      <use xlink:href="#DejaVuSans-74" x="917.458984"/>
      <use xlink:href="#DejaVuSans-6f" x="956.667969"/>
      <use xlink:href="#DejaVuSans-20" x="1017.849609"/>
      <use xlink:href="#DejaVuSans-28" x="1049.636719"/>
      <use xlink:href="#DejaVuSans-6d" x="1088.650391"/>
      <use xlink:href="#DejaVuSans-2f" x="1186.0625"/>
      <use xlink:href="#DejaVuSans-73" x="1219.753906"/>
      <use xlink:href="#DejaVuSans-29" x="1271.853516"/>
     </g>
    </g>
   </g>
   <g id="line2d_17">
    <path d="M 230.727273 137.08247 
L 236.066986 162.235283 
L 241.406699 172.398167 
L 246.746411 165.298641 
L 252.086124 178.524262 
L 257.425837 174.090631 
L 262.76555 172.088338 
L 268.105263 164.747699 
L 273.444976 161.59098 
L 278.784689 168.087151 
L 284.124402 191.151815 
L 289.464115 202.713668 
L 294.803828 228.805155 
L 300.143541 218.251395 
L 305.483254 226.729002 
L 310.822967 240.612228 
L 316.162679 243.862036 
L 321.502392 251.92922 
L 326.842105 258.633186 
L 332.181818 254.986796 
L 337.521531 245.120948 
L 342.861244 233.430643 
L 348.200957 188.780946 
L 353.54067 153.436689 
L 358.880383 130.748935 
L 364.220096 115.834024 
L 369.559809 113.903973 
L 374.899522 113.694539 
L 380.239234 110.367114 
L 385.578947 126.633778 
L 390.91866 143.313601 
L 396.258373 170.068611 
L 401.598086 176.18102 
L 406.937799 177.329672 
L 412.277512 169.171393 
L 417.617225 154.713394 
L 422.956938 183.570708 
L 428.296651 200.829682 
L 433.636364 196.210463 
L 438.976077 193.78391 
L 449.655502 185.191138 
L 454.995215 201.382507 
L 460.334928 207.096783 
L 465.674641 184.675591 
L 471.014354 179.441132 
L 476.354067 174.547655 
L 481.69378 162.122127 
L 487.033493 118.871431 
L 492.373206 102.660323 
L 497.712919 104.073871 
L 503.052632 113.763574 
L 508.392344 119.483624 
L 513.732057 115.650143 
L 519.07177 118.55905 
L 524.411483 124.246177 
L 529.751196 143.943931 
L 535.090909 135.976439 
L 540.430622 155.809169 
L 545.770335 170.994813 
L 551.110048 195.58779 
L 556.449761 199.014453 
L 561.789474 203.534322 
L 567.129187 204.331968 
L 572.4689 220.745571 
L 577.808612 226.354285 
L 583.148325 252.341948 
L 588.488038 212.21689 
L 593.827751 184.119449 
L 599.167464 175.053854 
L 604.507177 141.374729 
L 609.84689 116.678239 
L 615.186603 106.146028 
L 620.526316 97.979438 
L 625.866029 95.944733 
L 631.205742 94.296932 
L 636.545455 101.738221 
L 641.885167 106.190339 
L 647.22488 127.197258 
L 652.564593 133.437321 
L 657.904306 142.149047 
L 663.244019 161.326691 
L 668.583732 152.220007 
L 673.923445 161.214716 
L 679.263158 180.503235 
L 684.602871 181.565114 
L 689.942584 182.741648 
L 695.282297 192.424899 
L 700.62201 186.038814 
L 705.961722 200.265118 
L 711.301435 220.239403 
L 716.641148 221.816056 
L 721.980861 192.801267 
L 727.320574 184.521283 
L 732.660287 143.521664 
L 738 113.622537 
L 743.339713 109.297738 
L 748.679426 105.362044 
L 754.019139 103.606559 
L 759.358852 97.234359 
L 764.698565 104.194714 
L 770.038278 107.842096 
L 775.37799 115.139637 
L 780.717703 152.797874 
L 786.057416 170.472136 
L 791.397129 163.433557 
L 796.736842 146.662336 
L 802.076555 153.165317 
L 807.416268 204.85959 
L 812.755981 264.803029 
L 818.095694 269.30306 
L 823.435407 266.967821 
L 828.77512 253.34138 
L 834.114833 224.846883 
L 839.454545 225.821455 
L 844.794258 231.96354 
L 850.133971 212.142535 
L 855.473684 194.549104 
L 860.813397 189.788927 
L 866.15311 162.847508 
L 871.492823 122.586142 
L 876.832536 107.193424 
L 882.172249 116.614547 
L 887.511962 113.160217 
L 892.851675 115.59867 
L 898.191388 122.463703 
L 903.5311 144.374029 
L 908.870813 161.783029 
L 914.210526 149.381396 
L 919.550239 160.696521 
L 924.889952 166.66022 
L 930.229665 159.695814 
L 935.569378 174.409616 
L 940.909091 164.307647 
L 946.248804 180.871013 
L 951.588517 188.833017 
L 956.92823 181.468165 
L 962.267943 188.879769 
L 967.607656 209.097424 
L 972.947368 222.604825 
L 978.287081 205.010453 
L 983.626794 190.998982 
L 988.966507 155.124702 
L 994.30622 123.234081 
L 999.645933 113.767593 
L 1004.985646 123.655901 
L 1010.325359 117.33846 
L 1015.665072 118.048368 
L 1021.004785 124.809481 
L 1026.344498 132.314526 
L 1031.684211 154.902284 
L 1037.023923 167.243096 
L 1042.363636 158.090984 
L 1047.703349 178.925298 
L 1053.043062 187.426656 
L 1058.382775 166.71699 
L 1063.722488 200.900592 
L 1069.062201 205.014369 
L 1074.401914 217.53017 
L 1079.741627 242.103209 
L 1085.08134 236.150276 
L 1090.421053 239.44505 
L 1095.760766 243.904752 
L 1101.100478 210.186699 
L 1111.779904 222.706336 
L 1117.119617 203.013089 
L 1122.45933 189.110028 
L 1127.799043 159.434347 
L 1133.138756 128.280559 
L 1138.478469 116.424572 
L 1143.818182 111.643612 
L 1149.157895 116.888646 
L 1154.497608 121.744129 
L 1159.837321 132.126481 
L 1165.177033 131.264833 
L 1170.516746 138.547938 
L 1175.856459 161.720182 
L 1181.196172 174.91328 
L 1186.535885 156.515264 
L 1191.875598 154.035292 
L 1197.215311 164.458223 
L 1202.555024 180.891271 
L 1207.894737 186.981955 
L 1213.23445 206.025397 
L 1218.574163 215.965959 
L 1223.913876 233.403662 
L 1229.253589 231.243408 
L 1234.593301 213.216832 
L 1239.933014 183.73253 
L 1245.272727 150.087858 
L 1245.272727 150.087858 
" clip-path="url(#p4b57187329)" style="fill: none; stroke: #0000ff; stroke-width: 1.5; stroke-linecap: square"/>
   </g>
   <g id="line2d_18">
    <path d="M 230.727273 166.086135 
L 236.066986 175.015783 
L 241.406699 159.498081 
L 246.746411 176.92065 
L 252.086124 174.551181 
L 257.425837 171.113127 
L 262.76555 165.1941 
L 268.105263 160.399409 
L 273.444976 167.684366 
L 278.784689 191.267554 
L 284.124402 201.312246 
L 289.464115 220.370213 
L 294.803828 209.767999 
L 300.143541 220.788354 
L 305.483254 235.729949 
L 310.822967 238.797936 
L 316.162679 247.512251 
L 321.502392 257.213137 
L 326.842105 255.633491 
L 332.181818 242.280835 
L 337.521531 231.641453 
L 342.861244 188.879501 
L 348.200957 152.268877 
L 353.54067 127.477724 
L 358.880383 104.219756 
L 364.220096 106.208252 
L 369.559809 106.849403 
L 374.899522 104.925951 
L 380.239234 131.110911 
L 385.578947 148.895869 
L 390.91866 176.641889 
L 396.258373 180.721093 
L 401.598086 182.003394 
L 406.937799 171.754277 
L 412.277512 153.002948 
L 417.617225 172.237464 
L 422.956938 188.294101 
L 428.296651 185.99897 
L 433.636364 183.887045 
L 438.976077 179.995175 
L 444.315789 175.907964 
L 449.655502 196.935696 
L 454.995215 206.887468 
L 460.334928 201.349414 
L 465.674641 207.53791 
L 471.014354 205.642334 
L 476.354067 185.18127 
L 481.69378 127.55206 
L 487.033493 91.359578 
L 492.373206 88.702056 
L 497.712919 105.576393 
L 503.052632 120.685245 
L 508.392344 111.374625 
L 513.732057 106.691438 
L 519.07177 117.395864 
L 524.411483 144.333478 
L 529.751196 130.46976 
L 535.090909 154.684807 
L 540.430622 167.65649 
L 545.770335 181.650297 
L 551.110048 186.13835 
L 556.449761 191.035253 
L 561.789474 190.830829 
L 567.129187 203.700299 
L 572.4689 209.684371 
L 577.808612 240.831277 
L 583.148325 209.925964 
L 588.488038 201.637467 
L 593.827751 199.398086 
L 599.167464 162.852507 
L 604.507177 127.607813 
L 609.84689 101.99896 
L 615.186603 64.970194 
L 620.526316 78.257807 
L 625.866029 89.872853 
L 631.205742 107.509138 
L 636.545455 103.95958 
L 641.885167 137.317991 
L 647.22488 135.375955 
L 652.564593 138.721088 
L 657.904306 156.598966 
L 663.244019 145.662239 
L 668.583732 154.675515 
L 673.923445 164.971092 
L 679.263158 164.422861 
L 684.602871 165.426401 
L 689.942584 175.285252 
L 695.282297 171.401181 
L 700.62201 188.684367 
L 705.961722 209.610034 
L 711.301435 222.953399 
L 716.641148 209.033928 
L 721.980861 212.351185 
L 727.320574 161.523745 
L 732.660287 122.562236 
L 738 114.431704 
L 743.339713 102.417101 
L 748.679426 82.346303 
L 754.019139 87.958694 
L 759.358852 95.757431 
L 764.698565 103.355597 
L 770.038278 112.62905 
L 775.37799 160.241445 
L 780.717703 172.980827 
L 786.057416 158.559586 
L 791.397129 135.552503 
L 796.736842 143.394983 
L 802.076555 187.662244 
L 807.416268 236.306055 
L 812.755981 241.128622 
L 818.095694 246.220658 
L 823.435407 236.380392 
L 828.77512 216.25384 
L 834.114833 220.026408 
L 839.454545 239.11225 
L 844.794258 236.505684 
L 850.133971 220.586829 
L 855.473684 205.660919 
L 860.813397 165.203392 
L 866.15311 111.960023 
L 871.492823 89.556924 
L 876.832536 105.353385 
L 882.172249 99.146305 
L 887.511962 98.811791 
L 892.851675 118.557369 
L 898.191388 148.607815 
L 903.5311 166.262684 
L 908.870813 149.945868 
L 914.210526 163.586578 
L 919.550239 166.253392 
L 924.889952 153.606931 
L 930.229665 157.769764 
L 935.569378 148.059585 
L 940.909091 167.535693 
L 946.248804 179.039235 
L 951.588517 174.829941 
L 956.92823 188.024633 
L 962.267943 205.930388 
L 967.607656 226.986143 
L 972.947368 224.718886 
L 978.287081 207.677291 
L 983.626794 169.34764 
L 988.966507 131.919317 
L 994.30622 110.417545 
L 999.645933 137.810468 
L 1004.985646 122.757369 
L 1010.325359 120.675954 
L 1015.665072 133.601176 
L 1021.004785 140.272858 
L 1026.344498 165.156933 
L 1031.684211 180.005606 
L 1037.023923 170.676402 
L 1042.363636 190.877288 
L 1047.703349 196.062245 
L 1053.043062 171.271092 
L 1058.382775 191.230386 
L 1063.722488 191.65782 
L 1069.062201 206.822424 
L 1074.401914 233.202515 
L 1079.741627 232.291896 
L 1085.08134 239.075082 
L 1090.421053 235.757825 
L 1095.760766 208.1326 
L 1101.100478 233.852957 
L 1106.440191 250.587915 
L 1111.779904 222.117115 
L 1117.119617 207.342778 
L 1122.45933 177.3295 
L 1127.799043 132.625512 
L 1133.138756 116.355156 
L 1138.478469 110.817102 
L 1143.818182 116.364448 
L 1149.157895 115.585059 
L 1154.497608 132.650151 
L 1159.837321 134.502503 
L 1165.177033 145.392771 
L 1170.516746 172.590561 
L 1175.856459 185.7295 
L 1181.196172 153.095868 
L 1186.535885 138.293655 
L 1191.875598 149.592771 
L 1197.215311 167.721534 
L 1202.555024 176.837022 
L 1207.894737 197.121537 
L 1213.23445 208.392778 
L 1218.574163 228.379948 
L 1223.913876 235.469772 
L 1229.253589 233.843665 
L 1234.593301 197.827732 
L 1239.933014 147.148965 
L 1245.272727 113.697634 
L 1245.272727 113.697634 
" clip-path="url(#p4b57187329)" style="fill: none; stroke: #ffa500; stroke-width: 1.5; stroke-linecap: square"/>
   </g>
   <g id="patch_3">
    <path d="M 180 320.4 
L 180 43.2 
" style="fill: none; stroke: #000000; stroke-width: 0.8; stroke-linejoin: miter; stroke-linecap: square"/>
   </g>
   <g id="patch_4">
    <path d="M 1296 320.4 
L 1296 43.2 
" style="fill: none; stroke: #000000; stroke-width: 0.8; stroke-linejoin: miter; stroke-linecap: square"/>
   </g>
   <g id="patch_5">
    <path d="M 180 320.4 
L 1296 320.4 
" style="fill: none; stroke: #000000; stroke-width: 0.8; stroke-linejoin: miter; stroke-linecap: square"/>
   </g>
   <g id="patch_6">
    <path d="M 180 43.2 
L 1296 43.2 
" style="fill: none; stroke: #000000; stroke-width: 0.8; stroke-linejoin: miter; stroke-linecap: square"/>
   </g>
   <g id="text_19">
    <!-- Previsão do vento para 1 hora(s) à frente com 8 camadas -->
    <g transform="translate(564.882187 37.2) scale(0.12 -0.12)">
     <defs>
      <path id="DejaVuSans-50" d="M 1259 4147 
L 1259 2394 
L 2053 2394 
Q 2494 2394 2734 2622 
Q 2975 2850 2975 3272 
Q 2975 3691 2734 3919 
Q 2494 4147 2053 4147 
L 1259 4147 
z
M 628 4666 
L 2053 4666 
Q 2838 4666 3239 4311 
Q 3641 3956 3641 3272 
Q 3641 2581 3239 2228 
Q 2838 1875 2053 1875 
L 1259 1875 
L 1259 0 
L 628 0 
L 628 4666 
z
" transform="scale(0.015625)"/>
      <path id="DejaVuSans-76" d="M 191 3500 
L 800 3500 
L 1894 563 
L 2988 3500 
L 3597 3500 
L 2284 0 
L 1503 0 
L 191 3500 
z
" transform="scale(0.015625)"/>
      <path id="DejaVuSans-e3" d="M 2194 1759 
Q 1497 1759 1228 1600 
Q 959 1441 959 1056 
Q 959 750 1161 570 
Q 1363 391 1709 391 
Q 2188 391 2477 730 
Q 2766 1069 2766 1631 
L 2766 1759 
L 2194 1759 
z
M 3341 1997 
L 3341 0 
L 2766 0 
L 2766 531 
Q 2569 213 2275 61 
Q 1981 -91 1556 -91 
Q 1019 -91 701 211 
Q 384 513 384 1019 
Q 384 1609 779 1909 
Q 1175 2209 1959 2209 
L 2766 2209 
L 2766 2266 
Q 2766 2663 2505 2880 
Q 2244 3097 1772 3097 
Q 1472 3097 1187 3025 
Q 903 2953 641 2809 
L 641 3341 
Q 956 3463 1253 3523 
Q 1550 3584 1831 3584 
Q 2591 3584 2966 3190 
Q 3341 2797 3341 1997 
z
M 1844 4281 
L 1666 4453 
Q 1597 4516 1545 4545 
Q 1494 4575 1453 4575 
Q 1334 4575 1278 4461 
Q 1222 4347 1216 4091 
L 825 4091 
Q 831 4513 990 4742 
Q 1150 4972 1434 4972 
Q 1553 4972 1653 4928 
Q 1753 4884 1869 4781 
L 2047 4609 
Q 2116 4547 2167 4517 
Q 2219 4488 2259 4488 
Q 2378 4488 2434 4602 
Q 2491 4716 2497 4972 
L 2888 4972 
Q 2881 4550 2722 4320 
Q 2563 4091 2278 4091 
Q 2159 4091 2059 4134 
Q 1959 4178 1844 4281 
z
" transform="scale(0.015625)"/>
      <path id="DejaVuSans-70" d="M 1159 525 
L 1159 -1331 
L 581 -1331 
L 581 3500 
L 1159 3500 
L 1159 2969 
Q 1341 3281 1617 3432 
Q 1894 3584 2278 3584 
Q 2916 3584 3314 3078 
Q 3713 2572 3713 1747 
Q 3713 922 3314 415 
Q 2916 -91 2278 -91 
Q 1894 -91 1617 61 
Q 1341 213 1159 525 
z
M 3116 1747 
Q 3116 2381 2855 2742 
Q 2594 3103 2138 3103 
Q 1681 3103 1420 2742 
Q 1159 2381 1159 1747 
Q 1159 1113 1420 752 
Q 1681 391 2138 391 
Q 2594 391 2855 752 
Q 3116 1113 3116 1747 
z
" transform="scale(0.015625)"/>
      <path id="DejaVuSans-68" d="M 3513 2113 
L 3513 0 
L 2938 0 
L 2938 2094 
Q 2938 2591 2744 2837 
Q 2550 3084 2163 3084 
Q 1697 3084 1428 2787 
Q 1159 2491 1159 1978 
L 1159 0 
L 581 0 
L 581 4863 
L 1159 4863 
L 1159 2956 
Q 1366 3272 1645 3428 
Q 1925 3584 2291 3584 
Q 2894 3584 3203 3211 
Q 3513 2838 3513 2113 
z
" transform="scale(0.015625)"/>
      <path id="DejaVuSans-e0" d="M 2194 1759 
Q 1497 1759 1228 1600 
Q 959 1441 959 1056 
Q 959 750 1161 570 
Q 1363 391 1709 391 
Q 2188 391 2477 730 
Q 2766 1069 2766 1631 
L 2766 1759 
L 2194 1759 
z
M 3341 1997 
L 3341 0 
L 2766 0 
L 2766 531 
Q 2569 213 2275 61 
Q 1981 -91 1556 -91 
Q 1019 -91 701 211 
Q 384 513 384 1019 
Q 384 1609 779 1909 
Q 1175 2209 1959 2209 
L 2766 2209 
L 2766 2266 
Q 2766 2663 2505 2880 
Q 2244 3097 1772 3097 
Q 1472 3097 1187 3025 
Q 903 2953 641 2809 
L 641 3341 
Q 956 3463 1253 3523 
Q 1550 3584 1831 3584 
Q 2591 3584 2966 3190 
Q 3341 2797 3341 1997 
z
M 1403 5119 
L 2284 3950 
L 1806 3950 
L 788 5119 
L 1403 5119 
z
" transform="scale(0.015625)"/>
      <path id="DejaVuSans-66" d="M 2375 4863 
L 2375 4384 
L 1825 4384 
Q 1516 4384 1395 4259 
Q 1275 4134 1275 3809 
L 1275 3500 
L 2222 3500 
L 2222 3053 
L 1275 3053 
L 1275 0 
L 697 0 
L 697 3053 
L 147 3053 
L 147 3500 
L 697 3500 
L 697 3744 
Q 697 4328 969 4595 
Q 1241 4863 1831 4863 
L 2375 4863 
z
" transform="scale(0.015625)"/>
     </defs>
     <use xlink:href="#DejaVuSans-50"/>
     <use xlink:href="#DejaVuSans-72" x="58.552734"/>
     <use xlink:href="#DejaVuSans-65" x="97.416016"/>
     <use xlink:href="#DejaVuSans-76" x="158.939453"/>
     <use xlink:href="#DejaVuSans-69" x="218.119141"/>
     <use xlink:href="#DejaVuSans-73" x="245.902344"/>
     <use xlink:href="#DejaVuSans-e3" x="298.001953"/>
     <use xlink:href="#DejaVuSans-6f" x="359.28125"/>
     <use xlink:href="#DejaVuSans-20" x="420.462891"/>
     <use xlink:href="#DejaVuSans-64" x="452.25"/>
     <use xlink:href="#DejaVuSans-6f" x="515.726562"/>
     <use xlink:href="#DejaVuSans-20" x="576.908203"/>
     <use xlink:href="#DejaVuSans-76" x="608.695312"/>
     <use xlink:href="#DejaVuSans-65" x="667.875"/>
     <use xlink:href="#DejaVuSans-6e" x="729.398438"/>
     <use xlink:href="#DejaVuSans-74" x="792.777344"/>
     <use xlink:href="#DejaVuSans-6f" x="831.986328"/>
     <use xlink:href="#DejaVuSans-20" x="893.167969"/>
     <use xlink:href="#DejaVuSans-70" x="924.955078"/>
     <use xlink:href="#DejaVuSans-61" x="988.431641"/>
     <use xlink:href="#DejaVuSans-72" x="1049.710938"/>
     <use xlink:href="#DejaVuSans-61" x="1090.824219"/>
     <use xlink:href="#DejaVuSans-20" x="1152.103516"/>
     <use xlink:href="#DejaVuSans-31" x="1183.890625"/>
     <use xlink:href="#DejaVuSans-20" x="1247.513672"/>
     <use xlink:href="#DejaVuSans-68" x="1279.300781"/>
     <use xlink:href="#DejaVuSans-6f" x="1342.679688"/>
     <use xlink:href="#DejaVuSans-72" x="1403.861328"/>
     <use xlink:href="#DejaVuSans-61" x="1444.974609"/>
     <use xlink:href="#DejaVuSans-28" x="1506.253906"/>
     <use xlink:href="#DejaVuSans-73" x="1545.267578"/>
     <use xlink:href="#DejaVuSans-29" x="1597.367188"/>
     <use xlink:href="#DejaVuSans-20" x="1636.380859"/>
     <use xlink:href="#DejaVuSans-e0" x="1668.167969"/>
     <use xlink:href="#DejaVuSans-20" x="1729.447266"/>
     <use xlink:href="#DejaVuSans-66" x="1761.234375"/>
     <use xlink:href="#DejaVuSans-72" x="1796.439453"/>
     <use xlink:href="#DejaVuSans-65" x="1835.302734"/>
     <use xlink:href="#DejaVuSans-6e" x="1896.826172"/>
     <use xlink:href="#DejaVuSans-74" x="1960.205078"/>
     <use xlink:href="#DejaVuSans-65" x="1999.414062"/>
     <use xlink:href="#DejaVuSans-20" x="2060.9375"/>
     <use xlink:href="#DejaVuSans-63" x="2092.724609"/>
     <use xlink:href="#DejaVuSans-6f" x="2147.705078"/>
     <use xlink:href="#DejaVuSans-6d" x="2208.886719"/>
     <use xlink:href="#DejaVuSans-20" x="2306.298828"/>
     <use xlink:href="#DejaVuSans-38" x="2338.085938"/>
     <use xlink:href="#DejaVuSans-20" x="2401.708984"/>
     <use xlink:href="#DejaVuSans-63" x="2433.496094"/>
     <use xlink:href="#DejaVuSans-61" x="2488.476562"/>
     <use xlink:href="#DejaVuSans-6d" x="2549.755859"/>
     <use xlink:href="#DejaVuSans-61" x="2647.167969"/>
     <use xlink:href="#DejaVuSans-64" x="2708.447266"/>
     <use xlink:href="#DejaVuSans-61" x="2771.923828"/>
     <use xlink:href="#DejaVuSans-73" x="2833.203125"/>
    </g>
   </g>
   <g id="legend_1">
    <g id="patch_7">
     <path d="M 1217.86875 80.55625 
L 1289 80.55625 
Q 1291 80.55625 1291 78.55625 
L 1291 50.2 
Q 1291 48.2 1289 48.2 
L 1217.86875 48.2 
Q 1215.86875 48.2 1215.86875 50.2 
L 1215.86875 78.55625 
Q 1215.86875 80.55625 1217.86875 80.55625 
z
" style="fill: #ffffff; opacity: 0.8; stroke: #cccccc; stroke-linejoin: miter"/>
    </g>
    <g id="line2d_19">
     <path d="M 1219.86875 56.298437 
L 1229.86875 56.298437 
L 1239.86875 56.298437 
" style="fill: none; stroke: #0000ff; stroke-width: 1.5; stroke-linecap: square"/>
    </g>
    <g id="text_20">
     <!-- Predito -->
     <g transform="translate(1247.86875 59.798437) scale(0.1 -0.1)">
      <use xlink:href="#DejaVuSans-50"/>
      <use xlink:href="#DejaVuSans-72" x="58.552734"/>
      <use xlink:href="#DejaVuSans-65" x="97.416016"/>
      <use xlink:href="#DejaVuSans-64" x="158.939453"/>
      <use xlink:href="#DejaVuSans-69" x="222.416016"/>
      <use xlink:href="#DejaVuSans-74" x="250.199219"/>
      <use xlink:href="#DejaVuSans-6f" x="289.408203"/>
     </g>
    </g>
    <g id="line2d_20">
     <path d="M 1219.86875 70.976562 
L 1229.86875 70.976562 
L 1239.86875 70.976562 
" style="fill: none; stroke: #ffa500; stroke-width: 1.5; stroke-linecap: square"/>
    </g>
    <g id="text_21">
     <!-- Original -->
     <g transform="translate(1247.86875 74.476562) scale(0.1 -0.1)">
      <defs>
       <path id="DejaVuSans-4f" d="M 2522 4238 
Q 1834 4238 1429 3725 
Q 1025 3213 1025 2328 
Q 1025 1447 1429 934 
Q 1834 422 2522 422 
Q 3209 422 3611 934 
Q 4013 1447 4013 2328 
Q 4013 3213 3611 3725 
Q 3209 4238 2522 4238 
z
M 2522 4750 
Q 3503 4750 4090 4092 
Q 4678 3434 4678 2328 
Q 4678 1225 4090 567 
Q 3503 -91 2522 -91 
Q 1538 -91 948 565 
Q 359 1222 359 2328 
Q 359 3434 948 4092 
Q 1538 4750 2522 4750 
z
" transform="scale(0.015625)"/>
       <path id="DejaVuSans-67" d="M 2906 1791 
Q 2906 2416 2648 2759 
Q 2391 3103 1925 3103 
Q 1463 3103 1205 2759 
Q 947 2416 947 1791 
Q 947 1169 1205 825 
Q 1463 481 1925 481 
Q 2391 481 2648 825 
Q 2906 1169 2906 1791 
z
M 3481 434 
Q 3481 -459 3084 -895 
Q 2688 -1331 1869 -1331 
Q 1566 -1331 1297 -1286 
Q 1028 -1241 775 -1147 
L 775 -588 
Q 1028 -725 1275 -790 
Q 1522 -856 1778 -856 
Q 2344 -856 2625 -561 
Q 2906 -266 2906 331 
L 2906 616 
Q 2728 306 2450 153 
Q 2172 0 1784 0 
Q 1141 0 747 490 
Q 353 981 353 1791 
Q 353 2603 747 3093 
Q 1141 3584 1784 3584 
Q 2172 3584 2450 3431 
Q 2728 3278 2906 2969 
L 2906 3500 
L 3481 3500 
L 3481 434 
z
" transform="scale(0.015625)"/>
      </defs>
      <use xlink:href="#DejaVuSans-4f"/>
      <use xlink:href="#DejaVuSans-72" x="78.710938"/>
      <use xlink:href="#DejaVuSans-69" x="119.824219"/>
      <use xlink:href="#DejaVuSans-67" x="147.607422"/>
      <use xlink:href="#DejaVuSans-69" x="211.083984"/>
      <use xlink:href="#DejaVuSans-6e" x="238.867188"/>
      <use xlink:href="#DejaVuSans-61" x="302.246094"/>
      <use xlink:href="#DejaVuSans-6c" x="363.525391"/>
     </g>
    </g>
   </g>
  </g>
 </g>
 <defs>
  <clipPath id="p4b57187329">
   <rect x="180" y="43.2" width="1116" height="277.2"/>
  </clipPath>
 </defs>
</svg>
