<?xml version="1.0" encoding="utf-8" standalone="no"?>
<!DOCTYPE svg PUBLIC "-//W3C//DTD SVG 1.1//EN"
  "http://www.w3.org/Graphics/SVG/1.1/DTD/svg11.dtd">
<svg xmlns:xlink="http://www.w3.org/1999/xlink" width="1440pt" height="360pt" viewBox="0 0 1440 360" xmlns="http://www.w3.org/2000/svg" version="1.1">
 <metadata>
  <rdf:RDF xmlns:dc="http://purl.org/dc/elements/1.1/" xmlns:cc="http://creativecommons.org/ns#" xmlns:rdf="http://www.w3.org/1999/02/22-rdf-syntax-ns#">
   <cc:Work>
    <dc:type rdf:resource="http://purl.org/dc/dcmitype/StillImage"/>
    <dc:date>2023-08-20T14:28:21.034054</dc:date>
    <dc:format>image/svg+xml</dc:format>
    <dc:creator>
     <cc:Agent>
      <dc:title>Matplotlib v3.7.1, https://matplotlib.org/</dc:title>
     </cc:Agent>
    </dc:creator>
   </cc:Work>
  </rdf:RDF>
 </metadata>
 <defs>
  <style type="text/css">*{stroke-linejoin: round; stroke-linecap: butt}</style>
 </defs>
 <g id="figure_1">
  <g id="patch_1">
   <path d="M 0 360 
L 1440 360 
L 1440 0 
L 0 0 
z
" style="fill: #ffffff"/>
  </g>
  <g id="axes_1">
   <g id="patch_2">
    <path d="M 180 320.4 
L 1296 320.4 
L 1296 43.2 
L 180 43.2 
z
" style="fill: #ffffff"/>
   </g>
   <g id="PolyCollection_1">
    <defs>
     <path id="m5287c6c56e" d="M 230.727273 -264.618587 
L 230.727273 -182.046114 
L 236.066986 -164.88502 
L 241.406699 -159.668193 
L 246.746411 -168.062335 
L 252.086124 -153.619539 
L 257.425837 -151.054925 
L 262.76555 -150.368397 
L 268.105263 -151.807055 
L 273.444976 -150.284668 
L 278.784689 -141.116665 
L 284.124402 -121.488701 
L 289.464115 -111.927978 
L 294.803828 -56.568364 
L 300.143541 -73.827281 
L 305.483254 -65.21884 
L 310.822967 -53.151648 
L 316.162679 -54.749716 
L 321.502392 -53.326215 
L 326.842105 -52.2 
L 332.181818 -60.959449 
L 337.521531 -87.189697 
L 342.861244 -101.206607 
L 348.200957 -140.993793 
L 353.54067 -171.356331 
L 358.880383 -188.223635 
L 364.220096 -199.304853 
L 369.559809 -198.870331 
L 374.899522 -196.446823 
L 380.239234 -197.094582 
L 385.578947 -180.007743 
L 390.91866 -164.552033 
L 396.258373 -140.711439 
L 401.598086 -134.265427 
L 406.937799 -130.2322 
L 412.277512 -132.265789 
L 417.617225 -138.273765 
L 422.956938 -112.976565 
L 428.296651 -96.985254 
L 433.636364 -105.106436 
L 438.976077 -112.341081 
L 444.315789 -121.341448 
L 449.655502 -129.116092 
L 454.995215 -108.799976 
L 460.334928 -99.073928 
L 465.674641 -109.765629 
L 471.014354 -114.918496 
L 476.354067 -127.289942 
L 481.69378 -149.673591 
L 487.033493 -197.898719 
L 492.373206 -212.217787 
L 497.712919 -208.325809 
L 503.052632 -197.386303 
L 508.392344 -188.047578 
L 513.732057 -188.478317 
L 519.07177 -183.35016 
L 524.411483 -173.469474 
L 529.751196 -154.133632 
L 535.090909 -157.662507 
L 540.430622 -138.467485 
L 545.770335 -126.102077 
L 551.110048 -100.242132 
L 556.449761 -98.939816 
L 561.789474 -98.855383 
L 567.129187 -105.220691 
L 572.4689 -96.780259 
L 577.808612 -94.056038 
L 583.148325 -68.322301 
L 588.488038 -97.706706 
L 593.827751 -110.832022 
L 599.167464 -125.647975 
L 604.507177 -168.865865 
L 609.84689 -196.349107 
L 615.186603 -206.390185 
L 620.526316 -210.084751 
L 625.866029 -206.694127 
L 631.205742 -199.762461 
L 636.545455 -194.161352 
L 641.885167 -191.823089 
L 647.22488 -174.28098 
L 652.564593 -168.700603 
L 657.904306 -158.031801 
L 663.244019 -141.577253 
L 668.583732 -142.242871 
L 673.923445 -133.025466 
L 679.263158 -116.20231 
L 684.602871 -120.663243 
L 689.942584 -123.616108 
L 695.282297 -117.363128 
L 700.62201 -124.56871 
L 705.961722 -110.812254 
L 711.301435 -94.77733 
L 716.641148 -79.772564 
L 721.980861 -99.947324 
L 727.320574 -111.423519 
L 732.660287 -164.937366 
L 738 -195.913248 
L 743.339713 -200.823653 
L 748.679426 -203.116029 
L 754.019139 -203.731781 
L 759.358852 -201.776478 
L 764.698565 -195.596817 
L 770.038278 -190.129232 
L 775.37799 -180.991398 
L 780.717703 -151.078243 
L 786.057416 -135.565744 
L 791.397129 -136.605884 
L 796.736842 -142.158625 
L 802.076555 -135.582854 
L 807.416268 -87.640624 
L 812.755981 -66.42038 
L 818.095694 -77.965289 
L 823.435407 -65.448759 
L 828.77512 -67.951285 
L 834.114833 -78.709748 
L 839.454545 -78.276065 
L 844.794258 -62.564824 
L 850.133971 -76.050504 
L 855.473684 -100.882371 
L 860.813397 -116.993842 
L 866.15311 -155.289454 
L 871.492823 -187.625991 
L 876.832536 -197.326964 
L 882.172249 -188.131521 
L 887.511962 -187.464921 
L 892.851675 -182.924131 
L 898.191388 -174.370685 
L 903.5311 -156.975194 
L 908.870813 -143.786703 
L 914.210526 -151.083917 
L 919.550239 -140.104964 
L 924.889952 -133.074886 
L 930.229665 -131.725166 
L 935.569378 -118.677022 
L 940.909091 -132.674191 
L 946.248804 -115.782285 
L 951.588517 -108.438282 
L 956.92823 -117.01113 
L 962.267943 -108.421146 
L 967.607656 -96.303097 
L 972.947368 -79.938692 
L 978.287081 -87.959972 
L 983.626794 -110.056377 
L 988.966507 -147.581911 
L 994.30622 -175.797157 
L 999.645933 -183.639651 
L 1004.985646 -173.751186 
L 1010.325359 -179.128067 
L 1015.665072 -176.073249 
L 1021.004785 -169.453553 
L 1026.344498 -162.001781 
L 1031.684211 -145.559954 
L 1037.023923 -136.005547 
L 1042.363636 -140.710529 
L 1047.703349 -123.367785 
L 1053.043062 -115.508075 
L 1058.382775 -124.819378 
L 1063.722488 -80.3377 
L 1069.062201 -86.393107 
L 1074.401914 -76.088372 
L 1079.741627 -56.357883 
L 1085.08134 -61.002277 
L 1090.421053 -59.279739 
L 1095.760766 -71.458751 
L 1101.100478 -96.814166 
L 1106.440191 -76.401172 
L 1111.779904 -70.51622 
L 1117.119617 -100.538224 
L 1122.45933 -117.330139 
L 1127.799043 -144.493445 
L 1133.138756 -171.192193 
L 1138.478469 -177.919988 
L 1143.818182 -178.777649 
L 1149.157895 -173.89636 
L 1154.497608 -173.089386 
L 1159.837321 -163.953818 
L 1165.177033 -153.785622 
L 1170.516746 -148.27727 
L 1175.856459 -131.774907 
L 1181.196172 -121.374606 
L 1186.535885 -130.878264 
L 1191.875598 -138.983986 
L 1197.215311 -130.144956 
L 1202.555024 -116.717465 
L 1207.894737 -111.260647 
L 1213.23445 -94.685814 
L 1218.574163 -88.700103 
L 1223.913876 -74.464532 
L 1229.253589 -69.005876 
L 1234.593301 -75.769256 
L 1239.933014 -117.181665 
L 1245.272727 -160.859625 
L 1245.272727 -243.432098 
L 1245.272727 -243.432098 
L 1239.933014 -199.754147 
L 1234.593301 -158.341729 
L 1229.253589 -151.578349 
L 1223.913876 -157.037005 
L 1218.574163 -171.272585 
L 1213.23445 -177.258295 
L 1207.894737 -193.833128 
L 1202.555024 -199.289938 
L 1197.215311 -212.717429 
L 1191.875598 -221.556459 
L 1186.535885 -213.450737 
L 1181.196172 -203.94707 
L 1175.856459 -214.34738 
L 1170.516746 -230.849742 
L 1165.177033 -236.358095 
L 1159.837321 -246.526291 
L 1154.497608 -255.661859 
L 1149.157895 -256.468832 
L 1143.818182 -261.350121 
L 1138.478469 -260.492461 
L 1133.138756 -253.764665 
L 1127.799043 -227.065917 
L 1122.45933 -199.902621 
L 1117.119617 -183.110696 
L 1111.779904 -153.088693 
L 1106.440191 -158.973645 
L 1101.100478 -179.386639 
L 1095.760766 -154.031223 
L 1090.421053 -141.852212 
L 1085.08134 -143.57475 
L 1079.741627 -138.930356 
L 1074.401914 -158.660845 
L 1069.062201 -168.96558 
L 1063.722488 -162.910173 
L 1058.382775 -207.391842 
L 1053.043062 -198.080539 
L 1047.703349 -205.940249 
L 1042.363636 -223.283002 
L 1037.023923 -218.578019 
L 1031.684211 -228.132426 
L 1026.344498 -244.574254 
L 1021.004785 -252.026026 
L 1015.665072 -258.645722 
L 1010.325359 -261.700539 
L 1004.985646 -256.323659 
L 999.645933 -266.212124 
L 994.30622 -258.36963 
L 988.966507 -230.154383 
L 983.626794 -192.62885 
L 978.287081 -170.532444 
L 972.947368 -162.511164 
L 967.607656 -178.875561 
L 962.267943 -190.993618 
L 956.92823 -199.583603 
L 951.588517 -191.010763 
L 946.248804 -198.354757 
L 940.909091 -215.246664 
L 935.569378 -201.249486 
L 930.229665 -214.297639 
L 924.889952 -215.647358 
L 919.550239 -222.677437 
L 914.210526 -233.656389 
L 908.870813 -226.359175 
L 903.5311 -239.547666 
L 898.191388 -256.943158 
L 892.851675 -265.496604 
L 887.511962 -270.037394 
L 882.172249 -270.703993 
L 876.832536 -279.899436 
L 871.492823 -270.198464 
L 866.15311 -237.861926 
L 860.813397 -199.566315 
L 855.473684 -183.454852 
L 850.133971 -158.622977 
L 844.794258 -145.137296 
L 839.454545 -160.848537 
L 834.114833 -161.28222 
L 828.77512 -150.523758 
L 823.435407 -148.021231 
L 818.095694 -160.537762 
L 812.755981 -148.992852 
L 807.416268 -170.213105 
L 802.076555 -218.155326 
L 796.736842 -224.731098 
L 791.397129 -219.178357 
L 786.057416 -218.138217 
L 780.717703 -233.650716 
L 775.37799 -263.563871 
L 770.038278 -272.701704 
L 764.698565 -278.169289 
L 759.358852 -284.348951 
L 754.019139 -286.304253 
L 748.679426 -285.688501 
L 743.339713 -283.396126 
L 738 -278.48572 
L 732.660287 -247.509839 
L 727.320574 -193.995983 
L 721.980861 -182.519797 
L 716.641148 -162.345036 
L 711.301435 -177.349802 
L 705.961722 -193.384727 
L 700.62201 -207.141173 
L 695.282297 -199.935591 
L 689.942584 -206.18858 
L 684.602871 -203.235707 
L 679.263158 -198.774774 
L 673.923445 -215.597938 
L 668.583732 -224.815344 
L 663.244019 -224.149725 
L 657.904306 -240.604274 
L 652.564593 -251.273075 
L 647.22488 -256.853452 
L 641.885167 -274.395562 
L 636.545455 -276.733825 
L 631.205742 -282.334933 
L 625.866029 -289.2666 
L 620.526316 -292.657224 
L 615.186603 -288.962658 
L 609.84689 -278.92158 
L 604.507177 -251.438338 
L 599.167464 -208.220457 
L 593.827751 -193.404495 
L 588.488038 -180.279179 
L 583.148325 -150.894774 
L 577.808612 -176.628502 
L 572.4689 -179.352741 
L 567.129187 -187.793163 
L 561.789474 -181.427846 
L 556.449761 -181.512289 
L 551.110048 -182.814604 
L 545.770335 -208.67455 
L 540.430622 -221.039957 
L 535.090909 -240.234979 
L 529.751196 -236.706104 
L 524.411483 -256.041947 
L 519.07177 -265.922633 
L 513.732057 -271.05079 
L 508.392344 -270.620051 
L 503.052632 -279.958776 
L 497.712919 -290.898281 
L 492.373206 -294.79026 
L 487.033493 -280.471192 
L 481.69378 -232.246063 
L 476.354067 -209.862415 
L 471.014354 -197.490959 
L 465.674641 -192.33811 
L 460.334928 -181.646401 
L 454.995215 -191.37244 
L 449.655502 -211.688565 
L 444.315789 -203.913921 
L 438.976077 -194.913554 
L 433.636364 -187.678908 
L 428.296651 -179.557736 
L 422.956938 -195.549038 
L 417.617225 -220.846238 
L 412.277512 -214.838262 
L 406.937799 -212.804672 
L 401.598086 -216.837899 
L 396.258373 -223.283912 
L 390.91866 -247.124505 
L 385.578947 -262.580216 
L 380.239234 -279.667055 
L 374.899522 -279.019296 
L 369.559809 -281.442804 
L 364.220096 -281.877325 
L 358.880383 -270.796107 
L 353.54067 -253.928804 
L 348.200957 -223.566266 
L 342.861244 -183.77908 
L 337.521531 -169.76217 
L 332.181818 -143.531922 
L 326.842105 -134.772473 
L 321.502392 -135.898687 
L 316.162679 -137.322189 
L 310.822967 -135.72412 
L 305.483254 -147.791312 
L 300.143541 -156.399754 
L 294.803828 -139.140837 
L 289.464115 -194.500459 
L 284.124402 -204.061182 
L 278.784689 -223.689138 
L 273.444976 -232.857141 
L 268.105263 -234.379527 
L 262.76555 -232.940869 
L 257.425837 -233.627397 
L 252.086124 -236.192011 
L 246.746411 -250.634808 
L 241.406699 -242.240665 
L 236.066986 -247.457493 
L 230.727273 -264.618587 
z
" style="stroke: #0000ff; stroke-opacity: 0.05"/>
    </defs>
    <g clip-path="url(#p0362ab8226)">
     <use xlink:href="#m5287c6c56e" x="0" y="360" style="fill: #0000ff; fill-opacity: 0.05; stroke: #0000ff; stroke-opacity: 0.05"/>
    </g>
   </g>
   <g id="matplotlib.axis_1">
    <g id="xtick_1">
     <g id="line2d_1">
      <defs>
       <path id="md3e91869fb" d="M 0 0 
L 0 3.5 
" style="stroke: #000000; stroke-width: 0.8"/>
      </defs>
      <g>
       <use xlink:href="#md3e91869fb" x="230.727273" y="320.4" style="stroke: #000000; stroke-width: 0.8"/>
      </g>
     </g>
     <g id="text_1">
      <!-- 0 -->
      <g transform="translate(227.546023 334.998438) scale(0.1 -0.1)">
       <defs>
        <path id="DejaVuSans-30" d="M 2034 4250 
Q 1547 4250 1301 3770 
Q 1056 3291 1056 2328 
Q 1056 1369 1301 889 
Q 1547 409 2034 409 
Q 2525 409 2770 889 
Q 3016 1369 3016 2328 
Q 3016 3291 2770 3770 
Q 2525 4250 2034 4250 
z
M 2034 4750 
Q 2819 4750 3233 4129 
Q 3647 3509 3647 2328 
Q 3647 1150 3233 529 
Q 2819 -91 2034 -91 
Q 1250 -91 836 529 
Q 422 1150 422 2328 
Q 422 3509 836 4129 
Q 1250 4750 2034 4750 
z
" transform="scale(0.015625)"/>
       </defs>
       <use xlink:href="#DejaVuSans-30"/>
      </g>
     </g>
    </g>
    <g id="xtick_2">
     <g id="line2d_2">
      <g>
       <use xlink:href="#md3e91869fb" x="364.220096" y="320.4" style="stroke: #000000; stroke-width: 0.8"/>
      </g>
     </g>
     <g id="text_2">
      <!-- 25 -->
      <g transform="translate(357.857596 334.998438) scale(0.1 -0.1)">
       <defs>
        <path id="DejaVuSans-32" d="M 1228 531 
L 3431 531 
L 3431 0 
L 469 0 
L 469 531 
Q 828 903 1448 1529 
Q 2069 2156 2228 2338 
Q 2531 2678 2651 2914 
Q 2772 3150 2772 3378 
Q 2772 3750 2511 3984 
Q 2250 4219 1831 4219 
Q 1534 4219 1204 4116 
Q 875 4013 500 3803 
L 500 4441 
Q 881 4594 1212 4672 
Q 1544 4750 1819 4750 
Q 2544 4750 2975 4387 
Q 3406 4025 3406 3419 
Q 3406 3131 3298 2873 
Q 3191 2616 2906 2266 
Q 2828 2175 2409 1742 
Q 1991 1309 1228 531 
z
" transform="scale(0.015625)"/>
        <path id="DejaVuSans-35" d="M 691 4666 
L 3169 4666 
L 3169 4134 
L 1269 4134 
L 1269 2991 
Q 1406 3038 1543 3061 
Q 1681 3084 1819 3084 
Q 2600 3084 3056 2656 
Q 3513 2228 3513 1497 
Q 3513 744 3044 326 
Q 2575 -91 1722 -91 
Q 1428 -91 1123 -41 
Q 819 9 494 109 
L 494 744 
Q 775 591 1075 516 
Q 1375 441 1709 441 
Q 2250 441 2565 725 
Q 2881 1009 2881 1497 
Q 2881 1984 2565 2268 
Q 2250 2553 1709 2553 
Q 1456 2553 1204 2497 
Q 953 2441 691 2322 
L 691 4666 
z
" transform="scale(0.015625)"/>
       </defs>
       <use xlink:href="#DejaVuSans-32"/>
       <use xlink:href="#DejaVuSans-35" x="63.623047"/>
      </g>
     </g>
    </g>
    <g id="xtick_3">
     <g id="line2d_3">
      <g>
       <use xlink:href="#md3e91869fb" x="497.712919" y="320.4" style="stroke: #000000; stroke-width: 0.8"/>
      </g>
     </g>
     <g id="text_3">
      <!-- 50 -->
      <g transform="translate(491.350419 334.998438) scale(0.1 -0.1)">
       <use xlink:href="#DejaVuSans-35"/>
       <use xlink:href="#DejaVuSans-30" x="63.623047"/>
      </g>
     </g>
    </g>
    <g id="xtick_4">
     <g id="line2d_4">
      <g>
       <use xlink:href="#md3e91869fb" x="631.205742" y="320.4" style="stroke: #000000; stroke-width: 0.8"/>
      </g>
     </g>
     <g id="text_4">
      <!-- 75 -->
      <g transform="translate(624.843242 334.998438) scale(0.1 -0.1)">
       <defs>
        <path id="DejaVuSans-37" d="M 525 4666 
L 3525 4666 
L 3525 4397 
L 1831 0 
L 1172 0 
L 2766 4134 
L 525 4134 
L 525 4666 
z
" transform="scale(0.015625)"/>
       </defs>
       <use xlink:href="#DejaVuSans-37"/>
       <use xlink:href="#DejaVuSans-35" x="63.623047"/>
      </g>
     </g>
    </g>
    <g id="xtick_5">
     <g id="line2d_5">
      <g>
       <use xlink:href="#md3e91869fb" x="764.698565" y="320.4" style="stroke: #000000; stroke-width: 0.8"/>
      </g>
     </g>
     <g id="text_5">
      <!-- 100 -->
      <g transform="translate(755.154815 334.998438) scale(0.1 -0.1)">
       <defs>
        <path id="DejaVuSans-31" d="M 794 531 
L 1825 531 
L 1825 4091 
L 703 3866 
L 703 4441 
L 1819 4666 
L 2450 4666 
L 2450 531 
L 3481 531 
L 3481 0 
L 794 0 
L 794 531 
z
" transform="scale(0.015625)"/>
       </defs>
       <use xlink:href="#DejaVuSans-31"/>
       <use xlink:href="#DejaVuSans-30" x="63.623047"/>
       <use xlink:href="#DejaVuSans-30" x="127.246094"/>
      </g>
     </g>
    </g>
    <g id="xtick_6">
     <g id="line2d_6">
      <g>
       <use xlink:href="#md3e91869fb" x="898.191388" y="320.4" style="stroke: #000000; stroke-width: 0.8"/>
      </g>
     </g>
     <g id="text_6">
      <!-- 125 -->
      <g transform="translate(888.647638 334.998438) scale(0.1 -0.1)">
       <use xlink:href="#DejaVuSans-31"/>
       <use xlink:href="#DejaVuSans-32" x="63.623047"/>
       <use xlink:href="#DejaVuSans-35" x="127.246094"/>
      </g>
     </g>
    </g>
    <g id="xtick_7">
     <g id="line2d_7">
      <g>
       <use xlink:href="#md3e91869fb" x="1031.684211" y="320.4" style="stroke: #000000; stroke-width: 0.8"/>
      </g>
     </g>
     <g id="text_7">
      <!-- 150 -->
      <g transform="translate(1022.140461 334.998438) scale(0.1 -0.1)">
       <use xlink:href="#DejaVuSans-31"/>
       <use xlink:href="#DejaVuSans-35" x="63.623047"/>
       <use xlink:href="#DejaVuSans-30" x="127.246094"/>
      </g>
     </g>
    </g>
    <g id="xtick_8">
     <g id="line2d_8">
      <g>
       <use xlink:href="#md3e91869fb" x="1165.177033" y="320.4" style="stroke: #000000; stroke-width: 0.8"/>
      </g>
     </g>
     <g id="text_8">
      <!-- 175 -->
      <g transform="translate(1155.633283 334.998438) scale(0.1 -0.1)">
       <use xlink:href="#DejaVuSans-31"/>
       <use xlink:href="#DejaVuSans-37" x="63.623047"/>
       <use xlink:href="#DejaVuSans-35" x="127.246094"/>
      </g>
     </g>
    </g>
    <g id="text_9">
     <!-- Amostras -->
     <g transform="translate(714.360937 348.676562) scale(0.1 -0.1)">
      <defs>
       <path id="DejaVuSans-41" d="M 2188 4044 
L 1331 1722 
L 3047 1722 
L 2188 4044 
z
M 1831 4666 
L 2547 4666 
L 4325 0 
L 3669 0 
L 3244 1197 
L 1141 1197 
L 716 0 
L 50 0 
L 1831 4666 
z
" transform="scale(0.015625)"/>
       <path id="DejaVuSans-6d" d="M 3328 2828 
Q 3544 3216 3844 3400 
Q 4144 3584 4550 3584 
Q 5097 3584 5394 3201 
Q 5691 2819 5691 2113 
L 5691 0 
L 5113 0 
L 5113 2094 
Q 5113 2597 4934 2840 
Q 4756 3084 4391 3084 
Q 3944 3084 3684 2787 
Q 3425 2491 3425 1978 
L 3425 0 
L 2847 0 
L 2847 2094 
Q 2847 2600 2669 2842 
Q 2491 3084 2119 3084 
Q 1678 3084 1418 2786 
Q 1159 2488 1159 1978 
L 1159 0 
L 581 0 
L 581 3500 
L 1159 3500 
L 1159 2956 
Q 1356 3278 1631 3431 
Q 1906 3584 2284 3584 
Q 2666 3584 2933 3390 
Q 3200 3197 3328 2828 
z
" transform="scale(0.015625)"/>
       <path id="DejaVuSans-6f" d="M 1959 3097 
Q 1497 3097 1228 2736 
Q 959 2375 959 1747 
Q 959 1119 1226 758 
Q 1494 397 1959 397 
Q 2419 397 2687 759 
Q 2956 1122 2956 1747 
Q 2956 2369 2687 2733 
Q 2419 3097 1959 3097 
z
M 1959 3584 
Q 2709 3584 3137 3096 
Q 3566 2609 3566 1747 
Q 3566 888 3137 398 
Q 2709 -91 1959 -91 
Q 1206 -91 779 398 
Q 353 888 353 1747 
Q 353 2609 779 3096 
Q 1206 3584 1959 3584 
z
" transform="scale(0.015625)"/>
       <path id="DejaVuSans-73" d="M 2834 3397 
L 2834 2853 
Q 2591 2978 2328 3040 
Q 2066 3103 1784 3103 
Q 1356 3103 1142 2972 
Q 928 2841 928 2578 
Q 928 2378 1081 2264 
Q 1234 2150 1697 2047 
L 1894 2003 
Q 2506 1872 2764 1633 
Q 3022 1394 3022 966 
Q 3022 478 2636 193 
Q 2250 -91 1575 -91 
Q 1294 -91 989 -36 
Q 684 19 347 128 
L 347 722 
Q 666 556 975 473 
Q 1284 391 1588 391 
Q 1994 391 2212 530 
Q 2431 669 2431 922 
Q 2431 1156 2273 1281 
Q 2116 1406 1581 1522 
L 1381 1569 
Q 847 1681 609 1914 
Q 372 2147 372 2553 
Q 372 3047 722 3315 
Q 1072 3584 1716 3584 
Q 2034 3584 2315 3537 
Q 2597 3491 2834 3397 
z
" transform="scale(0.015625)"/>
       <path id="DejaVuSans-74" d="M 1172 4494 
L 1172 3500 
L 2356 3500 
L 2356 3053 
L 1172 3053 
L 1172 1153 
Q 1172 725 1289 603 
Q 1406 481 1766 481 
L 2356 481 
L 2356 0 
L 1766 0 
Q 1100 0 847 248 
Q 594 497 594 1153 
L 594 3053 
L 172 3053 
L 172 3500 
L 594 3500 
L 594 4494 
L 1172 4494 
z
" transform="scale(0.015625)"/>
       <path id="DejaVuSans-72" d="M 2631 2963 
Q 2534 3019 2420 3045 
Q 2306 3072 2169 3072 
Q 1681 3072 1420 2755 
Q 1159 2438 1159 1844 
L 1159 0 
L 581 0 
L 581 3500 
L 1159 3500 
L 1159 2956 
Q 1341 3275 1631 3429 
Q 1922 3584 2338 3584 
Q 2397 3584 2469 3576 
Q 2541 3569 2628 3553 
L 2631 2963 
z
" transform="scale(0.015625)"/>
       <path id="DejaVuSans-61" d="M 2194 1759 
Q 1497 1759 1228 1600 
Q 959 1441 959 1056 
Q 959 750 1161 570 
Q 1363 391 1709 391 
Q 2188 391 2477 730 
Q 2766 1069 2766 1631 
L 2766 1759 
L 2194 1759 
z
M 3341 1997 
L 3341 0 
L 2766 0 
L 2766 531 
Q 2569 213 2275 61 
Q 1981 -91 1556 -91 
Q 1019 -91 701 211 
Q 384 513 384 1019 
Q 384 1609 779 1909 
Q 1175 2209 1959 2209 
L 2766 2209 
L 2766 2266 
Q 2766 2663 2505 2880 
Q 2244 3097 1772 3097 
Q 1472 3097 1187 3025 
Q 903 2953 641 2809 
L 641 3341 
Q 956 3463 1253 3523 
Q 1550 3584 1831 3584 
Q 2591 3584 2966 3190 
Q 3341 2797 3341 1997 
z
" transform="scale(0.015625)"/>
      </defs>
      <use xlink:href="#DejaVuSans-41"/>
      <use xlink:href="#DejaVuSans-6d" x="68.408203"/>
      <use xlink:href="#DejaVuSans-6f" x="165.820312"/>
      <use xlink:href="#DejaVuSans-73" x="227.001953"/>
      <use xlink:href="#DejaVuSans-74" x="279.101562"/>
      <use xlink:href="#DejaVuSans-72" x="318.310547"/>
      <use xlink:href="#DejaVuSans-61" x="359.423828"/>
      <use xlink:href="#DejaVuSans-73" x="420.703125"/>
     </g>
    </g>
   </g>
   <g id="matplotlib.axis_2">
    <g id="ytick_1">
     <g id="line2d_9">
      <defs>
       <path id="m89e75db62e" d="M 0 0 
L -3.5 0 
" style="stroke: #000000; stroke-width: 0.8"/>
      </defs>
      <g>
       <use xlink:href="#m89e75db62e" x="180" y="304.873782" style="stroke: #000000; stroke-width: 0.8"/>
      </g>
     </g>
     <g id="text_10">
      <!-- 2 -->
      <g transform="translate(166.6375 308.673) scale(0.1 -0.1)">
       <use xlink:href="#DejaVuSans-32"/>
      </g>
     </g>
    </g>
    <g id="ytick_2">
     <g id="line2d_10">
      <g>
       <use xlink:href="#m89e75db62e" x="180" y="267.45815" style="stroke: #000000; stroke-width: 0.8"/>
      </g>
     </g>
     <g id="text_11">
      <!-- 4 -->
      <g transform="translate(166.6375 271.257369) scale(0.1 -0.1)">
       <defs>
        <path id="DejaVuSans-34" d="M 2419 4116 
L 825 1625 
L 2419 1625 
L 2419 4116 
z
M 2253 4666 
L 3047 4666 
L 3047 1625 
L 3713 1625 
L 3713 1100 
L 3047 1100 
L 3047 0 
L 2419 0 
L 2419 1100 
L 313 1100 
L 313 1709 
L 2253 4666 
z
" transform="scale(0.015625)"/>
       </defs>
       <use xlink:href="#DejaVuSans-34"/>
      </g>
     </g>
    </g>
    <g id="ytick_3">
     <g id="line2d_11">
      <g>
       <use xlink:href="#m89e75db62e" x="180" y="230.042518" style="stroke: #000000; stroke-width: 0.8"/>
      </g>
     </g>
     <g id="text_12">
      <!-- 6 -->
      <g transform="translate(166.6375 233.841737) scale(0.1 -0.1)">
       <defs>
        <path id="DejaVuSans-36" d="M 2113 2584 
Q 1688 2584 1439 2293 
Q 1191 2003 1191 1497 
Q 1191 994 1439 701 
Q 1688 409 2113 409 
Q 2538 409 2786 701 
Q 3034 994 3034 1497 
Q 3034 2003 2786 2293 
Q 2538 2584 2113 2584 
z
M 3366 4563 
L 3366 3988 
Q 3128 4100 2886 4159 
Q 2644 4219 2406 4219 
Q 1781 4219 1451 3797 
Q 1122 3375 1075 2522 
Q 1259 2794 1537 2939 
Q 1816 3084 2150 3084 
Q 2853 3084 3261 2657 
Q 3669 2231 3669 1497 
Q 3669 778 3244 343 
Q 2819 -91 2113 -91 
Q 1303 -91 875 529 
Q 447 1150 447 2328 
Q 447 3434 972 4092 
Q 1497 4750 2381 4750 
Q 2619 4750 2861 4703 
Q 3103 4656 3366 4563 
z
" transform="scale(0.015625)"/>
       </defs>
       <use xlink:href="#DejaVuSans-36"/>
      </g>
     </g>
    </g>
    <g id="ytick_4">
     <g id="line2d_12">
      <g>
       <use xlink:href="#m89e75db62e" x="180" y="192.626887" style="stroke: #000000; stroke-width: 0.8"/>
      </g>
     </g>
     <g id="text_13">
      <!-- 8 -->
      <g transform="translate(166.6375 196.426106) scale(0.1 -0.1)">
       <defs>
        <path id="DejaVuSans-38" d="M 2034 2216 
Q 1584 2216 1326 1975 
Q 1069 1734 1069 1313 
Q 1069 891 1326 650 
Q 1584 409 2034 409 
Q 2484 409 2743 651 
Q 3003 894 3003 1313 
Q 3003 1734 2745 1975 
Q 2488 2216 2034 2216 
z
M 1403 2484 
Q 997 2584 770 2862 
Q 544 3141 544 3541 
Q 544 4100 942 4425 
Q 1341 4750 2034 4750 
Q 2731 4750 3128 4425 
Q 3525 4100 3525 3541 
Q 3525 3141 3298 2862 
Q 3072 2584 2669 2484 
Q 3125 2378 3379 2068 
Q 3634 1759 3634 1313 
Q 3634 634 3220 271 
Q 2806 -91 2034 -91 
Q 1263 -91 848 271 
Q 434 634 434 1313 
Q 434 1759 690 2068 
Q 947 2378 1403 2484 
z
M 1172 3481 
Q 1172 3119 1398 2916 
Q 1625 2713 2034 2713 
Q 2441 2713 2670 2916 
Q 2900 3119 2900 3481 
Q 2900 3844 2670 4047 
Q 2441 4250 2034 4250 
Q 1625 4250 1398 4047 
Q 1172 3844 1172 3481 
z
" transform="scale(0.015625)"/>
       </defs>
       <use xlink:href="#DejaVuSans-38"/>
      </g>
     </g>
    </g>
    <g id="ytick_5">
     <g id="line2d_13">
      <g>
       <use xlink:href="#m89e75db62e" x="180" y="155.211255" style="stroke: #000000; stroke-width: 0.8"/>
      </g>
     </g>
     <g id="text_14">
      <!-- 10 -->
      <g transform="translate(160.275 159.010474) scale(0.1 -0.1)">
       <use xlink:href="#DejaVuSans-31"/>
       <use xlink:href="#DejaVuSans-30" x="63.623047"/>
      </g>
     </g>
    </g>
    <g id="ytick_6">
     <g id="line2d_14">
      <g>
       <use xlink:href="#m89e75db62e" x="180" y="117.795624" style="stroke: #000000; stroke-width: 0.8"/>
      </g>
     </g>
     <g id="text_15">
      <!-- 12 -->
      <g transform="translate(160.275 121.594843) scale(0.1 -0.1)">
       <use xlink:href="#DejaVuSans-31"/>
       <use xlink:href="#DejaVuSans-32" x="63.623047"/>
      </g>
     </g>
    </g>
    <g id="ytick_7">
     <g id="line2d_15">
      <g>
       <use xlink:href="#m89e75db62e" x="180" y="80.379992" style="stroke: #000000; stroke-width: 0.8"/>
      </g>
     </g>
     <g id="text_16">
      <!-- 14 -->
      <g transform="translate(160.275 84.179211) scale(0.1 -0.1)">
       <use xlink:href="#DejaVuSans-31"/>
       <use xlink:href="#DejaVuSans-34" x="63.623047"/>
      </g>
     </g>
    </g>
    <g id="text_17">
     <!-- Velocidade do Vento (m/s) -->
     <g transform="translate(154.195312 247.344531) rotate(-90) scale(0.1 -0.1)">
      <defs>
       <path id="DejaVuSans-56" d="M 1831 0 
L 50 4666 
L 709 4666 
L 2188 738 
L 3669 4666 
L 4325 4666 
L 2547 0 
L 1831 0 
z
" transform="scale(0.015625)"/>
       <path id="DejaVuSans-65" d="M 3597 1894 
L 3597 1613 
L 953 1613 
Q 991 1019 1311 708 
Q 1631 397 2203 397 
Q 2534 397 2845 478 
Q 3156 559 3463 722 
L 3463 178 
Q 3153 47 2828 -22 
Q 2503 -91 2169 -91 
Q 1331 -91 842 396 
Q 353 884 353 1716 
Q 353 2575 817 3079 
Q 1281 3584 2069 3584 
Q 2775 3584 3186 3129 
Q 3597 2675 3597 1894 
z
M 3022 2063 
Q 3016 2534 2758 2815 
Q 2500 3097 2075 3097 
Q 1594 3097 1305 2825 
Q 1016 2553 972 2059 
L 3022 2063 
z
" transform="scale(0.015625)"/>
       <path id="DejaVuSans-6c" d="M 603 4863 
L 1178 4863 
L 1178 0 
L 603 0 
L 603 4863 
z
" transform="scale(0.015625)"/>
       <path id="DejaVuSans-63" d="M 3122 3366 
L 3122 2828 
Q 2878 2963 2633 3030 
Q 2388 3097 2138 3097 
Q 1578 3097 1268 2742 
Q 959 2388 959 1747 
Q 959 1106 1268 751 
Q 1578 397 2138 397 
Q 2388 397 2633 464 
Q 2878 531 3122 666 
L 3122 134 
Q 2881 22 2623 -34 
Q 2366 -91 2075 -91 
Q 1284 -91 818 406 
Q 353 903 353 1747 
Q 353 2603 823 3093 
Q 1294 3584 2113 3584 
Q 2378 3584 2631 3529 
Q 2884 3475 3122 3366 
z
" transform="scale(0.015625)"/>
       <path id="DejaVuSans-69" d="M 603 3500 
L 1178 3500 
L 1178 0 
L 603 0 
L 603 3500 
z
M 603 4863 
L 1178 4863 
L 1178 4134 
L 603 4134 
L 603 4863 
z
" transform="scale(0.015625)"/>
       <path id="DejaVuSans-64" d="M 2906 2969 
L 2906 4863 
L 3481 4863 
L 3481 0 
L 2906 0 
L 2906 525 
Q 2725 213 2448 61 
Q 2172 -91 1784 -91 
Q 1150 -91 751 415 
Q 353 922 353 1747 
Q 353 2572 751 3078 
Q 1150 3584 1784 3584 
Q 2172 3584 2448 3432 
Q 2725 3281 2906 2969 
z
M 947 1747 
Q 947 1113 1208 752 
Q 1469 391 1925 391 
Q 2381 391 2643 752 
Q 2906 1113 2906 1747 
Q 2906 2381 2643 2742 
Q 2381 3103 1925 3103 
Q 1469 3103 1208 2742 
Q 947 2381 947 1747 
z
" transform="scale(0.015625)"/>
       <path id="DejaVuSans-20" transform="scale(0.015625)"/>
       <path id="DejaVuSans-6e" d="M 3513 2113 
L 3513 0 
L 2938 0 
L 2938 2094 
Q 2938 2591 2744 2837 
Q 2550 3084 2163 3084 
Q 1697 3084 1428 2787 
Q 1159 2491 1159 1978 
L 1159 0 
L 581 0 
L 581 3500 
L 1159 3500 
L 1159 2956 
Q 1366 3272 1645 3428 
Q 1925 3584 2291 3584 
Q 2894 3584 3203 3211 
Q 3513 2838 3513 2113 
z
" transform="scale(0.015625)"/>
       <path id="DejaVuSans-28" d="M 1984 4856 
Q 1566 4138 1362 3434 
Q 1159 2731 1159 2009 
Q 1159 1288 1364 580 
Q 1569 -128 1984 -844 
L 1484 -844 
Q 1016 -109 783 600 
Q 550 1309 550 2009 
Q 550 2706 781 3412 
Q 1013 4119 1484 4856 
L 1984 4856 
z
" transform="scale(0.015625)"/>
       <path id="DejaVuSans-2f" d="M 1625 4666 
L 2156 4666 
L 531 -594 
L 0 -594 
L 1625 4666 
z
" transform="scale(0.015625)"/>
       <path id="DejaVuSans-29" d="M 513 4856 
L 1013 4856 
Q 1481 4119 1714 3412 
Q 1947 2706 1947 2009 
Q 1947 1309 1714 600 
Q 1481 -109 1013 -844 
L 513 -844 
Q 928 -128 1133 580 
Q 1338 1288 1338 2009 
Q 1338 2731 1133 3434 
Q 928 4138 513 4856 
z
" transform="scale(0.015625)"/>
      </defs>
      <use xlink:href="#DejaVuSans-56"/>
      <use xlink:href="#DejaVuSans-65" x="60.658203"/>
      <use xlink:href="#DejaVuSans-6c" x="122.181641"/>
      <use xlink:href="#DejaVuSans-6f" x="149.964844"/>
      <use xlink:href="#DejaVuSans-63" x="211.146484"/>
      <use xlink:href="#DejaVuSans-69" x="266.126953"/>
      <use xlink:href="#DejaVuSans-64" x="293.910156"/>
      <use xlink:href="#DejaVuSans-61" x="357.386719"/>
      <use xlink:href="#DejaVuSans-64" x="418.666016"/>
      <use xlink:href="#DejaVuSans-65" x="482.142578"/>
      <use xlink:href="#DejaVuSans-20" x="543.666016"/>
      <use xlink:href="#DejaVuSans-64" x="575.453125"/>
      <use xlink:href="#DejaVuSans-6f" x="638.929688"/>
      <use xlink:href="#DejaVuSans-20" x="700.111328"/>
      <use xlink:href="#DejaVuSans-56" x="731.898438"/>
      <use xlink:href="#DejaVuSans-65" x="792.556641"/>
      <use xlink:href="#DejaVuSans-6e" x="854.080078"/>
      <use xlink:href="#DejaVuSans-74" x="917.458984"/>
      <use xlink:href="#DejaVuSans-6f" x="956.667969"/>
      <use xlink:href="#DejaVuSans-20" x="1017.849609"/>
      <use xlink:href="#DejaVuSans-28" x="1049.636719"/>
      <use xlink:href="#DejaVuSans-6d" x="1088.650391"/>
      <use xlink:href="#DejaVuSans-2f" x="1186.0625"/>
      <use xlink:href="#DejaVuSans-73" x="1219.753906"/>
      <use xlink:href="#DejaVuSans-29" x="1271.853516"/>
     </g>
    </g>
   </g>
   <g id="line2d_16">
    <path d="M 230.727273 136.66765 
L 236.066986 153.828744 
L 241.406699 159.045571 
L 246.746411 150.651429 
L 252.086124 165.094225 
L 257.425837 167.658839 
L 262.76555 168.345367 
L 268.105263 166.906709 
L 273.444976 168.429095 
L 278.784689 177.597098 
L 284.124402 197.225063 
L 289.464115 206.785786 
L 294.803828 262.145399 
L 300.143541 244.886482 
L 305.483254 253.494924 
L 310.822967 265.562116 
L 316.162679 263.964047 
L 321.502392 265.387549 
L 326.842105 266.513764 
L 332.181818 257.754314 
L 337.521531 231.524067 
L 342.861244 217.507156 
L 348.200957 177.71997 
L 353.54067 147.357432 
L 358.880383 130.490129 
L 364.220096 119.408911 
L 369.559809 119.843433 
L 374.899522 122.26694 
L 380.239234 121.619181 
L 385.578947 138.70602 
L 390.91866 154.161731 
L 396.258373 178.002325 
L 401.598086 184.448337 
L 406.937799 188.481564 
L 412.277512 186.447975 
L 417.617225 180.439999 
L 422.956938 205.737198 
L 428.296651 221.72851 
L 433.636364 213.607328 
L 438.976077 206.372683 
L 444.315789 197.372315 
L 449.655502 189.597671 
L 454.995215 209.913788 
L 460.334928 219.639836 
L 465.674641 208.948135 
L 471.014354 203.795268 
L 476.354067 191.423822 
L 481.69378 169.040173 
L 487.033493 120.815044 
L 492.373206 106.495976 
L 497.712919 110.387955 
L 503.052632 121.327461 
L 508.392344 130.666186 
L 513.732057 130.235446 
L 519.07177 135.363603 
L 524.411483 145.244289 
L 529.751196 164.580132 
L 535.090909 161.051257 
L 540.430622 180.246279 
L 545.770335 192.611686 
L 551.110048 218.471632 
L 556.449761 219.773948 
L 561.789474 219.858381 
L 567.129187 213.493073 
L 572.4689 221.933505 
L 577.808612 224.657725 
L 583.148325 250.391463 
L 588.488038 221.007058 
L 593.827751 207.881742 
L 599.167464 193.065788 
L 604.507177 149.847898 
L 609.84689 122.364657 
L 615.186603 112.323578 
L 620.526316 108.629012 
L 625.866029 112.019636 
L 631.205742 118.951303 
L 636.545455 124.552411 
L 641.885167 126.890674 
L 647.22488 144.432784 
L 652.564593 150.013161 
L 657.904306 160.681963 
L 663.244019 177.136511 
L 668.583732 176.470893 
L 673.923445 185.688298 
L 679.263158 202.511453 
L 684.602871 198.05052 
L 689.942584 195.097656 
L 695.282297 201.350636 
L 700.62201 194.145054 
L 705.961722 207.90151 
L 711.301435 223.936434 
L 716.641148 238.9412 
L 721.980861 218.766439 
L 727.320574 207.290245 
L 732.660287 153.776398 
L 738 122.800516 
L 743.339713 117.890111 
L 748.679426 115.597735 
L 754.019139 114.981983 
L 759.358852 116.937285 
L 764.698565 123.116947 
L 770.038278 128.584532 
L 775.37799 137.722366 
L 780.717703 167.63552 
L 786.057416 183.14802 
L 791.397129 182.10788 
L 796.736842 176.555139 
L 802.076555 183.13091 
L 807.416268 231.07314 
L 812.755981 252.293384 
L 818.095694 240.748474 
L 823.435407 253.265005 
L 828.77512 250.762478 
L 834.114833 240.004016 
L 839.454545 240.437699 
L 844.794258 256.14894 
L 850.133971 242.663259 
L 855.473684 217.831393 
L 860.813397 201.719921 
L 866.15311 163.42431 
L 871.492823 131.087772 
L 876.832536 121.3868 
L 882.172249 130.582243 
L 887.511962 131.248842 
L 892.851675 135.789632 
L 898.191388 144.343079 
L 903.5311 161.73857 
L 908.870813 174.927061 
L 914.210526 167.629847 
L 919.550239 178.608799 
L 924.889952 185.638878 
L 930.229665 186.988598 
L 935.569378 200.036741 
L 940.909091 186.039573 
L 946.248804 202.931479 
L 951.588517 210.275482 
L 956.92823 201.702633 
L 962.267943 210.292618 
L 967.607656 222.410666 
L 972.947368 238.775072 
L 978.287081 230.753792 
L 983.626794 208.657386 
L 988.966507 171.131853 
L 994.30622 142.916606 
L 999.645933 135.074113 
L 1004.985646 144.962577 
L 1010.325359 139.585697 
L 1015.665072 142.640514 
L 1021.004785 149.26021 
L 1026.344498 156.711983 
L 1031.684211 173.15381 
L 1037.023923 182.708217 
L 1042.363636 178.003235 
L 1047.703349 195.345978 
L 1053.043062 203.205689 
L 1058.382775 193.894386 
L 1063.722488 238.376063 
L 1069.062201 232.320657 
L 1074.401914 242.625391 
L 1079.741627 262.355881 
L 1085.08134 257.711487 
L 1090.421053 259.434024 
L 1095.760766 247.255013 
L 1101.100478 221.899597 
L 1106.440191 242.312591 
L 1111.779904 248.197544 
L 1117.119617 218.17554 
L 1122.45933 201.383624 
L 1133.138756 147.521571 
L 1138.478469 140.793776 
L 1143.818182 139.936115 
L 1149.157895 144.817404 
L 1154.497608 145.624378 
L 1159.837321 154.759945 
L 1165.177033 164.928142 
L 1170.516746 170.436494 
L 1175.856459 186.938856 
L 1181.196172 197.339157 
L 1186.535885 187.8355 
L 1191.875598 179.729777 
L 1197.215311 188.568807 
L 1202.555024 201.996299 
L 1207.894737 207.453117 
L 1213.23445 224.02795 
L 1218.574163 230.01366 
L 1223.913876 244.249232 
L 1229.253589 249.707887 
L 1234.593301 242.944507 
L 1239.933014 201.532098 
L 1245.272727 157.854138 
L 1245.272727 157.854138 
" clip-path="url(#p0362ab8226)" style="fill: none; stroke: #0000ff; stroke-width: 1.5; stroke-linecap: square"/>
   </g>
   <g id="line2d_17">
    <path d="M 230.727273 168.89914 
L 236.066986 178.887036 
L 241.406699 161.530339 
L 246.746411 181.017648 
L 252.086124 178.367374 
L 257.425837 174.521878 
L 262.76555 167.90139 
L 268.105263 162.538482 
L 273.444976 170.686776 
L 278.784689 197.064796 
L 284.124402 208.299879 
L 289.464115 229.616396 
L 294.803828 217.757719 
L 300.143541 230.084091 
L 305.483254 246.796407 
L 310.822967 250.227979 
L 316.162679 259.975024 
L 321.502392 270.825557 
L 326.842105 269.058708 
L 332.181818 254.123635 
L 337.521531 242.223385 
L 342.861244 194.393736 
L 348.200957 153.444406 
L 353.54067 125.715266 
L 358.880383 99.701008 
L 364.220096 101.92516 
L 369.559809 102.642293 
L 374.899522 100.490894 
L 380.239234 129.779019 
L 385.578947 149.671664 
L 390.91866 180.705851 
L 396.258373 185.268479 
L 401.598086 186.702745 
L 406.937799 175.239011 
L 412.277512 154.265471 
L 417.617225 175.77946 
L 422.956938 193.738961 
L 428.296651 191.171834 
L 433.636364 188.809626 
L 438.976077 184.456533 
L 444.315789 179.884948 
L 449.655502 203.404667 
L 454.995215 214.535818 
L 460.334928 208.341452 
L 465.674641 215.263344 
L 471.014354 213.143124 
L 476.354067 190.25723 
L 481.69378 125.798412 
L 487.033493 85.316777 
L 492.373206 82.344313 
L 497.712919 101.218419 
L 503.052632 118.117814 
L 508.392344 107.703797 
L 513.732057 102.465608 
L 519.07177 114.438609 
L 524.411483 144.568587 
L 529.751196 129.061886 
L 535.090909 156.146646 
L 540.430622 170.655597 
L 545.770335 186.307803 
L 551.110048 191.327732 
L 556.449761 196.804965 
L 561.789474 196.576315 
L 567.129187 210.97094 
L 572.4689 217.664181 
L 577.808612 252.502291 
L 583.148325 217.934404 
L 588.488038 208.663642 
L 593.827751 206.158874 
L 599.167464 165.282296 
L 604.507177 125.860771 
L 609.84689 97.217026 
L 615.186603 55.8 
L 620.526316 70.662322 
L 625.866029 83.653861 
L 631.205742 103.380213 
L 636.545455 99.409998 
L 641.885167 136.721697 
L 647.22488 134.549512 
L 652.564593 138.291076 
L 657.904306 158.287651 
L 663.244019 146.054819 
L 668.583732 156.136253 
L 673.923445 167.651954 
L 679.263158 167.038752 
L 684.602871 168.161221 
L 689.942584 179.188439 
L 695.282297 174.844069 
L 700.62201 194.175477 
L 705.961722 217.581034 
L 711.301435 232.505714 
L 716.641148 216.936654 
L 721.980861 220.647038 
L 727.320574 163.796064 
L 732.660287 120.217246 
L 738 111.123169 
L 743.339713 97.684721 
L 748.679426 75.235343 
L 754.019139 81.512855 
L 759.358852 90.235817 
L 764.698565 98.734438 
L 770.038278 109.106883 
L 775.37799 162.361798 
L 780.717703 176.610918 
L 786.057416 160.480623 
L 791.397129 134.746983 
L 796.736842 143.518871 
L 802.076555 193.032223 
L 807.416268 247.440787 
L 812.755981 252.834874 
L 818.095694 258.530365 
L 823.435407 247.523933 
L 828.77512 225.012194 
L 834.114833 229.231847 
L 839.454545 250.579543 
L 844.794258 247.664074 
L 850.133971 229.858684 
L 855.473684 213.163911 
L 860.813397 167.911783 
L 866.15311 108.35857 
L 871.492823 83.300491 
L 876.832536 100.968982 
L 882.172249 94.026305 
L 887.511962 93.652148 
L 892.851675 115.737764 
L 898.191388 149.349474 
L 903.5311 169.096612 
L 908.870813 150.846098 
L 914.210526 166.103361 
L 919.550239 169.086219 
L 924.889952 154.941031 
L 930.229665 159.597199 
L 935.569378 148.736272 
L 940.909091 170.520484 
L 946.248804 183.387305 
L 951.588517 178.67917 
L 956.92823 193.437558 
L 962.267943 213.465315 
L 967.607656 237.016377 
L 972.947368 234.480428 
L 978.287081 215.419242 
L 983.626794 172.547164 
L 988.966507 130.68323 
L 994.30622 106.633293 
L 999.645933 137.272538 
L 1004.985646 120.435504 
L 1010.325359 118.107421 
L 1015.665072 132.564405 
L 1021.004785 140.026744 
L 1026.344498 167.859818 
L 1031.684211 184.468201 
L 1037.023923 174.033397 
L 1042.363636 196.62828 
L 1047.703349 202.427704 
L 1053.043062 174.698564 
L 1058.382775 197.023224 
L 1063.722488 197.501313 
L 1069.062201 214.463065 
L 1074.401914 243.969448 
L 1079.741627 242.950912 
L 1085.08134 250.53797 
L 1090.421053 246.827586 
L 1095.760766 215.92851 
L 1101.100478 244.696974 
L 1106.440191 263.415183 
L 1111.779904 231.570323 
L 1117.119617 215.045086 
L 1122.45933 181.47495 
L 1127.799043 131.473116 
L 1133.138756 113.274567 
L 1138.478469 107.080202 
L 1143.818182 113.284961 
L 1149.157895 112.413207 
L 1154.497608 131.500675 
L 1159.837321 133.572548 
L 1165.177033 145.753416 
L 1170.516746 176.174402 
L 1175.856459 190.87043 
L 1181.196172 154.369403 
L 1186.535885 137.812987 
L 1191.875598 150.451156 
L 1197.215311 170.728349 
L 1202.555024 180.924109 
L 1207.894737 203.612532 
L 1213.23445 216.219521 
L 1218.574163 238.575361 
L 1223.913876 246.505396 
L 1229.253589 244.686581 
L 1234.593301 204.402418 
L 1239.933014 147.717736 
L 1245.272727 110.302104 
L 1245.272727 110.302104 
" clip-path="url(#p0362ab8226)" style="fill: none; stroke: #ffa500; stroke-width: 1.5; stroke-linecap: square"/>
   </g>
   <g id="patch_3">
    <path d="M 180 320.4 
L 180 43.2 
" style="fill: none; stroke: #000000; stroke-width: 0.8; stroke-linejoin: miter; stroke-linecap: square"/>
   </g>
   <g id="patch_4">
    <path d="M 1296 320.4 
L 1296 43.2 
" style="fill: none; stroke: #000000; stroke-width: 0.8; stroke-linejoin: miter; stroke-linecap: square"/>
   </g>
   <g id="patch_5">
    <path d="M 180 320.4 
L 1296 320.4 
" style="fill: none; stroke: #000000; stroke-width: 0.8; stroke-linejoin: miter; stroke-linecap: square"/>
   </g>
   <g id="patch_6">
    <path d="M 180 43.2 
L 1296 43.2 
" style="fill: none; stroke: #000000; stroke-width: 0.8; stroke-linejoin: miter; stroke-linecap: square"/>
   </g>
   <g id="text_18">
    <!-- Previsão do vento para 1 hora(s) à frente com 3camadas -->
    <g transform="translate(566.789062 37.2) scale(0.12 -0.12)">
     <defs>
      <path id="DejaVuSans-50" d="M 1259 4147 
L 1259 2394 
L 2053 2394 
Q 2494 2394 2734 2622 
Q 2975 2850 2975 3272 
Q 2975 3691 2734 3919 
Q 2494 4147 2053 4147 
L 1259 4147 
z
M 628 4666 
L 2053 4666 
Q 2838 4666 3239 4311 
Q 3641 3956 3641 3272 
Q 3641 2581 3239 2228 
Q 2838 1875 2053 1875 
L 1259 1875 
L 1259 0 
L 628 0 
L 628 4666 
z
" transform="scale(0.015625)"/>
      <path id="DejaVuSans-76" d="M 191 3500 
L 800 3500 
L 1894 563 
L 2988 3500 
L 3597 3500 
L 2284 0 
L 1503 0 
L 191 3500 
z
" transform="scale(0.015625)"/>
      <path id="DejaVuSans-e3" d="M 2194 1759 
Q 1497 1759 1228 1600 
Q 959 1441 959 1056 
Q 959 750 1161 570 
Q 1363 391 1709 391 
Q 2188 391 2477 730 
Q 2766 1069 2766 1631 
L 2766 1759 
L 2194 1759 
z
M 3341 1997 
L 3341 0 
L 2766 0 
L 2766 531 
Q 2569 213 2275 61 
Q 1981 -91 1556 -91 
Q 1019 -91 701 211 
Q 384 513 384 1019 
Q 384 1609 779 1909 
Q 1175 2209 1959 2209 
L 2766 2209 
L 2766 2266 
Q 2766 2663 2505 2880 
Q 2244 3097 1772 3097 
Q 1472 3097 1187 3025 
Q 903 2953 641 2809 
L 641 3341 
Q 956 3463 1253 3523 
Q 1550 3584 1831 3584 
Q 2591 3584 2966 3190 
Q 3341 2797 3341 1997 
z
M 1844 4281 
L 1666 4453 
Q 1597 4516 1545 4545 
Q 1494 4575 1453 4575 
Q 1334 4575 1278 4461 
Q 1222 4347 1216 4091 
L 825 4091 
Q 831 4513 990 4742 
Q 1150 4972 1434 4972 
Q 1553 4972 1653 4928 
Q 1753 4884 1869 4781 
L 2047 4609 
Q 2116 4547 2167 4517 
Q 2219 4488 2259 4488 
Q 2378 4488 2434 4602 
Q 2491 4716 2497 4972 
L 2888 4972 
Q 2881 4550 2722 4320 
Q 2563 4091 2278 4091 
Q 2159 4091 2059 4134 
Q 1959 4178 1844 4281 
z
" transform="scale(0.015625)"/>
      <path id="DejaVuSans-70" d="M 1159 525 
L 1159 -1331 
L 581 -1331 
L 581 3500 
L 1159 3500 
L 1159 2969 
Q 1341 3281 1617 3432 
Q 1894 3584 2278 3584 
Q 2916 3584 3314 3078 
Q 3713 2572 3713 1747 
Q 3713 922 3314 415 
Q 2916 -91 2278 -91 
Q 1894 -91 1617 61 
Q 1341 213 1159 525 
z
M 3116 1747 
Q 3116 2381 2855 2742 
Q 2594 3103 2138 3103 
Q 1681 3103 1420 2742 
Q 1159 2381 1159 1747 
Q 1159 1113 1420 752 
Q 1681 391 2138 391 
Q 2594 391 2855 752 
Q 3116 1113 3116 1747 
z
" transform="scale(0.015625)"/>
      <path id="DejaVuSans-68" d="M 3513 2113 
L 3513 0 
L 2938 0 
L 2938 2094 
Q 2938 2591 2744 2837 
Q 2550 3084 2163 3084 
Q 1697 3084 1428 2787 
Q 1159 2491 1159 1978 
L 1159 0 
L 581 0 
L 581 4863 
L 1159 4863 
L 1159 2956 
Q 1366 3272 1645 3428 
Q 1925 3584 2291 3584 
Q 2894 3584 3203 3211 
Q 3513 2838 3513 2113 
z
" transform="scale(0.015625)"/>
      <path id="DejaVuSans-e0" d="M 2194 1759 
Q 1497 1759 1228 1600 
Q 959 1441 959 1056 
Q 959 750 1161 570 
Q 1363 391 1709 391 
Q 2188 391 2477 730 
Q 2766 1069 2766 1631 
L 2766 1759 
L 2194 1759 
z
M 3341 1997 
L 3341 0 
L 2766 0 
L 2766 531 
Q 2569 213 2275 61 
Q 1981 -91 1556 -91 
Q 1019 -91 701 211 
Q 384 513 384 1019 
Q 384 1609 779 1909 
Q 1175 2209 1959 2209 
L 2766 2209 
L 2766 2266 
Q 2766 2663 2505 2880 
Q 2244 3097 1772 3097 
Q 1472 3097 1187 3025 
Q 903 2953 641 2809 
L 641 3341 
Q 956 3463 1253 3523 
Q 1550 3584 1831 3584 
Q 2591 3584 2966 3190 
Q 3341 2797 3341 1997 
z
M 1403 5119 
L 2284 3950 
L 1806 3950 
L 788 5119 
L 1403 5119 
z
" transform="scale(0.015625)"/>
      <path id="DejaVuSans-66" d="M 2375 4863 
L 2375 4384 
L 1825 4384 
Q 1516 4384 1395 4259 
Q 1275 4134 1275 3809 
L 1275 3500 
L 2222 3500 
L 2222 3053 
L 1275 3053 
L 1275 0 
L 697 0 
L 697 3053 
L 147 3053 
L 147 3500 
L 697 3500 
L 697 3744 
Q 697 4328 969 4595 
Q 1241 4863 1831 4863 
L 2375 4863 
z
" transform="scale(0.015625)"/>
      <path id="DejaVuSans-33" d="M 2597 2516 
Q 3050 2419 3304 2112 
Q 3559 1806 3559 1356 
Q 3559 666 3084 287 
Q 2609 -91 1734 -91 
Q 1441 -91 1130 -33 
Q 819 25 488 141 
L 488 750 
Q 750 597 1062 519 
Q 1375 441 1716 441 
Q 2309 441 2620 675 
Q 2931 909 2931 1356 
Q 2931 1769 2642 2001 
Q 2353 2234 1838 2234 
L 1294 2234 
L 1294 2753 
L 1863 2753 
Q 2328 2753 2575 2939 
Q 2822 3125 2822 3475 
Q 2822 3834 2567 4026 
Q 2313 4219 1838 4219 
Q 1578 4219 1281 4162 
Q 984 4106 628 3988 
L 628 4550 
Q 988 4650 1302 4700 
Q 1616 4750 1894 4750 
Q 2613 4750 3031 4423 
Q 3450 4097 3450 3541 
Q 3450 3153 3228 2886 
Q 3006 2619 2597 2516 
z
" transform="scale(0.015625)"/>
     </defs>
     <use xlink:href="#DejaVuSans-50"/>
     <use xlink:href="#DejaVuSans-72" x="58.552734"/>
     <use xlink:href="#DejaVuSans-65" x="97.416016"/>
     <use xlink:href="#DejaVuSans-76" x="158.939453"/>
     <use xlink:href="#DejaVuSans-69" x="218.119141"/>
     <use xlink:href="#DejaVuSans-73" x="245.902344"/>
     <use xlink:href="#DejaVuSans-e3" x="298.001953"/>
     <use xlink:href="#DejaVuSans-6f" x="359.28125"/>
     <use xlink:href="#DejaVuSans-20" x="420.462891"/>
     <use xlink:href="#DejaVuSans-64" x="452.25"/>
     <use xlink:href="#DejaVuSans-6f" x="515.726562"/>
     <use xlink:href="#DejaVuSans-20" x="576.908203"/>
     <use xlink:href="#DejaVuSans-76" x="608.695312"/>
     <use xlink:href="#DejaVuSans-65" x="667.875"/>
     <use xlink:href="#DejaVuSans-6e" x="729.398438"/>
     <use xlink:href="#DejaVuSans-74" x="792.777344"/>
     <use xlink:href="#DejaVuSans-6f" x="831.986328"/>
     <use xlink:href="#DejaVuSans-20" x="893.167969"/>
     <use xlink:href="#DejaVuSans-70" x="924.955078"/>
     <use xlink:href="#DejaVuSans-61" x="988.431641"/>
     <use xlink:href="#DejaVuSans-72" x="1049.710938"/>
     <use xlink:href="#DejaVuSans-61" x="1090.824219"/>
     <use xlink:href="#DejaVuSans-20" x="1152.103516"/>
     <use xlink:href="#DejaVuSans-31" x="1183.890625"/>
     <use xlink:href="#DejaVuSans-20" x="1247.513672"/>
     <use xlink:href="#DejaVuSans-68" x="1279.300781"/>
     <use xlink:href="#DejaVuSans-6f" x="1342.679688"/>
     <use xlink:href="#DejaVuSans-72" x="1403.861328"/>
     <use xlink:href="#DejaVuSans-61" x="1444.974609"/>
     <use xlink:href="#DejaVuSans-28" x="1506.253906"/>
     <use xlink:href="#DejaVuSans-73" x="1545.267578"/>
     <use xlink:href="#DejaVuSans-29" x="1597.367188"/>
     <use xlink:href="#DejaVuSans-20" x="1636.380859"/>
     <use xlink:href="#DejaVuSans-e0" x="1668.167969"/>
     <use xlink:href="#DejaVuSans-20" x="1729.447266"/>
     <use xlink:href="#DejaVuSans-66" x="1761.234375"/>
     <use xlink:href="#DejaVuSans-72" x="1796.439453"/>
     <use xlink:href="#DejaVuSans-65" x="1835.302734"/>
     <use xlink:href="#DejaVuSans-6e" x="1896.826172"/>
     <use xlink:href="#DejaVuSans-74" x="1960.205078"/>
     <use xlink:href="#DejaVuSans-65" x="1999.414062"/>
     <use xlink:href="#DejaVuSans-20" x="2060.9375"/>
     <use xlink:href="#DejaVuSans-63" x="2092.724609"/>
     <use xlink:href="#DejaVuSans-6f" x="2147.705078"/>
     <use xlink:href="#DejaVuSans-6d" x="2208.886719"/>
     <use xlink:href="#DejaVuSans-20" x="2306.298828"/>
     <use xlink:href="#DejaVuSans-33" x="2338.085938"/>
     <use xlink:href="#DejaVuSans-63" x="2401.708984"/>
     <use xlink:href="#DejaVuSans-61" x="2456.689453"/>
     <use xlink:href="#DejaVuSans-6d" x="2517.96875"/>
     <use xlink:href="#DejaVuSans-61" x="2615.380859"/>
     <use xlink:href="#DejaVuSans-64" x="2676.660156"/>
     <use xlink:href="#DejaVuSans-61" x="2740.136719"/>
     <use xlink:href="#DejaVuSans-73" x="2801.416016"/>
    </g>
   </g>
   <g id="legend_1">
    <g id="patch_7">
     <path d="M 1217.86875 80.55625 
L 1289 80.55625 
Q 1291 80.55625 1291 78.55625 
L 1291 50.2 
Q 1291 48.2 1289 48.2 
L 1217.86875 48.2 
Q 1215.86875 48.2 1215.86875 50.2 
L 1215.86875 78.55625 
Q 1215.86875 80.55625 1217.86875 80.55625 
z
" style="fill: #ffffff; opacity: 0.8; stroke: #cccccc; stroke-linejoin: miter"/>
    </g>
    <g id="line2d_18">
     <path d="M 1219.86875 56.298437 
L 1229.86875 56.298437 
L 1239.86875 56.298437 
" style="fill: none; stroke: #0000ff; stroke-width: 1.5; stroke-linecap: square"/>
    </g>
    <g id="text_19">
     <!-- Predito -->
     <g transform="translate(1247.86875 59.798437) scale(0.1 -0.1)">
      <use xlink:href="#DejaVuSans-50"/>
      <use xlink:href="#DejaVuSans-72" x="58.552734"/>
      <use xlink:href="#DejaVuSans-65" x="97.416016"/>
      <use xlink:href="#DejaVuSans-64" x="158.939453"/>
      <use xlink:href="#DejaVuSans-69" x="222.416016"/>
      <use xlink:href="#DejaVuSans-74" x="250.199219"/>
      <use xlink:href="#DejaVuSans-6f" x="289.408203"/>
     </g>
    </g>
    <g id="line2d_19">
     <path d="M 1219.86875 70.976562 
L 1229.86875 70.976562 
L 1239.86875 70.976562 
" style="fill: none; stroke: #ffa500; stroke-width: 1.5; stroke-linecap: square"/>
    </g>
    <g id="text_20">
     <!-- Original -->
     <g transform="translate(1247.86875 74.476562) scale(0.1 -0.1)">
      <defs>
       <path id="DejaVuSans-4f" d="M 2522 4238 
Q 1834 4238 1429 3725 
Q 1025 3213 1025 2328 
Q 1025 1447 1429 934 
Q 1834 422 2522 422 
Q 3209 422 3611 934 
Q 4013 1447 4013 2328 
Q 4013 3213 3611 3725 
Q 3209 4238 2522 4238 
z
M 2522 4750 
Q 3503 4750 4090 4092 
Q 4678 3434 4678 2328 
Q 4678 1225 4090 567 
Q 3503 -91 2522 -91 
Q 1538 -91 948 565 
Q 359 1222 359 2328 
Q 359 3434 948 4092 
Q 1538 4750 2522 4750 
z
" transform="scale(0.015625)"/>
       <path id="DejaVuSans-67" d="M 2906 1791 
Q 2906 2416 2648 2759 
Q 2391 3103 1925 3103 
Q 1463 3103 1205 2759 
Q 947 2416 947 1791 
Q 947 1169 1205 825 
Q 1463 481 1925 481 
Q 2391 481 2648 825 
Q 2906 1169 2906 1791 
z
M 3481 434 
Q 3481 -459 3084 -895 
Q 2688 -1331 1869 -1331 
Q 1566 -1331 1297 -1286 
Q 1028 -1241 775 -1147 
L 775 -588 
Q 1028 -725 1275 -790 
Q 1522 -856 1778 -856 
Q 2344 -856 2625 -561 
Q 2906 -266 2906 331 
L 2906 616 
Q 2728 306 2450 153 
Q 2172 0 1784 0 
Q 1141 0 747 490 
Q 353 981 353 1791 
Q 353 2603 747 3093 
Q 1141 3584 1784 3584 
Q 2172 3584 2450 3431 
Q 2728 3278 2906 2969 
L 2906 3500 
L 3481 3500 
L 3481 434 
z
" transform="scale(0.015625)"/>
      </defs>
      <use xlink:href="#DejaVuSans-4f"/>
      <use xlink:href="#DejaVuSans-72" x="78.710938"/>
      <use xlink:href="#DejaVuSans-69" x="119.824219"/>
      <use xlink:href="#DejaVuSans-67" x="147.607422"/>
      <use xlink:href="#DejaVuSans-69" x="211.083984"/>
      <use xlink:href="#DejaVuSans-6e" x="238.867188"/>
      <use xlink:href="#DejaVuSans-61" x="302.246094"/>
      <use xlink:href="#DejaVuSans-6c" x="363.525391"/>
     </g>
    </g>
   </g>
  </g>
 </g>
 <defs>
  <clipPath id="p0362ab8226">
   <rect x="180" y="43.2" width="1116" height="277.2"/>
  </clipPath>
 </defs>
</svg>
