<?xml version="1.0" encoding="utf-8" standalone="no"?>
<!DOCTYPE svg PUBLIC "-//W3C//DTD SVG 1.1//EN"
  "http://www.w3.org/Graphics/SVG/1.1/DTD/svg11.dtd">
<svg xmlns:xlink="http://www.w3.org/1999/xlink" width="1440pt" height="360pt" viewBox="0 0 1440 360" xmlns="http://www.w3.org/2000/svg" version="1.1">
 <metadata>
  <rdf:RDF xmlns:dc="http://purl.org/dc/elements/1.1/" xmlns:cc="http://creativecommons.org/ns#" xmlns:rdf="http://www.w3.org/1999/02/22-rdf-syntax-ns#">
   <cc:Work>
    <dc:type rdf:resource="http://purl.org/dc/dcmitype/StillImage"/>
    <dc:date>2023-08-21T14:14:52.388445</dc:date>
    <dc:format>image/svg+xml</dc:format>
    <dc:creator>
     <cc:Agent>
      <dc:title>Matplotlib v3.7.1, https://matplotlib.org/</dc:title>
     </cc:Agent>
    </dc:creator>
   </cc:Work>
  </rdf:RDF>
 </metadata>
 <defs>
  <style type="text/css">*{stroke-linejoin: round; stroke-linecap: butt}</style>
 </defs>
 <g id="figure_1">
  <g id="patch_1">
   <path d="M 0 360 
L 1440 360 
L 1440 0 
L 0 0 
z
" style="fill: #ffffff"/>
  </g>
  <g id="axes_1">
   <g id="patch_2">
    <path d="M 180 320.4 
L 1296 320.4 
L 1296 43.2 
L 180 43.2 
z
" style="fill: #ffffff"/>
   </g>
   <g id="PolyCollection_1">
    <defs>
     <path id="m0f02970f6b" d="M 230.727273 -258.470634 
L 230.727273 -181.940181 
L 236.066986 -151.091286 
L 241.406699 -140.544249 
L 246.746411 -150.28627 
L 252.086124 -136.146676 
L 257.425837 -140.579622 
L 262.76555 -143.088105 
L 268.105263 -150.341502 
L 273.444976 -154.382495 
L 278.784689 -148.059959 
L 284.124402 -124.603241 
L 289.464115 -112.762304 
L 294.803828 -85.166069 
L 300.143541 -96.648824 
L 305.483254 -87.951122 
L 310.822967 -74.152378 
L 316.162679 -71.813654 
L 321.502392 -64.583379 
L 326.842105 -57.409592 
L 332.181818 -59.981672 
L 337.521531 -70.211347 
L 342.861244 -81.619714 
L 348.200957 -124.953363 
L 353.54067 -160.996657 
L 358.880383 -184.531745 
L 364.220096 -200.961355 
L 369.559809 -202.827174 
L 374.899522 -203.322685 
L 380.239234 -206.915708 
L 385.578947 -188.853511 
L 390.91866 -171.861605 
L 396.258373 -145.024321 
L 401.598086 -139.45856 
L 406.937799 -138.424591 
L 412.277512 -147.5222 
L 417.617225 -163.609928 
L 422.956938 -133.805705 
L 428.296651 -116.758034 
L 433.636364 -121.340581 
L 438.976077 -124.319538 
L 444.315789 -129.165912 
L 449.655502 -133.993459 
L 454.995215 -117.093158 
L 460.334928 -109.268925 
L 465.674641 -126.111381 
L 471.014354 -131.487207 
L 476.354067 -130.864269 
L 481.69378 -144.982672 
L 487.033493 -193.852648 
L 492.373206 -214.690068 
L 497.712919 -214.019405 
L 503.052632 -203.503513 
L 508.392344 -196.557873 
L 513.732057 -201.950679 
L 519.07177 -200.668763 
L 524.411483 -194.87568 
L 529.751196 -174.121042 
L 535.090909 -183.13184 
L 540.430622 -162.636984 
L 545.770335 -147.100432 
L 551.110048 -122.342756 
L 556.449761 -119.415585 
L 561.789474 -115.708684 
L 567.129187 -115.967501 
L 572.4689 -100.782869 
L 577.808612 -95.695822 
L 583.148325 -68.350081 
L 588.488038 -105.151443 
L 593.827751 -125.471829 
L 599.167464 -132.27844 
L 604.507177 -168.925645 
L 609.84689 -197.697613 
L 615.186603 -210.051124 
L 620.526316 -222.829116 
L 625.866029 -224.097764 
L 631.205742 -227.669547 
L 636.545455 -218.867427 
L 641.885167 -211.871415 
L 647.22488 -188.309592 
L 652.564593 -182.806455 
L 657.904306 -175.362208 
L 663.244019 -156.545683 
L 668.583732 -166.603434 
L 673.923445 -157.353362 
L 679.263158 -138.215397 
L 684.602871 -138.102385 
L 689.942584 -137.322389 
L 695.282297 -128.167283 
L 700.62201 -134.035391 
L 705.961722 -118.832814 
L 711.301435 -99.061057 
L 716.641148 -93.190199 
L 721.980861 -117.176689 
L 727.320574 -123.63108 
L 732.660287 -165.694945 
L 738 -200.032075 
L 743.339713 -205.30571 
L 748.679426 -210.543222 
L 754.019139 -215.202675 
L 759.358852 -221.721087 
L 764.698565 -213.923655 
L 770.038278 -209.708709 
L 775.37799 -202.326869 
L 780.717703 -162.284399 
L 786.057416 -146.631722 
L 791.397129 -155.421857 
L 796.736842 -173.539087 
L 802.076555 -166.346016 
L 807.416268 -114.004468 
L 812.755981 -66.867785 
L 818.095694 -62.669203 
L 823.435407 -52.2 
L 828.77512 -65.168605 
L 834.114833 -92.023242 
L 839.454545 -90.413685 
L 844.794258 -80.807856 
L 850.133971 -95.027007 
L 855.473684 -111.594066 
L 860.813397 -120.778668 
L 866.15311 -151.190598 
L 871.492823 -193.980808 
L 876.832536 -210.668735 
L 882.172249 -200.598482 
L 887.511962 -205.204866 
L 892.851675 -203.612547 
L 898.191388 -195.105316 
L 903.5311 -171.689099 
L 908.870813 -154.352415 
L 914.210526 -167.435467 
L 919.550239 -156.372594 
L 924.889952 -151.189332 
L 930.229665 -159.403222 
L 935.569378 -145.287066 
L 940.909091 -155.755199 
L 946.248804 -138.257678 
L 951.588517 -128.974496 
L 956.92823 -135.642243 
L 962.267943 -127.080596 
L 967.607656 -108.544445 
L 972.947368 -92.67924 
L 978.287081 -103.764423 
L 983.626794 -119.2122 
L 988.966507 -156.433736 
L 994.30622 -191.192983 
L 999.645933 -203.758502 
L 1004.985646 -189.664652 
L 1010.325359 -198.00487 
L 1015.665072 -198.611063 
L 1021.004785 -190.717398 
L 1026.344498 -183.878893 
L 1031.684211 -160.930321 
L 1037.023923 -148.095549 
L 1042.363636 -157.574308 
L 1047.703349 -137.503234 
L 1053.043062 -130.03505 
L 1058.382775 -151.739976 
L 1063.722488 -116.108329 
L 1069.062201 -113.392417 
L 1074.401914 -100.331654 
L 1079.741627 -75.693502 
L 1085.08134 -81.361829 
L 1090.421053 -77.274868 
L 1095.760766 -75.237609 
L 1101.100478 -106.39171 
L 1106.440191 -92.264223 
L 1111.779904 -83.275148 
L 1117.119617 -106.046882 
L 1122.45933 -120.517654 
L 1127.799043 -151.552705 
L 1133.138756 -187.882415 
L 1138.478469 -200.872331 
L 1143.818182 -205.941283 
L 1149.157895 -200.640165 
L 1154.497608 -195.98003 
L 1159.837321 -184.640279 
L 1165.177033 -187.425007 
L 1170.516746 -179.141187 
L 1175.856459 -155.181651 
L 1181.196172 -142.195214 
L 1186.535885 -162.450462 
L 1191.875598 -165.861375 
L 1197.215311 -154.6099 
L 1202.555024 -138.237786 
L 1207.894737 -131.435737 
L 1213.23445 -111.962349 
L 1218.574163 -101.932929 
L 1223.913876 -84.051157 
L 1229.253589 -83.658054 
L 1234.593301 -94.93179 
L 1239.933014 -127.965813 
L 1245.272727 -166.583475 
L 1245.272727 -243.113928 
L 1245.272727 -243.113928 
L 1239.933014 -204.496266 
L 1234.593301 -171.462243 
L 1229.253589 -160.188512 
L 1223.913876 -160.581614 
L 1218.574163 -178.463399 
L 1213.23445 -188.492802 
L 1207.894737 -207.96619 
L 1202.555024 -214.768239 
L 1197.215311 -231.140353 
L 1191.875598 -242.391828 
L 1186.535885 -238.980916 
L 1181.196172 -218.725667 
L 1175.856459 -231.712104 
L 1170.516746 -255.67164 
L 1165.177033 -263.95546 
L 1159.837321 -261.170732 
L 1154.497608 -272.510483 
L 1149.157895 -277.170618 
L 1143.818182 -282.471736 
L 1138.478469 -277.402784 
L 1133.138756 -264.412868 
L 1127.799043 -228.083158 
L 1122.45933 -197.048124 
L 1117.119617 -182.577352 
L 1111.779904 -159.805613 
L 1106.440191 -168.794688 
L 1101.100478 -182.922163 
L 1095.760766 -151.768075 
L 1090.421053 -153.805334 
L 1085.08134 -157.892286 
L 1079.741627 -152.223967 
L 1074.401914 -176.862123 
L 1069.062201 -189.92287 
L 1063.722488 -192.638799 
L 1058.382775 -228.270429 
L 1053.043062 -206.565503 
L 1047.703349 -214.033687 
L 1042.363636 -234.104761 
L 1037.023923 -224.626002 
L 1031.684211 -237.460774 
L 1026.344498 -260.409347 
L 1021.004785 -267.247851 
L 1015.665072 -275.141516 
L 1010.325359 -274.535324 
L 1004.985646 -266.195105 
L 999.645933 -280.288955 
L 994.30622 -267.723436 
L 988.966507 -232.964189 
L 983.626794 -195.74267 
L 978.287081 -180.294893 
L 972.947368 -169.209697 
L 967.607656 -185.074898 
L 962.267943 -203.611049 
L 956.92823 -212.172696 
L 951.588517 -205.504949 
L 946.248804 -214.788131 
L 940.909091 -232.285652 
L 935.569378 -221.817519 
L 930.229665 -235.933675 
L 924.889952 -227.719785 
L 919.550239 -232.903047 
L 914.210526 -243.96592 
L 908.870813 -230.882868 
L 903.5311 -248.219552 
L 898.191388 -271.635769 
L 892.851675 -280.143 
L 887.511962 -281.735319 
L 882.172249 -277.128935 
L 876.832536 -287.199188 
L 871.492823 -270.511261 
L 866.15311 -227.721051 
L 860.813397 -197.309138 
L 855.473684 -188.124535 
L 850.133971 -171.557477 
L 844.794258 -157.338314 
L 839.454545 -166.944151 
L 834.114833 -168.5537 
L 828.77512 -141.69907 
L 823.435407 -128.730461 
L 818.095694 -139.19966 
L 812.755981 -143.398243 
L 807.416268 -190.534921 
L 802.076555 -242.876469 
L 796.736842 -250.06954 
L 791.397129 -231.95231 
L 786.057416 -223.162175 
L 780.717703 -238.814852 
L 775.37799 -278.857322 
L 770.038278 -286.239162 
L 764.698565 -290.454108 
L 759.358852 -298.25154 
L 754.019139 -291.733128 
L 748.679426 -287.073675 
L 743.339713 -281.836163 
L 738 -276.562528 
L 732.660287 -242.225398 
L 727.320574 -200.161533 
L 721.980861 -193.707142 
L 716.641148 -169.720656 
L 711.301435 -175.591527 
L 705.961722 -195.363267 
L 700.62201 -210.565844 
L 695.282297 -204.697736 
L 689.942584 -213.852842 
L 684.602871 -214.632838 
L 679.263158 -214.74585 
L 673.923445 -233.883815 
L 668.583732 -243.133887 
L 663.244019 -233.076136 
L 657.904306 -251.892661 
L 652.564593 -259.336908 
L 647.22488 -264.840045 
L 641.885167 -288.401868 
L 636.545455 -295.39788 
L 631.205742 -304.2 
L 625.866029 -300.628218 
L 620.526316 -299.359569 
L 615.186603 -286.581577 
L 609.84689 -274.228066 
L 604.507177 -245.456098 
L 599.167464 -208.808893 
L 593.827751 -202.002299 
L 588.488038 -181.681913 
L 583.148325 -144.880547 
L 577.808612 -172.226275 
L 572.4689 -177.313338 
L 567.129187 -192.497971 
L 561.789474 -192.239137 
L 556.449761 -195.946055 
L 551.110048 -198.873225 
L 545.770335 -223.630885 
L 540.430622 -239.167437 
L 535.090909 -259.662293 
L 529.751196 -250.651495 
L 524.411483 -271.406133 
L 519.07177 -277.199216 
L 513.732057 -278.481132 
L 508.392344 -273.088326 
L 503.052632 -280.033967 
L 497.712919 -290.549858 
L 492.373206 -291.220521 
L 487.033493 -270.383101 
L 481.69378 -221.513125 
L 476.354067 -207.394722 
L 471.014354 -208.01766 
L 465.674641 -202.641834 
L 460.334928 -185.799395 
L 454.995215 -193.623628 
L 449.655502 -210.523912 
L 444.315789 -205.696365 
L 438.976077 -200.850008 
L 433.636364 -197.871051 
L 428.296651 -193.288504 
L 422.956938 -210.336159 
L 417.617225 -240.140381 
L 412.277512 -224.052653 
L 406.937799 -214.955044 
L 401.598086 -215.989013 
L 396.258373 -221.554774 
L 390.91866 -248.392058 
L 385.578947 -265.383964 
L 380.239234 -283.446161 
L 374.899522 -279.853138 
L 369.559809 -279.357627 
L 364.220096 -277.491808 
L 358.880383 -261.062198 
L 353.54067 -237.52711 
L 348.200957 -201.483833 
L 342.861244 -158.150171 
L 337.521531 -146.741804 
L 332.181818 -136.512129 
L 326.842105 -133.940058 
L 321.502392 -141.113836 
L 316.162679 -148.344111 
L 310.822967 -150.682835 
L 305.483254 -164.481579 
L 300.143541 -173.179277 
L 294.803828 -161.696534 
L 289.464115 -189.292757 
L 284.124402 -201.133711 
L 278.784689 -224.590412 
L 273.444976 -230.912948 
L 268.105263 -226.871956 
L 262.76555 -219.618558 
L 257.425837 -217.110076 
L 252.086124 -212.677129 
L 246.746411 -226.816723 
L 241.406699 -217.074702 
L 236.066986 -227.621739 
L 230.727273 -258.470634 
z
" style="stroke: #0000ff; stroke-opacity: 0.05"/>
    </defs>
    <g clip-path="url(#p69dd9027d8)">
     <use xlink:href="#m0f02970f6b" x="0" y="360" style="fill: #0000ff; fill-opacity: 0.05; stroke: #0000ff; stroke-opacity: 0.05"/>
    </g>
   </g>
   <g id="matplotlib.axis_1">
    <g id="xtick_1">
     <g id="line2d_1">
      <defs>
       <path id="m7b28a09a92" d="M 0 0 
L 0 3.5 
" style="stroke: #000000; stroke-width: 0.8"/>
      </defs>
      <g>
       <use xlink:href="#m7b28a09a92" x="230.727273" y="320.4" style="stroke: #000000; stroke-width: 0.8"/>
      </g>
     </g>
     <g id="text_1">
      <!-- 0 -->
      <g transform="translate(227.546023 334.998438) scale(0.1 -0.1)">
       <defs>
        <path id="DejaVuSans-30" d="M 2034 4250 
Q 1547 4250 1301 3770 
Q 1056 3291 1056 2328 
Q 1056 1369 1301 889 
Q 1547 409 2034 409 
Q 2525 409 2770 889 
Q 3016 1369 3016 2328 
Q 3016 3291 2770 3770 
Q 2525 4250 2034 4250 
z
M 2034 4750 
Q 2819 4750 3233 4129 
Q 3647 3509 3647 2328 
Q 3647 1150 3233 529 
Q 2819 -91 2034 -91 
Q 1250 -91 836 529 
Q 422 1150 422 2328 
Q 422 3509 836 4129 
Q 1250 4750 2034 4750 
z
" transform="scale(0.015625)"/>
       </defs>
       <use xlink:href="#DejaVuSans-30"/>
      </g>
     </g>
    </g>
    <g id="xtick_2">
     <g id="line2d_2">
      <g>
       <use xlink:href="#m7b28a09a92" x="364.220096" y="320.4" style="stroke: #000000; stroke-width: 0.8"/>
      </g>
     </g>
     <g id="text_2">
      <!-- 25 -->
      <g transform="translate(357.857596 334.998438) scale(0.1 -0.1)">
       <defs>
        <path id="DejaVuSans-32" d="M 1228 531 
L 3431 531 
L 3431 0 
L 469 0 
L 469 531 
Q 828 903 1448 1529 
Q 2069 2156 2228 2338 
Q 2531 2678 2651 2914 
Q 2772 3150 2772 3378 
Q 2772 3750 2511 3984 
Q 2250 4219 1831 4219 
Q 1534 4219 1204 4116 
Q 875 4013 500 3803 
L 500 4441 
Q 881 4594 1212 4672 
Q 1544 4750 1819 4750 
Q 2544 4750 2975 4387 
Q 3406 4025 3406 3419 
Q 3406 3131 3298 2873 
Q 3191 2616 2906 2266 
Q 2828 2175 2409 1742 
Q 1991 1309 1228 531 
z
" transform="scale(0.015625)"/>
        <path id="DejaVuSans-35" d="M 691 4666 
L 3169 4666 
L 3169 4134 
L 1269 4134 
L 1269 2991 
Q 1406 3038 1543 3061 
Q 1681 3084 1819 3084 
Q 2600 3084 3056 2656 
Q 3513 2228 3513 1497 
Q 3513 744 3044 326 
Q 2575 -91 1722 -91 
Q 1428 -91 1123 -41 
Q 819 9 494 109 
L 494 744 
Q 775 591 1075 516 
Q 1375 441 1709 441 
Q 2250 441 2565 725 
Q 2881 1009 2881 1497 
Q 2881 1984 2565 2268 
Q 2250 2553 1709 2553 
Q 1456 2553 1204 2497 
Q 953 2441 691 2322 
L 691 4666 
z
" transform="scale(0.015625)"/>
       </defs>
       <use xlink:href="#DejaVuSans-32"/>
       <use xlink:href="#DejaVuSans-35" x="63.623047"/>
      </g>
     </g>
    </g>
    <g id="xtick_3">
     <g id="line2d_3">
      <g>
       <use xlink:href="#m7b28a09a92" x="497.712919" y="320.4" style="stroke: #000000; stroke-width: 0.8"/>
      </g>
     </g>
     <g id="text_3">
      <!-- 50 -->
      <g transform="translate(491.350419 334.998438) scale(0.1 -0.1)">
       <use xlink:href="#DejaVuSans-35"/>
       <use xlink:href="#DejaVuSans-30" x="63.623047"/>
      </g>
     </g>
    </g>
    <g id="xtick_4">
     <g id="line2d_4">
      <g>
       <use xlink:href="#m7b28a09a92" x="631.205742" y="320.4" style="stroke: #000000; stroke-width: 0.8"/>
      </g>
     </g>
     <g id="text_4">
      <!-- 75 -->
      <g transform="translate(624.843242 334.998438) scale(0.1 -0.1)">
       <defs>
        <path id="DejaVuSans-37" d="M 525 4666 
L 3525 4666 
L 3525 4397 
L 1831 0 
L 1172 0 
L 2766 4134 
L 525 4134 
L 525 4666 
z
" transform="scale(0.015625)"/>
       </defs>
       <use xlink:href="#DejaVuSans-37"/>
       <use xlink:href="#DejaVuSans-35" x="63.623047"/>
      </g>
     </g>
    </g>
    <g id="xtick_5">
     <g id="line2d_5">
      <g>
       <use xlink:href="#m7b28a09a92" x="764.698565" y="320.4" style="stroke: #000000; stroke-width: 0.8"/>
      </g>
     </g>
     <g id="text_5">
      <!-- 100 -->
      <g transform="translate(755.154815 334.998438) scale(0.1 -0.1)">
       <defs>
        <path id="DejaVuSans-31" d="M 794 531 
L 1825 531 
L 1825 4091 
L 703 3866 
L 703 4441 
L 1819 4666 
L 2450 4666 
L 2450 531 
L 3481 531 
L 3481 0 
L 794 0 
L 794 531 
z
" transform="scale(0.015625)"/>
       </defs>
       <use xlink:href="#DejaVuSans-31"/>
       <use xlink:href="#DejaVuSans-30" x="63.623047"/>
       <use xlink:href="#DejaVuSans-30" x="127.246094"/>
      </g>
     </g>
    </g>
    <g id="xtick_6">
     <g id="line2d_6">
      <g>
       <use xlink:href="#m7b28a09a92" x="898.191388" y="320.4" style="stroke: #000000; stroke-width: 0.8"/>
      </g>
     </g>
     <g id="text_6">
      <!-- 125 -->
      <g transform="translate(888.647638 334.998438) scale(0.1 -0.1)">
       <use xlink:href="#DejaVuSans-31"/>
       <use xlink:href="#DejaVuSans-32" x="63.623047"/>
       <use xlink:href="#DejaVuSans-35" x="127.246094"/>
      </g>
     </g>
    </g>
    <g id="xtick_7">
     <g id="line2d_7">
      <g>
       <use xlink:href="#m7b28a09a92" x="1031.684211" y="320.4" style="stroke: #000000; stroke-width: 0.8"/>
      </g>
     </g>
     <g id="text_7">
      <!-- 150 -->
      <g transform="translate(1022.140461 334.998438) scale(0.1 -0.1)">
       <use xlink:href="#DejaVuSans-31"/>
       <use xlink:href="#DejaVuSans-35" x="63.623047"/>
       <use xlink:href="#DejaVuSans-30" x="127.246094"/>
      </g>
     </g>
    </g>
    <g id="xtick_8">
     <g id="line2d_8">
      <g>
       <use xlink:href="#m7b28a09a92" x="1165.177033" y="320.4" style="stroke: #000000; stroke-width: 0.8"/>
      </g>
     </g>
     <g id="text_8">
      <!-- 175 -->
      <g transform="translate(1155.633283 334.998438) scale(0.1 -0.1)">
       <use xlink:href="#DejaVuSans-31"/>
       <use xlink:href="#DejaVuSans-37" x="63.623047"/>
       <use xlink:href="#DejaVuSans-35" x="127.246094"/>
      </g>
     </g>
    </g>
    <g id="text_9">
     <!-- Amostras -->
     <g transform="translate(714.360937 348.676562) scale(0.1 -0.1)">
      <defs>
       <path id="DejaVuSans-41" d="M 2188 4044 
L 1331 1722 
L 3047 1722 
L 2188 4044 
z
M 1831 4666 
L 2547 4666 
L 4325 0 
L 3669 0 
L 3244 1197 
L 1141 1197 
L 716 0 
L 50 0 
L 1831 4666 
z
" transform="scale(0.015625)"/>
       <path id="DejaVuSans-6d" d="M 3328 2828 
Q 3544 3216 3844 3400 
Q 4144 3584 4550 3584 
Q 5097 3584 5394 3201 
Q 5691 2819 5691 2113 
L 5691 0 
L 5113 0 
L 5113 2094 
Q 5113 2597 4934 2840 
Q 4756 3084 4391 3084 
Q 3944 3084 3684 2787 
Q 3425 2491 3425 1978 
L 3425 0 
L 2847 0 
L 2847 2094 
Q 2847 2600 2669 2842 
Q 2491 3084 2119 3084 
Q 1678 3084 1418 2786 
Q 1159 2488 1159 1978 
L 1159 0 
L 581 0 
L 581 3500 
L 1159 3500 
L 1159 2956 
Q 1356 3278 1631 3431 
Q 1906 3584 2284 3584 
Q 2666 3584 2933 3390 
Q 3200 3197 3328 2828 
z
" transform="scale(0.015625)"/>
       <path id="DejaVuSans-6f" d="M 1959 3097 
Q 1497 3097 1228 2736 
Q 959 2375 959 1747 
Q 959 1119 1226 758 
Q 1494 397 1959 397 
Q 2419 397 2687 759 
Q 2956 1122 2956 1747 
Q 2956 2369 2687 2733 
Q 2419 3097 1959 3097 
z
M 1959 3584 
Q 2709 3584 3137 3096 
Q 3566 2609 3566 1747 
Q 3566 888 3137 398 
Q 2709 -91 1959 -91 
Q 1206 -91 779 398 
Q 353 888 353 1747 
Q 353 2609 779 3096 
Q 1206 3584 1959 3584 
z
" transform="scale(0.015625)"/>
       <path id="DejaVuSans-73" d="M 2834 3397 
L 2834 2853 
Q 2591 2978 2328 3040 
Q 2066 3103 1784 3103 
Q 1356 3103 1142 2972 
Q 928 2841 928 2578 
Q 928 2378 1081 2264 
Q 1234 2150 1697 2047 
L 1894 2003 
Q 2506 1872 2764 1633 
Q 3022 1394 3022 966 
Q 3022 478 2636 193 
Q 2250 -91 1575 -91 
Q 1294 -91 989 -36 
Q 684 19 347 128 
L 347 722 
Q 666 556 975 473 
Q 1284 391 1588 391 
Q 1994 391 2212 530 
Q 2431 669 2431 922 
Q 2431 1156 2273 1281 
Q 2116 1406 1581 1522 
L 1381 1569 
Q 847 1681 609 1914 
Q 372 2147 372 2553 
Q 372 3047 722 3315 
Q 1072 3584 1716 3584 
Q 2034 3584 2315 3537 
Q 2597 3491 2834 3397 
z
" transform="scale(0.015625)"/>
       <path id="DejaVuSans-74" d="M 1172 4494 
L 1172 3500 
L 2356 3500 
L 2356 3053 
L 1172 3053 
L 1172 1153 
Q 1172 725 1289 603 
Q 1406 481 1766 481 
L 2356 481 
L 2356 0 
L 1766 0 
Q 1100 0 847 248 
Q 594 497 594 1153 
L 594 3053 
L 172 3053 
L 172 3500 
L 594 3500 
L 594 4494 
L 1172 4494 
z
" transform="scale(0.015625)"/>
       <path id="DejaVuSans-72" d="M 2631 2963 
Q 2534 3019 2420 3045 
Q 2306 3072 2169 3072 
Q 1681 3072 1420 2755 
Q 1159 2438 1159 1844 
L 1159 0 
L 581 0 
L 581 3500 
L 1159 3500 
L 1159 2956 
Q 1341 3275 1631 3429 
Q 1922 3584 2338 3584 
Q 2397 3584 2469 3576 
Q 2541 3569 2628 3553 
L 2631 2963 
z
" transform="scale(0.015625)"/>
       <path id="DejaVuSans-61" d="M 2194 1759 
Q 1497 1759 1228 1600 
Q 959 1441 959 1056 
Q 959 750 1161 570 
Q 1363 391 1709 391 
Q 2188 391 2477 730 
Q 2766 1069 2766 1631 
L 2766 1759 
L 2194 1759 
z
M 3341 1997 
L 3341 0 
L 2766 0 
L 2766 531 
Q 2569 213 2275 61 
Q 1981 -91 1556 -91 
Q 1019 -91 701 211 
Q 384 513 384 1019 
Q 384 1609 779 1909 
Q 1175 2209 1959 2209 
L 2766 2209 
L 2766 2266 
Q 2766 2663 2505 2880 
Q 2244 3097 1772 3097 
Q 1472 3097 1187 3025 
Q 903 2953 641 2809 
L 641 3341 
Q 956 3463 1253 3523 
Q 1550 3584 1831 3584 
Q 2591 3584 2966 3190 
Q 3341 2797 3341 1997 
z
" transform="scale(0.015625)"/>
      </defs>
      <use xlink:href="#DejaVuSans-41"/>
      <use xlink:href="#DejaVuSans-6d" x="68.408203"/>
      <use xlink:href="#DejaVuSans-6f" x="165.820312"/>
      <use xlink:href="#DejaVuSans-73" x="227.001953"/>
      <use xlink:href="#DejaVuSans-74" x="279.101562"/>
      <use xlink:href="#DejaVuSans-72" x="318.310547"/>
      <use xlink:href="#DejaVuSans-61" x="359.423828"/>
      <use xlink:href="#DejaVuSans-73" x="420.703125"/>
     </g>
    </g>
   </g>
   <g id="matplotlib.axis_2">
    <g id="ytick_1">
     <g id="line2d_9">
      <defs>
       <path id="m28ac217e0a" d="M 0 0 
L -3.5 0 
" style="stroke: #000000; stroke-width: 0.8"/>
      </defs>
      <g>
       <use xlink:href="#m28ac217e0a" x="180" y="300.887478" style="stroke: #000000; stroke-width: 0.8"/>
      </g>
     </g>
     <g id="text_10">
      <!-- 2 -->
      <g transform="translate(166.6375 304.686696) scale(0.1 -0.1)">
       <use xlink:href="#DejaVuSans-32"/>
      </g>
     </g>
    </g>
    <g id="ytick_2">
     <g id="line2d_10">
      <g>
       <use xlink:href="#m28ac217e0a" x="180" y="265.977631" style="stroke: #000000; stroke-width: 0.8"/>
      </g>
     </g>
     <g id="text_11">
      <!-- 4 -->
      <g transform="translate(166.6375 269.77685) scale(0.1 -0.1)">
       <defs>
        <path id="DejaVuSans-34" d="M 2419 4116 
L 825 1625 
L 2419 1625 
L 2419 4116 
z
M 2253 4666 
L 3047 4666 
L 3047 1625 
L 3713 1625 
L 3713 1100 
L 3047 1100 
L 3047 0 
L 2419 0 
L 2419 1100 
L 313 1100 
L 313 1709 
L 2253 4666 
z
" transform="scale(0.015625)"/>
       </defs>
       <use xlink:href="#DejaVuSans-34"/>
      </g>
     </g>
    </g>
    <g id="ytick_3">
     <g id="line2d_11">
      <g>
       <use xlink:href="#m28ac217e0a" x="180" y="231.067785" style="stroke: #000000; stroke-width: 0.8"/>
      </g>
     </g>
     <g id="text_12">
      <!-- 6 -->
      <g transform="translate(166.6375 234.867004) scale(0.1 -0.1)">
       <defs>
        <path id="DejaVuSans-36" d="M 2113 2584 
Q 1688 2584 1439 2293 
Q 1191 2003 1191 1497 
Q 1191 994 1439 701 
Q 1688 409 2113 409 
Q 2538 409 2786 701 
Q 3034 994 3034 1497 
Q 3034 2003 2786 2293 
Q 2538 2584 2113 2584 
z
M 3366 4563 
L 3366 3988 
Q 3128 4100 2886 4159 
Q 2644 4219 2406 4219 
Q 1781 4219 1451 3797 
Q 1122 3375 1075 2522 
Q 1259 2794 1537 2939 
Q 1816 3084 2150 3084 
Q 2853 3084 3261 2657 
Q 3669 2231 3669 1497 
Q 3669 778 3244 343 
Q 2819 -91 2113 -91 
Q 1303 -91 875 529 
Q 447 1150 447 2328 
Q 447 3434 972 4092 
Q 1497 4750 2381 4750 
Q 2619 4750 2861 4703 
Q 3103 4656 3366 4563 
z
" transform="scale(0.015625)"/>
       </defs>
       <use xlink:href="#DejaVuSans-36"/>
      </g>
     </g>
    </g>
    <g id="ytick_4">
     <g id="line2d_12">
      <g>
       <use xlink:href="#m28ac217e0a" x="180" y="196.157939" style="stroke: #000000; stroke-width: 0.8"/>
      </g>
     </g>
     <g id="text_13">
      <!-- 8 -->
      <g transform="translate(166.6375 199.957158) scale(0.1 -0.1)">
       <defs>
        <path id="DejaVuSans-38" d="M 2034 2216 
Q 1584 2216 1326 1975 
Q 1069 1734 1069 1313 
Q 1069 891 1326 650 
Q 1584 409 2034 409 
Q 2484 409 2743 651 
Q 3003 894 3003 1313 
Q 3003 1734 2745 1975 
Q 2488 2216 2034 2216 
z
M 1403 2484 
Q 997 2584 770 2862 
Q 544 3141 544 3541 
Q 544 4100 942 4425 
Q 1341 4750 2034 4750 
Q 2731 4750 3128 4425 
Q 3525 4100 3525 3541 
Q 3525 3141 3298 2862 
Q 3072 2584 2669 2484 
Q 3125 2378 3379 2068 
Q 3634 1759 3634 1313 
Q 3634 634 3220 271 
Q 2806 -91 2034 -91 
Q 1263 -91 848 271 
Q 434 634 434 1313 
Q 434 1759 690 2068 
Q 947 2378 1403 2484 
z
M 1172 3481 
Q 1172 3119 1398 2916 
Q 1625 2713 2034 2713 
Q 2441 2713 2670 2916 
Q 2900 3119 2900 3481 
Q 2900 3844 2670 4047 
Q 2441 4250 2034 4250 
Q 1625 4250 1398 4047 
Q 1172 3844 1172 3481 
z
" transform="scale(0.015625)"/>
       </defs>
       <use xlink:href="#DejaVuSans-38"/>
      </g>
     </g>
    </g>
    <g id="ytick_5">
     <g id="line2d_13">
      <g>
       <use xlink:href="#m28ac217e0a" x="180" y="161.248093" style="stroke: #000000; stroke-width: 0.8"/>
      </g>
     </g>
     <g id="text_14">
      <!-- 10 -->
      <g transform="translate(160.275 165.047312) scale(0.1 -0.1)">
       <use xlink:href="#DejaVuSans-31"/>
       <use xlink:href="#DejaVuSans-30" x="63.623047"/>
      </g>
     </g>
    </g>
    <g id="ytick_6">
     <g id="line2d_14">
      <g>
       <use xlink:href="#m28ac217e0a" x="180" y="126.338247" style="stroke: #000000; stroke-width: 0.8"/>
      </g>
     </g>
     <g id="text_15">
      <!-- 12 -->
      <g transform="translate(160.275 130.137466) scale(0.1 -0.1)">
       <use xlink:href="#DejaVuSans-31"/>
       <use xlink:href="#DejaVuSans-32" x="63.623047"/>
      </g>
     </g>
    </g>
    <g id="ytick_7">
     <g id="line2d_15">
      <g>
       <use xlink:href="#m28ac217e0a" x="180" y="91.428401" style="stroke: #000000; stroke-width: 0.8"/>
      </g>
     </g>
     <g id="text_16">
      <!-- 14 -->
      <g transform="translate(160.275 95.22762) scale(0.1 -0.1)">
       <use xlink:href="#DejaVuSans-31"/>
       <use xlink:href="#DejaVuSans-34" x="63.623047"/>
      </g>
     </g>
    </g>
    <g id="ytick_8">
     <g id="line2d_16">
      <g>
       <use xlink:href="#m28ac217e0a" x="180" y="56.518555" style="stroke: #000000; stroke-width: 0.8"/>
      </g>
     </g>
     <g id="text_17">
      <!-- 16 -->
      <g transform="translate(160.275 60.317773) scale(0.1 -0.1)">
       <use xlink:href="#DejaVuSans-31"/>
       <use xlink:href="#DejaVuSans-36" x="63.623047"/>
      </g>
     </g>
    </g>
    <g id="text_18">
     <!-- Velocidade do Vento (m/s) -->
     <g transform="translate(154.195312 247.344531) rotate(-90) scale(0.1 -0.1)">
      <defs>
       <path id="DejaVuSans-56" d="M 1831 0 
L 50 4666 
L 709 4666 
L 2188 738 
L 3669 4666 
L 4325 4666 
L 2547 0 
L 1831 0 
z
" transform="scale(0.015625)"/>
       <path id="DejaVuSans-65" d="M 3597 1894 
L 3597 1613 
L 953 1613 
Q 991 1019 1311 708 
Q 1631 397 2203 397 
Q 2534 397 2845 478 
Q 3156 559 3463 722 
L 3463 178 
Q 3153 47 2828 -22 
Q 2503 -91 2169 -91 
Q 1331 -91 842 396 
Q 353 884 353 1716 
Q 353 2575 817 3079 
Q 1281 3584 2069 3584 
Q 2775 3584 3186 3129 
Q 3597 2675 3597 1894 
z
M 3022 2063 
Q 3016 2534 2758 2815 
Q 2500 3097 2075 3097 
Q 1594 3097 1305 2825 
Q 1016 2553 972 2059 
L 3022 2063 
z
" transform="scale(0.015625)"/>
       <path id="DejaVuSans-6c" d="M 603 4863 
L 1178 4863 
L 1178 0 
L 603 0 
L 603 4863 
z
" transform="scale(0.015625)"/>
       <path id="DejaVuSans-63" d="M 3122 3366 
L 3122 2828 
Q 2878 2963 2633 3030 
Q 2388 3097 2138 3097 
Q 1578 3097 1268 2742 
Q 959 2388 959 1747 
Q 959 1106 1268 751 
Q 1578 397 2138 397 
Q 2388 397 2633 464 
Q 2878 531 3122 666 
L 3122 134 
Q 2881 22 2623 -34 
Q 2366 -91 2075 -91 
Q 1284 -91 818 406 
Q 353 903 353 1747 
Q 353 2603 823 3093 
Q 1294 3584 2113 3584 
Q 2378 3584 2631 3529 
Q 2884 3475 3122 3366 
z
" transform="scale(0.015625)"/>
       <path id="DejaVuSans-69" d="M 603 3500 
L 1178 3500 
L 1178 0 
L 603 0 
L 603 3500 
z
M 603 4863 
L 1178 4863 
L 1178 4134 
L 603 4134 
L 603 4863 
z
" transform="scale(0.015625)"/>
       <path id="DejaVuSans-64" d="M 2906 2969 
L 2906 4863 
L 3481 4863 
L 3481 0 
L 2906 0 
L 2906 525 
Q 2725 213 2448 61 
Q 2172 -91 1784 -91 
Q 1150 -91 751 415 
Q 353 922 353 1747 
Q 353 2572 751 3078 
Q 1150 3584 1784 3584 
Q 2172 3584 2448 3432 
Q 2725 3281 2906 2969 
z
M 947 1747 
Q 947 1113 1208 752 
Q 1469 391 1925 391 
Q 2381 391 2643 752 
Q 2906 1113 2906 1747 
Q 2906 2381 2643 2742 
Q 2381 3103 1925 3103 
Q 1469 3103 1208 2742 
Q 947 2381 947 1747 
z
" transform="scale(0.015625)"/>
       <path id="DejaVuSans-20" transform="scale(0.015625)"/>
       <path id="DejaVuSans-6e" d="M 3513 2113 
L 3513 0 
L 2938 0 
L 2938 2094 
Q 2938 2591 2744 2837 
Q 2550 3084 2163 3084 
Q 1697 3084 1428 2787 
Q 1159 2491 1159 1978 
L 1159 0 
L 581 0 
L 581 3500 
L 1159 3500 
L 1159 2956 
Q 1366 3272 1645 3428 
Q 1925 3584 2291 3584 
Q 2894 3584 3203 3211 
Q 3513 2838 3513 2113 
z
" transform="scale(0.015625)"/>
       <path id="DejaVuSans-28" d="M 1984 4856 
Q 1566 4138 1362 3434 
Q 1159 2731 1159 2009 
Q 1159 1288 1364 580 
Q 1569 -128 1984 -844 
L 1484 -844 
Q 1016 -109 783 600 
Q 550 1309 550 2009 
Q 550 2706 781 3412 
Q 1013 4119 1484 4856 
L 1984 4856 
z
" transform="scale(0.015625)"/>
       <path id="DejaVuSans-2f" d="M 1625 4666 
L 2156 4666 
L 531 -594 
L 0 -594 
L 1625 4666 
z
" transform="scale(0.015625)"/>
       <path id="DejaVuSans-29" d="M 513 4856 
L 1013 4856 
Q 1481 4119 1714 3412 
Q 1947 2706 1947 2009 
Q 1947 1309 1714 600 
Q 1481 -109 1013 -844 
L 513 -844 
Q 928 -128 1133 580 
Q 1338 1288 1338 2009 
Q 1338 2731 1133 3434 
Q 928 4138 513 4856 
z
" transform="scale(0.015625)"/>
      </defs>
      <use xlink:href="#DejaVuSans-56"/>
      <use xlink:href="#DejaVuSans-65" x="60.658203"/>
      <use xlink:href="#DejaVuSans-6c" x="122.181641"/>
      <use xlink:href="#DejaVuSans-6f" x="149.964844"/>
      <use xlink:href="#DejaVuSans-63" x="211.146484"/>
      <use xlink:href="#DejaVuSans-69" x="266.126953"/>
      <use xlink:href="#DejaVuSans-64" x="293.910156"/>
      <use xlink:href="#DejaVuSans-61" x="357.386719"/>
      <use xlink:href="#DejaVuSans-64" x="418.666016"/>
      <use xlink:href="#DejaVuSans-65" x="482.142578"/>
      <use xlink:href="#DejaVuSans-20" x="543.666016"/>
      <use xlink:href="#DejaVuSans-64" x="575.453125"/>
      <use xlink:href="#DejaVuSans-6f" x="638.929688"/>
      <use xlink:href="#DejaVuSans-20" x="700.111328"/>
      <use xlink:href="#DejaVuSans-56" x="731.898438"/>
      <use xlink:href="#DejaVuSans-65" x="792.556641"/>
      <use xlink:href="#DejaVuSans-6e" x="854.080078"/>
      <use xlink:href="#DejaVuSans-74" x="917.458984"/>
      <use xlink:href="#DejaVuSans-6f" x="956.667969"/>
      <use xlink:href="#DejaVuSans-20" x="1017.849609"/>
      <use xlink:href="#DejaVuSans-28" x="1049.636719"/>
      <use xlink:href="#DejaVuSans-6d" x="1088.650391"/>
      <use xlink:href="#DejaVuSans-2f" x="1186.0625"/>
      <use xlink:href="#DejaVuSans-73" x="1219.753906"/>
      <use xlink:href="#DejaVuSans-29" x="1271.853516"/>
     </g>
    </g>
   </g>
   <g id="line2d_17">
    <path d="M 230.727273 139.794593 
L 236.066986 170.643488 
L 241.406699 181.190524 
L 246.746411 171.448503 
L 252.086124 185.588097 
L 257.425837 181.155151 
L 262.76555 178.646668 
L 268.105263 171.393271 
L 273.444976 167.352279 
L 278.784689 173.674815 
L 284.124402 197.131524 
L 289.464115 208.97247 
L 294.803828 236.568701 
L 300.143541 225.08595 
L 305.483254 233.783648 
L 310.822967 247.582391 
L 316.162679 249.921115 
L 326.842105 264.325177 
L 332.181818 261.753097 
L 337.521531 251.523422 
L 342.861244 240.115056 
L 348.200957 196.781402 
L 353.54067 160.738117 
L 358.880383 137.203028 
L 364.220096 120.773418 
L 369.559809 118.9076 
L 374.899522 118.412089 
L 380.239234 114.819066 
L 385.578947 132.881263 
L 390.91866 149.873169 
L 396.258373 176.710453 
L 401.598086 182.276214 
L 406.937799 183.310183 
L 412.277512 174.212574 
L 417.617225 158.124845 
L 422.956938 187.929068 
L 428.296651 204.976731 
L 433.636364 200.394184 
L 438.976077 197.415227 
L 449.655502 187.741314 
L 454.995215 204.641607 
L 460.334928 212.46584 
L 465.674641 195.623393 
L 471.014354 190.247566 
L 476.354067 190.870505 
L 481.69378 176.752102 
L 487.033493 127.882126 
L 492.373206 107.044705 
L 497.712919 107.715369 
L 503.052632 118.23126 
L 508.392344 125.1769 
L 513.732057 119.784095 
L 519.07177 121.06601 
L 524.411483 126.859093 
L 529.751196 147.613732 
L 535.090909 138.602933 
L 540.430622 159.097789 
L 545.770335 174.634341 
L 551.110048 199.39201 
L 556.449761 202.31918 
L 561.789474 206.026089 
L 567.129187 205.767264 
L 572.4689 220.951897 
L 577.808612 226.038951 
L 583.148325 253.384688 
L 588.488038 216.583322 
L 593.827751 196.262936 
L 599.167464 189.456334 
L 604.507177 152.809129 
L 609.84689 124.037161 
L 615.186603 111.68365 
L 620.526316 98.905658 
L 625.866029 97.637009 
L 631.205742 94.065227 
L 636.545455 102.867347 
L 641.885167 109.863359 
L 647.22488 133.425181 
L 652.564593 138.928319 
L 657.904306 146.372566 
L 663.244019 165.189091 
L 668.583732 155.131339 
L 673.923445 164.381412 
L 679.263158 183.519377 
L 684.602871 183.632389 
L 689.942584 184.412385 
L 695.282297 193.56749 
L 700.62201 187.699382 
L 705.961722 202.901959 
L 711.301435 222.673708 
L 716.641148 228.544571 
L 721.980861 204.558084 
L 727.320574 198.103693 
L 732.660287 156.039828 
L 738 121.702699 
L 748.679426 111.191551 
L 754.019139 106.532099 
L 759.358852 100.013686 
L 764.698565 107.811118 
L 770.038278 112.026064 
L 775.37799 119.407905 
L 780.717703 159.450375 
L 786.057416 175.103051 
L 791.397129 166.312917 
L 796.736842 148.195687 
L 802.076555 155.388758 
L 807.416268 207.730305 
L 812.755981 254.866984 
L 818.095694 259.065567 
L 823.435407 269.534769 
L 828.77512 256.566165 
L 834.114833 229.711527 
L 839.454545 231.321084 
L 844.794258 240.926913 
L 850.133971 226.707758 
L 855.473684 210.1407 
L 860.813397 200.956097 
L 866.15311 170.544176 
L 871.492823 127.753966 
L 876.832536 111.066038 
L 882.172249 121.136291 
L 887.511962 116.529907 
L 892.851675 118.122227 
L 898.191388 126.629458 
L 903.5311 150.045675 
L 908.870813 167.382359 
L 914.210526 154.299307 
L 919.550239 165.362179 
L 924.889952 170.545441 
L 930.229665 162.331552 
L 935.569378 176.447707 
L 940.909091 165.979574 
L 946.248804 183.477095 
L 951.588517 192.760277 
L 956.92823 186.09253 
L 962.267943 194.654178 
L 967.607656 213.190329 
L 972.947368 229.055529 
L 978.287081 217.970342 
L 983.626794 202.522565 
L 988.966507 165.301037 
L 994.30622 130.54179 
L 999.645933 117.976272 
L 1004.985646 132.070121 
L 1010.325359 123.729903 
L 1015.665072 123.123711 
L 1021.004785 131.017375 
L 1026.344498 137.85588 
L 1031.684211 160.804452 
L 1037.023923 173.639225 
L 1042.363636 164.160465 
L 1047.703349 184.231539 
L 1053.043062 191.699724 
L 1058.382775 169.994798 
L 1063.722488 205.626436 
L 1069.062201 208.342357 
L 1074.401914 221.403111 
L 1079.741627 246.041268 
L 1085.08134 240.37294 
L 1090.421053 244.459901 
L 1095.760766 246.49716 
L 1101.100478 215.343063 
L 1106.440191 229.470547 
L 1111.779904 238.459622 
L 1117.119617 215.687883 
L 1122.45933 201.217111 
L 1127.799043 170.182069 
L 1133.138756 133.852359 
L 1138.478469 120.862443 
L 1143.818182 115.793491 
L 1149.157895 121.094609 
L 1154.497608 125.754744 
L 1159.837321 137.094494 
L 1165.177033 134.309766 
L 1170.516746 142.593587 
L 1175.856459 166.553123 
L 1181.196172 179.53956 
L 1186.535885 159.284311 
L 1191.875598 155.873398 
L 1197.215311 167.124874 
L 1202.555024 183.496987 
L 1207.894737 190.299037 
L 1213.23445 209.772425 
L 1218.574163 219.801836 
L 1223.913876 237.683612 
L 1229.253589 238.076715 
L 1234.593301 226.802984 
L 1239.933014 193.76896 
L 1245.272727 155.151298 
L 1245.272727 155.151298 
" clip-path="url(#p69dd9027d8)" style="fill: none; stroke: #0000ff; stroke-width: 1.5; stroke-linecap: square"/>
   </g>
   <g id="line2d_18">
    <path d="M 230.727273 174.019278 
L 236.066986 183.338268 
L 241.406699 167.143978 
L 246.746411 185.32619 
L 252.086124 182.853409 
L 257.425837 179.265452 
L 262.76555 173.088349 
L 268.105263 168.084604 
L 273.444976 175.687193 
L 278.784689 200.298635 
L 284.124402 210.781286 
L 289.464115 230.670201 
L 294.803828 219.605719 
L 300.143541 231.106574 
L 305.483254 246.699638 
L 310.822967 249.901393 
L 316.162679 258.995662 
L 321.502392 269.119518 
L 326.842105 267.470997 
L 332.181818 253.53615 
L 337.521531 242.43288 
L 342.861244 197.806459 
L 348.200957 159.599573 
L 353.54067 133.727497 
L 358.880383 109.455457 
L 364.220096 111.530654 
L 369.559809 112.199759 
L 374.899522 110.192443 
L 380.239234 137.519095 
L 385.578947 156.079497 
L 390.91866 185.035274 
L 396.258373 189.292336 
L 401.598086 190.630546 
L 406.937799 179.934558 
L 412.277512 160.36565 
L 417.617225 180.438812 
L 422.956938 197.195536 
L 428.296651 194.800334 
L 433.636364 192.596327 
L 438.976077 188.534767 
L 444.315789 184.269349 
L 449.655502 206.213914 
L 454.995215 216.599593 
L 460.334928 210.820075 
L 465.674641 217.278396 
L 471.014354 215.300171 
L 476.354067 193.946982 
L 481.69378 133.805075 
L 487.033493 96.034561 
L 492.373206 93.261168 
L 497.712919 110.871245 
L 503.052632 126.638859 
L 508.392344 116.922286 
L 513.732057 112.034907 
L 519.07177 123.206057 
L 524.411483 151.318181 
L 529.751196 136.84999 
L 535.090909 162.120839 
L 540.430622 175.658102 
L 545.770335 190.262054 
L 551.110048 194.945791 
L 556.449761 200.056204 
L 561.789474 199.842868 
L 567.129187 213.273461 
L 572.4689 219.518445 
L 577.808612 252.02339 
L 583.148325 219.770571 
L 588.488038 211.120687 
L 593.827751 208.783667 
L 599.167464 170.64466 
L 604.507177 133.863258 
L 609.84689 107.137831 
L 615.186603 68.49457 
L 620.526316 82.361538 
L 625.866029 94.483013 
L 631.205742 112.888259 
L 636.545455 109.183937 
L 641.885167 143.996811 
L 647.22488 141.9701 
L 652.564593 145.461085 
L 657.904306 164.118458 
L 663.244019 152.704878 
L 668.583732 162.111142 
L 673.923445 172.855618 
L 679.263158 172.283483 
L 684.602871 173.330779 
L 689.942584 183.619486 
L 695.282297 179.566066 
L 700.62201 197.602818 
L 705.961722 219.440867 
L 711.301435 233.366017 
L 716.641148 218.839642 
L 721.980861 222.301535 
L 727.320574 169.257963 
L 732.660287 128.597689 
L 738 120.112657 
L 743.339713 107.574204 
L 748.679426 86.628297 
L 754.019139 92.485394 
L 759.358852 100.624165 
L 764.698565 108.55362 
L 770.038278 118.231405 
L 775.37799 167.919753 
L 780.717703 181.214586 
L 786.057416 166.164563 
L 791.397129 142.154346 
L 796.736842 150.338766 
L 802.076555 196.536129 
L 807.416268 247.300863 
L 812.755981 252.3337 
L 818.095694 257.647754 
L 823.435407 247.378441 
L 828.77512 226.37435 
L 834.114833 230.311406 
L 839.454545 250.229412 
L 844.794258 247.509197 
L 850.133971 230.896262 
L 855.473684 215.319566 
L 860.813397 173.098046 
L 866.15311 117.533208 
L 871.492823 94.153309 
L 876.832536 110.638513 
L 882.172249 104.160798 
L 887.511962 103.811699 
L 892.851675 124.418205 
L 898.191388 155.778884 
L 903.5311 174.203525 
L 908.870813 157.175278 
L 914.210526 171.410737 
L 919.550239 174.193828 
L 924.889952 160.995966 
L 930.229665 165.340303 
L 935.569378 155.20675 
L 940.909091 175.532038 
L 946.248804 187.537147 
L 951.588517 183.144323 
L 956.92823 196.914318 
L 962.267943 215.600784 
L 967.607656 237.574593 
L 972.947368 235.208481 
L 978.287081 217.423854 
L 983.626794 177.422988 
L 988.966507 138.362749 
L 994.30622 115.923476 
L 999.645933 144.510761 
L 1004.985646 128.80133 
L 1010.325359 126.629163 
L 1015.665072 140.117939 
L 1021.004785 147.080513 
L 1026.344498 173.049561 
L 1031.684211 188.545653 
L 1037.023923 178.809685 
L 1042.363636 199.891353 
L 1047.703349 205.302379 
L 1053.043062 179.430305 
L 1058.382775 200.259846 
L 1063.722488 200.705917 
L 1069.062201 216.531713 
L 1074.401914 244.062006 
L 1079.741627 243.111682 
L 1085.08134 250.190624 
L 1090.421053 246.72873 
L 1095.760766 217.899015 
L 1101.100478 244.740808 
L 1106.440191 262.205429 
L 1111.779904 232.493271 
L 1117.119617 217.074756 
L 1122.45933 185.752865 
L 1127.799043 139.099735 
L 1133.138756 122.119973 
L 1138.478469 116.340455 
L 1143.818182 122.12967 
L 1149.157895 121.316299 
L 1154.497608 139.125449 
L 1159.837321 141.058565 
L 1165.177033 152.42366 
L 1170.516746 180.807304 
L 1175.856459 194.519115 
L 1181.196172 160.462621 
L 1186.535885 145.015015 
L 1191.875598 156.806785 
L 1197.215311 175.725982 
L 1202.555024 185.238915 
L 1207.894737 206.407858 
L 1213.23445 218.170537 
L 1218.574163 239.02917 
L 1223.913876 246.428118 
L 1229.253589 244.731111 
L 1234.593301 207.144843 
L 1239.933014 154.256426 
L 1245.272727 119.34658 
L 1245.272727 119.34658 
" clip-path="url(#p69dd9027d8)" style="fill: none; stroke: #ffa500; stroke-width: 1.5; stroke-linecap: square"/>
   </g>
   <g id="patch_3">
    <path d="M 180 320.4 
L 180 43.2 
" style="fill: none; stroke: #000000; stroke-width: 0.8; stroke-linejoin: miter; stroke-linecap: square"/>
   </g>
   <g id="patch_4">
    <path d="M 1296 320.4 
L 1296 43.2 
" style="fill: none; stroke: #000000; stroke-width: 0.8; stroke-linejoin: miter; stroke-linecap: square"/>
   </g>
   <g id="patch_5">
    <path d="M 180 320.4 
L 1296 320.4 
" style="fill: none; stroke: #000000; stroke-width: 0.8; stroke-linejoin: miter; stroke-linecap: square"/>
   </g>
   <g id="patch_6">
    <path d="M 180 43.2 
L 1296 43.2 
" style="fill: none; stroke: #000000; stroke-width: 0.8; stroke-linejoin: miter; stroke-linecap: square"/>
   </g>
   <g id="text_19">
    <!-- Previsão do vento para 1 hora(s) à frente com 7 camadas -->
    <g transform="translate(564.882187 37.2) scale(0.12 -0.12)">
     <defs>
      <path id="DejaVuSans-50" d="M 1259 4147 
L 1259 2394 
L 2053 2394 
Q 2494 2394 2734 2622 
Q 2975 2850 2975 3272 
Q 2975 3691 2734 3919 
Q 2494 4147 2053 4147 
L 1259 4147 
z
M 628 4666 
L 2053 4666 
Q 2838 4666 3239 4311 
Q 3641 3956 3641 3272 
Q 3641 2581 3239 2228 
Q 2838 1875 2053 1875 
L 1259 1875 
L 1259 0 
L 628 0 
L 628 4666 
z
" transform="scale(0.015625)"/>
      <path id="DejaVuSans-76" d="M 191 3500 
L 800 3500 
L 1894 563 
L 2988 3500 
L 3597 3500 
L 2284 0 
L 1503 0 
L 191 3500 
z
" transform="scale(0.015625)"/>
      <path id="DejaVuSans-e3" d="M 2194 1759 
Q 1497 1759 1228 1600 
Q 959 1441 959 1056 
Q 959 750 1161 570 
Q 1363 391 1709 391 
Q 2188 391 2477 730 
Q 2766 1069 2766 1631 
L 2766 1759 
L 2194 1759 
z
M 3341 1997 
L 3341 0 
L 2766 0 
L 2766 531 
Q 2569 213 2275 61 
Q 1981 -91 1556 -91 
Q 1019 -91 701 211 
Q 384 513 384 1019 
Q 384 1609 779 1909 
Q 1175 2209 1959 2209 
L 2766 2209 
L 2766 2266 
Q 2766 2663 2505 2880 
Q 2244 3097 1772 3097 
Q 1472 3097 1187 3025 
Q 903 2953 641 2809 
L 641 3341 
Q 956 3463 1253 3523 
Q 1550 3584 1831 3584 
Q 2591 3584 2966 3190 
Q 3341 2797 3341 1997 
z
M 1844 4281 
L 1666 4453 
Q 1597 4516 1545 4545 
Q 1494 4575 1453 4575 
Q 1334 4575 1278 4461 
Q 1222 4347 1216 4091 
L 825 4091 
Q 831 4513 990 4742 
Q 1150 4972 1434 4972 
Q 1553 4972 1653 4928 
Q 1753 4884 1869 4781 
L 2047 4609 
Q 2116 4547 2167 4517 
Q 2219 4488 2259 4488 
Q 2378 4488 2434 4602 
Q 2491 4716 2497 4972 
L 2888 4972 
Q 2881 4550 2722 4320 
Q 2563 4091 2278 4091 
Q 2159 4091 2059 4134 
Q 1959 4178 1844 4281 
z
" transform="scale(0.015625)"/>
      <path id="DejaVuSans-70" d="M 1159 525 
L 1159 -1331 
L 581 -1331 
L 581 3500 
L 1159 3500 
L 1159 2969 
Q 1341 3281 1617 3432 
Q 1894 3584 2278 3584 
Q 2916 3584 3314 3078 
Q 3713 2572 3713 1747 
Q 3713 922 3314 415 
Q 2916 -91 2278 -91 
Q 1894 -91 1617 61 
Q 1341 213 1159 525 
z
M 3116 1747 
Q 3116 2381 2855 2742 
Q 2594 3103 2138 3103 
Q 1681 3103 1420 2742 
Q 1159 2381 1159 1747 
Q 1159 1113 1420 752 
Q 1681 391 2138 391 
Q 2594 391 2855 752 
Q 3116 1113 3116 1747 
z
" transform="scale(0.015625)"/>
      <path id="DejaVuSans-68" d="M 3513 2113 
L 3513 0 
L 2938 0 
L 2938 2094 
Q 2938 2591 2744 2837 
Q 2550 3084 2163 3084 
Q 1697 3084 1428 2787 
Q 1159 2491 1159 1978 
L 1159 0 
L 581 0 
L 581 4863 
L 1159 4863 
L 1159 2956 
Q 1366 3272 1645 3428 
Q 1925 3584 2291 3584 
Q 2894 3584 3203 3211 
Q 3513 2838 3513 2113 
z
" transform="scale(0.015625)"/>
      <path id="DejaVuSans-e0" d="M 2194 1759 
Q 1497 1759 1228 1600 
Q 959 1441 959 1056 
Q 959 750 1161 570 
Q 1363 391 1709 391 
Q 2188 391 2477 730 
Q 2766 1069 2766 1631 
L 2766 1759 
L 2194 1759 
z
M 3341 1997 
L 3341 0 
L 2766 0 
L 2766 531 
Q 2569 213 2275 61 
Q 1981 -91 1556 -91 
Q 1019 -91 701 211 
Q 384 513 384 1019 
Q 384 1609 779 1909 
Q 1175 2209 1959 2209 
L 2766 2209 
L 2766 2266 
Q 2766 2663 2505 2880 
Q 2244 3097 1772 3097 
Q 1472 3097 1187 3025 
Q 903 2953 641 2809 
L 641 3341 
Q 956 3463 1253 3523 
Q 1550 3584 1831 3584 
Q 2591 3584 2966 3190 
Q 3341 2797 3341 1997 
z
M 1403 5119 
L 2284 3950 
L 1806 3950 
L 788 5119 
L 1403 5119 
z
" transform="scale(0.015625)"/>
      <path id="DejaVuSans-66" d="M 2375 4863 
L 2375 4384 
L 1825 4384 
Q 1516 4384 1395 4259 
Q 1275 4134 1275 3809 
L 1275 3500 
L 2222 3500 
L 2222 3053 
L 1275 3053 
L 1275 0 
L 697 0 
L 697 3053 
L 147 3053 
L 147 3500 
L 697 3500 
L 697 3744 
Q 697 4328 969 4595 
Q 1241 4863 1831 4863 
L 2375 4863 
z
" transform="scale(0.015625)"/>
     </defs>
     <use xlink:href="#DejaVuSans-50"/>
     <use xlink:href="#DejaVuSans-72" x="58.552734"/>
     <use xlink:href="#DejaVuSans-65" x="97.416016"/>
     <use xlink:href="#DejaVuSans-76" x="158.939453"/>
     <use xlink:href="#DejaVuSans-69" x="218.119141"/>
     <use xlink:href="#DejaVuSans-73" x="245.902344"/>
     <use xlink:href="#DejaVuSans-e3" x="298.001953"/>
     <use xlink:href="#DejaVuSans-6f" x="359.28125"/>
     <use xlink:href="#DejaVuSans-20" x="420.462891"/>
     <use xlink:href="#DejaVuSans-64" x="452.25"/>
     <use xlink:href="#DejaVuSans-6f" x="515.726562"/>
     <use xlink:href="#DejaVuSans-20" x="576.908203"/>
     <use xlink:href="#DejaVuSans-76" x="608.695312"/>
     <use xlink:href="#DejaVuSans-65" x="667.875"/>
     <use xlink:href="#DejaVuSans-6e" x="729.398438"/>
     <use xlink:href="#DejaVuSans-74" x="792.777344"/>
     <use xlink:href="#DejaVuSans-6f" x="831.986328"/>
     <use xlink:href="#DejaVuSans-20" x="893.167969"/>
     <use xlink:href="#DejaVuSans-70" x="924.955078"/>
     <use xlink:href="#DejaVuSans-61" x="988.431641"/>
     <use xlink:href="#DejaVuSans-72" x="1049.710938"/>
     <use xlink:href="#DejaVuSans-61" x="1090.824219"/>
     <use xlink:href="#DejaVuSans-20" x="1152.103516"/>
     <use xlink:href="#DejaVuSans-31" x="1183.890625"/>
     <use xlink:href="#DejaVuSans-20" x="1247.513672"/>
     <use xlink:href="#DejaVuSans-68" x="1279.300781"/>
     <use xlink:href="#DejaVuSans-6f" x="1342.679688"/>
     <use xlink:href="#DejaVuSans-72" x="1403.861328"/>
     <use xlink:href="#DejaVuSans-61" x="1444.974609"/>
     <use xlink:href="#DejaVuSans-28" x="1506.253906"/>
     <use xlink:href="#DejaVuSans-73" x="1545.267578"/>
     <use xlink:href="#DejaVuSans-29" x="1597.367188"/>
     <use xlink:href="#DejaVuSans-20" x="1636.380859"/>
     <use xlink:href="#DejaVuSans-e0" x="1668.167969"/>
     <use xlink:href="#DejaVuSans-20" x="1729.447266"/>
     <use xlink:href="#DejaVuSans-66" x="1761.234375"/>
     <use xlink:href="#DejaVuSans-72" x="1796.439453"/>
     <use xlink:href="#DejaVuSans-65" x="1835.302734"/>
     <use xlink:href="#DejaVuSans-6e" x="1896.826172"/>
     <use xlink:href="#DejaVuSans-74" x="1960.205078"/>
     <use xlink:href="#DejaVuSans-65" x="1999.414062"/>
     <use xlink:href="#DejaVuSans-20" x="2060.9375"/>
     <use xlink:href="#DejaVuSans-63" x="2092.724609"/>
     <use xlink:href="#DejaVuSans-6f" x="2147.705078"/>
     <use xlink:href="#DejaVuSans-6d" x="2208.886719"/>
     <use xlink:href="#DejaVuSans-20" x="2306.298828"/>
     <use xlink:href="#DejaVuSans-37" x="2338.085938"/>
     <use xlink:href="#DejaVuSans-20" x="2401.708984"/>
     <use xlink:href="#DejaVuSans-63" x="2433.496094"/>
     <use xlink:href="#DejaVuSans-61" x="2488.476562"/>
     <use xlink:href="#DejaVuSans-6d" x="2549.755859"/>
     <use xlink:href="#DejaVuSans-61" x="2647.167969"/>
     <use xlink:href="#DejaVuSans-64" x="2708.447266"/>
     <use xlink:href="#DejaVuSans-61" x="2771.923828"/>
     <use xlink:href="#DejaVuSans-73" x="2833.203125"/>
    </g>
   </g>
   <g id="legend_1">
    <g id="patch_7">
     <path d="M 1217.86875 80.55625 
L 1289 80.55625 
Q 1291 80.55625 1291 78.55625 
L 1291 50.2 
Q 1291 48.2 1289 48.2 
L 1217.86875 48.2 
Q 1215.86875 48.2 1215.86875 50.2 
L 1215.86875 78.55625 
Q 1215.86875 80.55625 1217.86875 80.55625 
z
" style="fill: #ffffff; opacity: 0.8; stroke: #cccccc; stroke-linejoin: miter"/>
    </g>
    <g id="line2d_19">
     <path d="M 1219.86875 56.298437 
L 1229.86875 56.298437 
L 1239.86875 56.298437 
" style="fill: none; stroke: #0000ff; stroke-width: 1.5; stroke-linecap: square"/>
    </g>
    <g id="text_20">
     <!-- Predito -->
     <g transform="translate(1247.86875 59.798437) scale(0.1 -0.1)">
      <use xlink:href="#DejaVuSans-50"/>
      <use xlink:href="#DejaVuSans-72" x="58.552734"/>
      <use xlink:href="#DejaVuSans-65" x="97.416016"/>
      <use xlink:href="#DejaVuSans-64" x="158.939453"/>
      <use xlink:href="#DejaVuSans-69" x="222.416016"/>
      <use xlink:href="#DejaVuSans-74" x="250.199219"/>
      <use xlink:href="#DejaVuSans-6f" x="289.408203"/>
     </g>
    </g>
    <g id="line2d_20">
     <path d="M 1219.86875 70.976562 
L 1229.86875 70.976562 
L 1239.86875 70.976562 
" style="fill: none; stroke: #ffa500; stroke-width: 1.5; stroke-linecap: square"/>
    </g>
    <g id="text_21">
     <!-- Original -->
     <g transform="translate(1247.86875 74.476562) scale(0.1 -0.1)">
      <defs>
       <path id="DejaVuSans-4f" d="M 2522 4238 
Q 1834 4238 1429 3725 
Q 1025 3213 1025 2328 
Q 1025 1447 1429 934 
Q 1834 422 2522 422 
Q 3209 422 3611 934 
Q 4013 1447 4013 2328 
Q 4013 3213 3611 3725 
Q 3209 4238 2522 4238 
z
M 2522 4750 
Q 3503 4750 4090 4092 
Q 4678 3434 4678 2328 
Q 4678 1225 4090 567 
Q 3503 -91 2522 -91 
Q 1538 -91 948 565 
Q 359 1222 359 2328 
Q 359 3434 948 4092 
Q 1538 4750 2522 4750 
z
" transform="scale(0.015625)"/>
       <path id="DejaVuSans-67" d="M 2906 1791 
Q 2906 2416 2648 2759 
Q 2391 3103 1925 3103 
Q 1463 3103 1205 2759 
Q 947 2416 947 1791 
Q 947 1169 1205 825 
Q 1463 481 1925 481 
Q 2391 481 2648 825 
Q 2906 1169 2906 1791 
z
M 3481 434 
Q 3481 -459 3084 -895 
Q 2688 -1331 1869 -1331 
Q 1566 -1331 1297 -1286 
Q 1028 -1241 775 -1147 
L 775 -588 
Q 1028 -725 1275 -790 
Q 1522 -856 1778 -856 
Q 2344 -856 2625 -561 
Q 2906 -266 2906 331 
L 2906 616 
Q 2728 306 2450 153 
Q 2172 0 1784 0 
Q 1141 0 747 490 
Q 353 981 353 1791 
Q 353 2603 747 3093 
Q 1141 3584 1784 3584 
Q 2172 3584 2450 3431 
Q 2728 3278 2906 2969 
L 2906 3500 
L 3481 3500 
L 3481 434 
z
" transform="scale(0.015625)"/>
      </defs>
      <use xlink:href="#DejaVuSans-4f"/>
      <use xlink:href="#DejaVuSans-72" x="78.710938"/>
      <use xlink:href="#DejaVuSans-69" x="119.824219"/>
      <use xlink:href="#DejaVuSans-67" x="147.607422"/>
      <use xlink:href="#DejaVuSans-69" x="211.083984"/>
      <use xlink:href="#DejaVuSans-6e" x="238.867188"/>
      <use xlink:href="#DejaVuSans-61" x="302.246094"/>
      <use xlink:href="#DejaVuSans-6c" x="363.525391"/>
     </g>
    </g>
   </g>
  </g>
 </g>
 <defs>
  <clipPath id="p69dd9027d8">
   <rect x="180" y="43.2" width="1116" height="277.2"/>
  </clipPath>
 </defs>
</svg>
