<?xml version="1.0" encoding="utf-8" standalone="no"?>
<!DOCTYPE svg PUBLIC "-//W3C//DTD SVG 1.1//EN"
  "http://www.w3.org/Graphics/SVG/1.1/DTD/svg11.dtd">
<svg xmlns:xlink="http://www.w3.org/1999/xlink" width="1440pt" height="360pt" viewBox="0 0 1440 360" xmlns="http://www.w3.org/2000/svg" version="1.1">
 <metadata>
  <rdf:RDF xmlns:dc="http://purl.org/dc/elements/1.1/" xmlns:cc="http://creativecommons.org/ns#" xmlns:rdf="http://www.w3.org/1999/02/22-rdf-syntax-ns#">
   <cc:Work>
    <dc:type rdf:resource="http://purl.org/dc/dcmitype/StillImage"/>
    <dc:date>2023-08-21T13:56:32.739369</dc:date>
    <dc:format>image/svg+xml</dc:format>
    <dc:creator>
     <cc:Agent>
      <dc:title>Matplotlib v3.7.1, https://matplotlib.org/</dc:title>
     </cc:Agent>
    </dc:creator>
   </cc:Work>
  </rdf:RDF>
 </metadata>
 <defs>
  <style type="text/css">*{stroke-linejoin: round; stroke-linecap: butt}</style>
 </defs>
 <g id="figure_1">
  <g id="patch_1">
   <path d="M 0 360 
L 1440 360 
L 1440 0 
L 0 0 
z
" style="fill: #ffffff"/>
  </g>
  <g id="axes_1">
   <g id="patch_2">
    <path d="M 180 320.4 
L 1296 320.4 
L 1296 43.2 
L 180 43.2 
z
" style="fill: #ffffff"/>
   </g>
   <g id="PolyCollection_1">
    <defs>
     <path id="mf16e0cfecf" d="M 230.727273 -250.916839 
L 230.727273 -102.497356 
L 236.066986 -125.187822 
L 241.406699 -114.976602 
L 246.746411 -101.183618 
L 252.086124 -104.265224 
L 257.425837 -104.77247 
L 262.76555 -102.051471 
L 268.105263 -103.60554 
L 273.444976 -98.49952 
L 278.784689 -100.706404 
L 284.124402 -107.769077 
L 289.464115 -109.725136 
L 294.803828 -97.597783 
L 300.143541 -102.701298 
L 305.483254 -99.417902 
L 310.822967 -94.73352 
L 316.162679 -94.527168 
L 321.502392 -91.599568 
L 326.842105 -90.388991 
L 332.181818 -94.388167 
L 337.521531 -97.429094 
L 342.861244 -101.309957 
L 348.200957 -111.237178 
L 353.54067 -113.905546 
L 358.880383 -114.211991 
L 364.220096 -113.551574 
L 369.559809 -112.567049 
L 374.899522 -109.235495 
L 380.239234 -111.677051 
L 385.578947 -110.73251 
L 390.91866 -109.170568 
L 396.258373 -111.155905 
L 401.598086 -108.918183 
L 406.937799 -109.361893 
L 412.277512 -105.116864 
L 417.617225 -94.543169 
L 422.956938 -125.166482 
L 428.296651 -114.156994 
L 433.636364 -115.258382 
L 438.976077 -115.502023 
L 444.315789 -117.39837 
L 449.655502 -118.131301 
L 454.995215 -112.517778 
L 460.334928 -113.956208 
L 465.674641 -138.054668 
L 471.014354 -155.780502 
L 476.354067 -143.502526 
L 481.69378 -138.889639 
L 487.033493 -134.132326 
L 492.373206 -126.184328 
L 497.712919 -115.972859 
L 503.052632 -107.988244 
L 508.392344 -109.924399 
L 513.732057 -102.813013 
L 519.07177 -91.93688 
L 524.411483 -90.500332 
L 529.751196 -95.86549 
L 535.090909 -87.554182 
L 540.430622 -92.268494 
L 545.770335 -94.260876 
L 551.110048 -118.156009 
L 556.449761 -115.466286 
L 561.789474 -111.644272 
L 567.129187 -109.914103 
L 572.4689 -100.649899 
L 577.808612 -98.681251 
L 583.148325 -90.287426 
L 588.488038 -108.566569 
L 593.827751 -135.441399 
L 599.167464 -144.925386 
L 604.507177 -150.808517 
L 609.84689 -148.985754 
L 615.186603 -134.236095 
L 620.526316 -122.570203 
L 625.866029 -122.809465 
L 631.205742 -139.288781 
L 636.545455 -141.110416 
L 641.885167 -115.375435 
L 647.22488 -122.274553 
L 652.564593 -106.373356 
L 657.904306 -92.031876 
L 663.244019 -90.407021 
L 668.583732 -83.524454 
L 673.923445 -84.68948 
L 679.263158 -127.620003 
L 684.602871 -124.967307 
L 689.942584 -123.032001 
L 695.282297 -115.925126 
L 700.62201 -118.385385 
L 705.961722 -111.23296 
L 711.301435 -102.659571 
L 716.641148 -109.478155 
L 721.980861 -133.76214 
L 727.320574 -150.604553 
L 732.660287 -137.870139 
L 738 -142.788972 
L 743.339713 -139.093912 
L 748.679426 -126.861251 
L 754.019139 -111.317601 
L 759.358852 -119.990899 
L 764.698565 -109.060984 
L 770.038278 -106.094066 
L 775.37799 -100.389099 
L 780.717703 -109.95211 
L 786.057416 -106.008268 
L 791.397129 -89.94739 
L 796.736842 -74.958505 
L 802.076555 -74.650442 
L 807.416268 -110.361504 
L 812.755981 -52.683138 
L 818.095694 -52.2 
L 823.435407 -77.028667 
L 828.77512 -85.747076 
L 834.114833 -102.222488 
L 839.454545 -105.142495 
L 844.794258 -107.812196 
L 850.133971 -128.535881 
L 855.473684 -124.236734 
L 860.813397 -114.581049 
L 866.15311 -111.371455 
L 871.492823 -112.678932 
L 876.832536 -114.810732 
L 882.172249 -104.099794 
L 887.511962 -97.320923 
L 892.851675 -89.022688 
L 898.191388 -92.227572 
L 903.5311 -96.71625 
L 908.870813 -98.720005 
L 914.210526 -91.933452 
L 919.550239 -95.923042 
L 924.889952 -92.052966 
L 930.229665 -79.262186 
L 935.569378 -130.389197 
L 940.909091 -135.543909 
L 946.248804 -123.08631 
L 951.588517 -116.994966 
L 956.92823 -119.703788 
L 962.267943 -113.882551 
L 967.607656 -102.692972 
L 972.947368 -100.592266 
L 978.287081 -115.6554 
L 983.626794 -114.366934 
L 988.966507 -120.645458 
L 994.30622 -122.876838 
L 999.645933 -114.453801 
L 1004.985646 -120.60042 
L 1010.325359 -110.161714 
L 1015.665072 -102.197978 
L 1021.004785 -103.500057 
L 1026.344498 -98.189911 
L 1031.684211 -100.468709 
L 1037.023923 -107.396929 
L 1042.363636 -104.642719 
L 1047.703349 -108.900637 
L 1053.043062 -108.552274 
L 1058.382775 -94.376209 
L 1063.722488 -110.152853 
L 1069.062201 -107.250422 
L 1074.401914 -97.98569 
L 1079.741627 -83.106367 
L 1085.08134 -88.228835 
L 1090.421053 -88.571962 
L 1095.760766 -87.438205 
L 1101.100478 -103.926309 
L 1106.440191 -114.091071 
L 1111.779904 -117.676738 
L 1117.119617 -113.21837 
L 1122.45933 -115.304533 
L 1127.799043 -116.509705 
L 1133.138756 -107.29209 
L 1138.478469 -103.567503 
L 1143.818182 -100.528869 
L 1149.157895 -94.769345 
L 1154.497608 -88.831846 
L 1159.837321 -92.806028 
L 1165.177033 -84.74157 
L 1170.516746 -88.556613 
L 1175.856459 -99.504806 
L 1181.196172 -106.056893 
L 1186.535885 -78.013895 
L 1191.875598 -148.150079 
L 1197.215311 -138.638909 
L 1202.555024 -123.898858 
L 1207.894737 -117.622912 
L 1213.23445 -105.379033 
L 1218.574163 -99.952764 
L 1223.913876 -93.112634 
L 1229.253589 -98.891616 
L 1234.593301 -115.474899 
L 1239.933014 -114.219592 
L 1245.272727 -112.285854 
L 1245.272727 -260.705337 
L 1245.272727 -260.705337 
L 1239.933014 -262.639076 
L 1234.593301 -263.894382 
L 1229.253589 -247.311107 
L 1223.913876 -241.532111 
L 1218.574163 -248.372247 
L 1213.23445 -253.798516 
L 1207.894737 -266.042396 
L 1202.555024 -272.318342 
L 1197.215311 -287.058393 
L 1191.875598 -296.569563 
L 1186.535885 -226.433371 
L 1181.196172 -254.476377 
L 1175.856459 -247.92429 
L 1170.516746 -236.976096 
L 1165.177033 -233.161054 
L 1159.837321 -241.225505 
L 1154.497608 -237.25133 
L 1149.157895 -243.188829 
L 1143.818182 -248.94836 
L 1138.478469 -251.986987 
L 1133.138756 -255.711574 
L 1127.799043 -264.929188 
L 1122.45933 -263.724016 
L 1117.119617 -261.637854 
L 1111.779904 -266.096221 
L 1106.440191 -262.510554 
L 1101.100478 -252.345792 
L 1095.760766 -235.857689 
L 1090.421053 -236.991446 
L 1085.08134 -236.648326 
L 1079.741627 -231.525851 
L 1074.401914 -246.405174 
L 1069.062201 -255.669905 
L 1063.722488 -258.572336 
L 1058.382775 -242.795692 
L 1053.043062 -256.971758 
L 1047.703349 -257.32012 
L 1042.363636 -253.062202 
L 1037.023923 -255.816412 
L 1031.684211 -248.888193 
L 1026.344498 -246.609402 
L 1021.004785 -251.919541 
L 1015.665072 -250.617454 
L 1010.325359 -258.581197 
L 1004.985646 -269.019904 
L 999.645933 -262.873285 
L 994.30622 -271.296322 
L 988.966507 -269.064941 
L 983.626794 -262.786418 
L 978.287081 -264.074883 
L 972.947368 -249.011749 
L 967.607656 -251.112455 
L 962.267943 -262.302035 
L 956.92823 -268.123271 
L 951.588517 -265.41445 
L 946.248804 -271.505794 
L 940.909091 -283.963392 
L 935.569378 -278.80868 
L 930.229665 -227.681677 
L 924.889952 -240.47245 
L 919.550239 -244.342533 
L 914.210526 -240.352936 
L 908.870813 -247.139482 
L 903.5311 -245.135734 
L 898.191388 -240.647063 
L 892.851675 -237.442171 
L 887.511962 -245.740407 
L 882.172249 -252.519278 
L 876.832536 -263.230216 
L 871.492823 -261.098415 
L 866.15311 -259.790939 
L 860.813397 -263.000532 
L 855.473684 -272.656218 
L 850.133971 -276.955365 
L 844.794258 -256.231679 
L 839.454545 -253.561978 
L 834.114833 -250.641972 
L 828.77512 -234.166567 
L 823.435407 -225.448143 
L 818.095694 -200.619476 
L 812.755981 -201.102629 
L 807.416268 -258.780988 
L 802.076555 -223.069933 
L 796.736842 -223.377989 
L 791.397129 -238.366866 
L 786.057416 -254.427751 
L 780.717703 -258.371594 
L 775.37799 -248.808576 
L 770.038278 -254.513549 
L 764.698565 -257.480468 
L 759.358852 -268.410383 
L 754.019139 -259.737084 
L 748.679426 -275.280735 
L 743.339713 -287.513395 
L 738 -291.208455 
L 732.660287 -286.289622 
L 727.320574 -299.024036 
L 721.980861 -282.181624 
L 716.641148 -257.897639 
L 711.301435 -251.079047 
L 705.961722 -259.652443 
L 700.62201 -266.804868 
L 695.282297 -264.34461 
L 689.942584 -271.451485 
L 684.602871 -273.38679 
L 679.263158 -276.039487 
L 673.923445 -233.108957 
L 668.583732 -231.94393 
L 663.244019 -238.826497 
L 657.904306 -240.451359 
L 652.564593 -254.79284 
L 647.22488 -270.694036 
L 641.885167 -263.794919 
L 636.545455 -289.5299 
L 631.205742 -287.708264 
L 625.866029 -271.228949 
L 620.526316 -270.989687 
L 615.186603 -282.655579 
L 609.84689 -297.405238 
L 604.507177 -299.228001 
L 599.167464 -293.344869 
L 593.827751 -283.860883 
L 588.488038 -256.986052 
L 583.148325 -238.70691 
L 577.808612 -247.100727 
L 572.4689 -249.069382 
L 567.129187 -258.333587 
L 561.789474 -260.063756 
L 556.449761 -263.88577 
L 551.110048 -266.575493 
L 545.770335 -242.680352 
L 540.430622 -240.687985 
L 535.090909 -235.973659 
L 529.751196 -244.284973 
L 524.411483 -238.919823 
L 519.07177 -240.356363 
L 513.732057 -251.232497 
L 508.392344 -258.343883 
L 503.052632 -256.407728 
L 497.712919 -264.392342 
L 492.373206 -274.603811 
L 487.033493 -282.55181 
L 481.69378 -287.309123 
L 476.354067 -291.922009 
L 471.014354 -304.2 
L 465.674641 -286.474151 
L 460.334928 -262.375691 
L 454.995215 -260.937262 
L 449.655502 -266.550784 
L 444.315789 -265.817853 
L 438.976077 -263.921507 
L 433.636364 -263.677866 
L 428.296651 -262.576477 
L 422.956938 -273.585966 
L 417.617225 -242.962646 
L 412.277512 -253.536347 
L 406.937799 -257.781377 
L 401.598086 -257.337666 
L 396.258373 -259.575389 
L 390.91866 -257.590052 
L 385.578947 -259.151993 
L 380.239234 -260.096534 
L 374.899522 -257.654979 
L 369.559809 -260.986532 
L 364.220096 -261.971057 
L 358.880383 -262.631474 
L 353.54067 -262.325029 
L 348.200957 -259.656661 
L 342.861244 -249.729448 
L 337.521531 -245.848585 
L 332.181818 -242.807658 
L 326.842105 -238.808482 
L 321.502392 -240.019058 
L 316.162679 -242.946652 
L 310.822967 -243.153004 
L 305.483254 -247.837378 
L 300.143541 -251.120789 
L 294.803828 -246.017266 
L 289.464115 -258.14462 
L 284.124402 -256.188561 
L 278.784689 -249.125888 
L 273.444976 -246.918996 
L 268.105263 -252.025023 
L 262.76555 -250.470962 
L 257.425837 -253.191954 
L 252.086124 -252.684708 
L 246.746411 -249.603109 
L 241.406699 -263.396085 
L 236.066986 -273.607305 
L 230.727273 -250.916839 
z
" style="stroke: #0000ff; stroke-opacity: 0.05"/>
    </defs>
    <g clip-path="url(#p01a8737d74)">
     <use xlink:href="#mf16e0cfecf" x="0" y="360" style="fill: #0000ff; fill-opacity: 0.05; stroke: #0000ff; stroke-opacity: 0.05"/>
    </g>
   </g>
   <g id="matplotlib.axis_1">
    <g id="xtick_1">
     <g id="line2d_1">
      <defs>
       <path id="maa28978d1c" d="M 0 0 
L 0 3.5 
" style="stroke: #000000; stroke-width: 0.8"/>
      </defs>
      <g>
       <use xlink:href="#maa28978d1c" x="230.727273" y="320.4" style="stroke: #000000; stroke-width: 0.8"/>
      </g>
     </g>
     <g id="text_1">
      <!-- 0 -->
      <g transform="translate(227.546023 334.998438) scale(0.1 -0.1)">
       <defs>
        <path id="DejaVuSans-30" d="M 2034 4250 
Q 1547 4250 1301 3770 
Q 1056 3291 1056 2328 
Q 1056 1369 1301 889 
Q 1547 409 2034 409 
Q 2525 409 2770 889 
Q 3016 1369 3016 2328 
Q 3016 3291 2770 3770 
Q 2525 4250 2034 4250 
z
M 2034 4750 
Q 2819 4750 3233 4129 
Q 3647 3509 3647 2328 
Q 3647 1150 3233 529 
Q 2819 -91 2034 -91 
Q 1250 -91 836 529 
Q 422 1150 422 2328 
Q 422 3509 836 4129 
Q 1250 4750 2034 4750 
z
" transform="scale(0.015625)"/>
       </defs>
       <use xlink:href="#DejaVuSans-30"/>
      </g>
     </g>
    </g>
    <g id="xtick_2">
     <g id="line2d_2">
      <g>
       <use xlink:href="#maa28978d1c" x="364.220096" y="320.4" style="stroke: #000000; stroke-width: 0.8"/>
      </g>
     </g>
     <g id="text_2">
      <!-- 25 -->
      <g transform="translate(357.857596 334.998438) scale(0.1 -0.1)">
       <defs>
        <path id="DejaVuSans-32" d="M 1228 531 
L 3431 531 
L 3431 0 
L 469 0 
L 469 531 
Q 828 903 1448 1529 
Q 2069 2156 2228 2338 
Q 2531 2678 2651 2914 
Q 2772 3150 2772 3378 
Q 2772 3750 2511 3984 
Q 2250 4219 1831 4219 
Q 1534 4219 1204 4116 
Q 875 4013 500 3803 
L 500 4441 
Q 881 4594 1212 4672 
Q 1544 4750 1819 4750 
Q 2544 4750 2975 4387 
Q 3406 4025 3406 3419 
Q 3406 3131 3298 2873 
Q 3191 2616 2906 2266 
Q 2828 2175 2409 1742 
Q 1991 1309 1228 531 
z
" transform="scale(0.015625)"/>
        <path id="DejaVuSans-35" d="M 691 4666 
L 3169 4666 
L 3169 4134 
L 1269 4134 
L 1269 2991 
Q 1406 3038 1543 3061 
Q 1681 3084 1819 3084 
Q 2600 3084 3056 2656 
Q 3513 2228 3513 1497 
Q 3513 744 3044 326 
Q 2575 -91 1722 -91 
Q 1428 -91 1123 -41 
Q 819 9 494 109 
L 494 744 
Q 775 591 1075 516 
Q 1375 441 1709 441 
Q 2250 441 2565 725 
Q 2881 1009 2881 1497 
Q 2881 1984 2565 2268 
Q 2250 2553 1709 2553 
Q 1456 2553 1204 2497 
Q 953 2441 691 2322 
L 691 4666 
z
" transform="scale(0.015625)"/>
       </defs>
       <use xlink:href="#DejaVuSans-32"/>
       <use xlink:href="#DejaVuSans-35" x="63.623047"/>
      </g>
     </g>
    </g>
    <g id="xtick_3">
     <g id="line2d_3">
      <g>
       <use xlink:href="#maa28978d1c" x="497.712919" y="320.4" style="stroke: #000000; stroke-width: 0.8"/>
      </g>
     </g>
     <g id="text_3">
      <!-- 50 -->
      <g transform="translate(491.350419 334.998438) scale(0.1 -0.1)">
       <use xlink:href="#DejaVuSans-35"/>
       <use xlink:href="#DejaVuSans-30" x="63.623047"/>
      </g>
     </g>
    </g>
    <g id="xtick_4">
     <g id="line2d_4">
      <g>
       <use xlink:href="#maa28978d1c" x="631.205742" y="320.4" style="stroke: #000000; stroke-width: 0.8"/>
      </g>
     </g>
     <g id="text_4">
      <!-- 75 -->
      <g transform="translate(624.843242 334.998438) scale(0.1 -0.1)">
       <defs>
        <path id="DejaVuSans-37" d="M 525 4666 
L 3525 4666 
L 3525 4397 
L 1831 0 
L 1172 0 
L 2766 4134 
L 525 4134 
L 525 4666 
z
" transform="scale(0.015625)"/>
       </defs>
       <use xlink:href="#DejaVuSans-37"/>
       <use xlink:href="#DejaVuSans-35" x="63.623047"/>
      </g>
     </g>
    </g>
    <g id="xtick_5">
     <g id="line2d_5">
      <g>
       <use xlink:href="#maa28978d1c" x="764.698565" y="320.4" style="stroke: #000000; stroke-width: 0.8"/>
      </g>
     </g>
     <g id="text_5">
      <!-- 100 -->
      <g transform="translate(755.154815 334.998438) scale(0.1 -0.1)">
       <defs>
        <path id="DejaVuSans-31" d="M 794 531 
L 1825 531 
L 1825 4091 
L 703 3866 
L 703 4441 
L 1819 4666 
L 2450 4666 
L 2450 531 
L 3481 531 
L 3481 0 
L 794 0 
L 794 531 
z
" transform="scale(0.015625)"/>
       </defs>
       <use xlink:href="#DejaVuSans-31"/>
       <use xlink:href="#DejaVuSans-30" x="63.623047"/>
       <use xlink:href="#DejaVuSans-30" x="127.246094"/>
      </g>
     </g>
    </g>
    <g id="xtick_6">
     <g id="line2d_6">
      <g>
       <use xlink:href="#maa28978d1c" x="898.191388" y="320.4" style="stroke: #000000; stroke-width: 0.8"/>
      </g>
     </g>
     <g id="text_6">
      <!-- 125 -->
      <g transform="translate(888.647638 334.998438) scale(0.1 -0.1)">
       <use xlink:href="#DejaVuSans-31"/>
       <use xlink:href="#DejaVuSans-32" x="63.623047"/>
       <use xlink:href="#DejaVuSans-35" x="127.246094"/>
      </g>
     </g>
    </g>
    <g id="xtick_7">
     <g id="line2d_7">
      <g>
       <use xlink:href="#maa28978d1c" x="1031.684211" y="320.4" style="stroke: #000000; stroke-width: 0.8"/>
      </g>
     </g>
     <g id="text_7">
      <!-- 150 -->
      <g transform="translate(1022.140461 334.998438) scale(0.1 -0.1)">
       <use xlink:href="#DejaVuSans-31"/>
       <use xlink:href="#DejaVuSans-35" x="63.623047"/>
       <use xlink:href="#DejaVuSans-30" x="127.246094"/>
      </g>
     </g>
    </g>
    <g id="xtick_8">
     <g id="line2d_8">
      <g>
       <use xlink:href="#maa28978d1c" x="1165.177033" y="320.4" style="stroke: #000000; stroke-width: 0.8"/>
      </g>
     </g>
     <g id="text_8">
      <!-- 175 -->
      <g transform="translate(1155.633283 334.998438) scale(0.1 -0.1)">
       <use xlink:href="#DejaVuSans-31"/>
       <use xlink:href="#DejaVuSans-37" x="63.623047"/>
       <use xlink:href="#DejaVuSans-35" x="127.246094"/>
      </g>
     </g>
    </g>
    <g id="text_9">
     <!-- Amostras -->
     <g transform="translate(714.360937 348.676562) scale(0.1 -0.1)">
      <defs>
       <path id="DejaVuSans-41" d="M 2188 4044 
L 1331 1722 
L 3047 1722 
L 2188 4044 
z
M 1831 4666 
L 2547 4666 
L 4325 0 
L 3669 0 
L 3244 1197 
L 1141 1197 
L 716 0 
L 50 0 
L 1831 4666 
z
" transform="scale(0.015625)"/>
       <path id="DejaVuSans-6d" d="M 3328 2828 
Q 3544 3216 3844 3400 
Q 4144 3584 4550 3584 
Q 5097 3584 5394 3201 
Q 5691 2819 5691 2113 
L 5691 0 
L 5113 0 
L 5113 2094 
Q 5113 2597 4934 2840 
Q 4756 3084 4391 3084 
Q 3944 3084 3684 2787 
Q 3425 2491 3425 1978 
L 3425 0 
L 2847 0 
L 2847 2094 
Q 2847 2600 2669 2842 
Q 2491 3084 2119 3084 
Q 1678 3084 1418 2786 
Q 1159 2488 1159 1978 
L 1159 0 
L 581 0 
L 581 3500 
L 1159 3500 
L 1159 2956 
Q 1356 3278 1631 3431 
Q 1906 3584 2284 3584 
Q 2666 3584 2933 3390 
Q 3200 3197 3328 2828 
z
" transform="scale(0.015625)"/>
       <path id="DejaVuSans-6f" d="M 1959 3097 
Q 1497 3097 1228 2736 
Q 959 2375 959 1747 
Q 959 1119 1226 758 
Q 1494 397 1959 397 
Q 2419 397 2687 759 
Q 2956 1122 2956 1747 
Q 2956 2369 2687 2733 
Q 2419 3097 1959 3097 
z
M 1959 3584 
Q 2709 3584 3137 3096 
Q 3566 2609 3566 1747 
Q 3566 888 3137 398 
Q 2709 -91 1959 -91 
Q 1206 -91 779 398 
Q 353 888 353 1747 
Q 353 2609 779 3096 
Q 1206 3584 1959 3584 
z
" transform="scale(0.015625)"/>
       <path id="DejaVuSans-73" d="M 2834 3397 
L 2834 2853 
Q 2591 2978 2328 3040 
Q 2066 3103 1784 3103 
Q 1356 3103 1142 2972 
Q 928 2841 928 2578 
Q 928 2378 1081 2264 
Q 1234 2150 1697 2047 
L 1894 2003 
Q 2506 1872 2764 1633 
Q 3022 1394 3022 966 
Q 3022 478 2636 193 
Q 2250 -91 1575 -91 
Q 1294 -91 989 -36 
Q 684 19 347 128 
L 347 722 
Q 666 556 975 473 
Q 1284 391 1588 391 
Q 1994 391 2212 530 
Q 2431 669 2431 922 
Q 2431 1156 2273 1281 
Q 2116 1406 1581 1522 
L 1381 1569 
Q 847 1681 609 1914 
Q 372 2147 372 2553 
Q 372 3047 722 3315 
Q 1072 3584 1716 3584 
Q 2034 3584 2315 3537 
Q 2597 3491 2834 3397 
z
" transform="scale(0.015625)"/>
       <path id="DejaVuSans-74" d="M 1172 4494 
L 1172 3500 
L 2356 3500 
L 2356 3053 
L 1172 3053 
L 1172 1153 
Q 1172 725 1289 603 
Q 1406 481 1766 481 
L 2356 481 
L 2356 0 
L 1766 0 
Q 1100 0 847 248 
Q 594 497 594 1153 
L 594 3053 
L 172 3053 
L 172 3500 
L 594 3500 
L 594 4494 
L 1172 4494 
z
" transform="scale(0.015625)"/>
       <path id="DejaVuSans-72" d="M 2631 2963 
Q 2534 3019 2420 3045 
Q 2306 3072 2169 3072 
Q 1681 3072 1420 2755 
Q 1159 2438 1159 1844 
L 1159 0 
L 581 0 
L 581 3500 
L 1159 3500 
L 1159 2956 
Q 1341 3275 1631 3429 
Q 1922 3584 2338 3584 
Q 2397 3584 2469 3576 
Q 2541 3569 2628 3553 
L 2631 2963 
z
" transform="scale(0.015625)"/>
       <path id="DejaVuSans-61" d="M 2194 1759 
Q 1497 1759 1228 1600 
Q 959 1441 959 1056 
Q 959 750 1161 570 
Q 1363 391 1709 391 
Q 2188 391 2477 730 
Q 2766 1069 2766 1631 
L 2766 1759 
L 2194 1759 
z
M 3341 1997 
L 3341 0 
L 2766 0 
L 2766 531 
Q 2569 213 2275 61 
Q 1981 -91 1556 -91 
Q 1019 -91 701 211 
Q 384 513 384 1019 
Q 384 1609 779 1909 
Q 1175 2209 1959 2209 
L 2766 2209 
L 2766 2266 
Q 2766 2663 2505 2880 
Q 2244 3097 1772 3097 
Q 1472 3097 1187 3025 
Q 903 2953 641 2809 
L 641 3341 
Q 956 3463 1253 3523 
Q 1550 3584 1831 3584 
Q 2591 3584 2966 3190 
Q 3341 2797 3341 1997 
z
" transform="scale(0.015625)"/>
      </defs>
      <use xlink:href="#DejaVuSans-41"/>
      <use xlink:href="#DejaVuSans-6d" x="68.408203"/>
      <use xlink:href="#DejaVuSans-6f" x="165.820312"/>
      <use xlink:href="#DejaVuSans-73" x="227.001953"/>
      <use xlink:href="#DejaVuSans-74" x="279.101562"/>
      <use xlink:href="#DejaVuSans-72" x="318.310547"/>
      <use xlink:href="#DejaVuSans-61" x="359.423828"/>
      <use xlink:href="#DejaVuSans-73" x="420.703125"/>
     </g>
    </g>
   </g>
   <g id="matplotlib.axis_2">
    <g id="ytick_1">
     <g id="line2d_9">
      <defs>
       <path id="m1750ca9bdc" d="M 0 0 
L -3.5 0 
" style="stroke: #000000; stroke-width: 0.8"/>
      </defs>
      <g>
       <use xlink:href="#m1750ca9bdc" x="180" y="305.898476" style="stroke: #000000; stroke-width: 0.8"/>
      </g>
     </g>
     <g id="text_10">
      <!-- 0.0 -->
      <g transform="translate(157.096875 309.697695) scale(0.1 -0.1)">
       <defs>
        <path id="DejaVuSans-2e" d="M 684 794 
L 1344 794 
L 1344 0 
L 684 0 
L 684 794 
z
" transform="scale(0.015625)"/>
       </defs>
       <use xlink:href="#DejaVuSans-30"/>
       <use xlink:href="#DejaVuSans-2e" x="63.623047"/>
       <use xlink:href="#DejaVuSans-30" x="95.410156"/>
      </g>
     </g>
    </g>
    <g id="ytick_2">
     <g id="line2d_10">
      <g>
       <use xlink:href="#m1750ca9bdc" x="180" y="267.504041" style="stroke: #000000; stroke-width: 0.8"/>
      </g>
     </g>
     <g id="text_11">
      <!-- 2.5 -->
      <g transform="translate(157.096875 271.30326) scale(0.1 -0.1)">
       <use xlink:href="#DejaVuSans-32"/>
       <use xlink:href="#DejaVuSans-2e" x="63.623047"/>
       <use xlink:href="#DejaVuSans-35" x="95.410156"/>
      </g>
     </g>
    </g>
    <g id="ytick_3">
     <g id="line2d_11">
      <g>
       <use xlink:href="#m1750ca9bdc" x="180" y="229.109606" style="stroke: #000000; stroke-width: 0.8"/>
      </g>
     </g>
     <g id="text_12">
      <!-- 5.0 -->
      <g transform="translate(157.096875 232.908825) scale(0.1 -0.1)">
       <use xlink:href="#DejaVuSans-35"/>
       <use xlink:href="#DejaVuSans-2e" x="63.623047"/>
       <use xlink:href="#DejaVuSans-30" x="95.410156"/>
      </g>
     </g>
    </g>
    <g id="ytick_4">
     <g id="line2d_12">
      <g>
       <use xlink:href="#m1750ca9bdc" x="180" y="190.715171" style="stroke: #000000; stroke-width: 0.8"/>
      </g>
     </g>
     <g id="text_13">
      <!-- 7.5 -->
      <g transform="translate(157.096875 194.51439) scale(0.1 -0.1)">
       <use xlink:href="#DejaVuSans-37"/>
       <use xlink:href="#DejaVuSans-2e" x="63.623047"/>
       <use xlink:href="#DejaVuSans-35" x="95.410156"/>
      </g>
     </g>
    </g>
    <g id="ytick_5">
     <g id="line2d_13">
      <g>
       <use xlink:href="#m1750ca9bdc" x="180" y="152.320736" style="stroke: #000000; stroke-width: 0.8"/>
      </g>
     </g>
     <g id="text_14">
      <!-- 10.0 -->
      <g transform="translate(150.734375 156.119955) scale(0.1 -0.1)">
       <use xlink:href="#DejaVuSans-31"/>
       <use xlink:href="#DejaVuSans-30" x="63.623047"/>
       <use xlink:href="#DejaVuSans-2e" x="127.246094"/>
       <use xlink:href="#DejaVuSans-30" x="159.033203"/>
      </g>
     </g>
    </g>
    <g id="ytick_6">
     <g id="line2d_14">
      <g>
       <use xlink:href="#m1750ca9bdc" x="180" y="113.926302" style="stroke: #000000; stroke-width: 0.8"/>
      </g>
     </g>
     <g id="text_15">
      <!-- 12.5 -->
      <g transform="translate(150.734375 117.72552) scale(0.1 -0.1)">
       <use xlink:href="#DejaVuSans-31"/>
       <use xlink:href="#DejaVuSans-32" x="63.623047"/>
       <use xlink:href="#DejaVuSans-2e" x="127.246094"/>
       <use xlink:href="#DejaVuSans-35" x="159.033203"/>
      </g>
     </g>
    </g>
    <g id="ytick_7">
     <g id="line2d_15">
      <g>
       <use xlink:href="#m1750ca9bdc" x="180" y="75.531867" style="stroke: #000000; stroke-width: 0.8"/>
      </g>
     </g>
     <g id="text_16">
      <!-- 15.0 -->
      <g transform="translate(150.734375 79.331085) scale(0.1 -0.1)">
       <use xlink:href="#DejaVuSans-31"/>
       <use xlink:href="#DejaVuSans-35" x="63.623047"/>
       <use xlink:href="#DejaVuSans-2e" x="127.246094"/>
       <use xlink:href="#DejaVuSans-30" x="159.033203"/>
      </g>
     </g>
    </g>
    <g id="text_17">
     <!-- Velocidade do Vento (m/s) -->
     <g transform="translate(144.654687 247.344531) rotate(-90) scale(0.1 -0.1)">
      <defs>
       <path id="DejaVuSans-56" d="M 1831 0 
L 50 4666 
L 709 4666 
L 2188 738 
L 3669 4666 
L 4325 4666 
L 2547 0 
L 1831 0 
z
" transform="scale(0.015625)"/>
       <path id="DejaVuSans-65" d="M 3597 1894 
L 3597 1613 
L 953 1613 
Q 991 1019 1311 708 
Q 1631 397 2203 397 
Q 2534 397 2845 478 
Q 3156 559 3463 722 
L 3463 178 
Q 3153 47 2828 -22 
Q 2503 -91 2169 -91 
Q 1331 -91 842 396 
Q 353 884 353 1716 
Q 353 2575 817 3079 
Q 1281 3584 2069 3584 
Q 2775 3584 3186 3129 
Q 3597 2675 3597 1894 
z
M 3022 2063 
Q 3016 2534 2758 2815 
Q 2500 3097 2075 3097 
Q 1594 3097 1305 2825 
Q 1016 2553 972 2059 
L 3022 2063 
z
" transform="scale(0.015625)"/>
       <path id="DejaVuSans-6c" d="M 603 4863 
L 1178 4863 
L 1178 0 
L 603 0 
L 603 4863 
z
" transform="scale(0.015625)"/>
       <path id="DejaVuSans-63" d="M 3122 3366 
L 3122 2828 
Q 2878 2963 2633 3030 
Q 2388 3097 2138 3097 
Q 1578 3097 1268 2742 
Q 959 2388 959 1747 
Q 959 1106 1268 751 
Q 1578 397 2138 397 
Q 2388 397 2633 464 
Q 2878 531 3122 666 
L 3122 134 
Q 2881 22 2623 -34 
Q 2366 -91 2075 -91 
Q 1284 -91 818 406 
Q 353 903 353 1747 
Q 353 2603 823 3093 
Q 1294 3584 2113 3584 
Q 2378 3584 2631 3529 
Q 2884 3475 3122 3366 
z
" transform="scale(0.015625)"/>
       <path id="DejaVuSans-69" d="M 603 3500 
L 1178 3500 
L 1178 0 
L 603 0 
L 603 3500 
z
M 603 4863 
L 1178 4863 
L 1178 4134 
L 603 4134 
L 603 4863 
z
" transform="scale(0.015625)"/>
       <path id="DejaVuSans-64" d="M 2906 2969 
L 2906 4863 
L 3481 4863 
L 3481 0 
L 2906 0 
L 2906 525 
Q 2725 213 2448 61 
Q 2172 -91 1784 -91 
Q 1150 -91 751 415 
Q 353 922 353 1747 
Q 353 2572 751 3078 
Q 1150 3584 1784 3584 
Q 2172 3584 2448 3432 
Q 2725 3281 2906 2969 
z
M 947 1747 
Q 947 1113 1208 752 
Q 1469 391 1925 391 
Q 2381 391 2643 752 
Q 2906 1113 2906 1747 
Q 2906 2381 2643 2742 
Q 2381 3103 1925 3103 
Q 1469 3103 1208 2742 
Q 947 2381 947 1747 
z
" transform="scale(0.015625)"/>
       <path id="DejaVuSans-20" transform="scale(0.015625)"/>
       <path id="DejaVuSans-6e" d="M 3513 2113 
L 3513 0 
L 2938 0 
L 2938 2094 
Q 2938 2591 2744 2837 
Q 2550 3084 2163 3084 
Q 1697 3084 1428 2787 
Q 1159 2491 1159 1978 
L 1159 0 
L 581 0 
L 581 3500 
L 1159 3500 
L 1159 2956 
Q 1366 3272 1645 3428 
Q 1925 3584 2291 3584 
Q 2894 3584 3203 3211 
Q 3513 2838 3513 2113 
z
" transform="scale(0.015625)"/>
       <path id="DejaVuSans-28" d="M 1984 4856 
Q 1566 4138 1362 3434 
Q 1159 2731 1159 2009 
Q 1159 1288 1364 580 
Q 1569 -128 1984 -844 
L 1484 -844 
Q 1016 -109 783 600 
Q 550 1309 550 2009 
Q 550 2706 781 3412 
Q 1013 4119 1484 4856 
L 1984 4856 
z
" transform="scale(0.015625)"/>
       <path id="DejaVuSans-2f" d="M 1625 4666 
L 2156 4666 
L 531 -594 
L 0 -594 
L 1625 4666 
z
" transform="scale(0.015625)"/>
       <path id="DejaVuSans-29" d="M 513 4856 
L 1013 4856 
Q 1481 4119 1714 3412 
Q 1947 2706 1947 2009 
Q 1947 1309 1714 600 
Q 1481 -109 1013 -844 
L 513 -844 
Q 928 -128 1133 580 
Q 1338 1288 1338 2009 
Q 1338 2731 1133 3434 
Q 928 4138 513 4856 
z
" transform="scale(0.015625)"/>
      </defs>
      <use xlink:href="#DejaVuSans-56"/>
      <use xlink:href="#DejaVuSans-65" x="60.658203"/>
      <use xlink:href="#DejaVuSans-6c" x="122.181641"/>
      <use xlink:href="#DejaVuSans-6f" x="149.964844"/>
      <use xlink:href="#DejaVuSans-63" x="211.146484"/>
      <use xlink:href="#DejaVuSans-69" x="266.126953"/>
      <use xlink:href="#DejaVuSans-64" x="293.910156"/>
      <use xlink:href="#DejaVuSans-61" x="357.386719"/>
      <use xlink:href="#DejaVuSans-64" x="418.666016"/>
      <use xlink:href="#DejaVuSans-65" x="482.142578"/>
      <use xlink:href="#DejaVuSans-20" x="543.666016"/>
      <use xlink:href="#DejaVuSans-64" x="575.453125"/>
      <use xlink:href="#DejaVuSans-6f" x="638.929688"/>
      <use xlink:href="#DejaVuSans-20" x="700.111328"/>
      <use xlink:href="#DejaVuSans-56" x="731.898438"/>
      <use xlink:href="#DejaVuSans-65" x="792.556641"/>
      <use xlink:href="#DejaVuSans-6e" x="854.080078"/>
      <use xlink:href="#DejaVuSans-74" x="917.458984"/>
      <use xlink:href="#DejaVuSans-6f" x="956.667969"/>
      <use xlink:href="#DejaVuSans-20" x="1017.849609"/>
      <use xlink:href="#DejaVuSans-28" x="1049.636719"/>
      <use xlink:href="#DejaVuSans-6d" x="1088.650391"/>
      <use xlink:href="#DejaVuSans-2f" x="1186.0625"/>
      <use xlink:href="#DejaVuSans-73" x="1219.753906"/>
      <use xlink:href="#DejaVuSans-29" x="1271.853516"/>
     </g>
    </g>
   </g>
   <g id="line2d_16">
    <path d="M 230.727273 183.292903 
L 236.066986 160.602436 
L 241.406699 170.813657 
L 246.746411 184.60664 
L 252.086124 181.525034 
L 257.425837 181.017788 
L 262.76555 183.738788 
L 268.105263 182.184718 
L 273.444976 187.290739 
L 278.784689 185.083854 
L 284.124402 178.021181 
L 289.464115 176.065122 
L 294.803828 188.192476 
L 300.143541 183.08896 
L 305.483254 186.372356 
L 310.822967 191.056738 
L 316.162679 191.26309 
L 321.502392 194.190691 
L 326.842105 195.401267 
L 332.181818 191.402091 
L 337.521531 188.361164 
L 342.861244 184.480301 
L 348.200957 174.55308 
L 353.54067 171.884712 
L 358.880383 171.578267 
L 364.220096 172.238684 
L 369.559809 173.22321 
L 374.899522 176.554763 
L 380.239234 174.113208 
L 385.578947 175.057748 
L 390.91866 176.61969 
L 396.258373 174.634353 
L 401.598086 176.872075 
L 406.937799 176.428365 
L 412.277512 180.673394 
L 417.617225 191.247089 
L 422.956938 160.623776 
L 428.296651 171.633264 
L 433.636364 170.531876 
L 438.976077 170.288235 
L 444.315789 168.391888 
L 449.655502 167.658958 
L 454.995215 173.27248 
L 460.334928 171.834051 
L 465.674641 147.735591 
L 471.014354 130.009756 
L 476.354067 142.287733 
L 487.033493 151.657932 
L 492.373206 159.605931 
L 497.712919 169.8174 
L 503.052632 177.802014 
L 508.392344 175.865859 
L 513.732057 182.977245 
L 519.07177 193.853379 
L 524.411483 195.289926 
L 529.751196 189.924768 
L 535.090909 198.236076 
L 540.430622 193.521764 
L 545.770335 191.529382 
L 551.110048 167.634249 
L 556.449761 170.323972 
L 561.789474 174.145986 
L 567.129187 175.876155 
L 572.4689 185.140359 
L 577.808612 187.109007 
L 583.148325 195.502832 
L 588.488038 177.223689 
L 593.827751 150.348859 
L 599.167464 140.864873 
L 604.507177 134.981741 
L 609.84689 136.804504 
L 615.186603 151.554163 
L 620.526316 163.220055 
L 625.866029 162.980793 
L 631.205742 146.501477 
L 636.545455 144.679842 
L 641.885167 170.414823 
L 647.22488 163.515706 
L 652.564593 179.416902 
L 657.904306 193.758383 
L 663.244019 195.383237 
L 668.583732 202.265804 
L 673.923445 201.100778 
L 679.263158 158.170255 
L 684.602871 160.822951 
L 689.942584 162.758257 
L 695.282297 169.865132 
L 700.62201 167.404873 
L 705.961722 174.557299 
L 711.301435 183.130687 
L 716.641148 176.312103 
L 721.980861 152.028118 
L 727.320574 135.185705 
L 732.660287 147.920119 
L 738 143.001286 
L 743.339713 146.696347 
L 748.679426 158.929007 
L 754.019139 174.472658 
L 759.358852 165.799359 
L 764.698565 176.729274 
L 770.038278 179.696192 
L 775.37799 185.401159 
L 780.717703 175.838148 
L 786.057416 179.78199 
L 791.397129 195.842868 
L 796.736842 210.831753 
L 802.076555 211.139816 
L 807.416268 175.428754 
L 812.755981 233.10712 
L 818.095694 233.590258 
L 823.435407 208.761591 
L 828.77512 200.043182 
L 834.114833 183.56777 
L 839.454545 180.647763 
L 844.794258 177.978063 
L 850.133971 157.254377 
L 855.473684 161.553524 
L 860.813397 171.20921 
L 866.15311 174.418803 
L 871.492823 173.111327 
L 876.832536 170.979526 
L 882.172249 181.690464 
L 887.511962 188.469335 
L 892.851675 196.767571 
L 898.191388 193.562686 
L 903.5311 189.074008 
L 908.870813 187.070253 
L 914.210526 193.856806 
L 919.550239 189.867216 
L 924.889952 193.737292 
L 930.229665 206.528072 
L 935.569378 155.401061 
L 940.909091 150.24635 
L 946.248804 162.703948 
L 951.588517 168.795292 
L 956.92823 166.086471 
L 962.267943 171.907707 
L 967.607656 183.097286 
L 972.947368 185.197993 
L 978.287081 170.134859 
L 983.626794 171.423324 
L 988.966507 165.144801 
L 994.30622 162.91342 
L 999.645933 171.336457 
L 1004.985646 165.189838 
L 1010.325359 175.628545 
L 1015.665072 183.592281 
L 1021.004785 182.290201 
L 1026.344498 187.600347 
L 1031.684211 185.321549 
L 1037.023923 178.393329 
L 1042.363636 181.14754 
L 1047.703349 176.889622 
L 1053.043062 177.237984 
L 1058.382775 191.41405 
L 1063.722488 175.637406 
L 1069.062201 178.539837 
L 1074.401914 187.804568 
L 1079.741627 202.683891 
L 1085.08134 197.561423 
L 1090.421053 197.218296 
L 1095.760766 198.352053 
L 1101.100478 181.863949 
L 1106.440191 171.699187 
L 1111.779904 168.113521 
L 1117.119617 172.571888 
L 1122.45933 170.485726 
L 1127.799043 169.280554 
L 1133.138756 178.498168 
L 1138.478469 182.222755 
L 1143.818182 185.261389 
L 1149.157895 191.020913 
L 1154.497608 196.958412 
L 1159.837321 192.98423 
L 1165.177033 201.048688 
L 1170.516746 197.233646 
L 1175.856459 186.285452 
L 1181.196172 179.733365 
L 1186.535885 207.776363 
L 1191.875598 137.640179 
L 1197.215311 147.151349 
L 1202.555024 161.8914 
L 1207.894737 168.167346 
L 1213.23445 180.411225 
L 1218.574163 185.837495 
L 1223.913876 192.677624 
L 1229.253589 186.898642 
L 1234.593301 170.31536 
L 1239.933014 171.570666 
L 1245.272727 173.504404 
L 1245.272727 173.504404 
" clip-path="url(#p01a8737d74)" style="fill: none; stroke: #0000ff; stroke-width: 1.5; stroke-linecap: square"/>
   </g>
   <g id="line2d_17">
    <path d="M 230.727273 163.557507 
L 236.066986 171.756853 
L 241.406699 157.508251 
L 246.746411 173.505932 
L 252.086124 171.330248 
L 257.425837 168.173372 
L 262.76555 162.738426 
L 268.105263 158.335864 
L 273.444976 165.025028 
L 278.784689 186.67949 
L 284.124402 195.902686 
L 289.464115 213.402016 
L 294.803828 203.666894 
L 300.143541 213.78596 
L 305.483254 227.505572 
L 310.822967 230.322647 
L 316.162679 238.324271 
L 321.502392 247.23178 
L 326.842105 245.781323 
L 332.181818 233.5207 
L 337.521531 223.75145 
L 342.861244 184.486741 
L 348.200957 150.87028 
L 353.54067 128.106646 
L 358.880383 106.750808 
L 364.220096 108.576677 
L 369.559809 109.165391 
L 374.899522 107.399247 
L 380.239234 131.442696 
L 385.578947 147.773129 
L 390.91866 173.249969 
L 396.258373 176.99556 
L 401.598086 178.172989 
L 406.937799 168.762086 
L 412.277512 151.544316 
L 417.617225 169.205756 
L 422.956938 183.949218 
L 428.296651 181.841791 
L 433.636364 179.902587 
L 438.976077 176.329011 
L 444.315789 172.576067 
L 449.655502 191.884068 
L 454.995215 201.021944 
L 460.334928 195.936815 
L 465.674641 201.619191 
L 471.014354 199.878643 
L 476.354067 181.090966 
L 481.69378 128.174903 
L 487.033493 94.942386 
L 492.373206 92.502207 
L 497.712919 107.996493 
L 503.052632 121.869683 
L 508.392344 113.320523 
L 513.732057 109.020346 
L 519.07177 118.84932 
L 524.411483 143.583869 
L 529.751196 130.853981 
L 535.090909 153.088625 
L 540.430622 164.999432 
L 545.770335 177.84877 
L 551.110048 181.969772 
L 556.449761 186.466187 
L 561.789474 186.278481 
L 567.129187 198.095435 
L 572.4689 203.590106 
L 577.808612 232.189693 
L 583.148325 203.81194 
L 588.488038 196.20131 
L 593.827751 194.145074 
L 599.167464 160.588338 
L 604.507177 128.226096 
L 609.84689 104.711637 
L 615.186603 70.711231 
L 620.526316 82.912131 
L 625.866029 93.577252 
L 631.205742 109.771171 
L 636.545455 106.51191 
L 641.885167 137.142136 
L 647.22488 135.358928 
L 652.564593 138.430483 
L 657.904306 154.846237 
L 663.244019 144.803959 
L 668.583732 153.080093 
L 673.923445 162.533657 
L 679.263158 162.030263 
L 684.602871 162.951729 
L 689.942584 172.004284 
L 695.282297 168.437868 
L 700.62201 184.307566 
L 705.961722 203.521848 
L 711.301435 215.773939 
L 716.641148 202.992858 
L 721.980861 206.038817 
L 727.320574 159.368248 
L 732.660287 123.593166 
L 738 116.127582 
L 743.339713 105.095581 
L 748.679426 86.666253 
L 754.019139 91.81964 
L 764.698565 105.957323 
L 770.038278 114.472356 
L 775.37799 158.190819 
L 780.717703 169.888324 
L 786.057416 156.646509 
L 791.397129 135.521038 
L 796.736842 142.722128 
L 802.076555 183.369036 
L 807.416268 228.034562 
L 812.755981 232.46272 
L 818.095694 237.138309 
L 823.435407 228.102819 
L 828.77512 209.622297 
L 834.114833 213.086329 
L 839.454545 230.611255 
L 844.794258 228.217865 
L 850.133971 213.600917 
L 855.473684 199.895707 
L 860.813397 162.746958 
L 866.15311 113.858044 
L 871.492823 93.28716 
L 876.832536 107.791724 
L 882.172249 102.092284 
L 887.511962 101.785128 
L 892.851675 119.915833 
L 898.191388 147.508634 
L 903.5311 163.719618 
L 908.870813 148.737256 
L 914.210526 161.262374 
L 919.550239 163.711086 
L 924.889952 152.098902 
L 930.229665 155.921282 
L 935.569378 147.00524 
L 940.909091 164.888514 
L 946.248804 175.451251 
L 951.588517 171.58621 
L 956.92823 183.701787 
L 962.267943 200.143138 
L 967.607656 219.476869 
L 972.947368 217.395038 
L 978.287081 201.747172 
L 983.626794 166.552273 
L 988.966507 132.184988 
L 994.30622 112.441716 
L 999.645933 137.594337 
L 1004.985646 123.77234 
L 1010.325359 121.861152 
L 1015.665072 133.729298 
L 1021.004785 139.855343 
L 1026.344498 162.704299 
L 1031.684211 176.338589 
L 1037.023923 167.772364 
L 1042.363636 186.321141 
L 1047.703349 191.082051 
L 1053.043062 168.318418 
L 1058.382775 186.645361 
L 1063.722488 187.037838 
L 1069.062201 200.96222 
L 1074.401914 225.184842 
L 1079.741627 224.348697 
L 1085.08134 230.577127 
L 1090.421053 227.531168 
L 1095.760766 202.165245 
L 1101.100478 225.782089 
L 1106.440191 241.148395 
L 1111.779904 215.006051 
L 1117.119617 201.440017 
L 1122.45933 173.881345 
L 1127.799043 132.833428 
L 1133.138756 117.893726 
L 1138.478469 112.808597 
L 1143.818182 117.902258 
L 1149.157895 117.186611 
L 1154.497608 132.856052 
L 1159.837321 134.556911 
L 1165.177033 144.556529 
L 1170.516746 169.529975 
L 1175.856459 181.594359 
L 1181.196172 151.629636 
L 1186.535885 138.038007 
L 1191.875598 148.413037 
L 1197.215311 165.059157 
L 1202.555024 173.429144 
L 1207.894737 192.054711 
L 1213.23445 202.404144 
L 1218.574163 220.756684 
L 1223.913876 227.266673 
L 1229.253589 225.773557 
L 1234.593301 192.70315 
L 1239.933014 146.169095 
L 1245.272727 115.453547 
L 1245.272727 115.453547 
" clip-path="url(#p01a8737d74)" style="fill: none; stroke: #ffa500; stroke-width: 1.5; stroke-linecap: square"/>
   </g>
   <g id="patch_3">
    <path d="M 180 320.4 
L 180 43.2 
" style="fill: none; stroke: #000000; stroke-width: 0.8; stroke-linejoin: miter; stroke-linecap: square"/>
   </g>
   <g id="patch_4">
    <path d="M 1296 320.4 
L 1296 43.2 
" style="fill: none; stroke: #000000; stroke-width: 0.8; stroke-linejoin: miter; stroke-linecap: square"/>
   </g>
   <g id="patch_5">
    <path d="M 180 320.4 
L 1296 320.4 
" style="fill: none; stroke: #000000; stroke-width: 0.8; stroke-linejoin: miter; stroke-linecap: square"/>
   </g>
   <g id="patch_6">
    <path d="M 180 43.2 
L 1296 43.2 
" style="fill: none; stroke: #000000; stroke-width: 0.8; stroke-linejoin: miter; stroke-linecap: square"/>
   </g>
   <g id="text_18">
    <!-- Previsão do vento para 1 hora(s) à frente com 1 camadas -->
    <g transform="translate(564.882187 37.2) scale(0.12 -0.12)">
     <defs>
      <path id="DejaVuSans-50" d="M 1259 4147 
L 1259 2394 
L 2053 2394 
Q 2494 2394 2734 2622 
Q 2975 2850 2975 3272 
Q 2975 3691 2734 3919 
Q 2494 4147 2053 4147 
L 1259 4147 
z
M 628 4666 
L 2053 4666 
Q 2838 4666 3239 4311 
Q 3641 3956 3641 3272 
Q 3641 2581 3239 2228 
Q 2838 1875 2053 1875 
L 1259 1875 
L 1259 0 
L 628 0 
L 628 4666 
z
" transform="scale(0.015625)"/>
      <path id="DejaVuSans-76" d="M 191 3500 
L 800 3500 
L 1894 563 
L 2988 3500 
L 3597 3500 
L 2284 0 
L 1503 0 
L 191 3500 
z
" transform="scale(0.015625)"/>
      <path id="DejaVuSans-e3" d="M 2194 1759 
Q 1497 1759 1228 1600 
Q 959 1441 959 1056 
Q 959 750 1161 570 
Q 1363 391 1709 391 
Q 2188 391 2477 730 
Q 2766 1069 2766 1631 
L 2766 1759 
L 2194 1759 
z
M 3341 1997 
L 3341 0 
L 2766 0 
L 2766 531 
Q 2569 213 2275 61 
Q 1981 -91 1556 -91 
Q 1019 -91 701 211 
Q 384 513 384 1019 
Q 384 1609 779 1909 
Q 1175 2209 1959 2209 
L 2766 2209 
L 2766 2266 
Q 2766 2663 2505 2880 
Q 2244 3097 1772 3097 
Q 1472 3097 1187 3025 
Q 903 2953 641 2809 
L 641 3341 
Q 956 3463 1253 3523 
Q 1550 3584 1831 3584 
Q 2591 3584 2966 3190 
Q 3341 2797 3341 1997 
z
M 1844 4281 
L 1666 4453 
Q 1597 4516 1545 4545 
Q 1494 4575 1453 4575 
Q 1334 4575 1278 4461 
Q 1222 4347 1216 4091 
L 825 4091 
Q 831 4513 990 4742 
Q 1150 4972 1434 4972 
Q 1553 4972 1653 4928 
Q 1753 4884 1869 4781 
L 2047 4609 
Q 2116 4547 2167 4517 
Q 2219 4488 2259 4488 
Q 2378 4488 2434 4602 
Q 2491 4716 2497 4972 
L 2888 4972 
Q 2881 4550 2722 4320 
Q 2563 4091 2278 4091 
Q 2159 4091 2059 4134 
Q 1959 4178 1844 4281 
z
" transform="scale(0.015625)"/>
      <path id="DejaVuSans-70" d="M 1159 525 
L 1159 -1331 
L 581 -1331 
L 581 3500 
L 1159 3500 
L 1159 2969 
Q 1341 3281 1617 3432 
Q 1894 3584 2278 3584 
Q 2916 3584 3314 3078 
Q 3713 2572 3713 1747 
Q 3713 922 3314 415 
Q 2916 -91 2278 -91 
Q 1894 -91 1617 61 
Q 1341 213 1159 525 
z
M 3116 1747 
Q 3116 2381 2855 2742 
Q 2594 3103 2138 3103 
Q 1681 3103 1420 2742 
Q 1159 2381 1159 1747 
Q 1159 1113 1420 752 
Q 1681 391 2138 391 
Q 2594 391 2855 752 
Q 3116 1113 3116 1747 
z
" transform="scale(0.015625)"/>
      <path id="DejaVuSans-68" d="M 3513 2113 
L 3513 0 
L 2938 0 
L 2938 2094 
Q 2938 2591 2744 2837 
Q 2550 3084 2163 3084 
Q 1697 3084 1428 2787 
Q 1159 2491 1159 1978 
L 1159 0 
L 581 0 
L 581 4863 
L 1159 4863 
L 1159 2956 
Q 1366 3272 1645 3428 
Q 1925 3584 2291 3584 
Q 2894 3584 3203 3211 
Q 3513 2838 3513 2113 
z
" transform="scale(0.015625)"/>
      <path id="DejaVuSans-e0" d="M 2194 1759 
Q 1497 1759 1228 1600 
Q 959 1441 959 1056 
Q 959 750 1161 570 
Q 1363 391 1709 391 
Q 2188 391 2477 730 
Q 2766 1069 2766 1631 
L 2766 1759 
L 2194 1759 
z
M 3341 1997 
L 3341 0 
L 2766 0 
L 2766 531 
Q 2569 213 2275 61 
Q 1981 -91 1556 -91 
Q 1019 -91 701 211 
Q 384 513 384 1019 
Q 384 1609 779 1909 
Q 1175 2209 1959 2209 
L 2766 2209 
L 2766 2266 
Q 2766 2663 2505 2880 
Q 2244 3097 1772 3097 
Q 1472 3097 1187 3025 
Q 903 2953 641 2809 
L 641 3341 
Q 956 3463 1253 3523 
Q 1550 3584 1831 3584 
Q 2591 3584 2966 3190 
Q 3341 2797 3341 1997 
z
M 1403 5119 
L 2284 3950 
L 1806 3950 
L 788 5119 
L 1403 5119 
z
" transform="scale(0.015625)"/>
      <path id="DejaVuSans-66" d="M 2375 4863 
L 2375 4384 
L 1825 4384 
Q 1516 4384 1395 4259 
Q 1275 4134 1275 3809 
L 1275 3500 
L 2222 3500 
L 2222 3053 
L 1275 3053 
L 1275 0 
L 697 0 
L 697 3053 
L 147 3053 
L 147 3500 
L 697 3500 
L 697 3744 
Q 697 4328 969 4595 
Q 1241 4863 1831 4863 
L 2375 4863 
z
" transform="scale(0.015625)"/>
     </defs>
     <use xlink:href="#DejaVuSans-50"/>
     <use xlink:href="#DejaVuSans-72" x="58.552734"/>
     <use xlink:href="#DejaVuSans-65" x="97.416016"/>
     <use xlink:href="#DejaVuSans-76" x="158.939453"/>
     <use xlink:href="#DejaVuSans-69" x="218.119141"/>
     <use xlink:href="#DejaVuSans-73" x="245.902344"/>
     <use xlink:href="#DejaVuSans-e3" x="298.001953"/>
     <use xlink:href="#DejaVuSans-6f" x="359.28125"/>
     <use xlink:href="#DejaVuSans-20" x="420.462891"/>
     <use xlink:href="#DejaVuSans-64" x="452.25"/>
     <use xlink:href="#DejaVuSans-6f" x="515.726562"/>
     <use xlink:href="#DejaVuSans-20" x="576.908203"/>
     <use xlink:href="#DejaVuSans-76" x="608.695312"/>
     <use xlink:href="#DejaVuSans-65" x="667.875"/>
     <use xlink:href="#DejaVuSans-6e" x="729.398438"/>
     <use xlink:href="#DejaVuSans-74" x="792.777344"/>
     <use xlink:href="#DejaVuSans-6f" x="831.986328"/>
     <use xlink:href="#DejaVuSans-20" x="893.167969"/>
     <use xlink:href="#DejaVuSans-70" x="924.955078"/>
     <use xlink:href="#DejaVuSans-61" x="988.431641"/>
     <use xlink:href="#DejaVuSans-72" x="1049.710938"/>
     <use xlink:href="#DejaVuSans-61" x="1090.824219"/>
     <use xlink:href="#DejaVuSans-20" x="1152.103516"/>
     <use xlink:href="#DejaVuSans-31" x="1183.890625"/>
     <use xlink:href="#DejaVuSans-20" x="1247.513672"/>
     <use xlink:href="#DejaVuSans-68" x="1279.300781"/>
     <use xlink:href="#DejaVuSans-6f" x="1342.679688"/>
     <use xlink:href="#DejaVuSans-72" x="1403.861328"/>
     <use xlink:href="#DejaVuSans-61" x="1444.974609"/>
     <use xlink:href="#DejaVuSans-28" x="1506.253906"/>
     <use xlink:href="#DejaVuSans-73" x="1545.267578"/>
     <use xlink:href="#DejaVuSans-29" x="1597.367188"/>
     <use xlink:href="#DejaVuSans-20" x="1636.380859"/>
     <use xlink:href="#DejaVuSans-e0" x="1668.167969"/>
     <use xlink:href="#DejaVuSans-20" x="1729.447266"/>
     <use xlink:href="#DejaVuSans-66" x="1761.234375"/>
     <use xlink:href="#DejaVuSans-72" x="1796.439453"/>
     <use xlink:href="#DejaVuSans-65" x="1835.302734"/>
     <use xlink:href="#DejaVuSans-6e" x="1896.826172"/>
     <use xlink:href="#DejaVuSans-74" x="1960.205078"/>
     <use xlink:href="#DejaVuSans-65" x="1999.414062"/>
     <use xlink:href="#DejaVuSans-20" x="2060.9375"/>
     <use xlink:href="#DejaVuSans-63" x="2092.724609"/>
     <use xlink:href="#DejaVuSans-6f" x="2147.705078"/>
     <use xlink:href="#DejaVuSans-6d" x="2208.886719"/>
     <use xlink:href="#DejaVuSans-20" x="2306.298828"/>
     <use xlink:href="#DejaVuSans-31" x="2338.085938"/>
     <use xlink:href="#DejaVuSans-20" x="2401.708984"/>
     <use xlink:href="#DejaVuSans-63" x="2433.496094"/>
     <use xlink:href="#DejaVuSans-61" x="2488.476562"/>
     <use xlink:href="#DejaVuSans-6d" x="2549.755859"/>
     <use xlink:href="#DejaVuSans-61" x="2647.167969"/>
     <use xlink:href="#DejaVuSans-64" x="2708.447266"/>
     <use xlink:href="#DejaVuSans-61" x="2771.923828"/>
     <use xlink:href="#DejaVuSans-73" x="2833.203125"/>
    </g>
   </g>
   <g id="legend_1">
    <g id="patch_7">
     <path d="M 1217.86875 80.55625 
L 1289 80.55625 
Q 1291 80.55625 1291 78.55625 
L 1291 50.2 
Q 1291 48.2 1289 48.2 
L 1217.86875 48.2 
Q 1215.86875 48.2 1215.86875 50.2 
L 1215.86875 78.55625 
Q 1215.86875 80.55625 1217.86875 80.55625 
z
" style="fill: #ffffff; opacity: 0.8; stroke: #cccccc; stroke-linejoin: miter"/>
    </g>
    <g id="line2d_18">
     <path d="M 1219.86875 56.298437 
L 1229.86875 56.298437 
L 1239.86875 56.298437 
" style="fill: none; stroke: #0000ff; stroke-width: 1.5; stroke-linecap: square"/>
    </g>
    <g id="text_19">
     <!-- Predito -->
     <g transform="translate(1247.86875 59.798437) scale(0.1 -0.1)">
      <use xlink:href="#DejaVuSans-50"/>
      <use xlink:href="#DejaVuSans-72" x="58.552734"/>
      <use xlink:href="#DejaVuSans-65" x="97.416016"/>
      <use xlink:href="#DejaVuSans-64" x="158.939453"/>
      <use xlink:href="#DejaVuSans-69" x="222.416016"/>
      <use xlink:href="#DejaVuSans-74" x="250.199219"/>
      <use xlink:href="#DejaVuSans-6f" x="289.408203"/>
     </g>
    </g>
    <g id="line2d_19">
     <path d="M 1219.86875 70.976562 
L 1229.86875 70.976562 
L 1239.86875 70.976562 
" style="fill: none; stroke: #ffa500; stroke-width: 1.5; stroke-linecap: square"/>
    </g>
    <g id="text_20">
     <!-- Original -->
     <g transform="translate(1247.86875 74.476562) scale(0.1 -0.1)">
      <defs>
       <path id="DejaVuSans-4f" d="M 2522 4238 
Q 1834 4238 1429 3725 
Q 1025 3213 1025 2328 
Q 1025 1447 1429 934 
Q 1834 422 2522 422 
Q 3209 422 3611 934 
Q 4013 1447 4013 2328 
Q 4013 3213 3611 3725 
Q 3209 4238 2522 4238 
z
M 2522 4750 
Q 3503 4750 4090 4092 
Q 4678 3434 4678 2328 
Q 4678 1225 4090 567 
Q 3503 -91 2522 -91 
Q 1538 -91 948 565 
Q 359 1222 359 2328 
Q 359 3434 948 4092 
Q 1538 4750 2522 4750 
z
" transform="scale(0.015625)"/>
       <path id="DejaVuSans-67" d="M 2906 1791 
Q 2906 2416 2648 2759 
Q 2391 3103 1925 3103 
Q 1463 3103 1205 2759 
Q 947 2416 947 1791 
Q 947 1169 1205 825 
Q 1463 481 1925 481 
Q 2391 481 2648 825 
Q 2906 1169 2906 1791 
z
M 3481 434 
Q 3481 -459 3084 -895 
Q 2688 -1331 1869 -1331 
Q 1566 -1331 1297 -1286 
Q 1028 -1241 775 -1147 
L 775 -588 
Q 1028 -725 1275 -790 
Q 1522 -856 1778 -856 
Q 2344 -856 2625 -561 
Q 2906 -266 2906 331 
L 2906 616 
Q 2728 306 2450 153 
Q 2172 0 1784 0 
Q 1141 0 747 490 
Q 353 981 353 1791 
Q 353 2603 747 3093 
Q 1141 3584 1784 3584 
Q 2172 3584 2450 3431 
Q 2728 3278 2906 2969 
L 2906 3500 
L 3481 3500 
L 3481 434 
z
" transform="scale(0.015625)"/>
      </defs>
      <use xlink:href="#DejaVuSans-4f"/>
      <use xlink:href="#DejaVuSans-72" x="78.710938"/>
      <use xlink:href="#DejaVuSans-69" x="119.824219"/>
      <use xlink:href="#DejaVuSans-67" x="147.607422"/>
      <use xlink:href="#DejaVuSans-69" x="211.083984"/>
      <use xlink:href="#DejaVuSans-6e" x="238.867188"/>
      <use xlink:href="#DejaVuSans-61" x="302.246094"/>
      <use xlink:href="#DejaVuSans-6c" x="363.525391"/>
     </g>
    </g>
   </g>
  </g>
 </g>
 <defs>
  <clipPath id="p01a8737d74">
   <rect x="180" y="43.2" width="1116" height="277.2"/>
  </clipPath>
 </defs>
</svg>
