<?xml version="1.0" encoding="utf-8" standalone="no"?>
<!DOCTYPE svg PUBLIC "-//W3C//DTD SVG 1.1//EN"
  "http://www.w3.org/Graphics/SVG/1.1/DTD/svg11.dtd">
<svg xmlns:xlink="http://www.w3.org/1999/xlink" width="1440pt" height="360pt" viewBox="0 0 1440 360" xmlns="http://www.w3.org/2000/svg" version="1.1">
 <metadata>
  <rdf:RDF xmlns:dc="http://purl.org/dc/elements/1.1/" xmlns:cc="http://creativecommons.org/ns#" xmlns:rdf="http://www.w3.org/1999/02/22-rdf-syntax-ns#">
   <cc:Work>
    <dc:type rdf:resource="http://purl.org/dc/dcmitype/StillImage"/>
    <dc:date>2023-08-21T14:39:18.385214</dc:date>
    <dc:format>image/svg+xml</dc:format>
    <dc:creator>
     <cc:Agent>
      <dc:title>Matplotlib v3.7.1, https://matplotlib.org/</dc:title>
     </cc:Agent>
    </dc:creator>
   </cc:Work>
  </rdf:RDF>
 </metadata>
 <defs>
  <style type="text/css">*{stroke-linejoin: round; stroke-linecap: butt}</style>
 </defs>
 <g id="figure_1">
  <g id="patch_1">
   <path d="M 0 360 
L 1440 360 
L 1440 0 
L 0 0 
z
" style="fill: #ffffff"/>
  </g>
  <g id="axes_1">
   <g id="patch_2">
    <path d="M 180 320.4 
L 1296 320.4 
L 1296 43.2 
L 180 43.2 
z
" style="fill: #ffffff"/>
   </g>
   <g id="PolyCollection_1">
    <defs>
     <path id="m7a9b60eccf" d="M 230.727273 -271.779564 
L 230.727273 -181.122633 
L 236.066986 -149.096002 
L 241.406699 -139.482276 
L 246.746411 -149.935382 
L 252.086124 -135.809584 
L 257.425837 -138.9085 
L 262.76555 -140.996907 
L 268.105263 -145.595343 
L 273.444976 -148.433033 
L 278.784689 -141.81535 
L 284.124402 -122.577506 
L 289.464115 -114.121689 
L 294.803828 -83.882885 
L 300.143541 -93.50438 
L 305.483254 -85.559132 
L 310.822967 -71.888856 
L 316.162679 -68.740293 
L 321.502392 -61.104811 
L 326.842105 -53.864535 
L 332.181818 -56.923619 
L 337.521531 -67.998777 
L 342.861244 -80.242585 
L 348.200957 -123.602461 
L 353.54067 -159.117281 
L 358.880383 -181.849022 
L 364.220096 -197.351606 
L 369.559809 -197.829938 
L 374.899522 -197.156526 
L 380.239234 -198.221904 
L 385.578947 -179.407846 
L 390.91866 -162.729466 
L 396.258373 -138.744252 
L 401.598086 -134.237769 
L 406.937799 -132.672886 
L 412.277512 -139.667118 
L 417.617225 -152.012239 
L 422.956938 -125.08866 
L 428.296651 -110.036096 
L 433.636364 -114.8684 
L 438.976077 -117.894425 
L 444.315789 -122.932712 
L 449.655502 -127.866644 
L 454.995215 -112.906101 
L 460.334928 -106.276886 
L 465.674641 -123.766214 
L 471.014354 -127.118639 
L 476.354067 -129.171767 
L 481.69378 -143.067035 
L 487.033493 -187.944339 
L 492.373206 -206.619974 
L 497.712919 -205.773048 
L 503.052632 -195.503405 
L 508.392344 -187.162639 
L 513.732057 -191.434011 
L 519.07177 -190.826439 
L 524.411483 -184.069907 
L 529.751196 -164.084023 
L 535.090909 -170.947924 
L 540.430622 -153.03796 
L 545.770335 -141.510602 
L 551.110048 -113.395624 
L 556.449761 -111.271547 
L 561.789474 -108.218778 
L 567.129187 -108.519489 
L 572.4689 -94.425057 
L 577.808612 -90.151061 
L 583.148325 -65.46639 
L 588.488038 -101.697834 
L 593.827751 -122.898864 
L 599.167464 -130.164474 
L 604.507177 -164.073444 
L 609.84689 -190.243225 
L 615.186603 -201.42749 
L 620.526316 -213.54307 
L 625.866029 -213.105451 
L 631.205742 -211.948496 
L 636.545455 -201.158275 
L 641.885167 -195.934976 
L 647.22488 -171.809209 
L 652.564593 -168.128784 
L 657.904306 -163.885365 
L 663.244019 -149.94981 
L 668.583732 -156.853998 
L 673.923445 -149.128147 
L 679.263158 -124.41639 
L 684.602871 -124.523453 
L 689.942584 -124.855678 
L 695.282297 -117.768267 
L 700.62201 -124.360108 
L 705.961722 -112.08149 
L 711.301435 -94.66688 
L 716.641148 -90.434287 
L 721.980861 -113.565442 
L 727.320574 -119.37623 
L 732.660287 -159.97562 
L 738 -190.550546 
L 743.339713 -194.551426 
L 748.679426 -199.03103 
L 754.019139 -203.905648 
L 759.358852 -206.581475 
L 764.698565 -199.28895 
L 770.038278 -193.686188 
L 775.37799 -186.254525 
L 780.717703 -151.240964 
L 786.057416 -140.483314 
L 791.397129 -150.098999 
L 796.736842 -164.340445 
L 802.076555 -156.37243 
L 807.416268 -102.759941 
L 812.755981 -58.96576 
L 818.095694 -55.224462 
L 823.435407 -52.2 
L 828.77512 -63.554598 
L 834.114833 -87.741101 
L 839.454545 -86.573806 
L 844.794258 -77.982478 
L 850.133971 -91.890455 
L 855.473684 -108.123827 
L 860.813397 -116.973927 
L 866.15311 -146.278362 
L 871.492823 -185.127176 
L 876.832536 -199.188889 
L 882.172249 -190.179243 
L 887.511962 -193.877095 
L 892.851675 -192.449699 
L 898.191388 -181.897094 
L 903.5311 -159.840264 
L 908.870813 -145.260681 
L 914.210526 -154.176194 
L 919.550239 -144.137523 
L 924.889952 -141.286699 
L 930.229665 -148.823313 
L 935.569378 -125.669029 
L 940.909091 -135.513881 
L 946.248804 -123.53916 
L 951.588517 -117.851498 
L 956.92823 -124.857433 
L 962.267943 -118.565128 
L 967.607656 -102.364534 
L 972.947368 -88.707286 
L 978.287081 -99.477925 
L 983.626794 -114.256825 
L 988.966507 -148.021597 
L 994.30622 -179.16834 
L 999.645933 -191.300341 
L 1004.985646 -175.871584 
L 1010.325359 -183.745756 
L 1015.665072 -184.072445 
L 1021.004785 -174.896405 
L 1026.344498 -168.584136 
L 1031.684211 -148.659576 
L 1037.023923 -136.965977 
L 1042.363636 -142.149467 
L 1047.703349 -128.338503 
L 1053.043062 -124.489912 
L 1058.382775 -138.379269 
L 1063.722488 -104.262324 
L 1069.062201 -102.23037 
L 1074.401914 -93.144166 
L 1079.741627 -73.49992 
L 1085.08134 -78.157926 
L 1090.421053 -75.129525 
L 1095.760766 -73.866845 
L 1101.100478 -101.38295 
L 1106.440191 -89.728961 
L 1111.779904 -82.017896 
L 1117.119617 -102.997301 
L 1122.45933 -115.855538 
L 1127.799043 -142.354819 
L 1133.138756 -174.900221 
L 1138.478469 -185.589375 
L 1143.818182 -188.636523 
L 1149.157895 -183.453033 
L 1154.497608 -180.082399 
L 1159.837321 -169.529947 
L 1165.177033 -168.889975 
L 1170.516746 -159.361762 
L 1175.856459 -140.279818 
L 1181.196172 -131.069028 
L 1186.535885 -147.522688 
L 1191.875598 -138.495564 
L 1197.215311 -132.685117 
L 1202.555024 -121.998245 
L 1207.894737 -118.316576 
L 1213.23445 -104.026718 
L 1218.574163 -96.812957 
L 1223.913876 -82.676453 
L 1229.253589 -82.208326 
L 1234.593301 -92.178271 
L 1239.933014 -121.387163 
L 1245.272727 -156.205065 
L 1245.272727 -246.861995 
L 1245.272727 -246.861995 
L 1239.933014 -212.044111 
L 1234.593301 -182.835206 
L 1229.253589 -172.865269 
L 1223.913876 -173.333396 
L 1218.574163 -187.469892 
L 1213.23445 -194.683666 
L 1207.894737 -208.973524 
L 1202.555024 -212.655176 
L 1197.215311 -223.342047 
L 1191.875598 -229.152495 
L 1186.535885 -238.179618 
L 1181.196172 -221.725959 
L 1175.856459 -230.936749 
L 1170.516746 -250.018692 
L 1165.177033 -259.546905 
L 1159.837321 -260.186878 
L 1154.497608 -270.739329 
L 1149.157895 -274.109964 
L 1143.818182 -279.293453 
L 1138.478469 -276.246306 
L 1133.138756 -265.557151 
L 1127.799043 -233.011749 
L 1122.45933 -206.512468 
L 1117.119617 -193.654232 
L 1111.779904 -172.674839 
L 1106.440191 -180.385904 
L 1101.100478 -192.039898 
L 1095.760766 -164.523788 
L 1090.421053 -165.78646 
L 1085.08134 -168.814869 
L 1079.741627 -164.156863 
L 1074.401914 -183.801101 
L 1069.062201 -192.887317 
L 1063.722488 -194.919254 
L 1058.382775 -229.0362 
L 1053.043062 -215.146859 
L 1047.703349 -218.995433 
L 1042.363636 -232.806397 
L 1037.023923 -227.622908 
L 1031.684211 -239.316507 
L 1026.344498 -259.241066 
L 1021.004785 -265.553336 
L 1015.665072 -274.729375 
L 1010.325359 -274.402686 
L 1004.985646 -266.528515 
L 999.645933 -281.957271 
L 994.30622 -269.82527 
L 988.966507 -238.678527 
L 983.626794 -204.913772 
L 978.287081 -190.134868 
L 972.947368 -179.364221 
L 967.607656 -193.021482 
L 962.267943 -209.222058 
L 956.92823 -215.51438 
L 951.588517 -208.508428 
L 946.248804 -214.196108 
L 940.909091 -226.170811 
L 935.569378 -216.325959 
L 930.229665 -239.480243 
L 924.889952 -231.943629 
L 919.550239 -234.794453 
L 914.210526 -244.833125 
L 908.870813 -235.917612 
L 903.5311 -250.497194 
L 898.191388 -272.554024 
L 892.851675 -283.106629 
L 887.511962 -284.534026 
L 882.172249 -280.836174 
L 876.832536 -289.84582 
L 871.492823 -275.784106 
L 866.15311 -236.935292 
L 860.813397 -207.630857 
L 855.473684 -198.780774 
L 850.133971 -182.547389 
L 844.794258 -168.639413 
L 839.454545 -177.23074 
L 834.114833 -178.398036 
L 828.77512 -154.211541 
L 823.435407 -142.856939 
L 818.095694 -145.881405 
L 812.755981 -149.622695 
L 807.416268 -193.416889 
L 802.076555 -247.02936 
L 796.736842 -254.997375 
L 791.397129 -240.75593 
L 786.057416 -231.140244 
L 780.717703 -241.897894 
L 775.37799 -276.911455 
L 770.038278 -284.343119 
L 764.698565 -289.945881 
L 759.358852 -297.238406 
L 754.019139 -294.562578 
L 748.679426 -289.68796 
L 743.339713 -285.208357 
L 738 -281.207477 
L 732.660287 -250.632551 
L 727.320574 -210.03316 
L 721.980861 -204.222372 
L 716.641148 -181.091221 
L 711.301435 -185.323823 
L 705.961722 -202.738421 
L 700.62201 -215.017039 
L 695.282297 -208.425214 
L 689.942584 -215.512626 
L 684.602871 -215.1804 
L 679.263158 -215.073338 
L 673.923445 -239.785077 
L 668.583732 -247.510928 
L 663.244019 -240.606741 
L 657.904306 -254.542296 
L 652.564593 -258.785715 
L 647.22488 -262.46614 
L 641.885167 -286.591906 
L 636.545455 -291.815206 
L 631.205742 -302.605426 
L 625.866029 -303.762381 
L 620.526316 -304.2 
L 615.186603 -292.08442 
L 609.84689 -280.900156 
L 604.507177 -254.730375 
L 599.167464 -220.821405 
L 593.827751 -213.555811 
L 588.488038 -192.354765 
L 583.148325 -156.123333 
L 577.808612 -180.808004 
L 572.4689 -185.082 
L 567.129187 -199.17642 
L 561.789474 -198.875708 
L 556.449761 -201.928477 
L 551.110048 -204.052571 
L 545.770335 -232.167532 
L 540.430622 -243.69489 
L 535.090909 -261.604854 
L 529.751196 -254.740953 
L 524.411483 -274.726837 
L 519.07177 -281.483369 
L 513.732057 -282.090942 
L 508.392344 -277.819569 
L 503.052632 -286.160335 
L 497.712919 -296.429978 
L 492.373206 -297.276904 
L 487.033493 -278.60127 
L 481.69378 -233.723966 
L 476.354067 -219.828697 
L 471.014354 -217.775569 
L 465.674641 -214.423162 
L 460.334928 -196.933833 
L 454.995215 -203.563048 
L 449.655502 -218.523575 
L 444.315789 -213.589642 
L 438.976077 -208.551355 
L 433.636364 -205.525331 
L 428.296651 -200.693043 
L 422.956938 -215.745591 
L 417.617225 -242.66917 
L 412.277512 -230.324049 
L 406.937799 -223.329816 
L 401.598086 -224.894699 
L 396.258373 -229.401183 
L 390.91866 -253.386397 
L 385.578947 -270.064777 
L 380.239234 -288.878834 
L 374.899522 -287.813457 
L 369.559809 -288.486868 
L 364.220096 -288.008537 
L 358.880383 -272.505953 
L 353.54067 -249.774212 
L 348.200957 -214.259391 
L 342.861244 -170.899528 
L 337.521531 -158.655712 
L 332.181818 -147.580554 
L 326.842105 -144.521474 
L 321.502392 -151.761745 
L 316.162679 -159.397228 
L 310.822967 -162.545799 
L 305.483254 -176.216075 
L 300.143541 -184.161314 
L 294.803828 -174.53982 
L 289.464115 -204.778637 
L 284.124402 -213.234437 
L 278.784689 -232.472281 
L 273.444976 -239.089964 
L 268.105263 -236.252273 
L 262.76555 -231.653837 
L 257.425837 -229.56543 
L 252.086124 -226.466515 
L 246.746411 -240.592312 
L 241.406699 -230.139206 
L 236.066986 -239.752933 
L 230.727273 -271.779564 
z
" style="stroke: #0000ff; stroke-opacity: 0.05"/>
    </defs>
    <g clip-path="url(#pa639cbee3e)">
     <use xlink:href="#m7a9b60eccf" x="0" y="360" style="fill: #0000ff; fill-opacity: 0.05; stroke: #0000ff; stroke-opacity: 0.05"/>
    </g>
   </g>
   <g id="matplotlib.axis_1">
    <g id="xtick_1">
     <g id="line2d_1">
      <defs>
       <path id="me8d20c9a8b" d="M 0 0 
L 0 3.5 
" style="stroke: #000000; stroke-width: 0.8"/>
      </defs>
      <g>
       <use xlink:href="#me8d20c9a8b" x="230.727273" y="320.4" style="stroke: #000000; stroke-width: 0.8"/>
      </g>
     </g>
     <g id="text_1">
      <!-- 0 -->
      <g transform="translate(227.546023 334.998438) scale(0.1 -0.1)">
       <defs>
        <path id="DejaVuSans-30" d="M 2034 4250 
Q 1547 4250 1301 3770 
Q 1056 3291 1056 2328 
Q 1056 1369 1301 889 
Q 1547 409 2034 409 
Q 2525 409 2770 889 
Q 3016 1369 3016 2328 
Q 3016 3291 2770 3770 
Q 2525 4250 2034 4250 
z
M 2034 4750 
Q 2819 4750 3233 4129 
Q 3647 3509 3647 2328 
Q 3647 1150 3233 529 
Q 2819 -91 2034 -91 
Q 1250 -91 836 529 
Q 422 1150 422 2328 
Q 422 3509 836 4129 
Q 1250 4750 2034 4750 
z
" transform="scale(0.015625)"/>
       </defs>
       <use xlink:href="#DejaVuSans-30"/>
      </g>
     </g>
    </g>
    <g id="xtick_2">
     <g id="line2d_2">
      <g>
       <use xlink:href="#me8d20c9a8b" x="364.220096" y="320.4" style="stroke: #000000; stroke-width: 0.8"/>
      </g>
     </g>
     <g id="text_2">
      <!-- 25 -->
      <g transform="translate(357.857596 334.998438) scale(0.1 -0.1)">
       <defs>
        <path id="DejaVuSans-32" d="M 1228 531 
L 3431 531 
L 3431 0 
L 469 0 
L 469 531 
Q 828 903 1448 1529 
Q 2069 2156 2228 2338 
Q 2531 2678 2651 2914 
Q 2772 3150 2772 3378 
Q 2772 3750 2511 3984 
Q 2250 4219 1831 4219 
Q 1534 4219 1204 4116 
Q 875 4013 500 3803 
L 500 4441 
Q 881 4594 1212 4672 
Q 1544 4750 1819 4750 
Q 2544 4750 2975 4387 
Q 3406 4025 3406 3419 
Q 3406 3131 3298 2873 
Q 3191 2616 2906 2266 
Q 2828 2175 2409 1742 
Q 1991 1309 1228 531 
z
" transform="scale(0.015625)"/>
        <path id="DejaVuSans-35" d="M 691 4666 
L 3169 4666 
L 3169 4134 
L 1269 4134 
L 1269 2991 
Q 1406 3038 1543 3061 
Q 1681 3084 1819 3084 
Q 2600 3084 3056 2656 
Q 3513 2228 3513 1497 
Q 3513 744 3044 326 
Q 2575 -91 1722 -91 
Q 1428 -91 1123 -41 
Q 819 9 494 109 
L 494 744 
Q 775 591 1075 516 
Q 1375 441 1709 441 
Q 2250 441 2565 725 
Q 2881 1009 2881 1497 
Q 2881 1984 2565 2268 
Q 2250 2553 1709 2553 
Q 1456 2553 1204 2497 
Q 953 2441 691 2322 
L 691 4666 
z
" transform="scale(0.015625)"/>
       </defs>
       <use xlink:href="#DejaVuSans-32"/>
       <use xlink:href="#DejaVuSans-35" x="63.623047"/>
      </g>
     </g>
    </g>
    <g id="xtick_3">
     <g id="line2d_3">
      <g>
       <use xlink:href="#me8d20c9a8b" x="497.712919" y="320.4" style="stroke: #000000; stroke-width: 0.8"/>
      </g>
     </g>
     <g id="text_3">
      <!-- 50 -->
      <g transform="translate(491.350419 334.998438) scale(0.1 -0.1)">
       <use xlink:href="#DejaVuSans-35"/>
       <use xlink:href="#DejaVuSans-30" x="63.623047"/>
      </g>
     </g>
    </g>
    <g id="xtick_4">
     <g id="line2d_4">
      <g>
       <use xlink:href="#me8d20c9a8b" x="631.205742" y="320.4" style="stroke: #000000; stroke-width: 0.8"/>
      </g>
     </g>
     <g id="text_4">
      <!-- 75 -->
      <g transform="translate(624.843242 334.998438) scale(0.1 -0.1)">
       <defs>
        <path id="DejaVuSans-37" d="M 525 4666 
L 3525 4666 
L 3525 4397 
L 1831 0 
L 1172 0 
L 2766 4134 
L 525 4134 
L 525 4666 
z
" transform="scale(0.015625)"/>
       </defs>
       <use xlink:href="#DejaVuSans-37"/>
       <use xlink:href="#DejaVuSans-35" x="63.623047"/>
      </g>
     </g>
    </g>
    <g id="xtick_5">
     <g id="line2d_5">
      <g>
       <use xlink:href="#me8d20c9a8b" x="764.698565" y="320.4" style="stroke: #000000; stroke-width: 0.8"/>
      </g>
     </g>
     <g id="text_5">
      <!-- 100 -->
      <g transform="translate(755.154815 334.998438) scale(0.1 -0.1)">
       <defs>
        <path id="DejaVuSans-31" d="M 794 531 
L 1825 531 
L 1825 4091 
L 703 3866 
L 703 4441 
L 1819 4666 
L 2450 4666 
L 2450 531 
L 3481 531 
L 3481 0 
L 794 0 
L 794 531 
z
" transform="scale(0.015625)"/>
       </defs>
       <use xlink:href="#DejaVuSans-31"/>
       <use xlink:href="#DejaVuSans-30" x="63.623047"/>
       <use xlink:href="#DejaVuSans-30" x="127.246094"/>
      </g>
     </g>
    </g>
    <g id="xtick_6">
     <g id="line2d_6">
      <g>
       <use xlink:href="#me8d20c9a8b" x="898.191388" y="320.4" style="stroke: #000000; stroke-width: 0.8"/>
      </g>
     </g>
     <g id="text_6">
      <!-- 125 -->
      <g transform="translate(888.647638 334.998438) scale(0.1 -0.1)">
       <use xlink:href="#DejaVuSans-31"/>
       <use xlink:href="#DejaVuSans-32" x="63.623047"/>
       <use xlink:href="#DejaVuSans-35" x="127.246094"/>
      </g>
     </g>
    </g>
    <g id="xtick_7">
     <g id="line2d_7">
      <g>
       <use xlink:href="#me8d20c9a8b" x="1031.684211" y="320.4" style="stroke: #000000; stroke-width: 0.8"/>
      </g>
     </g>
     <g id="text_7">
      <!-- 150 -->
      <g transform="translate(1022.140461 334.998438) scale(0.1 -0.1)">
       <use xlink:href="#DejaVuSans-31"/>
       <use xlink:href="#DejaVuSans-35" x="63.623047"/>
       <use xlink:href="#DejaVuSans-30" x="127.246094"/>
      </g>
     </g>
    </g>
    <g id="xtick_8">
     <g id="line2d_8">
      <g>
       <use xlink:href="#me8d20c9a8b" x="1165.177033" y="320.4" style="stroke: #000000; stroke-width: 0.8"/>
      </g>
     </g>
     <g id="text_8">
      <!-- 175 -->
      <g transform="translate(1155.633283 334.998438) scale(0.1 -0.1)">
       <use xlink:href="#DejaVuSans-31"/>
       <use xlink:href="#DejaVuSans-37" x="63.623047"/>
       <use xlink:href="#DejaVuSans-35" x="127.246094"/>
      </g>
     </g>
    </g>
    <g id="text_9">
     <!-- Amostras -->
     <g transform="translate(714.360937 348.676562) scale(0.1 -0.1)">
      <defs>
       <path id="DejaVuSans-41" d="M 2188 4044 
L 1331 1722 
L 3047 1722 
L 2188 4044 
z
M 1831 4666 
L 2547 4666 
L 4325 0 
L 3669 0 
L 3244 1197 
L 1141 1197 
L 716 0 
L 50 0 
L 1831 4666 
z
" transform="scale(0.015625)"/>
       <path id="DejaVuSans-6d" d="M 3328 2828 
Q 3544 3216 3844 3400 
Q 4144 3584 4550 3584 
Q 5097 3584 5394 3201 
Q 5691 2819 5691 2113 
L 5691 0 
L 5113 0 
L 5113 2094 
Q 5113 2597 4934 2840 
Q 4756 3084 4391 3084 
Q 3944 3084 3684 2787 
Q 3425 2491 3425 1978 
L 3425 0 
L 2847 0 
L 2847 2094 
Q 2847 2600 2669 2842 
Q 2491 3084 2119 3084 
Q 1678 3084 1418 2786 
Q 1159 2488 1159 1978 
L 1159 0 
L 581 0 
L 581 3500 
L 1159 3500 
L 1159 2956 
Q 1356 3278 1631 3431 
Q 1906 3584 2284 3584 
Q 2666 3584 2933 3390 
Q 3200 3197 3328 2828 
z
" transform="scale(0.015625)"/>
       <path id="DejaVuSans-6f" d="M 1959 3097 
Q 1497 3097 1228 2736 
Q 959 2375 959 1747 
Q 959 1119 1226 758 
Q 1494 397 1959 397 
Q 2419 397 2687 759 
Q 2956 1122 2956 1747 
Q 2956 2369 2687 2733 
Q 2419 3097 1959 3097 
z
M 1959 3584 
Q 2709 3584 3137 3096 
Q 3566 2609 3566 1747 
Q 3566 888 3137 398 
Q 2709 -91 1959 -91 
Q 1206 -91 779 398 
Q 353 888 353 1747 
Q 353 2609 779 3096 
Q 1206 3584 1959 3584 
z
" transform="scale(0.015625)"/>
       <path id="DejaVuSans-73" d="M 2834 3397 
L 2834 2853 
Q 2591 2978 2328 3040 
Q 2066 3103 1784 3103 
Q 1356 3103 1142 2972 
Q 928 2841 928 2578 
Q 928 2378 1081 2264 
Q 1234 2150 1697 2047 
L 1894 2003 
Q 2506 1872 2764 1633 
Q 3022 1394 3022 966 
Q 3022 478 2636 193 
Q 2250 -91 1575 -91 
Q 1294 -91 989 -36 
Q 684 19 347 128 
L 347 722 
Q 666 556 975 473 
Q 1284 391 1588 391 
Q 1994 391 2212 530 
Q 2431 669 2431 922 
Q 2431 1156 2273 1281 
Q 2116 1406 1581 1522 
L 1381 1569 
Q 847 1681 609 1914 
Q 372 2147 372 2553 
Q 372 3047 722 3315 
Q 1072 3584 1716 3584 
Q 2034 3584 2315 3537 
Q 2597 3491 2834 3397 
z
" transform="scale(0.015625)"/>
       <path id="DejaVuSans-74" d="M 1172 4494 
L 1172 3500 
L 2356 3500 
L 2356 3053 
L 1172 3053 
L 1172 1153 
Q 1172 725 1289 603 
Q 1406 481 1766 481 
L 2356 481 
L 2356 0 
L 1766 0 
Q 1100 0 847 248 
Q 594 497 594 1153 
L 594 3053 
L 172 3053 
L 172 3500 
L 594 3500 
L 594 4494 
L 1172 4494 
z
" transform="scale(0.015625)"/>
       <path id="DejaVuSans-72" d="M 2631 2963 
Q 2534 3019 2420 3045 
Q 2306 3072 2169 3072 
Q 1681 3072 1420 2755 
Q 1159 2438 1159 1844 
L 1159 0 
L 581 0 
L 581 3500 
L 1159 3500 
L 1159 2956 
Q 1341 3275 1631 3429 
Q 1922 3584 2338 3584 
Q 2397 3584 2469 3576 
Q 2541 3569 2628 3553 
L 2631 2963 
z
" transform="scale(0.015625)"/>
       <path id="DejaVuSans-61" d="M 2194 1759 
Q 1497 1759 1228 1600 
Q 959 1441 959 1056 
Q 959 750 1161 570 
Q 1363 391 1709 391 
Q 2188 391 2477 730 
Q 2766 1069 2766 1631 
L 2766 1759 
L 2194 1759 
z
M 3341 1997 
L 3341 0 
L 2766 0 
L 2766 531 
Q 2569 213 2275 61 
Q 1981 -91 1556 -91 
Q 1019 -91 701 211 
Q 384 513 384 1019 
Q 384 1609 779 1909 
Q 1175 2209 1959 2209 
L 2766 2209 
L 2766 2266 
Q 2766 2663 2505 2880 
Q 2244 3097 1772 3097 
Q 1472 3097 1187 3025 
Q 903 2953 641 2809 
L 641 3341 
Q 956 3463 1253 3523 
Q 1550 3584 1831 3584 
Q 2591 3584 2966 3190 
Q 3341 2797 3341 1997 
z
" transform="scale(0.015625)"/>
      </defs>
      <use xlink:href="#DejaVuSans-41"/>
      <use xlink:href="#DejaVuSans-6d" x="68.408203"/>
      <use xlink:href="#DejaVuSans-6f" x="165.820312"/>
      <use xlink:href="#DejaVuSans-73" x="227.001953"/>
      <use xlink:href="#DejaVuSans-74" x="279.101562"/>
      <use xlink:href="#DejaVuSans-72" x="318.310547"/>
      <use xlink:href="#DejaVuSans-61" x="359.423828"/>
      <use xlink:href="#DejaVuSans-73" x="420.703125"/>
     </g>
    </g>
   </g>
   <g id="matplotlib.axis_2">
    <g id="ytick_1">
     <g id="line2d_9">
      <defs>
       <path id="m972db6ff4d" d="M 0 0 
L -3.5 0 
" style="stroke: #000000; stroke-width: 0.8"/>
      </defs>
      <g>
       <use xlink:href="#m972db6ff4d" x="180" y="295.397013" style="stroke: #000000; stroke-width: 0.8"/>
      </g>
     </g>
     <g id="text_10">
      <!-- 2 -->
      <g transform="translate(166.6375 299.196231) scale(0.1 -0.1)">
       <use xlink:href="#DejaVuSans-32"/>
      </g>
     </g>
    </g>
    <g id="ytick_2">
     <g id="line2d_10">
      <g>
       <use xlink:href="#m972db6ff4d" x="180" y="259.672888" style="stroke: #000000; stroke-width: 0.8"/>
      </g>
     </g>
     <g id="text_11">
      <!-- 4 -->
      <g transform="translate(166.6375 263.472107) scale(0.1 -0.1)">
       <defs>
        <path id="DejaVuSans-34" d="M 2419 4116 
L 825 1625 
L 2419 1625 
L 2419 4116 
z
M 2253 4666 
L 3047 4666 
L 3047 1625 
L 3713 1625 
L 3713 1100 
L 3047 1100 
L 3047 0 
L 2419 0 
L 2419 1100 
L 313 1100 
L 313 1709 
L 2253 4666 
z
" transform="scale(0.015625)"/>
       </defs>
       <use xlink:href="#DejaVuSans-34"/>
      </g>
     </g>
    </g>
    <g id="ytick_3">
     <g id="line2d_11">
      <g>
       <use xlink:href="#m972db6ff4d" x="180" y="223.948763" style="stroke: #000000; stroke-width: 0.8"/>
      </g>
     </g>
     <g id="text_12">
      <!-- 6 -->
      <g transform="translate(166.6375 227.747982) scale(0.1 -0.1)">
       <defs>
        <path id="DejaVuSans-36" d="M 2113 2584 
Q 1688 2584 1439 2293 
Q 1191 2003 1191 1497 
Q 1191 994 1439 701 
Q 1688 409 2113 409 
Q 2538 409 2786 701 
Q 3034 994 3034 1497 
Q 3034 2003 2786 2293 
Q 2538 2584 2113 2584 
z
M 3366 4563 
L 3366 3988 
Q 3128 4100 2886 4159 
Q 2644 4219 2406 4219 
Q 1781 4219 1451 3797 
Q 1122 3375 1075 2522 
Q 1259 2794 1537 2939 
Q 1816 3084 2150 3084 
Q 2853 3084 3261 2657 
Q 3669 2231 3669 1497 
Q 3669 778 3244 343 
Q 2819 -91 2113 -91 
Q 1303 -91 875 529 
Q 447 1150 447 2328 
Q 447 3434 972 4092 
Q 1497 4750 2381 4750 
Q 2619 4750 2861 4703 
Q 3103 4656 3366 4563 
z
" transform="scale(0.015625)"/>
       </defs>
       <use xlink:href="#DejaVuSans-36"/>
      </g>
     </g>
    </g>
    <g id="ytick_4">
     <g id="line2d_12">
      <g>
       <use xlink:href="#m972db6ff4d" x="180" y="188.224638" style="stroke: #000000; stroke-width: 0.8"/>
      </g>
     </g>
     <g id="text_13">
      <!-- 8 -->
      <g transform="translate(166.6375 192.023857) scale(0.1 -0.1)">
       <defs>
        <path id="DejaVuSans-38" d="M 2034 2216 
Q 1584 2216 1326 1975 
Q 1069 1734 1069 1313 
Q 1069 891 1326 650 
Q 1584 409 2034 409 
Q 2484 409 2743 651 
Q 3003 894 3003 1313 
Q 3003 1734 2745 1975 
Q 2488 2216 2034 2216 
z
M 1403 2484 
Q 997 2584 770 2862 
Q 544 3141 544 3541 
Q 544 4100 942 4425 
Q 1341 4750 2034 4750 
Q 2731 4750 3128 4425 
Q 3525 4100 3525 3541 
Q 3525 3141 3298 2862 
Q 3072 2584 2669 2484 
Q 3125 2378 3379 2068 
Q 3634 1759 3634 1313 
Q 3634 634 3220 271 
Q 2806 -91 2034 -91 
Q 1263 -91 848 271 
Q 434 634 434 1313 
Q 434 1759 690 2068 
Q 947 2378 1403 2484 
z
M 1172 3481 
Q 1172 3119 1398 2916 
Q 1625 2713 2034 2713 
Q 2441 2713 2670 2916 
Q 2900 3119 2900 3481 
Q 2900 3844 2670 4047 
Q 2441 4250 2034 4250 
Q 1625 4250 1398 4047 
Q 1172 3844 1172 3481 
z
" transform="scale(0.015625)"/>
       </defs>
       <use xlink:href="#DejaVuSans-38"/>
      </g>
     </g>
    </g>
    <g id="ytick_5">
     <g id="line2d_13">
      <g>
       <use xlink:href="#m972db6ff4d" x="180" y="152.500513" style="stroke: #000000; stroke-width: 0.8"/>
      </g>
     </g>
     <g id="text_14">
      <!-- 10 -->
      <g transform="translate(160.275 156.299732) scale(0.1 -0.1)">
       <use xlink:href="#DejaVuSans-31"/>
       <use xlink:href="#DejaVuSans-30" x="63.623047"/>
      </g>
     </g>
    </g>
    <g id="ytick_6">
     <g id="line2d_14">
      <g>
       <use xlink:href="#m972db6ff4d" x="180" y="116.776389" style="stroke: #000000; stroke-width: 0.8"/>
      </g>
     </g>
     <g id="text_15">
      <!-- 12 -->
      <g transform="translate(160.275 120.575607) scale(0.1 -0.1)">
       <use xlink:href="#DejaVuSans-31"/>
       <use xlink:href="#DejaVuSans-32" x="63.623047"/>
      </g>
     </g>
    </g>
    <g id="ytick_7">
     <g id="line2d_15">
      <g>
       <use xlink:href="#m972db6ff4d" x="180" y="81.052264" style="stroke: #000000; stroke-width: 0.8"/>
      </g>
     </g>
     <g id="text_16">
      <!-- 14 -->
      <g transform="translate(160.275 84.851483) scale(0.1 -0.1)">
       <use xlink:href="#DejaVuSans-31"/>
       <use xlink:href="#DejaVuSans-34" x="63.623047"/>
      </g>
     </g>
    </g>
    <g id="ytick_8">
     <g id="line2d_16">
      <g>
       <use xlink:href="#m972db6ff4d" x="180" y="45.328139" style="stroke: #000000; stroke-width: 0.8"/>
      </g>
     </g>
     <g id="text_17">
      <!-- 16 -->
      <g transform="translate(160.275 49.127358) scale(0.1 -0.1)">
       <use xlink:href="#DejaVuSans-31"/>
       <use xlink:href="#DejaVuSans-36" x="63.623047"/>
      </g>
     </g>
    </g>
    <g id="text_18">
     <!-- Velocidade do Vento (m/s) -->
     <g transform="translate(154.195312 247.344531) rotate(-90) scale(0.1 -0.1)">
      <defs>
       <path id="DejaVuSans-56" d="M 1831 0 
L 50 4666 
L 709 4666 
L 2188 738 
L 3669 4666 
L 4325 4666 
L 2547 0 
L 1831 0 
z
" transform="scale(0.015625)"/>
       <path id="DejaVuSans-65" d="M 3597 1894 
L 3597 1613 
L 953 1613 
Q 991 1019 1311 708 
Q 1631 397 2203 397 
Q 2534 397 2845 478 
Q 3156 559 3463 722 
L 3463 178 
Q 3153 47 2828 -22 
Q 2503 -91 2169 -91 
Q 1331 -91 842 396 
Q 353 884 353 1716 
Q 353 2575 817 3079 
Q 1281 3584 2069 3584 
Q 2775 3584 3186 3129 
Q 3597 2675 3597 1894 
z
M 3022 2063 
Q 3016 2534 2758 2815 
Q 2500 3097 2075 3097 
Q 1594 3097 1305 2825 
Q 1016 2553 972 2059 
L 3022 2063 
z
" transform="scale(0.015625)"/>
       <path id="DejaVuSans-6c" d="M 603 4863 
L 1178 4863 
L 1178 0 
L 603 0 
L 603 4863 
z
" transform="scale(0.015625)"/>
       <path id="DejaVuSans-63" d="M 3122 3366 
L 3122 2828 
Q 2878 2963 2633 3030 
Q 2388 3097 2138 3097 
Q 1578 3097 1268 2742 
Q 959 2388 959 1747 
Q 959 1106 1268 751 
Q 1578 397 2138 397 
Q 2388 397 2633 464 
Q 2878 531 3122 666 
L 3122 134 
Q 2881 22 2623 -34 
Q 2366 -91 2075 -91 
Q 1284 -91 818 406 
Q 353 903 353 1747 
Q 353 2603 823 3093 
Q 1294 3584 2113 3584 
Q 2378 3584 2631 3529 
Q 2884 3475 3122 3366 
z
" transform="scale(0.015625)"/>
       <path id="DejaVuSans-69" d="M 603 3500 
L 1178 3500 
L 1178 0 
L 603 0 
L 603 3500 
z
M 603 4863 
L 1178 4863 
L 1178 4134 
L 603 4134 
L 603 4863 
z
" transform="scale(0.015625)"/>
       <path id="DejaVuSans-64" d="M 2906 2969 
L 2906 4863 
L 3481 4863 
L 3481 0 
L 2906 0 
L 2906 525 
Q 2725 213 2448 61 
Q 2172 -91 1784 -91 
Q 1150 -91 751 415 
Q 353 922 353 1747 
Q 353 2572 751 3078 
Q 1150 3584 1784 3584 
Q 2172 3584 2448 3432 
Q 2725 3281 2906 2969 
z
M 947 1747 
Q 947 1113 1208 752 
Q 1469 391 1925 391 
Q 2381 391 2643 752 
Q 2906 1113 2906 1747 
Q 2906 2381 2643 2742 
Q 2381 3103 1925 3103 
Q 1469 3103 1208 2742 
Q 947 2381 947 1747 
z
" transform="scale(0.015625)"/>
       <path id="DejaVuSans-20" transform="scale(0.015625)"/>
       <path id="DejaVuSans-6e" d="M 3513 2113 
L 3513 0 
L 2938 0 
L 2938 2094 
Q 2938 2591 2744 2837 
Q 2550 3084 2163 3084 
Q 1697 3084 1428 2787 
Q 1159 2491 1159 1978 
L 1159 0 
L 581 0 
L 581 3500 
L 1159 3500 
L 1159 2956 
Q 1366 3272 1645 3428 
Q 1925 3584 2291 3584 
Q 2894 3584 3203 3211 
Q 3513 2838 3513 2113 
z
" transform="scale(0.015625)"/>
       <path id="DejaVuSans-28" d="M 1984 4856 
Q 1566 4138 1362 3434 
Q 1159 2731 1159 2009 
Q 1159 1288 1364 580 
Q 1569 -128 1984 -844 
L 1484 -844 
Q 1016 -109 783 600 
Q 550 1309 550 2009 
Q 550 2706 781 3412 
Q 1013 4119 1484 4856 
L 1984 4856 
z
" transform="scale(0.015625)"/>
       <path id="DejaVuSans-2f" d="M 1625 4666 
L 2156 4666 
L 531 -594 
L 0 -594 
L 1625 4666 
z
" transform="scale(0.015625)"/>
       <path id="DejaVuSans-29" d="M 513 4856 
L 1013 4856 
Q 1481 4119 1714 3412 
Q 1947 2706 1947 2009 
Q 1947 1309 1714 600 
Q 1481 -109 1013 -844 
L 513 -844 
Q 928 -128 1133 580 
Q 1338 1288 1338 2009 
Q 1338 2731 1133 3434 
Q 928 4138 513 4856 
z
" transform="scale(0.015625)"/>
      </defs>
      <use xlink:href="#DejaVuSans-56"/>
      <use xlink:href="#DejaVuSans-65" x="60.658203"/>
      <use xlink:href="#DejaVuSans-6c" x="122.181641"/>
      <use xlink:href="#DejaVuSans-6f" x="149.964844"/>
      <use xlink:href="#DejaVuSans-63" x="211.146484"/>
      <use xlink:href="#DejaVuSans-69" x="266.126953"/>
      <use xlink:href="#DejaVuSans-64" x="293.910156"/>
      <use xlink:href="#DejaVuSans-61" x="357.386719"/>
      <use xlink:href="#DejaVuSans-64" x="418.666016"/>
      <use xlink:href="#DejaVuSans-65" x="482.142578"/>
      <use xlink:href="#DejaVuSans-20" x="543.666016"/>
      <use xlink:href="#DejaVuSans-64" x="575.453125"/>
      <use xlink:href="#DejaVuSans-6f" x="638.929688"/>
      <use xlink:href="#DejaVuSans-20" x="700.111328"/>
      <use xlink:href="#DejaVuSans-56" x="731.898438"/>
      <use xlink:href="#DejaVuSans-65" x="792.556641"/>
      <use xlink:href="#DejaVuSans-6e" x="854.080078"/>
      <use xlink:href="#DejaVuSans-74" x="917.458984"/>
      <use xlink:href="#DejaVuSans-6f" x="956.667969"/>
      <use xlink:href="#DejaVuSans-20" x="1017.849609"/>
      <use xlink:href="#DejaVuSans-28" x="1049.636719"/>
      <use xlink:href="#DejaVuSans-6d" x="1088.650391"/>
      <use xlink:href="#DejaVuSans-2f" x="1186.0625"/>
      <use xlink:href="#DejaVuSans-73" x="1219.753906"/>
      <use xlink:href="#DejaVuSans-29" x="1271.853516"/>
     </g>
    </g>
   </g>
   <g id="line2d_17">
    <path d="M 230.727273 133.548902 
L 236.066986 165.575532 
L 241.406699 175.189259 
L 246.746411 164.736153 
L 252.086124 178.861951 
L 257.425837 175.763035 
L 262.76555 173.674628 
L 268.105263 169.076192 
L 273.444976 166.238502 
L 278.784689 172.856184 
L 284.124402 192.094028 
L 289.464115 200.549837 
L 294.803828 230.788645 
L 300.143541 221.167151 
L 305.483254 229.112399 
L 310.822967 242.782674 
L 316.162679 245.931237 
L 321.502392 253.56672 
L 326.842105 260.806996 
L 332.181818 257.747911 
L 337.521531 246.672753 
L 342.861244 234.428945 
L 348.200957 191.069074 
L 353.54067 155.554253 
L 358.880383 132.822513 
L 364.220096 117.319928 
L 369.559809 116.841597 
L 374.899522 117.515008 
L 380.239234 116.449631 
L 385.578947 135.263689 
L 390.91866 151.942068 
L 396.258373 175.927282 
L 401.598086 180.433766 
L 406.937799 181.998649 
L 412.277512 175.004417 
L 417.617225 162.659296 
L 422.956938 189.582874 
L 428.296651 204.63543 
L 433.636364 199.803134 
L 438.976077 196.77711 
L 449.655502 186.80489 
L 454.995215 201.765425 
L 460.334928 208.394641 
L 465.674641 190.905312 
L 471.014354 187.552896 
L 476.354067 185.499768 
L 481.69378 171.6045 
L 487.033493 126.727196 
L 492.373206 108.051561 
L 497.712919 108.898487 
L 503.052632 119.16813 
L 508.392344 127.508896 
L 513.732057 123.237524 
L 519.07177 123.845096 
L 524.411483 130.601628 
L 529.751196 150.587512 
L 535.090909 143.723611 
L 540.430622 161.633575 
L 545.770335 173.160933 
L 551.110048 201.275902 
L 556.449761 203.399988 
L 561.789474 206.452757 
L 567.129187 206.152045 
L 572.4689 220.246474 
L 577.808612 224.520469 
L 583.148325 249.205141 
L 588.488038 212.9737 
L 593.827751 191.772662 
L 599.167464 184.50706 
L 604.507177 150.59809 
L 609.84689 124.42831 
L 615.186603 113.244045 
L 620.526316 101.128465 
L 625.866029 101.566084 
L 631.205742 102.723039 
L 636.545455 113.51326 
L 641.885167 118.736559 
L 647.22488 142.862325 
L 652.564593 146.542751 
L 657.904306 150.786169 
L 663.244019 164.721725 
L 668.583732 157.817537 
L 673.923445 165.543388 
L 679.263158 190.255136 
L 684.602871 190.148073 
L 689.942584 189.815848 
L 695.282297 196.903259 
L 700.62201 190.311427 
L 705.961722 202.590044 
L 711.301435 220.004651 
L 716.641148 224.237244 
L 721.980861 201.106093 
L 727.320574 195.295305 
L 732.660287 154.695914 
L 738 124.120988 
L 743.339713 120.120108 
L 748.679426 115.640505 
L 754.019139 110.765887 
L 759.358852 108.090059 
L 764.698565 115.382584 
L 770.038278 120.985346 
L 775.37799 128.41701 
L 780.717703 163.430571 
L 786.057416 174.188221 
L 791.397129 164.572536 
L 796.736842 150.33109 
L 802.076555 158.299105 
L 807.416268 211.911585 
L 812.755981 255.70577 
L 818.095694 259.447069 
L 823.435407 262.471531 
L 828.77512 251.116933 
L 834.114833 226.93043 
L 839.454545 228.097725 
L 844.794258 236.689052 
L 850.133971 222.781076 
L 855.473684 206.547699 
L 860.813397 197.697608 
L 866.15311 168.393173 
L 871.492823 129.544359 
L 876.832536 115.482646 
L 882.172249 124.492291 
L 887.511962 120.79444 
L 892.851675 122.221836 
L 898.191388 132.774441 
L 903.5311 154.831271 
L 908.870813 169.410853 
L 914.210526 160.495341 
L 919.550239 170.534012 
L 924.889952 173.384836 
L 930.229665 165.848222 
L 935.569378 189.002506 
L 940.909091 179.157654 
L 946.248804 191.132366 
L 951.588517 196.820037 
L 956.92823 189.814093 
L 962.267943 196.106407 
L 967.607656 212.306992 
L 972.947368 225.964245 
L 978.287081 215.193605 
L 983.626794 200.414702 
L 988.966507 166.649938 
L 994.30622 135.503195 
L 999.645933 123.371194 
L 1004.985646 138.79995 
L 1010.325359 130.925779 
L 1015.665072 130.59909 
L 1021.004785 139.775129 
L 1026.344498 146.087399 
L 1031.684211 166.011959 
L 1037.023923 177.705557 
L 1042.363636 172.522068 
L 1047.703349 186.333032 
L 1053.043062 190.181615 
L 1058.382775 176.292266 
L 1063.722488 210.409211 
L 1069.062201 212.441156 
L 1074.401914 221.527364 
L 1079.741627 241.171611 
L 1085.08134 236.513605 
L 1090.421053 239.542005 
L 1095.760766 240.804686 
L 1101.100478 213.288576 
L 1106.440191 224.94257 
L 1111.779904 232.653635 
L 1117.119617 211.674234 
L 1122.45933 198.815997 
L 1127.799043 172.316716 
L 1133.138756 139.771314 
L 1138.478469 129.08216 
L 1143.818182 126.035012 
L 1149.157895 131.218502 
L 1154.497608 134.589136 
L 1159.837321 145.141588 
L 1165.177033 145.78156 
L 1170.516746 155.309773 
L 1175.856459 174.391716 
L 1181.196172 183.602507 
L 1186.535885 167.148847 
L 1191.875598 176.17597 
L 1197.215311 181.986418 
L 1202.555024 192.67329 
L 1207.894737 196.35495 
L 1213.23445 210.644808 
L 1218.574163 217.858573 
L 1223.913876 231.995077 
L 1229.253589 232.463205 
L 1234.593301 222.49326 
L 1239.933014 193.284363 
L 1245.272727 158.46647 
L 1245.272727 158.46647 
" clip-path="url(#pa639cbee3e)" style="fill: none; stroke: #0000ff; stroke-width: 1.5; stroke-linecap: square"/>
   </g>
   <g id="line2d_18">
    <path d="M 230.727273 165.569589 
L 236.066986 175.105946 
L 241.406699 158.533921 
L 246.746411 177.140236 
L 252.086124 174.609777 
L 257.425837 170.938131 
L 262.76555 164.616945 
L 268.105263 159.496487 
L 273.444976 167.276408 
L 278.784689 192.461916 
L 284.124402 203.189077 
L 289.464115 223.541905 
L 294.803828 212.219342 
L 300.143541 223.988456 
L 305.483254 239.945232 
L 310.822967 243.221669 
L 316.162679 252.528063 
L 321.502392 262.888059 
L 326.842105 261.201087 
L 332.181818 246.941207 
L 337.521531 235.57895 
L 342.861244 189.91161 
L 348.200957 150.813541 
L 353.54067 124.337995 
L 358.880383 99.499805 
L 364.220096 101.623406 
L 369.559809 102.308118 
L 374.899522 100.253981 
L 380.239234 128.218032 
L 385.578947 147.211359 
L 390.91866 176.842535 
L 396.258373 181.198893 
L 401.598086 182.568318 
L 406.937799 171.622843 
L 412.277512 151.597487 
L 417.617225 172.138859 
L 422.956938 189.286437 
L 428.296651 186.835367 
L 433.636364 184.579951 
L 438.976077 180.423655 
L 444.315789 176.058744 
L 449.655502 198.51517 
L 454.995215 209.143098 
L 460.334928 203.228771 
L 465.674641 209.837734 
L 471.014354 207.813366 
L 476.354067 185.96211 
L 481.69378 124.417382 
L 487.033493 85.765864 
L 492.373206 82.927781 
L 497.712919 100.948616 
L 503.052632 117.084013 
L 508.392344 107.140798 
L 513.732057 102.13942 
L 519.07177 113.57114 
L 524.411483 142.338985 
L 529.751196 127.53332 
L 535.090909 153.393616 
L 540.430622 167.246639 
L 545.770335 182.191231 
L 551.110048 186.984217 
L 556.449761 192.213831 
L 561.789474 191.995518 
L 567.129187 205.739383 
L 572.4689 212.130032 
L 577.808612 245.393161 
L 583.148325 212.388039 
L 588.488038 203.536395 
L 593.827751 201.144863 
L 599.167464 162.116257 
L 604.507177 124.476922 
L 609.84689 97.12812 
L 615.186603 57.583498 
L 620.526316 71.773915 
L 625.866029 84.178125 
L 631.205742 103.012677 
L 636.545455 99.221951 
L 641.885167 134.846842 
L 647.22488 132.772858 
L 652.564593 136.345271 
L 657.904306 155.43783 
L 663.244019 143.758026 
L 668.583732 153.383693 
L 673.923445 164.378786 
L 679.263158 163.793306 
L 684.602871 164.86503 
L 689.942584 175.393724 
L 695.282297 171.245756 
L 700.62201 189.703219 
L 705.961722 212.050645 
L 711.301435 226.300601 
L 716.641148 211.435396 
L 721.980861 214.978039 
L 727.320574 160.697215 
L 732.660287 119.088533 
L 738 110.405586 
L 743.339713 97.574671 
L 748.679426 76.140197 
L 754.019139 82.133912 
L 759.358852 90.462521 
L 764.698565 98.576932 
L 770.038278 108.480453 
L 775.37799 159.327791 
L 780.717703 172.932728 
L 786.057416 157.531661 
L 791.397129 132.961401 
L 796.736842 141.336725 
L 802.076555 188.61165 
L 807.416268 240.560481 
L 812.755981 245.710709 
L 818.095694 251.148715 
L 823.435407 240.639868 
L 828.77512 219.145852 
L 834.114833 223.174741 
L 839.454545 243.557338 
L 844.794258 240.773673 
L 850.133971 223.773239 
L 855.473684 207.833213 
L 860.813397 164.626869 
L 866.15311 107.76597 
L 871.492823 83.840731 
L 876.832536 100.710455 
L 882.172249 94.081646 
L 887.511962 93.724405 
L 892.851675 114.811561 
L 898.191388 146.903734 
L 903.5311 165.758133 
L 908.870813 148.332699 
L 914.210526 162.900203 
L 919.550239 165.74821 
L 924.889952 152.242506 
L 930.229665 156.688175 
L 935.569378 146.318255 
L 940.909091 167.117634 
L 946.248804 179.402764 
L 951.588517 174.907477 
L 956.92823 188.99866 
L 962.267943 208.120991 
L 967.607656 230.607343 
L 972.947368 228.186041 
L 978.287081 209.986584 
L 983.626794 169.052691 
L 988.966507 129.081365 
L 994.30622 106.118691 
L 999.645933 135.37278 
L 1004.985646 119.296923 
L 1010.325359 117.07409 
L 1015.665072 130.877494 
L 1021.004785 138.002472 
L 1026.344498 164.577253 
L 1031.684211 180.434794 
L 1037.023923 170.471733 
L 1042.363636 192.045134 
L 1047.703349 197.582374 
L 1053.043062 171.106828 
L 1058.382775 192.422223 
L 1063.722488 192.878698 
L 1069.062201 209.073635 
L 1074.401914 237.246077 
L 1079.741627 236.273586 
L 1085.08134 243.517645 
L 1090.421053 239.975002 
L 1095.760766 210.472829 
L 1101.100478 237.940712 
L 1106.440191 255.812698 
L 1111.779904 225.407498 
L 1117.119617 209.629343 
L 1122.45933 177.576864 
L 1127.799043 129.835541 
L 1133.138756 112.459723 
L 1138.478469 106.545396 
L 1143.818182 112.469646 
L 1149.157895 111.637303 
L 1154.497608 129.861854 
L 1159.837321 131.84006 
L 1165.177033 143.470249 
L 1170.516746 172.515947 
L 1175.856459 186.547588 
L 1181.196172 151.69672 
L 1186.535885 135.888796 
L 1191.875598 147.955611 
L 1197.215311 167.316102 
L 1202.555024 177.050926 
L 1207.894737 198.713638 
L 1213.23445 210.750684 
L 1218.574163 232.095848 
L 1223.913876 239.667378 
L 1229.253589 237.930789 
L 1234.593301 199.467814 
L 1239.933014 145.345765 
L 1245.272727 109.62164 
L 1245.272727 109.62164 
" clip-path="url(#pa639cbee3e)" style="fill: none; stroke: #ffa500; stroke-width: 1.5; stroke-linecap: square"/>
   </g>
   <g id="patch_3">
    <path d="M 180 320.4 
L 180 43.2 
" style="fill: none; stroke: #000000; stroke-width: 0.8; stroke-linejoin: miter; stroke-linecap: square"/>
   </g>
   <g id="patch_4">
    <path d="M 1296 320.4 
L 1296 43.2 
" style="fill: none; stroke: #000000; stroke-width: 0.8; stroke-linejoin: miter; stroke-linecap: square"/>
   </g>
   <g id="patch_5">
    <path d="M 180 320.4 
L 1296 320.4 
" style="fill: none; stroke: #000000; stroke-width: 0.8; stroke-linejoin: miter; stroke-linecap: square"/>
   </g>
   <g id="patch_6">
    <path d="M 180 43.2 
L 1296 43.2 
" style="fill: none; stroke: #000000; stroke-width: 0.8; stroke-linejoin: miter; stroke-linecap: square"/>
   </g>
   <g id="text_19">
    <!-- Previsão do vento para 1 hora(s) à frente com 4 camadas -->
    <g transform="translate(564.882187 37.2) scale(0.12 -0.12)">
     <defs>
      <path id="DejaVuSans-50" d="M 1259 4147 
L 1259 2394 
L 2053 2394 
Q 2494 2394 2734 2622 
Q 2975 2850 2975 3272 
Q 2975 3691 2734 3919 
Q 2494 4147 2053 4147 
L 1259 4147 
z
M 628 4666 
L 2053 4666 
Q 2838 4666 3239 4311 
Q 3641 3956 3641 3272 
Q 3641 2581 3239 2228 
Q 2838 1875 2053 1875 
L 1259 1875 
L 1259 0 
L 628 0 
L 628 4666 
z
" transform="scale(0.015625)"/>
      <path id="DejaVuSans-76" d="M 191 3500 
L 800 3500 
L 1894 563 
L 2988 3500 
L 3597 3500 
L 2284 0 
L 1503 0 
L 191 3500 
z
" transform="scale(0.015625)"/>
      <path id="DejaVuSans-e3" d="M 2194 1759 
Q 1497 1759 1228 1600 
Q 959 1441 959 1056 
Q 959 750 1161 570 
Q 1363 391 1709 391 
Q 2188 391 2477 730 
Q 2766 1069 2766 1631 
L 2766 1759 
L 2194 1759 
z
M 3341 1997 
L 3341 0 
L 2766 0 
L 2766 531 
Q 2569 213 2275 61 
Q 1981 -91 1556 -91 
Q 1019 -91 701 211 
Q 384 513 384 1019 
Q 384 1609 779 1909 
Q 1175 2209 1959 2209 
L 2766 2209 
L 2766 2266 
Q 2766 2663 2505 2880 
Q 2244 3097 1772 3097 
Q 1472 3097 1187 3025 
Q 903 2953 641 2809 
L 641 3341 
Q 956 3463 1253 3523 
Q 1550 3584 1831 3584 
Q 2591 3584 2966 3190 
Q 3341 2797 3341 1997 
z
M 1844 4281 
L 1666 4453 
Q 1597 4516 1545 4545 
Q 1494 4575 1453 4575 
Q 1334 4575 1278 4461 
Q 1222 4347 1216 4091 
L 825 4091 
Q 831 4513 990 4742 
Q 1150 4972 1434 4972 
Q 1553 4972 1653 4928 
Q 1753 4884 1869 4781 
L 2047 4609 
Q 2116 4547 2167 4517 
Q 2219 4488 2259 4488 
Q 2378 4488 2434 4602 
Q 2491 4716 2497 4972 
L 2888 4972 
Q 2881 4550 2722 4320 
Q 2563 4091 2278 4091 
Q 2159 4091 2059 4134 
Q 1959 4178 1844 4281 
z
" transform="scale(0.015625)"/>
      <path id="DejaVuSans-70" d="M 1159 525 
L 1159 -1331 
L 581 -1331 
L 581 3500 
L 1159 3500 
L 1159 2969 
Q 1341 3281 1617 3432 
Q 1894 3584 2278 3584 
Q 2916 3584 3314 3078 
Q 3713 2572 3713 1747 
Q 3713 922 3314 415 
Q 2916 -91 2278 -91 
Q 1894 -91 1617 61 
Q 1341 213 1159 525 
z
M 3116 1747 
Q 3116 2381 2855 2742 
Q 2594 3103 2138 3103 
Q 1681 3103 1420 2742 
Q 1159 2381 1159 1747 
Q 1159 1113 1420 752 
Q 1681 391 2138 391 
Q 2594 391 2855 752 
Q 3116 1113 3116 1747 
z
" transform="scale(0.015625)"/>
      <path id="DejaVuSans-68" d="M 3513 2113 
L 3513 0 
L 2938 0 
L 2938 2094 
Q 2938 2591 2744 2837 
Q 2550 3084 2163 3084 
Q 1697 3084 1428 2787 
Q 1159 2491 1159 1978 
L 1159 0 
L 581 0 
L 581 4863 
L 1159 4863 
L 1159 2956 
Q 1366 3272 1645 3428 
Q 1925 3584 2291 3584 
Q 2894 3584 3203 3211 
Q 3513 2838 3513 2113 
z
" transform="scale(0.015625)"/>
      <path id="DejaVuSans-e0" d="M 2194 1759 
Q 1497 1759 1228 1600 
Q 959 1441 959 1056 
Q 959 750 1161 570 
Q 1363 391 1709 391 
Q 2188 391 2477 730 
Q 2766 1069 2766 1631 
L 2766 1759 
L 2194 1759 
z
M 3341 1997 
L 3341 0 
L 2766 0 
L 2766 531 
Q 2569 213 2275 61 
Q 1981 -91 1556 -91 
Q 1019 -91 701 211 
Q 384 513 384 1019 
Q 384 1609 779 1909 
Q 1175 2209 1959 2209 
L 2766 2209 
L 2766 2266 
Q 2766 2663 2505 2880 
Q 2244 3097 1772 3097 
Q 1472 3097 1187 3025 
Q 903 2953 641 2809 
L 641 3341 
Q 956 3463 1253 3523 
Q 1550 3584 1831 3584 
Q 2591 3584 2966 3190 
Q 3341 2797 3341 1997 
z
M 1403 5119 
L 2284 3950 
L 1806 3950 
L 788 5119 
L 1403 5119 
z
" transform="scale(0.015625)"/>
      <path id="DejaVuSans-66" d="M 2375 4863 
L 2375 4384 
L 1825 4384 
Q 1516 4384 1395 4259 
Q 1275 4134 1275 3809 
L 1275 3500 
L 2222 3500 
L 2222 3053 
L 1275 3053 
L 1275 0 
L 697 0 
L 697 3053 
L 147 3053 
L 147 3500 
L 697 3500 
L 697 3744 
Q 697 4328 969 4595 
Q 1241 4863 1831 4863 
L 2375 4863 
z
" transform="scale(0.015625)"/>
     </defs>
     <use xlink:href="#DejaVuSans-50"/>
     <use xlink:href="#DejaVuSans-72" x="58.552734"/>
     <use xlink:href="#DejaVuSans-65" x="97.416016"/>
     <use xlink:href="#DejaVuSans-76" x="158.939453"/>
     <use xlink:href="#DejaVuSans-69" x="218.119141"/>
     <use xlink:href="#DejaVuSans-73" x="245.902344"/>
     <use xlink:href="#DejaVuSans-e3" x="298.001953"/>
     <use xlink:href="#DejaVuSans-6f" x="359.28125"/>
     <use xlink:href="#DejaVuSans-20" x="420.462891"/>
     <use xlink:href="#DejaVuSans-64" x="452.25"/>
     <use xlink:href="#DejaVuSans-6f" x="515.726562"/>
     <use xlink:href="#DejaVuSans-20" x="576.908203"/>
     <use xlink:href="#DejaVuSans-76" x="608.695312"/>
     <use xlink:href="#DejaVuSans-65" x="667.875"/>
     <use xlink:href="#DejaVuSans-6e" x="729.398438"/>
     <use xlink:href="#DejaVuSans-74" x="792.777344"/>
     <use xlink:href="#DejaVuSans-6f" x="831.986328"/>
     <use xlink:href="#DejaVuSans-20" x="893.167969"/>
     <use xlink:href="#DejaVuSans-70" x="924.955078"/>
     <use xlink:href="#DejaVuSans-61" x="988.431641"/>
     <use xlink:href="#DejaVuSans-72" x="1049.710938"/>
     <use xlink:href="#DejaVuSans-61" x="1090.824219"/>
     <use xlink:href="#DejaVuSans-20" x="1152.103516"/>
     <use xlink:href="#DejaVuSans-31" x="1183.890625"/>
     <use xlink:href="#DejaVuSans-20" x="1247.513672"/>
     <use xlink:href="#DejaVuSans-68" x="1279.300781"/>
     <use xlink:href="#DejaVuSans-6f" x="1342.679688"/>
     <use xlink:href="#DejaVuSans-72" x="1403.861328"/>
     <use xlink:href="#DejaVuSans-61" x="1444.974609"/>
     <use xlink:href="#DejaVuSans-28" x="1506.253906"/>
     <use xlink:href="#DejaVuSans-73" x="1545.267578"/>
     <use xlink:href="#DejaVuSans-29" x="1597.367188"/>
     <use xlink:href="#DejaVuSans-20" x="1636.380859"/>
     <use xlink:href="#DejaVuSans-e0" x="1668.167969"/>
     <use xlink:href="#DejaVuSans-20" x="1729.447266"/>
     <use xlink:href="#DejaVuSans-66" x="1761.234375"/>
     <use xlink:href="#DejaVuSans-72" x="1796.439453"/>
     <use xlink:href="#DejaVuSans-65" x="1835.302734"/>
     <use xlink:href="#DejaVuSans-6e" x="1896.826172"/>
     <use xlink:href="#DejaVuSans-74" x="1960.205078"/>
     <use xlink:href="#DejaVuSans-65" x="1999.414062"/>
     <use xlink:href="#DejaVuSans-20" x="2060.9375"/>
     <use xlink:href="#DejaVuSans-63" x="2092.724609"/>
     <use xlink:href="#DejaVuSans-6f" x="2147.705078"/>
     <use xlink:href="#DejaVuSans-6d" x="2208.886719"/>
     <use xlink:href="#DejaVuSans-20" x="2306.298828"/>
     <use xlink:href="#DejaVuSans-34" x="2338.085938"/>
     <use xlink:href="#DejaVuSans-20" x="2401.708984"/>
     <use xlink:href="#DejaVuSans-63" x="2433.496094"/>
     <use xlink:href="#DejaVuSans-61" x="2488.476562"/>
     <use xlink:href="#DejaVuSans-6d" x="2549.755859"/>
     <use xlink:href="#DejaVuSans-61" x="2647.167969"/>
     <use xlink:href="#DejaVuSans-64" x="2708.447266"/>
     <use xlink:href="#DejaVuSans-61" x="2771.923828"/>
     <use xlink:href="#DejaVuSans-73" x="2833.203125"/>
    </g>
   </g>
   <g id="legend_1">
    <g id="patch_7">
     <path d="M 1217.86875 80.55625 
L 1289 80.55625 
Q 1291 80.55625 1291 78.55625 
L 1291 50.2 
Q 1291 48.2 1289 48.2 
L 1217.86875 48.2 
Q 1215.86875 48.2 1215.86875 50.2 
L 1215.86875 78.55625 
Q 1215.86875 80.55625 1217.86875 80.55625 
z
" style="fill: #ffffff; opacity: 0.8; stroke: #cccccc; stroke-linejoin: miter"/>
    </g>
    <g id="line2d_19">
     <path d="M 1219.86875 56.298437 
L 1229.86875 56.298437 
L 1239.86875 56.298437 
" style="fill: none; stroke: #0000ff; stroke-width: 1.5; stroke-linecap: square"/>
    </g>
    <g id="text_20">
     <!-- Predito -->
     <g transform="translate(1247.86875 59.798437) scale(0.1 -0.1)">
      <use xlink:href="#DejaVuSans-50"/>
      <use xlink:href="#DejaVuSans-72" x="58.552734"/>
      <use xlink:href="#DejaVuSans-65" x="97.416016"/>
      <use xlink:href="#DejaVuSans-64" x="158.939453"/>
      <use xlink:href="#DejaVuSans-69" x="222.416016"/>
      <use xlink:href="#DejaVuSans-74" x="250.199219"/>
      <use xlink:href="#DejaVuSans-6f" x="289.408203"/>
     </g>
    </g>
    <g id="line2d_20">
     <path d="M 1219.86875 70.976562 
L 1229.86875 70.976562 
L 1239.86875 70.976562 
" style="fill: none; stroke: #ffa500; stroke-width: 1.5; stroke-linecap: square"/>
    </g>
    <g id="text_21">
     <!-- Original -->
     <g transform="translate(1247.86875 74.476562) scale(0.1 -0.1)">
      <defs>
       <path id="DejaVuSans-4f" d="M 2522 4238 
Q 1834 4238 1429 3725 
Q 1025 3213 1025 2328 
Q 1025 1447 1429 934 
Q 1834 422 2522 422 
Q 3209 422 3611 934 
Q 4013 1447 4013 2328 
Q 4013 3213 3611 3725 
Q 3209 4238 2522 4238 
z
M 2522 4750 
Q 3503 4750 4090 4092 
Q 4678 3434 4678 2328 
Q 4678 1225 4090 567 
Q 3503 -91 2522 -91 
Q 1538 -91 948 565 
Q 359 1222 359 2328 
Q 359 3434 948 4092 
Q 1538 4750 2522 4750 
z
" transform="scale(0.015625)"/>
       <path id="DejaVuSans-67" d="M 2906 1791 
Q 2906 2416 2648 2759 
Q 2391 3103 1925 3103 
Q 1463 3103 1205 2759 
Q 947 2416 947 1791 
Q 947 1169 1205 825 
Q 1463 481 1925 481 
Q 2391 481 2648 825 
Q 2906 1169 2906 1791 
z
M 3481 434 
Q 3481 -459 3084 -895 
Q 2688 -1331 1869 -1331 
Q 1566 -1331 1297 -1286 
Q 1028 -1241 775 -1147 
L 775 -588 
Q 1028 -725 1275 -790 
Q 1522 -856 1778 -856 
Q 2344 -856 2625 -561 
Q 2906 -266 2906 331 
L 2906 616 
Q 2728 306 2450 153 
Q 2172 0 1784 0 
Q 1141 0 747 490 
Q 353 981 353 1791 
Q 353 2603 747 3093 
Q 1141 3584 1784 3584 
Q 2172 3584 2450 3431 
Q 2728 3278 2906 2969 
L 2906 3500 
L 3481 3500 
L 3481 434 
z
" transform="scale(0.015625)"/>
      </defs>
      <use xlink:href="#DejaVuSans-4f"/>
      <use xlink:href="#DejaVuSans-72" x="78.710938"/>
      <use xlink:href="#DejaVuSans-69" x="119.824219"/>
      <use xlink:href="#DejaVuSans-67" x="147.607422"/>
      <use xlink:href="#DejaVuSans-69" x="211.083984"/>
      <use xlink:href="#DejaVuSans-6e" x="238.867188"/>
      <use xlink:href="#DejaVuSans-61" x="302.246094"/>
      <use xlink:href="#DejaVuSans-6c" x="363.525391"/>
     </g>
    </g>
   </g>
  </g>
 </g>
 <defs>
  <clipPath id="pa639cbee3e">
   <rect x="180" y="43.2" width="1116" height="277.2"/>
  </clipPath>
 </defs>
</svg>
