<?xml version="1.0" encoding="utf-8" standalone="no"?>
<!DOCTYPE svg PUBLIC "-//W3C//DTD SVG 1.1//EN"
  "http://www.w3.org/Graphics/SVG/1.1/DTD/svg11.dtd">
<svg xmlns:xlink="http://www.w3.org/1999/xlink" width="1440pt" height="360pt" viewBox="0 0 1440 360" xmlns="http://www.w3.org/2000/svg" version="1.1">
 <metadata>
  <rdf:RDF xmlns:dc="http://purl.org/dc/elements/1.1/" xmlns:cc="http://creativecommons.org/ns#" xmlns:rdf="http://www.w3.org/1999/02/22-rdf-syntax-ns#">
   <cc:Work>
    <dc:type rdf:resource="http://purl.org/dc/dcmitype/StillImage"/>
    <dc:date>2023-08-20T14:26:09.420874</dc:date>
    <dc:format>image/svg+xml</dc:format>
    <dc:creator>
     <cc:Agent>
      <dc:title>Matplotlib v3.7.1, https://matplotlib.org/</dc:title>
     </cc:Agent>
    </dc:creator>
   </cc:Work>
  </rdf:RDF>
 </metadata>
 <defs>
  <style type="text/css">*{stroke-linejoin: round; stroke-linecap: butt}</style>
 </defs>
 <g id="figure_1">
  <g id="patch_1">
   <path d="M 0 360 
L 1440 360 
L 1440 0 
L 0 0 
z
" style="fill: #ffffff"/>
  </g>
  <g id="axes_1">
   <g id="patch_2">
    <path d="M 180 320.4 
L 1296 320.4 
L 1296 43.2 
L 180 43.2 
z
" style="fill: #ffffff"/>
   </g>
   <g id="PolyCollection_1">
    <defs>
     <path id="m477e5c81d1" d="M 230.727273 -264.964948 
L 230.727273 -196.265943 
L 236.066986 -156.261707 
L 241.406699 -148.441231 
L 246.746411 -157.671232 
L 252.086124 -143.404517 
L 257.425837 -146.240881 
L 262.76555 -147.06168 
L 268.105263 -150.848418 
L 273.444976 -153.124086 
L 278.784689 -144.985826 
L 284.124402 -122.79831 
L 289.464115 -111.633277 
L 294.803828 -79.739543 
L 300.143541 -93.083703 
L 305.483254 -84.874776 
L 310.822967 -71.211459 
L 316.162679 -69.357504 
L 321.502392 -64.366125 
L 326.842105 -60.196909 
L 332.181818 -65.711562 
L 337.521531 -79.665059 
L 342.861244 -92.543763 
L 348.200957 -135.130291 
L 353.54067 -172.462603 
L 358.880383 -196.856782 
L 364.220096 -213.395503 
L 369.559809 -212.628006 
L 374.899522 -211.062715 
L 380.239234 -210.548778 
L 385.578947 -189.517577 
L 390.91866 -170.634924 
L 396.258373 -144.295795 
L 401.598086 -138.32682 
L 406.937799 -135.49233 
L 412.277512 -141.399636 
L 417.617225 -154.473374 
L 422.956938 -130.081436 
L 428.296651 -114.334946 
L 433.636364 -120.506044 
L 438.976077 -125.298043 
L 444.315789 -131.636886 
L 449.655502 -137.775702 
L 454.995215 -119.186577 
L 460.334928 -109.582072 
L 465.674641 -121.634421 
L 471.014354 -125.335276 
L 476.354067 -137.959243 
L 481.69378 -152.124449 
L 487.033493 -201.389035 
L 492.373206 -224.494948 
L 497.712919 -224.102288 
L 503.052632 -211.572698 
L 508.392344 -200.540528 
L 513.732057 -204.923116 
L 519.07177 -203.546137 
L 524.411483 -194.927782 
L 529.751196 -171.385261 
L 535.090909 -178.263781 
L 540.430622 -157.363467 
L 545.770335 -141.960348 
L 551.110048 -119.278441 
L 556.449761 -117.252856 
L 561.789474 -115.213435 
L 567.129187 -117.879634 
L 572.4689 -104.029879 
L 577.808612 -98.880042 
L 583.148325 -70.34345 
L 588.488038 -107.490354 
L 593.827751 -123.414063 
L 599.167464 -134.110308 
L 604.507177 -170.256015 
L 609.84689 -199.022405 
L 615.186603 -217.423771 
L 620.526316 -235.500995 
L 625.866029 -229.348224 
L 631.205742 -215.053017 
L 636.545455 -203.747741 
L 641.885167 -207.097837 
L 647.22488 -178.792014 
L 652.564593 -175.549869 
L 657.904306 -171.116092 
L 663.244019 -153.677352 
L 668.583732 -161.561541 
L 673.923445 -151.420649 
L 679.263158 -136.061955 
L 684.602871 -138.929383 
L 689.942584 -139.839729 
L 695.282297 -131.297357 
L 700.62201 -137.490071 
L 705.961722 -120.932036 
L 711.301435 -100.910338 
L 716.641148 -91.478452 
L 721.980861 -112.851814 
L 727.320574 -122.231515 
L 732.660287 -170.947427 
L 738 -203.819004 
L 743.339713 -209.259779 
L 748.679426 -217.483753 
L 754.019139 -226.339479 
L 759.358852 -223.126234 
L 764.698565 -216.413244 
L 770.038278 -209.354694 
L 775.37799 -200.060928 
L 780.717703 -157.421847 
L 786.057416 -142.976463 
L 791.397129 -153.698209 
L 796.736842 -170.790179 
L 802.076555 -161.389877 
L 807.416268 -111.073749 
L 812.755981 -81.595781 
L 818.095694 -80.043466 
L 823.435407 -52.2 
L 828.77512 -64.204327 
L 834.114833 -88.455241 
L 839.454545 -85.832741 
L 844.794258 -76.451541 
L 850.133971 -95.232353 
L 855.473684 -119.412267 
L 860.813397 -130.526691 
L 866.15311 -160.983431 
L 871.492823 -206.310898 
L 876.832536 -222.344321 
L 882.172249 -210.545319 
L 887.511962 -214.15862 
L 892.851675 -211.391798 
L 898.191388 -198.134126 
L 903.5311 -171.682939 
L 908.870813 -153.313711 
L 914.210526 -162.491245 
L 919.550239 -149.942161 
L 924.889952 -144.766841 
L 930.229665 -153.227266 
L 935.569378 -143.731879 
L 940.909091 -156.142544 
L 946.248804 -137.6738 
L 951.588517 -128.11049 
L 956.92823 -135.732889 
L 962.267943 -127.372243 
L 967.607656 -110.279541 
L 972.947368 -94.240017 
L 978.287081 -107.298513 
L 983.626794 -127.022704 
L 988.966507 -164.260168 
L 994.30622 -199.181493 
L 999.645933 -213.041183 
L 1004.985646 -194.533281 
L 1010.325359 -204.148428 
L 1015.665072 -203.908278 
L 1021.004785 -192.953318 
L 1026.344498 -185.171814 
L 1031.684211 -161.563552 
L 1037.023923 -146.772625 
L 1042.363636 -152.471782 
L 1047.703349 -134.644454 
L 1053.043062 -126.826671 
L 1058.382775 -143.055088 
L 1063.722488 -110.4479 
L 1069.062201 -110.679504 
L 1074.401914 -98.301173 
L 1079.741627 -74.073827 
L 1085.08134 -79.995216 
L 1090.421053 -77.053653 
L 1095.760766 -76.017626 
L 1101.100478 -107.462245 
L 1106.440191 -93.336505 
L 1111.779904 -90.607989 
L 1117.119617 -115.449179 
L 1122.45933 -129.749447 
L 1127.799043 -159.989008 
L 1133.138756 -196.116976 
L 1138.478469 -207.944384 
L 1143.818182 -211.028515 
L 1149.157895 -204.493495 
L 1154.497608 -198.951347 
L 1159.837321 -184.427373 
L 1165.177033 -185.683536 
L 1170.516746 -174.273582 
L 1175.856459 -149.953919 
L 1181.196172 -136.145844 
L 1186.535885 -153.591367 
L 1191.875598 -163.401472 
L 1197.215311 -153.843223 
L 1202.555024 -138.327093 
L 1207.894737 -131.679419 
L 1213.23445 -111.840078 
L 1218.574163 -102.444565 
L 1223.913876 -84.412506 
L 1229.253589 -82.814727 
L 1234.593301 -96.073507 
L 1239.933014 -135.032292 
L 1245.272727 -176.329174 
L 1245.272727 -245.028179 
L 1245.272727 -245.028179 
L 1239.933014 -203.731297 
L 1234.593301 -164.77252 
L 1229.253589 -151.513732 
L 1223.913876 -153.111511 
L 1218.574163 -171.143578 
L 1213.23445 -180.539092 
L 1207.894737 -200.378424 
L 1202.555024 -207.026098 
L 1197.215311 -222.542228 
L 1191.875598 -232.100477 
L 1186.535885 -222.290372 
L 1181.196172 -204.844849 
L 1175.856459 -218.652924 
L 1170.516746 -242.972586 
L 1165.177033 -254.382541 
L 1159.837321 -253.126378 
L 1154.497608 -267.650351 
L 1149.157895 -273.1925 
L 1143.818182 -279.72752 
L 1138.478469 -276.643389 
L 1133.138756 -264.815981 
L 1127.799043 -228.688013 
L 1122.45933 -198.448452 
L 1117.119617 -184.148184 
L 1111.779904 -159.306994 
L 1106.440191 -162.03551 
L 1101.100478 -176.161259 
L 1095.760766 -144.716631 
L 1090.421053 -145.752658 
L 1085.08134 -148.694221 
L 1079.741627 -142.772831 
L 1074.401914 -167.000186 
L 1069.062201 -179.378509 
L 1063.722488 -179.146913 
L 1058.382775 -211.754093 
L 1053.043062 -195.525676 
L 1047.703349 -203.343459 
L 1042.363636 -221.170787 
L 1037.023923 -215.47163 
L 1031.684211 -230.262557 
L 1026.344498 -253.870819 
L 1021.004785 -261.652323 
L 1015.665072 -272.607283 
L 1010.325359 -272.847433 
L 1004.985646 -263.232286 
L 999.645933 -281.740188 
L 994.30622 -267.880498 
L 988.966507 -232.959173 
L 983.626794 -195.721708 
L 978.287081 -175.997518 
L 972.947368 -162.939022 
L 967.607656 -178.978555 
L 962.267943 -196.071257 
L 956.92823 -204.431894 
L 951.588517 -196.809495 
L 946.248804 -206.372805 
L 940.909091 -224.841549 
L 935.569378 -212.430884 
L 930.229665 -221.926271 
L 924.889952 -213.465846 
L 919.550239 -218.641166 
L 914.210526 -231.19025 
L 908.870813 -222.012716 
L 903.5311 -240.381944 
L 898.191388 -266.833131 
L 892.851675 -280.090803 
L 887.511962 -282.857625 
L 882.172249 -279.244324 
L 876.832536 -291.043326 
L 871.492823 -275.009903 
L 866.15311 -229.682436 
L 860.813397 -199.225696 
L 855.473684 -188.111272 
L 850.133971 -163.931358 
L 844.794258 -145.150546 
L 839.454545 -154.531746 
L 834.114833 -157.154245 
L 828.77512 -132.903332 
L 823.435407 -120.899011 
L 818.095694 -148.742471 
L 812.755981 -150.294786 
L 807.416268 -179.772754 
L 802.076555 -230.088882 
L 796.736842 -239.489184 
L 791.397129 -222.397214 
L 786.057416 -211.675468 
L 780.717703 -226.120852 
L 775.37799 -268.759933 
L 770.038278 -278.053699 
L 764.698565 -285.112249 
L 759.358852 -291.825239 
L 754.019139 -295.038484 
L 748.679426 -286.182757 
L 743.339713 -277.958784 
L 738 -272.518009 
L 732.660287 -239.646432 
L 727.320574 -190.930528 
L 721.980861 -181.550828 
L 716.641148 -160.177457 
L 711.301435 -169.609352 
L 705.961722 -189.631049 
L 700.62201 -206.189076 
L 695.282297 -199.996362 
L 689.942584 -208.538734 
L 684.602871 -207.628388 
L 679.263158 -204.76096 
L 673.923445 -220.119654 
L 668.583732 -230.260546 
L 663.244019 -222.376357 
L 657.904306 -239.815097 
L 652.564593 -244.248874 
L 647.22488 -247.491019 
L 641.885167 -275.796842 
L 636.545455 -272.446746 
L 631.205742 -283.752022 
L 625.866029 -298.047228 
L 620.526316 -304.2 
L 615.186603 -286.122775 
L 609.84689 -267.72141 
L 604.507177 -238.95502 
L 599.167464 -202.809313 
L 593.827751 -192.113076 
L 588.488038 -176.189358 
L 583.148325 -139.042455 
L 577.808612 -167.579047 
L 572.4689 -172.728892 
L 567.129187 -186.578647 
L 561.789474 -183.912448 
L 556.449761 -185.95187 
L 551.110048 -187.977455 
L 545.770335 -210.659353 
L 540.430622 -226.062472 
L 535.090909 -246.962786 
L 529.751196 -240.084266 
L 524.411483 -263.626787 
L 519.07177 -272.245142 
L 513.732057 -273.622121 
L 508.392344 -269.239533 
L 503.052632 -280.271703 
L 497.712919 -292.801293 
L 492.373206 -293.193953 
L 487.033493 -270.08804 
L 481.69378 -220.823454 
L 476.354067 -206.658248 
L 471.014354 -194.034289 
L 465.674641 -190.333435 
L 460.334928 -178.281077 
L 454.995215 -187.88559 
L 449.655502 -206.474706 
L 444.315789 -200.335891 
L 438.976077 -193.997056 
L 433.636364 -189.205058 
L 428.296651 -183.033951 
L 422.956938 -198.780449 
L 417.617225 -223.172379 
L 412.277512 -210.098641 
L 406.937799 -204.191335 
L 401.598086 -207.025825 
L 396.258373 -212.994799 
L 390.91866 -239.333929 
L 385.578947 -258.216582 
L 380.239234 -279.247783 
L 374.899522 -279.76172 
L 369.559809 -281.327011 
L 364.220096 -282.094508 
L 358.880383 -265.555787 
L 353.54067 -241.161608 
L 348.200957 -203.829296 
L 342.861244 -161.242768 
L 337.521531 -148.364064 
L 332.181818 -134.410567 
L 326.842105 -128.895914 
L 321.502392 -133.06513 
L 316.162679 -138.056509 
L 310.822967 -139.910464 
L 305.483254 -153.573781 
L 300.143541 -161.782708 
L 294.803828 -148.438548 
L 289.464115 -180.33229 
L 284.124402 -191.497324 
L 278.784689 -213.684831 
L 273.444976 -221.823091 
L 268.105263 -219.547423 
L 262.76555 -215.760685 
L 257.425837 -214.939886 
L 252.086124 -212.103522 
L 246.746411 -226.370237 
L 241.406699 -217.140236 
L 236.066986 -224.960712 
L 230.727273 -264.964948 
z
" style="stroke: #0000ff; stroke-opacity: 0.05"/>
    </defs>
    <g clip-path="url(#pab2ebbd6a3)">
     <use xlink:href="#m477e5c81d1" x="0" y="360" style="fill: #0000ff; fill-opacity: 0.05; stroke: #0000ff; stroke-opacity: 0.05"/>
    </g>
   </g>
   <g id="matplotlib.axis_1">
    <g id="xtick_1">
     <g id="line2d_1">
      <defs>
       <path id="mc844290f88" d="M 0 0 
L 0 3.5 
" style="stroke: #000000; stroke-width: 0.8"/>
      </defs>
      <g>
       <use xlink:href="#mc844290f88" x="230.727273" y="320.4" style="stroke: #000000; stroke-width: 0.8"/>
      </g>
     </g>
     <g id="text_1">
      <!-- 0 -->
      <g transform="translate(227.546023 334.998438) scale(0.1 -0.1)">
       <defs>
        <path id="DejaVuSans-30" d="M 2034 4250 
Q 1547 4250 1301 3770 
Q 1056 3291 1056 2328 
Q 1056 1369 1301 889 
Q 1547 409 2034 409 
Q 2525 409 2770 889 
Q 3016 1369 3016 2328 
Q 3016 3291 2770 3770 
Q 2525 4250 2034 4250 
z
M 2034 4750 
Q 2819 4750 3233 4129 
Q 3647 3509 3647 2328 
Q 3647 1150 3233 529 
Q 2819 -91 2034 -91 
Q 1250 -91 836 529 
Q 422 1150 422 2328 
Q 422 3509 836 4129 
Q 1250 4750 2034 4750 
z
" transform="scale(0.015625)"/>
       </defs>
       <use xlink:href="#DejaVuSans-30"/>
      </g>
     </g>
    </g>
    <g id="xtick_2">
     <g id="line2d_2">
      <g>
       <use xlink:href="#mc844290f88" x="364.220096" y="320.4" style="stroke: #000000; stroke-width: 0.8"/>
      </g>
     </g>
     <g id="text_2">
      <!-- 25 -->
      <g transform="translate(357.857596 334.998438) scale(0.1 -0.1)">
       <defs>
        <path id="DejaVuSans-32" d="M 1228 531 
L 3431 531 
L 3431 0 
L 469 0 
L 469 531 
Q 828 903 1448 1529 
Q 2069 2156 2228 2338 
Q 2531 2678 2651 2914 
Q 2772 3150 2772 3378 
Q 2772 3750 2511 3984 
Q 2250 4219 1831 4219 
Q 1534 4219 1204 4116 
Q 875 4013 500 3803 
L 500 4441 
Q 881 4594 1212 4672 
Q 1544 4750 1819 4750 
Q 2544 4750 2975 4387 
Q 3406 4025 3406 3419 
Q 3406 3131 3298 2873 
Q 3191 2616 2906 2266 
Q 2828 2175 2409 1742 
Q 1991 1309 1228 531 
z
" transform="scale(0.015625)"/>
        <path id="DejaVuSans-35" d="M 691 4666 
L 3169 4666 
L 3169 4134 
L 1269 4134 
L 1269 2991 
Q 1406 3038 1543 3061 
Q 1681 3084 1819 3084 
Q 2600 3084 3056 2656 
Q 3513 2228 3513 1497 
Q 3513 744 3044 326 
Q 2575 -91 1722 -91 
Q 1428 -91 1123 -41 
Q 819 9 494 109 
L 494 744 
Q 775 591 1075 516 
Q 1375 441 1709 441 
Q 2250 441 2565 725 
Q 2881 1009 2881 1497 
Q 2881 1984 2565 2268 
Q 2250 2553 1709 2553 
Q 1456 2553 1204 2497 
Q 953 2441 691 2322 
L 691 4666 
z
" transform="scale(0.015625)"/>
       </defs>
       <use xlink:href="#DejaVuSans-32"/>
       <use xlink:href="#DejaVuSans-35" x="63.623047"/>
      </g>
     </g>
    </g>
    <g id="xtick_3">
     <g id="line2d_3">
      <g>
       <use xlink:href="#mc844290f88" x="497.712919" y="320.4" style="stroke: #000000; stroke-width: 0.8"/>
      </g>
     </g>
     <g id="text_3">
      <!-- 50 -->
      <g transform="translate(491.350419 334.998438) scale(0.1 -0.1)">
       <use xlink:href="#DejaVuSans-35"/>
       <use xlink:href="#DejaVuSans-30" x="63.623047"/>
      </g>
     </g>
    </g>
    <g id="xtick_4">
     <g id="line2d_4">
      <g>
       <use xlink:href="#mc844290f88" x="631.205742" y="320.4" style="stroke: #000000; stroke-width: 0.8"/>
      </g>
     </g>
     <g id="text_4">
      <!-- 75 -->
      <g transform="translate(624.843242 334.998438) scale(0.1 -0.1)">
       <defs>
        <path id="DejaVuSans-37" d="M 525 4666 
L 3525 4666 
L 3525 4397 
L 1831 0 
L 1172 0 
L 2766 4134 
L 525 4134 
L 525 4666 
z
" transform="scale(0.015625)"/>
       </defs>
       <use xlink:href="#DejaVuSans-37"/>
       <use xlink:href="#DejaVuSans-35" x="63.623047"/>
      </g>
     </g>
    </g>
    <g id="xtick_5">
     <g id="line2d_5">
      <g>
       <use xlink:href="#mc844290f88" x="764.698565" y="320.4" style="stroke: #000000; stroke-width: 0.8"/>
      </g>
     </g>
     <g id="text_5">
      <!-- 100 -->
      <g transform="translate(755.154815 334.998438) scale(0.1 -0.1)">
       <defs>
        <path id="DejaVuSans-31" d="M 794 531 
L 1825 531 
L 1825 4091 
L 703 3866 
L 703 4441 
L 1819 4666 
L 2450 4666 
L 2450 531 
L 3481 531 
L 3481 0 
L 794 0 
L 794 531 
z
" transform="scale(0.015625)"/>
       </defs>
       <use xlink:href="#DejaVuSans-31"/>
       <use xlink:href="#DejaVuSans-30" x="63.623047"/>
       <use xlink:href="#DejaVuSans-30" x="127.246094"/>
      </g>
     </g>
    </g>
    <g id="xtick_6">
     <g id="line2d_6">
      <g>
       <use xlink:href="#mc844290f88" x="898.191388" y="320.4" style="stroke: #000000; stroke-width: 0.8"/>
      </g>
     </g>
     <g id="text_6">
      <!-- 125 -->
      <g transform="translate(888.647638 334.998438) scale(0.1 -0.1)">
       <use xlink:href="#DejaVuSans-31"/>
       <use xlink:href="#DejaVuSans-32" x="63.623047"/>
       <use xlink:href="#DejaVuSans-35" x="127.246094"/>
      </g>
     </g>
    </g>
    <g id="xtick_7">
     <g id="line2d_7">
      <g>
       <use xlink:href="#mc844290f88" x="1031.684211" y="320.4" style="stroke: #000000; stroke-width: 0.8"/>
      </g>
     </g>
     <g id="text_7">
      <!-- 150 -->
      <g transform="translate(1022.140461 334.998438) scale(0.1 -0.1)">
       <use xlink:href="#DejaVuSans-31"/>
       <use xlink:href="#DejaVuSans-35" x="63.623047"/>
       <use xlink:href="#DejaVuSans-30" x="127.246094"/>
      </g>
     </g>
    </g>
    <g id="xtick_8">
     <g id="line2d_8">
      <g>
       <use xlink:href="#mc844290f88" x="1165.177033" y="320.4" style="stroke: #000000; stroke-width: 0.8"/>
      </g>
     </g>
     <g id="text_8">
      <!-- 175 -->
      <g transform="translate(1155.633283 334.998438) scale(0.1 -0.1)">
       <use xlink:href="#DejaVuSans-31"/>
       <use xlink:href="#DejaVuSans-37" x="63.623047"/>
       <use xlink:href="#DejaVuSans-35" x="127.246094"/>
      </g>
     </g>
    </g>
    <g id="text_9">
     <!-- Amostras -->
     <g transform="translate(714.360937 348.676562) scale(0.1 -0.1)">
      <defs>
       <path id="DejaVuSans-41" d="M 2188 4044 
L 1331 1722 
L 3047 1722 
L 2188 4044 
z
M 1831 4666 
L 2547 4666 
L 4325 0 
L 3669 0 
L 3244 1197 
L 1141 1197 
L 716 0 
L 50 0 
L 1831 4666 
z
" transform="scale(0.015625)"/>
       <path id="DejaVuSans-6d" d="M 3328 2828 
Q 3544 3216 3844 3400 
Q 4144 3584 4550 3584 
Q 5097 3584 5394 3201 
Q 5691 2819 5691 2113 
L 5691 0 
L 5113 0 
L 5113 2094 
Q 5113 2597 4934 2840 
Q 4756 3084 4391 3084 
Q 3944 3084 3684 2787 
Q 3425 2491 3425 1978 
L 3425 0 
L 2847 0 
L 2847 2094 
Q 2847 2600 2669 2842 
Q 2491 3084 2119 3084 
Q 1678 3084 1418 2786 
Q 1159 2488 1159 1978 
L 1159 0 
L 581 0 
L 581 3500 
L 1159 3500 
L 1159 2956 
Q 1356 3278 1631 3431 
Q 1906 3584 2284 3584 
Q 2666 3584 2933 3390 
Q 3200 3197 3328 2828 
z
" transform="scale(0.015625)"/>
       <path id="DejaVuSans-6f" d="M 1959 3097 
Q 1497 3097 1228 2736 
Q 959 2375 959 1747 
Q 959 1119 1226 758 
Q 1494 397 1959 397 
Q 2419 397 2687 759 
Q 2956 1122 2956 1747 
Q 2956 2369 2687 2733 
Q 2419 3097 1959 3097 
z
M 1959 3584 
Q 2709 3584 3137 3096 
Q 3566 2609 3566 1747 
Q 3566 888 3137 398 
Q 2709 -91 1959 -91 
Q 1206 -91 779 398 
Q 353 888 353 1747 
Q 353 2609 779 3096 
Q 1206 3584 1959 3584 
z
" transform="scale(0.015625)"/>
       <path id="DejaVuSans-73" d="M 2834 3397 
L 2834 2853 
Q 2591 2978 2328 3040 
Q 2066 3103 1784 3103 
Q 1356 3103 1142 2972 
Q 928 2841 928 2578 
Q 928 2378 1081 2264 
Q 1234 2150 1697 2047 
L 1894 2003 
Q 2506 1872 2764 1633 
Q 3022 1394 3022 966 
Q 3022 478 2636 193 
Q 2250 -91 1575 -91 
Q 1294 -91 989 -36 
Q 684 19 347 128 
L 347 722 
Q 666 556 975 473 
Q 1284 391 1588 391 
Q 1994 391 2212 530 
Q 2431 669 2431 922 
Q 2431 1156 2273 1281 
Q 2116 1406 1581 1522 
L 1381 1569 
Q 847 1681 609 1914 
Q 372 2147 372 2553 
Q 372 3047 722 3315 
Q 1072 3584 1716 3584 
Q 2034 3584 2315 3537 
Q 2597 3491 2834 3397 
z
" transform="scale(0.015625)"/>
       <path id="DejaVuSans-74" d="M 1172 4494 
L 1172 3500 
L 2356 3500 
L 2356 3053 
L 1172 3053 
L 1172 1153 
Q 1172 725 1289 603 
Q 1406 481 1766 481 
L 2356 481 
L 2356 0 
L 1766 0 
Q 1100 0 847 248 
Q 594 497 594 1153 
L 594 3053 
L 172 3053 
L 172 3500 
L 594 3500 
L 594 4494 
L 1172 4494 
z
" transform="scale(0.015625)"/>
       <path id="DejaVuSans-72" d="M 2631 2963 
Q 2534 3019 2420 3045 
Q 2306 3072 2169 3072 
Q 1681 3072 1420 2755 
Q 1159 2438 1159 1844 
L 1159 0 
L 581 0 
L 581 3500 
L 1159 3500 
L 1159 2956 
Q 1341 3275 1631 3429 
Q 1922 3584 2338 3584 
Q 2397 3584 2469 3576 
Q 2541 3569 2628 3553 
L 2631 2963 
z
" transform="scale(0.015625)"/>
       <path id="DejaVuSans-61" d="M 2194 1759 
Q 1497 1759 1228 1600 
Q 959 1441 959 1056 
Q 959 750 1161 570 
Q 1363 391 1709 391 
Q 2188 391 2477 730 
Q 2766 1069 2766 1631 
L 2766 1759 
L 2194 1759 
z
M 3341 1997 
L 3341 0 
L 2766 0 
L 2766 531 
Q 2569 213 2275 61 
Q 1981 -91 1556 -91 
Q 1019 -91 701 211 
Q 384 513 384 1019 
Q 384 1609 779 1909 
Q 1175 2209 1959 2209 
L 2766 2209 
L 2766 2266 
Q 2766 2663 2505 2880 
Q 2244 3097 1772 3097 
Q 1472 3097 1187 3025 
Q 903 2953 641 2809 
L 641 3341 
Q 956 3463 1253 3523 
Q 1550 3584 1831 3584 
Q 2591 3584 2966 3190 
Q 3341 2797 3341 1997 
z
" transform="scale(0.015625)"/>
      </defs>
      <use xlink:href="#DejaVuSans-41"/>
      <use xlink:href="#DejaVuSans-6d" x="68.408203"/>
      <use xlink:href="#DejaVuSans-6f" x="165.820312"/>
      <use xlink:href="#DejaVuSans-73" x="227.001953"/>
      <use xlink:href="#DejaVuSans-74" x="279.101562"/>
      <use xlink:href="#DejaVuSans-72" x="318.310547"/>
      <use xlink:href="#DejaVuSans-61" x="359.423828"/>
      <use xlink:href="#DejaVuSans-73" x="420.703125"/>
     </g>
    </g>
   </g>
   <g id="matplotlib.axis_2">
    <g id="ytick_1">
     <g id="line2d_9">
      <defs>
       <path id="meb64af2135" d="M 0 0 
L -3.5 0 
" style="stroke: #000000; stroke-width: 0.8"/>
      </defs>
      <g>
       <use xlink:href="#meb64af2135" x="180" y="302.562382" style="stroke: #000000; stroke-width: 0.8"/>
      </g>
     </g>
     <g id="text_10">
      <!-- 2 -->
      <g transform="translate(166.6375 306.361601) scale(0.1 -0.1)">
       <use xlink:href="#DejaVuSans-32"/>
      </g>
     </g>
    </g>
    <g id="ytick_2">
     <g id="line2d_10">
      <g>
       <use xlink:href="#meb64af2135" x="180" y="266.826205" style="stroke: #000000; stroke-width: 0.8"/>
      </g>
     </g>
     <g id="text_11">
      <!-- 4 -->
      <g transform="translate(166.6375 270.625424) scale(0.1 -0.1)">
       <defs>
        <path id="DejaVuSans-34" d="M 2419 4116 
L 825 1625 
L 2419 1625 
L 2419 4116 
z
M 2253 4666 
L 3047 4666 
L 3047 1625 
L 3713 1625 
L 3713 1100 
L 3047 1100 
L 3047 0 
L 2419 0 
L 2419 1100 
L 313 1100 
L 313 1709 
L 2253 4666 
z
" transform="scale(0.015625)"/>
       </defs>
       <use xlink:href="#DejaVuSans-34"/>
      </g>
     </g>
    </g>
    <g id="ytick_3">
     <g id="line2d_11">
      <g>
       <use xlink:href="#meb64af2135" x="180" y="231.090028" style="stroke: #000000; stroke-width: 0.8"/>
      </g>
     </g>
     <g id="text_12">
      <!-- 6 -->
      <g transform="translate(166.6375 234.889247) scale(0.1 -0.1)">
       <defs>
        <path id="DejaVuSans-36" d="M 2113 2584 
Q 1688 2584 1439 2293 
Q 1191 2003 1191 1497 
Q 1191 994 1439 701 
Q 1688 409 2113 409 
Q 2538 409 2786 701 
Q 3034 994 3034 1497 
Q 3034 2003 2786 2293 
Q 2538 2584 2113 2584 
z
M 3366 4563 
L 3366 3988 
Q 3128 4100 2886 4159 
Q 2644 4219 2406 4219 
Q 1781 4219 1451 3797 
Q 1122 3375 1075 2522 
Q 1259 2794 1537 2939 
Q 1816 3084 2150 3084 
Q 2853 3084 3261 2657 
Q 3669 2231 3669 1497 
Q 3669 778 3244 343 
Q 2819 -91 2113 -91 
Q 1303 -91 875 529 
Q 447 1150 447 2328 
Q 447 3434 972 4092 
Q 1497 4750 2381 4750 
Q 2619 4750 2861 4703 
Q 3103 4656 3366 4563 
z
" transform="scale(0.015625)"/>
       </defs>
       <use xlink:href="#DejaVuSans-36"/>
      </g>
     </g>
    </g>
    <g id="ytick_4">
     <g id="line2d_12">
      <g>
       <use xlink:href="#meb64af2135" x="180" y="195.353851" style="stroke: #000000; stroke-width: 0.8"/>
      </g>
     </g>
     <g id="text_13">
      <!-- 8 -->
      <g transform="translate(166.6375 199.15307) scale(0.1 -0.1)">
       <defs>
        <path id="DejaVuSans-38" d="M 2034 2216 
Q 1584 2216 1326 1975 
Q 1069 1734 1069 1313 
Q 1069 891 1326 650 
Q 1584 409 2034 409 
Q 2484 409 2743 651 
Q 3003 894 3003 1313 
Q 3003 1734 2745 1975 
Q 2488 2216 2034 2216 
z
M 1403 2484 
Q 997 2584 770 2862 
Q 544 3141 544 3541 
Q 544 4100 942 4425 
Q 1341 4750 2034 4750 
Q 2731 4750 3128 4425 
Q 3525 4100 3525 3541 
Q 3525 3141 3298 2862 
Q 3072 2584 2669 2484 
Q 3125 2378 3379 2068 
Q 3634 1759 3634 1313 
Q 3634 634 3220 271 
Q 2806 -91 2034 -91 
Q 1263 -91 848 271 
Q 434 634 434 1313 
Q 434 1759 690 2068 
Q 947 2378 1403 2484 
z
M 1172 3481 
Q 1172 3119 1398 2916 
Q 1625 2713 2034 2713 
Q 2441 2713 2670 2916 
Q 2900 3119 2900 3481 
Q 2900 3844 2670 4047 
Q 2441 4250 2034 4250 
Q 1625 4250 1398 4047 
Q 1172 3844 1172 3481 
z
" transform="scale(0.015625)"/>
       </defs>
       <use xlink:href="#DejaVuSans-38"/>
      </g>
     </g>
    </g>
    <g id="ytick_5">
     <g id="line2d_13">
      <g>
       <use xlink:href="#meb64af2135" x="180" y="159.617674" style="stroke: #000000; stroke-width: 0.8"/>
      </g>
     </g>
     <g id="text_14">
      <!-- 10 -->
      <g transform="translate(160.275 163.416893) scale(0.1 -0.1)">
       <use xlink:href="#DejaVuSans-31"/>
       <use xlink:href="#DejaVuSans-30" x="63.623047"/>
      </g>
     </g>
    </g>
    <g id="ytick_6">
     <g id="line2d_14">
      <g>
       <use xlink:href="#meb64af2135" x="180" y="123.881497" style="stroke: #000000; stroke-width: 0.8"/>
      </g>
     </g>
     <g id="text_15">
      <!-- 12 -->
      <g transform="translate(160.275 127.680716) scale(0.1 -0.1)">
       <use xlink:href="#DejaVuSans-31"/>
       <use xlink:href="#DejaVuSans-32" x="63.623047"/>
      </g>
     </g>
    </g>
    <g id="ytick_7">
     <g id="line2d_15">
      <g>
       <use xlink:href="#meb64af2135" x="180" y="88.14532" style="stroke: #000000; stroke-width: 0.8"/>
      </g>
     </g>
     <g id="text_16">
      <!-- 14 -->
      <g transform="translate(160.275 91.944539) scale(0.1 -0.1)">
       <use xlink:href="#DejaVuSans-31"/>
       <use xlink:href="#DejaVuSans-34" x="63.623047"/>
      </g>
     </g>
    </g>
    <g id="ytick_8">
     <g id="line2d_16">
      <g>
       <use xlink:href="#meb64af2135" x="180" y="52.409143" style="stroke: #000000; stroke-width: 0.8"/>
      </g>
     </g>
     <g id="text_17">
      <!-- 16 -->
      <g transform="translate(160.275 56.208362) scale(0.1 -0.1)">
       <use xlink:href="#DejaVuSans-31"/>
       <use xlink:href="#DejaVuSans-36" x="63.623047"/>
      </g>
     </g>
    </g>
    <g id="text_18">
     <!-- Velocidade do Vento (m/s) -->
     <g transform="translate(154.195312 247.344531) rotate(-90) scale(0.1 -0.1)">
      <defs>
       <path id="DejaVuSans-56" d="M 1831 0 
L 50 4666 
L 709 4666 
L 2188 738 
L 3669 4666 
L 4325 4666 
L 2547 0 
L 1831 0 
z
" transform="scale(0.015625)"/>
       <path id="DejaVuSans-65" d="M 3597 1894 
L 3597 1613 
L 953 1613 
Q 991 1019 1311 708 
Q 1631 397 2203 397 
Q 2534 397 2845 478 
Q 3156 559 3463 722 
L 3463 178 
Q 3153 47 2828 -22 
Q 2503 -91 2169 -91 
Q 1331 -91 842 396 
Q 353 884 353 1716 
Q 353 2575 817 3079 
Q 1281 3584 2069 3584 
Q 2775 3584 3186 3129 
Q 3597 2675 3597 1894 
z
M 3022 2063 
Q 3016 2534 2758 2815 
Q 2500 3097 2075 3097 
Q 1594 3097 1305 2825 
Q 1016 2553 972 2059 
L 3022 2063 
z
" transform="scale(0.015625)"/>
       <path id="DejaVuSans-6c" d="M 603 4863 
L 1178 4863 
L 1178 0 
L 603 0 
L 603 4863 
z
" transform="scale(0.015625)"/>
       <path id="DejaVuSans-63" d="M 3122 3366 
L 3122 2828 
Q 2878 2963 2633 3030 
Q 2388 3097 2138 3097 
Q 1578 3097 1268 2742 
Q 959 2388 959 1747 
Q 959 1106 1268 751 
Q 1578 397 2138 397 
Q 2388 397 2633 464 
Q 2878 531 3122 666 
L 3122 134 
Q 2881 22 2623 -34 
Q 2366 -91 2075 -91 
Q 1284 -91 818 406 
Q 353 903 353 1747 
Q 353 2603 823 3093 
Q 1294 3584 2113 3584 
Q 2378 3584 2631 3529 
Q 2884 3475 3122 3366 
z
" transform="scale(0.015625)"/>
       <path id="DejaVuSans-69" d="M 603 3500 
L 1178 3500 
L 1178 0 
L 603 0 
L 603 3500 
z
M 603 4863 
L 1178 4863 
L 1178 4134 
L 603 4134 
L 603 4863 
z
" transform="scale(0.015625)"/>
       <path id="DejaVuSans-64" d="M 2906 2969 
L 2906 4863 
L 3481 4863 
L 3481 0 
L 2906 0 
L 2906 525 
Q 2725 213 2448 61 
Q 2172 -91 1784 -91 
Q 1150 -91 751 415 
Q 353 922 353 1747 
Q 353 2572 751 3078 
Q 1150 3584 1784 3584 
Q 2172 3584 2448 3432 
Q 2725 3281 2906 2969 
z
M 947 1747 
Q 947 1113 1208 752 
Q 1469 391 1925 391 
Q 2381 391 2643 752 
Q 2906 1113 2906 1747 
Q 2906 2381 2643 2742 
Q 2381 3103 1925 3103 
Q 1469 3103 1208 2742 
Q 947 2381 947 1747 
z
" transform="scale(0.015625)"/>
       <path id="DejaVuSans-20" transform="scale(0.015625)"/>
       <path id="DejaVuSans-6e" d="M 3513 2113 
L 3513 0 
L 2938 0 
L 2938 2094 
Q 2938 2591 2744 2837 
Q 2550 3084 2163 3084 
Q 1697 3084 1428 2787 
Q 1159 2491 1159 1978 
L 1159 0 
L 581 0 
L 581 3500 
L 1159 3500 
L 1159 2956 
Q 1366 3272 1645 3428 
Q 1925 3584 2291 3584 
Q 2894 3584 3203 3211 
Q 3513 2838 3513 2113 
z
" transform="scale(0.015625)"/>
       <path id="DejaVuSans-28" d="M 1984 4856 
Q 1566 4138 1362 3434 
Q 1159 2731 1159 2009 
Q 1159 1288 1364 580 
Q 1569 -128 1984 -844 
L 1484 -844 
Q 1016 -109 783 600 
Q 550 1309 550 2009 
Q 550 2706 781 3412 
Q 1013 4119 1484 4856 
L 1984 4856 
z
" transform="scale(0.015625)"/>
       <path id="DejaVuSans-2f" d="M 1625 4666 
L 2156 4666 
L 531 -594 
L 0 -594 
L 1625 4666 
z
" transform="scale(0.015625)"/>
       <path id="DejaVuSans-29" d="M 513 4856 
L 1013 4856 
Q 1481 4119 1714 3412 
Q 1947 2706 1947 2009 
Q 1947 1309 1714 600 
Q 1481 -109 1013 -844 
L 513 -844 
Q 928 -128 1133 580 
Q 1338 1288 1338 2009 
Q 1338 2731 1133 3434 
Q 928 4138 513 4856 
z
" transform="scale(0.015625)"/>
      </defs>
      <use xlink:href="#DejaVuSans-56"/>
      <use xlink:href="#DejaVuSans-65" x="60.658203"/>
      <use xlink:href="#DejaVuSans-6c" x="122.181641"/>
      <use xlink:href="#DejaVuSans-6f" x="149.964844"/>
      <use xlink:href="#DejaVuSans-63" x="211.146484"/>
      <use xlink:href="#DejaVuSans-69" x="266.126953"/>
      <use xlink:href="#DejaVuSans-64" x="293.910156"/>
      <use xlink:href="#DejaVuSans-61" x="357.386719"/>
      <use xlink:href="#DejaVuSans-64" x="418.666016"/>
      <use xlink:href="#DejaVuSans-65" x="482.142578"/>
      <use xlink:href="#DejaVuSans-20" x="543.666016"/>
      <use xlink:href="#DejaVuSans-64" x="575.453125"/>
      <use xlink:href="#DejaVuSans-6f" x="638.929688"/>
      <use xlink:href="#DejaVuSans-20" x="700.111328"/>
      <use xlink:href="#DejaVuSans-56" x="731.898438"/>
      <use xlink:href="#DejaVuSans-65" x="792.556641"/>
      <use xlink:href="#DejaVuSans-6e" x="854.080078"/>
      <use xlink:href="#DejaVuSans-74" x="917.458984"/>
      <use xlink:href="#DejaVuSans-6f" x="956.667969"/>
      <use xlink:href="#DejaVuSans-20" x="1017.849609"/>
      <use xlink:href="#DejaVuSans-28" x="1049.636719"/>
      <use xlink:href="#DejaVuSans-6d" x="1088.650391"/>
      <use xlink:href="#DejaVuSans-2f" x="1186.0625"/>
      <use xlink:href="#DejaVuSans-73" x="1219.753906"/>
      <use xlink:href="#DejaVuSans-29" x="1271.853516"/>
     </g>
    </g>
   </g>
   <g id="line2d_17">
    <path d="M 230.727273 129.384555 
L 236.066986 169.388791 
L 241.406699 177.209266 
L 246.746411 167.979265 
L 252.086124 182.245981 
L 257.425837 179.409617 
L 262.76555 178.588818 
L 268.105263 174.80208 
L 273.444976 172.526411 
L 278.784689 180.664672 
L 284.124402 202.852187 
L 289.464115 214.017221 
L 294.803828 245.910955 
L 300.143541 232.566795 
L 305.483254 240.775722 
L 310.822967 254.439039 
L 316.162679 256.292993 
L 321.502392 261.284372 
L 326.842105 265.453589 
L 332.181818 259.938935 
L 337.521531 245.985438 
L 342.861244 233.106735 
L 348.200957 190.520206 
L 353.54067 153.187895 
L 358.880383 128.793715 
L 364.220096 112.254995 
L 369.559809 113.022491 
L 374.899522 114.587783 
L 380.239234 115.101719 
L 385.578947 136.13292 
L 390.91866 155.015573 
L 396.258373 181.354703 
L 401.598086 187.323677 
L 406.937799 190.158167 
L 412.277512 184.250862 
L 417.617225 171.177123 
L 422.956938 195.569062 
L 428.296651 211.315552 
L 433.636364 205.144453 
L 438.976077 200.352455 
L 444.315789 194.013612 
L 449.655502 187.874796 
L 454.995215 206.463921 
L 460.334928 216.068426 
L 465.674641 204.016076 
L 471.014354 200.315222 
L 476.354067 187.691255 
L 481.69378 173.526048 
L 487.033493 124.261463 
L 492.373206 101.155549 
L 497.712919 101.54821 
L 503.052632 114.077799 
L 508.392344 125.109969 
L 513.732057 120.727382 
L 519.07177 122.10436 
L 524.411483 130.722715 
L 529.751196 154.265236 
L 535.090909 147.386717 
L 540.430622 168.287031 
L 545.770335 183.690149 
L 551.110048 206.372056 
L 561.789474 210.437063 
L 567.129187 207.770864 
L 572.4689 221.620619 
L 577.808612 226.770456 
L 583.148325 255.307048 
L 588.488038 218.160144 
L 593.827751 202.236435 
L 599.167464 191.54019 
L 604.507177 155.394482 
L 609.84689 126.628093 
L 620.526316 90.149502 
L 625.866029 96.302274 
L 631.205742 110.597481 
L 636.545455 121.902756 
L 641.885167 118.55266 
L 647.22488 146.858483 
L 652.564593 150.100629 
L 657.904306 154.534405 
L 663.244019 171.973145 
L 668.583732 164.088956 
L 673.923445 174.229848 
L 679.263158 189.588543 
L 684.602871 186.721114 
L 689.942584 185.810768 
L 695.282297 194.35314 
L 700.62201 188.160426 
L 705.961722 204.718462 
L 711.301435 224.740159 
L 716.641148 234.172046 
L 721.980861 212.798683 
L 727.320574 203.418983 
L 732.660287 154.703071 
L 738 121.831494 
L 743.339713 116.390718 
L 748.679426 108.166745 
L 754.019139 99.311018 
L 759.358852 102.524263 
L 764.698565 109.237253 
L 770.038278 116.295804 
L 775.37799 125.589569 
L 780.717703 168.228651 
L 786.057416 182.674034 
L 791.397129 171.952288 
L 796.736842 154.860319 
L 802.076555 164.260621 
L 807.416268 214.576749 
L 812.755981 244.054717 
L 818.095694 245.607032 
L 823.435407 273.450495 
L 828.77512 261.44617 
L 834.114833 237.195257 
L 839.454545 239.817756 
L 844.794258 249.198956 
L 850.133971 230.418145 
L 855.473684 206.23823 
L 860.813397 195.123807 
L 866.15311 164.667067 
L 871.492823 119.3396 
L 876.832536 103.306176 
L 882.172249 115.105178 
L 887.511962 111.491877 
L 892.851675 114.2587 
L 898.191388 127.516372 
L 903.5311 153.967558 
L 908.870813 172.336786 
L 914.210526 163.159253 
L 919.550239 175.708336 
L 924.889952 180.883657 
L 930.229665 172.423232 
L 935.569378 181.918619 
L 940.909091 169.507954 
L 946.248804 187.976697 
L 951.588517 197.540007 
L 956.92823 189.917609 
L 962.267943 198.278254 
L 967.607656 215.370956 
L 972.947368 231.41048 
L 978.287081 218.351984 
L 983.626794 198.627794 
L 988.966507 161.390329 
L 994.30622 126.469004 
L 999.645933 112.609314 
L 1004.985646 131.117216 
L 1010.325359 121.50207 
L 1015.665072 121.742219 
L 1021.004785 132.697179 
L 1026.344498 140.478683 
L 1031.684211 164.086946 
L 1037.023923 178.877873 
L 1042.363636 173.178715 
L 1047.703349 191.006043 
L 1053.043062 198.823826 
L 1058.382775 182.59541 
L 1063.722488 215.202598 
L 1069.062201 214.970994 
L 1074.401914 227.349325 
L 1079.741627 251.576671 
L 1085.08134 245.655282 
L 1090.421053 248.596844 
L 1095.760766 249.632871 
L 1101.100478 218.188252 
L 1106.440191 232.313993 
L 1111.779904 235.042509 
L 1117.119617 210.201318 
L 1122.45933 195.90105 
L 1127.799043 165.66149 
L 1133.138756 129.533521 
L 1138.478469 117.706113 
L 1143.818182 114.621983 
L 1149.157895 121.157003 
L 1154.497608 126.699151 
L 1159.837321 141.223124 
L 1165.177033 139.966962 
L 1170.516746 151.376916 
L 1175.856459 175.696578 
L 1181.196172 189.504653 
L 1186.535885 172.059131 
L 1191.875598 162.249026 
L 1197.215311 171.807275 
L 1202.555024 187.323405 
L 1207.894737 193.971079 
L 1213.23445 213.810419 
L 1218.574163 223.205933 
L 1223.913876 241.237992 
L 1229.253589 242.83577 
L 1234.593301 229.576991 
L 1239.933014 190.618205 
L 1245.272727 149.321323 
L 1245.272727 149.321323 
" clip-path="url(#pab2ebbd6a3)" style="fill: none; stroke: #0000ff; stroke-width: 1.5; stroke-linecap: square"/>
   </g>
   <g id="line2d_18">
    <path d="M 230.727273 172.691158 
L 236.066986 182.230733 
L 241.406699 165.653117 
L 246.746411 184.265709 
L 252.086124 181.734397 
L 257.425837 178.061512 
L 262.76555 171.738194 
L 268.105263 166.616008 
L 273.444976 174.398554 
L 278.784689 199.592559 
L 284.124402 210.323338 
L 289.464115 230.683033 
L 294.803828 219.35665 
L 300.143541 231.129735 
L 305.483254 247.091894 
L 310.822967 250.369435 
L 316.162679 259.67897 
L 321.502392 270.042461 
L 326.842105 268.354919 
L 332.181818 254.090228 
L 337.521531 242.724139 
L 342.861244 197.041392 
L 348.200957 157.930133 
L 353.54067 131.445654 
L 358.880383 106.599085 
L 364.220096 108.723402 
L 369.559809 109.408345 
L 374.899522 107.353515 
L 380.239234 135.327001 
L 385.578947 154.326735 
L 390.91866 183.967908 
L 396.258373 188.325736 
L 401.598086 189.695623 
L 406.937799 178.746455 
L 412.277512 158.714343 
L 417.617225 179.262645 
L 422.956938 196.416008 
L 428.296651 193.964111 
L 433.636364 191.707934 
L 438.976077 187.550236 
L 444.315789 183.183853 
L 449.655502 205.647855 
L 454.995215 216.279368 
L 460.334928 210.363046 
L 465.674641 216.974238 
L 471.014354 214.949188 
L 476.354067 193.09056 
L 481.69378 131.525068 
L 487.033493 92.86051 
L 492.373206 90.02147 
L 497.712919 108.048384 
L 503.052632 124.189225 
L 508.392344 114.242656 
L 513.732057 109.239591 
L 519.07177 120.675167 
L 524.411483 149.452717 
L 529.751196 134.642057 
L 535.090909 160.511078 
L 540.430622 174.368774 
L 545.770335 189.318408 
L 551.110048 194.113011 
L 556.449761 199.34439 
L 561.789474 199.126003 
L 567.129187 212.874505 
L 572.4689 219.26731 
L 577.808612 252.541661 
L 583.148325 219.525404 
L 588.488038 210.670774 
L 593.827751 208.278435 
L 599.167464 169.236661 
L 604.507177 131.584629 
L 609.84689 104.2266 
L 615.186603 64.668636 
L 620.526316 78.863841 
L 625.866029 91.272236 
L 631.205742 110.113143 
L 636.545455 106.321137 
L 641.885167 141.958047 
L 647.22488 139.883363 
L 652.564593 143.456981 
L 657.904306 162.555981 
L 663.244019 150.872237 
L 668.583732 160.501152 
L 673.923445 171.499954 
L 679.263158 170.914277 
L 684.602871 171.986362 
L 689.942584 182.518608 
L 695.282297 178.369241 
L 700.62201 196.832931 
L 705.961722 219.187896 
L 711.301435 233.44266 
L 716.641148 218.572439 
L 721.980861 222.116277 
L 727.320574 167.817141 
L 732.660287 126.194421 
L 738 117.508545 
L 743.339713 104.673302 
L 748.679426 83.231596 
L 754.019139 89.227333 
L 759.358852 97.558752 
L 764.698565 105.6759 
L 770.038278 115.582763 
L 775.37799 166.447255 
L 780.717703 180.056782 
L 786.057416 164.650519 
L 791.397129 140.07197 
L 796.736842 148.450119 
L 802.076555 195.740993 
L 807.416268 247.70735 
L 812.755981 252.859316 
L 818.095694 258.299156 
L 823.435407 247.786764 
L 828.77512 226.285497 
L 834.114833 230.315744 
L 839.454545 250.705218 
L 844.794258 247.920614 
L 850.133971 230.914445 
L 855.473684 214.969041 
L 860.813397 171.748121 
L 866.15311 114.868039 
L 871.492823 90.934728 
L 876.832536 107.810144 
L 882.172249 101.179098 
L 887.511962 100.821736 
L 892.851675 121.916007 
L 898.191388 154.019007 
L 903.5311 172.879766 
L 908.870813 155.448453 
L 914.210526 170.020872 
L 919.550239 172.86984 
L 924.889952 159.359579 
L 930.229665 163.806749 
L 935.569378 153.43333 
L 940.909091 174.239726 
L 946.248804 186.529001 
L 951.588517 182.032197 
L 956.92823 196.128134 
L 962.267943 215.256916 
L 967.607656 237.750854 
L 972.947368 235.328736 
L 978.287081 217.123139 
L 983.626794 176.175436 
L 988.966507 136.190624 
L 994.30622 113.220204 
L 999.645933 142.484162 
L 1004.985646 126.402882 
L 1010.325359 124.179299 
L 1015.665072 137.98736 
L 1021.004785 145.114742 
L 1026.344498 171.698488 
L 1031.684211 187.561379 
L 1037.023923 177.594957 
L 1042.363636 199.175636 
L 1047.703349 204.714744 
L 1053.043062 178.230266 
L 1058.382775 199.552852 
L 1063.722488 200.009481 
L 1069.062201 216.209881 
L 1074.401914 244.391828 
L 1079.741627 243.419009 
L 1085.08134 250.665512 
L 1090.421053 247.121674 
L 1095.760766 217.609547 
L 1101.100478 245.086697 
L 1106.440191 262.964713 
L 1111.779904 232.549255 
L 1117.119617 216.765777 
L 1122.45933 184.702485 
L 1127.799043 136.945055 
L 1133.138756 119.563375 
L 1138.478469 113.647053 
L 1143.818182 119.573302 
L 1149.157895 118.740678 
L 1154.497608 136.971377 
L 1159.837321 138.950251 
L 1165.177033 150.584363 
L 1170.516746 179.63986 
L 1175.856459 193.676235 
L 1181.196172 158.81361 
L 1186.535885 143.000352 
L 1191.875598 155.071239 
L 1197.215311 174.438261 
L 1202.555024 184.176369 
L 1207.894737 205.84639 
L 1213.23445 217.887496 
L 1218.574163 239.239862 
L 1223.913876 246.813946 
L 1229.253589 245.076771 
L 1234.593301 206.60082 
L 1239.933014 152.460512 
L 1245.272727 116.724335 
L 1245.272727 116.724335 
" clip-path="url(#pab2ebbd6a3)" style="fill: none; stroke: #ffa500; stroke-width: 1.5; stroke-linecap: square"/>
   </g>
   <g id="patch_3">
    <path d="M 180 320.4 
L 180 43.2 
" style="fill: none; stroke: #000000; stroke-width: 0.8; stroke-linejoin: miter; stroke-linecap: square"/>
   </g>
   <g id="patch_4">
    <path d="M 1296 320.4 
L 1296 43.2 
" style="fill: none; stroke: #000000; stroke-width: 0.8; stroke-linejoin: miter; stroke-linecap: square"/>
   </g>
   <g id="patch_5">
    <path d="M 180 320.4 
L 1296 320.4 
" style="fill: none; stroke: #000000; stroke-width: 0.8; stroke-linejoin: miter; stroke-linecap: square"/>
   </g>
   <g id="patch_6">
    <path d="M 180 43.2 
L 1296 43.2 
" style="fill: none; stroke: #000000; stroke-width: 0.8; stroke-linejoin: miter; stroke-linecap: square"/>
   </g>
   <g id="text_19">
    <!-- Previsão do vento para 1 hora(s) à frente com 2camadas -->
    <g transform="translate(566.789062 37.2) scale(0.12 -0.12)">
     <defs>
      <path id="DejaVuSans-50" d="M 1259 4147 
L 1259 2394 
L 2053 2394 
Q 2494 2394 2734 2622 
Q 2975 2850 2975 3272 
Q 2975 3691 2734 3919 
Q 2494 4147 2053 4147 
L 1259 4147 
z
M 628 4666 
L 2053 4666 
Q 2838 4666 3239 4311 
Q 3641 3956 3641 3272 
Q 3641 2581 3239 2228 
Q 2838 1875 2053 1875 
L 1259 1875 
L 1259 0 
L 628 0 
L 628 4666 
z
" transform="scale(0.015625)"/>
      <path id="DejaVuSans-76" d="M 191 3500 
L 800 3500 
L 1894 563 
L 2988 3500 
L 3597 3500 
L 2284 0 
L 1503 0 
L 191 3500 
z
" transform="scale(0.015625)"/>
      <path id="DejaVuSans-e3" d="M 2194 1759 
Q 1497 1759 1228 1600 
Q 959 1441 959 1056 
Q 959 750 1161 570 
Q 1363 391 1709 391 
Q 2188 391 2477 730 
Q 2766 1069 2766 1631 
L 2766 1759 
L 2194 1759 
z
M 3341 1997 
L 3341 0 
L 2766 0 
L 2766 531 
Q 2569 213 2275 61 
Q 1981 -91 1556 -91 
Q 1019 -91 701 211 
Q 384 513 384 1019 
Q 384 1609 779 1909 
Q 1175 2209 1959 2209 
L 2766 2209 
L 2766 2266 
Q 2766 2663 2505 2880 
Q 2244 3097 1772 3097 
Q 1472 3097 1187 3025 
Q 903 2953 641 2809 
L 641 3341 
Q 956 3463 1253 3523 
Q 1550 3584 1831 3584 
Q 2591 3584 2966 3190 
Q 3341 2797 3341 1997 
z
M 1844 4281 
L 1666 4453 
Q 1597 4516 1545 4545 
Q 1494 4575 1453 4575 
Q 1334 4575 1278 4461 
Q 1222 4347 1216 4091 
L 825 4091 
Q 831 4513 990 4742 
Q 1150 4972 1434 4972 
Q 1553 4972 1653 4928 
Q 1753 4884 1869 4781 
L 2047 4609 
Q 2116 4547 2167 4517 
Q 2219 4488 2259 4488 
Q 2378 4488 2434 4602 
Q 2491 4716 2497 4972 
L 2888 4972 
Q 2881 4550 2722 4320 
Q 2563 4091 2278 4091 
Q 2159 4091 2059 4134 
Q 1959 4178 1844 4281 
z
" transform="scale(0.015625)"/>
      <path id="DejaVuSans-70" d="M 1159 525 
L 1159 -1331 
L 581 -1331 
L 581 3500 
L 1159 3500 
L 1159 2969 
Q 1341 3281 1617 3432 
Q 1894 3584 2278 3584 
Q 2916 3584 3314 3078 
Q 3713 2572 3713 1747 
Q 3713 922 3314 415 
Q 2916 -91 2278 -91 
Q 1894 -91 1617 61 
Q 1341 213 1159 525 
z
M 3116 1747 
Q 3116 2381 2855 2742 
Q 2594 3103 2138 3103 
Q 1681 3103 1420 2742 
Q 1159 2381 1159 1747 
Q 1159 1113 1420 752 
Q 1681 391 2138 391 
Q 2594 391 2855 752 
Q 3116 1113 3116 1747 
z
" transform="scale(0.015625)"/>
      <path id="DejaVuSans-68" d="M 3513 2113 
L 3513 0 
L 2938 0 
L 2938 2094 
Q 2938 2591 2744 2837 
Q 2550 3084 2163 3084 
Q 1697 3084 1428 2787 
Q 1159 2491 1159 1978 
L 1159 0 
L 581 0 
L 581 4863 
L 1159 4863 
L 1159 2956 
Q 1366 3272 1645 3428 
Q 1925 3584 2291 3584 
Q 2894 3584 3203 3211 
Q 3513 2838 3513 2113 
z
" transform="scale(0.015625)"/>
      <path id="DejaVuSans-e0" d="M 2194 1759 
Q 1497 1759 1228 1600 
Q 959 1441 959 1056 
Q 959 750 1161 570 
Q 1363 391 1709 391 
Q 2188 391 2477 730 
Q 2766 1069 2766 1631 
L 2766 1759 
L 2194 1759 
z
M 3341 1997 
L 3341 0 
L 2766 0 
L 2766 531 
Q 2569 213 2275 61 
Q 1981 -91 1556 -91 
Q 1019 -91 701 211 
Q 384 513 384 1019 
Q 384 1609 779 1909 
Q 1175 2209 1959 2209 
L 2766 2209 
L 2766 2266 
Q 2766 2663 2505 2880 
Q 2244 3097 1772 3097 
Q 1472 3097 1187 3025 
Q 903 2953 641 2809 
L 641 3341 
Q 956 3463 1253 3523 
Q 1550 3584 1831 3584 
Q 2591 3584 2966 3190 
Q 3341 2797 3341 1997 
z
M 1403 5119 
L 2284 3950 
L 1806 3950 
L 788 5119 
L 1403 5119 
z
" transform="scale(0.015625)"/>
      <path id="DejaVuSans-66" d="M 2375 4863 
L 2375 4384 
L 1825 4384 
Q 1516 4384 1395 4259 
Q 1275 4134 1275 3809 
L 1275 3500 
L 2222 3500 
L 2222 3053 
L 1275 3053 
L 1275 0 
L 697 0 
L 697 3053 
L 147 3053 
L 147 3500 
L 697 3500 
L 697 3744 
Q 697 4328 969 4595 
Q 1241 4863 1831 4863 
L 2375 4863 
z
" transform="scale(0.015625)"/>
     </defs>
     <use xlink:href="#DejaVuSans-50"/>
     <use xlink:href="#DejaVuSans-72" x="58.552734"/>
     <use xlink:href="#DejaVuSans-65" x="97.416016"/>
     <use xlink:href="#DejaVuSans-76" x="158.939453"/>
     <use xlink:href="#DejaVuSans-69" x="218.119141"/>
     <use xlink:href="#DejaVuSans-73" x="245.902344"/>
     <use xlink:href="#DejaVuSans-e3" x="298.001953"/>
     <use xlink:href="#DejaVuSans-6f" x="359.28125"/>
     <use xlink:href="#DejaVuSans-20" x="420.462891"/>
     <use xlink:href="#DejaVuSans-64" x="452.25"/>
     <use xlink:href="#DejaVuSans-6f" x="515.726562"/>
     <use xlink:href="#DejaVuSans-20" x="576.908203"/>
     <use xlink:href="#DejaVuSans-76" x="608.695312"/>
     <use xlink:href="#DejaVuSans-65" x="667.875"/>
     <use xlink:href="#DejaVuSans-6e" x="729.398438"/>
     <use xlink:href="#DejaVuSans-74" x="792.777344"/>
     <use xlink:href="#DejaVuSans-6f" x="831.986328"/>
     <use xlink:href="#DejaVuSans-20" x="893.167969"/>
     <use xlink:href="#DejaVuSans-70" x="924.955078"/>
     <use xlink:href="#DejaVuSans-61" x="988.431641"/>
     <use xlink:href="#DejaVuSans-72" x="1049.710938"/>
     <use xlink:href="#DejaVuSans-61" x="1090.824219"/>
     <use xlink:href="#DejaVuSans-20" x="1152.103516"/>
     <use xlink:href="#DejaVuSans-31" x="1183.890625"/>
     <use xlink:href="#DejaVuSans-20" x="1247.513672"/>
     <use xlink:href="#DejaVuSans-68" x="1279.300781"/>
     <use xlink:href="#DejaVuSans-6f" x="1342.679688"/>
     <use xlink:href="#DejaVuSans-72" x="1403.861328"/>
     <use xlink:href="#DejaVuSans-61" x="1444.974609"/>
     <use xlink:href="#DejaVuSans-28" x="1506.253906"/>
     <use xlink:href="#DejaVuSans-73" x="1545.267578"/>
     <use xlink:href="#DejaVuSans-29" x="1597.367188"/>
     <use xlink:href="#DejaVuSans-20" x="1636.380859"/>
     <use xlink:href="#DejaVuSans-e0" x="1668.167969"/>
     <use xlink:href="#DejaVuSans-20" x="1729.447266"/>
     <use xlink:href="#DejaVuSans-66" x="1761.234375"/>
     <use xlink:href="#DejaVuSans-72" x="1796.439453"/>
     <use xlink:href="#DejaVuSans-65" x="1835.302734"/>
     <use xlink:href="#DejaVuSans-6e" x="1896.826172"/>
     <use xlink:href="#DejaVuSans-74" x="1960.205078"/>
     <use xlink:href="#DejaVuSans-65" x="1999.414062"/>
     <use xlink:href="#DejaVuSans-20" x="2060.9375"/>
     <use xlink:href="#DejaVuSans-63" x="2092.724609"/>
     <use xlink:href="#DejaVuSans-6f" x="2147.705078"/>
     <use xlink:href="#DejaVuSans-6d" x="2208.886719"/>
     <use xlink:href="#DejaVuSans-20" x="2306.298828"/>
     <use xlink:href="#DejaVuSans-32" x="2338.085938"/>
     <use xlink:href="#DejaVuSans-63" x="2401.708984"/>
     <use xlink:href="#DejaVuSans-61" x="2456.689453"/>
     <use xlink:href="#DejaVuSans-6d" x="2517.96875"/>
     <use xlink:href="#DejaVuSans-61" x="2615.380859"/>
     <use xlink:href="#DejaVuSans-64" x="2676.660156"/>
     <use xlink:href="#DejaVuSans-61" x="2740.136719"/>
     <use xlink:href="#DejaVuSans-73" x="2801.416016"/>
    </g>
   </g>
   <g id="legend_1">
    <g id="patch_7">
     <path d="M 1217.86875 80.55625 
L 1289 80.55625 
Q 1291 80.55625 1291 78.55625 
L 1291 50.2 
Q 1291 48.2 1289 48.2 
L 1217.86875 48.2 
Q 1215.86875 48.2 1215.86875 50.2 
L 1215.86875 78.55625 
Q 1215.86875 80.55625 1217.86875 80.55625 
z
" style="fill: #ffffff; opacity: 0.8; stroke: #cccccc; stroke-linejoin: miter"/>
    </g>
    <g id="line2d_19">
     <path d="M 1219.86875 56.298437 
L 1229.86875 56.298437 
L 1239.86875 56.298437 
" style="fill: none; stroke: #0000ff; stroke-width: 1.5; stroke-linecap: square"/>
    </g>
    <g id="text_20">
     <!-- Predito -->
     <g transform="translate(1247.86875 59.798437) scale(0.1 -0.1)">
      <use xlink:href="#DejaVuSans-50"/>
      <use xlink:href="#DejaVuSans-72" x="58.552734"/>
      <use xlink:href="#DejaVuSans-65" x="97.416016"/>
      <use xlink:href="#DejaVuSans-64" x="158.939453"/>
      <use xlink:href="#DejaVuSans-69" x="222.416016"/>
      <use xlink:href="#DejaVuSans-74" x="250.199219"/>
      <use xlink:href="#DejaVuSans-6f" x="289.408203"/>
     </g>
    </g>
    <g id="line2d_20">
     <path d="M 1219.86875 70.976562 
L 1229.86875 70.976562 
L 1239.86875 70.976562 
" style="fill: none; stroke: #ffa500; stroke-width: 1.5; stroke-linecap: square"/>
    </g>
    <g id="text_21">
     <!-- Original -->
     <g transform="translate(1247.86875 74.476562) scale(0.1 -0.1)">
      <defs>
       <path id="DejaVuSans-4f" d="M 2522 4238 
Q 1834 4238 1429 3725 
Q 1025 3213 1025 2328 
Q 1025 1447 1429 934 
Q 1834 422 2522 422 
Q 3209 422 3611 934 
Q 4013 1447 4013 2328 
Q 4013 3213 3611 3725 
Q 3209 4238 2522 4238 
z
M 2522 4750 
Q 3503 4750 4090 4092 
Q 4678 3434 4678 2328 
Q 4678 1225 4090 567 
Q 3503 -91 2522 -91 
Q 1538 -91 948 565 
Q 359 1222 359 2328 
Q 359 3434 948 4092 
Q 1538 4750 2522 4750 
z
" transform="scale(0.015625)"/>
       <path id="DejaVuSans-67" d="M 2906 1791 
Q 2906 2416 2648 2759 
Q 2391 3103 1925 3103 
Q 1463 3103 1205 2759 
Q 947 2416 947 1791 
Q 947 1169 1205 825 
Q 1463 481 1925 481 
Q 2391 481 2648 825 
Q 2906 1169 2906 1791 
z
M 3481 434 
Q 3481 -459 3084 -895 
Q 2688 -1331 1869 -1331 
Q 1566 -1331 1297 -1286 
Q 1028 -1241 775 -1147 
L 775 -588 
Q 1028 -725 1275 -790 
Q 1522 -856 1778 -856 
Q 2344 -856 2625 -561 
Q 2906 -266 2906 331 
L 2906 616 
Q 2728 306 2450 153 
Q 2172 0 1784 0 
Q 1141 0 747 490 
Q 353 981 353 1791 
Q 353 2603 747 3093 
Q 1141 3584 1784 3584 
Q 2172 3584 2450 3431 
Q 2728 3278 2906 2969 
L 2906 3500 
L 3481 3500 
L 3481 434 
z
" transform="scale(0.015625)"/>
      </defs>
      <use xlink:href="#DejaVuSans-4f"/>
      <use xlink:href="#DejaVuSans-72" x="78.710938"/>
      <use xlink:href="#DejaVuSans-69" x="119.824219"/>
      <use xlink:href="#DejaVuSans-67" x="147.607422"/>
      <use xlink:href="#DejaVuSans-69" x="211.083984"/>
      <use xlink:href="#DejaVuSans-6e" x="238.867188"/>
      <use xlink:href="#DejaVuSans-61" x="302.246094"/>
      <use xlink:href="#DejaVuSans-6c" x="363.525391"/>
     </g>
    </g>
   </g>
  </g>
 </g>
 <defs>
  <clipPath id="pab2ebbd6a3">
   <rect x="180" y="43.2" width="1116" height="277.2"/>
  </clipPath>
 </defs>
</svg>
