<?xml version="1.0" encoding="utf-8" standalone="no"?>
<!DOCTYPE svg PUBLIC "-//W3C//DTD SVG 1.1//EN"
  "http://www.w3.org/Graphics/SVG/1.1/DTD/svg11.dtd">
<svg xmlns:xlink="http://www.w3.org/1999/xlink" width="1440pt" height="360pt" viewBox="0 0 1440 360" xmlns="http://www.w3.org/2000/svg" version="1.1">
 <metadata>
  <rdf:RDF xmlns:dc="http://purl.org/dc/elements/1.1/" xmlns:cc="http://creativecommons.org/ns#" xmlns:rdf="http://www.w3.org/1999/02/22-rdf-syntax-ns#">
   <cc:Work>
    <dc:type rdf:resource="http://purl.org/dc/dcmitype/StillImage"/>
    <dc:date>2023-08-20T14:49:20.013456</dc:date>
    <dc:format>image/svg+xml</dc:format>
    <dc:creator>
     <cc:Agent>
      <dc:title>Matplotlib v3.7.1, https://matplotlib.org/</dc:title>
     </cc:Agent>
    </dc:creator>
   </cc:Work>
  </rdf:RDF>
 </metadata>
 <defs>
  <style type="text/css">*{stroke-linejoin: round; stroke-linecap: butt}</style>
 </defs>
 <g id="figure_1">
  <g id="patch_1">
   <path d="M 0 360 
L 1440 360 
L 1440 0 
L 0 0 
z
" style="fill: #ffffff"/>
  </g>
  <g id="axes_1">
   <g id="patch_2">
    <path d="M 180 320.4 
L 1296 320.4 
L 1296 43.2 
L 180 43.2 
z
" style="fill: #ffffff"/>
   </g>
   <g id="PolyCollection_1">
    <defs>
     <path id="m74718c15d7" d="M 230.727273 -258.874657 
L 230.727273 -169.617089 
L 236.066986 -150.207746 
L 241.406699 -140.365021 
L 246.746411 -145.618267 
L 252.086124 -134.752237 
L 257.425837 -137.623928 
L 262.76555 -138.740989 
L 268.105263 -144.123499 
L 273.444976 -145.441905 
L 278.784689 -139.538979 
L 284.124402 -124.001926 
L 289.464115 -117.064275 
L 294.803828 -67.169194 
L 300.143541 -79.665185 
L 305.483254 -72.38467 
L 310.822967 -63.280718 
L 316.162679 -64.169883 
L 321.502392 -58.518258 
L 326.842105 -52.2 
L 332.181818 -54.872792 
L 337.521531 -67.970853 
L 342.861244 -78.676967 
L 348.200957 -121.206853 
L 353.54067 -156.329408 
L 358.880383 -179.168054 
L 364.220096 -195.540292 
L 369.559809 -194.451587 
L 374.899522 -192.41137 
L 380.239234 -193.639056 
L 385.578947 -175.901905 
L 390.91866 -161.149854 
L 396.258373 -139.112336 
L 401.598086 -133.936164 
L 406.937799 -132.0743 
L 412.277512 -135.238865 
L 417.617225 -142.281557 
L 422.956938 -110.236591 
L 428.296651 -96.827607 
L 433.636364 -101.417273 
L 438.976077 -105.180305 
L 444.315789 -110.45887 
L 449.655502 -116.076648 
L 454.995215 -100.599023 
L 460.334928 -97.421385 
L 465.674641 -115.838512 
L 471.014354 -116.660102 
L 476.354067 -114.363616 
L 481.69378 -134.768903 
L 487.033493 -186.335574 
L 492.373206 -206.393181 
L 497.712919 -202.861418 
L 503.052632 -188.415162 
L 508.392344 -180.051602 
L 513.732057 -181.481661 
L 519.07177 -176.207499 
L 524.411483 -169.00447 
L 529.751196 -153.084076 
L 535.090909 -157.476529 
L 540.430622 -141.351654 
L 545.770335 -130.680255 
L 551.110048 -97.614245 
L 556.449761 -96.462265 
L 561.789474 -93.337624 
L 567.129187 -94.034065 
L 572.4689 -84.701238 
L 577.808612 -83.256663 
L 583.148325 -63.810959 
L 588.488038 -91.638762 
L 593.827751 -114.152352 
L 599.167464 -118.484045 
L 604.507177 -156.453444 
L 609.84689 -186.554951 
L 615.186603 -202.941882 
L 620.526316 -214.942432 
L 625.866029 -210.460389 
L 631.205742 -198.672165 
L 636.545455 -184.09182 
L 641.885167 -191.4494 
L 647.22488 -169.919275 
L 652.564593 -166.386922 
L 657.904306 -157.369211 
L 663.244019 -141.252904 
L 668.583732 -144.846676 
L 673.923445 -137.674972 
L 679.263158 -113.370894 
L 684.602871 -114.677863 
L 689.942584 -115.388793 
L 695.282297 -108.088415 
L 700.62201 -115.509691 
L 705.961722 -104.027431 
L 711.301435 -88.04575 
L 716.641148 -84.646778 
L 721.980861 -107.646793 
L 727.320574 -108.033761 
L 732.660287 -156.311207 
L 738 -190.791656 
L 743.339713 -194.999043 
L 748.679426 -200.045681 
L 754.019139 -202.715302 
L 759.358852 -203.505279 
L 764.698565 -195.197216 
L 770.038278 -189.029537 
L 775.37799 -180.449028 
L 780.717703 -149.169782 
L 786.057416 -136.00585 
L 791.397129 -136.003994 
L 796.736842 -143.523024 
L 802.076555 -142.344983 
L 807.416268 -91.494206 
L 812.755981 -85.345807 
L 818.095694 -87.999192 
L 823.435407 -68.639097 
L 828.77512 -70.136775 
L 834.114833 -86.426154 
L 839.454545 -87.577543 
L 844.794258 -75.924091 
L 850.133971 -82.825845 
L 855.473684 -96.298049 
L 860.813397 -108.134652 
L 866.15311 -142.619302 
L 871.492823 -185.384079 
L 876.832536 -202.258144 
L 882.172249 -188.550348 
L 887.511962 -189.195457 
L 892.851675 -183.940339 
L 898.191388 -176.504657 
L 903.5311 -159.026491 
L 908.870813 -146.380191 
L 914.210526 -154.982714 
L 919.550239 -147.230019 
L 924.889952 -141.809116 
L 930.229665 -142.296755 
L 935.569378 -119.294332 
L 940.909091 -131.447662 
L 946.248804 -117.041722 
L 951.588517 -110.233724 
L 956.92823 -118.455722 
L 962.267943 -110.24538 
L 967.607656 -94.115085 
L 972.947368 -81.636713 
L 978.287081 -91.444764 
L 983.626794 -106.114813 
L 988.966507 -145.963552 
L 994.30622 -179.633241 
L 999.645933 -190.825056 
L 1004.985646 -178.298186 
L 1010.325359 -185.63743 
L 1015.665072 -183.289562 
L 1021.004785 -175.913241 
L 1026.344498 -168.746935 
L 1031.684211 -152.737273 
L 1037.023923 -144.748838 
L 1042.363636 -151.0083 
L 1047.703349 -138.34692 
L 1053.043062 -134.187642 
L 1058.382775 -142.442096 
L 1063.722488 -89.008994 
L 1069.062201 -89.34571 
L 1074.401914 -78.068759 
L 1079.741627 -60.354937 
L 1085.08134 -65.891804 
L 1090.421053 -63.42621 
L 1095.760766 -69.195789 
L 1101.100478 -96.343341 
L 1106.440191 -83.143904 
L 1111.779904 -71.507254 
L 1117.119617 -95.574011 
L 1122.45933 -111.803068 
L 1127.799043 -140.838998 
L 1133.138756 -172.321797 
L 1138.478469 -183.385174 
L 1143.818182 -187.295503 
L 1149.157895 -181.145839 
L 1154.497608 -173.264521 
L 1159.837321 -158.944898 
L 1165.177033 -165.081269 
L 1170.516746 -160.704504 
L 1175.856459 -146.358178 
L 1181.196172 -139.335289 
L 1186.535885 -144.382855 
L 1191.875598 -139.141721 
L 1197.215311 -129.651451 
L 1202.555024 -112.268947 
L 1207.894737 -107.68888 
L 1213.23445 -92.454971 
L 1218.574163 -85.345968 
L 1223.913876 -73.434577 
L 1229.253589 -75.451017 
L 1234.593301 -83.740904 
L 1239.933014 -111.56802 
L 1245.272727 -151.113088 
L 1245.272727 -240.370656 
L 1245.272727 -240.370656 
L 1239.933014 -200.825604 
L 1234.593301 -172.998485 
L 1229.253589 -164.708589 
L 1223.913876 -162.692158 
L 1218.574163 -174.60354 
L 1213.23445 -181.712543 
L 1207.894737 -196.946448 
L 1202.555024 -201.526515 
L 1197.215311 -218.909019 
L 1191.875598 -228.399289 
L 1186.535885 -233.640423 
L 1181.196172 -228.592857 
L 1175.856459 -235.615746 
L 1170.516746 -249.962072 
L 1165.177033 -254.338837 
L 1159.837321 -248.202466 
L 1154.497608 -262.522089 
L 1149.157895 -270.403407 
L 1143.818182 -276.553071 
L 1138.478469 -272.642742 
L 1133.138756 -261.579365 
L 1127.799043 -230.096566 
L 1122.45933 -201.060636 
L 1117.119617 -184.831579 
L 1111.779904 -160.764826 
L 1106.440191 -172.401485 
L 1101.100478 -185.600926 
L 1095.760766 -158.453361 
L 1090.421053 -152.683782 
L 1085.08134 -155.149376 
L 1079.741627 -149.612518 
L 1074.401914 -167.326339 
L 1069.062201 -178.60329 
L 1063.722488 -178.266574 
L 1058.382775 -231.699664 
L 1053.043062 -223.44521 
L 1047.703349 -227.604487 
L 1042.363636 -240.265868 
L 1037.023923 -234.006406 
L 1031.684211 -241.994841 
L 1026.344498 -258.004503 
L 1021.004785 -265.170809 
L 1015.665072 -272.54713 
L 1010.325359 -274.894998 
L 1004.985646 -267.555754 
L 999.645933 -280.082624 
L 994.30622 -268.890809 
L 988.966507 -235.22112 
L 983.626794 -195.372398 
L 978.287081 -180.702345 
L 972.947368 -170.894285 
L 967.607656 -183.372657 
L 962.267943 -199.502948 
L 956.92823 -207.713307 
L 951.588517 -199.491308 
L 946.248804 -206.29929 
L 940.909091 -220.70523 
L 935.569378 -208.5519 
L 930.229665 -231.554323 
L 924.889952 -231.066684 
L 919.550239 -236.487587 
L 914.210526 -244.240282 
L 908.870813 -235.637759 
L 903.5311 -248.284059 
L 898.191388 -265.762225 
L 892.851675 -273.197907 
L 887.511962 -278.453025 
L 882.172249 -277.807916 
L 876.832536 -291.515712 
L 871.492823 -274.641647 
L 866.15311 -231.87687 
L 860.813397 -197.392237 
L 855.473684 -185.555617 
L 850.133971 -172.083426 
L 844.794258 -165.181672 
L 839.454545 -176.835115 
L 834.114833 -175.683726 
L 828.77512 -159.394347 
L 823.435407 -157.896678 
L 818.095694 -177.256764 
L 812.755981 -174.603388 
L 807.416268 -180.751787 
L 802.076555 -231.602551 
L 796.736842 -232.780592 
L 791.397129 -225.261562 
L 786.057416 -225.263418 
L 780.717703 -238.42735 
L 775.37799 -269.706596 
L 770.038278 -278.287105 
L 764.698565 -284.454784 
L 759.358852 -292.762847 
L 754.019139 -291.97287 
L 748.679426 -289.303249 
L 743.339713 -284.256611 
L 738 -280.049224 
L 732.660287 -245.568775 
L 727.320574 -197.291329 
L 721.980861 -196.904378 
L 716.641148 -173.90435 
L 711.301435 -177.303322 
L 705.961722 -193.284999 
L 700.62201 -204.767276 
L 695.282297 -197.346 
L 689.942584 -204.646361 
L 684.602871 -203.935447 
L 679.263158 -202.628462 
L 673.923445 -226.93254 
L 668.583732 -234.104244 
L 663.244019 -230.510472 
L 657.904306 -246.626779 
L 652.564593 -255.64449 
L 647.22488 -259.176843 
L 641.885167 -280.706968 
L 636.545455 -273.349388 
L 631.205742 -287.929733 
L 625.866029 -299.717957 
L 620.526316 -304.2 
L 615.186603 -292.19945 
L 609.84689 -275.812519 
L 604.507177 -245.711012 
L 599.167464 -207.74163 
L 593.827751 -203.40992 
L 588.488038 -180.896335 
L 583.148325 -153.06854 
L 577.808612 -172.514235 
L 572.4689 -173.958819 
L 567.129187 -183.291637 
L 561.789474 -182.595197 
L 556.449761 -185.71985 
L 551.110048 -186.871813 
L 545.770335 -219.937823 
L 540.430622 -230.609222 
L 535.090909 -246.734097 
L 529.751196 -242.341644 
L 524.411483 -258.262037 
L 519.07177 -265.465067 
L 513.732057 -270.739229 
L 508.392344 -269.30917 
L 503.052632 -277.67273 
L 497.712919 -292.118986 
L 492.373206 -295.650749 
L 487.033493 -275.593142 
L 481.69378 -224.026471 
L 476.354067 -203.621184 
L 471.014354 -205.91767 
L 465.674641 -205.096097 
L 460.334928 -186.67897 
L 454.995215 -189.856591 
L 449.655502 -205.334232 
L 444.315789 -199.716455 
L 438.976077 -194.437873 
L 433.636364 -190.674857 
L 428.296651 -186.085175 
L 422.956938 -199.494176 
L 417.617225 -231.539125 
L 412.277512 -224.496433 
L 406.937799 -221.331868 
L 401.598086 -223.193732 
L 396.258373 -228.369904 
L 390.91866 -250.407422 
L 385.578947 -265.159473 
L 380.239234 -282.896624 
L 374.899522 -281.668938 
L 369.559809 -283.709155 
L 364.220096 -284.79786 
L 358.880383 -268.425622 
L 353.54067 -245.586976 
L 348.200957 -210.464421 
L 342.861244 -167.93454 
L 337.521531 -157.228425 
L 332.181818 -144.130364 
L 326.842105 -141.457572 
L 321.502392 -147.775839 
L 316.162679 -153.427455 
L 310.822967 -152.53829 
L 305.483254 -161.642251 
L 300.143541 -168.922758 
L 294.803828 -156.426774 
L 289.464115 -206.32186 
L 284.124402 -213.259494 
L 278.784689 -228.796547 
L 273.444976 -234.699473 
L 268.105263 -233.381067 
L 262.76555 -227.998557 
L 257.425837 -226.881496 
L 252.086124 -224.009805 
L 246.746411 -234.875835 
L 241.406699 -229.622589 
L 236.066986 -239.465314 
L 230.727273 -258.874657 
z
" style="stroke: #0000ff; stroke-opacity: 0.05"/>
    </defs>
    <g clip-path="url(#pd157a2a452)">
     <use xlink:href="#m74718c15d7" x="0" y="360" style="fill: #0000ff; fill-opacity: 0.05; stroke: #0000ff; stroke-opacity: 0.05"/>
    </g>
   </g>
   <g id="matplotlib.axis_1">
    <g id="xtick_1">
     <g id="line2d_1">
      <defs>
       <path id="m567e92bf12" d="M 0 0 
L 0 3.5 
" style="stroke: #000000; stroke-width: 0.8"/>
      </defs>
      <g>
       <use xlink:href="#m567e92bf12" x="230.727273" y="320.4" style="stroke: #000000; stroke-width: 0.8"/>
      </g>
     </g>
     <g id="text_1">
      <!-- 0 -->
      <g transform="translate(227.546023 334.998438) scale(0.1 -0.1)">
       <defs>
        <path id="DejaVuSans-30" d="M 2034 4250 
Q 1547 4250 1301 3770 
Q 1056 3291 1056 2328 
Q 1056 1369 1301 889 
Q 1547 409 2034 409 
Q 2525 409 2770 889 
Q 3016 1369 3016 2328 
Q 3016 3291 2770 3770 
Q 2525 4250 2034 4250 
z
M 2034 4750 
Q 2819 4750 3233 4129 
Q 3647 3509 3647 2328 
Q 3647 1150 3233 529 
Q 2819 -91 2034 -91 
Q 1250 -91 836 529 
Q 422 1150 422 2328 
Q 422 3509 836 4129 
Q 1250 4750 2034 4750 
z
" transform="scale(0.015625)"/>
       </defs>
       <use xlink:href="#DejaVuSans-30"/>
      </g>
     </g>
    </g>
    <g id="xtick_2">
     <g id="line2d_2">
      <g>
       <use xlink:href="#m567e92bf12" x="364.220096" y="320.4" style="stroke: #000000; stroke-width: 0.8"/>
      </g>
     </g>
     <g id="text_2">
      <!-- 25 -->
      <g transform="translate(357.857596 334.998438) scale(0.1 -0.1)">
       <defs>
        <path id="DejaVuSans-32" d="M 1228 531 
L 3431 531 
L 3431 0 
L 469 0 
L 469 531 
Q 828 903 1448 1529 
Q 2069 2156 2228 2338 
Q 2531 2678 2651 2914 
Q 2772 3150 2772 3378 
Q 2772 3750 2511 3984 
Q 2250 4219 1831 4219 
Q 1534 4219 1204 4116 
Q 875 4013 500 3803 
L 500 4441 
Q 881 4594 1212 4672 
Q 1544 4750 1819 4750 
Q 2544 4750 2975 4387 
Q 3406 4025 3406 3419 
Q 3406 3131 3298 2873 
Q 3191 2616 2906 2266 
Q 2828 2175 2409 1742 
Q 1991 1309 1228 531 
z
" transform="scale(0.015625)"/>
        <path id="DejaVuSans-35" d="M 691 4666 
L 3169 4666 
L 3169 4134 
L 1269 4134 
L 1269 2991 
Q 1406 3038 1543 3061 
Q 1681 3084 1819 3084 
Q 2600 3084 3056 2656 
Q 3513 2228 3513 1497 
Q 3513 744 3044 326 
Q 2575 -91 1722 -91 
Q 1428 -91 1123 -41 
Q 819 9 494 109 
L 494 744 
Q 775 591 1075 516 
Q 1375 441 1709 441 
Q 2250 441 2565 725 
Q 2881 1009 2881 1497 
Q 2881 1984 2565 2268 
Q 2250 2553 1709 2553 
Q 1456 2553 1204 2497 
Q 953 2441 691 2322 
L 691 4666 
z
" transform="scale(0.015625)"/>
       </defs>
       <use xlink:href="#DejaVuSans-32"/>
       <use xlink:href="#DejaVuSans-35" x="63.623047"/>
      </g>
     </g>
    </g>
    <g id="xtick_3">
     <g id="line2d_3">
      <g>
       <use xlink:href="#m567e92bf12" x="497.712919" y="320.4" style="stroke: #000000; stroke-width: 0.8"/>
      </g>
     </g>
     <g id="text_3">
      <!-- 50 -->
      <g transform="translate(491.350419 334.998438) scale(0.1 -0.1)">
       <use xlink:href="#DejaVuSans-35"/>
       <use xlink:href="#DejaVuSans-30" x="63.623047"/>
      </g>
     </g>
    </g>
    <g id="xtick_4">
     <g id="line2d_4">
      <g>
       <use xlink:href="#m567e92bf12" x="631.205742" y="320.4" style="stroke: #000000; stroke-width: 0.8"/>
      </g>
     </g>
     <g id="text_4">
      <!-- 75 -->
      <g transform="translate(624.843242 334.998438) scale(0.1 -0.1)">
       <defs>
        <path id="DejaVuSans-37" d="M 525 4666 
L 3525 4666 
L 3525 4397 
L 1831 0 
L 1172 0 
L 2766 4134 
L 525 4134 
L 525 4666 
z
" transform="scale(0.015625)"/>
       </defs>
       <use xlink:href="#DejaVuSans-37"/>
       <use xlink:href="#DejaVuSans-35" x="63.623047"/>
      </g>
     </g>
    </g>
    <g id="xtick_5">
     <g id="line2d_5">
      <g>
       <use xlink:href="#m567e92bf12" x="764.698565" y="320.4" style="stroke: #000000; stroke-width: 0.8"/>
      </g>
     </g>
     <g id="text_5">
      <!-- 100 -->
      <g transform="translate(755.154815 334.998438) scale(0.1 -0.1)">
       <defs>
        <path id="DejaVuSans-31" d="M 794 531 
L 1825 531 
L 1825 4091 
L 703 3866 
L 703 4441 
L 1819 4666 
L 2450 4666 
L 2450 531 
L 3481 531 
L 3481 0 
L 794 0 
L 794 531 
z
" transform="scale(0.015625)"/>
       </defs>
       <use xlink:href="#DejaVuSans-31"/>
       <use xlink:href="#DejaVuSans-30" x="63.623047"/>
       <use xlink:href="#DejaVuSans-30" x="127.246094"/>
      </g>
     </g>
    </g>
    <g id="xtick_6">
     <g id="line2d_6">
      <g>
       <use xlink:href="#m567e92bf12" x="898.191388" y="320.4" style="stroke: #000000; stroke-width: 0.8"/>
      </g>
     </g>
     <g id="text_6">
      <!-- 125 -->
      <g transform="translate(888.647638 334.998438) scale(0.1 -0.1)">
       <use xlink:href="#DejaVuSans-31"/>
       <use xlink:href="#DejaVuSans-32" x="63.623047"/>
       <use xlink:href="#DejaVuSans-35" x="127.246094"/>
      </g>
     </g>
    </g>
    <g id="xtick_7">
     <g id="line2d_7">
      <g>
       <use xlink:href="#m567e92bf12" x="1031.684211" y="320.4" style="stroke: #000000; stroke-width: 0.8"/>
      </g>
     </g>
     <g id="text_7">
      <!-- 150 -->
      <g transform="translate(1022.140461 334.998438) scale(0.1 -0.1)">
       <use xlink:href="#DejaVuSans-31"/>
       <use xlink:href="#DejaVuSans-35" x="63.623047"/>
       <use xlink:href="#DejaVuSans-30" x="127.246094"/>
      </g>
     </g>
    </g>
    <g id="xtick_8">
     <g id="line2d_8">
      <g>
       <use xlink:href="#m567e92bf12" x="1165.177033" y="320.4" style="stroke: #000000; stroke-width: 0.8"/>
      </g>
     </g>
     <g id="text_8">
      <!-- 175 -->
      <g transform="translate(1155.633283 334.998438) scale(0.1 -0.1)">
       <use xlink:href="#DejaVuSans-31"/>
       <use xlink:href="#DejaVuSans-37" x="63.623047"/>
       <use xlink:href="#DejaVuSans-35" x="127.246094"/>
      </g>
     </g>
    </g>
    <g id="text_9">
     <!-- Amostras -->
     <g transform="translate(714.360937 348.676562) scale(0.1 -0.1)">
      <defs>
       <path id="DejaVuSans-41" d="M 2188 4044 
L 1331 1722 
L 3047 1722 
L 2188 4044 
z
M 1831 4666 
L 2547 4666 
L 4325 0 
L 3669 0 
L 3244 1197 
L 1141 1197 
L 716 0 
L 50 0 
L 1831 4666 
z
" transform="scale(0.015625)"/>
       <path id="DejaVuSans-6d" d="M 3328 2828 
Q 3544 3216 3844 3400 
Q 4144 3584 4550 3584 
Q 5097 3584 5394 3201 
Q 5691 2819 5691 2113 
L 5691 0 
L 5113 0 
L 5113 2094 
Q 5113 2597 4934 2840 
Q 4756 3084 4391 3084 
Q 3944 3084 3684 2787 
Q 3425 2491 3425 1978 
L 3425 0 
L 2847 0 
L 2847 2094 
Q 2847 2600 2669 2842 
Q 2491 3084 2119 3084 
Q 1678 3084 1418 2786 
Q 1159 2488 1159 1978 
L 1159 0 
L 581 0 
L 581 3500 
L 1159 3500 
L 1159 2956 
Q 1356 3278 1631 3431 
Q 1906 3584 2284 3584 
Q 2666 3584 2933 3390 
Q 3200 3197 3328 2828 
z
" transform="scale(0.015625)"/>
       <path id="DejaVuSans-6f" d="M 1959 3097 
Q 1497 3097 1228 2736 
Q 959 2375 959 1747 
Q 959 1119 1226 758 
Q 1494 397 1959 397 
Q 2419 397 2687 759 
Q 2956 1122 2956 1747 
Q 2956 2369 2687 2733 
Q 2419 3097 1959 3097 
z
M 1959 3584 
Q 2709 3584 3137 3096 
Q 3566 2609 3566 1747 
Q 3566 888 3137 398 
Q 2709 -91 1959 -91 
Q 1206 -91 779 398 
Q 353 888 353 1747 
Q 353 2609 779 3096 
Q 1206 3584 1959 3584 
z
" transform="scale(0.015625)"/>
       <path id="DejaVuSans-73" d="M 2834 3397 
L 2834 2853 
Q 2591 2978 2328 3040 
Q 2066 3103 1784 3103 
Q 1356 3103 1142 2972 
Q 928 2841 928 2578 
Q 928 2378 1081 2264 
Q 1234 2150 1697 2047 
L 1894 2003 
Q 2506 1872 2764 1633 
Q 3022 1394 3022 966 
Q 3022 478 2636 193 
Q 2250 -91 1575 -91 
Q 1294 -91 989 -36 
Q 684 19 347 128 
L 347 722 
Q 666 556 975 473 
Q 1284 391 1588 391 
Q 1994 391 2212 530 
Q 2431 669 2431 922 
Q 2431 1156 2273 1281 
Q 2116 1406 1581 1522 
L 1381 1569 
Q 847 1681 609 1914 
Q 372 2147 372 2553 
Q 372 3047 722 3315 
Q 1072 3584 1716 3584 
Q 2034 3584 2315 3537 
Q 2597 3491 2834 3397 
z
" transform="scale(0.015625)"/>
       <path id="DejaVuSans-74" d="M 1172 4494 
L 1172 3500 
L 2356 3500 
L 2356 3053 
L 1172 3053 
L 1172 1153 
Q 1172 725 1289 603 
Q 1406 481 1766 481 
L 2356 481 
L 2356 0 
L 1766 0 
Q 1100 0 847 248 
Q 594 497 594 1153 
L 594 3053 
L 172 3053 
L 172 3500 
L 594 3500 
L 594 4494 
L 1172 4494 
z
" transform="scale(0.015625)"/>
       <path id="DejaVuSans-72" d="M 2631 2963 
Q 2534 3019 2420 3045 
Q 2306 3072 2169 3072 
Q 1681 3072 1420 2755 
Q 1159 2438 1159 1844 
L 1159 0 
L 581 0 
L 581 3500 
L 1159 3500 
L 1159 2956 
Q 1341 3275 1631 3429 
Q 1922 3584 2338 3584 
Q 2397 3584 2469 3576 
Q 2541 3569 2628 3553 
L 2631 2963 
z
" transform="scale(0.015625)"/>
       <path id="DejaVuSans-61" d="M 2194 1759 
Q 1497 1759 1228 1600 
Q 959 1441 959 1056 
Q 959 750 1161 570 
Q 1363 391 1709 391 
Q 2188 391 2477 730 
Q 2766 1069 2766 1631 
L 2766 1759 
L 2194 1759 
z
M 3341 1997 
L 3341 0 
L 2766 0 
L 2766 531 
Q 2569 213 2275 61 
Q 1981 -91 1556 -91 
Q 1019 -91 701 211 
Q 384 513 384 1019 
Q 384 1609 779 1909 
Q 1175 2209 1959 2209 
L 2766 2209 
L 2766 2266 
Q 2766 2663 2505 2880 
Q 2244 3097 1772 3097 
Q 1472 3097 1187 3025 
Q 903 2953 641 2809 
L 641 3341 
Q 956 3463 1253 3523 
Q 1550 3584 1831 3584 
Q 2591 3584 2966 3190 
Q 3341 2797 3341 1997 
z
" transform="scale(0.015625)"/>
      </defs>
      <use xlink:href="#DejaVuSans-41"/>
      <use xlink:href="#DejaVuSans-6d" x="68.408203"/>
      <use xlink:href="#DejaVuSans-6f" x="165.820312"/>
      <use xlink:href="#DejaVuSans-73" x="227.001953"/>
      <use xlink:href="#DejaVuSans-74" x="279.101562"/>
      <use xlink:href="#DejaVuSans-72" x="318.310547"/>
      <use xlink:href="#DejaVuSans-61" x="359.423828"/>
      <use xlink:href="#DejaVuSans-73" x="420.703125"/>
     </g>
    </g>
   </g>
   <g id="matplotlib.axis_2">
    <g id="ytick_1">
     <g id="line2d_9">
      <defs>
       <path id="m1d4cd5aa69" d="M 0 0 
L -3.5 0 
" style="stroke: #000000; stroke-width: 0.8"/>
      </defs>
      <g>
       <use xlink:href="#m1d4cd5aa69" x="180" y="300.618053" style="stroke: #000000; stroke-width: 0.8"/>
      </g>
     </g>
     <g id="text_10">
      <!-- 2 -->
      <g transform="translate(166.6375 304.417271) scale(0.1 -0.1)">
       <use xlink:href="#DejaVuSans-32"/>
      </g>
     </g>
    </g>
    <g id="ytick_2">
     <g id="line2d_10">
      <g>
       <use xlink:href="#m1d4cd5aa69" x="180" y="265.24186" style="stroke: #000000; stroke-width: 0.8"/>
      </g>
     </g>
     <g id="text_11">
      <!-- 4 -->
      <g transform="translate(166.6375 269.041078) scale(0.1 -0.1)">
       <defs>
        <path id="DejaVuSans-34" d="M 2419 4116 
L 825 1625 
L 2419 1625 
L 2419 4116 
z
M 2253 4666 
L 3047 4666 
L 3047 1625 
L 3713 1625 
L 3713 1100 
L 3047 1100 
L 3047 0 
L 2419 0 
L 2419 1100 
L 313 1100 
L 313 1709 
L 2253 4666 
z
" transform="scale(0.015625)"/>
       </defs>
       <use xlink:href="#DejaVuSans-34"/>
      </g>
     </g>
    </g>
    <g id="ytick_3">
     <g id="line2d_11">
      <g>
       <use xlink:href="#m1d4cd5aa69" x="180" y="229.865666" style="stroke: #000000; stroke-width: 0.8"/>
      </g>
     </g>
     <g id="text_12">
      <!-- 6 -->
      <g transform="translate(166.6375 233.664885) scale(0.1 -0.1)">
       <defs>
        <path id="DejaVuSans-36" d="M 2113 2584 
Q 1688 2584 1439 2293 
Q 1191 2003 1191 1497 
Q 1191 994 1439 701 
Q 1688 409 2113 409 
Q 2538 409 2786 701 
Q 3034 994 3034 1497 
Q 3034 2003 2786 2293 
Q 2538 2584 2113 2584 
z
M 3366 4563 
L 3366 3988 
Q 3128 4100 2886 4159 
Q 2644 4219 2406 4219 
Q 1781 4219 1451 3797 
Q 1122 3375 1075 2522 
Q 1259 2794 1537 2939 
Q 1816 3084 2150 3084 
Q 2853 3084 3261 2657 
Q 3669 2231 3669 1497 
Q 3669 778 3244 343 
Q 2819 -91 2113 -91 
Q 1303 -91 875 529 
Q 447 1150 447 2328 
Q 447 3434 972 4092 
Q 1497 4750 2381 4750 
Q 2619 4750 2861 4703 
Q 3103 4656 3366 4563 
z
" transform="scale(0.015625)"/>
       </defs>
       <use xlink:href="#DejaVuSans-36"/>
      </g>
     </g>
    </g>
    <g id="ytick_4">
     <g id="line2d_12">
      <g>
       <use xlink:href="#m1d4cd5aa69" x="180" y="194.489473" style="stroke: #000000; stroke-width: 0.8"/>
      </g>
     </g>
     <g id="text_13">
      <!-- 8 -->
      <g transform="translate(166.6375 198.288692) scale(0.1 -0.1)">
       <defs>
        <path id="DejaVuSans-38" d="M 2034 2216 
Q 1584 2216 1326 1975 
Q 1069 1734 1069 1313 
Q 1069 891 1326 650 
Q 1584 409 2034 409 
Q 2484 409 2743 651 
Q 3003 894 3003 1313 
Q 3003 1734 2745 1975 
Q 2488 2216 2034 2216 
z
M 1403 2484 
Q 997 2584 770 2862 
Q 544 3141 544 3541 
Q 544 4100 942 4425 
Q 1341 4750 2034 4750 
Q 2731 4750 3128 4425 
Q 3525 4100 3525 3541 
Q 3525 3141 3298 2862 
Q 3072 2584 2669 2484 
Q 3125 2378 3379 2068 
Q 3634 1759 3634 1313 
Q 3634 634 3220 271 
Q 2806 -91 2034 -91 
Q 1263 -91 848 271 
Q 434 634 434 1313 
Q 434 1759 690 2068 
Q 947 2378 1403 2484 
z
M 1172 3481 
Q 1172 3119 1398 2916 
Q 1625 2713 2034 2713 
Q 2441 2713 2670 2916 
Q 2900 3119 2900 3481 
Q 2900 3844 2670 4047 
Q 2441 4250 2034 4250 
Q 1625 4250 1398 4047 
Q 1172 3844 1172 3481 
z
" transform="scale(0.015625)"/>
       </defs>
       <use xlink:href="#DejaVuSans-38"/>
      </g>
     </g>
    </g>
    <g id="ytick_5">
     <g id="line2d_13">
      <g>
       <use xlink:href="#m1d4cd5aa69" x="180" y="159.11328" style="stroke: #000000; stroke-width: 0.8"/>
      </g>
     </g>
     <g id="text_14">
      <!-- 10 -->
      <g transform="translate(160.275 162.912499) scale(0.1 -0.1)">
       <use xlink:href="#DejaVuSans-31"/>
       <use xlink:href="#DejaVuSans-30" x="63.623047"/>
      </g>
     </g>
    </g>
    <g id="ytick_6">
     <g id="line2d_14">
      <g>
       <use xlink:href="#m1d4cd5aa69" x="180" y="123.737087" style="stroke: #000000; stroke-width: 0.8"/>
      </g>
     </g>
     <g id="text_15">
      <!-- 12 -->
      <g transform="translate(160.275 127.536306) scale(0.1 -0.1)">
       <use xlink:href="#DejaVuSans-31"/>
       <use xlink:href="#DejaVuSans-32" x="63.623047"/>
      </g>
     </g>
    </g>
    <g id="ytick_7">
     <g id="line2d_15">
      <g>
       <use xlink:href="#m1d4cd5aa69" x="180" y="88.360894" style="stroke: #000000; stroke-width: 0.8"/>
      </g>
     </g>
     <g id="text_16">
      <!-- 14 -->
      <g transform="translate(160.275 92.160113) scale(0.1 -0.1)">
       <use xlink:href="#DejaVuSans-31"/>
       <use xlink:href="#DejaVuSans-34" x="63.623047"/>
      </g>
     </g>
    </g>
    <g id="ytick_8">
     <g id="line2d_16">
      <g>
       <use xlink:href="#m1d4cd5aa69" x="180" y="52.984701" style="stroke: #000000; stroke-width: 0.8"/>
      </g>
     </g>
     <g id="text_17">
      <!-- 16 -->
      <g transform="translate(160.275 56.78392) scale(0.1 -0.1)">
       <use xlink:href="#DejaVuSans-31"/>
       <use xlink:href="#DejaVuSans-36" x="63.623047"/>
      </g>
     </g>
    </g>
    <g id="text_18">
     <!-- Velocidade do Vento (m/s) -->
     <g transform="translate(154.195312 247.344531) rotate(-90) scale(0.1 -0.1)">
      <defs>
       <path id="DejaVuSans-56" d="M 1831 0 
L 50 4666 
L 709 4666 
L 2188 738 
L 3669 4666 
L 4325 4666 
L 2547 0 
L 1831 0 
z
" transform="scale(0.015625)"/>
       <path id="DejaVuSans-65" d="M 3597 1894 
L 3597 1613 
L 953 1613 
Q 991 1019 1311 708 
Q 1631 397 2203 397 
Q 2534 397 2845 478 
Q 3156 559 3463 722 
L 3463 178 
Q 3153 47 2828 -22 
Q 2503 -91 2169 -91 
Q 1331 -91 842 396 
Q 353 884 353 1716 
Q 353 2575 817 3079 
Q 1281 3584 2069 3584 
Q 2775 3584 3186 3129 
Q 3597 2675 3597 1894 
z
M 3022 2063 
Q 3016 2534 2758 2815 
Q 2500 3097 2075 3097 
Q 1594 3097 1305 2825 
Q 1016 2553 972 2059 
L 3022 2063 
z
" transform="scale(0.015625)"/>
       <path id="DejaVuSans-6c" d="M 603 4863 
L 1178 4863 
L 1178 0 
L 603 0 
L 603 4863 
z
" transform="scale(0.015625)"/>
       <path id="DejaVuSans-63" d="M 3122 3366 
L 3122 2828 
Q 2878 2963 2633 3030 
Q 2388 3097 2138 3097 
Q 1578 3097 1268 2742 
Q 959 2388 959 1747 
Q 959 1106 1268 751 
Q 1578 397 2138 397 
Q 2388 397 2633 464 
Q 2878 531 3122 666 
L 3122 134 
Q 2881 22 2623 -34 
Q 2366 -91 2075 -91 
Q 1284 -91 818 406 
Q 353 903 353 1747 
Q 353 2603 823 3093 
Q 1294 3584 2113 3584 
Q 2378 3584 2631 3529 
Q 2884 3475 3122 3366 
z
" transform="scale(0.015625)"/>
       <path id="DejaVuSans-69" d="M 603 3500 
L 1178 3500 
L 1178 0 
L 603 0 
L 603 3500 
z
M 603 4863 
L 1178 4863 
L 1178 4134 
L 603 4134 
L 603 4863 
z
" transform="scale(0.015625)"/>
       <path id="DejaVuSans-64" d="M 2906 2969 
L 2906 4863 
L 3481 4863 
L 3481 0 
L 2906 0 
L 2906 525 
Q 2725 213 2448 61 
Q 2172 -91 1784 -91 
Q 1150 -91 751 415 
Q 353 922 353 1747 
Q 353 2572 751 3078 
Q 1150 3584 1784 3584 
Q 2172 3584 2448 3432 
Q 2725 3281 2906 2969 
z
M 947 1747 
Q 947 1113 1208 752 
Q 1469 391 1925 391 
Q 2381 391 2643 752 
Q 2906 1113 2906 1747 
Q 2906 2381 2643 2742 
Q 2381 3103 1925 3103 
Q 1469 3103 1208 2742 
Q 947 2381 947 1747 
z
" transform="scale(0.015625)"/>
       <path id="DejaVuSans-20" transform="scale(0.015625)"/>
       <path id="DejaVuSans-6e" d="M 3513 2113 
L 3513 0 
L 2938 0 
L 2938 2094 
Q 2938 2591 2744 2837 
Q 2550 3084 2163 3084 
Q 1697 3084 1428 2787 
Q 1159 2491 1159 1978 
L 1159 0 
L 581 0 
L 581 3500 
L 1159 3500 
L 1159 2956 
Q 1366 3272 1645 3428 
Q 1925 3584 2291 3584 
Q 2894 3584 3203 3211 
Q 3513 2838 3513 2113 
z
" transform="scale(0.015625)"/>
       <path id="DejaVuSans-28" d="M 1984 4856 
Q 1566 4138 1362 3434 
Q 1159 2731 1159 2009 
Q 1159 1288 1364 580 
Q 1569 -128 1984 -844 
L 1484 -844 
Q 1016 -109 783 600 
Q 550 1309 550 2009 
Q 550 2706 781 3412 
Q 1013 4119 1484 4856 
L 1984 4856 
z
" transform="scale(0.015625)"/>
       <path id="DejaVuSans-2f" d="M 1625 4666 
L 2156 4666 
L 531 -594 
L 0 -594 
L 1625 4666 
z
" transform="scale(0.015625)"/>
       <path id="DejaVuSans-29" d="M 513 4856 
L 1013 4856 
Q 1481 4119 1714 3412 
Q 1947 2706 1947 2009 
Q 1947 1309 1714 600 
Q 1481 -109 1013 -844 
L 513 -844 
Q 928 -128 1133 580 
Q 1338 1288 1338 2009 
Q 1338 2731 1133 3434 
Q 928 4138 513 4856 
z
" transform="scale(0.015625)"/>
      </defs>
      <use xlink:href="#DejaVuSans-56"/>
      <use xlink:href="#DejaVuSans-65" x="60.658203"/>
      <use xlink:href="#DejaVuSans-6c" x="122.181641"/>
      <use xlink:href="#DejaVuSans-6f" x="149.964844"/>
      <use xlink:href="#DejaVuSans-63" x="211.146484"/>
      <use xlink:href="#DejaVuSans-69" x="266.126953"/>
      <use xlink:href="#DejaVuSans-64" x="293.910156"/>
      <use xlink:href="#DejaVuSans-61" x="357.386719"/>
      <use xlink:href="#DejaVuSans-64" x="418.666016"/>
      <use xlink:href="#DejaVuSans-65" x="482.142578"/>
      <use xlink:href="#DejaVuSans-20" x="543.666016"/>
      <use xlink:href="#DejaVuSans-64" x="575.453125"/>
      <use xlink:href="#DejaVuSans-6f" x="638.929688"/>
      <use xlink:href="#DejaVuSans-20" x="700.111328"/>
      <use xlink:href="#DejaVuSans-56" x="731.898438"/>
      <use xlink:href="#DejaVuSans-65" x="792.556641"/>
      <use xlink:href="#DejaVuSans-6e" x="854.080078"/>
      <use xlink:href="#DejaVuSans-74" x="917.458984"/>
      <use xlink:href="#DejaVuSans-6f" x="956.667969"/>
      <use xlink:href="#DejaVuSans-20" x="1017.849609"/>
      <use xlink:href="#DejaVuSans-28" x="1049.636719"/>
      <use xlink:href="#DejaVuSans-6d" x="1088.650391"/>
      <use xlink:href="#DejaVuSans-2f" x="1186.0625"/>
      <use xlink:href="#DejaVuSans-73" x="1219.753906"/>
      <use xlink:href="#DejaVuSans-29" x="1271.853516"/>
     </g>
    </g>
   </g>
   <g id="line2d_17">
    <path d="M 230.727273 145.754127 
L 236.066986 165.16347 
L 241.406699 175.006195 
L 246.746411 169.752949 
L 252.086124 180.618979 
L 257.425837 177.747288 
L 262.76555 176.630227 
L 268.105263 171.247717 
L 273.444976 169.929311 
L 278.784689 175.832237 
L 284.124402 191.36929 
L 289.464115 198.306932 
L 294.803828 248.202018 
L 300.143541 235.706026 
L 305.483254 242.986542 
L 310.822967 252.090494 
L 316.162679 251.201329 
L 321.502392 256.852954 
L 326.842105 263.171212 
L 332.181818 260.49842 
L 337.521531 247.400359 
L 342.861244 236.694244 
L 348.200957 194.164363 
L 353.54067 159.041808 
L 358.880383 136.203162 
L 364.220096 119.830924 
L 369.559809 120.919629 
L 374.899522 122.959846 
L 380.239234 121.73216 
L 385.578947 139.469311 
L 390.91866 154.221362 
L 396.258373 176.25888 
L 401.598086 181.435052 
L 406.937799 183.296916 
L 412.277512 180.132351 
L 417.617225 173.089659 
L 422.956938 205.134616 
L 428.296651 218.543609 
L 433.636364 213.953935 
L 438.976077 210.190911 
L 444.315789 204.912338 
L 449.655502 199.29456 
L 454.995215 214.772193 
L 460.334928 217.949823 
L 465.674641 199.532695 
L 471.014354 198.711114 
L 476.354067 201.0076 
L 481.69378 180.602313 
L 487.033493 129.035642 
L 492.373206 108.978035 
L 497.712919 112.509798 
L 503.052632 126.956054 
L 508.392344 135.319614 
L 513.732057 133.889555 
L 519.07177 139.163717 
L 524.411483 146.366746 
L 529.751196 162.28714 
L 535.090909 157.894687 
L 540.430622 174.019562 
L 545.770335 184.690961 
L 551.110048 217.756971 
L 556.449761 218.908942 
L 561.789474 222.033587 
L 567.129187 221.337147 
L 572.4689 230.669974 
L 577.808612 232.114549 
L 583.148325 251.560252 
L 588.488038 223.732449 
L 593.827751 201.218864 
L 599.167464 196.887163 
L 604.507177 158.917772 
L 609.84689 128.816265 
L 615.186603 112.429334 
L 620.526316 100.428784 
L 625.866029 104.910827 
L 631.205742 116.699051 
L 636.545455 131.279396 
L 641.885167 123.921816 
L 647.22488 145.451941 
L 652.564593 148.984294 
L 657.904306 158.002005 
L 663.244019 174.118312 
L 668.583732 170.52454 
L 673.923445 177.696244 
L 679.263158 202.000322 
L 684.602871 200.693345 
L 689.942584 199.982423 
L 695.282297 207.282793 
L 700.62201 199.861516 
L 705.961722 211.343785 
L 711.301435 227.325462 
L 716.641148 230.724434 
L 721.980861 207.724415 
L 727.320574 207.337455 
L 732.660287 159.060009 
L 738 124.57956 
L 743.339713 120.372173 
L 748.679426 115.325535 
L 754.019139 112.655914 
L 759.358852 111.865937 
L 764.698565 120.174 
L 770.038278 126.341679 
L 775.37799 134.922188 
L 780.717703 166.201434 
L 786.057416 179.365366 
L 791.397129 179.367222 
L 796.736842 171.848192 
L 802.076555 173.026233 
L 807.416268 223.877006 
L 812.755981 230.025404 
L 818.095694 227.37202 
L 823.435407 246.732115 
L 828.77512 245.234437 
L 834.114833 228.945058 
L 839.454545 227.793669 
L 844.794258 239.447121 
L 850.133971 232.545366 
L 855.473684 219.073167 
L 860.813397 207.236555 
L 866.15311 172.751914 
L 871.492823 129.987137 
L 876.832536 113.113072 
L 882.172249 126.820868 
L 887.511962 126.175759 
L 892.851675 131.430877 
L 898.191388 138.866559 
L 903.5311 156.344725 
L 908.870813 168.991025 
L 914.210526 160.388502 
L 919.550239 168.141197 
L 924.889952 173.5621 
L 930.229665 173.074461 
L 935.569378 196.076884 
L 940.909091 183.923554 
L 946.248804 198.329494 
L 951.588517 205.137484 
L 956.92823 196.915485 
L 962.267943 205.125836 
L 967.607656 221.256127 
L 972.947368 233.734499 
L 978.287081 223.926448 
L 983.626794 209.256395 
L 988.966507 169.407664 
L 994.30622 135.737975 
L 999.645933 124.54616 
L 1004.985646 137.07303 
L 1010.325359 129.733786 
L 1015.665072 132.081654 
L 1021.004785 139.457975 
L 1026.344498 146.624281 
L 1031.684211 162.633943 
L 1037.023923 170.622378 
L 1042.363636 164.362916 
L 1047.703349 177.024297 
L 1053.043062 181.183574 
L 1058.382775 172.92912 
L 1063.722488 226.362218 
L 1069.062201 226.025502 
L 1074.401914 237.302453 
L 1079.741627 255.016275 
L 1085.08134 249.479408 
L 1090.421053 251.945002 
L 1095.760766 246.175423 
L 1101.100478 219.027866 
L 1106.440191 232.227307 
L 1111.779904 243.863958 
L 1117.119617 219.797205 
L 1122.45933 203.568148 
L 1127.799043 174.532218 
L 1133.138756 143.049419 
L 1138.478469 131.986042 
L 1143.818182 128.075713 
L 1149.157895 134.225377 
L 1154.497608 142.106695 
L 1159.837321 156.426318 
L 1165.177033 150.289947 
L 1170.516746 154.666712 
L 1175.856459 169.013038 
L 1181.196172 176.035927 
L 1186.535885 170.988361 
L 1191.875598 176.229495 
L 1197.215311 185.719765 
L 1202.555024 203.102269 
L 1207.894737 207.682336 
L 1213.23445 222.916241 
L 1218.574163 230.025244 
L 1223.913876 241.936635 
L 1229.253589 239.920195 
L 1234.593301 231.630308 
L 1239.933014 203.803188 
L 1245.272727 164.258128 
L 1245.272727 164.258128 
" clip-path="url(#pd157a2a452)" style="fill: none; stroke: #0000ff; stroke-width: 1.5; stroke-linecap: square"/>
   </g>
   <g id="line2d_18">
    <path d="M 230.727273 172.055071 
L 236.066986 181.498549 
L 241.406699 165.087926 
L 246.746411 183.513027 
L 252.086124 181.007213 
L 257.425837 177.371327 
L 262.76555 171.111705 
L 268.105263 166.041117 
L 273.444976 173.745267 
L 278.784689 198.685483 
L 284.124402 209.308167 
L 289.464115 229.462771 
L 294.803828 218.250483 
L 300.143541 229.904973 
L 305.483254 245.706339 
L 310.822967 248.950865 
L 316.162679 258.166621 
L 321.502392 268.425717 
L 326.842105 266.755175 
L 332.181818 252.634177 
L 337.521531 241.382583 
L 342.861244 196.160015 
L 348.200957 157.442738 
L 353.54067 131.225048 
L 358.880383 106.628767 
L 364.220096 108.731685 
L 369.559809 109.409729 
L 374.899522 107.375598 
L 380.239234 135.067296 
L 385.578947 153.875639 
L 390.91866 183.218225 
L 396.258373 187.532155 
L 401.598086 188.888242 
L 406.937799 178.04937 
L 412.277512 158.219049 
L 417.617225 178.56036 
L 422.956938 195.540931 
L 428.296651 193.113732 
L 433.636364 190.880283 
L 438.976077 186.764467 
L 444.315789 182.442068 
L 449.655502 204.679782 
L 454.995215 215.2042 
L 460.334928 209.347475 
L 465.674641 215.89207 
L 471.014354 213.887419 
L 476.354067 192.248981 
L 481.69378 131.303662 
L 487.033493 93.028586 
L 492.373206 90.218144 
L 497.712919 108.063467 
L 503.052632 124.041715 
L 508.392344 114.195342 
L 513.732057 109.242674 
L 519.07177 120.563056 
L 524.411483 149.050719 
L 529.751196 134.389252 
L 535.090909 159.997685 
L 540.430622 173.715787 
L 545.770335 188.514827 
L 551.110048 193.261133 
L 556.449761 198.439814 
L 561.789474 198.223627 
L 567.129187 211.833635 
L 572.4689 218.162043 
L 577.808612 251.101209 
L 583.148325 218.417537 
L 588.488038 209.652103 
L 593.827751 207.283863 
L 599.167464 168.635372 
L 604.507177 131.362622 
L 609.84689 104.280181 
L 615.186603 65.1207 
L 620.526316 79.172911 
L 625.866029 91.456312 
L 631.205742 110.107426 
L 636.545455 106.353619 
L 641.885167 141.631545 
L 647.22488 139.57776 
L 652.564593 143.11538 
L 657.904306 162.021989 
L 663.244019 150.45594 
L 668.583732 159.987858 
L 673.923445 170.875865 
L 679.263158 170.296088 
L 684.602871 171.357374 
L 689.942584 181.783524 
L 695.282297 177.675956 
L 700.62201 195.953654 
L 705.961722 218.083429 
L 711.301435 232.194599 
L 716.641148 217.474172 
L 721.980861 220.982312 
L 727.320574 167.230151 
L 732.660287 126.026712 
L 738 117.428332 
L 743.339713 104.722383 
L 748.679426 83.496668 
L 754.019139 89.432008 
L 759.358852 97.679501 
L 764.698565 105.714882 
L 770.038278 115.521949 
L 775.37799 165.874064 
L 780.717703 179.346498 
L 786.057416 164.095427 
L 791.397129 139.764467 
L 796.736842 148.05822 
L 802.076555 194.872716 
L 807.416268 246.315596 
L 812.755981 251.415664 
L 818.095694 256.800707 
L 823.435407 246.39421 
L 828.77512 225.109533 
L 834.114833 229.099183 
L 839.454545 249.283266 
L 844.794258 246.526712 
L 850.133971 229.691852 
L 855.473684 213.907073 
L 860.813397 171.121532 
L 866.15311 114.814425 
L 871.492823 91.122203 
L 876.832536 107.827627 
L 882.172249 101.263378 
L 887.511962 100.909616 
L 892.851675 121.791396 
L 898.191388 153.57101 
L 903.5311 172.241779 
L 908.870813 154.986058 
L 914.210526 169.411683 
L 919.550239 172.231952 
L 924.889952 158.857785 
L 930.229665 163.260157 
L 935.569378 152.991233 
L 940.909091 173.588039 
L 946.248804 185.753519 
L 951.588517 181.302014 
L 956.92823 195.255957 
L 962.267943 214.192047 
L 967.607656 236.459396 
L 972.947368 234.061676 
L 978.287081 216.039471 
L 983.626794 175.504249 
L 988.966507 135.92222 
L 994.30622 113.183189 
L 999.645933 142.152361 
L 1004.985646 126.233073 
L 1010.325359 124.031889 
L 1015.665072 137.700857 
L 1021.004785 144.756441 
L 1026.344498 171.0724 
L 1031.684211 186.775498 
L 1037.023923 176.909471 
L 1042.363636 198.27276 
L 1047.703349 203.75607 
L 1053.043062 177.538381 
L 1058.382775 198.646176 
L 1063.722488 199.098206 
L 1069.062201 215.135413 
L 1074.401914 243.033472 
L 1079.741627 242.070453 
L 1085.08134 249.243959 
L 1090.421053 245.73582 
L 1095.760766 216.52098 
L 1101.100478 243.721342 
L 1106.440191 261.419265 
L 1111.779904 231.310194 
L 1117.119617 215.685709 
L 1122.45933 183.945402 
L 1127.799043 136.669051 
L 1133.138756 119.462463 
L 1138.478469 113.605738 
L 1143.818182 119.47229 
L 1149.157895 118.648053 
L 1154.497608 136.695108 
L 1159.837321 138.654048 
L 1165.177033 150.170965 
L 1170.516746 178.933775 
L 1175.856459 192.828757 
L 1181.196172 158.317316 
L 1186.535885 142.663351 
L 1191.875598 154.612643 
L 1197.215311 173.784574 
L 1202.555024 183.424587 
L 1207.894737 204.876317 
L 1213.23445 216.796129 
L 1218.574163 237.933404 
L 1223.913876 245.431191 
L 1229.253589 243.711515 
L 1234.593301 205.623147 
L 1239.933014 152.028215 
L 1245.272727 116.652022 
L 1245.272727 116.652022 
" clip-path="url(#pd157a2a452)" style="fill: none; stroke: #ffa500; stroke-width: 1.5; stroke-linecap: square"/>
   </g>
   <g id="patch_3">
    <path d="M 180 320.4 
L 180 43.2 
" style="fill: none; stroke: #000000; stroke-width: 0.8; stroke-linejoin: miter; stroke-linecap: square"/>
   </g>
   <g id="patch_4">
    <path d="M 1296 320.4 
L 1296 43.2 
" style="fill: none; stroke: #000000; stroke-width: 0.8; stroke-linejoin: miter; stroke-linecap: square"/>
   </g>
   <g id="patch_5">
    <path d="M 180 320.4 
L 1296 320.4 
" style="fill: none; stroke: #000000; stroke-width: 0.8; stroke-linejoin: miter; stroke-linecap: square"/>
   </g>
   <g id="patch_6">
    <path d="M 180 43.2 
L 1296 43.2 
" style="fill: none; stroke: #000000; stroke-width: 0.8; stroke-linejoin: miter; stroke-linecap: square"/>
   </g>
   <g id="text_19">
    <!-- Previsão do vento para 1 hora(s) à frente com 7 camadas -->
    <g transform="translate(564.882187 37.2) scale(0.12 -0.12)">
     <defs>
      <path id="DejaVuSans-50" d="M 1259 4147 
L 1259 2394 
L 2053 2394 
Q 2494 2394 2734 2622 
Q 2975 2850 2975 3272 
Q 2975 3691 2734 3919 
Q 2494 4147 2053 4147 
L 1259 4147 
z
M 628 4666 
L 2053 4666 
Q 2838 4666 3239 4311 
Q 3641 3956 3641 3272 
Q 3641 2581 3239 2228 
Q 2838 1875 2053 1875 
L 1259 1875 
L 1259 0 
L 628 0 
L 628 4666 
z
" transform="scale(0.015625)"/>
      <path id="DejaVuSans-76" d="M 191 3500 
L 800 3500 
L 1894 563 
L 2988 3500 
L 3597 3500 
L 2284 0 
L 1503 0 
L 191 3500 
z
" transform="scale(0.015625)"/>
      <path id="DejaVuSans-e3" d="M 2194 1759 
Q 1497 1759 1228 1600 
Q 959 1441 959 1056 
Q 959 750 1161 570 
Q 1363 391 1709 391 
Q 2188 391 2477 730 
Q 2766 1069 2766 1631 
L 2766 1759 
L 2194 1759 
z
M 3341 1997 
L 3341 0 
L 2766 0 
L 2766 531 
Q 2569 213 2275 61 
Q 1981 -91 1556 -91 
Q 1019 -91 701 211 
Q 384 513 384 1019 
Q 384 1609 779 1909 
Q 1175 2209 1959 2209 
L 2766 2209 
L 2766 2266 
Q 2766 2663 2505 2880 
Q 2244 3097 1772 3097 
Q 1472 3097 1187 3025 
Q 903 2953 641 2809 
L 641 3341 
Q 956 3463 1253 3523 
Q 1550 3584 1831 3584 
Q 2591 3584 2966 3190 
Q 3341 2797 3341 1997 
z
M 1844 4281 
L 1666 4453 
Q 1597 4516 1545 4545 
Q 1494 4575 1453 4575 
Q 1334 4575 1278 4461 
Q 1222 4347 1216 4091 
L 825 4091 
Q 831 4513 990 4742 
Q 1150 4972 1434 4972 
Q 1553 4972 1653 4928 
Q 1753 4884 1869 4781 
L 2047 4609 
Q 2116 4547 2167 4517 
Q 2219 4488 2259 4488 
Q 2378 4488 2434 4602 
Q 2491 4716 2497 4972 
L 2888 4972 
Q 2881 4550 2722 4320 
Q 2563 4091 2278 4091 
Q 2159 4091 2059 4134 
Q 1959 4178 1844 4281 
z
" transform="scale(0.015625)"/>
      <path id="DejaVuSans-70" d="M 1159 525 
L 1159 -1331 
L 581 -1331 
L 581 3500 
L 1159 3500 
L 1159 2969 
Q 1341 3281 1617 3432 
Q 1894 3584 2278 3584 
Q 2916 3584 3314 3078 
Q 3713 2572 3713 1747 
Q 3713 922 3314 415 
Q 2916 -91 2278 -91 
Q 1894 -91 1617 61 
Q 1341 213 1159 525 
z
M 3116 1747 
Q 3116 2381 2855 2742 
Q 2594 3103 2138 3103 
Q 1681 3103 1420 2742 
Q 1159 2381 1159 1747 
Q 1159 1113 1420 752 
Q 1681 391 2138 391 
Q 2594 391 2855 752 
Q 3116 1113 3116 1747 
z
" transform="scale(0.015625)"/>
      <path id="DejaVuSans-68" d="M 3513 2113 
L 3513 0 
L 2938 0 
L 2938 2094 
Q 2938 2591 2744 2837 
Q 2550 3084 2163 3084 
Q 1697 3084 1428 2787 
Q 1159 2491 1159 1978 
L 1159 0 
L 581 0 
L 581 4863 
L 1159 4863 
L 1159 2956 
Q 1366 3272 1645 3428 
Q 1925 3584 2291 3584 
Q 2894 3584 3203 3211 
Q 3513 2838 3513 2113 
z
" transform="scale(0.015625)"/>
      <path id="DejaVuSans-e0" d="M 2194 1759 
Q 1497 1759 1228 1600 
Q 959 1441 959 1056 
Q 959 750 1161 570 
Q 1363 391 1709 391 
Q 2188 391 2477 730 
Q 2766 1069 2766 1631 
L 2766 1759 
L 2194 1759 
z
M 3341 1997 
L 3341 0 
L 2766 0 
L 2766 531 
Q 2569 213 2275 61 
Q 1981 -91 1556 -91 
Q 1019 -91 701 211 
Q 384 513 384 1019 
Q 384 1609 779 1909 
Q 1175 2209 1959 2209 
L 2766 2209 
L 2766 2266 
Q 2766 2663 2505 2880 
Q 2244 3097 1772 3097 
Q 1472 3097 1187 3025 
Q 903 2953 641 2809 
L 641 3341 
Q 956 3463 1253 3523 
Q 1550 3584 1831 3584 
Q 2591 3584 2966 3190 
Q 3341 2797 3341 1997 
z
M 1403 5119 
L 2284 3950 
L 1806 3950 
L 788 5119 
L 1403 5119 
z
" transform="scale(0.015625)"/>
      <path id="DejaVuSans-66" d="M 2375 4863 
L 2375 4384 
L 1825 4384 
Q 1516 4384 1395 4259 
Q 1275 4134 1275 3809 
L 1275 3500 
L 2222 3500 
L 2222 3053 
L 1275 3053 
L 1275 0 
L 697 0 
L 697 3053 
L 147 3053 
L 147 3500 
L 697 3500 
L 697 3744 
Q 697 4328 969 4595 
Q 1241 4863 1831 4863 
L 2375 4863 
z
" transform="scale(0.015625)"/>
     </defs>
     <use xlink:href="#DejaVuSans-50"/>
     <use xlink:href="#DejaVuSans-72" x="58.552734"/>
     <use xlink:href="#DejaVuSans-65" x="97.416016"/>
     <use xlink:href="#DejaVuSans-76" x="158.939453"/>
     <use xlink:href="#DejaVuSans-69" x="218.119141"/>
     <use xlink:href="#DejaVuSans-73" x="245.902344"/>
     <use xlink:href="#DejaVuSans-e3" x="298.001953"/>
     <use xlink:href="#DejaVuSans-6f" x="359.28125"/>
     <use xlink:href="#DejaVuSans-20" x="420.462891"/>
     <use xlink:href="#DejaVuSans-64" x="452.25"/>
     <use xlink:href="#DejaVuSans-6f" x="515.726562"/>
     <use xlink:href="#DejaVuSans-20" x="576.908203"/>
     <use xlink:href="#DejaVuSans-76" x="608.695312"/>
     <use xlink:href="#DejaVuSans-65" x="667.875"/>
     <use xlink:href="#DejaVuSans-6e" x="729.398438"/>
     <use xlink:href="#DejaVuSans-74" x="792.777344"/>
     <use xlink:href="#DejaVuSans-6f" x="831.986328"/>
     <use xlink:href="#DejaVuSans-20" x="893.167969"/>
     <use xlink:href="#DejaVuSans-70" x="924.955078"/>
     <use xlink:href="#DejaVuSans-61" x="988.431641"/>
     <use xlink:href="#DejaVuSans-72" x="1049.710938"/>
     <use xlink:href="#DejaVuSans-61" x="1090.824219"/>
     <use xlink:href="#DejaVuSans-20" x="1152.103516"/>
     <use xlink:href="#DejaVuSans-31" x="1183.890625"/>
     <use xlink:href="#DejaVuSans-20" x="1247.513672"/>
     <use xlink:href="#DejaVuSans-68" x="1279.300781"/>
     <use xlink:href="#DejaVuSans-6f" x="1342.679688"/>
     <use xlink:href="#DejaVuSans-72" x="1403.861328"/>
     <use xlink:href="#DejaVuSans-61" x="1444.974609"/>
     <use xlink:href="#DejaVuSans-28" x="1506.253906"/>
     <use xlink:href="#DejaVuSans-73" x="1545.267578"/>
     <use xlink:href="#DejaVuSans-29" x="1597.367188"/>
     <use xlink:href="#DejaVuSans-20" x="1636.380859"/>
     <use xlink:href="#DejaVuSans-e0" x="1668.167969"/>
     <use xlink:href="#DejaVuSans-20" x="1729.447266"/>
     <use xlink:href="#DejaVuSans-66" x="1761.234375"/>
     <use xlink:href="#DejaVuSans-72" x="1796.439453"/>
     <use xlink:href="#DejaVuSans-65" x="1835.302734"/>
     <use xlink:href="#DejaVuSans-6e" x="1896.826172"/>
     <use xlink:href="#DejaVuSans-74" x="1960.205078"/>
     <use xlink:href="#DejaVuSans-65" x="1999.414062"/>
     <use xlink:href="#DejaVuSans-20" x="2060.9375"/>
     <use xlink:href="#DejaVuSans-63" x="2092.724609"/>
     <use xlink:href="#DejaVuSans-6f" x="2147.705078"/>
     <use xlink:href="#DejaVuSans-6d" x="2208.886719"/>
     <use xlink:href="#DejaVuSans-20" x="2306.298828"/>
     <use xlink:href="#DejaVuSans-37" x="2338.085938"/>
     <use xlink:href="#DejaVuSans-20" x="2401.708984"/>
     <use xlink:href="#DejaVuSans-63" x="2433.496094"/>
     <use xlink:href="#DejaVuSans-61" x="2488.476562"/>
     <use xlink:href="#DejaVuSans-6d" x="2549.755859"/>
     <use xlink:href="#DejaVuSans-61" x="2647.167969"/>
     <use xlink:href="#DejaVuSans-64" x="2708.447266"/>
     <use xlink:href="#DejaVuSans-61" x="2771.923828"/>
     <use xlink:href="#DejaVuSans-73" x="2833.203125"/>
    </g>
   </g>
   <g id="legend_1">
    <g id="patch_7">
     <path d="M 1217.86875 80.55625 
L 1289 80.55625 
Q 1291 80.55625 1291 78.55625 
L 1291 50.2 
Q 1291 48.2 1289 48.2 
L 1217.86875 48.2 
Q 1215.86875 48.2 1215.86875 50.2 
L 1215.86875 78.55625 
Q 1215.86875 80.55625 1217.86875 80.55625 
z
" style="fill: #ffffff; opacity: 0.8; stroke: #cccccc; stroke-linejoin: miter"/>
    </g>
    <g id="line2d_19">
     <path d="M 1219.86875 56.298437 
L 1229.86875 56.298437 
L 1239.86875 56.298437 
" style="fill: none; stroke: #0000ff; stroke-width: 1.5; stroke-linecap: square"/>
    </g>
    <g id="text_20">
     <!-- Predito -->
     <g transform="translate(1247.86875 59.798437) scale(0.1 -0.1)">
      <use xlink:href="#DejaVuSans-50"/>
      <use xlink:href="#DejaVuSans-72" x="58.552734"/>
      <use xlink:href="#DejaVuSans-65" x="97.416016"/>
      <use xlink:href="#DejaVuSans-64" x="158.939453"/>
      <use xlink:href="#DejaVuSans-69" x="222.416016"/>
      <use xlink:href="#DejaVuSans-74" x="250.199219"/>
      <use xlink:href="#DejaVuSans-6f" x="289.408203"/>
     </g>
    </g>
    <g id="line2d_20">
     <path d="M 1219.86875 70.976562 
L 1229.86875 70.976562 
L 1239.86875 70.976562 
" style="fill: none; stroke: #ffa500; stroke-width: 1.5; stroke-linecap: square"/>
    </g>
    <g id="text_21">
     <!-- Original -->
     <g transform="translate(1247.86875 74.476562) scale(0.1 -0.1)">
      <defs>
       <path id="DejaVuSans-4f" d="M 2522 4238 
Q 1834 4238 1429 3725 
Q 1025 3213 1025 2328 
Q 1025 1447 1429 934 
Q 1834 422 2522 422 
Q 3209 422 3611 934 
Q 4013 1447 4013 2328 
Q 4013 3213 3611 3725 
Q 3209 4238 2522 4238 
z
M 2522 4750 
Q 3503 4750 4090 4092 
Q 4678 3434 4678 2328 
Q 4678 1225 4090 567 
Q 3503 -91 2522 -91 
Q 1538 -91 948 565 
Q 359 1222 359 2328 
Q 359 3434 948 4092 
Q 1538 4750 2522 4750 
z
" transform="scale(0.015625)"/>
       <path id="DejaVuSans-67" d="M 2906 1791 
Q 2906 2416 2648 2759 
Q 2391 3103 1925 3103 
Q 1463 3103 1205 2759 
Q 947 2416 947 1791 
Q 947 1169 1205 825 
Q 1463 481 1925 481 
Q 2391 481 2648 825 
Q 2906 1169 2906 1791 
z
M 3481 434 
Q 3481 -459 3084 -895 
Q 2688 -1331 1869 -1331 
Q 1566 -1331 1297 -1286 
Q 1028 -1241 775 -1147 
L 775 -588 
Q 1028 -725 1275 -790 
Q 1522 -856 1778 -856 
Q 2344 -856 2625 -561 
Q 2906 -266 2906 331 
L 2906 616 
Q 2728 306 2450 153 
Q 2172 0 1784 0 
Q 1141 0 747 490 
Q 353 981 353 1791 
Q 353 2603 747 3093 
Q 1141 3584 1784 3584 
Q 2172 3584 2450 3431 
Q 2728 3278 2906 2969 
L 2906 3500 
L 3481 3500 
L 3481 434 
z
" transform="scale(0.015625)"/>
      </defs>
      <use xlink:href="#DejaVuSans-4f"/>
      <use xlink:href="#DejaVuSans-72" x="78.710938"/>
      <use xlink:href="#DejaVuSans-69" x="119.824219"/>
      <use xlink:href="#DejaVuSans-67" x="147.607422"/>
      <use xlink:href="#DejaVuSans-69" x="211.083984"/>
      <use xlink:href="#DejaVuSans-6e" x="238.867188"/>
      <use xlink:href="#DejaVuSans-61" x="302.246094"/>
      <use xlink:href="#DejaVuSans-6c" x="363.525391"/>
     </g>
    </g>
   </g>
  </g>
 </g>
 <defs>
  <clipPath id="pd157a2a452">
   <rect x="180" y="43.2" width="1116" height="277.2"/>
  </clipPath>
 </defs>
</svg>
