<?xml version="1.0" encoding="utf-8" standalone="no"?>
<!DOCTYPE svg PUBLIC "-//W3C//DTD SVG 1.1//EN"
  "http://www.w3.org/Graphics/SVG/1.1/DTD/svg11.dtd">
<svg xmlns:xlink="http://www.w3.org/1999/xlink" width="1440pt" height="360pt" viewBox="0 0 1440 360" xmlns="http://www.w3.org/2000/svg" version="1.1">
 <metadata>
  <rdf:RDF xmlns:dc="http://purl.org/dc/elements/1.1/" xmlns:cc="http://creativecommons.org/ns#" xmlns:rdf="http://www.w3.org/1999/02/22-rdf-syntax-ns#">
   <cc:Work>
    <dc:type rdf:resource="http://purl.org/dc/dcmitype/StillImage"/>
    <dc:date>2023-08-21T14:32:17.431214</dc:date>
    <dc:format>image/svg+xml</dc:format>
    <dc:creator>
     <cc:Agent>
      <dc:title>Matplotlib v3.7.1, https://matplotlib.org/</dc:title>
     </cc:Agent>
    </dc:creator>
   </cc:Work>
  </rdf:RDF>
 </metadata>
 <defs>
  <style type="text/css">*{stroke-linejoin: round; stroke-linecap: butt}</style>
 </defs>
 <g id="figure_1">
  <g id="patch_1">
   <path d="M 0 360 
L 1440 360 
L 1440 0 
L 0 0 
z
" style="fill: #ffffff"/>
  </g>
  <g id="axes_1">
   <g id="patch_2">
    <path d="M 180 320.4 
L 1296 320.4 
L 1296 43.2 
L 180 43.2 
z
" style="fill: #ffffff"/>
   </g>
   <g id="PolyCollection_1">
    <defs>
     <path id="m30a7126507" d="M 230.727273 -256.170811 
L 230.727273 -158.968813 
L 236.066986 -155.143613 
L 241.406699 -144.304762 
L 246.746411 -140.328168 
L 252.086124 -136.66576 
L 257.425837 -138.891746 
L 262.76555 -138.626851 
L 268.105263 -143.33635 
L 273.444976 -143.071372 
L 278.784689 -139.8071 
L 284.124402 -124.33662 
L 289.464115 -115.023483 
L 294.803828 -83.793311 
L 300.143541 -95.117963 
L 305.483254 -86.342197 
L 310.822967 -71.327404 
L 316.162679 -68.02081 
L 321.502392 -62.965277 
L 326.842105 -62.387384 
L 332.181818 -73.323308 
L 337.521531 -95.005544 
L 342.861244 -107.147998 
L 348.200957 -134.049486 
L 353.54067 -153.707191 
L 358.880383 -167.216845 
L 364.220096 -175.506133 
L 369.559809 -179.31863 
L 374.899522 -179.856382 
L 380.239234 -182.814726 
L 385.578947 -174.224178 
L 390.91866 -163.535342 
L 396.258373 -144.161181 
L 401.598086 -138.296245 
L 406.937799 -136.078171 
L 412.277512 -140.860931 
L 417.617225 -150.779753 
L 422.956938 -132.377457 
L 428.296651 -115.158325 
L 433.636364 -121.227012 
L 438.976077 -125.120385 
L 444.315789 -130.609933 
L 449.655502 -136.072836 
L 454.995215 -119.935733 
L 460.334928 -112.044217 
L 465.674641 -125.337954 
L 471.014354 -114.703258 
L 476.354067 -131.114482 
L 481.69378 -146.909176 
L 487.033493 -176.87752 
L 492.373206 -184.712798 
L 497.712919 -184.492207 
L 503.052632 -179.579924 
L 508.392344 -179.843959 
L 513.732057 -180.74704 
L 519.07177 -175.856331 
L 524.411483 -174.863157 
L 529.751196 -163.930239 
L 535.090909 -166.867027 
L 540.430622 -150.326032 
L 545.770335 -137.032229 
L 551.110048 -119.873853 
L 556.449761 -118.301878 
L 561.789474 -115.11854 
L 567.129187 -116.064363 
L 572.4689 -101.124358 
L 577.808612 -95.902769 
L 583.148325 -69.616878 
L 588.488038 -109.669793 
L 593.827751 -127.092758 
L 599.167464 -132.933759 
L 604.507177 -163.581727 
L 609.84689 -182.576063 
L 615.186603 -188.070468 
L 620.526316 -189.582 
L 625.866029 -197.305017 
L 631.205742 -206.997994 
L 636.545455 -195.723543 
L 641.885167 -193.561106 
L 647.22488 -178.860333 
L 652.564593 -172.816086 
L 657.904306 -162.757804 
L 663.244019 -146.965009 
L 668.583732 -152.113246 
L 673.923445 -143.957009 
L 679.263158 -137.300081 
L 684.602871 -137.75699 
L 689.942584 -137.425029 
L 695.282297 -128.860893 
L 700.62201 -136.249322 
L 705.961722 -122.125749 
L 711.301435 -102.51665 
L 716.641148 -95.251443 
L 721.980861 -117.417778 
L 727.320574 -115.233197 
L 732.660287 -164.320396 
L 738 -186.767831 
L 743.339713 -187.215324 
L 748.679426 -188.059631 
L 754.019139 -183.646149 
L 759.358852 -199.139855 
L 764.698565 -193.274968 
L 770.038278 -189.434389 
L 775.37799 -185.737424 
L 780.717703 -158.613098 
L 786.057416 -144.788547 
L 791.397129 -146.344234 
L 796.736842 -155.651697 
L 802.076555 -150.274593 
L 807.416268 -112.710666 
L 812.755981 -115.341221 
L 818.095694 -118.932234 
L 823.435407 -52.2 
L 828.77512 -66.928887 
L 834.114833 -93.248072 
L 839.454545 -91.382311 
L 844.794258 -77.010361 
L 850.133971 -89.575051 
L 855.473684 -121.652982 
L 860.813397 -134.163085 
L 866.15311 -150.779522 
L 871.492823 -173.204045 
L 876.832536 -184.621185 
L 882.172249 -177.434434 
L 887.511962 -178.238138 
L 892.851675 -174.199829 
L 898.191388 -176.475421 
L 903.5311 -163.365711 
L 908.870813 -150.622775 
L 914.210526 -158.237577 
L 919.550239 -150.854302 
L 924.889952 -144.751215 
L 930.229665 -147.73338 
L 935.569378 -146.970741 
L 940.909091 -159.645422 
L 946.248804 -142.365988 
L 951.588517 -133.307381 
L 956.92823 -141.35238 
L 962.267943 -133.523479 
L 967.607656 -114.817618 
L 972.947368 -98.322032 
L 978.287081 -110.298721 
L 983.626794 -131.558903 
L 988.966507 -159.725769 
L 994.30622 -183.043313 
L 999.645933 -190.330201 
L 1004.985646 -182.437702 
L 1010.325359 -182.634606 
L 1015.665072 -183.299651 
L 1021.004785 -180.735741 
L 1026.344498 -175.277976 
L 1031.684211 -158.437537 
L 1037.023923 -148.936705 
L 1042.363636 -154.563805 
L 1047.703349 -138.199643 
L 1053.043062 -130.69512 
L 1058.382775 -145.579697 
L 1063.722488 -116.654091 
L 1069.062201 -114.67625 
L 1074.401914 -102.614755 
L 1079.741627 -76.915692 
L 1085.08134 -81.947439 
L 1090.421053 -79.5953 
L 1095.760766 -79.354241 
L 1101.100478 -113.507126 
L 1106.440191 -96.717763 
L 1111.779904 -93.206478 
L 1117.119617 -124.520985 
L 1122.45933 -135.467374 
L 1127.799043 -155.716319 
L 1133.138756 -176.003116 
L 1138.478469 -184.03173 
L 1143.818182 -187.569354 
L 1149.157895 -182.97073 
L 1154.497608 -174.8174 
L 1159.837321 -168.601811 
L 1165.177033 -175.943318 
L 1170.516746 -169.14978 
L 1175.856459 -150.907856 
L 1181.196172 -140.176261 
L 1186.535885 -147.941318 
L 1191.875598 -165.188787 
L 1197.215311 -154.894262 
L 1202.555024 -140.162352 
L 1207.894737 -135.532094 
L 1213.23445 -117.258545 
L 1218.574163 -108.184955 
L 1223.913876 -90.057696 
L 1229.253589 -86.76094 
L 1234.593301 -98.468992 
L 1239.933014 -139.738927 
L 1245.272727 -160.802082 
L 1245.272727 -258.004063 
L 1245.272727 -258.004063 
L 1239.933014 -236.940925 
L 1234.593301 -195.670981 
L 1229.253589 -183.962929 
L 1223.913876 -187.259694 
L 1218.574163 -205.386953 
L 1213.23445 -214.460543 
L 1207.894737 -232.734092 
L 1202.555024 -237.364333 
L 1197.215311 -252.09626 
L 1191.875598 -262.390785 
L 1186.535885 -245.143315 
L 1181.196172 -237.378242 
L 1175.856459 -248.109853 
L 1170.516746 -266.351785 
L 1165.177033 -273.145291 
L 1159.837321 -265.803792 
L 1154.497608 -272.019405 
L 1149.157895 -280.172735 
L 1143.818182 -284.77136 
L 1138.478469 -281.233735 
L 1133.138756 -273.205089 
L 1127.799043 -252.9183 
L 1122.45933 -232.669371 
L 1117.119617 -221.722983 
L 1111.779904 -190.408467 
L 1106.440191 -193.919761 
L 1101.100478 -210.709116 
L 1095.760766 -176.55623 
L 1090.421053 -176.797289 
L 1085.08134 -179.149428 
L 1079.741627 -174.117681 
L 1074.401914 -199.816744 
L 1069.062201 -211.878231 
L 1063.722488 -213.856088 
L 1058.382775 -242.781694 
L 1053.043062 -227.897101 
L 1047.703349 -235.40164 
L 1042.363636 -251.765786 
L 1037.023923 -246.138703 
L 1031.684211 -255.639534 
L 1026.344498 -272.479981 
L 1021.004785 -277.937714 
L 1015.665072 -280.501624 
L 1010.325359 -279.836579 
L 1004.985646 -279.639708 
L 999.645933 -287.532174 
L 994.30622 -280.245319 
L 988.966507 -256.927766 
L 983.626794 -228.7609 
L 978.287081 -207.50071 
L 972.947368 -195.52403 
L 967.607656 -212.019598 
L 962.267943 -230.725476 
L 956.92823 -238.554378 
L 951.588517 -230.509378 
L 946.248804 -239.567969 
L 940.909091 -256.847419 
L 935.569378 -244.172739 
L 930.229665 -244.935377 
L 924.889952 -241.953212 
L 919.550239 -248.0563 
L 914.210526 -255.439558 
L 908.870813 -247.824773 
L 903.5311 -260.567708 
L 898.191388 -273.677426 
L 892.851675 -271.401835 
L 887.511962 -275.44011 
L 882.172249 -274.636407 
L 876.832536 -281.823191 
L 871.492823 -270.406018 
L 866.15311 -247.981503 
L 860.813397 -231.365083 
L 855.473684 -218.854963 
L 850.133971 -186.777049 
L 844.794258 -174.21235 
L 839.454545 -188.5843 
L 834.114833 -190.450061 
L 828.77512 -164.130876 
L 823.435407 -149.401989 
L 818.095694 -216.134224 
L 812.755981 -212.54321 
L 807.416268 -209.912664 
L 802.076555 -247.47659 
L 796.736842 -252.853678 
L 791.397129 -243.546215 
L 786.057416 -241.990545 
L 780.717703 -255.815096 
L 775.37799 -282.939397 
L 770.038278 -286.636394 
L 764.698565 -290.47694 
L 759.358852 -296.341827 
L 754.019139 -280.848154 
L 748.679426 -285.261604 
L 743.339713 -284.417297 
L 738 -283.969837 
L 732.660287 -261.522394 
L 727.320574 -212.435177 
L 721.980861 -214.619767 
L 716.641148 -192.453423 
L 711.301435 -199.718639 
L 705.961722 -219.32773 
L 700.62201 -233.451303 
L 695.282297 -226.062891 
L 689.942584 -234.62701 
L 684.602871 -234.958971 
L 679.263158 -234.502062 
L 673.923445 -241.15899 
L 668.583732 -249.315227 
L 663.244019 -244.16699 
L 657.904306 -259.959785 
L 652.564593 -270.018091 
L 647.22488 -276.062306 
L 641.885167 -290.763111 
L 636.545455 -292.925549 
L 631.205742 -304.2 
L 625.866029 -294.506989 
L 620.526316 -286.784006 
L 615.186603 -285.27244 
L 609.84689 -279.778036 
L 604.507177 -260.783708 
L 599.167464 -230.135757 
L 593.827751 -224.294756 
L 588.488038 -206.871791 
L 583.148325 -166.818867 
L 577.808612 -193.104758 
L 572.4689 -198.326339 
L 567.129187 -213.266352 
L 561.789474 -212.320537 
L 556.449761 -215.503868 
L 551.110048 -217.075843 
L 545.770335 -234.234226 
L 540.430622 -247.52803 
L 535.090909 -264.069025 
L 529.751196 -261.13222 
L 524.411483 -272.065129 
L 519.07177 -273.058336 
L 513.732057 -277.949046 
L 508.392344 -277.045965 
L 503.052632 -276.781929 
L 497.712919 -281.694212 
L 492.373206 -281.914804 
L 487.033493 -274.079493 
L 481.69378 -244.111157 
L 476.354067 -228.316479 
L 471.014354 -211.905256 
L 465.674641 -222.539935 
L 460.334928 -209.246198 
L 454.995215 -217.137722 
L 449.655502 -233.274817 
L 444.315789 -227.81193 
L 438.976077 -222.322383 
L 433.636364 -218.42901 
L 428.296651 -212.360314 
L 422.956938 -229.579438 
L 417.617225 -247.981734 
L 412.277512 -238.062912 
L 406.937799 -233.280169 
L 401.598086 -235.498242 
L 396.258373 -241.363162 
L 390.91866 -260.737323 
L 385.578947 -271.426184 
L 380.239234 -280.016699 
L 374.899522 -277.058387 
L 369.559809 -276.520636 
L 364.220096 -272.708106 
L 358.880383 -264.418826 
L 353.54067 -250.909189 
L 348.200957 -231.251467 
L 342.861244 -204.349987 
L 337.521531 -192.207525 
L 332.181818 -170.525297 
L 326.842105 -159.589373 
L 321.502392 -160.167266 
L 316.162679 -165.222799 
L 310.822967 -168.529393 
L 305.483254 -183.544195 
L 300.143541 -192.319952 
L 294.803828 -180.995301 
L 289.464115 -212.225472 
L 284.124402 -221.538601 
L 278.784689 -237.009081 
L 273.444976 -240.273353 
L 268.105263 -240.538347 
L 262.76555 -235.828848 
L 257.425837 -236.093743 
L 252.086124 -233.867741 
L 246.746411 -237.530149 
L 241.406699 -241.506743 
L 236.066986 -252.345594 
L 230.727273 -256.170811 
z
" style="stroke: #0000ff; stroke-opacity: 0.05"/>
    </defs>
    <g clip-path="url(#p0d8fb9861d)">
     <use xlink:href="#m30a7126507" x="0" y="360" style="fill: #0000ff; fill-opacity: 0.05; stroke: #0000ff; stroke-opacity: 0.05"/>
    </g>
   </g>
   <g id="matplotlib.axis_1">
    <g id="xtick_1">
     <g id="line2d_1">
      <defs>
       <path id="m984adf69a5" d="M 0 0 
L 0 3.5 
" style="stroke: #000000; stroke-width: 0.8"/>
      </defs>
      <g>
       <use xlink:href="#m984adf69a5" x="230.727273" y="320.4" style="stroke: #000000; stroke-width: 0.8"/>
      </g>
     </g>
     <g id="text_1">
      <!-- 0 -->
      <g transform="translate(227.546023 334.998438) scale(0.1 -0.1)">
       <defs>
        <path id="DejaVuSans-30" d="M 2034 4250 
Q 1547 4250 1301 3770 
Q 1056 3291 1056 2328 
Q 1056 1369 1301 889 
Q 1547 409 2034 409 
Q 2525 409 2770 889 
Q 3016 1369 3016 2328 
Q 3016 3291 2770 3770 
Q 2525 4250 2034 4250 
z
M 2034 4750 
Q 2819 4750 3233 4129 
Q 3647 3509 3647 2328 
Q 3647 1150 3233 529 
Q 2819 -91 2034 -91 
Q 1250 -91 836 529 
Q 422 1150 422 2328 
Q 422 3509 836 4129 
Q 1250 4750 2034 4750 
z
" transform="scale(0.015625)"/>
       </defs>
       <use xlink:href="#DejaVuSans-30"/>
      </g>
     </g>
    </g>
    <g id="xtick_2">
     <g id="line2d_2">
      <g>
       <use xlink:href="#m984adf69a5" x="364.220096" y="320.4" style="stroke: #000000; stroke-width: 0.8"/>
      </g>
     </g>
     <g id="text_2">
      <!-- 25 -->
      <g transform="translate(357.857596 334.998438) scale(0.1 -0.1)">
       <defs>
        <path id="DejaVuSans-32" d="M 1228 531 
L 3431 531 
L 3431 0 
L 469 0 
L 469 531 
Q 828 903 1448 1529 
Q 2069 2156 2228 2338 
Q 2531 2678 2651 2914 
Q 2772 3150 2772 3378 
Q 2772 3750 2511 3984 
Q 2250 4219 1831 4219 
Q 1534 4219 1204 4116 
Q 875 4013 500 3803 
L 500 4441 
Q 881 4594 1212 4672 
Q 1544 4750 1819 4750 
Q 2544 4750 2975 4387 
Q 3406 4025 3406 3419 
Q 3406 3131 3298 2873 
Q 3191 2616 2906 2266 
Q 2828 2175 2409 1742 
Q 1991 1309 1228 531 
z
" transform="scale(0.015625)"/>
        <path id="DejaVuSans-35" d="M 691 4666 
L 3169 4666 
L 3169 4134 
L 1269 4134 
L 1269 2991 
Q 1406 3038 1543 3061 
Q 1681 3084 1819 3084 
Q 2600 3084 3056 2656 
Q 3513 2228 3513 1497 
Q 3513 744 3044 326 
Q 2575 -91 1722 -91 
Q 1428 -91 1123 -41 
Q 819 9 494 109 
L 494 744 
Q 775 591 1075 516 
Q 1375 441 1709 441 
Q 2250 441 2565 725 
Q 2881 1009 2881 1497 
Q 2881 1984 2565 2268 
Q 2250 2553 1709 2553 
Q 1456 2553 1204 2497 
Q 953 2441 691 2322 
L 691 4666 
z
" transform="scale(0.015625)"/>
       </defs>
       <use xlink:href="#DejaVuSans-32"/>
       <use xlink:href="#DejaVuSans-35" x="63.623047"/>
      </g>
     </g>
    </g>
    <g id="xtick_3">
     <g id="line2d_3">
      <g>
       <use xlink:href="#m984adf69a5" x="497.712919" y="320.4" style="stroke: #000000; stroke-width: 0.8"/>
      </g>
     </g>
     <g id="text_3">
      <!-- 50 -->
      <g transform="translate(491.350419 334.998438) scale(0.1 -0.1)">
       <use xlink:href="#DejaVuSans-35"/>
       <use xlink:href="#DejaVuSans-30" x="63.623047"/>
      </g>
     </g>
    </g>
    <g id="xtick_4">
     <g id="line2d_4">
      <g>
       <use xlink:href="#m984adf69a5" x="631.205742" y="320.4" style="stroke: #000000; stroke-width: 0.8"/>
      </g>
     </g>
     <g id="text_4">
      <!-- 75 -->
      <g transform="translate(624.843242 334.998438) scale(0.1 -0.1)">
       <defs>
        <path id="DejaVuSans-37" d="M 525 4666 
L 3525 4666 
L 3525 4397 
L 1831 0 
L 1172 0 
L 2766 4134 
L 525 4134 
L 525 4666 
z
" transform="scale(0.015625)"/>
       </defs>
       <use xlink:href="#DejaVuSans-37"/>
       <use xlink:href="#DejaVuSans-35" x="63.623047"/>
      </g>
     </g>
    </g>
    <g id="xtick_5">
     <g id="line2d_5">
      <g>
       <use xlink:href="#m984adf69a5" x="764.698565" y="320.4" style="stroke: #000000; stroke-width: 0.8"/>
      </g>
     </g>
     <g id="text_5">
      <!-- 100 -->
      <g transform="translate(755.154815 334.998438) scale(0.1 -0.1)">
       <defs>
        <path id="DejaVuSans-31" d="M 794 531 
L 1825 531 
L 1825 4091 
L 703 3866 
L 703 4441 
L 1819 4666 
L 2450 4666 
L 2450 531 
L 3481 531 
L 3481 0 
L 794 0 
L 794 531 
z
" transform="scale(0.015625)"/>
       </defs>
       <use xlink:href="#DejaVuSans-31"/>
       <use xlink:href="#DejaVuSans-30" x="63.623047"/>
       <use xlink:href="#DejaVuSans-30" x="127.246094"/>
      </g>
     </g>
    </g>
    <g id="xtick_6">
     <g id="line2d_6">
      <g>
       <use xlink:href="#m984adf69a5" x="898.191388" y="320.4" style="stroke: #000000; stroke-width: 0.8"/>
      </g>
     </g>
     <g id="text_6">
      <!-- 125 -->
      <g transform="translate(888.647638 334.998438) scale(0.1 -0.1)">
       <use xlink:href="#DejaVuSans-31"/>
       <use xlink:href="#DejaVuSans-32" x="63.623047"/>
       <use xlink:href="#DejaVuSans-35" x="127.246094"/>
      </g>
     </g>
    </g>
    <g id="xtick_7">
     <g id="line2d_7">
      <g>
       <use xlink:href="#m984adf69a5" x="1031.684211" y="320.4" style="stroke: #000000; stroke-width: 0.8"/>
      </g>
     </g>
     <g id="text_7">
      <!-- 150 -->
      <g transform="translate(1022.140461 334.998438) scale(0.1 -0.1)">
       <use xlink:href="#DejaVuSans-31"/>
       <use xlink:href="#DejaVuSans-35" x="63.623047"/>
       <use xlink:href="#DejaVuSans-30" x="127.246094"/>
      </g>
     </g>
    </g>
    <g id="xtick_8">
     <g id="line2d_8">
      <g>
       <use xlink:href="#m984adf69a5" x="1165.177033" y="320.4" style="stroke: #000000; stroke-width: 0.8"/>
      </g>
     </g>
     <g id="text_8">
      <!-- 175 -->
      <g transform="translate(1155.633283 334.998438) scale(0.1 -0.1)">
       <use xlink:href="#DejaVuSans-31"/>
       <use xlink:href="#DejaVuSans-37" x="63.623047"/>
       <use xlink:href="#DejaVuSans-35" x="127.246094"/>
      </g>
     </g>
    </g>
    <g id="text_9">
     <!-- Amostras -->
     <g transform="translate(714.360937 348.676562) scale(0.1 -0.1)">
      <defs>
       <path id="DejaVuSans-41" d="M 2188 4044 
L 1331 1722 
L 3047 1722 
L 2188 4044 
z
M 1831 4666 
L 2547 4666 
L 4325 0 
L 3669 0 
L 3244 1197 
L 1141 1197 
L 716 0 
L 50 0 
L 1831 4666 
z
" transform="scale(0.015625)"/>
       <path id="DejaVuSans-6d" d="M 3328 2828 
Q 3544 3216 3844 3400 
Q 4144 3584 4550 3584 
Q 5097 3584 5394 3201 
Q 5691 2819 5691 2113 
L 5691 0 
L 5113 0 
L 5113 2094 
Q 5113 2597 4934 2840 
Q 4756 3084 4391 3084 
Q 3944 3084 3684 2787 
Q 3425 2491 3425 1978 
L 3425 0 
L 2847 0 
L 2847 2094 
Q 2847 2600 2669 2842 
Q 2491 3084 2119 3084 
Q 1678 3084 1418 2786 
Q 1159 2488 1159 1978 
L 1159 0 
L 581 0 
L 581 3500 
L 1159 3500 
L 1159 2956 
Q 1356 3278 1631 3431 
Q 1906 3584 2284 3584 
Q 2666 3584 2933 3390 
Q 3200 3197 3328 2828 
z
" transform="scale(0.015625)"/>
       <path id="DejaVuSans-6f" d="M 1959 3097 
Q 1497 3097 1228 2736 
Q 959 2375 959 1747 
Q 959 1119 1226 758 
Q 1494 397 1959 397 
Q 2419 397 2687 759 
Q 2956 1122 2956 1747 
Q 2956 2369 2687 2733 
Q 2419 3097 1959 3097 
z
M 1959 3584 
Q 2709 3584 3137 3096 
Q 3566 2609 3566 1747 
Q 3566 888 3137 398 
Q 2709 -91 1959 -91 
Q 1206 -91 779 398 
Q 353 888 353 1747 
Q 353 2609 779 3096 
Q 1206 3584 1959 3584 
z
" transform="scale(0.015625)"/>
       <path id="DejaVuSans-73" d="M 2834 3397 
L 2834 2853 
Q 2591 2978 2328 3040 
Q 2066 3103 1784 3103 
Q 1356 3103 1142 2972 
Q 928 2841 928 2578 
Q 928 2378 1081 2264 
Q 1234 2150 1697 2047 
L 1894 2003 
Q 2506 1872 2764 1633 
Q 3022 1394 3022 966 
Q 3022 478 2636 193 
Q 2250 -91 1575 -91 
Q 1294 -91 989 -36 
Q 684 19 347 128 
L 347 722 
Q 666 556 975 473 
Q 1284 391 1588 391 
Q 1994 391 2212 530 
Q 2431 669 2431 922 
Q 2431 1156 2273 1281 
Q 2116 1406 1581 1522 
L 1381 1569 
Q 847 1681 609 1914 
Q 372 2147 372 2553 
Q 372 3047 722 3315 
Q 1072 3584 1716 3584 
Q 2034 3584 2315 3537 
Q 2597 3491 2834 3397 
z
" transform="scale(0.015625)"/>
       <path id="DejaVuSans-74" d="M 1172 4494 
L 1172 3500 
L 2356 3500 
L 2356 3053 
L 1172 3053 
L 1172 1153 
Q 1172 725 1289 603 
Q 1406 481 1766 481 
L 2356 481 
L 2356 0 
L 1766 0 
Q 1100 0 847 248 
Q 594 497 594 1153 
L 594 3053 
L 172 3053 
L 172 3500 
L 594 3500 
L 594 4494 
L 1172 4494 
z
" transform="scale(0.015625)"/>
       <path id="DejaVuSans-72" d="M 2631 2963 
Q 2534 3019 2420 3045 
Q 2306 3072 2169 3072 
Q 1681 3072 1420 2755 
Q 1159 2438 1159 1844 
L 1159 0 
L 581 0 
L 581 3500 
L 1159 3500 
L 1159 2956 
Q 1341 3275 1631 3429 
Q 1922 3584 2338 3584 
Q 2397 3584 2469 3576 
Q 2541 3569 2628 3553 
L 2631 2963 
z
" transform="scale(0.015625)"/>
       <path id="DejaVuSans-61" d="M 2194 1759 
Q 1497 1759 1228 1600 
Q 959 1441 959 1056 
Q 959 750 1161 570 
Q 1363 391 1709 391 
Q 2188 391 2477 730 
Q 2766 1069 2766 1631 
L 2766 1759 
L 2194 1759 
z
M 3341 1997 
L 3341 0 
L 2766 0 
L 2766 531 
Q 2569 213 2275 61 
Q 1981 -91 1556 -91 
Q 1019 -91 701 211 
Q 384 513 384 1019 
Q 384 1609 779 1909 
Q 1175 2209 1959 2209 
L 2766 2209 
L 2766 2266 
Q 2766 2663 2505 2880 
Q 2244 3097 1772 3097 
Q 1472 3097 1187 3025 
Q 903 2953 641 2809 
L 641 3341 
Q 956 3463 1253 3523 
Q 1550 3584 1831 3584 
Q 2591 3584 2966 3190 
Q 3341 2797 3341 1997 
z
" transform="scale(0.015625)"/>
      </defs>
      <use xlink:href="#DejaVuSans-41"/>
      <use xlink:href="#DejaVuSans-6d" x="68.408203"/>
      <use xlink:href="#DejaVuSans-6f" x="165.820312"/>
      <use xlink:href="#DejaVuSans-73" x="227.001953"/>
      <use xlink:href="#DejaVuSans-74" x="279.101562"/>
      <use xlink:href="#DejaVuSans-72" x="318.310547"/>
      <use xlink:href="#DejaVuSans-61" x="359.423828"/>
      <use xlink:href="#DejaVuSans-73" x="420.703125"/>
     </g>
    </g>
   </g>
   <g id="matplotlib.axis_2">
    <g id="ytick_1">
     <g id="line2d_9">
      <defs>
       <path id="md7fcd8823a" d="M 0 0 
L -3.5 0 
" style="stroke: #000000; stroke-width: 0.8"/>
      </defs>
      <g>
       <use xlink:href="#md7fcd8823a" x="180" y="295.145085" style="stroke: #000000; stroke-width: 0.8"/>
      </g>
     </g>
     <g id="text_10">
      <!-- 2 -->
      <g transform="translate(166.6375 298.944303) scale(0.1 -0.1)">
       <use xlink:href="#DejaVuSans-32"/>
      </g>
     </g>
    </g>
    <g id="ytick_2">
     <g id="line2d_10">
      <g>
       <use xlink:href="#md7fcd8823a" x="180" y="260.502732" style="stroke: #000000; stroke-width: 0.8"/>
      </g>
     </g>
     <g id="text_11">
      <!-- 4 -->
      <g transform="translate(166.6375 264.301951) scale(0.1 -0.1)">
       <defs>
        <path id="DejaVuSans-34" d="M 2419 4116 
L 825 1625 
L 2419 1625 
L 2419 4116 
z
M 2253 4666 
L 3047 4666 
L 3047 1625 
L 3713 1625 
L 3713 1100 
L 3047 1100 
L 3047 0 
L 2419 0 
L 2419 1100 
L 313 1100 
L 313 1709 
L 2253 4666 
z
" transform="scale(0.015625)"/>
       </defs>
       <use xlink:href="#DejaVuSans-34"/>
      </g>
     </g>
    </g>
    <g id="ytick_3">
     <g id="line2d_11">
      <g>
       <use xlink:href="#md7fcd8823a" x="180" y="225.86038" style="stroke: #000000; stroke-width: 0.8"/>
      </g>
     </g>
     <g id="text_12">
      <!-- 6 -->
      <g transform="translate(166.6375 229.659598) scale(0.1 -0.1)">
       <defs>
        <path id="DejaVuSans-36" d="M 2113 2584 
Q 1688 2584 1439 2293 
Q 1191 2003 1191 1497 
Q 1191 994 1439 701 
Q 1688 409 2113 409 
Q 2538 409 2786 701 
Q 3034 994 3034 1497 
Q 3034 2003 2786 2293 
Q 2538 2584 2113 2584 
z
M 3366 4563 
L 3366 3988 
Q 3128 4100 2886 4159 
Q 2644 4219 2406 4219 
Q 1781 4219 1451 3797 
Q 1122 3375 1075 2522 
Q 1259 2794 1537 2939 
Q 1816 3084 2150 3084 
Q 2853 3084 3261 2657 
Q 3669 2231 3669 1497 
Q 3669 778 3244 343 
Q 2819 -91 2113 -91 
Q 1303 -91 875 529 
Q 447 1150 447 2328 
Q 447 3434 972 4092 
Q 1497 4750 2381 4750 
Q 2619 4750 2861 4703 
Q 3103 4656 3366 4563 
z
" transform="scale(0.015625)"/>
       </defs>
       <use xlink:href="#DejaVuSans-36"/>
      </g>
     </g>
    </g>
    <g id="ytick_4">
     <g id="line2d_12">
      <g>
       <use xlink:href="#md7fcd8823a" x="180" y="191.218027" style="stroke: #000000; stroke-width: 0.8"/>
      </g>
     </g>
     <g id="text_13">
      <!-- 8 -->
      <g transform="translate(166.6375 195.017246) scale(0.1 -0.1)">
       <defs>
        <path id="DejaVuSans-38" d="M 2034 2216 
Q 1584 2216 1326 1975 
Q 1069 1734 1069 1313 
Q 1069 891 1326 650 
Q 1584 409 2034 409 
Q 2484 409 2743 651 
Q 3003 894 3003 1313 
Q 3003 1734 2745 1975 
Q 2488 2216 2034 2216 
z
M 1403 2484 
Q 997 2584 770 2862 
Q 544 3141 544 3541 
Q 544 4100 942 4425 
Q 1341 4750 2034 4750 
Q 2731 4750 3128 4425 
Q 3525 4100 3525 3541 
Q 3525 3141 3298 2862 
Q 3072 2584 2669 2484 
Q 3125 2378 3379 2068 
Q 3634 1759 3634 1313 
Q 3634 634 3220 271 
Q 2806 -91 2034 -91 
Q 1263 -91 848 271 
Q 434 634 434 1313 
Q 434 1759 690 2068 
Q 947 2378 1403 2484 
z
M 1172 3481 
Q 1172 3119 1398 2916 
Q 1625 2713 2034 2713 
Q 2441 2713 2670 2916 
Q 2900 3119 2900 3481 
Q 2900 3844 2670 4047 
Q 2441 4250 2034 4250 
Q 1625 4250 1398 4047 
Q 1172 3844 1172 3481 
z
" transform="scale(0.015625)"/>
       </defs>
       <use xlink:href="#DejaVuSans-38"/>
      </g>
     </g>
    </g>
    <g id="ytick_5">
     <g id="line2d_13">
      <g>
       <use xlink:href="#md7fcd8823a" x="180" y="156.575674" style="stroke: #000000; stroke-width: 0.8"/>
      </g>
     </g>
     <g id="text_14">
      <!-- 10 -->
      <g transform="translate(160.275 160.374893) scale(0.1 -0.1)">
       <use xlink:href="#DejaVuSans-31"/>
       <use xlink:href="#DejaVuSans-30" x="63.623047"/>
      </g>
     </g>
    </g>
    <g id="ytick_6">
     <g id="line2d_14">
      <g>
       <use xlink:href="#md7fcd8823a" x="180" y="121.933322" style="stroke: #000000; stroke-width: 0.8"/>
      </g>
     </g>
     <g id="text_15">
      <!-- 12 -->
      <g transform="translate(160.275 125.732541) scale(0.1 -0.1)">
       <use xlink:href="#DejaVuSans-31"/>
       <use xlink:href="#DejaVuSans-32" x="63.623047"/>
      </g>
     </g>
    </g>
    <g id="ytick_7">
     <g id="line2d_15">
      <g>
       <use xlink:href="#md7fcd8823a" x="180" y="87.290969" style="stroke: #000000; stroke-width: 0.8"/>
      </g>
     </g>
     <g id="text_16">
      <!-- 14 -->
      <g transform="translate(160.275 91.090188) scale(0.1 -0.1)">
       <use xlink:href="#DejaVuSans-31"/>
       <use xlink:href="#DejaVuSans-34" x="63.623047"/>
      </g>
     </g>
    </g>
    <g id="ytick_8">
     <g id="line2d_16">
      <g>
       <use xlink:href="#md7fcd8823a" x="180" y="52.648617" style="stroke: #000000; stroke-width: 0.8"/>
      </g>
     </g>
     <g id="text_17">
      <!-- 16 -->
      <g transform="translate(160.275 56.447836) scale(0.1 -0.1)">
       <use xlink:href="#DejaVuSans-31"/>
       <use xlink:href="#DejaVuSans-36" x="63.623047"/>
      </g>
     </g>
    </g>
    <g id="text_18">
     <!-- Velocidade do Vento (m/s) -->
     <g transform="translate(154.195312 247.344531) rotate(-90) scale(0.1 -0.1)">
      <defs>
       <path id="DejaVuSans-56" d="M 1831 0 
L 50 4666 
L 709 4666 
L 2188 738 
L 3669 4666 
L 4325 4666 
L 2547 0 
L 1831 0 
z
" transform="scale(0.015625)"/>
       <path id="DejaVuSans-65" d="M 3597 1894 
L 3597 1613 
L 953 1613 
Q 991 1019 1311 708 
Q 1631 397 2203 397 
Q 2534 397 2845 478 
Q 3156 559 3463 722 
L 3463 178 
Q 3153 47 2828 -22 
Q 2503 -91 2169 -91 
Q 1331 -91 842 396 
Q 353 884 353 1716 
Q 353 2575 817 3079 
Q 1281 3584 2069 3584 
Q 2775 3584 3186 3129 
Q 3597 2675 3597 1894 
z
M 3022 2063 
Q 3016 2534 2758 2815 
Q 2500 3097 2075 3097 
Q 1594 3097 1305 2825 
Q 1016 2553 972 2059 
L 3022 2063 
z
" transform="scale(0.015625)"/>
       <path id="DejaVuSans-6c" d="M 603 4863 
L 1178 4863 
L 1178 0 
L 603 0 
L 603 4863 
z
" transform="scale(0.015625)"/>
       <path id="DejaVuSans-63" d="M 3122 3366 
L 3122 2828 
Q 2878 2963 2633 3030 
Q 2388 3097 2138 3097 
Q 1578 3097 1268 2742 
Q 959 2388 959 1747 
Q 959 1106 1268 751 
Q 1578 397 2138 397 
Q 2388 397 2633 464 
Q 2878 531 3122 666 
L 3122 134 
Q 2881 22 2623 -34 
Q 2366 -91 2075 -91 
Q 1284 -91 818 406 
Q 353 903 353 1747 
Q 353 2603 823 3093 
Q 1294 3584 2113 3584 
Q 2378 3584 2631 3529 
Q 2884 3475 3122 3366 
z
" transform="scale(0.015625)"/>
       <path id="DejaVuSans-69" d="M 603 3500 
L 1178 3500 
L 1178 0 
L 603 0 
L 603 3500 
z
M 603 4863 
L 1178 4863 
L 1178 4134 
L 603 4134 
L 603 4863 
z
" transform="scale(0.015625)"/>
       <path id="DejaVuSans-64" d="M 2906 2969 
L 2906 4863 
L 3481 4863 
L 3481 0 
L 2906 0 
L 2906 525 
Q 2725 213 2448 61 
Q 2172 -91 1784 -91 
Q 1150 -91 751 415 
Q 353 922 353 1747 
Q 353 2572 751 3078 
Q 1150 3584 1784 3584 
Q 2172 3584 2448 3432 
Q 2725 3281 2906 2969 
z
M 947 1747 
Q 947 1113 1208 752 
Q 1469 391 1925 391 
Q 2381 391 2643 752 
Q 2906 1113 2906 1747 
Q 2906 2381 2643 2742 
Q 2381 3103 1925 3103 
Q 1469 3103 1208 2742 
Q 947 2381 947 1747 
z
" transform="scale(0.015625)"/>
       <path id="DejaVuSans-20" transform="scale(0.015625)"/>
       <path id="DejaVuSans-6e" d="M 3513 2113 
L 3513 0 
L 2938 0 
L 2938 2094 
Q 2938 2591 2744 2837 
Q 2550 3084 2163 3084 
Q 1697 3084 1428 2787 
Q 1159 2491 1159 1978 
L 1159 0 
L 581 0 
L 581 3500 
L 1159 3500 
L 1159 2956 
Q 1366 3272 1645 3428 
Q 1925 3584 2291 3584 
Q 2894 3584 3203 3211 
Q 3513 2838 3513 2113 
z
" transform="scale(0.015625)"/>
       <path id="DejaVuSans-28" d="M 1984 4856 
Q 1566 4138 1362 3434 
Q 1159 2731 1159 2009 
Q 1159 1288 1364 580 
Q 1569 -128 1984 -844 
L 1484 -844 
Q 1016 -109 783 600 
Q 550 1309 550 2009 
Q 550 2706 781 3412 
Q 1013 4119 1484 4856 
L 1984 4856 
z
" transform="scale(0.015625)"/>
       <path id="DejaVuSans-2f" d="M 1625 4666 
L 2156 4666 
L 531 -594 
L 0 -594 
L 1625 4666 
z
" transform="scale(0.015625)"/>
       <path id="DejaVuSans-29" d="M 513 4856 
L 1013 4856 
Q 1481 4119 1714 3412 
Q 1947 2706 1947 2009 
Q 1947 1309 1714 600 
Q 1481 -109 1013 -844 
L 513 -844 
Q 928 -128 1133 580 
Q 1338 1288 1338 2009 
Q 1338 2731 1133 3434 
Q 928 4138 513 4856 
z
" transform="scale(0.015625)"/>
      </defs>
      <use xlink:href="#DejaVuSans-56"/>
      <use xlink:href="#DejaVuSans-65" x="60.658203"/>
      <use xlink:href="#DejaVuSans-6c" x="122.181641"/>
      <use xlink:href="#DejaVuSans-6f" x="149.964844"/>
      <use xlink:href="#DejaVuSans-63" x="211.146484"/>
      <use xlink:href="#DejaVuSans-69" x="266.126953"/>
      <use xlink:href="#DejaVuSans-64" x="293.910156"/>
      <use xlink:href="#DejaVuSans-61" x="357.386719"/>
      <use xlink:href="#DejaVuSans-64" x="418.666016"/>
      <use xlink:href="#DejaVuSans-65" x="482.142578"/>
      <use xlink:href="#DejaVuSans-20" x="543.666016"/>
      <use xlink:href="#DejaVuSans-64" x="575.453125"/>
      <use xlink:href="#DejaVuSans-6f" x="638.929688"/>
      <use xlink:href="#DejaVuSans-20" x="700.111328"/>
      <use xlink:href="#DejaVuSans-56" x="731.898438"/>
      <use xlink:href="#DejaVuSans-65" x="792.556641"/>
      <use xlink:href="#DejaVuSans-6e" x="854.080078"/>
      <use xlink:href="#DejaVuSans-74" x="917.458984"/>
      <use xlink:href="#DejaVuSans-6f" x="956.667969"/>
      <use xlink:href="#DejaVuSans-20" x="1017.849609"/>
      <use xlink:href="#DejaVuSans-28" x="1049.636719"/>
      <use xlink:href="#DejaVuSans-6d" x="1088.650391"/>
      <use xlink:href="#DejaVuSans-2f" x="1186.0625"/>
      <use xlink:href="#DejaVuSans-73" x="1219.753906"/>
      <use xlink:href="#DejaVuSans-29" x="1271.853516"/>
     </g>
    </g>
   </g>
   <g id="line2d_17">
    <path d="M 230.727273 152.430192 
L 236.066986 156.255392 
L 241.406699 167.094243 
L 246.746411 171.070838 
L 252.086124 174.733245 
L 257.425837 172.50726 
L 262.76555 172.772154 
L 268.105263 168.062656 
L 273.444976 168.327633 
L 278.784689 171.591905 
L 284.124402 187.062386 
L 289.464115 196.375523 
L 294.803828 227.605694 
L 300.143541 216.281043 
L 305.483254 225.056808 
L 310.822967 240.071602 
L 316.162679 243.378195 
L 321.502392 248.433729 
L 326.842105 249.011621 
L 332.181818 238.075698 
L 337.521531 216.393461 
L 342.861244 204.251007 
L 348.200957 177.34952 
L 353.54067 157.691814 
L 358.880383 144.18216 
L 364.220096 135.892881 
L 369.559809 132.080367 
L 374.899522 131.542616 
L 380.239234 128.584287 
L 385.578947 137.174819 
L 390.91866 147.863663 
L 396.258373 167.237824 
L 401.598086 173.102761 
L 406.937799 175.320834 
L 412.277512 170.538075 
L 417.617225 160.619252 
L 422.956938 179.021549 
L 428.296651 196.24068 
L 433.636364 190.171993 
L 438.976077 186.27862 
L 449.655502 175.32617 
L 454.995215 191.463273 
L 460.334928 199.354789 
L 465.674641 186.061052 
L 471.014354 196.695747 
L 476.354067 180.284523 
L 481.69378 164.489829 
L 487.033493 134.521493 
L 492.373206 126.686199 
L 497.712919 126.90679 
L 503.052632 131.819074 
L 508.392344 131.555038 
L 513.732057 130.651957 
L 519.07177 135.542667 
L 524.411483 136.535857 
L 529.751196 147.468766 
L 535.090909 144.531978 
L 540.430622 161.072973 
L 545.770335 174.366776 
L 551.110048 191.525152 
L 556.449761 193.097127 
L 561.789474 196.280466 
L 567.129187 195.334643 
L 572.4689 210.274648 
L 577.808612 215.496236 
L 583.148325 241.782128 
L 588.488038 201.729212 
L 593.827751 184.306247 
L 599.167464 178.465246 
L 604.507177 147.817279 
L 609.84689 128.82295 
L 615.186603 123.328546 
L 620.526316 121.816997 
L 625.866029 114.093997 
L 631.205742 104.401003 
L 636.545455 115.675454 
L 641.885167 117.837892 
L 647.22488 132.53868 
L 652.564593 138.582911 
L 657.904306 148.641202 
L 663.244019 164.433996 
L 668.583732 159.285759 
L 673.923445 167.441996 
L 679.263158 174.098925 
L 684.602871 173.642016 
L 689.942584 173.973977 
L 695.282297 182.538112 
L 700.62201 175.149683 
L 705.961722 189.273257 
L 711.301435 208.882356 
L 716.641148 216.147563 
L 721.980861 193.981228 
L 727.320574 196.165809 
L 732.660287 147.078609 
L 738 124.631166 
L 743.339713 124.183689 
L 748.679426 123.339382 
L 754.019139 127.752848 
L 759.358852 112.259159 
L 764.698565 118.124046 
L 770.038278 121.964608 
L 775.37799 125.66159 
L 780.717703 152.785907 
L 786.057416 166.610458 
L 791.397129 165.054771 
L 796.736842 155.747308 
L 802.076555 161.124413 
L 807.416268 198.688339 
L 812.755981 196.057784 
L 818.095694 192.466771 
L 823.435407 259.199005 
L 828.77512 244.470118 
L 834.114833 218.150933 
L 839.454545 220.016694 
L 844.794258 234.388644 
L 850.133971 221.823954 
L 855.473684 189.746024 
L 860.813397 177.23592 
L 866.15311 160.619484 
L 871.492823 138.194968 
L 876.832536 126.777812 
L 882.172249 133.96458 
L 887.511962 133.160876 
L 892.851675 137.199168 
L 898.191388 134.923576 
L 903.5311 148.033295 
L 908.870813 160.77623 
L 914.210526 153.161428 
L 919.550239 160.544703 
L 924.889952 166.647791 
L 930.229665 163.665626 
L 935.569378 164.428264 
L 940.909091 151.753584 
L 946.248804 169.033017 
L 951.588517 178.091625 
L 956.92823 170.046625 
L 962.267943 177.875526 
L 967.607656 196.581388 
L 972.947368 213.076973 
L 978.287081 201.100285 
L 983.626794 179.840103 
L 988.966507 151.673237 
L 994.30622 128.355684 
L 999.645933 121.068813 
L 1004.985646 128.961295 
L 1010.325359 128.764408 
L 1015.665072 128.099362 
L 1021.004785 130.663272 
L 1026.344498 136.121021 
L 1031.684211 152.961469 
L 1037.023923 162.4623 
L 1042.363636 156.835201 
L 1047.703349 173.199363 
L 1053.043062 180.703885 
L 1058.382775 165.819309 
L 1063.722488 194.744915 
L 1069.062201 196.722755 
L 1074.401914 208.784251 
L 1079.741627 234.483313 
L 1085.08134 229.451566 
L 1090.421053 231.803706 
L 1095.760766 232.044764 
L 1101.100478 197.891879 
L 1106.440191 214.681242 
L 1111.779904 218.192528 
L 1117.119617 186.87802 
L 1122.45933 175.931632 
L 1133.138756 135.395897 
L 1138.478469 127.367267 
L 1143.818182 123.829643 
L 1149.157895 128.428267 
L 1154.497608 136.581597 
L 1159.837321 142.797194 
L 1165.177033 135.455695 
L 1170.516746 142.249217 
L 1175.856459 160.491149 
L 1181.196172 171.222744 
L 1186.535885 163.457688 
L 1191.875598 146.210218 
L 1197.215311 156.504743 
L 1202.555024 171.236653 
L 1207.894737 175.866911 
L 1213.23445 194.14046 
L 1218.574163 203.21405 
L 1223.913876 221.341309 
L 1229.253589 224.638066 
L 1234.593301 212.930014 
L 1239.933014 171.660078 
L 1245.272727 150.596924 
L 1245.272727 150.596924 
" clip-path="url(#p0d8fb9861d)" style="fill: none; stroke: #0000ff; stroke-width: 1.5; stroke-linecap: square"/>
   </g>
   <g id="line2d_18">
    <path d="M 230.727273 169.249001 
L 236.066986 178.496585 
L 241.406699 162.426383 
L 246.746411 180.469275 
L 252.086124 178.015442 
L 257.425837 174.454977 
L 262.76555 168.325205 
L 268.105263 163.359801 
L 273.444976 170.904136 
L 278.784689 195.326995 
L 284.124402 205.729323 
L 289.464115 225.465842 
L 294.803828 214.48614 
L 300.143541 225.898871 
L 305.483254 241.372455 
L 310.822967 244.549677 
L 316.162679 253.574262 
L 321.502392 263.620544 
L 326.842105 261.984655 
L 332.181818 248.156582 
L 337.521531 237.13839 
L 342.861244 192.853916 
L 348.200957 154.939786 
L 353.54067 129.265953 
L 358.880383 105.179895 
L 364.220096 107.239191 
L 369.559809 107.903169 
L 374.899522 105.911234 
L 380.239234 133.028498 
L 385.578947 151.446682 
L 390.91866 180.180588 
L 396.258373 184.405031 
L 401.598086 185.732987 
L 406.937799 175.118956 
L 412.277512 155.699993 
L 417.617225 175.619346 
L 422.956938 192.247673 
L 428.296651 189.870824 
L 433.636364 187.683705 
L 438.976077 183.653267 
L 444.315789 179.420532 
L 449.655502 201.196949 
L 454.995215 211.503049 
L 460.334928 205.767815 
L 465.674641 212.17665 
L 471.014354 210.213583 
L 476.354067 189.024011 
L 481.69378 129.342936 
L 487.033493 91.861835 
L 492.373206 89.109693 
L 497.712919 106.584834 
L 503.052632 122.231631 
L 508.392344 112.58951 
L 513.732057 107.73958 
L 519.07177 118.825132 
L 524.411483 146.72185 
L 529.751196 132.364519 
L 535.090909 157.441733 
L 540.430622 170.875268 
L 545.770335 185.367319 
L 551.110048 190.015167 
L 556.449761 195.086422 
L 561.789474 194.87472 
L 567.129187 208.202403 
L 572.4689 214.399535 
L 577.808612 246.655414 
L 583.148325 214.649729 
L 588.488038 206.066124 
L 593.827751 203.747011 
L 599.167464 165.900241 
L 604.507177 129.400674 
L 609.84689 102.880028 
L 615.186603 64.532867 
L 620.526316 78.293581 
L 625.866029 90.322176 
L 631.205742 108.586394 
L 636.545455 104.910455 
L 641.885167 139.456578 
L 647.22488 137.445397 
L 652.564593 140.909633 
L 657.904306 159.424045 
L 663.244019 148.097921 
L 668.583732 157.43211 
L 673.923445 168.094257 
L 679.263158 167.526507 
L 684.602871 168.565778 
L 689.942584 178.775649 
L 695.282297 174.753287 
L 700.62201 192.651835 
L 705.961722 214.322551 
L 711.301435 228.141001 
L 716.641148 213.725933 
L 721.980861 217.1613 
L 727.320574 164.52417 
L 732.660287 124.175451 
L 738 115.755435 
L 743.339713 103.313057 
L 748.679426 82.527646 
L 754.019139 88.339864 
L 759.358852 96.416272 
L 764.698565 104.284968 
L 770.038278 113.888598 
L 775.37799 163.196213 
L 780.717703 176.389176 
L 786.057416 161.454472 
L 791.397129 137.628231 
L 796.736842 145.74994 
L 802.076555 191.593319 
L 807.416268 241.969073 
L 812.755981 246.963346 
L 818.095694 252.236682 
L 823.435407 242.046057 
L 828.77512 221.202907 
L 834.114833 225.109796 
L 839.454545 244.875182 
L 844.794258 242.17581 
L 850.133971 225.690171 
L 855.473684 210.232829 
L 860.813397 168.334828 
L 866.15311 113.19575 
L 871.492823 89.994998 
L 876.832536 106.353886 
L 882.172249 99.925805 
L 887.511962 99.579382 
L 892.851675 120.027992 
L 898.191388 151.148373 
L 903.5311 169.431836 
L 908.870813 152.534067 
L 914.210526 166.660448 
L 919.550239 169.422214 
L 924.889952 156.32548 
L 930.229665 160.636529 
L 935.569378 150.580623 
L 940.909091 170.75017 
L 946.248804 182.663291 
L 951.588517 178.304127 
L 956.92823 191.96861 
L 962.267943 210.511893 
L 967.607656 232.317329 
L 972.947368 229.969347 
L 978.287081 212.320993 
L 983.626794 172.626631 
L 988.966507 133.865687 
L 994.30622 111.598353 
L 999.645933 139.966591 
L 1004.985646 124.377531 
L 1010.325359 122.222008 
L 1015.665072 135.607428 
L 1021.004785 142.516652 
L 1026.344498 168.286715 
L 1031.684211 183.66407 
L 1037.023923 174.002703 
L 1042.363636 194.922833 
L 1047.703349 200.292399 
L 1053.043062 174.618566 
L 1058.382775 195.288504 
L 1063.722488 195.731156 
L 1069.062201 211.435689 
L 1074.401914 238.755033 
L 1079.741627 237.811991 
L 1085.08134 244.836691 
L 1090.421053 241.401324 
L 1095.760766 212.792514 
L 1101.100478 239.428634 
L 1106.440191 256.759433 
L 1111.779904 227.274942 
L 1117.119617 211.97457 
L 1122.45933 180.892681 
L 1127.799043 134.597026 
L 1133.138756 117.74737 
L 1138.478469 112.012137 
L 1143.818182 117.756993 
L 1149.157895 116.949854 
L 1154.497608 134.622543 
L 1159.837321 136.540847 
L 1165.177033 147.818858 
L 1170.516746 175.985015 
L 1175.856459 189.59176 
L 1181.196172 155.796221 
L 1186.535885 140.466981 
L 1191.875598 152.168398 
L 1197.215311 170.942628 
L 1202.555024 180.382669 
L 1207.894737 201.389407 
L 1213.23445 213.061955 
L 1218.574163 233.76076 
L 1223.913876 241.103015 
L 1229.253589 239.419011 
L 1234.593301 202.120745 
L 1239.933014 149.637581 
L 1245.272727 114.995228 
L 1245.272727 114.995228 
" clip-path="url(#p0d8fb9861d)" style="fill: none; stroke: #ffa500; stroke-width: 1.5; stroke-linecap: square"/>
   </g>
   <g id="patch_3">
    <path d="M 180 320.4 
L 180 43.2 
" style="fill: none; stroke: #000000; stroke-width: 0.8; stroke-linejoin: miter; stroke-linecap: square"/>
   </g>
   <g id="patch_4">
    <path d="M 1296 320.4 
L 1296 43.2 
" style="fill: none; stroke: #000000; stroke-width: 0.8; stroke-linejoin: miter; stroke-linecap: square"/>
   </g>
   <g id="patch_5">
    <path d="M 180 320.4 
L 1296 320.4 
" style="fill: none; stroke: #000000; stroke-width: 0.8; stroke-linejoin: miter; stroke-linecap: square"/>
   </g>
   <g id="patch_6">
    <path d="M 180 43.2 
L 1296 43.2 
" style="fill: none; stroke: #000000; stroke-width: 0.8; stroke-linejoin: miter; stroke-linecap: square"/>
   </g>
   <g id="text_19">
    <!-- Previsão do vento para 1 hora(s) à frente com 1 camadas -->
    <g transform="translate(564.882187 37.2) scale(0.12 -0.12)">
     <defs>
      <path id="DejaVuSans-50" d="M 1259 4147 
L 1259 2394 
L 2053 2394 
Q 2494 2394 2734 2622 
Q 2975 2850 2975 3272 
Q 2975 3691 2734 3919 
Q 2494 4147 2053 4147 
L 1259 4147 
z
M 628 4666 
L 2053 4666 
Q 2838 4666 3239 4311 
Q 3641 3956 3641 3272 
Q 3641 2581 3239 2228 
Q 2838 1875 2053 1875 
L 1259 1875 
L 1259 0 
L 628 0 
L 628 4666 
z
" transform="scale(0.015625)"/>
      <path id="DejaVuSans-76" d="M 191 3500 
L 800 3500 
L 1894 563 
L 2988 3500 
L 3597 3500 
L 2284 0 
L 1503 0 
L 191 3500 
z
" transform="scale(0.015625)"/>
      <path id="DejaVuSans-e3" d="M 2194 1759 
Q 1497 1759 1228 1600 
Q 959 1441 959 1056 
Q 959 750 1161 570 
Q 1363 391 1709 391 
Q 2188 391 2477 730 
Q 2766 1069 2766 1631 
L 2766 1759 
L 2194 1759 
z
M 3341 1997 
L 3341 0 
L 2766 0 
L 2766 531 
Q 2569 213 2275 61 
Q 1981 -91 1556 -91 
Q 1019 -91 701 211 
Q 384 513 384 1019 
Q 384 1609 779 1909 
Q 1175 2209 1959 2209 
L 2766 2209 
L 2766 2266 
Q 2766 2663 2505 2880 
Q 2244 3097 1772 3097 
Q 1472 3097 1187 3025 
Q 903 2953 641 2809 
L 641 3341 
Q 956 3463 1253 3523 
Q 1550 3584 1831 3584 
Q 2591 3584 2966 3190 
Q 3341 2797 3341 1997 
z
M 1844 4281 
L 1666 4453 
Q 1597 4516 1545 4545 
Q 1494 4575 1453 4575 
Q 1334 4575 1278 4461 
Q 1222 4347 1216 4091 
L 825 4091 
Q 831 4513 990 4742 
Q 1150 4972 1434 4972 
Q 1553 4972 1653 4928 
Q 1753 4884 1869 4781 
L 2047 4609 
Q 2116 4547 2167 4517 
Q 2219 4488 2259 4488 
Q 2378 4488 2434 4602 
Q 2491 4716 2497 4972 
L 2888 4972 
Q 2881 4550 2722 4320 
Q 2563 4091 2278 4091 
Q 2159 4091 2059 4134 
Q 1959 4178 1844 4281 
z
" transform="scale(0.015625)"/>
      <path id="DejaVuSans-70" d="M 1159 525 
L 1159 -1331 
L 581 -1331 
L 581 3500 
L 1159 3500 
L 1159 2969 
Q 1341 3281 1617 3432 
Q 1894 3584 2278 3584 
Q 2916 3584 3314 3078 
Q 3713 2572 3713 1747 
Q 3713 922 3314 415 
Q 2916 -91 2278 -91 
Q 1894 -91 1617 61 
Q 1341 213 1159 525 
z
M 3116 1747 
Q 3116 2381 2855 2742 
Q 2594 3103 2138 3103 
Q 1681 3103 1420 2742 
Q 1159 2381 1159 1747 
Q 1159 1113 1420 752 
Q 1681 391 2138 391 
Q 2594 391 2855 752 
Q 3116 1113 3116 1747 
z
" transform="scale(0.015625)"/>
      <path id="DejaVuSans-68" d="M 3513 2113 
L 3513 0 
L 2938 0 
L 2938 2094 
Q 2938 2591 2744 2837 
Q 2550 3084 2163 3084 
Q 1697 3084 1428 2787 
Q 1159 2491 1159 1978 
L 1159 0 
L 581 0 
L 581 4863 
L 1159 4863 
L 1159 2956 
Q 1366 3272 1645 3428 
Q 1925 3584 2291 3584 
Q 2894 3584 3203 3211 
Q 3513 2838 3513 2113 
z
" transform="scale(0.015625)"/>
      <path id="DejaVuSans-e0" d="M 2194 1759 
Q 1497 1759 1228 1600 
Q 959 1441 959 1056 
Q 959 750 1161 570 
Q 1363 391 1709 391 
Q 2188 391 2477 730 
Q 2766 1069 2766 1631 
L 2766 1759 
L 2194 1759 
z
M 3341 1997 
L 3341 0 
L 2766 0 
L 2766 531 
Q 2569 213 2275 61 
Q 1981 -91 1556 -91 
Q 1019 -91 701 211 
Q 384 513 384 1019 
Q 384 1609 779 1909 
Q 1175 2209 1959 2209 
L 2766 2209 
L 2766 2266 
Q 2766 2663 2505 2880 
Q 2244 3097 1772 3097 
Q 1472 3097 1187 3025 
Q 903 2953 641 2809 
L 641 3341 
Q 956 3463 1253 3523 
Q 1550 3584 1831 3584 
Q 2591 3584 2966 3190 
Q 3341 2797 3341 1997 
z
M 1403 5119 
L 2284 3950 
L 1806 3950 
L 788 5119 
L 1403 5119 
z
" transform="scale(0.015625)"/>
      <path id="DejaVuSans-66" d="M 2375 4863 
L 2375 4384 
L 1825 4384 
Q 1516 4384 1395 4259 
Q 1275 4134 1275 3809 
L 1275 3500 
L 2222 3500 
L 2222 3053 
L 1275 3053 
L 1275 0 
L 697 0 
L 697 3053 
L 147 3053 
L 147 3500 
L 697 3500 
L 697 3744 
Q 697 4328 969 4595 
Q 1241 4863 1831 4863 
L 2375 4863 
z
" transform="scale(0.015625)"/>
     </defs>
     <use xlink:href="#DejaVuSans-50"/>
     <use xlink:href="#DejaVuSans-72" x="58.552734"/>
     <use xlink:href="#DejaVuSans-65" x="97.416016"/>
     <use xlink:href="#DejaVuSans-76" x="158.939453"/>
     <use xlink:href="#DejaVuSans-69" x="218.119141"/>
     <use xlink:href="#DejaVuSans-73" x="245.902344"/>
     <use xlink:href="#DejaVuSans-e3" x="298.001953"/>
     <use xlink:href="#DejaVuSans-6f" x="359.28125"/>
     <use xlink:href="#DejaVuSans-20" x="420.462891"/>
     <use xlink:href="#DejaVuSans-64" x="452.25"/>
     <use xlink:href="#DejaVuSans-6f" x="515.726562"/>
     <use xlink:href="#DejaVuSans-20" x="576.908203"/>
     <use xlink:href="#DejaVuSans-76" x="608.695312"/>
     <use xlink:href="#DejaVuSans-65" x="667.875"/>
     <use xlink:href="#DejaVuSans-6e" x="729.398438"/>
     <use xlink:href="#DejaVuSans-74" x="792.777344"/>
     <use xlink:href="#DejaVuSans-6f" x="831.986328"/>
     <use xlink:href="#DejaVuSans-20" x="893.167969"/>
     <use xlink:href="#DejaVuSans-70" x="924.955078"/>
     <use xlink:href="#DejaVuSans-61" x="988.431641"/>
     <use xlink:href="#DejaVuSans-72" x="1049.710938"/>
     <use xlink:href="#DejaVuSans-61" x="1090.824219"/>
     <use xlink:href="#DejaVuSans-20" x="1152.103516"/>
     <use xlink:href="#DejaVuSans-31" x="1183.890625"/>
     <use xlink:href="#DejaVuSans-20" x="1247.513672"/>
     <use xlink:href="#DejaVuSans-68" x="1279.300781"/>
     <use xlink:href="#DejaVuSans-6f" x="1342.679688"/>
     <use xlink:href="#DejaVuSans-72" x="1403.861328"/>
     <use xlink:href="#DejaVuSans-61" x="1444.974609"/>
     <use xlink:href="#DejaVuSans-28" x="1506.253906"/>
     <use xlink:href="#DejaVuSans-73" x="1545.267578"/>
     <use xlink:href="#DejaVuSans-29" x="1597.367188"/>
     <use xlink:href="#DejaVuSans-20" x="1636.380859"/>
     <use xlink:href="#DejaVuSans-e0" x="1668.167969"/>
     <use xlink:href="#DejaVuSans-20" x="1729.447266"/>
     <use xlink:href="#DejaVuSans-66" x="1761.234375"/>
     <use xlink:href="#DejaVuSans-72" x="1796.439453"/>
     <use xlink:href="#DejaVuSans-65" x="1835.302734"/>
     <use xlink:href="#DejaVuSans-6e" x="1896.826172"/>
     <use xlink:href="#DejaVuSans-74" x="1960.205078"/>
     <use xlink:href="#DejaVuSans-65" x="1999.414062"/>
     <use xlink:href="#DejaVuSans-20" x="2060.9375"/>
     <use xlink:href="#DejaVuSans-63" x="2092.724609"/>
     <use xlink:href="#DejaVuSans-6f" x="2147.705078"/>
     <use xlink:href="#DejaVuSans-6d" x="2208.886719"/>
     <use xlink:href="#DejaVuSans-20" x="2306.298828"/>
     <use xlink:href="#DejaVuSans-31" x="2338.085938"/>
     <use xlink:href="#DejaVuSans-20" x="2401.708984"/>
     <use xlink:href="#DejaVuSans-63" x="2433.496094"/>
     <use xlink:href="#DejaVuSans-61" x="2488.476562"/>
     <use xlink:href="#DejaVuSans-6d" x="2549.755859"/>
     <use xlink:href="#DejaVuSans-61" x="2647.167969"/>
     <use xlink:href="#DejaVuSans-64" x="2708.447266"/>
     <use xlink:href="#DejaVuSans-61" x="2771.923828"/>
     <use xlink:href="#DejaVuSans-73" x="2833.203125"/>
    </g>
   </g>
   <g id="legend_1">
    <g id="patch_7">
     <path d="M 1217.86875 80.55625 
L 1289 80.55625 
Q 1291 80.55625 1291 78.55625 
L 1291 50.2 
Q 1291 48.2 1289 48.2 
L 1217.86875 48.2 
Q 1215.86875 48.2 1215.86875 50.2 
L 1215.86875 78.55625 
Q 1215.86875 80.55625 1217.86875 80.55625 
z
" style="fill: #ffffff; opacity: 0.8; stroke: #cccccc; stroke-linejoin: miter"/>
    </g>
    <g id="line2d_19">
     <path d="M 1219.86875 56.298437 
L 1229.86875 56.298437 
L 1239.86875 56.298437 
" style="fill: none; stroke: #0000ff; stroke-width: 1.5; stroke-linecap: square"/>
    </g>
    <g id="text_20">
     <!-- Predito -->
     <g transform="translate(1247.86875 59.798437) scale(0.1 -0.1)">
      <use xlink:href="#DejaVuSans-50"/>
      <use xlink:href="#DejaVuSans-72" x="58.552734"/>
      <use xlink:href="#DejaVuSans-65" x="97.416016"/>
      <use xlink:href="#DejaVuSans-64" x="158.939453"/>
      <use xlink:href="#DejaVuSans-69" x="222.416016"/>
      <use xlink:href="#DejaVuSans-74" x="250.199219"/>
      <use xlink:href="#DejaVuSans-6f" x="289.408203"/>
     </g>
    </g>
    <g id="line2d_20">
     <path d="M 1219.86875 70.976562 
L 1229.86875 70.976562 
L 1239.86875 70.976562 
" style="fill: none; stroke: #ffa500; stroke-width: 1.5; stroke-linecap: square"/>
    </g>
    <g id="text_21">
     <!-- Original -->
     <g transform="translate(1247.86875 74.476562) scale(0.1 -0.1)">
      <defs>
       <path id="DejaVuSans-4f" d="M 2522 4238 
Q 1834 4238 1429 3725 
Q 1025 3213 1025 2328 
Q 1025 1447 1429 934 
Q 1834 422 2522 422 
Q 3209 422 3611 934 
Q 4013 1447 4013 2328 
Q 4013 3213 3611 3725 
Q 3209 4238 2522 4238 
z
M 2522 4750 
Q 3503 4750 4090 4092 
Q 4678 3434 4678 2328 
Q 4678 1225 4090 567 
Q 3503 -91 2522 -91 
Q 1538 -91 948 565 
Q 359 1222 359 2328 
Q 359 3434 948 4092 
Q 1538 4750 2522 4750 
z
" transform="scale(0.015625)"/>
       <path id="DejaVuSans-67" d="M 2906 1791 
Q 2906 2416 2648 2759 
Q 2391 3103 1925 3103 
Q 1463 3103 1205 2759 
Q 947 2416 947 1791 
Q 947 1169 1205 825 
Q 1463 481 1925 481 
Q 2391 481 2648 825 
Q 2906 1169 2906 1791 
z
M 3481 434 
Q 3481 -459 3084 -895 
Q 2688 -1331 1869 -1331 
Q 1566 -1331 1297 -1286 
Q 1028 -1241 775 -1147 
L 775 -588 
Q 1028 -725 1275 -790 
Q 1522 -856 1778 -856 
Q 2344 -856 2625 -561 
Q 2906 -266 2906 331 
L 2906 616 
Q 2728 306 2450 153 
Q 2172 0 1784 0 
Q 1141 0 747 490 
Q 353 981 353 1791 
Q 353 2603 747 3093 
Q 1141 3584 1784 3584 
Q 2172 3584 2450 3431 
Q 2728 3278 2906 2969 
L 2906 3500 
L 3481 3500 
L 3481 434 
z
" transform="scale(0.015625)"/>
      </defs>
      <use xlink:href="#DejaVuSans-4f"/>
      <use xlink:href="#DejaVuSans-72" x="78.710938"/>
      <use xlink:href="#DejaVuSans-69" x="119.824219"/>
      <use xlink:href="#DejaVuSans-67" x="147.607422"/>
      <use xlink:href="#DejaVuSans-69" x="211.083984"/>
      <use xlink:href="#DejaVuSans-6e" x="238.867188"/>
      <use xlink:href="#DejaVuSans-61" x="302.246094"/>
      <use xlink:href="#DejaVuSans-6c" x="363.525391"/>
     </g>
    </g>
   </g>
  </g>
 </g>
 <defs>
  <clipPath id="p0d8fb9861d">
   <rect x="180" y="43.2" width="1116" height="277.2"/>
  </clipPath>
 </defs>
</svg>
