<?xml version="1.0" encoding="utf-8" standalone="no"?>
<!DOCTYPE svg PUBLIC "-//W3C//DTD SVG 1.1//EN"
  "http://www.w3.org/Graphics/SVG/1.1/DTD/svg11.dtd">
<svg xmlns:xlink="http://www.w3.org/1999/xlink" width="1440pt" height="360pt" viewBox="0 0 1440 360" xmlns="http://www.w3.org/2000/svg" version="1.1">
 <metadata>
  <rdf:RDF xmlns:dc="http://purl.org/dc/elements/1.1/" xmlns:cc="http://creativecommons.org/ns#" xmlns:rdf="http://www.w3.org/1999/02/22-rdf-syntax-ns#">
   <cc:Work>
    <dc:type rdf:resource="http://purl.org/dc/dcmitype/StillImage"/>
    <dc:date>2023-08-21T14:36:27.085050</dc:date>
    <dc:format>image/svg+xml</dc:format>
    <dc:creator>
     <cc:Agent>
      <dc:title>Matplotlib v3.7.1, https://matplotlib.org/</dc:title>
     </cc:Agent>
    </dc:creator>
   </cc:Work>
  </rdf:RDF>
 </metadata>
 <defs>
  <style type="text/css">*{stroke-linejoin: round; stroke-linecap: butt}</style>
 </defs>
 <g id="figure_1">
  <g id="patch_1">
   <path d="M 0 360 
L 1440 360 
L 1440 0 
L 0 0 
z
" style="fill: #ffffff"/>
  </g>
  <g id="axes_1">
   <g id="patch_2">
    <path d="M 180 320.4 
L 1296 320.4 
L 1296 43.2 
L 180 43.2 
z
" style="fill: #ffffff"/>
   </g>
   <g id="PolyCollection_1">
    <defs>
     <path id="m172d999639" d="M 230.727273 -254.043145 
L 230.727273 -166.276738 
L 236.066986 -161.241714 
L 241.406699 -152.019405 
L 246.746411 -153.790401 
L 252.086124 -146.475484 
L 257.425837 -149.033463 
L 262.76555 -149.859713 
L 268.105263 -153.808846 
L 273.444976 -153.852781 
L 278.784689 -149.447572 
L 284.124402 -141.508775 
L 289.464115 -140.555641 
L 294.803828 -92.231443 
L 300.143541 -101.923501 
L 305.483254 -94.844579 
L 310.822967 -83.346361 
L 316.162679 -82.746877 
L 321.502392 -78.337271 
L 326.842105 -74.177022 
L 332.181818 -77.23566 
L 337.521531 -89.434235 
L 342.861244 -99.973674 
L 348.200957 -135.096114 
L 353.54067 -165.342144 
L 358.880383 -185.956457 
L 364.220096 -200.452691 
L 369.559809 -199.690946 
L 374.899522 -196.611949 
L 380.239234 -200.178055 
L 385.578947 -181.092213 
L 390.91866 -165.663822 
L 396.258373 -147.280351 
L 401.598086 -144.511116 
L 406.937799 -143.747185 
L 412.277512 -145.750208 
L 417.617225 -146.861698 
L 422.956938 -135.895281 
L 428.296651 -116.325727 
L 433.636364 -121.985295 
L 438.976077 -124.168119 
L 444.315789 -128.241747 
L 449.655502 -131.999695 
L 454.995215 -122.138903 
L 460.334928 -118.205825 
L 465.674641 -136.546329 
L 471.014354 -141.469385 
L 476.354067 -136.306109 
L 481.69378 -152.654703 
L 487.033493 -198.794726 
L 492.373206 -215.265011 
L 497.712919 -207.567254 
L 503.052632 -190.93285 
L 508.392344 -183.316402 
L 513.732057 -182.296414 
L 519.07177 -173.544394 
L 524.411483 -165.112505 
L 529.751196 -152.956811 
L 535.090909 -153.973621 
L 540.430622 -145.669726 
L 545.770335 -143.816827 
L 551.110048 -120.662909 
L 556.449761 -117.338304 
L 561.789474 -113.724117 
L 567.129187 -112.595916 
L 572.4689 -96.786714 
L 577.808612 -94.529344 
L 583.148325 -81.876919 
L 588.488038 -112.874776 
L 593.827751 -134.663818 
L 599.167464 -140.356693 
L 604.507177 -173.14014 
L 609.84689 -198.906586 
L 615.186603 -209.851582 
L 620.526316 -216.433586 
L 625.866029 -212.464773 
L 631.205742 -208.91694 
L 636.545455 -204.768796 
L 641.885167 -194.666948 
L 647.22488 -177.778268 
L 652.564593 -166.771188 
L 657.904306 -154.226812 
L 663.244019 -145.34141 
L 668.583732 -144.454108 
L 673.923445 -142.504828 
L 679.263158 -132.864545 
L 684.602871 -128.689217 
L 689.942584 -126.034012 
L 695.282297 -116.394323 
L 700.62201 -123.602324 
L 705.961722 -113.853883 
L 711.301435 -100.926893 
L 716.641148 -104.630169 
L 721.980861 -128.211861 
L 727.320574 -134.699787 
L 732.660287 -168.462639 
L 738 -197.837657 
L 743.339713 -202.0022 
L 748.679426 -202.986134 
L 754.019139 -199.319601 
L 759.358852 -202.032094 
L 764.698565 -190.617107 
L 770.038278 -185.267214 
L 775.37799 -174.318258 
L 780.717703 -152.06801 
L 786.057416 -144.119045 
L 791.397129 -143.724382 
L 796.736842 -141.219505 
L 802.076555 -138.225035 
L 807.416268 -104.721209 
L 812.755981 -166.629653 
L 818.095694 -164.292566 
L 823.435407 -52.2 
L 828.77512 -66.601531 
L 834.114833 -94.873903 
L 839.454545 -97.943435 
L 844.794258 -98.324221 
L 850.133971 -110.837196 
L 855.473684 -117.908543 
L 860.813397 -125.1825 
L 866.15311 -148.148833 
L 871.492823 -179.084301 
L 876.832536 -194.762221 
L 882.172249 -179.338835 
L 887.511962 -177.708609 
L 892.851675 -169.846546 
L 898.191388 -164.335626 
L 903.5311 -151.891115 
L 908.870813 -144.435163 
L 914.210526 -147.46215 
L 919.550239 -142.815901 
L 924.889952 -140.29525 
L 930.229665 -136.855302 
L 935.569378 -135.837063 
L 940.909091 -145.813994 
L 946.248804 -128.575592 
L 951.588517 -122.222829 
L 956.92823 -130.201266 
L 962.267943 -126.622236 
L 967.607656 -110.736801 
L 972.947368 -104.118702 
L 978.287081 -113.830502 
L 983.626794 -123.299997 
L 988.966507 -152.31561 
L 994.30622 -177.437301 
L 999.645933 -181.137913 
L 1004.985646 -173.646617 
L 1010.325359 -176.260713 
L 1015.665072 -169.595572 
L 1021.004785 -163.266322 
L 1026.344498 -154.717248 
L 1031.684211 -143.928984 
L 1037.023923 -140.640168 
L 1042.363636 -142.896571 
L 1047.703349 -137.766773 
L 1053.043062 -137.982722 
L 1058.382775 -135.796681 
L 1063.722488 -113.073833 
L 1069.062201 -105.063136 
L 1074.401914 -95.774176 
L 1079.741627 -77.517066 
L 1085.08134 -89.056541 
L 1090.421053 -88.874547 
L 1095.760766 -83.971584 
L 1101.100478 -109.168681 
L 1106.440191 -106.104452 
L 1111.779904 -98.44318 
L 1117.119617 -113.728974 
L 1122.45933 -124.865593 
L 1127.799043 -145.37955 
L 1133.138756 -163.665843 
L 1138.478469 -168.890507 
L 1143.818182 -169.514997 
L 1149.157895 -162.486335 
L 1154.497608 -158.09965 
L 1159.837321 -153.366062 
L 1165.177033 -142.087408 
L 1170.516746 -141.284853 
L 1175.856459 -137.904927 
L 1181.196172 -137.410063 
L 1186.535885 -135.124532 
L 1191.875598 -156.397516 
L 1197.215311 -142.138137 
L 1202.555024 -125.703463 
L 1207.894737 -121.230016 
L 1213.23445 -105.469209 
L 1218.574163 -99.50779 
L 1223.913876 -90.543257 
L 1229.253589 -98.271259 
L 1234.593301 -109.332777 
L 1239.933014 -127.960505 
L 1245.272727 -149.436077 
L 1245.272727 -237.202483 
L 1245.272727 -237.202483 
L 1239.933014 -215.726912 
L 1234.593301 -197.099183 
L 1229.253589 -186.037658 
L 1223.913876 -178.309655 
L 1218.574163 -187.274189 
L 1213.23445 -193.235608 
L 1207.894737 -208.996407 
L 1202.555024 -213.469853 
L 1197.215311 -229.904528 
L 1191.875598 -244.163923 
L 1186.535885 -222.890923 
L 1181.196172 -225.176469 
L 1175.856459 -225.671325 
L 1170.516746 -229.051259 
L 1165.177033 -229.853799 
L 1159.837321 -241.132469 
L 1154.497608 -245.866056 
L 1149.157895 -250.252726 
L 1143.818182 -257.281387 
L 1138.478469 -256.656898 
L 1133.138756 -251.432234 
L 1127.799043 -233.145957 
L 1122.45933 -212.631984 
L 1117.119617 -201.495381 
L 1111.779904 -186.20957 
L 1106.440191 -193.870843 
L 1101.100478 -196.93508 
L 1095.760766 -171.737983 
L 1090.421053 -176.640945 
L 1085.08134 -176.82294 
L 1079.741627 -165.283465 
L 1074.401914 -183.540575 
L 1069.062201 -192.829527 
L 1063.722488 -200.840232 
L 1058.382775 -223.56308 
L 1053.043062 -225.749121 
L 1047.703349 -225.533164 
L 1042.363636 -230.662962 
L 1037.023923 -228.406559 
L 1031.684211 -231.695375 
L 1026.344498 -242.483655 
L 1021.004785 -251.032713 
L 1015.665072 -257.361979 
L 1010.325359 -264.027104 
L 1004.985646 -261.413007 
L 999.645933 -268.904319 
L 994.30622 -265.203707 
L 988.966507 -240.082001 
L 983.626794 -211.066387 
L 978.287081 -201.596901 
L 972.947368 -191.885109 
L 967.607656 -198.503191 
L 962.267943 -214.388626 
L 956.92823 -217.967664 
L 951.588517 -209.989227 
L 946.248804 -216.341999 
L 940.909091 -233.580401 
L 935.569378 -223.603469 
L 930.229665 -224.621701 
L 924.889952 -228.061641 
L 919.550239 -230.582308 
L 914.210526 -235.228557 
L 908.870813 -232.20157 
L 903.5311 -239.657521 
L 898.191388 -252.102017 
L 892.851675 -257.612937 
L 887.511962 -265.475 
L 882.172249 -267.105226 
L 876.832536 -282.528635 
L 871.492823 -266.850707 
L 866.15311 -235.915239 
L 860.813397 -212.948899 
L 855.473684 -205.674949 
L 850.133971 -198.603587 
L 844.794258 -186.09062 
L 839.454545 -185.709841 
L 834.114833 -182.640302 
L 828.77512 -154.367933 
L 823.435407 -139.966395 
L 818.095694 -252.058972 
L 812.755981 -254.39606 
L 807.416268 -192.487607 
L 802.076555 -225.991442 
L 796.736842 -228.985911 
L 791.397129 -231.490772 
L 786.057416 -231.885452 
L 780.717703 -239.834416 
L 775.37799 -262.084665 
L 770.038278 -273.033628 
L 764.698565 -278.38349 
L 759.358852 -289.798477 
L 754.019139 -287.086015 
L 748.679426 -290.752517 
L 743.339713 -289.768615 
L 738 -285.604071 
L 732.660287 -256.229045 
L 727.320574 -222.466194 
L 721.980861 -215.97826 
L 716.641148 -192.396567 
L 711.301435 -188.693284 
L 705.961722 -201.620282 
L 700.62201 -211.36873 
L 695.282297 -204.160722 
L 689.942584 -213.800403 
L 684.602871 -216.455608 
L 679.263158 -220.630944 
L 673.923445 -230.271219 
L 668.583732 -232.220499 
L 663.244019 -233.107817 
L 657.904306 -241.993203 
L 652.564593 -254.537595 
L 647.22488 -265.544659 
L 641.885167 -282.433331 
L 636.545455 -292.535179 
L 631.205742 -296.683324 
L 625.866029 -300.231187 
L 620.526316 -304.2 
L 615.186603 -297.617965 
L 609.84689 -286.672969 
L 604.507177 -260.906531 
L 599.167464 -228.123084 
L 593.827751 -222.430209 
L 588.488038 -200.641174 
L 583.148325 -169.643318 
L 577.808612 -182.295742 
L 572.4689 -184.553105 
L 567.129187 -200.362322 
L 561.789474 -201.490508 
L 556.449761 -205.104703 
L 551.110048 -208.4293 
L 545.770335 -231.583234 
L 540.430622 -233.436117 
L 535.090909 -241.740028 
L 529.751196 -240.723202 
L 524.411483 -252.878912 
L 519.07177 -261.3108 
L 513.732057 -270.062805 
L 508.392344 -271.082786 
L 503.052632 -278.699264 
L 497.712919 -295.333637 
L 492.373206 -303.031425 
L 487.033493 -286.561109 
L 481.69378 -240.421109 
L 476.354067 -224.072508 
L 471.014354 -229.235776 
L 465.674641 -224.312736 
L 460.334928 -205.972232 
L 454.995215 -209.905309 
L 449.655502 -219.766102 
L 444.315789 -216.008138 
L 438.976077 -211.934525 
L 433.636364 -209.751686 
L 428.296651 -204.092125 
L 422.956938 -223.661679 
L 417.617225 -234.628089 
L 412.277512 -233.516615 
L 406.937799 -231.513575 
L 401.598086 -232.277507 
L 396.258373 -235.046758 
L 390.91866 -253.430213 
L 385.578947 -268.85862 
L 380.239234 -287.944469 
L 374.899522 -284.378332 
L 369.559809 -287.457329 
L 364.220096 -288.219105 
L 358.880383 -273.722872 
L 353.54067 -253.108535 
L 348.200957 -222.862513 
L 342.861244 -187.740073 
L 337.521531 -177.200634 
L 332.181818 -165.002059 
L 326.842105 -161.943421 
L 321.502392 -166.10367 
L 316.162679 -170.513275 
L 310.822967 -171.11276 
L 305.483254 -182.610978 
L 300.143541 -189.6899 
L 294.803828 -179.997842 
L 289.464115 -228.322032 
L 284.124402 -229.275166 
L 278.784689 -237.213978 
L 273.444976 -241.619172 
L 268.105263 -241.575253 
L 262.76555 -237.626119 
L 257.425837 -236.79987 
L 252.086124 -234.241875 
L 246.746411 -241.556792 
L 241.406699 -239.785812 
L 236.066986 -249.00812 
L 230.727273 -254.043145 
z
" style="stroke: #0000ff; stroke-opacity: 0.05"/>
    </defs>
    <g clip-path="url(#pcadb751f58)">
     <use xlink:href="#m172d999639" x="0" y="360" style="fill: #0000ff; fill-opacity: 0.05; stroke: #0000ff; stroke-opacity: 0.05"/>
    </g>
   </g>
   <g id="matplotlib.axis_1">
    <g id="xtick_1">
     <g id="line2d_1">
      <defs>
       <path id="mc6279f494c" d="M 0 0 
L 0 3.5 
" style="stroke: #000000; stroke-width: 0.8"/>
      </defs>
      <g>
       <use xlink:href="#mc6279f494c" x="230.727273" y="320.4" style="stroke: #000000; stroke-width: 0.8"/>
      </g>
     </g>
     <g id="text_1">
      <!-- 0 -->
      <g transform="translate(227.546023 334.998438) scale(0.1 -0.1)">
       <defs>
        <path id="DejaVuSans-30" d="M 2034 4250 
Q 1547 4250 1301 3770 
Q 1056 3291 1056 2328 
Q 1056 1369 1301 889 
Q 1547 409 2034 409 
Q 2525 409 2770 889 
Q 3016 1369 3016 2328 
Q 3016 3291 2770 3770 
Q 2525 4250 2034 4250 
z
M 2034 4750 
Q 2819 4750 3233 4129 
Q 3647 3509 3647 2328 
Q 3647 1150 3233 529 
Q 2819 -91 2034 -91 
Q 1250 -91 836 529 
Q 422 1150 422 2328 
Q 422 3509 836 4129 
Q 1250 4750 2034 4750 
z
" transform="scale(0.015625)"/>
       </defs>
       <use xlink:href="#DejaVuSans-30"/>
      </g>
     </g>
    </g>
    <g id="xtick_2">
     <g id="line2d_2">
      <g>
       <use xlink:href="#mc6279f494c" x="364.220096" y="320.4" style="stroke: #000000; stroke-width: 0.8"/>
      </g>
     </g>
     <g id="text_2">
      <!-- 25 -->
      <g transform="translate(357.857596 334.998438) scale(0.1 -0.1)">
       <defs>
        <path id="DejaVuSans-32" d="M 1228 531 
L 3431 531 
L 3431 0 
L 469 0 
L 469 531 
Q 828 903 1448 1529 
Q 2069 2156 2228 2338 
Q 2531 2678 2651 2914 
Q 2772 3150 2772 3378 
Q 2772 3750 2511 3984 
Q 2250 4219 1831 4219 
Q 1534 4219 1204 4116 
Q 875 4013 500 3803 
L 500 4441 
Q 881 4594 1212 4672 
Q 1544 4750 1819 4750 
Q 2544 4750 2975 4387 
Q 3406 4025 3406 3419 
Q 3406 3131 3298 2873 
Q 3191 2616 2906 2266 
Q 2828 2175 2409 1742 
Q 1991 1309 1228 531 
z
" transform="scale(0.015625)"/>
        <path id="DejaVuSans-35" d="M 691 4666 
L 3169 4666 
L 3169 4134 
L 1269 4134 
L 1269 2991 
Q 1406 3038 1543 3061 
Q 1681 3084 1819 3084 
Q 2600 3084 3056 2656 
Q 3513 2228 3513 1497 
Q 3513 744 3044 326 
Q 2575 -91 1722 -91 
Q 1428 -91 1123 -41 
Q 819 9 494 109 
L 494 744 
Q 775 591 1075 516 
Q 1375 441 1709 441 
Q 2250 441 2565 725 
Q 2881 1009 2881 1497 
Q 2881 1984 2565 2268 
Q 2250 2553 1709 2553 
Q 1456 2553 1204 2497 
Q 953 2441 691 2322 
L 691 4666 
z
" transform="scale(0.015625)"/>
       </defs>
       <use xlink:href="#DejaVuSans-32"/>
       <use xlink:href="#DejaVuSans-35" x="63.623047"/>
      </g>
     </g>
    </g>
    <g id="xtick_3">
     <g id="line2d_3">
      <g>
       <use xlink:href="#mc6279f494c" x="497.712919" y="320.4" style="stroke: #000000; stroke-width: 0.8"/>
      </g>
     </g>
     <g id="text_3">
      <!-- 50 -->
      <g transform="translate(491.350419 334.998438) scale(0.1 -0.1)">
       <use xlink:href="#DejaVuSans-35"/>
       <use xlink:href="#DejaVuSans-30" x="63.623047"/>
      </g>
     </g>
    </g>
    <g id="xtick_4">
     <g id="line2d_4">
      <g>
       <use xlink:href="#mc6279f494c" x="631.205742" y="320.4" style="stroke: #000000; stroke-width: 0.8"/>
      </g>
     </g>
     <g id="text_4">
      <!-- 75 -->
      <g transform="translate(624.843242 334.998438) scale(0.1 -0.1)">
       <defs>
        <path id="DejaVuSans-37" d="M 525 4666 
L 3525 4666 
L 3525 4397 
L 1831 0 
L 1172 0 
L 2766 4134 
L 525 4134 
L 525 4666 
z
" transform="scale(0.015625)"/>
       </defs>
       <use xlink:href="#DejaVuSans-37"/>
       <use xlink:href="#DejaVuSans-35" x="63.623047"/>
      </g>
     </g>
    </g>
    <g id="xtick_5">
     <g id="line2d_5">
      <g>
       <use xlink:href="#mc6279f494c" x="764.698565" y="320.4" style="stroke: #000000; stroke-width: 0.8"/>
      </g>
     </g>
     <g id="text_5">
      <!-- 100 -->
      <g transform="translate(755.154815 334.998438) scale(0.1 -0.1)">
       <defs>
        <path id="DejaVuSans-31" d="M 794 531 
L 1825 531 
L 1825 4091 
L 703 3866 
L 703 4441 
L 1819 4666 
L 2450 4666 
L 2450 531 
L 3481 531 
L 3481 0 
L 794 0 
L 794 531 
z
" transform="scale(0.015625)"/>
       </defs>
       <use xlink:href="#DejaVuSans-31"/>
       <use xlink:href="#DejaVuSans-30" x="63.623047"/>
       <use xlink:href="#DejaVuSans-30" x="127.246094"/>
      </g>
     </g>
    </g>
    <g id="xtick_6">
     <g id="line2d_6">
      <g>
       <use xlink:href="#mc6279f494c" x="898.191388" y="320.4" style="stroke: #000000; stroke-width: 0.8"/>
      </g>
     </g>
     <g id="text_6">
      <!-- 125 -->
      <g transform="translate(888.647638 334.998438) scale(0.1 -0.1)">
       <use xlink:href="#DejaVuSans-31"/>
       <use xlink:href="#DejaVuSans-32" x="63.623047"/>
       <use xlink:href="#DejaVuSans-35" x="127.246094"/>
      </g>
     </g>
    </g>
    <g id="xtick_7">
     <g id="line2d_7">
      <g>
       <use xlink:href="#mc6279f494c" x="1031.684211" y="320.4" style="stroke: #000000; stroke-width: 0.8"/>
      </g>
     </g>
     <g id="text_7">
      <!-- 150 -->
      <g transform="translate(1022.140461 334.998438) scale(0.1 -0.1)">
       <use xlink:href="#DejaVuSans-31"/>
       <use xlink:href="#DejaVuSans-35" x="63.623047"/>
       <use xlink:href="#DejaVuSans-30" x="127.246094"/>
      </g>
     </g>
    </g>
    <g id="xtick_8">
     <g id="line2d_8">
      <g>
       <use xlink:href="#mc6279f494c" x="1165.177033" y="320.4" style="stroke: #000000; stroke-width: 0.8"/>
      </g>
     </g>
     <g id="text_8">
      <!-- 175 -->
      <g transform="translate(1155.633283 334.998438) scale(0.1 -0.1)">
       <use xlink:href="#DejaVuSans-31"/>
       <use xlink:href="#DejaVuSans-37" x="63.623047"/>
       <use xlink:href="#DejaVuSans-35" x="127.246094"/>
      </g>
     </g>
    </g>
    <g id="text_9">
     <!-- Amostras -->
     <g transform="translate(714.360937 348.676562) scale(0.1 -0.1)">
      <defs>
       <path id="DejaVuSans-41" d="M 2188 4044 
L 1331 1722 
L 3047 1722 
L 2188 4044 
z
M 1831 4666 
L 2547 4666 
L 4325 0 
L 3669 0 
L 3244 1197 
L 1141 1197 
L 716 0 
L 50 0 
L 1831 4666 
z
" transform="scale(0.015625)"/>
       <path id="DejaVuSans-6d" d="M 3328 2828 
Q 3544 3216 3844 3400 
Q 4144 3584 4550 3584 
Q 5097 3584 5394 3201 
Q 5691 2819 5691 2113 
L 5691 0 
L 5113 0 
L 5113 2094 
Q 5113 2597 4934 2840 
Q 4756 3084 4391 3084 
Q 3944 3084 3684 2787 
Q 3425 2491 3425 1978 
L 3425 0 
L 2847 0 
L 2847 2094 
Q 2847 2600 2669 2842 
Q 2491 3084 2119 3084 
Q 1678 3084 1418 2786 
Q 1159 2488 1159 1978 
L 1159 0 
L 581 0 
L 581 3500 
L 1159 3500 
L 1159 2956 
Q 1356 3278 1631 3431 
Q 1906 3584 2284 3584 
Q 2666 3584 2933 3390 
Q 3200 3197 3328 2828 
z
" transform="scale(0.015625)"/>
       <path id="DejaVuSans-6f" d="M 1959 3097 
Q 1497 3097 1228 2736 
Q 959 2375 959 1747 
Q 959 1119 1226 758 
Q 1494 397 1959 397 
Q 2419 397 2687 759 
Q 2956 1122 2956 1747 
Q 2956 2369 2687 2733 
Q 2419 3097 1959 3097 
z
M 1959 3584 
Q 2709 3584 3137 3096 
Q 3566 2609 3566 1747 
Q 3566 888 3137 398 
Q 2709 -91 1959 -91 
Q 1206 -91 779 398 
Q 353 888 353 1747 
Q 353 2609 779 3096 
Q 1206 3584 1959 3584 
z
" transform="scale(0.015625)"/>
       <path id="DejaVuSans-73" d="M 2834 3397 
L 2834 2853 
Q 2591 2978 2328 3040 
Q 2066 3103 1784 3103 
Q 1356 3103 1142 2972 
Q 928 2841 928 2578 
Q 928 2378 1081 2264 
Q 1234 2150 1697 2047 
L 1894 2003 
Q 2506 1872 2764 1633 
Q 3022 1394 3022 966 
Q 3022 478 2636 193 
Q 2250 -91 1575 -91 
Q 1294 -91 989 -36 
Q 684 19 347 128 
L 347 722 
Q 666 556 975 473 
Q 1284 391 1588 391 
Q 1994 391 2212 530 
Q 2431 669 2431 922 
Q 2431 1156 2273 1281 
Q 2116 1406 1581 1522 
L 1381 1569 
Q 847 1681 609 1914 
Q 372 2147 372 2553 
Q 372 3047 722 3315 
Q 1072 3584 1716 3584 
Q 2034 3584 2315 3537 
Q 2597 3491 2834 3397 
z
" transform="scale(0.015625)"/>
       <path id="DejaVuSans-74" d="M 1172 4494 
L 1172 3500 
L 2356 3500 
L 2356 3053 
L 1172 3053 
L 1172 1153 
Q 1172 725 1289 603 
Q 1406 481 1766 481 
L 2356 481 
L 2356 0 
L 1766 0 
Q 1100 0 847 248 
Q 594 497 594 1153 
L 594 3053 
L 172 3053 
L 172 3500 
L 594 3500 
L 594 4494 
L 1172 4494 
z
" transform="scale(0.015625)"/>
       <path id="DejaVuSans-72" d="M 2631 2963 
Q 2534 3019 2420 3045 
Q 2306 3072 2169 3072 
Q 1681 3072 1420 2755 
Q 1159 2438 1159 1844 
L 1159 0 
L 581 0 
L 581 3500 
L 1159 3500 
L 1159 2956 
Q 1341 3275 1631 3429 
Q 1922 3584 2338 3584 
Q 2397 3584 2469 3576 
Q 2541 3569 2628 3553 
L 2631 2963 
z
" transform="scale(0.015625)"/>
       <path id="DejaVuSans-61" d="M 2194 1759 
Q 1497 1759 1228 1600 
Q 959 1441 959 1056 
Q 959 750 1161 570 
Q 1363 391 1709 391 
Q 2188 391 2477 730 
Q 2766 1069 2766 1631 
L 2766 1759 
L 2194 1759 
z
M 3341 1997 
L 3341 0 
L 2766 0 
L 2766 531 
Q 2569 213 2275 61 
Q 1981 -91 1556 -91 
Q 1019 -91 701 211 
Q 384 513 384 1019 
Q 384 1609 779 1909 
Q 1175 2209 1959 2209 
L 2766 2209 
L 2766 2266 
Q 2766 2663 2505 2880 
Q 2244 3097 1772 3097 
Q 1472 3097 1187 3025 
Q 903 2953 641 2809 
L 641 3341 
Q 956 3463 1253 3523 
Q 1550 3584 1831 3584 
Q 2591 3584 2966 3190 
Q 3341 2797 3341 1997 
z
" transform="scale(0.015625)"/>
      </defs>
      <use xlink:href="#DejaVuSans-41"/>
      <use xlink:href="#DejaVuSans-6d" x="68.408203"/>
      <use xlink:href="#DejaVuSans-6f" x="165.820312"/>
      <use xlink:href="#DejaVuSans-73" x="227.001953"/>
      <use xlink:href="#DejaVuSans-74" x="279.101562"/>
      <use xlink:href="#DejaVuSans-72" x="318.310547"/>
      <use xlink:href="#DejaVuSans-61" x="359.423828"/>
      <use xlink:href="#DejaVuSans-73" x="420.703125"/>
     </g>
    </g>
   </g>
   <g id="matplotlib.axis_2">
    <g id="ytick_1">
     <g id="line2d_9">
      <defs>
       <path id="m0df05a5efa" d="M 0 0 
L -3.5 0 
" style="stroke: #000000; stroke-width: 0.8"/>
      </defs>
      <g>
       <use xlink:href="#m0df05a5efa" x="180" y="307.938118" style="stroke: #000000; stroke-width: 0.8"/>
      </g>
     </g>
     <g id="text_10">
      <!-- 0 -->
      <g transform="translate(166.6375 311.737337) scale(0.1 -0.1)">
       <use xlink:href="#DejaVuSans-30"/>
      </g>
     </g>
    </g>
    <g id="ytick_2">
     <g id="line2d_10">
      <g>
       <use xlink:href="#m0df05a5efa" x="180" y="275.183784" style="stroke: #000000; stroke-width: 0.8"/>
      </g>
     </g>
     <g id="text_11">
      <!-- 2 -->
      <g transform="translate(166.6375 278.983002) scale(0.1 -0.1)">
       <use xlink:href="#DejaVuSans-32"/>
      </g>
     </g>
    </g>
    <g id="ytick_3">
     <g id="line2d_11">
      <g>
       <use xlink:href="#m0df05a5efa" x="180" y="242.429449" style="stroke: #000000; stroke-width: 0.8"/>
      </g>
     </g>
     <g id="text_12">
      <!-- 4 -->
      <g transform="translate(166.6375 246.228668) scale(0.1 -0.1)">
       <defs>
        <path id="DejaVuSans-34" d="M 2419 4116 
L 825 1625 
L 2419 1625 
L 2419 4116 
z
M 2253 4666 
L 3047 4666 
L 3047 1625 
L 3713 1625 
L 3713 1100 
L 3047 1100 
L 3047 0 
L 2419 0 
L 2419 1100 
L 313 1100 
L 313 1709 
L 2253 4666 
z
" transform="scale(0.015625)"/>
       </defs>
       <use xlink:href="#DejaVuSans-34"/>
      </g>
     </g>
    </g>
    <g id="ytick_4">
     <g id="line2d_12">
      <g>
       <use xlink:href="#m0df05a5efa" x="180" y="209.675114" style="stroke: #000000; stroke-width: 0.8"/>
      </g>
     </g>
     <g id="text_13">
      <!-- 6 -->
      <g transform="translate(166.6375 213.474333) scale(0.1 -0.1)">
       <defs>
        <path id="DejaVuSans-36" d="M 2113 2584 
Q 1688 2584 1439 2293 
Q 1191 2003 1191 1497 
Q 1191 994 1439 701 
Q 1688 409 2113 409 
Q 2538 409 2786 701 
Q 3034 994 3034 1497 
Q 3034 2003 2786 2293 
Q 2538 2584 2113 2584 
z
M 3366 4563 
L 3366 3988 
Q 3128 4100 2886 4159 
Q 2644 4219 2406 4219 
Q 1781 4219 1451 3797 
Q 1122 3375 1075 2522 
Q 1259 2794 1537 2939 
Q 1816 3084 2150 3084 
Q 2853 3084 3261 2657 
Q 3669 2231 3669 1497 
Q 3669 778 3244 343 
Q 2819 -91 2113 -91 
Q 1303 -91 875 529 
Q 447 1150 447 2328 
Q 447 3434 972 4092 
Q 1497 4750 2381 4750 
Q 2619 4750 2861 4703 
Q 3103 4656 3366 4563 
z
" transform="scale(0.015625)"/>
       </defs>
       <use xlink:href="#DejaVuSans-36"/>
      </g>
     </g>
    </g>
    <g id="ytick_5">
     <g id="line2d_13">
      <g>
       <use xlink:href="#m0df05a5efa" x="180" y="176.92078" style="stroke: #000000; stroke-width: 0.8"/>
      </g>
     </g>
     <g id="text_14">
      <!-- 8 -->
      <g transform="translate(166.6375 180.719999) scale(0.1 -0.1)">
       <defs>
        <path id="DejaVuSans-38" d="M 2034 2216 
Q 1584 2216 1326 1975 
Q 1069 1734 1069 1313 
Q 1069 891 1326 650 
Q 1584 409 2034 409 
Q 2484 409 2743 651 
Q 3003 894 3003 1313 
Q 3003 1734 2745 1975 
Q 2488 2216 2034 2216 
z
M 1403 2484 
Q 997 2584 770 2862 
Q 544 3141 544 3541 
Q 544 4100 942 4425 
Q 1341 4750 2034 4750 
Q 2731 4750 3128 4425 
Q 3525 4100 3525 3541 
Q 3525 3141 3298 2862 
Q 3072 2584 2669 2484 
Q 3125 2378 3379 2068 
Q 3634 1759 3634 1313 
Q 3634 634 3220 271 
Q 2806 -91 2034 -91 
Q 1263 -91 848 271 
Q 434 634 434 1313 
Q 434 1759 690 2068 
Q 947 2378 1403 2484 
z
M 1172 3481 
Q 1172 3119 1398 2916 
Q 1625 2713 2034 2713 
Q 2441 2713 2670 2916 
Q 2900 3119 2900 3481 
Q 2900 3844 2670 4047 
Q 2441 4250 2034 4250 
Q 1625 4250 1398 4047 
Q 1172 3844 1172 3481 
z
" transform="scale(0.015625)"/>
       </defs>
       <use xlink:href="#DejaVuSans-38"/>
      </g>
     </g>
    </g>
    <g id="ytick_6">
     <g id="line2d_14">
      <g>
       <use xlink:href="#m0df05a5efa" x="180" y="144.166445" style="stroke: #000000; stroke-width: 0.8"/>
      </g>
     </g>
     <g id="text_15">
      <!-- 10 -->
      <g transform="translate(160.275 147.965664) scale(0.1 -0.1)">
       <use xlink:href="#DejaVuSans-31"/>
       <use xlink:href="#DejaVuSans-30" x="63.623047"/>
      </g>
     </g>
    </g>
    <g id="ytick_7">
     <g id="line2d_15">
      <g>
       <use xlink:href="#m0df05a5efa" x="180" y="111.412111" style="stroke: #000000; stroke-width: 0.8"/>
      </g>
     </g>
     <g id="text_16">
      <!-- 12 -->
      <g transform="translate(160.275 115.211329) scale(0.1 -0.1)">
       <use xlink:href="#DejaVuSans-31"/>
       <use xlink:href="#DejaVuSans-32" x="63.623047"/>
      </g>
     </g>
    </g>
    <g id="ytick_8">
     <g id="line2d_16">
      <g>
       <use xlink:href="#m0df05a5efa" x="180" y="78.657776" style="stroke: #000000; stroke-width: 0.8"/>
      </g>
     </g>
     <g id="text_17">
      <!-- 14 -->
      <g transform="translate(160.275 82.456995) scale(0.1 -0.1)">
       <use xlink:href="#DejaVuSans-31"/>
       <use xlink:href="#DejaVuSans-34" x="63.623047"/>
      </g>
     </g>
    </g>
    <g id="ytick_9">
     <g id="line2d_17">
      <g>
       <use xlink:href="#m0df05a5efa" x="180" y="45.903441" style="stroke: #000000; stroke-width: 0.8"/>
      </g>
     </g>
     <g id="text_18">
      <!-- 16 -->
      <g transform="translate(160.275 49.70266) scale(0.1 -0.1)">
       <use xlink:href="#DejaVuSans-31"/>
       <use xlink:href="#DejaVuSans-36" x="63.623047"/>
      </g>
     </g>
    </g>
    <g id="text_19">
     <!-- Velocidade do Vento (m/s) -->
     <g transform="translate(154.195312 247.344531) rotate(-90) scale(0.1 -0.1)">
      <defs>
       <path id="DejaVuSans-56" d="M 1831 0 
L 50 4666 
L 709 4666 
L 2188 738 
L 3669 4666 
L 4325 4666 
L 2547 0 
L 1831 0 
z
" transform="scale(0.015625)"/>
       <path id="DejaVuSans-65" d="M 3597 1894 
L 3597 1613 
L 953 1613 
Q 991 1019 1311 708 
Q 1631 397 2203 397 
Q 2534 397 2845 478 
Q 3156 559 3463 722 
L 3463 178 
Q 3153 47 2828 -22 
Q 2503 -91 2169 -91 
Q 1331 -91 842 396 
Q 353 884 353 1716 
Q 353 2575 817 3079 
Q 1281 3584 2069 3584 
Q 2775 3584 3186 3129 
Q 3597 2675 3597 1894 
z
M 3022 2063 
Q 3016 2534 2758 2815 
Q 2500 3097 2075 3097 
Q 1594 3097 1305 2825 
Q 1016 2553 972 2059 
L 3022 2063 
z
" transform="scale(0.015625)"/>
       <path id="DejaVuSans-6c" d="M 603 4863 
L 1178 4863 
L 1178 0 
L 603 0 
L 603 4863 
z
" transform="scale(0.015625)"/>
       <path id="DejaVuSans-63" d="M 3122 3366 
L 3122 2828 
Q 2878 2963 2633 3030 
Q 2388 3097 2138 3097 
Q 1578 3097 1268 2742 
Q 959 2388 959 1747 
Q 959 1106 1268 751 
Q 1578 397 2138 397 
Q 2388 397 2633 464 
Q 2878 531 3122 666 
L 3122 134 
Q 2881 22 2623 -34 
Q 2366 -91 2075 -91 
Q 1284 -91 818 406 
Q 353 903 353 1747 
Q 353 2603 823 3093 
Q 1294 3584 2113 3584 
Q 2378 3584 2631 3529 
Q 2884 3475 3122 3366 
z
" transform="scale(0.015625)"/>
       <path id="DejaVuSans-69" d="M 603 3500 
L 1178 3500 
L 1178 0 
L 603 0 
L 603 3500 
z
M 603 4863 
L 1178 4863 
L 1178 4134 
L 603 4134 
L 603 4863 
z
" transform="scale(0.015625)"/>
       <path id="DejaVuSans-64" d="M 2906 2969 
L 2906 4863 
L 3481 4863 
L 3481 0 
L 2906 0 
L 2906 525 
Q 2725 213 2448 61 
Q 2172 -91 1784 -91 
Q 1150 -91 751 415 
Q 353 922 353 1747 
Q 353 2572 751 3078 
Q 1150 3584 1784 3584 
Q 2172 3584 2448 3432 
Q 2725 3281 2906 2969 
z
M 947 1747 
Q 947 1113 1208 752 
Q 1469 391 1925 391 
Q 2381 391 2643 752 
Q 2906 1113 2906 1747 
Q 2906 2381 2643 2742 
Q 2381 3103 1925 3103 
Q 1469 3103 1208 2742 
Q 947 2381 947 1747 
z
" transform="scale(0.015625)"/>
       <path id="DejaVuSans-20" transform="scale(0.015625)"/>
       <path id="DejaVuSans-6e" d="M 3513 2113 
L 3513 0 
L 2938 0 
L 2938 2094 
Q 2938 2591 2744 2837 
Q 2550 3084 2163 3084 
Q 1697 3084 1428 2787 
Q 1159 2491 1159 1978 
L 1159 0 
L 581 0 
L 581 3500 
L 1159 3500 
L 1159 2956 
Q 1366 3272 1645 3428 
Q 1925 3584 2291 3584 
Q 2894 3584 3203 3211 
Q 3513 2838 3513 2113 
z
" transform="scale(0.015625)"/>
       <path id="DejaVuSans-28" d="M 1984 4856 
Q 1566 4138 1362 3434 
Q 1159 2731 1159 2009 
Q 1159 1288 1364 580 
Q 1569 -128 1984 -844 
L 1484 -844 
Q 1016 -109 783 600 
Q 550 1309 550 2009 
Q 550 2706 781 3412 
Q 1013 4119 1484 4856 
L 1984 4856 
z
" transform="scale(0.015625)"/>
       <path id="DejaVuSans-2f" d="M 1625 4666 
L 2156 4666 
L 531 -594 
L 0 -594 
L 1625 4666 
z
" transform="scale(0.015625)"/>
       <path id="DejaVuSans-29" d="M 513 4856 
L 1013 4856 
Q 1481 4119 1714 3412 
Q 1947 2706 1947 2009 
Q 1947 1309 1714 600 
Q 1481 -109 1013 -844 
L 513 -844 
Q 928 -128 1133 580 
Q 1338 1288 1338 2009 
Q 1338 2731 1133 3434 
Q 928 4138 513 4856 
z
" transform="scale(0.015625)"/>
      </defs>
      <use xlink:href="#DejaVuSans-56"/>
      <use xlink:href="#DejaVuSans-65" x="60.658203"/>
      <use xlink:href="#DejaVuSans-6c" x="122.181641"/>
      <use xlink:href="#DejaVuSans-6f" x="149.964844"/>
      <use xlink:href="#DejaVuSans-63" x="211.146484"/>
      <use xlink:href="#DejaVuSans-69" x="266.126953"/>
      <use xlink:href="#DejaVuSans-64" x="293.910156"/>
      <use xlink:href="#DejaVuSans-61" x="357.386719"/>
      <use xlink:href="#DejaVuSans-64" x="418.666016"/>
      <use xlink:href="#DejaVuSans-65" x="482.142578"/>
      <use xlink:href="#DejaVuSans-20" x="543.666016"/>
      <use xlink:href="#DejaVuSans-64" x="575.453125"/>
      <use xlink:href="#DejaVuSans-6f" x="638.929688"/>
      <use xlink:href="#DejaVuSans-20" x="700.111328"/>
      <use xlink:href="#DejaVuSans-56" x="731.898438"/>
      <use xlink:href="#DejaVuSans-65" x="792.556641"/>
      <use xlink:href="#DejaVuSans-6e" x="854.080078"/>
      <use xlink:href="#DejaVuSans-74" x="917.458984"/>
      <use xlink:href="#DejaVuSans-6f" x="956.667969"/>
      <use xlink:href="#DejaVuSans-20" x="1017.849609"/>
      <use xlink:href="#DejaVuSans-28" x="1049.636719"/>
      <use xlink:href="#DejaVuSans-6d" x="1088.650391"/>
      <use xlink:href="#DejaVuSans-2f" x="1186.0625"/>
      <use xlink:href="#DejaVuSans-73" x="1219.753906"/>
      <use xlink:href="#DejaVuSans-29" x="1271.853516"/>
     </g>
    </g>
   </g>
   <g id="line2d_18">
    <path d="M 230.727273 149.840062 
L 236.066986 154.875087 
L 241.406699 164.097395 
L 246.746411 162.3264 
L 252.086124 169.641317 
L 257.425837 167.083337 
L 262.76555 166.257088 
L 268.105263 162.307955 
L 273.444976 162.26402 
L 278.784689 166.669229 
L 284.124402 174.608026 
L 289.464115 175.56116 
L 294.803828 223.885358 
L 300.143541 214.1933 
L 305.483254 221.272221 
L 310.822967 232.77044 
L 316.162679 233.369924 
L 321.502392 237.77953 
L 326.842105 241.939778 
L 332.181818 238.88114 
L 337.521531 226.682566 
L 342.861244 216.143127 
L 348.200957 181.020686 
L 353.54067 150.774657 
L 358.880383 130.160336 
L 364.220096 115.664102 
L 369.559809 116.425863 
L 374.899522 119.504859 
L 380.239234 115.938738 
L 385.578947 135.024587 
L 390.91866 150.452979 
L 396.258373 168.83645 
L 401.598086 171.605685 
L 406.937799 172.369616 
L 412.277512 170.366592 
L 417.617225 169.255103 
L 422.956938 180.22152 
L 428.296651 199.791074 
L 433.636364 194.131506 
L 438.976077 191.948682 
L 444.315789 187.875053 
L 449.655502 184.117106 
L 454.995215 193.977898 
L 460.334928 197.910976 
L 465.674641 179.570471 
L 471.014354 174.647416 
L 476.354067 179.810691 
L 481.69378 163.462098 
L 487.033493 117.322082 
L 492.373206 100.851782 
L 497.712919 108.549555 
L 503.052632 125.183943 
L 508.392344 132.800406 
L 513.732057 133.820387 
L 519.07177 142.572407 
L 524.411483 151.004296 
L 529.751196 163.15999 
L 535.090909 162.14318 
L 540.430622 170.447074 
L 545.770335 172.299973 
L 551.110048 195.453891 
L 556.449761 198.778496 
L 561.789474 202.392684 
L 567.129187 203.520885 
L 572.4689 219.330086 
L 577.808612 221.587457 
L 583.148325 234.239881 
L 588.488038 203.242025 
L 593.827751 181.452983 
L 599.167464 175.760108 
L 604.507177 142.97666 
L 609.84689 117.210223 
L 615.186603 106.265227 
L 620.526316 99.683207 
L 625.866029 103.65202 
L 631.205742 107.199868 
L 636.545455 111.348012 
L 641.885167 121.44986 
L 647.22488 138.338533 
L 652.564593 149.345613 
L 657.904306 161.889988 
L 663.244019 170.775391 
L 668.583732 171.662692 
L 673.923445 173.611973 
L 679.263158 183.252255 
L 684.602871 187.427584 
L 689.942584 190.082788 
L 695.282297 199.722478 
L 700.62201 192.514477 
L 705.961722 202.262918 
L 711.301435 215.189907 
L 716.641148 211.486632 
L 721.980861 187.904939 
L 727.320574 181.417013 
L 732.660287 147.654162 
L 738 118.279136 
L 743.339713 114.114592 
L 748.679426 113.130675 
L 754.019139 116.797192 
L 759.358852 114.084714 
L 764.698565 125.499702 
L 770.038278 130.849579 
L 775.37799 141.798542 
L 780.717703 164.048791 
L 786.057416 171.997756 
L 791.397129 172.392419 
L 796.736842 174.897296 
L 802.076555 177.891765 
L 807.416268 211.395592 
L 812.755981 149.487147 
L 818.095694 151.824235 
L 823.435407 263.916801 
L 828.77512 249.51527 
L 834.114833 221.242898 
L 839.454545 218.173366 
L 844.794258 217.792579 
L 850.133971 205.279604 
L 855.473684 198.208258 
L 860.813397 190.9343 
L 866.15311 167.967968 
L 871.492823 137.0325 
L 876.832536 121.354572 
L 882.172249 136.777965 
L 887.511962 138.408191 
L 892.851675 146.270255 
L 898.191388 151.781175 
L 903.5311 164.225686 
L 908.870813 171.681637 
L 914.210526 168.65465 
L 919.550239 173.300899 
L 924.889952 175.821551 
L 930.229665 179.261499 
L 935.569378 180.279738 
L 940.909091 170.302807 
L 946.248804 187.541208 
L 951.588517 193.893972 
L 956.92823 185.915535 
L 962.267943 189.494565 
L 967.607656 205.38 
L 972.947368 211.998098 
L 978.287081 202.286299 
L 983.626794 192.816804 
L 988.966507 163.801191 
L 994.30622 138.6795 
L 999.645933 134.978888 
L 1004.985646 142.470184 
L 1010.325359 139.856087 
L 1015.665072 146.521228 
L 1021.004785 152.850478 
L 1026.344498 161.399552 
L 1031.684211 172.187817 
L 1037.023923 175.476632 
L 1042.363636 173.22023 
L 1047.703349 178.350027 
L 1053.043062 178.134078 
L 1058.382775 180.320119 
L 1063.722488 203.042967 
L 1069.062201 211.053664 
L 1074.401914 220.342625 
L 1079.741627 238.599734 
L 1085.08134 227.06026 
L 1090.421053 227.242254 
L 1095.760766 232.145216 
L 1101.100478 206.948119 
L 1106.440191 210.012349 
L 1111.779904 217.673621 
L 1117.119617 202.387827 
L 1122.45933 191.251207 
L 1127.799043 170.73725 
L 1133.138756 152.450958 
L 1138.478469 147.226294 
L 1143.818182 146.601804 
L 1149.157895 153.630465 
L 1154.497608 158.017151 
L 1159.837321 162.750739 
L 1165.177033 174.029392 
L 1170.516746 174.831948 
L 1175.856459 178.211874 
L 1181.196172 178.706738 
L 1186.535885 180.992269 
L 1191.875598 159.719285 
L 1197.215311 173.978664 
L 1202.555024 190.413338 
L 1207.894737 194.886784 
L 1213.23445 210.647591 
L 1218.574163 216.609011 
L 1223.913876 225.573544 
L 1229.253589 217.845542 
L 1234.593301 206.784024 
L 1239.933014 188.156295 
L 1245.272727 166.680724 
L 1245.272727 166.680724 
" clip-path="url(#pcadb751f58)" style="fill: none; stroke: #0000ff; stroke-width: 1.5; stroke-linecap: square"/>
   </g>
   <g id="line2d_19">
    <path d="M 230.727273 156.149072 
L 236.066986 164.89266 
L 241.406699 149.698288 
L 246.746411 166.757837 
L 252.086124 164.437739 
L 257.425837 161.071321 
L 262.76555 155.275623 
L 268.105263 150.580835 
L 273.444976 157.714002 
L 278.784689 180.805808 
L 284.124402 190.641206 
L 289.464115 209.302079 
L 294.803828 198.920775 
L 300.143541 209.711508 
L 305.483254 224.341777 
L 310.822967 227.34584 
L 316.162679 235.878582 
L 321.502392 245.377339 
L 326.842105 243.830607 
L 332.181818 230.756168 
L 337.521531 220.33847 
L 342.861244 178.467512 
L 348.200957 142.619713 
L 353.54067 118.345111 
L 358.880383 95.57175 
L 364.220096 97.518814 
L 369.559809 98.146605 
L 374.899522 96.263231 
L 380.239234 121.902596 
L 385.578947 139.316985 
L 390.91866 166.484885 
L 396.258373 170.479094 
L 401.598086 171.734676 
L 406.937799 161.699112 
L 412.277512 143.338488 
L 417.617225 162.172231 
L 422.956938 177.89431 
L 428.296651 175.647 
L 433.636364 173.579079 
L 438.976077 169.768302 
L 444.315789 165.766252 
L 449.655502 186.355847 
L 454.995215 196.100262 
L 460.334928 190.677601 
L 465.674641 196.737152 
L 471.014354 194.881073 
L 476.354067 174.846339 
L 481.69378 118.417899 
L 487.033493 82.979529 
L 492.373206 80.377379 
L 497.712919 96.90012 
L 503.052632 111.694161 
L 508.392344 102.577539 
L 513.732057 97.991931 
L 519.07177 108.473318 
L 524.411483 134.849657 
L 529.751196 121.274805 
L 535.090909 144.985303 
L 540.430622 157.686707 
L 545.770335 171.388937 
L 551.110048 175.783476 
L 556.449761 180.578346 
L 561.789474 180.378182 
L 567.129187 192.979502 
L 572.4689 198.838889 
L 577.808612 229.336814 
L 583.148325 199.075448 
L 588.488038 190.959652 
L 593.827751 188.766931 
L 599.167464 152.98282 
L 604.507177 118.47249 
L 609.84689 93.397226 
L 615.186603 57.139997 
L 620.526316 70.150748 
L 625.866029 81.523781 
L 631.205742 98.792594 
L 636.545455 95.316995 
L 641.885167 127.980345 
L 647.22488 126.078774 
L 652.564593 129.354207 
L 657.904306 146.859579 
L 663.244019 136.150732 
L 668.583732 144.976205 
L 673.923445 155.057262 
L 679.263158 154.520454 
L 684.602871 155.503085 
L 689.942584 165.156515 
L 695.282297 161.353373 
L 700.62201 178.276444 
L 705.961722 198.766101 
L 711.301435 211.831441 
L 716.641148 198.201999 
L 721.980861 201.450137 
L 727.320574 151.681745 
L 732.660287 113.532043 
L 738 105.57092 
L 743.339713 93.806655 
L 748.679426 74.154055 
L 754.019139 79.649505 
L 759.358852 87.285747 
L 764.698565 94.725597 
L 770.038278 103.805826 
L 775.37799 150.426162 
L 780.717703 162.900105 
L 786.057416 148.779347 
L 791.397129 126.251643 
L 796.736842 133.930716 
L 802.076555 177.275619 
L 807.416268 224.90588 
L 812.755981 229.627963 
L 818.095694 234.613901 
L 823.435407 224.978667 
L 828.77512 205.271475 
L 834.114833 208.965437 
L 839.454545 227.653605 
L 844.794258 225.101349 
L 850.133971 209.514182 
L 855.473684 194.89927 
L 860.813397 155.284722 
L 866.15311 103.150739 
L 871.492823 81.214434 
L 876.832536 96.681758 
L 882.172249 90.60401 
L 887.511962 90.276466 
L 892.851675 109.610622 
L 898.191388 139.034933 
L 903.5311 156.321943 
L 908.870813 140.345106 
L 914.210526 153.701596 
L 919.550239 156.312844 
L 924.889952 143.929886 
L 930.229665 148.005982 
L 935.569378 138.498125 
L 940.909091 157.568427 
L 946.248804 168.832279 
L 951.588517 164.710691 
L 956.92823 177.630456 
L 962.267943 195.163124 
L 967.607656 215.780158 
L 972.947368 213.560142 
L 978.287081 196.873629 
L 983.626794 159.34262 
L 988.966507 122.694159 
L 994.30622 101.640401 
L 999.645933 128.462561 
L 1004.985646 113.72311 
L 1010.325359 111.685064 
L 1015.665072 124.340974 
L 1021.004785 130.873644 
L 1026.344498 155.239231 
L 1031.684211 169.778515 
L 1037.023923 160.643695 
L 1042.363636 180.423673 
L 1047.703349 185.500596 
L 1053.043062 161.225995 
L 1058.382775 180.769414 
L 1063.722488 181.187942 
L 1069.062201 196.036574 
L 1074.401914 221.867006 
L 1079.741627 220.97536 
L 1085.08134 227.617211 
L 1090.421053 224.369073 
L 1095.760766 197.319451 
L 1101.100478 222.503895 
L 1106.440191 238.890161 
L 1111.779904 211.012583 
L 1117.119617 196.546085 
L 1122.45933 167.158168 
L 1127.799043 123.385639 
L 1133.138756 107.454294 
L 1138.478469 102.031633 
L 1143.818182 107.463393 
L 1149.157895 106.700244 
L 1154.497608 123.409765 
L 1159.837321 125.223521 
L 1165.177033 135.886878 
L 1170.516746 162.517971 
L 1175.856459 175.383145 
L 1181.196172 143.429473 
L 1186.535885 128.93568 
L 1191.875598 139.999366 
L 1197.215311 157.750396 
L 1202.555024 166.675952 
L 1207.894737 186.537816 
L 1213.23445 197.574208 
L 1218.574163 217.144922 
L 1223.913876 224.087022 
L 1229.253589 222.494797 
L 1234.593301 187.229297 
L 1239.933014 137.60648 
L 1245.272727 104.852145 
L 1245.272727 104.852145 
" clip-path="url(#pcadb751f58)" style="fill: none; stroke: #ffa500; stroke-width: 1.5; stroke-linecap: square"/>
   </g>
   <g id="patch_3">
    <path d="M 180 320.4 
L 180 43.2 
" style="fill: none; stroke: #000000; stroke-width: 0.8; stroke-linejoin: miter; stroke-linecap: square"/>
   </g>
   <g id="patch_4">
    <path d="M 1296 320.4 
L 1296 43.2 
" style="fill: none; stroke: #000000; stroke-width: 0.8; stroke-linejoin: miter; stroke-linecap: square"/>
   </g>
   <g id="patch_5">
    <path d="M 180 320.4 
L 1296 320.4 
" style="fill: none; stroke: #000000; stroke-width: 0.8; stroke-linejoin: miter; stroke-linecap: square"/>
   </g>
   <g id="patch_6">
    <path d="M 180 43.2 
L 1296 43.2 
" style="fill: none; stroke: #000000; stroke-width: 0.8; stroke-linejoin: miter; stroke-linecap: square"/>
   </g>
   <g id="text_20">
    <!-- Previsão do vento para 1 hora(s) à frente com 3 camadas -->
    <g transform="translate(564.882187 37.2) scale(0.12 -0.12)">
     <defs>
      <path id="DejaVuSans-50" d="M 1259 4147 
L 1259 2394 
L 2053 2394 
Q 2494 2394 2734 2622 
Q 2975 2850 2975 3272 
Q 2975 3691 2734 3919 
Q 2494 4147 2053 4147 
L 1259 4147 
z
M 628 4666 
L 2053 4666 
Q 2838 4666 3239 4311 
Q 3641 3956 3641 3272 
Q 3641 2581 3239 2228 
Q 2838 1875 2053 1875 
L 1259 1875 
L 1259 0 
L 628 0 
L 628 4666 
z
" transform="scale(0.015625)"/>
      <path id="DejaVuSans-76" d="M 191 3500 
L 800 3500 
L 1894 563 
L 2988 3500 
L 3597 3500 
L 2284 0 
L 1503 0 
L 191 3500 
z
" transform="scale(0.015625)"/>
      <path id="DejaVuSans-e3" d="M 2194 1759 
Q 1497 1759 1228 1600 
Q 959 1441 959 1056 
Q 959 750 1161 570 
Q 1363 391 1709 391 
Q 2188 391 2477 730 
Q 2766 1069 2766 1631 
L 2766 1759 
L 2194 1759 
z
M 3341 1997 
L 3341 0 
L 2766 0 
L 2766 531 
Q 2569 213 2275 61 
Q 1981 -91 1556 -91 
Q 1019 -91 701 211 
Q 384 513 384 1019 
Q 384 1609 779 1909 
Q 1175 2209 1959 2209 
L 2766 2209 
L 2766 2266 
Q 2766 2663 2505 2880 
Q 2244 3097 1772 3097 
Q 1472 3097 1187 3025 
Q 903 2953 641 2809 
L 641 3341 
Q 956 3463 1253 3523 
Q 1550 3584 1831 3584 
Q 2591 3584 2966 3190 
Q 3341 2797 3341 1997 
z
M 1844 4281 
L 1666 4453 
Q 1597 4516 1545 4545 
Q 1494 4575 1453 4575 
Q 1334 4575 1278 4461 
Q 1222 4347 1216 4091 
L 825 4091 
Q 831 4513 990 4742 
Q 1150 4972 1434 4972 
Q 1553 4972 1653 4928 
Q 1753 4884 1869 4781 
L 2047 4609 
Q 2116 4547 2167 4517 
Q 2219 4488 2259 4488 
Q 2378 4488 2434 4602 
Q 2491 4716 2497 4972 
L 2888 4972 
Q 2881 4550 2722 4320 
Q 2563 4091 2278 4091 
Q 2159 4091 2059 4134 
Q 1959 4178 1844 4281 
z
" transform="scale(0.015625)"/>
      <path id="DejaVuSans-70" d="M 1159 525 
L 1159 -1331 
L 581 -1331 
L 581 3500 
L 1159 3500 
L 1159 2969 
Q 1341 3281 1617 3432 
Q 1894 3584 2278 3584 
Q 2916 3584 3314 3078 
Q 3713 2572 3713 1747 
Q 3713 922 3314 415 
Q 2916 -91 2278 -91 
Q 1894 -91 1617 61 
Q 1341 213 1159 525 
z
M 3116 1747 
Q 3116 2381 2855 2742 
Q 2594 3103 2138 3103 
Q 1681 3103 1420 2742 
Q 1159 2381 1159 1747 
Q 1159 1113 1420 752 
Q 1681 391 2138 391 
Q 2594 391 2855 752 
Q 3116 1113 3116 1747 
z
" transform="scale(0.015625)"/>
      <path id="DejaVuSans-68" d="M 3513 2113 
L 3513 0 
L 2938 0 
L 2938 2094 
Q 2938 2591 2744 2837 
Q 2550 3084 2163 3084 
Q 1697 3084 1428 2787 
Q 1159 2491 1159 1978 
L 1159 0 
L 581 0 
L 581 4863 
L 1159 4863 
L 1159 2956 
Q 1366 3272 1645 3428 
Q 1925 3584 2291 3584 
Q 2894 3584 3203 3211 
Q 3513 2838 3513 2113 
z
" transform="scale(0.015625)"/>
      <path id="DejaVuSans-e0" d="M 2194 1759 
Q 1497 1759 1228 1600 
Q 959 1441 959 1056 
Q 959 750 1161 570 
Q 1363 391 1709 391 
Q 2188 391 2477 730 
Q 2766 1069 2766 1631 
L 2766 1759 
L 2194 1759 
z
M 3341 1997 
L 3341 0 
L 2766 0 
L 2766 531 
Q 2569 213 2275 61 
Q 1981 -91 1556 -91 
Q 1019 -91 701 211 
Q 384 513 384 1019 
Q 384 1609 779 1909 
Q 1175 2209 1959 2209 
L 2766 2209 
L 2766 2266 
Q 2766 2663 2505 2880 
Q 2244 3097 1772 3097 
Q 1472 3097 1187 3025 
Q 903 2953 641 2809 
L 641 3341 
Q 956 3463 1253 3523 
Q 1550 3584 1831 3584 
Q 2591 3584 2966 3190 
Q 3341 2797 3341 1997 
z
M 1403 5119 
L 2284 3950 
L 1806 3950 
L 788 5119 
L 1403 5119 
z
" transform="scale(0.015625)"/>
      <path id="DejaVuSans-66" d="M 2375 4863 
L 2375 4384 
L 1825 4384 
Q 1516 4384 1395 4259 
Q 1275 4134 1275 3809 
L 1275 3500 
L 2222 3500 
L 2222 3053 
L 1275 3053 
L 1275 0 
L 697 0 
L 697 3053 
L 147 3053 
L 147 3500 
L 697 3500 
L 697 3744 
Q 697 4328 969 4595 
Q 1241 4863 1831 4863 
L 2375 4863 
z
" transform="scale(0.015625)"/>
      <path id="DejaVuSans-33" d="M 2597 2516 
Q 3050 2419 3304 2112 
Q 3559 1806 3559 1356 
Q 3559 666 3084 287 
Q 2609 -91 1734 -91 
Q 1441 -91 1130 -33 
Q 819 25 488 141 
L 488 750 
Q 750 597 1062 519 
Q 1375 441 1716 441 
Q 2309 441 2620 675 
Q 2931 909 2931 1356 
Q 2931 1769 2642 2001 
Q 2353 2234 1838 2234 
L 1294 2234 
L 1294 2753 
L 1863 2753 
Q 2328 2753 2575 2939 
Q 2822 3125 2822 3475 
Q 2822 3834 2567 4026 
Q 2313 4219 1838 4219 
Q 1578 4219 1281 4162 
Q 984 4106 628 3988 
L 628 4550 
Q 988 4650 1302 4700 
Q 1616 4750 1894 4750 
Q 2613 4750 3031 4423 
Q 3450 4097 3450 3541 
Q 3450 3153 3228 2886 
Q 3006 2619 2597 2516 
z
" transform="scale(0.015625)"/>
     </defs>
     <use xlink:href="#DejaVuSans-50"/>
     <use xlink:href="#DejaVuSans-72" x="58.552734"/>
     <use xlink:href="#DejaVuSans-65" x="97.416016"/>
     <use xlink:href="#DejaVuSans-76" x="158.939453"/>
     <use xlink:href="#DejaVuSans-69" x="218.119141"/>
     <use xlink:href="#DejaVuSans-73" x="245.902344"/>
     <use xlink:href="#DejaVuSans-e3" x="298.001953"/>
     <use xlink:href="#DejaVuSans-6f" x="359.28125"/>
     <use xlink:href="#DejaVuSans-20" x="420.462891"/>
     <use xlink:href="#DejaVuSans-64" x="452.25"/>
     <use xlink:href="#DejaVuSans-6f" x="515.726562"/>
     <use xlink:href="#DejaVuSans-20" x="576.908203"/>
     <use xlink:href="#DejaVuSans-76" x="608.695312"/>
     <use xlink:href="#DejaVuSans-65" x="667.875"/>
     <use xlink:href="#DejaVuSans-6e" x="729.398438"/>
     <use xlink:href="#DejaVuSans-74" x="792.777344"/>
     <use xlink:href="#DejaVuSans-6f" x="831.986328"/>
     <use xlink:href="#DejaVuSans-20" x="893.167969"/>
     <use xlink:href="#DejaVuSans-70" x="924.955078"/>
     <use xlink:href="#DejaVuSans-61" x="988.431641"/>
     <use xlink:href="#DejaVuSans-72" x="1049.710938"/>
     <use xlink:href="#DejaVuSans-61" x="1090.824219"/>
     <use xlink:href="#DejaVuSans-20" x="1152.103516"/>
     <use xlink:href="#DejaVuSans-31" x="1183.890625"/>
     <use xlink:href="#DejaVuSans-20" x="1247.513672"/>
     <use xlink:href="#DejaVuSans-68" x="1279.300781"/>
     <use xlink:href="#DejaVuSans-6f" x="1342.679688"/>
     <use xlink:href="#DejaVuSans-72" x="1403.861328"/>
     <use xlink:href="#DejaVuSans-61" x="1444.974609"/>
     <use xlink:href="#DejaVuSans-28" x="1506.253906"/>
     <use xlink:href="#DejaVuSans-73" x="1545.267578"/>
     <use xlink:href="#DejaVuSans-29" x="1597.367188"/>
     <use xlink:href="#DejaVuSans-20" x="1636.380859"/>
     <use xlink:href="#DejaVuSans-e0" x="1668.167969"/>
     <use xlink:href="#DejaVuSans-20" x="1729.447266"/>
     <use xlink:href="#DejaVuSans-66" x="1761.234375"/>
     <use xlink:href="#DejaVuSans-72" x="1796.439453"/>
     <use xlink:href="#DejaVuSans-65" x="1835.302734"/>
     <use xlink:href="#DejaVuSans-6e" x="1896.826172"/>
     <use xlink:href="#DejaVuSans-74" x="1960.205078"/>
     <use xlink:href="#DejaVuSans-65" x="1999.414062"/>
     <use xlink:href="#DejaVuSans-20" x="2060.9375"/>
     <use xlink:href="#DejaVuSans-63" x="2092.724609"/>
     <use xlink:href="#DejaVuSans-6f" x="2147.705078"/>
     <use xlink:href="#DejaVuSans-6d" x="2208.886719"/>
     <use xlink:href="#DejaVuSans-20" x="2306.298828"/>
     <use xlink:href="#DejaVuSans-33" x="2338.085938"/>
     <use xlink:href="#DejaVuSans-20" x="2401.708984"/>
     <use xlink:href="#DejaVuSans-63" x="2433.496094"/>
     <use xlink:href="#DejaVuSans-61" x="2488.476562"/>
     <use xlink:href="#DejaVuSans-6d" x="2549.755859"/>
     <use xlink:href="#DejaVuSans-61" x="2647.167969"/>
     <use xlink:href="#DejaVuSans-64" x="2708.447266"/>
     <use xlink:href="#DejaVuSans-61" x="2771.923828"/>
     <use xlink:href="#DejaVuSans-73" x="2833.203125"/>
    </g>
   </g>
   <g id="legend_1">
    <g id="patch_7">
     <path d="M 1217.86875 80.55625 
L 1289 80.55625 
Q 1291 80.55625 1291 78.55625 
L 1291 50.2 
Q 1291 48.2 1289 48.2 
L 1217.86875 48.2 
Q 1215.86875 48.2 1215.86875 50.2 
L 1215.86875 78.55625 
Q 1215.86875 80.55625 1217.86875 80.55625 
z
" style="fill: #ffffff; opacity: 0.8; stroke: #cccccc; stroke-linejoin: miter"/>
    </g>
    <g id="line2d_20">
     <path d="M 1219.86875 56.298437 
L 1229.86875 56.298437 
L 1239.86875 56.298437 
" style="fill: none; stroke: #0000ff; stroke-width: 1.5; stroke-linecap: square"/>
    </g>
    <g id="text_21">
     <!-- Predito -->
     <g transform="translate(1247.86875 59.798437) scale(0.1 -0.1)">
      <use xlink:href="#DejaVuSans-50"/>
      <use xlink:href="#DejaVuSans-72" x="58.552734"/>
      <use xlink:href="#DejaVuSans-65" x="97.416016"/>
      <use xlink:href="#DejaVuSans-64" x="158.939453"/>
      <use xlink:href="#DejaVuSans-69" x="222.416016"/>
      <use xlink:href="#DejaVuSans-74" x="250.199219"/>
      <use xlink:href="#DejaVuSans-6f" x="289.408203"/>
     </g>
    </g>
    <g id="line2d_21">
     <path d="M 1219.86875 70.976562 
L 1229.86875 70.976562 
L 1239.86875 70.976562 
" style="fill: none; stroke: #ffa500; stroke-width: 1.5; stroke-linecap: square"/>
    </g>
    <g id="text_22">
     <!-- Original -->
     <g transform="translate(1247.86875 74.476562) scale(0.1 -0.1)">
      <defs>
       <path id="DejaVuSans-4f" d="M 2522 4238 
Q 1834 4238 1429 3725 
Q 1025 3213 1025 2328 
Q 1025 1447 1429 934 
Q 1834 422 2522 422 
Q 3209 422 3611 934 
Q 4013 1447 4013 2328 
Q 4013 3213 3611 3725 
Q 3209 4238 2522 4238 
z
M 2522 4750 
Q 3503 4750 4090 4092 
Q 4678 3434 4678 2328 
Q 4678 1225 4090 567 
Q 3503 -91 2522 -91 
Q 1538 -91 948 565 
Q 359 1222 359 2328 
Q 359 3434 948 4092 
Q 1538 4750 2522 4750 
z
" transform="scale(0.015625)"/>
       <path id="DejaVuSans-67" d="M 2906 1791 
Q 2906 2416 2648 2759 
Q 2391 3103 1925 3103 
Q 1463 3103 1205 2759 
Q 947 2416 947 1791 
Q 947 1169 1205 825 
Q 1463 481 1925 481 
Q 2391 481 2648 825 
Q 2906 1169 2906 1791 
z
M 3481 434 
Q 3481 -459 3084 -895 
Q 2688 -1331 1869 -1331 
Q 1566 -1331 1297 -1286 
Q 1028 -1241 775 -1147 
L 775 -588 
Q 1028 -725 1275 -790 
Q 1522 -856 1778 -856 
Q 2344 -856 2625 -561 
Q 2906 -266 2906 331 
L 2906 616 
Q 2728 306 2450 153 
Q 2172 0 1784 0 
Q 1141 0 747 490 
Q 353 981 353 1791 
Q 353 2603 747 3093 
Q 1141 3584 1784 3584 
Q 2172 3584 2450 3431 
Q 2728 3278 2906 2969 
L 2906 3500 
L 3481 3500 
L 3481 434 
z
" transform="scale(0.015625)"/>
      </defs>
      <use xlink:href="#DejaVuSans-4f"/>
      <use xlink:href="#DejaVuSans-72" x="78.710938"/>
      <use xlink:href="#DejaVuSans-69" x="119.824219"/>
      <use xlink:href="#DejaVuSans-67" x="147.607422"/>
      <use xlink:href="#DejaVuSans-69" x="211.083984"/>
      <use xlink:href="#DejaVuSans-6e" x="238.867188"/>
      <use xlink:href="#DejaVuSans-61" x="302.246094"/>
      <use xlink:href="#DejaVuSans-6c" x="363.525391"/>
     </g>
    </g>
   </g>
  </g>
 </g>
 <defs>
  <clipPath id="pcadb751f58">
   <rect x="180" y="43.2" width="1116" height="277.2"/>
  </clipPath>
 </defs>
</svg>
