<?xml version="1.0" encoding="utf-8" standalone="no"?>
<!DOCTYPE svg PUBLIC "-//W3C//DTD SVG 1.1//EN"
  "http://www.w3.org/Graphics/SVG/1.1/DTD/svg11.dtd">
<svg xmlns:xlink="http://www.w3.org/1999/xlink" width="1440pt" height="360pt" viewBox="0 0 1440 360" xmlns="http://www.w3.org/2000/svg" version="1.1">
 <metadata>
  <rdf:RDF xmlns:dc="http://purl.org/dc/elements/1.1/" xmlns:cc="http://creativecommons.org/ns#" xmlns:rdf="http://www.w3.org/1999/02/22-rdf-syntax-ns#">
   <cc:Work>
    <dc:type rdf:resource="http://purl.org/dc/dcmitype/StillImage"/>
    <dc:date>2023-08-20T14:41:36.264128</dc:date>
    <dc:format>image/svg+xml</dc:format>
    <dc:creator>
     <cc:Agent>
      <dc:title>Matplotlib v3.7.1, https://matplotlib.org/</dc:title>
     </cc:Agent>
    </dc:creator>
   </cc:Work>
  </rdf:RDF>
 </metadata>
 <defs>
  <style type="text/css">*{stroke-linejoin: round; stroke-linecap: butt}</style>
 </defs>
 <g id="figure_1">
  <g id="patch_1">
   <path d="M 0 360 
L 1440 360 
L 1440 0 
L 0 0 
z
" style="fill: #ffffff"/>
  </g>
  <g id="axes_1">
   <g id="patch_2">
    <path d="M 180 320.4 
L 1296 320.4 
L 1296 43.2 
L 180 43.2 
z
" style="fill: #ffffff"/>
   </g>
   <g id="PolyCollection_1">
    <defs>
     <path id="m9de06564e8" d="M 230.727273 -266.966914 
L 230.727273 -185.014763 
L 236.066986 -154.035868 
L 241.406699 -148.293232 
L 246.746411 -161.950338 
L 252.086124 -147.912443 
L 257.425837 -148.069496 
L 262.76555 -149.769623 
L 268.105263 -151.392769 
L 273.444976 -152.022452 
L 278.784689 -144.93777 
L 284.124402 -130.468932 
L 289.464115 -125.991104 
L 294.803828 -71.287101 
L 300.143541 -80.955716 
L 305.483254 -74.603078 
L 310.822967 -63.219325 
L 316.162679 -62.053816 
L 321.502392 -59.167434 
L 326.842105 -55.331947 
L 332.181818 -58.778487 
L 337.521531 -75.415539 
L 342.861244 -88.514333 
L 348.200957 -127.963605 
L 353.54067 -161.964204 
L 358.880383 -182.136743 
L 364.220096 -198.270006 
L 369.559809 -196.936145 
L 374.899522 -195.063785 
L 380.239234 -196.084838 
L 385.578947 -176.84625 
L 390.91866 -161.882482 
L 396.258373 -140.697411 
L 401.598086 -137.733178 
L 406.937799 -135.918554 
L 412.277512 -140.013064 
L 417.617225 -145.722783 
L 422.956938 -104.204641 
L 428.296651 -93.907338 
L 433.636364 -100.072999 
L 438.976077 -105.187568 
L 444.315789 -111.93739 
L 449.655502 -118.486281 
L 454.995215 -105.118886 
L 460.334928 -96.987594 
L 465.674641 -101.989824 
L 471.014354 -100.900684 
L 476.354067 -109.99413 
L 481.69378 -131.046382 
L 487.033493 -183.947603 
L 492.373206 -206.369456 
L 497.712919 -204.96717 
L 503.052632 -193.084067 
L 508.392344 -183.560352 
L 513.732057 -186.065395 
L 519.07177 -183.59396 
L 524.411483 -174.599777 
L 529.751196 -158.147101 
L 535.090909 -162.216844 
L 540.430622 -147.83761 
L 545.770335 -141.353512 
L 551.110048 -94.276072 
L 556.449761 -93.662545 
L 561.789474 -93.86819 
L 567.129187 -97.648311 
L 572.4689 -89.974444 
L 577.808612 -88.479047 
L 583.148325 -69.520849 
L 588.488038 -95.035714 
L 593.827751 -101.327207 
L 599.167464 -108.493407 
L 604.507177 -146.334446 
L 609.84689 -177.382902 
L 615.186603 -196.7414 
L 620.526316 -211.603065 
L 625.866029 -205.826289 
L 631.205742 -195.782558 
L 636.545455 -185.177248 
L 641.885167 -189.95243 
L 647.22488 -167.878716 
L 652.564593 -166.967827 
L 657.904306 -161.254557 
L 663.244019 -150.142636 
L 668.583732 -151.703518 
L 673.923445 -145.984869 
L 679.263158 -102.106761 
L 684.602871 -105.14692 
L 689.942584 -108.066315 
L 695.282297 -104.16133 
L 700.62201 -110.937234 
L 705.961722 -101.181136 
L 711.301435 -88.65459 
L 716.641148 -78.146671 
L 721.980861 -90.359591 
L 727.320574 -93.547978 
L 732.660287 -145.083531 
L 738 -178.275451 
L 743.339713 -185.363275 
L 748.679426 -192.937241 
L 754.019139 -200.062348 
L 759.358852 -198.039346 
L 764.698565 -192.690903 
L 770.038278 -187.6291 
L 775.37799 -179.87296 
L 780.717703 -150.799536 
L 786.057416 -142.680237 
L 791.397129 -149.328932 
L 796.736842 -154.289875 
L 802.076555 -148.093694 
L 807.416268 -82.481233 
L 812.755981 -72.335522 
L 818.095694 -76.706844 
L 823.435407 -52.2 
L 828.77512 -58.605137 
L 834.114833 -74.337593 
L 839.454545 -72.700359 
L 844.794258 -62.277242 
L 850.133971 -68.178421 
L 855.473684 -89.911088 
L 860.813397 -106.606187 
L 866.15311 -139.777699 
L 871.492823 -178.680456 
L 876.832536 -193.265495 
L 882.172249 -182.789915 
L 887.511962 -183.835628 
L 892.851675 -181.209591 
L 898.191388 -171.824234 
L 903.5311 -154.505515 
L 908.870813 -144.323267 
L 914.210526 -151.899612 
L 919.550239 -143.550327 
L 924.889952 -141.795304 
L 930.229665 -144.192686 
L 935.569378 -100.378413 
L 940.909091 -110.399499 
L 946.248804 -101.072632 
L 951.588517 -97.343022 
L 956.92823 -104.499172 
L 962.267943 -100.2737 
L 967.607656 -91.568846 
L 972.947368 -81.233727 
L 978.287081 -82.861418 
L 983.626794 -100.547636 
L 988.966507 -131.683735 
L 994.30622 -160.449713 
L 999.645933 -172.489638 
L 1004.985646 -159.376516 
L 1010.325359 -168.80056 
L 1015.665072 -168.311205 
L 1021.004785 -161.423078 
L 1026.344498 -156.332833 
L 1031.684211 -142.080505 
L 1037.023923 -134.548759 
L 1042.363636 -138.80048 
L 1047.703349 -130.186607 
L 1053.043062 -129.484026 
L 1058.382775 -136.983744 
L 1063.722488 -80.163477 
L 1069.062201 -80.715273 
L 1074.401914 -75.371092 
L 1079.741627 -63.732071 
L 1085.08134 -70.583295 
L 1090.421053 -69.564905 
L 1095.760766 -71.354194 
L 1101.100478 -89.337011 
L 1106.440191 -70.943259 
L 1111.779904 -64.437679 
L 1117.119617 -90.573084 
L 1122.45933 -103.709969 
L 1127.799043 -128.082841 
L 1133.138756 -157.573042 
L 1138.478469 -167.089744 
L 1143.818182 -170.397075 
L 1149.157895 -167.240529 
L 1154.497608 -169.441126 
L 1159.837321 -162.295335 
L 1165.177033 -153.714005 
L 1170.516746 -149.053532 
L 1175.856459 -137.480183 
L 1181.196172 -133.010903 
L 1186.535885 -144.16886 
L 1191.875598 -109.910437 
L 1197.215311 -106.201475 
L 1202.555024 -97.874311 
L 1207.894737 -95.699414 
L 1213.23445 -85.443566 
L 1218.574163 -81.97249 
L 1223.913876 -73.450654 
L 1229.253589 -72.370489 
L 1234.593301 -72.600049 
L 1239.933014 -105.361273 
L 1245.272727 -140.925658 
L 1245.272727 -222.877809 
L 1245.272727 -222.877809 
L 1239.933014 -187.313415 
L 1234.593301 -154.5522 
L 1229.253589 -154.32264 
L 1223.913876 -155.402805 
L 1218.574163 -163.924641 
L 1213.23445 -167.395717 
L 1207.894737 -177.651556 
L 1202.555024 -179.826462 
L 1197.215311 -188.153626 
L 1191.875598 -191.862588 
L 1186.535885 -226.121011 
L 1181.196172 -214.963054 
L 1175.856459 -219.432334 
L 1170.516746 -231.005683 
L 1165.177033 -235.666156 
L 1159.837321 -244.247486 
L 1154.497608 -251.393277 
L 1149.157895 -249.19268 
L 1143.818182 -252.349226 
L 1138.478469 -249.041895 
L 1133.138756 -239.525193 
L 1127.799043 -210.034992 
L 1122.45933 -185.662111 
L 1117.119617 -172.525235 
L 1111.779904 -146.38983 
L 1106.440191 -152.89541 
L 1101.100478 -171.289162 
L 1095.760766 -153.306345 
L 1090.421053 -151.517057 
L 1085.08134 -152.535446 
L 1079.741627 -145.684222 
L 1074.401914 -157.323243 
L 1069.062201 -162.667424 
L 1063.722488 -162.115628 
L 1058.382775 -218.935895 
L 1053.043062 -211.436177 
L 1047.703349 -212.138758 
L 1042.363636 -220.752631 
L 1037.023923 -216.50091 
L 1031.684211 -224.032656 
L 1026.344498 -238.284984 
L 1021.004785 -243.375229 
L 1015.665072 -250.263356 
L 1010.325359 -250.752711 
L 1004.985646 -241.328667 
L 999.645933 -254.441789 
L 994.30622 -242.401864 
L 988.966507 -213.635886 
L 983.626794 -182.499796 
L 978.287081 -164.813569 
L 972.947368 -163.185878 
L 967.607656 -173.521006 
L 962.267943 -182.225851 
L 956.92823 -186.451314 
L 951.588517 -179.295173 
L 946.248804 -183.024783 
L 940.909091 -192.351659 
L 935.569378 -182.330564 
L 930.229665 -226.144837 
L 924.889952 -223.747455 
L 919.550239 -225.502478 
L 914.210526 -233.851763 
L 908.870813 -226.275418 
L 903.5311 -236.457667 
L 898.191388 -253.776385 
L 892.851675 -263.161743 
L 887.511962 -265.787779 
L 882.172249 -264.742066 
L 876.832536 -275.217646 
L 871.492823 -260.632607 
L 866.15311 -221.72985 
L 860.813397 -188.558329 
L 855.473684 -171.863239 
L 850.133971 -150.130572 
L 844.794258 -144.229393 
L 839.454545 -154.65251 
L 834.114833 -156.289744 
L 828.77512 -140.557288 
L 823.435407 -134.152151 
L 818.095694 -158.658995 
L 812.755981 -154.287673 
L 807.416268 -164.433384 
L 802.076555 -230.045845 
L 796.736842 -236.242026 
L 791.397129 -231.281083 
L 786.057416 -224.632388 
L 780.717703 -232.751687 
L 775.37799 -261.825111 
L 770.038278 -269.581251 
L 764.698565 -274.643054 
L 759.358852 -279.991497 
L 754.019139 -282.014499 
L 748.679426 -274.889392 
L 743.339713 -267.315426 
L 738 -260.227602 
L 732.660287 -227.035682 
L 727.320574 -175.500121 
L 721.980861 -172.311742 
L 716.641148 -160.098822 
L 711.301435 -170.60675 
L 705.961722 -183.133296 
L 700.62201 -192.889394 
L 695.282297 -186.11349 
L 689.942584 -190.018458 
L 684.602871 -187.099071 
L 679.263158 -184.058921 
L 673.923445 -227.93702 
L 668.583732 -233.655669 
L 663.244019 -232.094787 
L 657.904306 -243.206708 
L 652.564593 -248.919978 
L 647.22488 -249.830867 
L 641.885167 -271.904581 
L 636.545455 -267.129399 
L 631.205742 -277.734709 
L 625.866029 -287.77844 
L 620.526316 -293.555216 
L 615.186603 -278.693551 
L 609.84689 -259.335053 
L 604.507177 -228.286597 
L 599.167464 -190.445549 
L 593.827751 -183.279358 
L 588.488038 -176.987874 
L 583.148325 -151.473 
L 577.808612 -170.431198 
L 572.4689 -171.926586 
L 567.129187 -179.600453 
L 561.789474 -175.820333 
L 556.449761 -175.614705 
L 551.110048 -176.228214 
L 545.770335 -223.305663 
L 540.430622 -229.789761 
L 535.090909 -244.168995 
L 529.751196 -240.099252 
L 524.411483 -256.551928 
L 519.07177 -265.546111 
L 513.732057 -268.017546 
L 508.392344 -265.512503 
L 503.052632 -275.036218 
L 497.712919 -286.919321 
L 492.373206 -288.321607 
L 487.033493 -265.899754 
L 481.69378 -212.998533 
L 476.354067 -191.946281 
L 471.014354 -182.852835 
L 465.674641 -183.941975 
L 460.334928 -178.939754 
L 454.995215 -187.071037 
L 449.655502 -200.438432 
L 444.315789 -193.88955 
L 438.976077 -187.13971 
L 433.636364 -182.025159 
L 428.296651 -175.859498 
L 422.956938 -186.156792 
L 417.617225 -227.674934 
L 412.277512 -221.965215 
L 406.937799 -217.870706 
L 401.598086 -219.685329 
L 396.258373 -222.649563 
L 390.91866 -243.834633 
L 385.578947 -258.798401 
L 380.239234 -278.036989 
L 374.899522 -277.015936 
L 369.559809 -278.888296 
L 364.220096 -280.222157 
L 358.880383 -264.088894 
L 353.54067 -243.916355 
L 348.200957 -209.915756 
L 342.861244 -170.466493 
L 337.521531 -157.36769 
L 332.181818 -140.730638 
L 326.842105 -137.284098 
L 321.502392 -141.119585 
L 316.162679 -144.005967 
L 310.822967 -145.171476 
L 305.483254 -156.555229 
L 300.143541 -162.907867 
L 294.803828 -153.239252 
L 289.464115 -207.943264 
L 284.124402 -212.421083 
L 278.784689 -226.889922 
L 273.444976 -233.974603 
L 268.105263 -233.34492 
L 262.76555 -231.721774 
L 257.425837 -230.021647 
L 252.086124 -229.864594 
L 246.746411 -243.902489 
L 241.406699 -230.245383 
L 236.066986 -235.988019 
L 230.727273 -266.966914 
z
" style="stroke: #0000ff; stroke-opacity: 0.05"/>
    </defs>
    <g clip-path="url(#pc1c5393444)">
     <use xlink:href="#m9de06564e8" x="0" y="360" style="fill: #0000ff; fill-opacity: 0.05; stroke: #0000ff; stroke-opacity: 0.05"/>
    </g>
   </g>
   <g id="matplotlib.axis_1">
    <g id="xtick_1">
     <g id="line2d_1">
      <defs>
       <path id="mab54922712" d="M 0 0 
L 0 3.5 
" style="stroke: #000000; stroke-width: 0.8"/>
      </defs>
      <g>
       <use xlink:href="#mab54922712" x="230.727273" y="320.4" style="stroke: #000000; stroke-width: 0.8"/>
      </g>
     </g>
     <g id="text_1">
      <!-- 0 -->
      <g transform="translate(227.546023 334.998438) scale(0.1 -0.1)">
       <defs>
        <path id="DejaVuSans-30" d="M 2034 4250 
Q 1547 4250 1301 3770 
Q 1056 3291 1056 2328 
Q 1056 1369 1301 889 
Q 1547 409 2034 409 
Q 2525 409 2770 889 
Q 3016 1369 3016 2328 
Q 3016 3291 2770 3770 
Q 2525 4250 2034 4250 
z
M 2034 4750 
Q 2819 4750 3233 4129 
Q 3647 3509 3647 2328 
Q 3647 1150 3233 529 
Q 2819 -91 2034 -91 
Q 1250 -91 836 529 
Q 422 1150 422 2328 
Q 422 3509 836 4129 
Q 1250 4750 2034 4750 
z
" transform="scale(0.015625)"/>
       </defs>
       <use xlink:href="#DejaVuSans-30"/>
      </g>
     </g>
    </g>
    <g id="xtick_2">
     <g id="line2d_2">
      <g>
       <use xlink:href="#mab54922712" x="364.220096" y="320.4" style="stroke: #000000; stroke-width: 0.8"/>
      </g>
     </g>
     <g id="text_2">
      <!-- 25 -->
      <g transform="translate(357.857596 334.998438) scale(0.1 -0.1)">
       <defs>
        <path id="DejaVuSans-32" d="M 1228 531 
L 3431 531 
L 3431 0 
L 469 0 
L 469 531 
Q 828 903 1448 1529 
Q 2069 2156 2228 2338 
Q 2531 2678 2651 2914 
Q 2772 3150 2772 3378 
Q 2772 3750 2511 3984 
Q 2250 4219 1831 4219 
Q 1534 4219 1204 4116 
Q 875 4013 500 3803 
L 500 4441 
Q 881 4594 1212 4672 
Q 1544 4750 1819 4750 
Q 2544 4750 2975 4387 
Q 3406 4025 3406 3419 
Q 3406 3131 3298 2873 
Q 3191 2616 2906 2266 
Q 2828 2175 2409 1742 
Q 1991 1309 1228 531 
z
" transform="scale(0.015625)"/>
        <path id="DejaVuSans-35" d="M 691 4666 
L 3169 4666 
L 3169 4134 
L 1269 4134 
L 1269 2991 
Q 1406 3038 1543 3061 
Q 1681 3084 1819 3084 
Q 2600 3084 3056 2656 
Q 3513 2228 3513 1497 
Q 3513 744 3044 326 
Q 2575 -91 1722 -91 
Q 1428 -91 1123 -41 
Q 819 9 494 109 
L 494 744 
Q 775 591 1075 516 
Q 1375 441 1709 441 
Q 2250 441 2565 725 
Q 2881 1009 2881 1497 
Q 2881 1984 2565 2268 
Q 2250 2553 1709 2553 
Q 1456 2553 1204 2497 
Q 953 2441 691 2322 
L 691 4666 
z
" transform="scale(0.015625)"/>
       </defs>
       <use xlink:href="#DejaVuSans-32"/>
       <use xlink:href="#DejaVuSans-35" x="63.623047"/>
      </g>
     </g>
    </g>
    <g id="xtick_3">
     <g id="line2d_3">
      <g>
       <use xlink:href="#mab54922712" x="497.712919" y="320.4" style="stroke: #000000; stroke-width: 0.8"/>
      </g>
     </g>
     <g id="text_3">
      <!-- 50 -->
      <g transform="translate(491.350419 334.998438) scale(0.1 -0.1)">
       <use xlink:href="#DejaVuSans-35"/>
       <use xlink:href="#DejaVuSans-30" x="63.623047"/>
      </g>
     </g>
    </g>
    <g id="xtick_4">
     <g id="line2d_4">
      <g>
       <use xlink:href="#mab54922712" x="631.205742" y="320.4" style="stroke: #000000; stroke-width: 0.8"/>
      </g>
     </g>
     <g id="text_4">
      <!-- 75 -->
      <g transform="translate(624.843242 334.998438) scale(0.1 -0.1)">
       <defs>
        <path id="DejaVuSans-37" d="M 525 4666 
L 3525 4666 
L 3525 4397 
L 1831 0 
L 1172 0 
L 2766 4134 
L 525 4134 
L 525 4666 
z
" transform="scale(0.015625)"/>
       </defs>
       <use xlink:href="#DejaVuSans-37"/>
       <use xlink:href="#DejaVuSans-35" x="63.623047"/>
      </g>
     </g>
    </g>
    <g id="xtick_5">
     <g id="line2d_5">
      <g>
       <use xlink:href="#mab54922712" x="764.698565" y="320.4" style="stroke: #000000; stroke-width: 0.8"/>
      </g>
     </g>
     <g id="text_5">
      <!-- 100 -->
      <g transform="translate(755.154815 334.998438) scale(0.1 -0.1)">
       <defs>
        <path id="DejaVuSans-31" d="M 794 531 
L 1825 531 
L 1825 4091 
L 703 3866 
L 703 4441 
L 1819 4666 
L 2450 4666 
L 2450 531 
L 3481 531 
L 3481 0 
L 794 0 
L 794 531 
z
" transform="scale(0.015625)"/>
       </defs>
       <use xlink:href="#DejaVuSans-31"/>
       <use xlink:href="#DejaVuSans-30" x="63.623047"/>
       <use xlink:href="#DejaVuSans-30" x="127.246094"/>
      </g>
     </g>
    </g>
    <g id="xtick_6">
     <g id="line2d_6">
      <g>
       <use xlink:href="#mab54922712" x="898.191388" y="320.4" style="stroke: #000000; stroke-width: 0.8"/>
      </g>
     </g>
     <g id="text_6">
      <!-- 125 -->
      <g transform="translate(888.647638 334.998438) scale(0.1 -0.1)">
       <use xlink:href="#DejaVuSans-31"/>
       <use xlink:href="#DejaVuSans-32" x="63.623047"/>
       <use xlink:href="#DejaVuSans-35" x="127.246094"/>
      </g>
     </g>
    </g>
    <g id="xtick_7">
     <g id="line2d_7">
      <g>
       <use xlink:href="#mab54922712" x="1031.684211" y="320.4" style="stroke: #000000; stroke-width: 0.8"/>
      </g>
     </g>
     <g id="text_7">
      <!-- 150 -->
      <g transform="translate(1022.140461 334.998438) scale(0.1 -0.1)">
       <use xlink:href="#DejaVuSans-31"/>
       <use xlink:href="#DejaVuSans-35" x="63.623047"/>
       <use xlink:href="#DejaVuSans-30" x="127.246094"/>
      </g>
     </g>
    </g>
    <g id="xtick_8">
     <g id="line2d_8">
      <g>
       <use xlink:href="#mab54922712" x="1165.177033" y="320.4" style="stroke: #000000; stroke-width: 0.8"/>
      </g>
     </g>
     <g id="text_8">
      <!-- 175 -->
      <g transform="translate(1155.633283 334.998438) scale(0.1 -0.1)">
       <use xlink:href="#DejaVuSans-31"/>
       <use xlink:href="#DejaVuSans-37" x="63.623047"/>
       <use xlink:href="#DejaVuSans-35" x="127.246094"/>
      </g>
     </g>
    </g>
    <g id="text_9">
     <!-- Amostras -->
     <g transform="translate(714.360937 348.676562) scale(0.1 -0.1)">
      <defs>
       <path id="DejaVuSans-41" d="M 2188 4044 
L 1331 1722 
L 3047 1722 
L 2188 4044 
z
M 1831 4666 
L 2547 4666 
L 4325 0 
L 3669 0 
L 3244 1197 
L 1141 1197 
L 716 0 
L 50 0 
L 1831 4666 
z
" transform="scale(0.015625)"/>
       <path id="DejaVuSans-6d" d="M 3328 2828 
Q 3544 3216 3844 3400 
Q 4144 3584 4550 3584 
Q 5097 3584 5394 3201 
Q 5691 2819 5691 2113 
L 5691 0 
L 5113 0 
L 5113 2094 
Q 5113 2597 4934 2840 
Q 4756 3084 4391 3084 
Q 3944 3084 3684 2787 
Q 3425 2491 3425 1978 
L 3425 0 
L 2847 0 
L 2847 2094 
Q 2847 2600 2669 2842 
Q 2491 3084 2119 3084 
Q 1678 3084 1418 2786 
Q 1159 2488 1159 1978 
L 1159 0 
L 581 0 
L 581 3500 
L 1159 3500 
L 1159 2956 
Q 1356 3278 1631 3431 
Q 1906 3584 2284 3584 
Q 2666 3584 2933 3390 
Q 3200 3197 3328 2828 
z
" transform="scale(0.015625)"/>
       <path id="DejaVuSans-6f" d="M 1959 3097 
Q 1497 3097 1228 2736 
Q 959 2375 959 1747 
Q 959 1119 1226 758 
Q 1494 397 1959 397 
Q 2419 397 2687 759 
Q 2956 1122 2956 1747 
Q 2956 2369 2687 2733 
Q 2419 3097 1959 3097 
z
M 1959 3584 
Q 2709 3584 3137 3096 
Q 3566 2609 3566 1747 
Q 3566 888 3137 398 
Q 2709 -91 1959 -91 
Q 1206 -91 779 398 
Q 353 888 353 1747 
Q 353 2609 779 3096 
Q 1206 3584 1959 3584 
z
" transform="scale(0.015625)"/>
       <path id="DejaVuSans-73" d="M 2834 3397 
L 2834 2853 
Q 2591 2978 2328 3040 
Q 2066 3103 1784 3103 
Q 1356 3103 1142 2972 
Q 928 2841 928 2578 
Q 928 2378 1081 2264 
Q 1234 2150 1697 2047 
L 1894 2003 
Q 2506 1872 2764 1633 
Q 3022 1394 3022 966 
Q 3022 478 2636 193 
Q 2250 -91 1575 -91 
Q 1294 -91 989 -36 
Q 684 19 347 128 
L 347 722 
Q 666 556 975 473 
Q 1284 391 1588 391 
Q 1994 391 2212 530 
Q 2431 669 2431 922 
Q 2431 1156 2273 1281 
Q 2116 1406 1581 1522 
L 1381 1569 
Q 847 1681 609 1914 
Q 372 2147 372 2553 
Q 372 3047 722 3315 
Q 1072 3584 1716 3584 
Q 2034 3584 2315 3537 
Q 2597 3491 2834 3397 
z
" transform="scale(0.015625)"/>
       <path id="DejaVuSans-74" d="M 1172 4494 
L 1172 3500 
L 2356 3500 
L 2356 3053 
L 1172 3053 
L 1172 1153 
Q 1172 725 1289 603 
Q 1406 481 1766 481 
L 2356 481 
L 2356 0 
L 1766 0 
Q 1100 0 847 248 
Q 594 497 594 1153 
L 594 3053 
L 172 3053 
L 172 3500 
L 594 3500 
L 594 4494 
L 1172 4494 
z
" transform="scale(0.015625)"/>
       <path id="DejaVuSans-72" d="M 2631 2963 
Q 2534 3019 2420 3045 
Q 2306 3072 2169 3072 
Q 1681 3072 1420 2755 
Q 1159 2438 1159 1844 
L 1159 0 
L 581 0 
L 581 3500 
L 1159 3500 
L 1159 2956 
Q 1341 3275 1631 3429 
Q 1922 3584 2338 3584 
Q 2397 3584 2469 3576 
Q 2541 3569 2628 3553 
L 2631 2963 
z
" transform="scale(0.015625)"/>
       <path id="DejaVuSans-61" d="M 2194 1759 
Q 1497 1759 1228 1600 
Q 959 1441 959 1056 
Q 959 750 1161 570 
Q 1363 391 1709 391 
Q 2188 391 2477 730 
Q 2766 1069 2766 1631 
L 2766 1759 
L 2194 1759 
z
M 3341 1997 
L 3341 0 
L 2766 0 
L 2766 531 
Q 2569 213 2275 61 
Q 1981 -91 1556 -91 
Q 1019 -91 701 211 
Q 384 513 384 1019 
Q 384 1609 779 1909 
Q 1175 2209 1959 2209 
L 2766 2209 
L 2766 2266 
Q 2766 2663 2505 2880 
Q 2244 3097 1772 3097 
Q 1472 3097 1187 3025 
Q 903 2953 641 2809 
L 641 3341 
Q 956 3463 1253 3523 
Q 1550 3584 1831 3584 
Q 2591 3584 2966 3190 
Q 3341 2797 3341 1997 
z
" transform="scale(0.015625)"/>
      </defs>
      <use xlink:href="#DejaVuSans-41"/>
      <use xlink:href="#DejaVuSans-6d" x="68.408203"/>
      <use xlink:href="#DejaVuSans-6f" x="165.820312"/>
      <use xlink:href="#DejaVuSans-73" x="227.001953"/>
      <use xlink:href="#DejaVuSans-74" x="279.101562"/>
      <use xlink:href="#DejaVuSans-72" x="318.310547"/>
      <use xlink:href="#DejaVuSans-61" x="359.423828"/>
      <use xlink:href="#DejaVuSans-73" x="420.703125"/>
     </g>
    </g>
   </g>
   <g id="matplotlib.axis_2">
    <g id="ytick_1">
     <g id="line2d_9">
      <defs>
       <path id="m6149a141c1" d="M 0 0 
L -3.5 0 
" style="stroke: #000000; stroke-width: 0.8"/>
      </defs>
      <g>
       <use xlink:href="#m6149a141c1" x="180" y="303.65759" style="stroke: #000000; stroke-width: 0.8"/>
      </g>
     </g>
     <g id="text_10">
      <!-- 2 -->
      <g transform="translate(166.6375 307.456809) scale(0.1 -0.1)">
       <use xlink:href="#DejaVuSans-32"/>
      </g>
     </g>
    </g>
    <g id="ytick_2">
     <g id="line2d_10">
      <g>
       <use xlink:href="#m6149a141c1" x="180" y="266.424654" style="stroke: #000000; stroke-width: 0.8"/>
      </g>
     </g>
     <g id="text_11">
      <!-- 4 -->
      <g transform="translate(166.6375 270.223872) scale(0.1 -0.1)">
       <defs>
        <path id="DejaVuSans-34" d="M 2419 4116 
L 825 1625 
L 2419 1625 
L 2419 4116 
z
M 2253 4666 
L 3047 4666 
L 3047 1625 
L 3713 1625 
L 3713 1100 
L 3047 1100 
L 3047 0 
L 2419 0 
L 2419 1100 
L 313 1100 
L 313 1709 
L 2253 4666 
z
" transform="scale(0.015625)"/>
       </defs>
       <use xlink:href="#DejaVuSans-34"/>
      </g>
     </g>
    </g>
    <g id="ytick_3">
     <g id="line2d_11">
      <g>
       <use xlink:href="#m6149a141c1" x="180" y="229.191717" style="stroke: #000000; stroke-width: 0.8"/>
      </g>
     </g>
     <g id="text_12">
      <!-- 6 -->
      <g transform="translate(166.6375 232.990936) scale(0.1 -0.1)">
       <defs>
        <path id="DejaVuSans-36" d="M 2113 2584 
Q 1688 2584 1439 2293 
Q 1191 2003 1191 1497 
Q 1191 994 1439 701 
Q 1688 409 2113 409 
Q 2538 409 2786 701 
Q 3034 994 3034 1497 
Q 3034 2003 2786 2293 
Q 2538 2584 2113 2584 
z
M 3366 4563 
L 3366 3988 
Q 3128 4100 2886 4159 
Q 2644 4219 2406 4219 
Q 1781 4219 1451 3797 
Q 1122 3375 1075 2522 
Q 1259 2794 1537 2939 
Q 1816 3084 2150 3084 
Q 2853 3084 3261 2657 
Q 3669 2231 3669 1497 
Q 3669 778 3244 343 
Q 2819 -91 2113 -91 
Q 1303 -91 875 529 
Q 447 1150 447 2328 
Q 447 3434 972 4092 
Q 1497 4750 2381 4750 
Q 2619 4750 2861 4703 
Q 3103 4656 3366 4563 
z
" transform="scale(0.015625)"/>
       </defs>
       <use xlink:href="#DejaVuSans-36"/>
      </g>
     </g>
    </g>
    <g id="ytick_4">
     <g id="line2d_12">
      <g>
       <use xlink:href="#m6149a141c1" x="180" y="191.958781" style="stroke: #000000; stroke-width: 0.8"/>
      </g>
     </g>
     <g id="text_13">
      <!-- 8 -->
      <g transform="translate(166.6375 195.758) scale(0.1 -0.1)">
       <defs>
        <path id="DejaVuSans-38" d="M 2034 2216 
Q 1584 2216 1326 1975 
Q 1069 1734 1069 1313 
Q 1069 891 1326 650 
Q 1584 409 2034 409 
Q 2484 409 2743 651 
Q 3003 894 3003 1313 
Q 3003 1734 2745 1975 
Q 2488 2216 2034 2216 
z
M 1403 2484 
Q 997 2584 770 2862 
Q 544 3141 544 3541 
Q 544 4100 942 4425 
Q 1341 4750 2034 4750 
Q 2731 4750 3128 4425 
Q 3525 4100 3525 3541 
Q 3525 3141 3298 2862 
Q 3072 2584 2669 2484 
Q 3125 2378 3379 2068 
Q 3634 1759 3634 1313 
Q 3634 634 3220 271 
Q 2806 -91 2034 -91 
Q 1263 -91 848 271 
Q 434 634 434 1313 
Q 434 1759 690 2068 
Q 947 2378 1403 2484 
z
M 1172 3481 
Q 1172 3119 1398 2916 
Q 1625 2713 2034 2713 
Q 2441 2713 2670 2916 
Q 2900 3119 2900 3481 
Q 2900 3844 2670 4047 
Q 2441 4250 2034 4250 
Q 1625 4250 1398 4047 
Q 1172 3844 1172 3481 
z
" transform="scale(0.015625)"/>
       </defs>
       <use xlink:href="#DejaVuSans-38"/>
      </g>
     </g>
    </g>
    <g id="ytick_5">
     <g id="line2d_13">
      <g>
       <use xlink:href="#m6149a141c1" x="180" y="154.725844" style="stroke: #000000; stroke-width: 0.8"/>
      </g>
     </g>
     <g id="text_14">
      <!-- 10 -->
      <g transform="translate(160.275 158.525063) scale(0.1 -0.1)">
       <use xlink:href="#DejaVuSans-31"/>
       <use xlink:href="#DejaVuSans-30" x="63.623047"/>
      </g>
     </g>
    </g>
    <g id="ytick_6">
     <g id="line2d_14">
      <g>
       <use xlink:href="#m6149a141c1" x="180" y="117.492908" style="stroke: #000000; stroke-width: 0.8"/>
      </g>
     </g>
     <g id="text_15">
      <!-- 12 -->
      <g transform="translate(160.275 121.292127) scale(0.1 -0.1)">
       <use xlink:href="#DejaVuSans-31"/>
       <use xlink:href="#DejaVuSans-32" x="63.623047"/>
      </g>
     </g>
    </g>
    <g id="ytick_7">
     <g id="line2d_15">
      <g>
       <use xlink:href="#m6149a141c1" x="180" y="80.259972" style="stroke: #000000; stroke-width: 0.8"/>
      </g>
     </g>
     <g id="text_16">
      <!-- 14 -->
      <g transform="translate(160.275 84.05919) scale(0.1 -0.1)">
       <use xlink:href="#DejaVuSans-31"/>
       <use xlink:href="#DejaVuSans-34" x="63.623047"/>
      </g>
     </g>
    </g>
    <g id="text_17">
     <!-- Velocidade do Vento (m/s) -->
     <g transform="translate(154.195312 247.344531) rotate(-90) scale(0.1 -0.1)">
      <defs>
       <path id="DejaVuSans-56" d="M 1831 0 
L 50 4666 
L 709 4666 
L 2188 738 
L 3669 4666 
L 4325 4666 
L 2547 0 
L 1831 0 
z
" transform="scale(0.015625)"/>
       <path id="DejaVuSans-65" d="M 3597 1894 
L 3597 1613 
L 953 1613 
Q 991 1019 1311 708 
Q 1631 397 2203 397 
Q 2534 397 2845 478 
Q 3156 559 3463 722 
L 3463 178 
Q 3153 47 2828 -22 
Q 2503 -91 2169 -91 
Q 1331 -91 842 396 
Q 353 884 353 1716 
Q 353 2575 817 3079 
Q 1281 3584 2069 3584 
Q 2775 3584 3186 3129 
Q 3597 2675 3597 1894 
z
M 3022 2063 
Q 3016 2534 2758 2815 
Q 2500 3097 2075 3097 
Q 1594 3097 1305 2825 
Q 1016 2553 972 2059 
L 3022 2063 
z
" transform="scale(0.015625)"/>
       <path id="DejaVuSans-6c" d="M 603 4863 
L 1178 4863 
L 1178 0 
L 603 0 
L 603 4863 
z
" transform="scale(0.015625)"/>
       <path id="DejaVuSans-63" d="M 3122 3366 
L 3122 2828 
Q 2878 2963 2633 3030 
Q 2388 3097 2138 3097 
Q 1578 3097 1268 2742 
Q 959 2388 959 1747 
Q 959 1106 1268 751 
Q 1578 397 2138 397 
Q 2388 397 2633 464 
Q 2878 531 3122 666 
L 3122 134 
Q 2881 22 2623 -34 
Q 2366 -91 2075 -91 
Q 1284 -91 818 406 
Q 353 903 353 1747 
Q 353 2603 823 3093 
Q 1294 3584 2113 3584 
Q 2378 3584 2631 3529 
Q 2884 3475 3122 3366 
z
" transform="scale(0.015625)"/>
       <path id="DejaVuSans-69" d="M 603 3500 
L 1178 3500 
L 1178 0 
L 603 0 
L 603 3500 
z
M 603 4863 
L 1178 4863 
L 1178 4134 
L 603 4134 
L 603 4863 
z
" transform="scale(0.015625)"/>
       <path id="DejaVuSans-64" d="M 2906 2969 
L 2906 4863 
L 3481 4863 
L 3481 0 
L 2906 0 
L 2906 525 
Q 2725 213 2448 61 
Q 2172 -91 1784 -91 
Q 1150 -91 751 415 
Q 353 922 353 1747 
Q 353 2572 751 3078 
Q 1150 3584 1784 3584 
Q 2172 3584 2448 3432 
Q 2725 3281 2906 2969 
z
M 947 1747 
Q 947 1113 1208 752 
Q 1469 391 1925 391 
Q 2381 391 2643 752 
Q 2906 1113 2906 1747 
Q 2906 2381 2643 2742 
Q 2381 3103 1925 3103 
Q 1469 3103 1208 2742 
Q 947 2381 947 1747 
z
" transform="scale(0.015625)"/>
       <path id="DejaVuSans-20" transform="scale(0.015625)"/>
       <path id="DejaVuSans-6e" d="M 3513 2113 
L 3513 0 
L 2938 0 
L 2938 2094 
Q 2938 2591 2744 2837 
Q 2550 3084 2163 3084 
Q 1697 3084 1428 2787 
Q 1159 2491 1159 1978 
L 1159 0 
L 581 0 
L 581 3500 
L 1159 3500 
L 1159 2956 
Q 1366 3272 1645 3428 
Q 1925 3584 2291 3584 
Q 2894 3584 3203 3211 
Q 3513 2838 3513 2113 
z
" transform="scale(0.015625)"/>
       <path id="DejaVuSans-28" d="M 1984 4856 
Q 1566 4138 1362 3434 
Q 1159 2731 1159 2009 
Q 1159 1288 1364 580 
Q 1569 -128 1984 -844 
L 1484 -844 
Q 1016 -109 783 600 
Q 550 1309 550 2009 
Q 550 2706 781 3412 
Q 1013 4119 1484 4856 
L 1984 4856 
z
" transform="scale(0.015625)"/>
       <path id="DejaVuSans-2f" d="M 1625 4666 
L 2156 4666 
L 531 -594 
L 0 -594 
L 1625 4666 
z
" transform="scale(0.015625)"/>
       <path id="DejaVuSans-29" d="M 513 4856 
L 1013 4856 
Q 1481 4119 1714 3412 
Q 1947 2706 1947 2009 
Q 1947 1309 1714 600 
Q 1481 -109 1013 -844 
L 513 -844 
Q 928 -128 1133 580 
Q 1338 1288 1338 2009 
Q 1338 2731 1133 3434 
Q 928 4138 513 4856 
z
" transform="scale(0.015625)"/>
      </defs>
      <use xlink:href="#DejaVuSans-56"/>
      <use xlink:href="#DejaVuSans-65" x="60.658203"/>
      <use xlink:href="#DejaVuSans-6c" x="122.181641"/>
      <use xlink:href="#DejaVuSans-6f" x="149.964844"/>
      <use xlink:href="#DejaVuSans-63" x="211.146484"/>
      <use xlink:href="#DejaVuSans-69" x="266.126953"/>
      <use xlink:href="#DejaVuSans-64" x="293.910156"/>
      <use xlink:href="#DejaVuSans-61" x="357.386719"/>
      <use xlink:href="#DejaVuSans-64" x="418.666016"/>
      <use xlink:href="#DejaVuSans-65" x="482.142578"/>
      <use xlink:href="#DejaVuSans-20" x="543.666016"/>
      <use xlink:href="#DejaVuSans-64" x="575.453125"/>
      <use xlink:href="#DejaVuSans-6f" x="638.929688"/>
      <use xlink:href="#DejaVuSans-20" x="700.111328"/>
      <use xlink:href="#DejaVuSans-56" x="731.898438"/>
      <use xlink:href="#DejaVuSans-65" x="792.556641"/>
      <use xlink:href="#DejaVuSans-6e" x="854.080078"/>
      <use xlink:href="#DejaVuSans-74" x="917.458984"/>
      <use xlink:href="#DejaVuSans-6f" x="956.667969"/>
      <use xlink:href="#DejaVuSans-20" x="1017.849609"/>
      <use xlink:href="#DejaVuSans-28" x="1049.636719"/>
      <use xlink:href="#DejaVuSans-6d" x="1088.650391"/>
      <use xlink:href="#DejaVuSans-2f" x="1186.0625"/>
      <use xlink:href="#DejaVuSans-73" x="1219.753906"/>
      <use xlink:href="#DejaVuSans-29" x="1271.853516"/>
     </g>
    </g>
   </g>
   <g id="line2d_16">
    <path d="M 230.727273 134.009161 
L 236.066986 164.988057 
L 241.406699 170.730692 
L 246.746411 157.073586 
L 252.086124 171.111481 
L 257.425837 170.954429 
L 268.105263 167.631155 
L 273.444976 167.001472 
L 278.784689 174.086154 
L 284.124402 188.554993 
L 289.464115 193.032821 
L 294.803828 247.736823 
L 300.143541 238.068208 
L 305.483254 244.420846 
L 310.822967 255.8046 
L 316.162679 256.970108 
L 321.502392 259.856491 
L 326.842105 263.691977 
L 332.181818 260.245437 
L 337.521531 243.608386 
L 342.861244 230.509591 
L 348.200957 191.06032 
L 353.54067 157.059721 
L 358.880383 136.887181 
L 364.220096 120.753918 
L 369.559809 122.08778 
L 374.899522 123.960139 
L 380.239234 122.939086 
L 385.578947 142.177674 
L 390.91866 157.141442 
L 396.258373 178.326513 
L 401.598086 181.290747 
L 406.937799 183.10537 
L 412.277512 179.010861 
L 417.617225 173.301141 
L 422.956938 214.819283 
L 428.296651 225.116586 
L 433.636364 218.950925 
L 438.976077 213.836357 
L 444.315789 207.086534 
L 449.655502 200.537643 
L 454.995215 213.905038 
L 460.334928 222.03633 
L 465.674641 217.034101 
L 471.014354 218.12324 
L 476.354067 209.029795 
L 481.69378 187.977542 
L 487.033493 135.076322 
L 492.373206 112.654469 
L 497.712919 114.056754 
L 503.052632 125.939858 
L 508.392344 135.463573 
L 513.732057 132.95853 
L 519.07177 135.429964 
L 524.411483 144.424147 
L 529.751196 160.876823 
L 535.090909 156.80708 
L 540.430622 171.186314 
L 545.770335 177.670412 
L 551.110048 224.747853 
L 556.449761 225.361379 
L 561.789474 225.155734 
L 567.129187 221.375613 
L 572.4689 229.049481 
L 577.808612 230.544878 
L 583.148325 249.503076 
L 588.488038 223.98821 
L 593.827751 217.696717 
L 599.167464 210.530518 
L 604.507177 172.689479 
L 609.84689 141.641023 
L 615.186603 122.282524 
L 620.526316 107.420859 
L 625.866029 113.197636 
L 631.205742 123.241367 
L 636.545455 133.846676 
L 641.885167 129.071494 
L 647.22488 151.145208 
L 652.564593 152.056097 
L 657.904306 157.769368 
L 663.244019 168.881289 
L 668.583732 167.320406 
L 673.923445 173.039056 
L 679.263158 216.917164 
L 689.942584 210.957609 
L 695.282297 214.862594 
L 700.62201 208.086691 
L 705.961722 217.842789 
L 711.301435 230.369334 
L 716.641148 240.877254 
L 721.980861 228.664333 
L 727.320574 225.475946 
L 732.660287 173.940393 
L 738 140.748473 
L 743.339713 133.660649 
L 748.679426 126.086684 
L 754.019139 118.961576 
L 759.358852 120.984579 
L 764.698565 126.333021 
L 770.038278 131.394824 
L 775.37799 139.150964 
L 780.717703 168.224389 
L 786.057416 176.343688 
L 791.397129 169.694992 
L 796.736842 164.73405 
L 802.076555 170.93023 
L 807.416268 236.542692 
L 812.755981 246.688402 
L 818.095694 242.317081 
L 823.435407 266.823924 
L 828.77512 260.418788 
L 834.114833 244.686332 
L 839.454545 246.323565 
L 844.794258 256.746683 
L 850.133971 250.845504 
L 855.473684 229.112836 
L 860.813397 212.417738 
L 866.15311 179.246226 
L 871.492823 140.343468 
L 876.832536 125.758429 
L 882.172249 136.23401 
L 887.511962 135.188296 
L 892.851675 137.814333 
L 898.191388 147.199691 
L 903.5311 164.518409 
L 908.870813 174.700657 
L 914.210526 167.124313 
L 919.550239 175.473597 
L 924.889952 177.22862 
L 930.229665 174.831238 
L 935.569378 218.645511 
L 940.909091 208.624425 
L 946.248804 217.951292 
L 951.588517 221.680903 
L 956.92823 214.524752 
L 962.267943 218.750225 
L 967.607656 227.455079 
L 972.947368 237.790198 
L 978.287081 236.162507 
L 983.626794 218.476289 
L 988.966507 187.34019 
L 994.30622 158.574212 
L 999.645933 146.534287 
L 1004.985646 159.647409 
L 1010.325359 150.223365 
L 1015.665072 150.71272 
L 1021.004785 157.600846 
L 1026.344498 162.691091 
L 1031.684211 176.943419 
L 1037.023923 184.475166 
L 1042.363636 180.223444 
L 1047.703349 188.837318 
L 1053.043062 189.539898 
L 1058.382775 182.04018 
L 1063.722488 238.860447 
L 1069.062201 238.308652 
L 1074.401914 243.652833 
L 1079.741627 255.291854 
L 1085.08134 248.440629 
L 1090.421053 249.459019 
L 1095.760766 247.669731 
L 1101.100478 229.686913 
L 1106.440191 248.080666 
L 1111.779904 254.586246 
L 1117.119617 228.450841 
L 1122.45933 215.313955 
L 1127.799043 190.941083 
L 1133.138756 161.450882 
L 1138.478469 151.93418 
L 1143.818182 148.62685 
L 1149.157895 151.783395 
L 1154.497608 149.582799 
L 1159.837321 156.72859 
L 1165.177033 165.30992 
L 1170.516746 169.970393 
L 1175.856459 181.543742 
L 1181.196172 186.013021 
L 1186.535885 174.855064 
L 1191.875598 209.113487 
L 1197.215311 212.82245 
L 1202.555024 221.149613 
L 1207.894737 223.324511 
L 1213.23445 233.580358 
L 1218.574163 237.051434 
L 1223.913876 245.57327 
L 1229.253589 246.653436 
L 1234.593301 246.423876 
L 1239.933014 213.662651 
L 1245.272727 178.098267 
L 1245.272727 178.098267 
" clip-path="url(#pc1c5393444)" style="fill: none; stroke: #0000ff; stroke-width: 1.5; stroke-linecap: square"/>
   </g>
   <g id="line2d_17">
    <path d="M 230.727273 168.346893 
L 236.066986 178.286019 
L 241.406699 161.014073 
L 246.746411 180.406228 
L 252.086124 177.768895 
L 257.425837 173.942177 
L 262.76555 167.354015 
L 268.105263 162.017294 
L 273.444976 170.125801 
L 278.784689 196.375021 
L 284.124402 207.555244 
L 289.464115 228.767676 
L 294.803828 216.966903 
L 300.143541 229.233087 
L 305.483254 245.863799 
L 310.822967 249.278616 
L 316.162679 258.978066 
L 321.502392 269.775618 
L 326.842105 268.017396 
L 332.181818 253.155249 
L 337.521531 241.313107 
L 342.861244 193.717002 
L 348.200957 152.967623 
L 353.54067 125.373879 
L 358.880383 99.486646 
L 364.220096 101.699937 
L 369.559809 102.413569 
L 374.899522 100.272675 
L 380.239234 129.41779 
L 385.578947 149.213302 
L 390.91866 180.095954 
L 396.258373 184.636303 
L 401.598086 186.063566 
L 406.937799 174.655808 
L 412.277512 153.784679 
L 417.617225 175.193617 
L 422.956938 193.065425 
L 428.296651 190.510833 
L 433.636364 188.160159 
L 438.976077 183.828322 
L 444.315789 179.279059 
L 449.655502 202.683935 
L 454.995215 213.760734 
L 460.334928 207.596614 
L 465.674641 214.484707 
L 471.014354 212.374841 
L 476.354067 189.600695 
L 481.69378 125.456619 
L 487.033493 85.172651 
L 492.373206 82.214701 
L 497.712919 100.996648 
L 503.052632 117.813525 
L 508.392344 107.450358 
L 513.732057 102.237746 
L 519.07177 114.152285 
L 524.411483 144.135143 
L 529.751196 128.704159 
L 535.090909 155.656668 
L 540.430622 170.094774 
L 545.770335 185.670552 
L 551.110048 190.66597 
L 556.449761 196.116458 
L 561.789474 195.888925 
L 567.129187 210.213262 
L 572.4689 216.873821 
L 577.808612 251.541822 
L 583.148325 217.142725 
L 588.488038 207.917231 
L 593.827751 205.424693 
L 599.167464 164.74771 
L 604.507177 125.518675 
L 609.84689 97.014793 
L 615.186603 55.8 
L 620.526316 70.589751 
L 625.866029 83.517854 
L 631.205742 103.147885 
L 636.545455 99.197057 
L 641.885167 136.326568 
L 647.22488 134.16499 
L 652.564593 137.888284 
L 657.904306 157.787219 
L 663.244019 145.614117 
L 668.583732 155.646325 
L 673.923445 167.105797 
L 679.263158 166.49559 
L 684.602871 167.612578 
L 689.942584 178.585951 
L 695.282297 174.262794 
L 700.62201 193.49981 
L 705.961722 216.791081 
L 711.301435 231.642885 
L 716.641148 216.149847 
L 721.980861 219.842114 
L 727.320574 163.268735 
L 732.660287 119.902706 
L 738 110.853034 
L 743.339713 97.480204 
L 748.679426 75.140443 
L 754.019139 81.387303 
L 759.358852 90.067672 
L 764.698565 98.524795 
L 770.038278 108.846593 
L 775.37799 161.841472 
L 780.717703 176.021016 
L 786.057416 159.969483 
L 791.397129 134.361496 
L 796.736842 143.090552 
L 802.076555 192.362138 
L 807.416268 246.505032 
L 812.755981 251.872781 
L 818.095694 257.540462 
L 823.435407 246.587773 
L 828.77512 224.185955 
L 834.114833 228.385004 
L 839.454545 249.628462 
L 844.794258 246.727229 
L 850.133971 229.00878 
L 855.473684 212.395526 
L 860.813397 167.364358 
L 866.15311 108.101934 
L 871.492823 83.16621 
L 876.832536 100.748429 
L 882.172249 93.839651 
L 887.511962 93.467322 
L 892.851675 115.445096 
L 898.191388 148.892685 
L 903.5311 168.543401 
L 908.870813 150.382002 
L 914.210526 165.564766 
L 919.550239 168.533059 
L 924.889952 154.45694 
L 930.229665 159.090373 
L 935.569378 148.282478 
L 940.909091 169.96032 
L 946.248804 182.764314 
L 951.588517 178.079169 
L 956.92823 192.765493 
L 962.267943 212.695458 
L 967.607656 236.131523 
L 972.947368 233.607957 
L 978.287081 214.639845 
L 983.626794 171.977105 
L 988.966507 130.317586 
L 994.30622 106.385082 
L 999.645933 136.87472 
L 1004.985646 120.119898 
L 1010.325359 117.803183 
L 1015.665072 132.189575 
L 1021.004785 139.615477 
L 1026.344498 167.312646 
L 1031.684211 183.839932 
L 1037.023923 173.45608 
L 1042.363636 195.940636 
L 1047.703349 201.711742 
L 1053.043062 174.117999 
L 1058.382775 196.333651 
L 1063.722488 196.809405 
L 1069.062201 213.688336 
L 1074.401914 243.050644 
L 1079.741627 242.037081 
L 1085.08134 249.587093 
L 1090.421053 245.894826 
L 1095.760766 215.146626 
L 1101.100478 243.774617 
L 1106.440191 262.401428 
L 1111.779904 230.712062 
L 1117.119617 214.267516 
L 1122.45933 180.861297 
L 1127.799043 131.103615 
L 1133.138756 112.993927 
L 1138.478469 106.829808 
L 1143.818182 113.00427 
L 1149.157895 112.136773 
L 1154.497608 131.131039 
L 1159.837321 133.192795 
L 1165.177033 145.314186 
L 1170.516746 175.586631 
L 1175.856459 190.210901 
L 1181.196172 153.888103 
L 1186.535885 137.412529 
L 1191.875598 149.988988 
L 1197.215311 170.167171 
L 1202.555024 180.313146 
L 1207.894737 202.890785 
L 1213.23445 215.436216 
L 1218.574163 237.682895 
L 1223.913876 245.574209 
L 1229.253589 243.764275 
L 1234.593301 203.676813 
L 1239.933014 147.268914 
L 1245.272727 110.035978 
L 1245.272727 110.035978 
" clip-path="url(#pc1c5393444)" style="fill: none; stroke: #ffa500; stroke-width: 1.5; stroke-linecap: square"/>
   </g>
   <g id="patch_3">
    <path d="M 180 320.4 
L 180 43.2 
" style="fill: none; stroke: #000000; stroke-width: 0.8; stroke-linejoin: miter; stroke-linecap: square"/>
   </g>
   <g id="patch_4">
    <path d="M 1296 320.4 
L 1296 43.2 
" style="fill: none; stroke: #000000; stroke-width: 0.8; stroke-linejoin: miter; stroke-linecap: square"/>
   </g>
   <g id="patch_5">
    <path d="M 180 320.4 
L 1296 320.4 
" style="fill: none; stroke: #000000; stroke-width: 0.8; stroke-linejoin: miter; stroke-linecap: square"/>
   </g>
   <g id="patch_6">
    <path d="M 180 43.2 
L 1296 43.2 
" style="fill: none; stroke: #000000; stroke-width: 0.8; stroke-linejoin: miter; stroke-linecap: square"/>
   </g>
   <g id="text_18">
    <!-- Previsão do vento para 1 hora(s) à frente com 5 camadas -->
    <g transform="translate(564.882187 37.2) scale(0.12 -0.12)">
     <defs>
      <path id="DejaVuSans-50" d="M 1259 4147 
L 1259 2394 
L 2053 2394 
Q 2494 2394 2734 2622 
Q 2975 2850 2975 3272 
Q 2975 3691 2734 3919 
Q 2494 4147 2053 4147 
L 1259 4147 
z
M 628 4666 
L 2053 4666 
Q 2838 4666 3239 4311 
Q 3641 3956 3641 3272 
Q 3641 2581 3239 2228 
Q 2838 1875 2053 1875 
L 1259 1875 
L 1259 0 
L 628 0 
L 628 4666 
z
" transform="scale(0.015625)"/>
      <path id="DejaVuSans-76" d="M 191 3500 
L 800 3500 
L 1894 563 
L 2988 3500 
L 3597 3500 
L 2284 0 
L 1503 0 
L 191 3500 
z
" transform="scale(0.015625)"/>
      <path id="DejaVuSans-e3" d="M 2194 1759 
Q 1497 1759 1228 1600 
Q 959 1441 959 1056 
Q 959 750 1161 570 
Q 1363 391 1709 391 
Q 2188 391 2477 730 
Q 2766 1069 2766 1631 
L 2766 1759 
L 2194 1759 
z
M 3341 1997 
L 3341 0 
L 2766 0 
L 2766 531 
Q 2569 213 2275 61 
Q 1981 -91 1556 -91 
Q 1019 -91 701 211 
Q 384 513 384 1019 
Q 384 1609 779 1909 
Q 1175 2209 1959 2209 
L 2766 2209 
L 2766 2266 
Q 2766 2663 2505 2880 
Q 2244 3097 1772 3097 
Q 1472 3097 1187 3025 
Q 903 2953 641 2809 
L 641 3341 
Q 956 3463 1253 3523 
Q 1550 3584 1831 3584 
Q 2591 3584 2966 3190 
Q 3341 2797 3341 1997 
z
M 1844 4281 
L 1666 4453 
Q 1597 4516 1545 4545 
Q 1494 4575 1453 4575 
Q 1334 4575 1278 4461 
Q 1222 4347 1216 4091 
L 825 4091 
Q 831 4513 990 4742 
Q 1150 4972 1434 4972 
Q 1553 4972 1653 4928 
Q 1753 4884 1869 4781 
L 2047 4609 
Q 2116 4547 2167 4517 
Q 2219 4488 2259 4488 
Q 2378 4488 2434 4602 
Q 2491 4716 2497 4972 
L 2888 4972 
Q 2881 4550 2722 4320 
Q 2563 4091 2278 4091 
Q 2159 4091 2059 4134 
Q 1959 4178 1844 4281 
z
" transform="scale(0.015625)"/>
      <path id="DejaVuSans-70" d="M 1159 525 
L 1159 -1331 
L 581 -1331 
L 581 3500 
L 1159 3500 
L 1159 2969 
Q 1341 3281 1617 3432 
Q 1894 3584 2278 3584 
Q 2916 3584 3314 3078 
Q 3713 2572 3713 1747 
Q 3713 922 3314 415 
Q 2916 -91 2278 -91 
Q 1894 -91 1617 61 
Q 1341 213 1159 525 
z
M 3116 1747 
Q 3116 2381 2855 2742 
Q 2594 3103 2138 3103 
Q 1681 3103 1420 2742 
Q 1159 2381 1159 1747 
Q 1159 1113 1420 752 
Q 1681 391 2138 391 
Q 2594 391 2855 752 
Q 3116 1113 3116 1747 
z
" transform="scale(0.015625)"/>
      <path id="DejaVuSans-68" d="M 3513 2113 
L 3513 0 
L 2938 0 
L 2938 2094 
Q 2938 2591 2744 2837 
Q 2550 3084 2163 3084 
Q 1697 3084 1428 2787 
Q 1159 2491 1159 1978 
L 1159 0 
L 581 0 
L 581 4863 
L 1159 4863 
L 1159 2956 
Q 1366 3272 1645 3428 
Q 1925 3584 2291 3584 
Q 2894 3584 3203 3211 
Q 3513 2838 3513 2113 
z
" transform="scale(0.015625)"/>
      <path id="DejaVuSans-e0" d="M 2194 1759 
Q 1497 1759 1228 1600 
Q 959 1441 959 1056 
Q 959 750 1161 570 
Q 1363 391 1709 391 
Q 2188 391 2477 730 
Q 2766 1069 2766 1631 
L 2766 1759 
L 2194 1759 
z
M 3341 1997 
L 3341 0 
L 2766 0 
L 2766 531 
Q 2569 213 2275 61 
Q 1981 -91 1556 -91 
Q 1019 -91 701 211 
Q 384 513 384 1019 
Q 384 1609 779 1909 
Q 1175 2209 1959 2209 
L 2766 2209 
L 2766 2266 
Q 2766 2663 2505 2880 
Q 2244 3097 1772 3097 
Q 1472 3097 1187 3025 
Q 903 2953 641 2809 
L 641 3341 
Q 956 3463 1253 3523 
Q 1550 3584 1831 3584 
Q 2591 3584 2966 3190 
Q 3341 2797 3341 1997 
z
M 1403 5119 
L 2284 3950 
L 1806 3950 
L 788 5119 
L 1403 5119 
z
" transform="scale(0.015625)"/>
      <path id="DejaVuSans-66" d="M 2375 4863 
L 2375 4384 
L 1825 4384 
Q 1516 4384 1395 4259 
Q 1275 4134 1275 3809 
L 1275 3500 
L 2222 3500 
L 2222 3053 
L 1275 3053 
L 1275 0 
L 697 0 
L 697 3053 
L 147 3053 
L 147 3500 
L 697 3500 
L 697 3744 
Q 697 4328 969 4595 
Q 1241 4863 1831 4863 
L 2375 4863 
z
" transform="scale(0.015625)"/>
     </defs>
     <use xlink:href="#DejaVuSans-50"/>
     <use xlink:href="#DejaVuSans-72" x="58.552734"/>
     <use xlink:href="#DejaVuSans-65" x="97.416016"/>
     <use xlink:href="#DejaVuSans-76" x="158.939453"/>
     <use xlink:href="#DejaVuSans-69" x="218.119141"/>
     <use xlink:href="#DejaVuSans-73" x="245.902344"/>
     <use xlink:href="#DejaVuSans-e3" x="298.001953"/>
     <use xlink:href="#DejaVuSans-6f" x="359.28125"/>
     <use xlink:href="#DejaVuSans-20" x="420.462891"/>
     <use xlink:href="#DejaVuSans-64" x="452.25"/>
     <use xlink:href="#DejaVuSans-6f" x="515.726562"/>
     <use xlink:href="#DejaVuSans-20" x="576.908203"/>
     <use xlink:href="#DejaVuSans-76" x="608.695312"/>
     <use xlink:href="#DejaVuSans-65" x="667.875"/>
     <use xlink:href="#DejaVuSans-6e" x="729.398438"/>
     <use xlink:href="#DejaVuSans-74" x="792.777344"/>
     <use xlink:href="#DejaVuSans-6f" x="831.986328"/>
     <use xlink:href="#DejaVuSans-20" x="893.167969"/>
     <use xlink:href="#DejaVuSans-70" x="924.955078"/>
     <use xlink:href="#DejaVuSans-61" x="988.431641"/>
     <use xlink:href="#DejaVuSans-72" x="1049.710938"/>
     <use xlink:href="#DejaVuSans-61" x="1090.824219"/>
     <use xlink:href="#DejaVuSans-20" x="1152.103516"/>
     <use xlink:href="#DejaVuSans-31" x="1183.890625"/>
     <use xlink:href="#DejaVuSans-20" x="1247.513672"/>
     <use xlink:href="#DejaVuSans-68" x="1279.300781"/>
     <use xlink:href="#DejaVuSans-6f" x="1342.679688"/>
     <use xlink:href="#DejaVuSans-72" x="1403.861328"/>
     <use xlink:href="#DejaVuSans-61" x="1444.974609"/>
     <use xlink:href="#DejaVuSans-28" x="1506.253906"/>
     <use xlink:href="#DejaVuSans-73" x="1545.267578"/>
     <use xlink:href="#DejaVuSans-29" x="1597.367188"/>
     <use xlink:href="#DejaVuSans-20" x="1636.380859"/>
     <use xlink:href="#DejaVuSans-e0" x="1668.167969"/>
     <use xlink:href="#DejaVuSans-20" x="1729.447266"/>
     <use xlink:href="#DejaVuSans-66" x="1761.234375"/>
     <use xlink:href="#DejaVuSans-72" x="1796.439453"/>
     <use xlink:href="#DejaVuSans-65" x="1835.302734"/>
     <use xlink:href="#DejaVuSans-6e" x="1896.826172"/>
     <use xlink:href="#DejaVuSans-74" x="1960.205078"/>
     <use xlink:href="#DejaVuSans-65" x="1999.414062"/>
     <use xlink:href="#DejaVuSans-20" x="2060.9375"/>
     <use xlink:href="#DejaVuSans-63" x="2092.724609"/>
     <use xlink:href="#DejaVuSans-6f" x="2147.705078"/>
     <use xlink:href="#DejaVuSans-6d" x="2208.886719"/>
     <use xlink:href="#DejaVuSans-20" x="2306.298828"/>
     <use xlink:href="#DejaVuSans-35" x="2338.085938"/>
     <use xlink:href="#DejaVuSans-20" x="2401.708984"/>
     <use xlink:href="#DejaVuSans-63" x="2433.496094"/>
     <use xlink:href="#DejaVuSans-61" x="2488.476562"/>
     <use xlink:href="#DejaVuSans-6d" x="2549.755859"/>
     <use xlink:href="#DejaVuSans-61" x="2647.167969"/>
     <use xlink:href="#DejaVuSans-64" x="2708.447266"/>
     <use xlink:href="#DejaVuSans-61" x="2771.923828"/>
     <use xlink:href="#DejaVuSans-73" x="2833.203125"/>
    </g>
   </g>
   <g id="legend_1">
    <g id="patch_7">
     <path d="M 1217.86875 80.55625 
L 1289 80.55625 
Q 1291 80.55625 1291 78.55625 
L 1291 50.2 
Q 1291 48.2 1289 48.2 
L 1217.86875 48.2 
Q 1215.86875 48.2 1215.86875 50.2 
L 1215.86875 78.55625 
Q 1215.86875 80.55625 1217.86875 80.55625 
z
" style="fill: #ffffff; opacity: 0.8; stroke: #cccccc; stroke-linejoin: miter"/>
    </g>
    <g id="line2d_18">
     <path d="M 1219.86875 56.298437 
L 1229.86875 56.298437 
L 1239.86875 56.298437 
" style="fill: none; stroke: #0000ff; stroke-width: 1.5; stroke-linecap: square"/>
    </g>
    <g id="text_19">
     <!-- Predito -->
     <g transform="translate(1247.86875 59.798437) scale(0.1 -0.1)">
      <use xlink:href="#DejaVuSans-50"/>
      <use xlink:href="#DejaVuSans-72" x="58.552734"/>
      <use xlink:href="#DejaVuSans-65" x="97.416016"/>
      <use xlink:href="#DejaVuSans-64" x="158.939453"/>
      <use xlink:href="#DejaVuSans-69" x="222.416016"/>
      <use xlink:href="#DejaVuSans-74" x="250.199219"/>
      <use xlink:href="#DejaVuSans-6f" x="289.408203"/>
     </g>
    </g>
    <g id="line2d_19">
     <path d="M 1219.86875 70.976562 
L 1229.86875 70.976562 
L 1239.86875 70.976562 
" style="fill: none; stroke: #ffa500; stroke-width: 1.5; stroke-linecap: square"/>
    </g>
    <g id="text_20">
     <!-- Original -->
     <g transform="translate(1247.86875 74.476562) scale(0.1 -0.1)">
      <defs>
       <path id="DejaVuSans-4f" d="M 2522 4238 
Q 1834 4238 1429 3725 
Q 1025 3213 1025 2328 
Q 1025 1447 1429 934 
Q 1834 422 2522 422 
Q 3209 422 3611 934 
Q 4013 1447 4013 2328 
Q 4013 3213 3611 3725 
Q 3209 4238 2522 4238 
z
M 2522 4750 
Q 3503 4750 4090 4092 
Q 4678 3434 4678 2328 
Q 4678 1225 4090 567 
Q 3503 -91 2522 -91 
Q 1538 -91 948 565 
Q 359 1222 359 2328 
Q 359 3434 948 4092 
Q 1538 4750 2522 4750 
z
" transform="scale(0.015625)"/>
       <path id="DejaVuSans-67" d="M 2906 1791 
Q 2906 2416 2648 2759 
Q 2391 3103 1925 3103 
Q 1463 3103 1205 2759 
Q 947 2416 947 1791 
Q 947 1169 1205 825 
Q 1463 481 1925 481 
Q 2391 481 2648 825 
Q 2906 1169 2906 1791 
z
M 3481 434 
Q 3481 -459 3084 -895 
Q 2688 -1331 1869 -1331 
Q 1566 -1331 1297 -1286 
Q 1028 -1241 775 -1147 
L 775 -588 
Q 1028 -725 1275 -790 
Q 1522 -856 1778 -856 
Q 2344 -856 2625 -561 
Q 2906 -266 2906 331 
L 2906 616 
Q 2728 306 2450 153 
Q 2172 0 1784 0 
Q 1141 0 747 490 
Q 353 981 353 1791 
Q 353 2603 747 3093 
Q 1141 3584 1784 3584 
Q 2172 3584 2450 3431 
Q 2728 3278 2906 2969 
L 2906 3500 
L 3481 3500 
L 3481 434 
z
" transform="scale(0.015625)"/>
      </defs>
      <use xlink:href="#DejaVuSans-4f"/>
      <use xlink:href="#DejaVuSans-72" x="78.710938"/>
      <use xlink:href="#DejaVuSans-69" x="119.824219"/>
      <use xlink:href="#DejaVuSans-67" x="147.607422"/>
      <use xlink:href="#DejaVuSans-69" x="211.083984"/>
      <use xlink:href="#DejaVuSans-6e" x="238.867188"/>
      <use xlink:href="#DejaVuSans-61" x="302.246094"/>
      <use xlink:href="#DejaVuSans-6c" x="363.525391"/>
     </g>
    </g>
   </g>
  </g>
 </g>
 <defs>
  <clipPath id="pc1c5393444">
   <rect x="180" y="43.2" width="1116" height="277.2"/>
  </clipPath>
 </defs>
</svg>
