<?xml version="1.0" encoding="utf-8" standalone="no"?>
<!DOCTYPE svg PUBLIC "-//W3C//DTD SVG 1.1//EN"
  "http://www.w3.org/Graphics/SVG/1.1/DTD/svg11.dtd">
<svg xmlns:xlink="http://www.w3.org/1999/xlink" width="1440pt" height="360pt" viewBox="0 0 1440 360" xmlns="http://www.w3.org/2000/svg" version="1.1">
 <metadata>
  <rdf:RDF xmlns:dc="http://purl.org/dc/elements/1.1/" xmlns:cc="http://creativecommons.org/ns#" xmlns:rdf="http://www.w3.org/1999/02/22-rdf-syntax-ns#">
   <cc:Work>
    <dc:type rdf:resource="http://purl.org/dc/dcmitype/StillImage"/>
    <dc:date>2023-08-20T14:45:14.777308</dc:date>
    <dc:format>image/svg+xml</dc:format>
    <dc:creator>
     <cc:Agent>
      <dc:title>Matplotlib v3.7.1, https://matplotlib.org/</dc:title>
     </cc:Agent>
    </dc:creator>
   </cc:Work>
  </rdf:RDF>
 </metadata>
 <defs>
  <style type="text/css">*{stroke-linejoin: round; stroke-linecap: butt}</style>
 </defs>
 <g id="figure_1">
  <g id="patch_1">
   <path d="M 0 360 
L 1440 360 
L 1440 0 
L 0 0 
z
" style="fill: #ffffff"/>
  </g>
  <g id="axes_1">
   <g id="patch_2">
    <path d="M 180 320.4 
L 1296 320.4 
L 1296 43.2 
L 180 43.2 
z
" style="fill: #ffffff"/>
   </g>
   <g id="PolyCollection_1">
    <defs>
     <path id="mf2a1d3ba12" d="M 230.727273 -265.918572 
L 230.727273 -183.367459 
L 236.066986 -151.906027 
L 241.406699 -142.965936 
L 246.746411 -152.032295 
L 252.086124 -136.696762 
L 257.425837 -139.995667 
L 262.76555 -141.330344 
L 268.105263 -148.319981 
L 273.444976 -150.542628 
L 278.784689 -144.23696 
L 284.124402 -125.042185 
L 289.464115 -116.132185 
L 294.803828 -79.267724 
L 300.143541 -90.112736 
L 305.483254 -81.70943 
L 310.822967 -68.510266 
L 316.162679 -66.064351 
L 321.502392 -59.86996 
L 326.842105 -55.440515 
L 332.181818 -59.895486 
L 337.521531 -71.11464 
L 342.861244 -83.457635 
L 348.200957 -125.516304 
L 353.54067 -161.593163 
L 358.880383 -184.480653 
L 364.220096 -202.42413 
L 369.559809 -201.693973 
L 374.899522 -200.800289 
L 380.239234 -204.265747 
L 385.578947 -185.54334 
L 390.91866 -168.678568 
L 396.258373 -143.632475 
L 401.598086 -137.881568 
L 406.937799 -137.288306 
L 412.277512 -142.866079 
L 417.617225 -153.03019 
L 422.956938 -124.006707 
L 428.296651 -108.595184 
L 433.636364 -112.778114 
L 438.976077 -115.628042 
L 444.315789 -120.133366 
L 449.655502 -124.703465 
L 454.995215 -108.317464 
L 460.334928 -102.838861 
L 465.674641 -123.627114 
L 471.014354 -133.510657 
L 476.354067 -136.029662 
L 481.69378 -147.00277 
L 487.033493 -192.213797 
L 492.373206 -213.824524 
L 497.712919 -211.985458 
L 503.052632 -198.199333 
L 508.392344 -190.221816 
L 513.732057 -193.519802 
L 519.07177 -188.91241 
L 524.411483 -181.482749 
L 529.751196 -162.672056 
L 535.090909 -168.668331 
L 540.430622 -150.79967 
L 545.770335 -136.615101 
L 551.110048 -113.597169 
L 556.449761 -110.293188 
L 561.789474 -106.293427 
L 567.129187 -106.410367 
L 572.4689 -92.530949 
L 577.808612 -87.304191 
L 583.148325 -64.131737 
L 588.488038 -99.324094 
L 593.827751 -124.120696 
L 599.167464 -133.044173 
L 604.507177 -164.537617 
L 609.84689 -190.505063 
L 615.186603 -206.320752 
L 620.526316 -221.648887 
L 625.866029 -216.806476 
L 631.205742 -213.942917 
L 636.545455 -206.427922 
L 641.885167 -204.166978 
L 647.22488 -183.582445 
L 652.564593 -176.102617 
L 657.904306 -164.213573 
L 663.244019 -144.311156 
L 668.583732 -150.778191 
L 673.923445 -142.313393 
L 679.263158 -128.689145 
L 684.602871 -129.404321 
L 689.942584 -129.154864 
L 695.282297 -119.87919 
L 700.62201 -125.336911 
L 705.961722 -110.990499 
L 711.301435 -92.631529 
L 716.641148 -90.802224 
L 721.980861 -117.148719 
L 727.320574 -127.668565 
L 732.660287 -162.609696 
L 738 -192.390895 
L 743.339713 -198.44782 
L 748.679426 -204.345436 
L 754.019139 -210.201252 
L 759.358852 -211.122111 
L 764.698565 -203.909512 
L 770.038278 -199.657913 
L 775.37799 -191.099243 
L 780.717703 -156.687286 
L 786.057416 -139.258078 
L 791.397129 -139.699053 
L 796.736842 -150.170339 
L 802.076555 -145.57065 
L 807.416268 -106.477709 
L 812.755981 -102.781551 
L 818.095694 -100.934824 
L 823.435407 -52.2 
L 828.77512 -63.308515 
L 834.114833 -88.015166 
L 839.454545 -87.143802 
L 844.794258 -84.857945 
L 850.133971 -106.315475 
L 855.473684 -121.852117 
L 860.813397 -125.514995 
L 866.15311 -148.87248 
L 871.492823 -189.388978 
L 876.832536 -205.054132 
L 882.172249 -192.583263 
L 887.511962 -194.270979 
L 892.851675 -190.430918 
L 898.191388 -182.112063 
L 903.5311 -163.084768 
L 908.870813 -148.641508 
L 914.210526 -157.866922 
L 919.550239 -149.113043 
L 924.889952 -141.94578 
L 930.229665 -142.246441 
L 935.569378 -133.072658 
L 940.909091 -142.292527 
L 946.248804 -127.507197 
L 951.588517 -120.089126 
L 956.92823 -126.35637 
L 962.267943 -119.947358 
L 967.607656 -104.73856 
L 972.947368 -96.669434 
L 978.287081 -113.58671 
L 983.626794 -124.393068 
L 988.966507 -152.179836 
L 994.30622 -178.779215 
L 999.645933 -188.154533 
L 1004.985646 -180.073962 
L 1010.325359 -186.503142 
L 1015.665072 -185.138944 
L 1021.004785 -179.779933 
L 1026.344498 -172.990537 
L 1031.684211 -156.027447 
L 1037.023923 -148.40552 
L 1042.363636 -155.780729 
L 1047.703349 -141.457699 
L 1053.043062 -134.158574 
L 1058.382775 -144.911237 
L 1063.722488 -107.685234 
L 1069.062201 -105.853464 
L 1074.401914 -95.652518 
L 1079.741627 -77.247028 
L 1085.08134 -83.843885 
L 1090.421053 -82.982095 
L 1095.760766 -78.006334 
L 1101.100478 -104.504885 
L 1106.440191 -104.398319 
L 1111.779904 -106.30437 
L 1117.119617 -118.675526 
L 1122.45933 -128.978005 
L 1127.799043 -150.775028 
L 1133.138756 -173.941599 
L 1138.478469 -183.940925 
L 1143.818182 -188.361901 
L 1149.157895 -183.69373 
L 1154.497608 -178.768841 
L 1159.837321 -168.513545 
L 1165.177033 -170.130244 
L 1170.516746 -166.369702 
L 1175.856459 -151.731226 
L 1181.196172 -143.365468 
L 1186.535885 -145.982665 
L 1191.875598 -147.684291 
L 1197.215311 -141.13624 
L 1202.555024 -126.788774 
L 1207.894737 -121.178555 
L 1213.23445 -106.029872 
L 1218.574163 -98.828607 
L 1223.913876 -86.849152 
L 1229.253589 -91.46151 
L 1234.593301 -109.244862 
L 1239.933014 -129.129083 
L 1245.272727 -155.849466 
L 1245.272727 -238.400604 
L 1245.272727 -238.400604 
L 1239.933014 -211.680205 
L 1234.593301 -191.796001 
L 1229.253589 -174.012649 
L 1223.913876 -169.400291 
L 1218.574163 -181.379729 
L 1213.23445 -188.581003 
L 1207.894737 -203.729693 
L 1202.555024 -209.339912 
L 1197.215311 -223.687362 
L 1191.875598 -230.235412 
L 1186.535885 -228.533787 
L 1181.196172 -225.916607 
L 1175.856459 -234.282364 
L 1170.516746 -248.920816 
L 1165.177033 -252.681391 
L 1159.837321 -251.064692 
L 1154.497608 -261.319988 
L 1149.157895 -266.244877 
L 1143.818182 -270.913014 
L 1138.478469 -266.492072 
L 1133.138756 -256.492746 
L 1127.799043 -233.326167 
L 1122.45933 -211.529126 
L 1117.119617 -201.226656 
L 1111.779904 -188.855509 
L 1106.440191 -186.94944 
L 1101.100478 -187.056015 
L 1095.760766 -160.557464 
L 1090.421053 -165.533225 
L 1085.08134 -166.395007 
L 1079.741627 -159.798159 
L 1074.401914 -178.203639 
L 1069.062201 -188.404585 
L 1063.722488 -190.236373 
L 1058.382775 -227.462358 
L 1053.043062 -216.709713 
L 1047.703349 -224.008838 
L 1042.363636 -238.331867 
L 1037.023923 -230.956659 
L 1031.684211 -238.578586 
L 1026.344498 -255.54165 
L 1021.004785 -262.33108 
L 1015.665072 -267.690057 
L 1010.325359 -269.054289 
L 1004.985646 -262.625075 
L 999.645933 -270.70568 
L 994.30622 -261.330328 
L 988.966507 -234.730975 
L 983.626794 -206.944198 
L 978.287081 -196.137832 
L 972.947368 -179.220564 
L 967.607656 -187.289691 
L 962.267943 -202.498479 
L 956.92823 -208.907491 
L 951.588517 -202.640256 
L 946.248804 -210.058336 
L 940.909091 -224.843648 
L 935.569378 -215.623796 
L 930.229665 -224.797563 
L 924.889952 -224.496902 
L 919.550239 -231.664165 
L 914.210526 -240.41806 
L 908.870813 -231.19263 
L 903.5311 -245.63589 
L 898.191388 -264.66321 
L 892.851675 -272.982065 
L 887.511962 -276.822126 
L 882.172249 -275.134411 
L 876.832536 -287.605245 
L 871.492823 -271.940125 
L 866.15311 -231.423602 
L 860.813397 -208.066116 
L 855.473684 -204.403256 
L 850.133971 -188.866596 
L 844.794258 -167.409075 
L 839.454545 -169.694932 
L 834.114833 -170.566305 
L 828.77512 -145.859646 
L 823.435407 -134.75113 
L 818.095694 -183.485954 
L 812.755981 -185.332673 
L 807.416268 -189.028831 
L 802.076555 -228.121772 
L 796.736842 -232.721478 
L 791.397129 -222.250175 
L 786.057416 -221.809217 
L 780.717703 -239.238408 
L 775.37799 -273.650356 
L 770.038278 -282.209026 
L 764.698565 -286.460659 
L 759.358852 -293.673225 
L 754.019139 -292.752365 
L 748.679426 -286.896583 
L 743.339713 -280.998933 
L 738 -274.942008 
L 732.660287 -245.160818 
L 727.320574 -210.219686 
L 721.980861 -199.699849 
L 716.641148 -173.353354 
L 711.301435 -175.182659 
L 705.961722 -193.541638 
L 700.62201 -207.888033 
L 695.282297 -202.430321 
L 689.942584 -211.705986 
L 684.602871 -211.955459 
L 679.263158 -211.240267 
L 673.923445 -224.864532 
L 668.583732 -233.32933 
L 663.244019 -226.862295 
L 657.904306 -246.764695 
L 652.564593 -258.65373 
L 647.22488 -266.133592 
L 641.885167 -286.718125 
L 636.545455 -288.979069 
L 631.205742 -296.49403 
L 625.866029 -299.357589 
L 620.526316 -304.2 
L 615.186603 -288.871899 
L 609.84689 -273.05621 
L 604.507177 -247.088756 
L 599.167464 -215.595295 
L 593.827751 -206.671818 
L 588.488038 -181.875224 
L 583.148325 -146.682867 
L 577.808612 -169.85533 
L 572.4689 -175.08207 
L 567.129187 -188.961488 
L 561.789474 -188.844557 
L 556.449761 -192.844318 
L 551.110048 -196.148307 
L 545.770335 -219.166223 
L 540.430622 -233.350791 
L 535.090909 -251.219444 
L 529.751196 -245.223195 
L 524.411483 -264.033896 
L 519.07177 -271.463557 
L 513.732057 -276.070949 
L 508.392344 -272.772963 
L 503.052632 -280.75048 
L 497.712919 -294.536605 
L 492.373206 -296.375637 
L 487.033493 -274.764944 
L 481.69378 -229.553891 
L 476.354067 -218.580784 
L 471.014354 -216.061795 
L 465.674641 -206.178244 
L 460.334928 -185.389982 
L 454.995215 -190.868594 
L 449.655502 -207.254604 
L 444.315789 -202.684488 
L 438.976077 -198.179164 
L 433.636364 -195.329244 
L 428.296651 -191.146315 
L 422.956938 -206.557846 
L 417.617225 -235.581329 
L 412.277512 -225.417217 
L 406.937799 -219.839445 
L 401.598086 -220.432706 
L 396.258373 -226.183597 
L 390.91866 -251.229715 
L 385.578947 -268.094453 
L 380.239234 -286.816894 
L 374.899522 -283.351402 
L 369.559809 -284.24512 
L 364.220096 -284.975244 
L 358.880383 -267.0318 
L 353.54067 -244.144284 
L 348.200957 -208.067443 
L 342.861244 -166.008765 
L 337.521531 -153.66577 
L 332.181818 -142.446616 
L 326.842105 -137.991646 
L 321.502392 -142.42109 
L 316.162679 -148.615481 
L 310.822967 -151.061396 
L 305.483254 -164.26056 
L 300.143541 -172.663858 
L 294.803828 -161.818854 
L 289.464115 -198.683315 
L 284.124402 -207.593324 
L 278.784689 -226.788082 
L 273.444976 -233.093767 
L 268.105263 -230.87112 
L 262.76555 -223.881465 
L 257.425837 -222.546789 
L 252.086124 -219.247884 
L 246.746411 -234.583434 
L 241.406699 -225.517075 
L 236.066986 -234.457149 
L 230.727273 -265.918572 
z
" style="stroke: #0000ff; stroke-opacity: 0.05"/>
    </defs>
    <g clip-path="url(#pc89fd4a997)">
     <use xlink:href="#mf2a1d3ba12" x="0" y="360" style="fill: #0000ff; fill-opacity: 0.05; stroke: #0000ff; stroke-opacity: 0.05"/>
    </g>
   </g>
   <g id="matplotlib.axis_1">
    <g id="xtick_1">
     <g id="line2d_1">
      <defs>
       <path id="mb22f411c62" d="M 0 0 
L 0 3.5 
" style="stroke: #000000; stroke-width: 0.8"/>
      </defs>
      <g>
       <use xlink:href="#mb22f411c62" x="230.727273" y="320.4" style="stroke: #000000; stroke-width: 0.8"/>
      </g>
     </g>
     <g id="text_1">
      <!-- 0 -->
      <g transform="translate(227.546023 334.998438) scale(0.1 -0.1)">
       <defs>
        <path id="DejaVuSans-30" d="M 2034 4250 
Q 1547 4250 1301 3770 
Q 1056 3291 1056 2328 
Q 1056 1369 1301 889 
Q 1547 409 2034 409 
Q 2525 409 2770 889 
Q 3016 1369 3016 2328 
Q 3016 3291 2770 3770 
Q 2525 4250 2034 4250 
z
M 2034 4750 
Q 2819 4750 3233 4129 
Q 3647 3509 3647 2328 
Q 3647 1150 3233 529 
Q 2819 -91 2034 -91 
Q 1250 -91 836 529 
Q 422 1150 422 2328 
Q 422 3509 836 4129 
Q 1250 4750 2034 4750 
z
" transform="scale(0.015625)"/>
       </defs>
       <use xlink:href="#DejaVuSans-30"/>
      </g>
     </g>
    </g>
    <g id="xtick_2">
     <g id="line2d_2">
      <g>
       <use xlink:href="#mb22f411c62" x="364.220096" y="320.4" style="stroke: #000000; stroke-width: 0.8"/>
      </g>
     </g>
     <g id="text_2">
      <!-- 25 -->
      <g transform="translate(357.857596 334.998438) scale(0.1 -0.1)">
       <defs>
        <path id="DejaVuSans-32" d="M 1228 531 
L 3431 531 
L 3431 0 
L 469 0 
L 469 531 
Q 828 903 1448 1529 
Q 2069 2156 2228 2338 
Q 2531 2678 2651 2914 
Q 2772 3150 2772 3378 
Q 2772 3750 2511 3984 
Q 2250 4219 1831 4219 
Q 1534 4219 1204 4116 
Q 875 4013 500 3803 
L 500 4441 
Q 881 4594 1212 4672 
Q 1544 4750 1819 4750 
Q 2544 4750 2975 4387 
Q 3406 4025 3406 3419 
Q 3406 3131 3298 2873 
Q 3191 2616 2906 2266 
Q 2828 2175 2409 1742 
Q 1991 1309 1228 531 
z
" transform="scale(0.015625)"/>
        <path id="DejaVuSans-35" d="M 691 4666 
L 3169 4666 
L 3169 4134 
L 1269 4134 
L 1269 2991 
Q 1406 3038 1543 3061 
Q 1681 3084 1819 3084 
Q 2600 3084 3056 2656 
Q 3513 2228 3513 1497 
Q 3513 744 3044 326 
Q 2575 -91 1722 -91 
Q 1428 -91 1123 -41 
Q 819 9 494 109 
L 494 744 
Q 775 591 1075 516 
Q 1375 441 1709 441 
Q 2250 441 2565 725 
Q 2881 1009 2881 1497 
Q 2881 1984 2565 2268 
Q 2250 2553 1709 2553 
Q 1456 2553 1204 2497 
Q 953 2441 691 2322 
L 691 4666 
z
" transform="scale(0.015625)"/>
       </defs>
       <use xlink:href="#DejaVuSans-32"/>
       <use xlink:href="#DejaVuSans-35" x="63.623047"/>
      </g>
     </g>
    </g>
    <g id="xtick_3">
     <g id="line2d_3">
      <g>
       <use xlink:href="#mb22f411c62" x="497.712919" y="320.4" style="stroke: #000000; stroke-width: 0.8"/>
      </g>
     </g>
     <g id="text_3">
      <!-- 50 -->
      <g transform="translate(491.350419 334.998438) scale(0.1 -0.1)">
       <use xlink:href="#DejaVuSans-35"/>
       <use xlink:href="#DejaVuSans-30" x="63.623047"/>
      </g>
     </g>
    </g>
    <g id="xtick_4">
     <g id="line2d_4">
      <g>
       <use xlink:href="#mb22f411c62" x="631.205742" y="320.4" style="stroke: #000000; stroke-width: 0.8"/>
      </g>
     </g>
     <g id="text_4">
      <!-- 75 -->
      <g transform="translate(624.843242 334.998438) scale(0.1 -0.1)">
       <defs>
        <path id="DejaVuSans-37" d="M 525 4666 
L 3525 4666 
L 3525 4397 
L 1831 0 
L 1172 0 
L 2766 4134 
L 525 4134 
L 525 4666 
z
" transform="scale(0.015625)"/>
       </defs>
       <use xlink:href="#DejaVuSans-37"/>
       <use xlink:href="#DejaVuSans-35" x="63.623047"/>
      </g>
     </g>
    </g>
    <g id="xtick_5">
     <g id="line2d_5">
      <g>
       <use xlink:href="#mb22f411c62" x="764.698565" y="320.4" style="stroke: #000000; stroke-width: 0.8"/>
      </g>
     </g>
     <g id="text_5">
      <!-- 100 -->
      <g transform="translate(755.154815 334.998438) scale(0.1 -0.1)">
       <defs>
        <path id="DejaVuSans-31" d="M 794 531 
L 1825 531 
L 1825 4091 
L 703 3866 
L 703 4441 
L 1819 4666 
L 2450 4666 
L 2450 531 
L 3481 531 
L 3481 0 
L 794 0 
L 794 531 
z
" transform="scale(0.015625)"/>
       </defs>
       <use xlink:href="#DejaVuSans-31"/>
       <use xlink:href="#DejaVuSans-30" x="63.623047"/>
       <use xlink:href="#DejaVuSans-30" x="127.246094"/>
      </g>
     </g>
    </g>
    <g id="xtick_6">
     <g id="line2d_6">
      <g>
       <use xlink:href="#mb22f411c62" x="898.191388" y="320.4" style="stroke: #000000; stroke-width: 0.8"/>
      </g>
     </g>
     <g id="text_6">
      <!-- 125 -->
      <g transform="translate(888.647638 334.998438) scale(0.1 -0.1)">
       <use xlink:href="#DejaVuSans-31"/>
       <use xlink:href="#DejaVuSans-32" x="63.623047"/>
       <use xlink:href="#DejaVuSans-35" x="127.246094"/>
      </g>
     </g>
    </g>
    <g id="xtick_7">
     <g id="line2d_7">
      <g>
       <use xlink:href="#mb22f411c62" x="1031.684211" y="320.4" style="stroke: #000000; stroke-width: 0.8"/>
      </g>
     </g>
     <g id="text_7">
      <!-- 150 -->
      <g transform="translate(1022.140461 334.998438) scale(0.1 -0.1)">
       <use xlink:href="#DejaVuSans-31"/>
       <use xlink:href="#DejaVuSans-35" x="63.623047"/>
       <use xlink:href="#DejaVuSans-30" x="127.246094"/>
      </g>
     </g>
    </g>
    <g id="xtick_8">
     <g id="line2d_8">
      <g>
       <use xlink:href="#mb22f411c62" x="1165.177033" y="320.4" style="stroke: #000000; stroke-width: 0.8"/>
      </g>
     </g>
     <g id="text_8">
      <!-- 175 -->
      <g transform="translate(1155.633283 334.998438) scale(0.1 -0.1)">
       <use xlink:href="#DejaVuSans-31"/>
       <use xlink:href="#DejaVuSans-37" x="63.623047"/>
       <use xlink:href="#DejaVuSans-35" x="127.246094"/>
      </g>
     </g>
    </g>
    <g id="text_9">
     <!-- Amostras -->
     <g transform="translate(714.360937 348.676562) scale(0.1 -0.1)">
      <defs>
       <path id="DejaVuSans-41" d="M 2188 4044 
L 1331 1722 
L 3047 1722 
L 2188 4044 
z
M 1831 4666 
L 2547 4666 
L 4325 0 
L 3669 0 
L 3244 1197 
L 1141 1197 
L 716 0 
L 50 0 
L 1831 4666 
z
" transform="scale(0.015625)"/>
       <path id="DejaVuSans-6d" d="M 3328 2828 
Q 3544 3216 3844 3400 
Q 4144 3584 4550 3584 
Q 5097 3584 5394 3201 
Q 5691 2819 5691 2113 
L 5691 0 
L 5113 0 
L 5113 2094 
Q 5113 2597 4934 2840 
Q 4756 3084 4391 3084 
Q 3944 3084 3684 2787 
Q 3425 2491 3425 1978 
L 3425 0 
L 2847 0 
L 2847 2094 
Q 2847 2600 2669 2842 
Q 2491 3084 2119 3084 
Q 1678 3084 1418 2786 
Q 1159 2488 1159 1978 
L 1159 0 
L 581 0 
L 581 3500 
L 1159 3500 
L 1159 2956 
Q 1356 3278 1631 3431 
Q 1906 3584 2284 3584 
Q 2666 3584 2933 3390 
Q 3200 3197 3328 2828 
z
" transform="scale(0.015625)"/>
       <path id="DejaVuSans-6f" d="M 1959 3097 
Q 1497 3097 1228 2736 
Q 959 2375 959 1747 
Q 959 1119 1226 758 
Q 1494 397 1959 397 
Q 2419 397 2687 759 
Q 2956 1122 2956 1747 
Q 2956 2369 2687 2733 
Q 2419 3097 1959 3097 
z
M 1959 3584 
Q 2709 3584 3137 3096 
Q 3566 2609 3566 1747 
Q 3566 888 3137 398 
Q 2709 -91 1959 -91 
Q 1206 -91 779 398 
Q 353 888 353 1747 
Q 353 2609 779 3096 
Q 1206 3584 1959 3584 
z
" transform="scale(0.015625)"/>
       <path id="DejaVuSans-73" d="M 2834 3397 
L 2834 2853 
Q 2591 2978 2328 3040 
Q 2066 3103 1784 3103 
Q 1356 3103 1142 2972 
Q 928 2841 928 2578 
Q 928 2378 1081 2264 
Q 1234 2150 1697 2047 
L 1894 2003 
Q 2506 1872 2764 1633 
Q 3022 1394 3022 966 
Q 3022 478 2636 193 
Q 2250 -91 1575 -91 
Q 1294 -91 989 -36 
Q 684 19 347 128 
L 347 722 
Q 666 556 975 473 
Q 1284 391 1588 391 
Q 1994 391 2212 530 
Q 2431 669 2431 922 
Q 2431 1156 2273 1281 
Q 2116 1406 1581 1522 
L 1381 1569 
Q 847 1681 609 1914 
Q 372 2147 372 2553 
Q 372 3047 722 3315 
Q 1072 3584 1716 3584 
Q 2034 3584 2315 3537 
Q 2597 3491 2834 3397 
z
" transform="scale(0.015625)"/>
       <path id="DejaVuSans-74" d="M 1172 4494 
L 1172 3500 
L 2356 3500 
L 2356 3053 
L 1172 3053 
L 1172 1153 
Q 1172 725 1289 603 
Q 1406 481 1766 481 
L 2356 481 
L 2356 0 
L 1766 0 
Q 1100 0 847 248 
Q 594 497 594 1153 
L 594 3053 
L 172 3053 
L 172 3500 
L 594 3500 
L 594 4494 
L 1172 4494 
z
" transform="scale(0.015625)"/>
       <path id="DejaVuSans-72" d="M 2631 2963 
Q 2534 3019 2420 3045 
Q 2306 3072 2169 3072 
Q 1681 3072 1420 2755 
Q 1159 2438 1159 1844 
L 1159 0 
L 581 0 
L 581 3500 
L 1159 3500 
L 1159 2956 
Q 1341 3275 1631 3429 
Q 1922 3584 2338 3584 
Q 2397 3584 2469 3576 
Q 2541 3569 2628 3553 
L 2631 2963 
z
" transform="scale(0.015625)"/>
       <path id="DejaVuSans-61" d="M 2194 1759 
Q 1497 1759 1228 1600 
Q 959 1441 959 1056 
Q 959 750 1161 570 
Q 1363 391 1709 391 
Q 2188 391 2477 730 
Q 2766 1069 2766 1631 
L 2766 1759 
L 2194 1759 
z
M 3341 1997 
L 3341 0 
L 2766 0 
L 2766 531 
Q 2569 213 2275 61 
Q 1981 -91 1556 -91 
Q 1019 -91 701 211 
Q 384 513 384 1019 
Q 384 1609 779 1909 
Q 1175 2209 1959 2209 
L 2766 2209 
L 2766 2266 
Q 2766 2663 2505 2880 
Q 2244 3097 1772 3097 
Q 1472 3097 1187 3025 
Q 903 2953 641 2809 
L 641 3341 
Q 956 3463 1253 3523 
Q 1550 3584 1831 3584 
Q 2591 3584 2966 3190 
Q 3341 2797 3341 1997 
z
" transform="scale(0.015625)"/>
      </defs>
      <use xlink:href="#DejaVuSans-41"/>
      <use xlink:href="#DejaVuSans-6d" x="68.408203"/>
      <use xlink:href="#DejaVuSans-6f" x="165.820312"/>
      <use xlink:href="#DejaVuSans-73" x="227.001953"/>
      <use xlink:href="#DejaVuSans-74" x="279.101562"/>
      <use xlink:href="#DejaVuSans-72" x="318.310547"/>
      <use xlink:href="#DejaVuSans-61" x="359.423828"/>
      <use xlink:href="#DejaVuSans-73" x="420.703125"/>
     </g>
    </g>
   </g>
   <g id="matplotlib.axis_2">
    <g id="ytick_1">
     <g id="line2d_9">
      <defs>
       <path id="m2e21a7ad3d" d="M 0 0 
L -3.5 0 
" style="stroke: #000000; stroke-width: 0.8"/>
      </defs>
      <g>
       <use xlink:href="#m2e21a7ad3d" x="180" y="300.744261" style="stroke: #000000; stroke-width: 0.8"/>
      </g>
     </g>
     <g id="text_10">
      <!-- 2 -->
      <g transform="translate(166.6375 304.54348) scale(0.1 -0.1)">
       <use xlink:href="#DejaVuSans-32"/>
      </g>
     </g>
    </g>
    <g id="ytick_2">
     <g id="line2d_10">
      <g>
       <use xlink:href="#m2e21a7ad3d" x="180" y="265.080692" style="stroke: #000000; stroke-width: 0.8"/>
      </g>
     </g>
     <g id="text_11">
      <!-- 4 -->
      <g transform="translate(166.6375 268.879911) scale(0.1 -0.1)">
       <defs>
        <path id="DejaVuSans-34" d="M 2419 4116 
L 825 1625 
L 2419 1625 
L 2419 4116 
z
M 2253 4666 
L 3047 4666 
L 3047 1625 
L 3713 1625 
L 3713 1100 
L 3047 1100 
L 3047 0 
L 2419 0 
L 2419 1100 
L 313 1100 
L 313 1709 
L 2253 4666 
z
" transform="scale(0.015625)"/>
       </defs>
       <use xlink:href="#DejaVuSans-34"/>
      </g>
     </g>
    </g>
    <g id="ytick_3">
     <g id="line2d_11">
      <g>
       <use xlink:href="#m2e21a7ad3d" x="180" y="229.417124" style="stroke: #000000; stroke-width: 0.8"/>
      </g>
     </g>
     <g id="text_12">
      <!-- 6 -->
      <g transform="translate(166.6375 233.216342) scale(0.1 -0.1)">
       <defs>
        <path id="DejaVuSans-36" d="M 2113 2584 
Q 1688 2584 1439 2293 
Q 1191 2003 1191 1497 
Q 1191 994 1439 701 
Q 1688 409 2113 409 
Q 2538 409 2786 701 
Q 3034 994 3034 1497 
Q 3034 2003 2786 2293 
Q 2538 2584 2113 2584 
z
M 3366 4563 
L 3366 3988 
Q 3128 4100 2886 4159 
Q 2644 4219 2406 4219 
Q 1781 4219 1451 3797 
Q 1122 3375 1075 2522 
Q 1259 2794 1537 2939 
Q 1816 3084 2150 3084 
Q 2853 3084 3261 2657 
Q 3669 2231 3669 1497 
Q 3669 778 3244 343 
Q 2819 -91 2113 -91 
Q 1303 -91 875 529 
Q 447 1150 447 2328 
Q 447 3434 972 4092 
Q 1497 4750 2381 4750 
Q 2619 4750 2861 4703 
Q 3103 4656 3366 4563 
z
" transform="scale(0.015625)"/>
       </defs>
       <use xlink:href="#DejaVuSans-36"/>
      </g>
     </g>
    </g>
    <g id="ytick_4">
     <g id="line2d_12">
      <g>
       <use xlink:href="#m2e21a7ad3d" x="180" y="193.753555" style="stroke: #000000; stroke-width: 0.8"/>
      </g>
     </g>
     <g id="text_13">
      <!-- 8 -->
      <g transform="translate(166.6375 197.552774) scale(0.1 -0.1)">
       <defs>
        <path id="DejaVuSans-38" d="M 2034 2216 
Q 1584 2216 1326 1975 
Q 1069 1734 1069 1313 
Q 1069 891 1326 650 
Q 1584 409 2034 409 
Q 2484 409 2743 651 
Q 3003 894 3003 1313 
Q 3003 1734 2745 1975 
Q 2488 2216 2034 2216 
z
M 1403 2484 
Q 997 2584 770 2862 
Q 544 3141 544 3541 
Q 544 4100 942 4425 
Q 1341 4750 2034 4750 
Q 2731 4750 3128 4425 
Q 3525 4100 3525 3541 
Q 3525 3141 3298 2862 
Q 3072 2584 2669 2484 
Q 3125 2378 3379 2068 
Q 3634 1759 3634 1313 
Q 3634 634 3220 271 
Q 2806 -91 2034 -91 
Q 1263 -91 848 271 
Q 434 634 434 1313 
Q 434 1759 690 2068 
Q 947 2378 1403 2484 
z
M 1172 3481 
Q 1172 3119 1398 2916 
Q 1625 2713 2034 2713 
Q 2441 2713 2670 2916 
Q 2900 3119 2900 3481 
Q 2900 3844 2670 4047 
Q 2441 4250 2034 4250 
Q 1625 4250 1398 4047 
Q 1172 3844 1172 3481 
z
" transform="scale(0.015625)"/>
       </defs>
       <use xlink:href="#DejaVuSans-38"/>
      </g>
     </g>
    </g>
    <g id="ytick_5">
     <g id="line2d_13">
      <g>
       <use xlink:href="#m2e21a7ad3d" x="180" y="158.089986" style="stroke: #000000; stroke-width: 0.8"/>
      </g>
     </g>
     <g id="text_14">
      <!-- 10 -->
      <g transform="translate(160.275 161.889205) scale(0.1 -0.1)">
       <use xlink:href="#DejaVuSans-31"/>
       <use xlink:href="#DejaVuSans-30" x="63.623047"/>
      </g>
     </g>
    </g>
    <g id="ytick_6">
     <g id="line2d_14">
      <g>
       <use xlink:href="#m2e21a7ad3d" x="180" y="122.426418" style="stroke: #000000; stroke-width: 0.8"/>
      </g>
     </g>
     <g id="text_15">
      <!-- 12 -->
      <g transform="translate(160.275 126.225636) scale(0.1 -0.1)">
       <use xlink:href="#DejaVuSans-31"/>
       <use xlink:href="#DejaVuSans-32" x="63.623047"/>
      </g>
     </g>
    </g>
    <g id="ytick_7">
     <g id="line2d_15">
      <g>
       <use xlink:href="#m2e21a7ad3d" x="180" y="86.762849" style="stroke: #000000; stroke-width: 0.8"/>
      </g>
     </g>
     <g id="text_16">
      <!-- 14 -->
      <g transform="translate(160.275 90.562068) scale(0.1 -0.1)">
       <use xlink:href="#DejaVuSans-31"/>
       <use xlink:href="#DejaVuSans-34" x="63.623047"/>
      </g>
     </g>
    </g>
    <g id="ytick_8">
     <g id="line2d_16">
      <g>
       <use xlink:href="#m2e21a7ad3d" x="180" y="51.09928" style="stroke: #000000; stroke-width: 0.8"/>
      </g>
     </g>
     <g id="text_17">
      <!-- 16 -->
      <g transform="translate(160.275 54.898499) scale(0.1 -0.1)">
       <use xlink:href="#DejaVuSans-31"/>
       <use xlink:href="#DejaVuSans-36" x="63.623047"/>
      </g>
     </g>
    </g>
    <g id="text_18">
     <!-- Velocidade do Vento (m/s) -->
     <g transform="translate(154.195312 247.344531) rotate(-90) scale(0.1 -0.1)">
      <defs>
       <path id="DejaVuSans-56" d="M 1831 0 
L 50 4666 
L 709 4666 
L 2188 738 
L 3669 4666 
L 4325 4666 
L 2547 0 
L 1831 0 
z
" transform="scale(0.015625)"/>
       <path id="DejaVuSans-65" d="M 3597 1894 
L 3597 1613 
L 953 1613 
Q 991 1019 1311 708 
Q 1631 397 2203 397 
Q 2534 397 2845 478 
Q 3156 559 3463 722 
L 3463 178 
Q 3153 47 2828 -22 
Q 2503 -91 2169 -91 
Q 1331 -91 842 396 
Q 353 884 353 1716 
Q 353 2575 817 3079 
Q 1281 3584 2069 3584 
Q 2775 3584 3186 3129 
Q 3597 2675 3597 1894 
z
M 3022 2063 
Q 3016 2534 2758 2815 
Q 2500 3097 2075 3097 
Q 1594 3097 1305 2825 
Q 1016 2553 972 2059 
L 3022 2063 
z
" transform="scale(0.015625)"/>
       <path id="DejaVuSans-6c" d="M 603 4863 
L 1178 4863 
L 1178 0 
L 603 0 
L 603 4863 
z
" transform="scale(0.015625)"/>
       <path id="DejaVuSans-63" d="M 3122 3366 
L 3122 2828 
Q 2878 2963 2633 3030 
Q 2388 3097 2138 3097 
Q 1578 3097 1268 2742 
Q 959 2388 959 1747 
Q 959 1106 1268 751 
Q 1578 397 2138 397 
Q 2388 397 2633 464 
Q 2878 531 3122 666 
L 3122 134 
Q 2881 22 2623 -34 
Q 2366 -91 2075 -91 
Q 1284 -91 818 406 
Q 353 903 353 1747 
Q 353 2603 823 3093 
Q 1294 3584 2113 3584 
Q 2378 3584 2631 3529 
Q 2884 3475 3122 3366 
z
" transform="scale(0.015625)"/>
       <path id="DejaVuSans-69" d="M 603 3500 
L 1178 3500 
L 1178 0 
L 603 0 
L 603 3500 
z
M 603 4863 
L 1178 4863 
L 1178 4134 
L 603 4134 
L 603 4863 
z
" transform="scale(0.015625)"/>
       <path id="DejaVuSans-64" d="M 2906 2969 
L 2906 4863 
L 3481 4863 
L 3481 0 
L 2906 0 
L 2906 525 
Q 2725 213 2448 61 
Q 2172 -91 1784 -91 
Q 1150 -91 751 415 
Q 353 922 353 1747 
Q 353 2572 751 3078 
Q 1150 3584 1784 3584 
Q 2172 3584 2448 3432 
Q 2725 3281 2906 2969 
z
M 947 1747 
Q 947 1113 1208 752 
Q 1469 391 1925 391 
Q 2381 391 2643 752 
Q 2906 1113 2906 1747 
Q 2906 2381 2643 2742 
Q 2381 3103 1925 3103 
Q 1469 3103 1208 2742 
Q 947 2381 947 1747 
z
" transform="scale(0.015625)"/>
       <path id="DejaVuSans-20" transform="scale(0.015625)"/>
       <path id="DejaVuSans-6e" d="M 3513 2113 
L 3513 0 
L 2938 0 
L 2938 2094 
Q 2938 2591 2744 2837 
Q 2550 3084 2163 3084 
Q 1697 3084 1428 2787 
Q 1159 2491 1159 1978 
L 1159 0 
L 581 0 
L 581 3500 
L 1159 3500 
L 1159 2956 
Q 1366 3272 1645 3428 
Q 1925 3584 2291 3584 
Q 2894 3584 3203 3211 
Q 3513 2838 3513 2113 
z
" transform="scale(0.015625)"/>
       <path id="DejaVuSans-28" d="M 1984 4856 
Q 1566 4138 1362 3434 
Q 1159 2731 1159 2009 
Q 1159 1288 1364 580 
Q 1569 -128 1984 -844 
L 1484 -844 
Q 1016 -109 783 600 
Q 550 1309 550 2009 
Q 550 2706 781 3412 
Q 1013 4119 1484 4856 
L 1984 4856 
z
" transform="scale(0.015625)"/>
       <path id="DejaVuSans-2f" d="M 1625 4666 
L 2156 4666 
L 531 -594 
L 0 -594 
L 1625 4666 
z
" transform="scale(0.015625)"/>
       <path id="DejaVuSans-29" d="M 513 4856 
L 1013 4856 
Q 1481 4119 1714 3412 
Q 1947 2706 1947 2009 
Q 1947 1309 1714 600 
Q 1481 -109 1013 -844 
L 513 -844 
Q 928 -128 1133 580 
Q 1338 1288 1338 2009 
Q 1338 2731 1133 3434 
Q 928 4138 513 4856 
z
" transform="scale(0.015625)"/>
      </defs>
      <use xlink:href="#DejaVuSans-56"/>
      <use xlink:href="#DejaVuSans-65" x="60.658203"/>
      <use xlink:href="#DejaVuSans-6c" x="122.181641"/>
      <use xlink:href="#DejaVuSans-6f" x="149.964844"/>
      <use xlink:href="#DejaVuSans-63" x="211.146484"/>
      <use xlink:href="#DejaVuSans-69" x="266.126953"/>
      <use xlink:href="#DejaVuSans-64" x="293.910156"/>
      <use xlink:href="#DejaVuSans-61" x="357.386719"/>
      <use xlink:href="#DejaVuSans-64" x="418.666016"/>
      <use xlink:href="#DejaVuSans-65" x="482.142578"/>
      <use xlink:href="#DejaVuSans-20" x="543.666016"/>
      <use xlink:href="#DejaVuSans-64" x="575.453125"/>
      <use xlink:href="#DejaVuSans-6f" x="638.929688"/>
      <use xlink:href="#DejaVuSans-20" x="700.111328"/>
      <use xlink:href="#DejaVuSans-56" x="731.898438"/>
      <use xlink:href="#DejaVuSans-65" x="792.556641"/>
      <use xlink:href="#DejaVuSans-6e" x="854.080078"/>
      <use xlink:href="#DejaVuSans-74" x="917.458984"/>
      <use xlink:href="#DejaVuSans-6f" x="956.667969"/>
      <use xlink:href="#DejaVuSans-20" x="1017.849609"/>
      <use xlink:href="#DejaVuSans-28" x="1049.636719"/>
      <use xlink:href="#DejaVuSans-6d" x="1088.650391"/>
      <use xlink:href="#DejaVuSans-2f" x="1186.0625"/>
      <use xlink:href="#DejaVuSans-73" x="1219.753906"/>
      <use xlink:href="#DejaVuSans-29" x="1271.853516"/>
     </g>
    </g>
   </g>
   <g id="line2d_17">
    <path d="M 230.727273 135.356985 
L 236.066986 166.818407 
L 241.406699 175.758499 
L 246.746411 166.69214 
L 252.086124 182.027673 
L 257.425837 178.728768 
L 262.76555 177.394091 
L 268.105263 170.404454 
L 273.444976 168.181807 
L 278.784689 174.487475 
L 284.124402 193.68225 
L 289.464115 202.59225 
L 294.803828 239.456711 
L 300.143541 228.611699 
L 305.483254 237.015005 
L 310.822967 250.214169 
L 316.162679 252.660084 
L 321.502392 258.854475 
L 326.842105 263.283919 
L 332.181818 258.828949 
L 337.521531 247.609795 
L 342.861244 235.2668 
L 348.200957 193.208131 
L 353.54067 157.131272 
L 358.880383 134.243774 
L 364.220096 116.300313 
L 369.559809 117.030453 
L 374.899522 117.924155 
L 380.239234 114.458679 
L 385.578947 133.181104 
L 390.91866 150.045858 
L 396.258373 175.09196 
L 401.598086 180.842867 
L 406.937799 181.436129 
L 412.277512 175.858356 
L 417.617225 165.694245 
L 422.956938 194.717728 
L 428.296651 210.12925 
L 433.636364 205.946321 
L 438.976077 203.096393 
L 449.655502 194.02097 
L 454.995215 210.406971 
L 460.334928 215.885574 
L 465.674641 195.097321 
L 471.014354 185.213778 
L 476.354067 182.694773 
L 481.69378 171.721665 
L 487.033493 126.510629 
L 492.373206 104.89992 
L 497.712919 106.738969 
L 503.052632 120.525094 
L 508.392344 128.502611 
L 513.732057 125.204624 
L 519.07177 129.812017 
L 524.411483 137.241677 
L 529.751196 156.052379 
L 535.090909 150.056113 
L 540.430622 167.924765 
L 545.770335 182.109334 
L 551.110048 205.127266 
L 556.449761 208.431247 
L 561.789474 212.431008 
L 567.129187 212.314068 
L 572.4689 226.193486 
L 577.808612 231.420244 
L 583.148325 254.592698 
L 588.488038 219.400341 
L 593.827751 194.603739 
L 599.167464 185.680262 
L 604.507177 154.186818 
L 609.84689 128.219363 
L 615.186603 112.403675 
L 620.526316 97.075557 
L 625.866029 101.917968 
L 631.205742 104.781526 
L 636.545455 112.296505 
L 641.885167 114.557448 
L 647.22488 135.141982 
L 652.564593 142.621826 
L 657.904306 154.510862 
L 663.244019 174.413279 
L 668.583732 167.946243 
L 673.923445 176.411042 
L 679.263158 190.035289 
L 684.602871 189.320114 
L 689.942584 189.569571 
L 695.282297 198.845245 
L 700.62201 193.387524 
L 705.961722 207.733936 
L 711.301435 226.092906 
L 716.641148 227.922211 
L 721.980861 201.575716 
L 727.320574 191.05587 
L 732.660287 156.114739 
L 738 126.333549 
L 748.679426 114.37899 
L 754.019139 108.523192 
L 759.358852 107.602332 
L 764.698565 114.814915 
L 770.038278 119.066531 
L 775.37799 127.625201 
L 780.717703 162.037149 
L 786.057416 179.466357 
L 791.397129 179.025382 
L 796.736842 168.554096 
L 802.076555 173.153784 
L 807.416268 212.246726 
L 812.755981 215.942884 
L 818.095694 217.789611 
L 823.435407 266.524435 
L 828.77512 255.415919 
L 834.114833 230.709269 
L 839.454545 231.580633 
L 844.794258 233.86649 
L 850.133971 212.40896 
L 855.473684 196.872318 
L 860.813397 193.20944 
L 866.15311 169.851955 
L 871.492823 129.335448 
L 876.832536 113.670311 
L 882.172249 126.141163 
L 887.511962 124.453448 
L 892.851675 128.293508 
L 898.191388 136.612364 
L 903.5311 155.639667 
L 908.870813 170.082927 
L 914.210526 160.857513 
L 919.550239 169.611392 
L 924.889952 176.778655 
L 930.229665 176.477994 
L 935.569378 185.651777 
L 940.909091 176.431908 
L 946.248804 191.217238 
L 951.588517 198.635309 
L 956.92823 192.368065 
L 962.267943 198.777077 
L 967.607656 213.985874 
L 972.947368 222.055001 
L 978.287081 205.137725 
L 983.626794 194.331367 
L 988.966507 166.544598 
L 994.30622 139.945229 
L 999.645933 130.569893 
L 1004.985646 138.650482 
L 1010.325359 132.221284 
L 1015.665072 133.5855 
L 1021.004785 138.944494 
L 1026.344498 145.733906 
L 1031.684211 162.696987 
L 1037.023923 170.318915 
L 1042.363636 162.943706 
L 1047.703349 177.266736 
L 1053.043062 184.56586 
L 1058.382775 173.813198 
L 1063.722488 211.039201 
L 1069.062201 212.870971 
L 1074.401914 223.071917 
L 1079.741627 241.477406 
L 1085.08134 234.88055 
L 1090.421053 235.74234 
L 1095.760766 240.718101 
L 1101.100478 214.21955 
L 1106.440191 214.326116 
L 1111.779904 212.420065 
L 1117.119617 200.048909 
L 1122.45933 189.74643 
L 1127.799043 167.949407 
L 1133.138756 144.782827 
L 1138.478469 134.783501 
L 1143.818182 130.362543 
L 1149.157895 135.030696 
L 1154.497608 139.955585 
L 1159.837321 150.210882 
L 1165.177033 148.594182 
L 1170.516746 152.354741 
L 1175.856459 166.993209 
L 1181.196172 175.358967 
L 1186.535885 172.74177 
L 1191.875598 171.040144 
L 1197.215311 177.588195 
L 1202.555024 191.935661 
L 1207.894737 197.54588 
L 1213.23445 212.694563 
L 1218.574163 219.895828 
L 1223.913876 231.875283 
L 1229.253589 227.262925 
L 1234.593301 209.479573 
L 1239.933014 189.595352 
L 1245.272727 162.874969 
L 1245.272727 162.874969 
" clip-path="url(#pc89fd4a997)" style="fill: none; stroke: #0000ff; stroke-width: 1.5; stroke-linecap: square"/>
   </g>
   <g id="line2d_18">
    <path d="M 230.727273 171.136908 
L 236.066986 180.6571 
L 241.406699 164.113166 
L 246.746411 182.687942 
L 252.086124 180.161773 
L 257.425837 176.49635 
L 262.76555 170.18588 
L 268.105263 165.074101 
L 273.444976 172.840835 
L 278.784689 197.98365 
L 284.124402 208.692627 
L 289.464115 229.010955 
L 294.803828 217.707585 
L 300.143541 229.456749 
L 305.483254 245.386477 
L 310.822967 248.657359 
L 316.162679 257.947979 
L 321.502392 268.290414 
L 326.842105 266.606301 
L 332.181818 252.370593 
L 337.521531 241.027596 
L 342.861244 195.437668 
L 348.200957 156.405873 
L 353.54067 129.975206 
L 358.880383 105.179119 
L 364.220096 107.29912 
L 369.559809 107.982672 
L 374.899522 105.932017 
L 380.239234 133.848666 
L 385.578947 152.809797 
L 390.91866 182.390746 
L 396.258373 186.739719 
L 401.598086 188.106823 
L 406.937799 177.179902 
L 412.277512 157.18849 
L 417.617225 177.695043 
L 422.956938 194.813554 
L 428.296651 192.366638 
L 433.636364 190.115045 
L 438.976077 185.965795 
L 444.315789 181.608284 
L 449.655502 204.026644 
L 454.995215 214.636556 
L 460.334928 208.732254 
L 465.674641 215.330014 
L 471.014354 213.309078 
L 476.354067 191.494862 
L 481.69378 130.054459 
L 487.033493 91.468459 
L 492.373206 88.635187 
L 497.712919 106.625474 
L 503.052632 122.73352 
L 508.392344 112.807161 
L 513.732057 107.814261 
L 519.07177 119.226602 
L 524.411483 147.945682 
L 529.751196 133.165115 
L 535.090909 158.981575 
L 540.430622 172.811115 
L 545.770335 187.730375 
L 551.110048 192.515236 
L 556.449761 197.735986 
L 561.789474 197.518043 
L 567.129187 211.23861 
L 572.4689 217.618427 
L 577.808612 250.825171 
L 583.148325 217.875997 
L 588.488038 209.039357 
L 593.827751 206.651879 
L 599.167464 167.68943 
L 604.507177 130.113898 
L 609.84689 102.811455 
L 615.186603 63.333865 
L 620.526316 77.500228 
L 625.866029 89.883412 
L 631.205742 108.686037 
L 636.545455 104.901736 
L 641.885167 140.466239 
L 647.22488 138.395771 
L 652.564593 141.962128 
L 657.904306 161.022324 
L 663.244019 149.362318 
L 668.583732 158.971669 
L 673.923445 169.948124 
L 679.263158 169.363637 
L 684.602871 170.433544 
L 689.942584 180.94439 
L 695.282297 176.803454 
L 700.62201 195.22963 
L 705.961722 217.539174 
L 711.301435 231.764975 
L 716.641148 216.924968 
L 721.980861 220.461606 
L 727.320574 166.272794 
L 732.660287 124.734642 
L 738 116.066414 
L 743.339713 103.257249 
L 748.679426 81.859108 
L 754.019139 87.842664 
L 759.358852 96.157155 
L 764.698565 104.257811 
L 770.038278 114.144545 
L 775.37799 164.905691 
L 780.717703 178.487567 
L 786.057416 163.112605 
L 791.397129 138.583995 
L 796.736842 146.945121 
L 802.076555 194.13991 
L 807.416268 246.000683 
L 812.755981 251.142181 
L 818.095694 256.570969 
L 823.435407 246.079936 
L 828.77512 224.622354 
L 834.114833 228.644413 
L 839.454545 248.99246 
L 844.794258 246.213514 
L 850.133971 229.241898 
L 855.473684 213.328891 
L 860.813397 170.195786 
L 866.15311 113.431273 
L 871.492823 89.546589 
L 876.832536 106.387718 
L 882.172249 99.770145 
L 887.511962 99.413509 
L 892.851675 120.464921 
L 898.191388 152.502694 
L 903.5311 171.325133 
L 908.870813 153.929237 
L 914.210526 168.472047 
L 919.550239 171.315226 
L 924.889952 157.832416 
L 930.229665 162.27055 
L 935.569378 151.918207 
L 940.909091 172.682329 
L 946.248804 184.946635 
L 951.588517 180.458968 
L 956.92823 194.526265 
L 962.267943 213.616181 
L 967.607656 236.064417 
L 972.947368 233.647219 
L 978.287081 215.478612 
L 983.626794 174.614106 
L 988.966507 134.710535 
L 994.30622 111.786786 
L 999.645933 140.991286 
L 1004.985646 124.94268 
L 1010.325359 122.723614 
L 1015.665072 136.50362 
L 1021.004785 143.616521 
L 1026.344498 170.146254 
L 1031.684211 185.976916 
L 1037.023923 176.030743 
L 1042.363636 197.567575 
L 1047.703349 203.095428 
L 1053.043062 176.664762 
L 1058.382775 197.944024 
L 1063.722488 198.399726 
L 1069.062201 214.56721 
L 1074.401914 242.691897 
L 1079.741627 241.721055 
L 1085.08134 248.952834 
L 1090.421053 245.416197 
L 1095.760766 215.964032 
L 1101.100478 243.385355 
L 1106.440191 261.227046 
L 1111.779904 230.873386 
L 1117.119617 215.121977 
L 1122.45933 183.12383 
L 1127.799043 135.463433 
L 1133.138756 118.117069 
L 1138.478469 112.212767 
L 1143.818182 118.126975 
L 1149.157895 117.296043 
L 1154.497608 135.489702 
L 1159.837321 137.464555 
L 1165.177033 149.075029 
L 1170.516746 178.071491 
L 1175.856459 192.079348 
L 1181.196172 157.287556 
L 1186.535885 141.506427 
L 1191.875598 153.552788 
L 1197.215311 172.880461 
L 1202.555024 182.598784 
L 1207.894737 204.224775 
L 1213.23445 216.241417 
L 1218.574163 237.550399 
L 1223.913876 245.109094 
L 1229.253589 243.375448 
L 1234.593301 204.977672 
L 1239.933014 150.947366 
L 1245.272727 115.283797 
L 1245.272727 115.283797 
" clip-path="url(#pc89fd4a997)" style="fill: none; stroke: #ffa500; stroke-width: 1.5; stroke-linecap: square"/>
   </g>
   <g id="patch_3">
    <path d="M 180 320.4 
L 180 43.2 
" style="fill: none; stroke: #000000; stroke-width: 0.8; stroke-linejoin: miter; stroke-linecap: square"/>
   </g>
   <g id="patch_4">
    <path d="M 1296 320.4 
L 1296 43.2 
" style="fill: none; stroke: #000000; stroke-width: 0.8; stroke-linejoin: miter; stroke-linecap: square"/>
   </g>
   <g id="patch_5">
    <path d="M 180 320.4 
L 1296 320.4 
" style="fill: none; stroke: #000000; stroke-width: 0.8; stroke-linejoin: miter; stroke-linecap: square"/>
   </g>
   <g id="patch_6">
    <path d="M 180 43.2 
L 1296 43.2 
" style="fill: none; stroke: #000000; stroke-width: 0.8; stroke-linejoin: miter; stroke-linecap: square"/>
   </g>
   <g id="text_19">
    <!-- Previsão do vento para 1 hora(s) à frente com 6 camadas -->
    <g transform="translate(564.882187 37.2) scale(0.12 -0.12)">
     <defs>
      <path id="DejaVuSans-50" d="M 1259 4147 
L 1259 2394 
L 2053 2394 
Q 2494 2394 2734 2622 
Q 2975 2850 2975 3272 
Q 2975 3691 2734 3919 
Q 2494 4147 2053 4147 
L 1259 4147 
z
M 628 4666 
L 2053 4666 
Q 2838 4666 3239 4311 
Q 3641 3956 3641 3272 
Q 3641 2581 3239 2228 
Q 2838 1875 2053 1875 
L 1259 1875 
L 1259 0 
L 628 0 
L 628 4666 
z
" transform="scale(0.015625)"/>
      <path id="DejaVuSans-76" d="M 191 3500 
L 800 3500 
L 1894 563 
L 2988 3500 
L 3597 3500 
L 2284 0 
L 1503 0 
L 191 3500 
z
" transform="scale(0.015625)"/>
      <path id="DejaVuSans-e3" d="M 2194 1759 
Q 1497 1759 1228 1600 
Q 959 1441 959 1056 
Q 959 750 1161 570 
Q 1363 391 1709 391 
Q 2188 391 2477 730 
Q 2766 1069 2766 1631 
L 2766 1759 
L 2194 1759 
z
M 3341 1997 
L 3341 0 
L 2766 0 
L 2766 531 
Q 2569 213 2275 61 
Q 1981 -91 1556 -91 
Q 1019 -91 701 211 
Q 384 513 384 1019 
Q 384 1609 779 1909 
Q 1175 2209 1959 2209 
L 2766 2209 
L 2766 2266 
Q 2766 2663 2505 2880 
Q 2244 3097 1772 3097 
Q 1472 3097 1187 3025 
Q 903 2953 641 2809 
L 641 3341 
Q 956 3463 1253 3523 
Q 1550 3584 1831 3584 
Q 2591 3584 2966 3190 
Q 3341 2797 3341 1997 
z
M 1844 4281 
L 1666 4453 
Q 1597 4516 1545 4545 
Q 1494 4575 1453 4575 
Q 1334 4575 1278 4461 
Q 1222 4347 1216 4091 
L 825 4091 
Q 831 4513 990 4742 
Q 1150 4972 1434 4972 
Q 1553 4972 1653 4928 
Q 1753 4884 1869 4781 
L 2047 4609 
Q 2116 4547 2167 4517 
Q 2219 4488 2259 4488 
Q 2378 4488 2434 4602 
Q 2491 4716 2497 4972 
L 2888 4972 
Q 2881 4550 2722 4320 
Q 2563 4091 2278 4091 
Q 2159 4091 2059 4134 
Q 1959 4178 1844 4281 
z
" transform="scale(0.015625)"/>
      <path id="DejaVuSans-70" d="M 1159 525 
L 1159 -1331 
L 581 -1331 
L 581 3500 
L 1159 3500 
L 1159 2969 
Q 1341 3281 1617 3432 
Q 1894 3584 2278 3584 
Q 2916 3584 3314 3078 
Q 3713 2572 3713 1747 
Q 3713 922 3314 415 
Q 2916 -91 2278 -91 
Q 1894 -91 1617 61 
Q 1341 213 1159 525 
z
M 3116 1747 
Q 3116 2381 2855 2742 
Q 2594 3103 2138 3103 
Q 1681 3103 1420 2742 
Q 1159 2381 1159 1747 
Q 1159 1113 1420 752 
Q 1681 391 2138 391 
Q 2594 391 2855 752 
Q 3116 1113 3116 1747 
z
" transform="scale(0.015625)"/>
      <path id="DejaVuSans-68" d="M 3513 2113 
L 3513 0 
L 2938 0 
L 2938 2094 
Q 2938 2591 2744 2837 
Q 2550 3084 2163 3084 
Q 1697 3084 1428 2787 
Q 1159 2491 1159 1978 
L 1159 0 
L 581 0 
L 581 4863 
L 1159 4863 
L 1159 2956 
Q 1366 3272 1645 3428 
Q 1925 3584 2291 3584 
Q 2894 3584 3203 3211 
Q 3513 2838 3513 2113 
z
" transform="scale(0.015625)"/>
      <path id="DejaVuSans-e0" d="M 2194 1759 
Q 1497 1759 1228 1600 
Q 959 1441 959 1056 
Q 959 750 1161 570 
Q 1363 391 1709 391 
Q 2188 391 2477 730 
Q 2766 1069 2766 1631 
L 2766 1759 
L 2194 1759 
z
M 3341 1997 
L 3341 0 
L 2766 0 
L 2766 531 
Q 2569 213 2275 61 
Q 1981 -91 1556 -91 
Q 1019 -91 701 211 
Q 384 513 384 1019 
Q 384 1609 779 1909 
Q 1175 2209 1959 2209 
L 2766 2209 
L 2766 2266 
Q 2766 2663 2505 2880 
Q 2244 3097 1772 3097 
Q 1472 3097 1187 3025 
Q 903 2953 641 2809 
L 641 3341 
Q 956 3463 1253 3523 
Q 1550 3584 1831 3584 
Q 2591 3584 2966 3190 
Q 3341 2797 3341 1997 
z
M 1403 5119 
L 2284 3950 
L 1806 3950 
L 788 5119 
L 1403 5119 
z
" transform="scale(0.015625)"/>
      <path id="DejaVuSans-66" d="M 2375 4863 
L 2375 4384 
L 1825 4384 
Q 1516 4384 1395 4259 
Q 1275 4134 1275 3809 
L 1275 3500 
L 2222 3500 
L 2222 3053 
L 1275 3053 
L 1275 0 
L 697 0 
L 697 3053 
L 147 3053 
L 147 3500 
L 697 3500 
L 697 3744 
Q 697 4328 969 4595 
Q 1241 4863 1831 4863 
L 2375 4863 
z
" transform="scale(0.015625)"/>
     </defs>
     <use xlink:href="#DejaVuSans-50"/>
     <use xlink:href="#DejaVuSans-72" x="58.552734"/>
     <use xlink:href="#DejaVuSans-65" x="97.416016"/>
     <use xlink:href="#DejaVuSans-76" x="158.939453"/>
     <use xlink:href="#DejaVuSans-69" x="218.119141"/>
     <use xlink:href="#DejaVuSans-73" x="245.902344"/>
     <use xlink:href="#DejaVuSans-e3" x="298.001953"/>
     <use xlink:href="#DejaVuSans-6f" x="359.28125"/>
     <use xlink:href="#DejaVuSans-20" x="420.462891"/>
     <use xlink:href="#DejaVuSans-64" x="452.25"/>
     <use xlink:href="#DejaVuSans-6f" x="515.726562"/>
     <use xlink:href="#DejaVuSans-20" x="576.908203"/>
     <use xlink:href="#DejaVuSans-76" x="608.695312"/>
     <use xlink:href="#DejaVuSans-65" x="667.875"/>
     <use xlink:href="#DejaVuSans-6e" x="729.398438"/>
     <use xlink:href="#DejaVuSans-74" x="792.777344"/>
     <use xlink:href="#DejaVuSans-6f" x="831.986328"/>
     <use xlink:href="#DejaVuSans-20" x="893.167969"/>
     <use xlink:href="#DejaVuSans-70" x="924.955078"/>
     <use xlink:href="#DejaVuSans-61" x="988.431641"/>
     <use xlink:href="#DejaVuSans-72" x="1049.710938"/>
     <use xlink:href="#DejaVuSans-61" x="1090.824219"/>
     <use xlink:href="#DejaVuSans-20" x="1152.103516"/>
     <use xlink:href="#DejaVuSans-31" x="1183.890625"/>
     <use xlink:href="#DejaVuSans-20" x="1247.513672"/>
     <use xlink:href="#DejaVuSans-68" x="1279.300781"/>
     <use xlink:href="#DejaVuSans-6f" x="1342.679688"/>
     <use xlink:href="#DejaVuSans-72" x="1403.861328"/>
     <use xlink:href="#DejaVuSans-61" x="1444.974609"/>
     <use xlink:href="#DejaVuSans-28" x="1506.253906"/>
     <use xlink:href="#DejaVuSans-73" x="1545.267578"/>
     <use xlink:href="#DejaVuSans-29" x="1597.367188"/>
     <use xlink:href="#DejaVuSans-20" x="1636.380859"/>
     <use xlink:href="#DejaVuSans-e0" x="1668.167969"/>
     <use xlink:href="#DejaVuSans-20" x="1729.447266"/>
     <use xlink:href="#DejaVuSans-66" x="1761.234375"/>
     <use xlink:href="#DejaVuSans-72" x="1796.439453"/>
     <use xlink:href="#DejaVuSans-65" x="1835.302734"/>
     <use xlink:href="#DejaVuSans-6e" x="1896.826172"/>
     <use xlink:href="#DejaVuSans-74" x="1960.205078"/>
     <use xlink:href="#DejaVuSans-65" x="1999.414062"/>
     <use xlink:href="#DejaVuSans-20" x="2060.9375"/>
     <use xlink:href="#DejaVuSans-63" x="2092.724609"/>
     <use xlink:href="#DejaVuSans-6f" x="2147.705078"/>
     <use xlink:href="#DejaVuSans-6d" x="2208.886719"/>
     <use xlink:href="#DejaVuSans-20" x="2306.298828"/>
     <use xlink:href="#DejaVuSans-36" x="2338.085938"/>
     <use xlink:href="#DejaVuSans-20" x="2401.708984"/>
     <use xlink:href="#DejaVuSans-63" x="2433.496094"/>
     <use xlink:href="#DejaVuSans-61" x="2488.476562"/>
     <use xlink:href="#DejaVuSans-6d" x="2549.755859"/>
     <use xlink:href="#DejaVuSans-61" x="2647.167969"/>
     <use xlink:href="#DejaVuSans-64" x="2708.447266"/>
     <use xlink:href="#DejaVuSans-61" x="2771.923828"/>
     <use xlink:href="#DejaVuSans-73" x="2833.203125"/>
    </g>
   </g>
   <g id="legend_1">
    <g id="patch_7">
     <path d="M 1217.86875 80.55625 
L 1289 80.55625 
Q 1291 80.55625 1291 78.55625 
L 1291 50.2 
Q 1291 48.2 1289 48.2 
L 1217.86875 48.2 
Q 1215.86875 48.2 1215.86875 50.2 
L 1215.86875 78.55625 
Q 1215.86875 80.55625 1217.86875 80.55625 
z
" style="fill: #ffffff; opacity: 0.8; stroke: #cccccc; stroke-linejoin: miter"/>
    </g>
    <g id="line2d_19">
     <path d="M 1219.86875 56.298437 
L 1229.86875 56.298437 
L 1239.86875 56.298437 
" style="fill: none; stroke: #0000ff; stroke-width: 1.5; stroke-linecap: square"/>
    </g>
    <g id="text_20">
     <!-- Predito -->
     <g transform="translate(1247.86875 59.798437) scale(0.1 -0.1)">
      <use xlink:href="#DejaVuSans-50"/>
      <use xlink:href="#DejaVuSans-72" x="58.552734"/>
      <use xlink:href="#DejaVuSans-65" x="97.416016"/>
      <use xlink:href="#DejaVuSans-64" x="158.939453"/>
      <use xlink:href="#DejaVuSans-69" x="222.416016"/>
      <use xlink:href="#DejaVuSans-74" x="250.199219"/>
      <use xlink:href="#DejaVuSans-6f" x="289.408203"/>
     </g>
    </g>
    <g id="line2d_20">
     <path d="M 1219.86875 70.976562 
L 1229.86875 70.976562 
L 1239.86875 70.976562 
" style="fill: none; stroke: #ffa500; stroke-width: 1.5; stroke-linecap: square"/>
    </g>
    <g id="text_21">
     <!-- Original -->
     <g transform="translate(1247.86875 74.476562) scale(0.1 -0.1)">
      <defs>
       <path id="DejaVuSans-4f" d="M 2522 4238 
Q 1834 4238 1429 3725 
Q 1025 3213 1025 2328 
Q 1025 1447 1429 934 
Q 1834 422 2522 422 
Q 3209 422 3611 934 
Q 4013 1447 4013 2328 
Q 4013 3213 3611 3725 
Q 3209 4238 2522 4238 
z
M 2522 4750 
Q 3503 4750 4090 4092 
Q 4678 3434 4678 2328 
Q 4678 1225 4090 567 
Q 3503 -91 2522 -91 
Q 1538 -91 948 565 
Q 359 1222 359 2328 
Q 359 3434 948 4092 
Q 1538 4750 2522 4750 
z
" transform="scale(0.015625)"/>
       <path id="DejaVuSans-67" d="M 2906 1791 
Q 2906 2416 2648 2759 
Q 2391 3103 1925 3103 
Q 1463 3103 1205 2759 
Q 947 2416 947 1791 
Q 947 1169 1205 825 
Q 1463 481 1925 481 
Q 2391 481 2648 825 
Q 2906 1169 2906 1791 
z
M 3481 434 
Q 3481 -459 3084 -895 
Q 2688 -1331 1869 -1331 
Q 1566 -1331 1297 -1286 
Q 1028 -1241 775 -1147 
L 775 -588 
Q 1028 -725 1275 -790 
Q 1522 -856 1778 -856 
Q 2344 -856 2625 -561 
Q 2906 -266 2906 331 
L 2906 616 
Q 2728 306 2450 153 
Q 2172 0 1784 0 
Q 1141 0 747 490 
Q 353 981 353 1791 
Q 353 2603 747 3093 
Q 1141 3584 1784 3584 
Q 2172 3584 2450 3431 
Q 2728 3278 2906 2969 
L 2906 3500 
L 3481 3500 
L 3481 434 
z
" transform="scale(0.015625)"/>
      </defs>
      <use xlink:href="#DejaVuSans-4f"/>
      <use xlink:href="#DejaVuSans-72" x="78.710938"/>
      <use xlink:href="#DejaVuSans-69" x="119.824219"/>
      <use xlink:href="#DejaVuSans-67" x="147.607422"/>
      <use xlink:href="#DejaVuSans-69" x="211.083984"/>
      <use xlink:href="#DejaVuSans-6e" x="238.867188"/>
      <use xlink:href="#DejaVuSans-61" x="302.246094"/>
      <use xlink:href="#DejaVuSans-6c" x="363.525391"/>
     </g>
    </g>
   </g>
  </g>
 </g>
 <defs>
  <clipPath id="pc89fd4a997">
   <rect x="180" y="43.2" width="1116" height="277.2"/>
  </clipPath>
 </defs>
</svg>
