<?xml version="1.0" encoding="utf-8" standalone="no"?>
<!DOCTYPE svg PUBLIC "-//W3C//DTD SVG 1.1//EN"
  "http://www.w3.org/Graphics/SVG/1.1/DTD/svg11.dtd">
<svg xmlns:xlink="http://www.w3.org/1999/xlink" width="1440pt" height="360pt" viewBox="0 0 1440 360" xmlns="http://www.w3.org/2000/svg" version="1.1">
 <metadata>
  <rdf:RDF xmlns:dc="http://purl.org/dc/elements/1.1/" xmlns:cc="http://creativecommons.org/ns#" xmlns:rdf="http://www.w3.org/1999/02/22-rdf-syntax-ns#">
   <cc:Work>
    <dc:type rdf:resource="http://purl.org/dc/dcmitype/StillImage"/>
    <dc:date>2023-08-21T14:03:03.718727</dc:date>
    <dc:format>image/svg+xml</dc:format>
    <dc:creator>
     <cc:Agent>
      <dc:title>Matplotlib v3.7.1, https://matplotlib.org/</dc:title>
     </cc:Agent>
    </dc:creator>
   </cc:Work>
  </rdf:RDF>
 </metadata>
 <defs>
  <style type="text/css">*{stroke-linejoin: round; stroke-linecap: butt}</style>
 </defs>
 <g id="figure_1">
  <g id="patch_1">
   <path d="M 0 360 
L 1440 360 
L 1440 0 
L 0 0 
z
" style="fill: #ffffff"/>
  </g>
  <g id="axes_1">
   <g id="patch_2">
    <path d="M 180 320.4 
L 1296 320.4 
L 1296 43.2 
L 180 43.2 
z
" style="fill: #ffffff"/>
   </g>
   <g id="PolyCollection_1">
    <defs>
     <path id="m3e79c07e94" d="M 230.727273 -260.282833 
L 230.727273 -187.209064 
L 236.066986 -155.098662 
L 241.406699 -143.763013 
L 246.746411 -153.613591 
L 252.086124 -138.558675 
L 257.425837 -142.673846 
L 262.76555 -144.94985 
L 268.105263 -152.022653 
L 273.444976 -155.643546 
L 278.784689 -148.822255 
L 284.124402 -124.632087 
L 289.464115 -112.359181 
L 294.803828 -85.918003 
L 300.143541 -98.049791 
L 305.483254 -88.822101 
L 310.822967 -74.352536 
L 316.162679 -71.892267 
L 321.502392 -64.173868 
L 326.842105 -56.449996 
L 332.181818 -59.139517 
L 337.521531 -70.244144 
L 342.861244 -82.214726 
L 348.200957 -127.88364 
L 353.54067 -165.325933 
L 358.880383 -189.165955 
L 364.220096 -205.645336 
L 369.559809 -206.986101 
L 374.899522 -206.982424 
L 380.239234 -210.246916 
L 385.578947 -191.515349 
L 390.91866 -173.89666 
L 396.258373 -146.038054 
L 401.598086 -140.0228 
L 406.937799 -138.625243 
L 412.277512 -147.593456 
L 417.617225 -163.40016 
L 422.956938 -137.320666 
L 428.296651 -119.532499 
L 433.636364 -124.293841 
L 438.976077 -127.498527 
L 444.315789 -132.704343 
L 449.655502 -137.798123 
L 454.995215 -119.578215 
L 460.334928 -111.270968 
L 465.674641 -128.666737 
L 471.014354 -133.694344 
L 476.354067 -132.829747 
L 481.69378 -148.097461 
L 487.033493 -198.644084 
L 492.373206 -219.342028 
L 497.712919 -218.07278 
L 503.052632 -207.050264 
L 508.392344 -199.584408 
L 513.732057 -204.506819 
L 519.07177 -202.728394 
L 524.411483 -196.335192 
L 529.751196 -174.981136 
L 535.090909 -183.680498 
L 540.430622 -162.48068 
L 545.770335 -146.510132 
L 551.110048 -125.263489 
L 556.449761 -122.198667 
L 561.789474 -118.299353 
L 567.129187 -118.690575 
L 572.4689 -102.928573 
L 577.808612 -97.532418 
L 583.148325 -68.32131 
L 588.488038 -106.800961 
L 593.827751 -127.873279 
L 599.167464 -134.922215 
L 604.507177 -173.154993 
L 609.84689 -202.720387 
L 615.186603 -214.818203 
L 620.526316 -226.648921 
L 625.866029 -227.517831 
L 631.205742 -231.126231 
L 636.545455 -222.184807 
L 641.885167 -214.379048 
L 647.22488 -190.499452 
L 652.564593 -184.477427 
L 657.904306 -176.259835 
L 663.244019 -156.748899 
L 668.583732 -166.368756 
L 673.923445 -156.602823 
L 679.263158 -141.837413 
L 684.602871 -141.948451 
L 689.942584 -141.31198 
L 695.282297 -131.744601 
L 700.62201 -137.86464 
L 705.961722 -121.792676 
L 711.301435 -100.848323 
L 716.641148 -94.187232 
L 721.980861 -119.15651 
L 727.320574 -125.518533 
L 732.660287 -169.541489 
L 738 -204.655369 
L 743.339713 -209.750988 
L 748.679426 -214.432883 
L 754.019139 -218.378833 
L 759.358852 -224.500074 
L 764.698565 -216.361405 
L 770.038278 -211.809931 
L 775.37799 -203.977211 
L 780.717703 -163.291613 
L 786.057416 -146.852665 
L 791.397129 -155.367804 
L 796.736842 -173.138428 
L 802.076555 -165.294504 
L 807.416268 -116.206894 
L 812.755981 -66.210172 
L 818.095694 -61.914507 
L 823.435407 -52.2 
L 828.77512 -65.616153 
L 834.114833 -93.423157 
L 839.454545 -91.672904 
L 844.794258 -80.661007 
L 850.133971 -95.052603 
L 855.473684 -112.064865 
L 860.813397 -121.830127 
L 866.15311 -154.252949 
L 871.492823 -197.754485 
L 876.832536 -213.893549 
L 882.172249 -203.470577 
L 887.511962 -207.451014 
L 892.851675 -205.40568 
L 898.191388 -196.544571 
L 903.5311 -172.53653 
L 908.870813 -154.488756 
L 914.210526 -167.536089 
L 919.550239 -155.695663 
L 924.889952 -150.005569 
L 930.229665 -157.884014 
L 935.569378 -148.563336 
L 940.909091 -159.600166 
L 946.248804 -141.471184 
L 951.588517 -131.805327 
L 956.92823 -138.695884 
L 962.267943 -129.356683 
L 967.607656 -109.869271 
L 972.947368 -92.700219 
L 978.287081 -103.89292 
L 983.626794 -120.118511 
L 988.966507 -158.972836 
L 994.30622 -194.23994 
L 999.645933 -206.489159 
L 1004.985646 -192.123141 
L 1010.325359 -200.16457 
L 1015.665072 -200.279904 
L 1021.004785 -192.020986 
L 1026.344498 -184.677149 
L 1031.684211 -160.913593 
L 1037.023923 -147.342648 
L 1042.363636 -156.644304 
L 1047.703349 -135.462786 
L 1053.043062 -127.425498 
L 1058.382775 -149.379115 
L 1063.722488 -117.544248 
L 1069.062201 -115.177714 
L 1074.401914 -101.51294 
L 1079.741627 -75.565139 
L 1085.08134 -81.151841 
L 1090.421053 -76.668422 
L 1095.760766 -75.041331 
L 1101.100478 -107.708216 
L 1106.440191 -92.097823 
L 1111.779904 -81.771593 
L 1117.119617 -106.028879 
L 1122.45933 -121.167752 
L 1127.799043 -153.186842 
L 1133.138756 -189.989536 
L 1138.478469 -202.558141 
L 1143.818182 -207.182593 
L 1149.157895 -201.608968 
L 1154.497608 -196.9657 
L 1159.837321 -185.491417 
L 1165.177033 -186.981488 
L 1170.516746 -178.252347 
L 1175.856459 -153.397166 
L 1181.196172 -139.658409 
L 1186.535885 -160.364705 
L 1191.875598 -169.231691 
L 1197.215311 -158.000757 
L 1202.555024 -141.174702 
L 1207.894737 -134.099802 
L 1213.23445 -113.883052 
L 1218.574163 -103.35753 
L 1223.913876 -84.360196 
L 1229.253589 -83.356825 
L 1234.593301 -94.670247 
L 1239.933014 -129.31192 
L 1245.272727 -169.585874 
L 1245.272727 -242.659643 
L 1245.272727 -242.659643 
L 1239.933014 -202.385689 
L 1234.593301 -167.744025 
L 1229.253589 -156.430594 
L 1223.913876 -157.433965 
L 1218.574163 -176.431307 
L 1213.23445 -186.95683 
L 1207.894737 -207.173572 
L 1202.555024 -214.248471 
L 1197.215311 -231.074526 
L 1191.875598 -242.30546 
L 1186.535885 -233.438474 
L 1181.196172 -212.732178 
L 1175.856459 -226.470935 
L 1170.516746 -251.326116 
L 1165.177033 -260.055257 
L 1159.837321 -258.565186 
L 1154.497608 -270.039469 
L 1149.157895 -274.682737 
L 1143.818182 -280.256362 
L 1138.478469 -275.63191 
L 1133.138756 -263.063305 
L 1127.799043 -226.260611 
L 1122.45933 -194.241521 
L 1117.119617 -179.102648 
L 1111.779904 -154.845362 
L 1106.440191 -165.171592 
L 1101.100478 -180.781994 
L 1095.760766 -148.1151 
L 1090.421053 -149.742191 
L 1085.08134 -154.22561 
L 1079.741627 -148.638908 
L 1074.401914 -174.586709 
L 1069.062201 -188.251492 
L 1063.722488 -190.618017 
L 1058.382775 -222.452884 
L 1053.043062 -200.499267 
L 1047.703349 -208.536555 
L 1042.363636 -229.718073 
L 1037.023923 -220.416417 
L 1031.684211 -233.987362 
L 1026.344498 -257.750918 
L 1021.004785 -265.094755 
L 1015.665072 -273.353673 
L 1010.325359 -273.238339 
L 1004.985646 -265.19691 
L 999.645933 -279.562928 
L 994.30622 -267.313709 
L 988.966507 -232.046605 
L 983.626794 -193.192289 
L 978.287081 -176.966689 
L 972.947368 -165.773988 
L 967.607656 -182.94304 
L 962.267943 -202.430452 
L 956.92823 -211.769653 
L 951.588517 -204.879096 
L 946.248804 -214.544953 
L 940.909091 -232.673935 
L 935.569378 -221.637105 
L 930.229665 -230.957783 
L 924.889952 -223.079338 
L 919.550239 -228.769432 
L 914.210526 -240.609858 
L 908.870813 -227.562525 
L 903.5311 -245.610299 
L 898.191388 -269.61834 
L 892.851675 -278.479449 
L 887.511962 -280.524783 
L 882.172249 -276.544346 
L 876.832536 -286.967318 
L 871.492823 -270.828254 
L 866.15311 -227.326718 
L 860.813397 -194.903888 
L 855.473684 -185.138625 
L 850.133971 -168.126372 
L 844.794258 -153.734776 
L 839.454545 -164.746665 
L 834.114833 -166.496926 
L 828.77512 -138.689922 
L 823.435407 -125.273765 
L 818.095694 -134.988276 
L 812.755981 -139.283941 
L 807.416268 -189.280671 
L 802.076555 -238.368273 
L 796.736842 -246.212197 
L 791.397129 -228.441573 
L 786.057416 -219.926434 
L 780.717703 -236.365382 
L 775.37799 -277.05098 
L 770.038278 -284.8837 
L 764.698565 -289.435174 
L 759.358852 -297.573843 
L 754.019139 -291.452602 
L 748.679426 -287.506652 
L 743.339713 -282.824757 
L 738 -277.729138 
L 732.660287 -242.615258 
L 727.320574 -198.592293 
L 721.980861 -192.230279 
L 716.641148 -167.261001 
L 711.301435 -173.922092 
L 705.961722 -194.866445 
L 700.62201 -210.938409 
L 695.282297 -204.81837 
L 689.942584 -214.385749 
L 684.602871 -215.02222 
L 679.263158 -214.911182 
L 673.923445 -229.676592 
L 668.583732 -239.442525 
L 663.244019 -229.822668 
L 657.904306 -249.333604 
L 652.564593 -257.551196 
L 647.22488 -263.573221 
L 641.885167 -287.452817 
L 636.545455 -295.258576 
L 631.205742 -304.2 
L 625.866029 -300.5916 
L 620.526316 -299.72269 
L 615.186603 -287.891972 
L 609.84689 -275.794156 
L 604.507177 -246.228762 
L 599.167464 -207.995984 
L 593.827751 -200.947048 
L 588.488038 -179.87473 
L 583.148325 -141.395079 
L 577.808612 -170.606187 
L 572.4689 -176.002342 
L 567.129187 -191.764352 
L 561.789474 -191.373122 
L 556.449761 -195.272436 
L 551.110048 -198.337258 
L 545.770335 -219.583901 
L 540.430622 -235.554449 
L 535.090909 -256.754267 
L 529.751196 -248.054905 
L 524.411483 -269.408961 
L 519.07177 -275.802163 
L 513.732057 -277.580588 
L 508.392344 -272.658177 
L 503.052632 -280.124033 
L 497.712919 -291.146549 
L 492.373206 -292.415797 
L 487.033493 -271.717853 
L 481.69378 -221.17123 
L 476.354067 -205.903516 
L 471.014354 -206.768113 
L 465.674641 -201.740506 
L 460.334928 -184.344737 
L 454.995215 -192.651976 
L 449.655502 -210.871892 
L 444.315789 -205.778112 
L 438.976077 -200.572296 
L 433.636364 -197.367602 
L 428.296651 -192.606268 
L 422.956938 -210.394435 
L 417.617225 -236.47393 
L 412.277512 -220.667225 
L 406.937799 -211.699012 
L 401.598086 -213.096569 
L 396.258373 -219.111823 
L 390.91866 -246.970429 
L 385.578947 -264.589118 
L 380.239234 -283.320685 
L 374.899522 -280.056193 
L 369.559809 -280.05987 
L 364.220096 -278.719105 
L 358.880383 -262.239724 
L 353.54067 -238.399702 
L 348.200957 -200.957409 
L 342.861244 -155.288495 
L 337.521531 -143.317913 
L 332.181818 -132.213286 
L 326.842105 -129.523765 
L 321.502392 -137.247637 
L 316.162679 -144.966036 
L 310.822967 -147.426305 
L 305.483254 -161.89587 
L 300.143541 -171.12356 
L 294.803828 -158.991773 
L 289.464115 -185.432942 
L 284.124402 -197.705856 
L 278.784689 -221.896024 
L 273.444976 -228.717315 
L 268.105263 -225.096422 
L 262.76555 -218.023619 
L 257.425837 -215.747615 
L 252.086124 -211.632444 
L 246.746411 -226.68736 
L 241.406699 -216.836782 
L 236.066986 -228.172431 
L 230.727273 -260.282833 
z
" style="stroke: #0000ff; stroke-opacity: 0.05"/>
    </defs>
    <g clip-path="url(#peb319261d0)">
     <use xlink:href="#m3e79c07e94" x="0" y="360" style="fill: #0000ff; fill-opacity: 0.05; stroke: #0000ff; stroke-opacity: 0.05"/>
    </g>
   </g>
   <g id="matplotlib.axis_1">
    <g id="xtick_1">
     <g id="line2d_1">
      <defs>
       <path id="m5f3b703c53" d="M 0 0 
L 0 3.5 
" style="stroke: #000000; stroke-width: 0.8"/>
      </defs>
      <g>
       <use xlink:href="#m5f3b703c53" x="230.727273" y="320.4" style="stroke: #000000; stroke-width: 0.8"/>
      </g>
     </g>
     <g id="text_1">
      <!-- 0 -->
      <g transform="translate(227.546023 334.998438) scale(0.1 -0.1)">
       <defs>
        <path id="DejaVuSans-30" d="M 2034 4250 
Q 1547 4250 1301 3770 
Q 1056 3291 1056 2328 
Q 1056 1369 1301 889 
Q 1547 409 2034 409 
Q 2525 409 2770 889 
Q 3016 1369 3016 2328 
Q 3016 3291 2770 3770 
Q 2525 4250 2034 4250 
z
M 2034 4750 
Q 2819 4750 3233 4129 
Q 3647 3509 3647 2328 
Q 3647 1150 3233 529 
Q 2819 -91 2034 -91 
Q 1250 -91 836 529 
Q 422 1150 422 2328 
Q 422 3509 836 4129 
Q 1250 4750 2034 4750 
z
" transform="scale(0.015625)"/>
       </defs>
       <use xlink:href="#DejaVuSans-30"/>
      </g>
     </g>
    </g>
    <g id="xtick_2">
     <g id="line2d_2">
      <g>
       <use xlink:href="#m5f3b703c53" x="364.220096" y="320.4" style="stroke: #000000; stroke-width: 0.8"/>
      </g>
     </g>
     <g id="text_2">
      <!-- 25 -->
      <g transform="translate(357.857596 334.998438) scale(0.1 -0.1)">
       <defs>
        <path id="DejaVuSans-32" d="M 1228 531 
L 3431 531 
L 3431 0 
L 469 0 
L 469 531 
Q 828 903 1448 1529 
Q 2069 2156 2228 2338 
Q 2531 2678 2651 2914 
Q 2772 3150 2772 3378 
Q 2772 3750 2511 3984 
Q 2250 4219 1831 4219 
Q 1534 4219 1204 4116 
Q 875 4013 500 3803 
L 500 4441 
Q 881 4594 1212 4672 
Q 1544 4750 1819 4750 
Q 2544 4750 2975 4387 
Q 3406 4025 3406 3419 
Q 3406 3131 3298 2873 
Q 3191 2616 2906 2266 
Q 2828 2175 2409 1742 
Q 1991 1309 1228 531 
z
" transform="scale(0.015625)"/>
        <path id="DejaVuSans-35" d="M 691 4666 
L 3169 4666 
L 3169 4134 
L 1269 4134 
L 1269 2991 
Q 1406 3038 1543 3061 
Q 1681 3084 1819 3084 
Q 2600 3084 3056 2656 
Q 3513 2228 3513 1497 
Q 3513 744 3044 326 
Q 2575 -91 1722 -91 
Q 1428 -91 1123 -41 
Q 819 9 494 109 
L 494 744 
Q 775 591 1075 516 
Q 1375 441 1709 441 
Q 2250 441 2565 725 
Q 2881 1009 2881 1497 
Q 2881 1984 2565 2268 
Q 2250 2553 1709 2553 
Q 1456 2553 1204 2497 
Q 953 2441 691 2322 
L 691 4666 
z
" transform="scale(0.015625)"/>
       </defs>
       <use xlink:href="#DejaVuSans-32"/>
       <use xlink:href="#DejaVuSans-35" x="63.623047"/>
      </g>
     </g>
    </g>
    <g id="xtick_3">
     <g id="line2d_3">
      <g>
       <use xlink:href="#m5f3b703c53" x="497.712919" y="320.4" style="stroke: #000000; stroke-width: 0.8"/>
      </g>
     </g>
     <g id="text_3">
      <!-- 50 -->
      <g transform="translate(491.350419 334.998438) scale(0.1 -0.1)">
       <use xlink:href="#DejaVuSans-35"/>
       <use xlink:href="#DejaVuSans-30" x="63.623047"/>
      </g>
     </g>
    </g>
    <g id="xtick_4">
     <g id="line2d_4">
      <g>
       <use xlink:href="#m5f3b703c53" x="631.205742" y="320.4" style="stroke: #000000; stroke-width: 0.8"/>
      </g>
     </g>
     <g id="text_4">
      <!-- 75 -->
      <g transform="translate(624.843242 334.998438) scale(0.1 -0.1)">
       <defs>
        <path id="DejaVuSans-37" d="M 525 4666 
L 3525 4666 
L 3525 4397 
L 1831 0 
L 1172 0 
L 2766 4134 
L 525 4134 
L 525 4666 
z
" transform="scale(0.015625)"/>
       </defs>
       <use xlink:href="#DejaVuSans-37"/>
       <use xlink:href="#DejaVuSans-35" x="63.623047"/>
      </g>
     </g>
    </g>
    <g id="xtick_5">
     <g id="line2d_5">
      <g>
       <use xlink:href="#m5f3b703c53" x="764.698565" y="320.4" style="stroke: #000000; stroke-width: 0.8"/>
      </g>
     </g>
     <g id="text_5">
      <!-- 100 -->
      <g transform="translate(755.154815 334.998438) scale(0.1 -0.1)">
       <defs>
        <path id="DejaVuSans-31" d="M 794 531 
L 1825 531 
L 1825 4091 
L 703 3866 
L 703 4441 
L 1819 4666 
L 2450 4666 
L 2450 531 
L 3481 531 
L 3481 0 
L 794 0 
L 794 531 
z
" transform="scale(0.015625)"/>
       </defs>
       <use xlink:href="#DejaVuSans-31"/>
       <use xlink:href="#DejaVuSans-30" x="63.623047"/>
       <use xlink:href="#DejaVuSans-30" x="127.246094"/>
      </g>
     </g>
    </g>
    <g id="xtick_6">
     <g id="line2d_6">
      <g>
       <use xlink:href="#m5f3b703c53" x="898.191388" y="320.4" style="stroke: #000000; stroke-width: 0.8"/>
      </g>
     </g>
     <g id="text_6">
      <!-- 125 -->
      <g transform="translate(888.647638 334.998438) scale(0.1 -0.1)">
       <use xlink:href="#DejaVuSans-31"/>
       <use xlink:href="#DejaVuSans-32" x="63.623047"/>
       <use xlink:href="#DejaVuSans-35" x="127.246094"/>
      </g>
     </g>
    </g>
    <g id="xtick_7">
     <g id="line2d_7">
      <g>
       <use xlink:href="#m5f3b703c53" x="1031.684211" y="320.4" style="stroke: #000000; stroke-width: 0.8"/>
      </g>
     </g>
     <g id="text_7">
      <!-- 150 -->
      <g transform="translate(1022.140461 334.998438) scale(0.1 -0.1)">
       <use xlink:href="#DejaVuSans-31"/>
       <use xlink:href="#DejaVuSans-35" x="63.623047"/>
       <use xlink:href="#DejaVuSans-30" x="127.246094"/>
      </g>
     </g>
    </g>
    <g id="xtick_8">
     <g id="line2d_8">
      <g>
       <use xlink:href="#m5f3b703c53" x="1165.177033" y="320.4" style="stroke: #000000; stroke-width: 0.8"/>
      </g>
     </g>
     <g id="text_8">
      <!-- 175 -->
      <g transform="translate(1155.633283 334.998438) scale(0.1 -0.1)">
       <use xlink:href="#DejaVuSans-31"/>
       <use xlink:href="#DejaVuSans-37" x="63.623047"/>
       <use xlink:href="#DejaVuSans-35" x="127.246094"/>
      </g>
     </g>
    </g>
    <g id="text_9">
     <!-- Amostras -->
     <g transform="translate(714.360937 348.676562) scale(0.1 -0.1)">
      <defs>
       <path id="DejaVuSans-41" d="M 2188 4044 
L 1331 1722 
L 3047 1722 
L 2188 4044 
z
M 1831 4666 
L 2547 4666 
L 4325 0 
L 3669 0 
L 3244 1197 
L 1141 1197 
L 716 0 
L 50 0 
L 1831 4666 
z
" transform="scale(0.015625)"/>
       <path id="DejaVuSans-6d" d="M 3328 2828 
Q 3544 3216 3844 3400 
Q 4144 3584 4550 3584 
Q 5097 3584 5394 3201 
Q 5691 2819 5691 2113 
L 5691 0 
L 5113 0 
L 5113 2094 
Q 5113 2597 4934 2840 
Q 4756 3084 4391 3084 
Q 3944 3084 3684 2787 
Q 3425 2491 3425 1978 
L 3425 0 
L 2847 0 
L 2847 2094 
Q 2847 2600 2669 2842 
Q 2491 3084 2119 3084 
Q 1678 3084 1418 2786 
Q 1159 2488 1159 1978 
L 1159 0 
L 581 0 
L 581 3500 
L 1159 3500 
L 1159 2956 
Q 1356 3278 1631 3431 
Q 1906 3584 2284 3584 
Q 2666 3584 2933 3390 
Q 3200 3197 3328 2828 
z
" transform="scale(0.015625)"/>
       <path id="DejaVuSans-6f" d="M 1959 3097 
Q 1497 3097 1228 2736 
Q 959 2375 959 1747 
Q 959 1119 1226 758 
Q 1494 397 1959 397 
Q 2419 397 2687 759 
Q 2956 1122 2956 1747 
Q 2956 2369 2687 2733 
Q 2419 3097 1959 3097 
z
M 1959 3584 
Q 2709 3584 3137 3096 
Q 3566 2609 3566 1747 
Q 3566 888 3137 398 
Q 2709 -91 1959 -91 
Q 1206 -91 779 398 
Q 353 888 353 1747 
Q 353 2609 779 3096 
Q 1206 3584 1959 3584 
z
" transform="scale(0.015625)"/>
       <path id="DejaVuSans-73" d="M 2834 3397 
L 2834 2853 
Q 2591 2978 2328 3040 
Q 2066 3103 1784 3103 
Q 1356 3103 1142 2972 
Q 928 2841 928 2578 
Q 928 2378 1081 2264 
Q 1234 2150 1697 2047 
L 1894 2003 
Q 2506 1872 2764 1633 
Q 3022 1394 3022 966 
Q 3022 478 2636 193 
Q 2250 -91 1575 -91 
Q 1294 -91 989 -36 
Q 684 19 347 128 
L 347 722 
Q 666 556 975 473 
Q 1284 391 1588 391 
Q 1994 391 2212 530 
Q 2431 669 2431 922 
Q 2431 1156 2273 1281 
Q 2116 1406 1581 1522 
L 1381 1569 
Q 847 1681 609 1914 
Q 372 2147 372 2553 
Q 372 3047 722 3315 
Q 1072 3584 1716 3584 
Q 2034 3584 2315 3537 
Q 2597 3491 2834 3397 
z
" transform="scale(0.015625)"/>
       <path id="DejaVuSans-74" d="M 1172 4494 
L 1172 3500 
L 2356 3500 
L 2356 3053 
L 1172 3053 
L 1172 1153 
Q 1172 725 1289 603 
Q 1406 481 1766 481 
L 2356 481 
L 2356 0 
L 1766 0 
Q 1100 0 847 248 
Q 594 497 594 1153 
L 594 3053 
L 172 3053 
L 172 3500 
L 594 3500 
L 594 4494 
L 1172 4494 
z
" transform="scale(0.015625)"/>
       <path id="DejaVuSans-72" d="M 2631 2963 
Q 2534 3019 2420 3045 
Q 2306 3072 2169 3072 
Q 1681 3072 1420 2755 
Q 1159 2438 1159 1844 
L 1159 0 
L 581 0 
L 581 3500 
L 1159 3500 
L 1159 2956 
Q 1341 3275 1631 3429 
Q 1922 3584 2338 3584 
Q 2397 3584 2469 3576 
Q 2541 3569 2628 3553 
L 2631 2963 
z
" transform="scale(0.015625)"/>
       <path id="DejaVuSans-61" d="M 2194 1759 
Q 1497 1759 1228 1600 
Q 959 1441 959 1056 
Q 959 750 1161 570 
Q 1363 391 1709 391 
Q 2188 391 2477 730 
Q 2766 1069 2766 1631 
L 2766 1759 
L 2194 1759 
z
M 3341 1997 
L 3341 0 
L 2766 0 
L 2766 531 
Q 2569 213 2275 61 
Q 1981 -91 1556 -91 
Q 1019 -91 701 211 
Q 384 513 384 1019 
Q 384 1609 779 1909 
Q 1175 2209 1959 2209 
L 2766 2209 
L 2766 2266 
Q 2766 2663 2505 2880 
Q 2244 3097 1772 3097 
Q 1472 3097 1187 3025 
Q 903 2953 641 2809 
L 641 3341 
Q 956 3463 1253 3523 
Q 1550 3584 1831 3584 
Q 2591 3584 2966 3190 
Q 3341 2797 3341 1997 
z
" transform="scale(0.015625)"/>
      </defs>
      <use xlink:href="#DejaVuSans-41"/>
      <use xlink:href="#DejaVuSans-6d" x="68.408203"/>
      <use xlink:href="#DejaVuSans-6f" x="165.820312"/>
      <use xlink:href="#DejaVuSans-73" x="227.001953"/>
      <use xlink:href="#DejaVuSans-74" x="279.101562"/>
      <use xlink:href="#DejaVuSans-72" x="318.310547"/>
      <use xlink:href="#DejaVuSans-61" x="359.423828"/>
      <use xlink:href="#DejaVuSans-73" x="420.703125"/>
     </g>
    </g>
   </g>
   <g id="matplotlib.axis_2">
    <g id="ytick_1">
     <g id="line2d_9">
      <defs>
       <path id="m1be9f6adb5" d="M 0 0 
L -3.5 0 
" style="stroke: #000000; stroke-width: 0.8"/>
      </defs>
      <g>
       <use xlink:href="#m1be9f6adb5" x="180" y="303.37866" style="stroke: #000000; stroke-width: 0.8"/>
      </g>
     </g>
     <g id="text_10">
      <!-- 2 -->
      <g transform="translate(166.6375 307.177879) scale(0.1 -0.1)">
       <use xlink:href="#DejaVuSans-32"/>
      </g>
     </g>
    </g>
    <g id="ytick_2">
     <g id="line2d_10">
      <g>
       <use xlink:href="#m1be9f6adb5" x="180" y="267.342567" style="stroke: #000000; stroke-width: 0.8"/>
      </g>
     </g>
     <g id="text_11">
      <!-- 4 -->
      <g transform="translate(166.6375 271.141786) scale(0.1 -0.1)">
       <defs>
        <path id="DejaVuSans-34" d="M 2419 4116 
L 825 1625 
L 2419 1625 
L 2419 4116 
z
M 2253 4666 
L 3047 4666 
L 3047 1625 
L 3713 1625 
L 3713 1100 
L 3047 1100 
L 3047 0 
L 2419 0 
L 2419 1100 
L 313 1100 
L 313 1709 
L 2253 4666 
z
" transform="scale(0.015625)"/>
       </defs>
       <use xlink:href="#DejaVuSans-34"/>
      </g>
     </g>
    </g>
    <g id="ytick_3">
     <g id="line2d_11">
      <g>
       <use xlink:href="#m1be9f6adb5" x="180" y="231.306474" style="stroke: #000000; stroke-width: 0.8"/>
      </g>
     </g>
     <g id="text_12">
      <!-- 6 -->
      <g transform="translate(166.6375 235.105693) scale(0.1 -0.1)">
       <defs>
        <path id="DejaVuSans-36" d="M 2113 2584 
Q 1688 2584 1439 2293 
Q 1191 2003 1191 1497 
Q 1191 994 1439 701 
Q 1688 409 2113 409 
Q 2538 409 2786 701 
Q 3034 994 3034 1497 
Q 3034 2003 2786 2293 
Q 2538 2584 2113 2584 
z
M 3366 4563 
L 3366 3988 
Q 3128 4100 2886 4159 
Q 2644 4219 2406 4219 
Q 1781 4219 1451 3797 
Q 1122 3375 1075 2522 
Q 1259 2794 1537 2939 
Q 1816 3084 2150 3084 
Q 2853 3084 3261 2657 
Q 3669 2231 3669 1497 
Q 3669 778 3244 343 
Q 2819 -91 2113 -91 
Q 1303 -91 875 529 
Q 447 1150 447 2328 
Q 447 3434 972 4092 
Q 1497 4750 2381 4750 
Q 2619 4750 2861 4703 
Q 3103 4656 3366 4563 
z
" transform="scale(0.015625)"/>
       </defs>
       <use xlink:href="#DejaVuSans-36"/>
      </g>
     </g>
    </g>
    <g id="ytick_4">
     <g id="line2d_12">
      <g>
       <use xlink:href="#m1be9f6adb5" x="180" y="195.270381" style="stroke: #000000; stroke-width: 0.8"/>
      </g>
     </g>
     <g id="text_13">
      <!-- 8 -->
      <g transform="translate(166.6375 199.0696) scale(0.1 -0.1)">
       <defs>
        <path id="DejaVuSans-38" d="M 2034 2216 
Q 1584 2216 1326 1975 
Q 1069 1734 1069 1313 
Q 1069 891 1326 650 
Q 1584 409 2034 409 
Q 2484 409 2743 651 
Q 3003 894 3003 1313 
Q 3003 1734 2745 1975 
Q 2488 2216 2034 2216 
z
M 1403 2484 
Q 997 2584 770 2862 
Q 544 3141 544 3541 
Q 544 4100 942 4425 
Q 1341 4750 2034 4750 
Q 2731 4750 3128 4425 
Q 3525 4100 3525 3541 
Q 3525 3141 3298 2862 
Q 3072 2584 2669 2484 
Q 3125 2378 3379 2068 
Q 3634 1759 3634 1313 
Q 3634 634 3220 271 
Q 2806 -91 2034 -91 
Q 1263 -91 848 271 
Q 434 634 434 1313 
Q 434 1759 690 2068 
Q 947 2378 1403 2484 
z
M 1172 3481 
Q 1172 3119 1398 2916 
Q 1625 2713 2034 2713 
Q 2441 2713 2670 2916 
Q 2900 3119 2900 3481 
Q 2900 3844 2670 4047 
Q 2441 4250 2034 4250 
Q 1625 4250 1398 4047 
Q 1172 3844 1172 3481 
z
" transform="scale(0.015625)"/>
       </defs>
       <use xlink:href="#DejaVuSans-38"/>
      </g>
     </g>
    </g>
    <g id="ytick_5">
     <g id="line2d_13">
      <g>
       <use xlink:href="#m1be9f6adb5" x="180" y="159.234288" style="stroke: #000000; stroke-width: 0.8"/>
      </g>
     </g>
     <g id="text_14">
      <!-- 10 -->
      <g transform="translate(160.275 163.033507) scale(0.1 -0.1)">
       <use xlink:href="#DejaVuSans-31"/>
       <use xlink:href="#DejaVuSans-30" x="63.623047"/>
      </g>
     </g>
    </g>
    <g id="ytick_6">
     <g id="line2d_14">
      <g>
       <use xlink:href="#m1be9f6adb5" x="180" y="123.198195" style="stroke: #000000; stroke-width: 0.8"/>
      </g>
     </g>
     <g id="text_15">
      <!-- 12 -->
      <g transform="translate(160.275 126.997414) scale(0.1 -0.1)">
       <use xlink:href="#DejaVuSans-31"/>
       <use xlink:href="#DejaVuSans-32" x="63.623047"/>
      </g>
     </g>
    </g>
    <g id="ytick_7">
     <g id="line2d_15">
      <g>
       <use xlink:href="#m1be9f6adb5" x="180" y="87.162102" style="stroke: #000000; stroke-width: 0.8"/>
      </g>
     </g>
     <g id="text_16">
      <!-- 14 -->
      <g transform="translate(160.275 90.961321) scale(0.1 -0.1)">
       <use xlink:href="#DejaVuSans-31"/>
       <use xlink:href="#DejaVuSans-34" x="63.623047"/>
      </g>
     </g>
    </g>
    <g id="ytick_8">
     <g id="line2d_16">
      <g>
       <use xlink:href="#m1be9f6adb5" x="180" y="51.126009" style="stroke: #000000; stroke-width: 0.8"/>
      </g>
     </g>
     <g id="text_17">
      <!-- 16 -->
      <g transform="translate(160.275 54.925228) scale(0.1 -0.1)">
       <use xlink:href="#DejaVuSans-31"/>
       <use xlink:href="#DejaVuSans-36" x="63.623047"/>
      </g>
     </g>
    </g>
    <g id="text_18">
     <!-- Velocidade do Vento (m/s) -->
     <g transform="translate(154.195312 247.344531) rotate(-90) scale(0.1 -0.1)">
      <defs>
       <path id="DejaVuSans-56" d="M 1831 0 
L 50 4666 
L 709 4666 
L 2188 738 
L 3669 4666 
L 4325 4666 
L 2547 0 
L 1831 0 
z
" transform="scale(0.015625)"/>
       <path id="DejaVuSans-65" d="M 3597 1894 
L 3597 1613 
L 953 1613 
Q 991 1019 1311 708 
Q 1631 397 2203 397 
Q 2534 397 2845 478 
Q 3156 559 3463 722 
L 3463 178 
Q 3153 47 2828 -22 
Q 2503 -91 2169 -91 
Q 1331 -91 842 396 
Q 353 884 353 1716 
Q 353 2575 817 3079 
Q 1281 3584 2069 3584 
Q 2775 3584 3186 3129 
Q 3597 2675 3597 1894 
z
M 3022 2063 
Q 3016 2534 2758 2815 
Q 2500 3097 2075 3097 
Q 1594 3097 1305 2825 
Q 1016 2553 972 2059 
L 3022 2063 
z
" transform="scale(0.015625)"/>
       <path id="DejaVuSans-6c" d="M 603 4863 
L 1178 4863 
L 1178 0 
L 603 0 
L 603 4863 
z
" transform="scale(0.015625)"/>
       <path id="DejaVuSans-63" d="M 3122 3366 
L 3122 2828 
Q 2878 2963 2633 3030 
Q 2388 3097 2138 3097 
Q 1578 3097 1268 2742 
Q 959 2388 959 1747 
Q 959 1106 1268 751 
Q 1578 397 2138 397 
Q 2388 397 2633 464 
Q 2878 531 3122 666 
L 3122 134 
Q 2881 22 2623 -34 
Q 2366 -91 2075 -91 
Q 1284 -91 818 406 
Q 353 903 353 1747 
Q 353 2603 823 3093 
Q 1294 3584 2113 3584 
Q 2378 3584 2631 3529 
Q 2884 3475 3122 3366 
z
" transform="scale(0.015625)"/>
       <path id="DejaVuSans-69" d="M 603 3500 
L 1178 3500 
L 1178 0 
L 603 0 
L 603 3500 
z
M 603 4863 
L 1178 4863 
L 1178 4134 
L 603 4134 
L 603 4863 
z
" transform="scale(0.015625)"/>
       <path id="DejaVuSans-64" d="M 2906 2969 
L 2906 4863 
L 3481 4863 
L 3481 0 
L 2906 0 
L 2906 525 
Q 2725 213 2448 61 
Q 2172 -91 1784 -91 
Q 1150 -91 751 415 
Q 353 922 353 1747 
Q 353 2572 751 3078 
Q 1150 3584 1784 3584 
Q 2172 3584 2448 3432 
Q 2725 3281 2906 2969 
z
M 947 1747 
Q 947 1113 1208 752 
Q 1469 391 1925 391 
Q 2381 391 2643 752 
Q 2906 1113 2906 1747 
Q 2906 2381 2643 2742 
Q 2381 3103 1925 3103 
Q 1469 3103 1208 2742 
Q 947 2381 947 1747 
z
" transform="scale(0.015625)"/>
       <path id="DejaVuSans-20" transform="scale(0.015625)"/>
       <path id="DejaVuSans-6e" d="M 3513 2113 
L 3513 0 
L 2938 0 
L 2938 2094 
Q 2938 2591 2744 2837 
Q 2550 3084 2163 3084 
Q 1697 3084 1428 2787 
Q 1159 2491 1159 1978 
L 1159 0 
L 581 0 
L 581 3500 
L 1159 3500 
L 1159 2956 
Q 1366 3272 1645 3428 
Q 1925 3584 2291 3584 
Q 2894 3584 3203 3211 
Q 3513 2838 3513 2113 
z
" transform="scale(0.015625)"/>
       <path id="DejaVuSans-28" d="M 1984 4856 
Q 1566 4138 1362 3434 
Q 1159 2731 1159 2009 
Q 1159 1288 1364 580 
Q 1569 -128 1984 -844 
L 1484 -844 
Q 1016 -109 783 600 
Q 550 1309 550 2009 
Q 550 2706 781 3412 
Q 1013 4119 1484 4856 
L 1984 4856 
z
" transform="scale(0.015625)"/>
       <path id="DejaVuSans-2f" d="M 1625 4666 
L 2156 4666 
L 531 -594 
L 0 -594 
L 1625 4666 
z
" transform="scale(0.015625)"/>
       <path id="DejaVuSans-29" d="M 513 4856 
L 1013 4856 
Q 1481 4119 1714 3412 
Q 1947 2706 1947 2009 
Q 1947 1309 1714 600 
Q 1481 -109 1013 -844 
L 513 -844 
Q 928 -128 1133 580 
Q 1338 1288 1338 2009 
Q 1338 2731 1133 3434 
Q 928 4138 513 4856 
z
" transform="scale(0.015625)"/>
      </defs>
      <use xlink:href="#DejaVuSans-56"/>
      <use xlink:href="#DejaVuSans-65" x="60.658203"/>
      <use xlink:href="#DejaVuSans-6c" x="122.181641"/>
      <use xlink:href="#DejaVuSans-6f" x="149.964844"/>
      <use xlink:href="#DejaVuSans-63" x="211.146484"/>
      <use xlink:href="#DejaVuSans-69" x="266.126953"/>
      <use xlink:href="#DejaVuSans-64" x="293.910156"/>
      <use xlink:href="#DejaVuSans-61" x="357.386719"/>
      <use xlink:href="#DejaVuSans-64" x="418.666016"/>
      <use xlink:href="#DejaVuSans-65" x="482.142578"/>
      <use xlink:href="#DejaVuSans-20" x="543.666016"/>
      <use xlink:href="#DejaVuSans-64" x="575.453125"/>
      <use xlink:href="#DejaVuSans-6f" x="638.929688"/>
      <use xlink:href="#DejaVuSans-20" x="700.111328"/>
      <use xlink:href="#DejaVuSans-56" x="731.898438"/>
      <use xlink:href="#DejaVuSans-65" x="792.556641"/>
      <use xlink:href="#DejaVuSans-6e" x="854.080078"/>
      <use xlink:href="#DejaVuSans-74" x="917.458984"/>
      <use xlink:href="#DejaVuSans-6f" x="956.667969"/>
      <use xlink:href="#DejaVuSans-20" x="1017.849609"/>
      <use xlink:href="#DejaVuSans-28" x="1049.636719"/>
      <use xlink:href="#DejaVuSans-6d" x="1088.650391"/>
      <use xlink:href="#DejaVuSans-2f" x="1186.0625"/>
      <use xlink:href="#DejaVuSans-73" x="1219.753906"/>
      <use xlink:href="#DejaVuSans-29" x="1271.853516"/>
     </g>
    </g>
   </g>
   <g id="line2d_17">
    <path d="M 230.727273 136.254051 
L 236.066986 168.364454 
L 241.406699 179.700102 
L 246.746411 169.849525 
L 252.086124 184.90444 
L 257.425837 180.789269 
L 262.76555 178.513266 
L 268.105263 171.440462 
L 273.444976 167.81957 
L 278.784689 174.640861 
L 284.124402 198.831029 
L 289.464115 211.103934 
L 294.803828 237.545112 
L 300.143541 225.413325 
L 305.483254 234.641014 
L 310.822967 249.110579 
L 316.162679 251.570848 
L 326.842105 267.013119 
L 332.181818 264.323599 
L 337.521531 253.218972 
L 342.861244 241.24839 
L 348.200957 195.579475 
L 353.54067 158.137183 
L 358.880383 134.29716 
L 364.220096 117.817779 
L 369.559809 116.477014 
L 374.899522 116.480692 
L 380.239234 113.216199 
L 385.578947 131.947767 
L 390.91866 149.566455 
L 396.258373 177.425062 
L 401.598086 183.440316 
L 406.937799 184.837872 
L 412.277512 175.869659 
L 417.617225 160.062955 
L 422.956938 186.142449 
L 428.296651 203.930617 
L 433.636364 199.169274 
L 438.976077 195.964588 
L 449.655502 185.664993 
L 454.995215 203.8849 
L 460.334928 212.192147 
L 465.674641 194.796378 
L 471.014354 189.768771 
L 476.354067 190.633369 
L 481.69378 175.365654 
L 487.033493 124.819032 
L 492.373206 104.121087 
L 497.712919 105.390335 
L 503.052632 116.412852 
L 508.392344 123.878707 
L 513.732057 118.956297 
L 519.07177 120.734722 
L 524.411483 127.127924 
L 529.751196 148.48198 
L 535.090909 139.782618 
L 540.430622 160.982436 
L 545.770335 176.952983 
L 551.110048 198.199626 
L 556.449761 201.264448 
L 561.789474 205.163762 
L 567.129187 204.772541 
L 572.4689 220.534542 
L 577.808612 225.930698 
L 583.148325 255.141806 
L 588.488038 216.662155 
L 593.827751 195.589837 
L 599.167464 188.540901 
L 604.507177 150.308123 
L 609.84689 120.742729 
L 620.526316 96.814195 
L 625.866029 95.945285 
L 631.205742 92.336885 
L 636.545455 101.278308 
L 641.885167 109.084068 
L 647.22488 132.963664 
L 652.564593 138.985688 
L 657.904306 147.203281 
L 663.244019 166.714217 
L 668.583732 157.09436 
L 673.923445 166.860292 
L 679.263158 181.625703 
L 684.602871 181.514664 
L 689.942584 182.151135 
L 695.282297 191.718514 
L 700.62201 185.598476 
L 705.961722 201.670439 
L 711.301435 222.614793 
L 716.641148 229.275883 
L 721.980861 204.306606 
L 727.320574 197.944583 
L 732.660287 153.921626 
L 738 118.807746 
L 743.339713 113.712128 
L 748.679426 109.030232 
L 754.019139 105.084283 
L 759.358852 98.963041 
L 764.698565 107.101711 
L 770.038278 111.653185 
L 775.37799 119.485904 
L 780.717703 160.171502 
L 786.057416 176.610451 
L 791.397129 168.095311 
L 796.736842 150.324688 
L 802.076555 158.168611 
L 812.755981 257.252943 
L 818.095694 261.548608 
L 823.435407 271.263115 
L 828.77512 257.846963 
L 834.114833 230.039958 
L 839.454545 231.790211 
L 844.794258 242.802108 
L 850.133971 228.410513 
L 855.473684 211.398251 
L 860.813397 201.632988 
L 866.15311 169.210167 
L 871.492823 125.708631 
L 876.832536 109.569566 
L 882.172249 119.992538 
L 887.511962 116.012102 
L 892.851675 118.057436 
L 898.191388 126.918545 
L 903.5311 150.926586 
L 908.870813 168.97436 
L 914.210526 155.927026 
L 919.550239 167.767453 
L 924.889952 173.457547 
L 930.229665 165.579102 
L 935.569378 174.89978 
L 940.909091 163.862949 
L 946.248804 181.991932 
L 951.588517 191.657788 
L 956.92823 184.767231 
L 962.267943 194.106433 
L 967.607656 213.593844 
L 972.947368 230.762896 
L 978.287081 219.570196 
L 983.626794 203.344604 
L 988.966507 164.490279 
L 994.30622 129.223175 
L 999.645933 116.973957 
L 1004.985646 131.339975 
L 1010.325359 123.298546 
L 1015.665072 123.183211 
L 1021.004785 131.44213 
L 1026.344498 138.785966 
L 1031.684211 162.549523 
L 1037.023923 176.120467 
L 1042.363636 166.818812 
L 1047.703349 188.00033 
L 1053.043062 196.037618 
L 1058.382775 174.084 
L 1063.722488 205.918868 
L 1069.062201 208.285401 
L 1074.401914 221.950175 
L 1079.741627 247.897976 
L 1085.08134 242.311274 
L 1090.421053 246.794694 
L 1095.760766 248.421785 
L 1101.100478 215.7549 
L 1106.440191 231.365293 
L 1111.779904 241.691523 
L 1117.119617 217.434237 
L 1122.45933 202.295363 
L 1127.799043 170.276273 
L 1133.138756 133.473579 
L 1138.478469 120.904974 
L 1143.818182 116.280523 
L 1149.157895 121.854148 
L 1154.497608 126.497415 
L 1159.837321 137.971699 
L 1165.177033 136.481628 
L 1170.516746 145.210769 
L 1175.856459 170.065949 
L 1181.196172 183.804706 
L 1186.535885 163.098411 
L 1191.875598 154.231425 
L 1197.215311 165.462358 
L 1202.555024 182.288413 
L 1207.894737 189.363313 
L 1213.23445 209.580063 
L 1218.574163 220.105586 
L 1223.913876 239.10292 
L 1229.253589 240.10629 
L 1234.593301 228.792868 
L 1239.933014 194.151195 
L 1245.272727 153.877242 
L 1245.272727 153.877242 
" clip-path="url(#peb319261d0)" style="fill: none; stroke: #0000ff; stroke-width: 1.5; stroke-linecap: square"/>
   </g>
   <g id="line2d_18">
    <path d="M 230.727273 172.417492 
L 236.066986 182.037127 
L 241.406699 165.320383 
L 246.746411 184.089182 
L 252.086124 181.536626 
L 257.425837 177.832916 
L 262.76555 171.456529 
L 268.105263 166.291355 
L 273.444976 174.139216 
L 278.784689 199.544662 
L 284.124402 210.3655 
L 289.464115 230.896063 
L 294.803828 219.474624 
L 300.143541 231.346514 
L 305.483254 247.442635 
L 310.822967 250.747684 
L 316.162679 260.135348 
L 321.502392 270.585816 
L 326.842105 268.884111 
L 332.181818 254.499704 
L 337.521531 243.038224 
L 342.861244 196.972085 
L 348.200957 157.532584 
L 353.54067 130.825834 
L 358.880383 105.77074 
L 364.220096 107.912885 
L 369.559809 108.603577 
L 374.899522 106.531502 
L 380.239234 134.739755 
L 385.578947 153.898945 
L 390.91866 183.788881 
L 396.258373 188.183282 
L 401.598086 189.564666 
L 406.937799 178.523607 
L 412.277512 158.323376 
L 417.617225 179.04413 
L 422.956938 196.341452 
L 428.296651 193.868977 
L 433.636364 191.593865 
L 438.976077 187.401274 
L 444.315789 182.998246 
L 449.655502 205.650777 
L 454.995215 216.371515 
L 460.334928 210.40554 
L 465.674641 217.072217 
L 471.014354 215.030172 
L 476.354067 192.988095 
L 481.69378 130.905915 
L 487.033493 91.916864 
L 492.373206 89.053997 
L 497.712919 107.232203 
L 503.052632 123.508505 
L 508.392344 113.47846 
L 513.732057 108.433406 
L 519.07177 119.964956 
L 524.411483 148.984022 
L 529.751196 134.049063 
L 535.090909 160.13519 
L 540.430622 174.109187 
L 545.770335 189.184285 
L 551.110048 194.019127 
L 556.449761 199.294411 
L 561.789474 199.074191 
L 567.129187 212.938077 
L 572.4689 219.384534 
L 577.808612 252.93814 
L 583.148325 219.644794 
L 588.488038 210.715851 
L 593.827751 208.303435 
L 599.167464 168.934003 
L 604.507177 130.965975 
L 609.84689 103.378344 
L 615.186603 63.48839 
L 620.526316 77.802728 
L 625.866029 90.315261 
L 631.205742 109.314289 
L 636.545455 105.490459 
L 641.885167 141.426452 
L 647.22488 139.334357 
L 652.564593 142.937966 
L 657.904306 162.197255 
L 663.244019 150.415455 
L 668.583732 160.12518 
L 673.923445 171.21629 
L 679.263158 170.625698 
L 684.602871 171.706781 
L 689.942584 182.327418 
L 695.282297 178.143227 
L 700.62201 196.761874 
L 705.961722 219.304453 
L 711.301435 233.67885 
L 716.641148 218.683831 
L 721.980861 222.257411 
L 727.320574 167.502569 
L 732.660287 125.53053 
L 738 116.771758 
L 743.339713 103.828795 
L 748.679426 82.207139 
L 754.019139 88.253196 
L 759.358852 96.654536 
L 764.698565 104.839808 
L 770.038278 114.829814 
L 775.37799 166.121186 
L 780.717703 179.844931 
L 786.057416 164.309371 
L 791.397129 139.524546 
L 796.736842 147.973009 
L 802.076555 195.660772 
L 807.416268 248.063257 
L 812.755981 253.25846 
L 818.095694 258.743955 
L 823.435407 248.143338 
L 828.77512 226.461621 
L 834.114833 230.525692 
L 839.454545 251.086285 
L 844.794258 248.278311 
L 850.133971 231.129418 
L 855.473684 215.050192 
L 860.813397 171.466539 
L 866.15311 114.109091 
L 871.492823 89.97492 
L 876.832536 106.991963 
L 882.172249 100.305266 
L 887.511962 99.944905 
L 892.851675 121.216209 
L 898.191388 153.588634 
L 903.5311 172.607682 
L 908.870813 155.030077 
L 914.210526 169.724795 
L 919.550239 172.597673 
L 924.889952 158.974027 
L 930.229665 163.45852 
L 935.569378 152.998042 
L 940.909091 173.979056 
L 946.248804 186.371468 
L 951.588517 181.836925 
L 956.92823 196.051162 
L 962.267943 215.340483 
L 967.607656 238.023201 
L 972.947368 235.580755 
L 978.287081 217.222368 
L 983.626794 175.931011 
L 988.966507 135.610627 
L 994.30622 112.447427 
L 999.645933 141.956983 
L 1004.985646 125.740741 
L 1010.325359 123.498496 
L 1015.665072 137.422441 
L 1021.004785 144.60964 
L 1026.344498 171.41649 
L 1031.684211 187.412511 
L 1037.023923 177.362445 
L 1042.363636 199.12424 
L 1047.703349 204.709835 
L 1053.043062 178.003087 
L 1058.382775 199.504622 
L 1063.722488 199.965084 
L 1069.062201 216.301445 
L 1074.401914 244.719909 
L 1079.741627 243.738926 
L 1085.08134 251.046245 
L 1090.421053 247.472666 
L 1095.760766 217.712858 
L 1101.100478 245.42061 
L 1106.440191 263.448667 
L 1111.779904 232.777948 
L 1117.119617 216.862007 
L 1122.45933 184.529623 
L 1127.799043 136.371389 
L 1133.138756 118.843833 
L 1138.478469 112.877858 
L 1143.818182 118.853843 
L 1149.157895 118.014231 
L 1154.497608 136.397932 
L 1159.837321 138.393413 
L 1165.177033 150.125165 
L 1170.516746 179.42451 
L 1175.856459 193.578686 
L 1181.196172 158.423476 
L 1186.535885 142.477505 
L 1191.875598 154.649697 
L 1197.215311 174.179257 
L 1202.555024 183.999092 
L 1207.894737 205.850978 
L 1213.23445 217.99314 
L 1218.574163 239.524705 
L 1223.913876 247.162355 
L 1229.253589 245.4106 
L 1234.593301 206.61174 
L 1239.933014 152.017059 
L 1245.272727 115.980966 
L 1245.272727 115.980966 
" clip-path="url(#peb319261d0)" style="fill: none; stroke: #ffa500; stroke-width: 1.5; stroke-linecap: square"/>
   </g>
   <g id="patch_3">
    <path d="M 180 320.4 
L 180 43.2 
" style="fill: none; stroke: #000000; stroke-width: 0.8; stroke-linejoin: miter; stroke-linecap: square"/>
   </g>
   <g id="patch_4">
    <path d="M 1296 320.4 
L 1296 43.2 
" style="fill: none; stroke: #000000; stroke-width: 0.8; stroke-linejoin: miter; stroke-linecap: square"/>
   </g>
   <g id="patch_5">
    <path d="M 180 320.4 
L 1296 320.4 
" style="fill: none; stroke: #000000; stroke-width: 0.8; stroke-linejoin: miter; stroke-linecap: square"/>
   </g>
   <g id="patch_6">
    <path d="M 180 43.2 
L 1296 43.2 
" style="fill: none; stroke: #000000; stroke-width: 0.8; stroke-linejoin: miter; stroke-linecap: square"/>
   </g>
   <g id="text_19">
    <!-- Previsão do vento para 1 hora(s) à frente com 4 camadas -->
    <g transform="translate(564.882187 37.2) scale(0.12 -0.12)">
     <defs>
      <path id="DejaVuSans-50" d="M 1259 4147 
L 1259 2394 
L 2053 2394 
Q 2494 2394 2734 2622 
Q 2975 2850 2975 3272 
Q 2975 3691 2734 3919 
Q 2494 4147 2053 4147 
L 1259 4147 
z
M 628 4666 
L 2053 4666 
Q 2838 4666 3239 4311 
Q 3641 3956 3641 3272 
Q 3641 2581 3239 2228 
Q 2838 1875 2053 1875 
L 1259 1875 
L 1259 0 
L 628 0 
L 628 4666 
z
" transform="scale(0.015625)"/>
      <path id="DejaVuSans-76" d="M 191 3500 
L 800 3500 
L 1894 563 
L 2988 3500 
L 3597 3500 
L 2284 0 
L 1503 0 
L 191 3500 
z
" transform="scale(0.015625)"/>
      <path id="DejaVuSans-e3" d="M 2194 1759 
Q 1497 1759 1228 1600 
Q 959 1441 959 1056 
Q 959 750 1161 570 
Q 1363 391 1709 391 
Q 2188 391 2477 730 
Q 2766 1069 2766 1631 
L 2766 1759 
L 2194 1759 
z
M 3341 1997 
L 3341 0 
L 2766 0 
L 2766 531 
Q 2569 213 2275 61 
Q 1981 -91 1556 -91 
Q 1019 -91 701 211 
Q 384 513 384 1019 
Q 384 1609 779 1909 
Q 1175 2209 1959 2209 
L 2766 2209 
L 2766 2266 
Q 2766 2663 2505 2880 
Q 2244 3097 1772 3097 
Q 1472 3097 1187 3025 
Q 903 2953 641 2809 
L 641 3341 
Q 956 3463 1253 3523 
Q 1550 3584 1831 3584 
Q 2591 3584 2966 3190 
Q 3341 2797 3341 1997 
z
M 1844 4281 
L 1666 4453 
Q 1597 4516 1545 4545 
Q 1494 4575 1453 4575 
Q 1334 4575 1278 4461 
Q 1222 4347 1216 4091 
L 825 4091 
Q 831 4513 990 4742 
Q 1150 4972 1434 4972 
Q 1553 4972 1653 4928 
Q 1753 4884 1869 4781 
L 2047 4609 
Q 2116 4547 2167 4517 
Q 2219 4488 2259 4488 
Q 2378 4488 2434 4602 
Q 2491 4716 2497 4972 
L 2888 4972 
Q 2881 4550 2722 4320 
Q 2563 4091 2278 4091 
Q 2159 4091 2059 4134 
Q 1959 4178 1844 4281 
z
" transform="scale(0.015625)"/>
      <path id="DejaVuSans-70" d="M 1159 525 
L 1159 -1331 
L 581 -1331 
L 581 3500 
L 1159 3500 
L 1159 2969 
Q 1341 3281 1617 3432 
Q 1894 3584 2278 3584 
Q 2916 3584 3314 3078 
Q 3713 2572 3713 1747 
Q 3713 922 3314 415 
Q 2916 -91 2278 -91 
Q 1894 -91 1617 61 
Q 1341 213 1159 525 
z
M 3116 1747 
Q 3116 2381 2855 2742 
Q 2594 3103 2138 3103 
Q 1681 3103 1420 2742 
Q 1159 2381 1159 1747 
Q 1159 1113 1420 752 
Q 1681 391 2138 391 
Q 2594 391 2855 752 
Q 3116 1113 3116 1747 
z
" transform="scale(0.015625)"/>
      <path id="DejaVuSans-68" d="M 3513 2113 
L 3513 0 
L 2938 0 
L 2938 2094 
Q 2938 2591 2744 2837 
Q 2550 3084 2163 3084 
Q 1697 3084 1428 2787 
Q 1159 2491 1159 1978 
L 1159 0 
L 581 0 
L 581 4863 
L 1159 4863 
L 1159 2956 
Q 1366 3272 1645 3428 
Q 1925 3584 2291 3584 
Q 2894 3584 3203 3211 
Q 3513 2838 3513 2113 
z
" transform="scale(0.015625)"/>
      <path id="DejaVuSans-e0" d="M 2194 1759 
Q 1497 1759 1228 1600 
Q 959 1441 959 1056 
Q 959 750 1161 570 
Q 1363 391 1709 391 
Q 2188 391 2477 730 
Q 2766 1069 2766 1631 
L 2766 1759 
L 2194 1759 
z
M 3341 1997 
L 3341 0 
L 2766 0 
L 2766 531 
Q 2569 213 2275 61 
Q 1981 -91 1556 -91 
Q 1019 -91 701 211 
Q 384 513 384 1019 
Q 384 1609 779 1909 
Q 1175 2209 1959 2209 
L 2766 2209 
L 2766 2266 
Q 2766 2663 2505 2880 
Q 2244 3097 1772 3097 
Q 1472 3097 1187 3025 
Q 903 2953 641 2809 
L 641 3341 
Q 956 3463 1253 3523 
Q 1550 3584 1831 3584 
Q 2591 3584 2966 3190 
Q 3341 2797 3341 1997 
z
M 1403 5119 
L 2284 3950 
L 1806 3950 
L 788 5119 
L 1403 5119 
z
" transform="scale(0.015625)"/>
      <path id="DejaVuSans-66" d="M 2375 4863 
L 2375 4384 
L 1825 4384 
Q 1516 4384 1395 4259 
Q 1275 4134 1275 3809 
L 1275 3500 
L 2222 3500 
L 2222 3053 
L 1275 3053 
L 1275 0 
L 697 0 
L 697 3053 
L 147 3053 
L 147 3500 
L 697 3500 
L 697 3744 
Q 697 4328 969 4595 
Q 1241 4863 1831 4863 
L 2375 4863 
z
" transform="scale(0.015625)"/>
     </defs>
     <use xlink:href="#DejaVuSans-50"/>
     <use xlink:href="#DejaVuSans-72" x="58.552734"/>
     <use xlink:href="#DejaVuSans-65" x="97.416016"/>
     <use xlink:href="#DejaVuSans-76" x="158.939453"/>
     <use xlink:href="#DejaVuSans-69" x="218.119141"/>
     <use xlink:href="#DejaVuSans-73" x="245.902344"/>
     <use xlink:href="#DejaVuSans-e3" x="298.001953"/>
     <use xlink:href="#DejaVuSans-6f" x="359.28125"/>
     <use xlink:href="#DejaVuSans-20" x="420.462891"/>
     <use xlink:href="#DejaVuSans-64" x="452.25"/>
     <use xlink:href="#DejaVuSans-6f" x="515.726562"/>
     <use xlink:href="#DejaVuSans-20" x="576.908203"/>
     <use xlink:href="#DejaVuSans-76" x="608.695312"/>
     <use xlink:href="#DejaVuSans-65" x="667.875"/>
     <use xlink:href="#DejaVuSans-6e" x="729.398438"/>
     <use xlink:href="#DejaVuSans-74" x="792.777344"/>
     <use xlink:href="#DejaVuSans-6f" x="831.986328"/>
     <use xlink:href="#DejaVuSans-20" x="893.167969"/>
     <use xlink:href="#DejaVuSans-70" x="924.955078"/>
     <use xlink:href="#DejaVuSans-61" x="988.431641"/>
     <use xlink:href="#DejaVuSans-72" x="1049.710938"/>
     <use xlink:href="#DejaVuSans-61" x="1090.824219"/>
     <use xlink:href="#DejaVuSans-20" x="1152.103516"/>
     <use xlink:href="#DejaVuSans-31" x="1183.890625"/>
     <use xlink:href="#DejaVuSans-20" x="1247.513672"/>
     <use xlink:href="#DejaVuSans-68" x="1279.300781"/>
     <use xlink:href="#DejaVuSans-6f" x="1342.679688"/>
     <use xlink:href="#DejaVuSans-72" x="1403.861328"/>
     <use xlink:href="#DejaVuSans-61" x="1444.974609"/>
     <use xlink:href="#DejaVuSans-28" x="1506.253906"/>
     <use xlink:href="#DejaVuSans-73" x="1545.267578"/>
     <use xlink:href="#DejaVuSans-29" x="1597.367188"/>
     <use xlink:href="#DejaVuSans-20" x="1636.380859"/>
     <use xlink:href="#DejaVuSans-e0" x="1668.167969"/>
     <use xlink:href="#DejaVuSans-20" x="1729.447266"/>
     <use xlink:href="#DejaVuSans-66" x="1761.234375"/>
     <use xlink:href="#DejaVuSans-72" x="1796.439453"/>
     <use xlink:href="#DejaVuSans-65" x="1835.302734"/>
     <use xlink:href="#DejaVuSans-6e" x="1896.826172"/>
     <use xlink:href="#DejaVuSans-74" x="1960.205078"/>
     <use xlink:href="#DejaVuSans-65" x="1999.414062"/>
     <use xlink:href="#DejaVuSans-20" x="2060.9375"/>
     <use xlink:href="#DejaVuSans-63" x="2092.724609"/>
     <use xlink:href="#DejaVuSans-6f" x="2147.705078"/>
     <use xlink:href="#DejaVuSans-6d" x="2208.886719"/>
     <use xlink:href="#DejaVuSans-20" x="2306.298828"/>
     <use xlink:href="#DejaVuSans-34" x="2338.085938"/>
     <use xlink:href="#DejaVuSans-20" x="2401.708984"/>
     <use xlink:href="#DejaVuSans-63" x="2433.496094"/>
     <use xlink:href="#DejaVuSans-61" x="2488.476562"/>
     <use xlink:href="#DejaVuSans-6d" x="2549.755859"/>
     <use xlink:href="#DejaVuSans-61" x="2647.167969"/>
     <use xlink:href="#DejaVuSans-64" x="2708.447266"/>
     <use xlink:href="#DejaVuSans-61" x="2771.923828"/>
     <use xlink:href="#DejaVuSans-73" x="2833.203125"/>
    </g>
   </g>
   <g id="legend_1">
    <g id="patch_7">
     <path d="M 1217.86875 80.55625 
L 1289 80.55625 
Q 1291 80.55625 1291 78.55625 
L 1291 50.2 
Q 1291 48.2 1289 48.2 
L 1217.86875 48.2 
Q 1215.86875 48.2 1215.86875 50.2 
L 1215.86875 78.55625 
Q 1215.86875 80.55625 1217.86875 80.55625 
z
" style="fill: #ffffff; opacity: 0.8; stroke: #cccccc; stroke-linejoin: miter"/>
    </g>
    <g id="line2d_19">
     <path d="M 1219.86875 56.298437 
L 1229.86875 56.298437 
L 1239.86875 56.298437 
" style="fill: none; stroke: #0000ff; stroke-width: 1.5; stroke-linecap: square"/>
    </g>
    <g id="text_20">
     <!-- Predito -->
     <g transform="translate(1247.86875 59.798437) scale(0.1 -0.1)">
      <use xlink:href="#DejaVuSans-50"/>
      <use xlink:href="#DejaVuSans-72" x="58.552734"/>
      <use xlink:href="#DejaVuSans-65" x="97.416016"/>
      <use xlink:href="#DejaVuSans-64" x="158.939453"/>
      <use xlink:href="#DejaVuSans-69" x="222.416016"/>
      <use xlink:href="#DejaVuSans-74" x="250.199219"/>
      <use xlink:href="#DejaVuSans-6f" x="289.408203"/>
     </g>
    </g>
    <g id="line2d_20">
     <path d="M 1219.86875 70.976562 
L 1229.86875 70.976562 
L 1239.86875 70.976562 
" style="fill: none; stroke: #ffa500; stroke-width: 1.5; stroke-linecap: square"/>
    </g>
    <g id="text_21">
     <!-- Original -->
     <g transform="translate(1247.86875 74.476562) scale(0.1 -0.1)">
      <defs>
       <path id="DejaVuSans-4f" d="M 2522 4238 
Q 1834 4238 1429 3725 
Q 1025 3213 1025 2328 
Q 1025 1447 1429 934 
Q 1834 422 2522 422 
Q 3209 422 3611 934 
Q 4013 1447 4013 2328 
Q 4013 3213 3611 3725 
Q 3209 4238 2522 4238 
z
M 2522 4750 
Q 3503 4750 4090 4092 
Q 4678 3434 4678 2328 
Q 4678 1225 4090 567 
Q 3503 -91 2522 -91 
Q 1538 -91 948 565 
Q 359 1222 359 2328 
Q 359 3434 948 4092 
Q 1538 4750 2522 4750 
z
" transform="scale(0.015625)"/>
       <path id="DejaVuSans-67" d="M 2906 1791 
Q 2906 2416 2648 2759 
Q 2391 3103 1925 3103 
Q 1463 3103 1205 2759 
Q 947 2416 947 1791 
Q 947 1169 1205 825 
Q 1463 481 1925 481 
Q 2391 481 2648 825 
Q 2906 1169 2906 1791 
z
M 3481 434 
Q 3481 -459 3084 -895 
Q 2688 -1331 1869 -1331 
Q 1566 -1331 1297 -1286 
Q 1028 -1241 775 -1147 
L 775 -588 
Q 1028 -725 1275 -790 
Q 1522 -856 1778 -856 
Q 2344 -856 2625 -561 
Q 2906 -266 2906 331 
L 2906 616 
Q 2728 306 2450 153 
Q 2172 0 1784 0 
Q 1141 0 747 490 
Q 353 981 353 1791 
Q 353 2603 747 3093 
Q 1141 3584 1784 3584 
Q 2172 3584 2450 3431 
Q 2728 3278 2906 2969 
L 2906 3500 
L 3481 3500 
L 3481 434 
z
" transform="scale(0.015625)"/>
      </defs>
      <use xlink:href="#DejaVuSans-4f"/>
      <use xlink:href="#DejaVuSans-72" x="78.710938"/>
      <use xlink:href="#DejaVuSans-69" x="119.824219"/>
      <use xlink:href="#DejaVuSans-67" x="147.607422"/>
      <use xlink:href="#DejaVuSans-69" x="211.083984"/>
      <use xlink:href="#DejaVuSans-6e" x="238.867188"/>
      <use xlink:href="#DejaVuSans-61" x="302.246094"/>
      <use xlink:href="#DejaVuSans-6c" x="363.525391"/>
     </g>
    </g>
   </g>
  </g>
 </g>
 <defs>
  <clipPath id="peb319261d0">
   <rect x="180" y="43.2" width="1116" height="277.2"/>
  </clipPath>
 </defs>
</svg>
