<?xml version="1.0" encoding="utf-8" standalone="no"?>
<!DOCTYPE svg PUBLIC "-//W3C//DTD SVG 1.1//EN"
  "http://www.w3.org/Graphics/SVG/1.1/DTD/svg11.dtd">
<svg xmlns:xlink="http://www.w3.org/1999/xlink" width="1440pt" height="360pt" viewBox="0 0 1440 360" xmlns="http://www.w3.org/2000/svg" version="1.1">
 <metadata>
  <rdf:RDF xmlns:dc="http://purl.org/dc/elements/1.1/" xmlns:cc="http://creativecommons.org/ns#" xmlns:rdf="http://www.w3.org/1999/02/22-rdf-syntax-ns#">
   <cc:Work>
    <dc:type rdf:resource="http://purl.org/dc/dcmitype/StillImage"/>
    <dc:date>2023-08-21T14:51:17.343085</dc:date>
    <dc:format>image/svg+xml</dc:format>
    <dc:creator>
     <cc:Agent>
      <dc:title>Matplotlib v3.7.1, https://matplotlib.org/</dc:title>
     </cc:Agent>
    </dc:creator>
   </cc:Work>
  </rdf:RDF>
 </metadata>
 <defs>
  <style type="text/css">*{stroke-linejoin: round; stroke-linecap: butt}</style>
 </defs>
 <g id="figure_1">
  <g id="patch_1">
   <path d="M 0 360 
L 1440 360 
L 1440 0 
L 0 0 
z
" style="fill: #ffffff"/>
  </g>
  <g id="axes_1">
   <g id="patch_2">
    <path d="M 180 320.4 
L 1296 320.4 
L 1296 43.2 
L 180 43.2 
z
" style="fill: #ffffff"/>
   </g>
   <g id="PolyCollection_1">
    <defs>
     <path id="m89a83de6c0" d="M 230.727273 -250.532769 
L 230.727273 -164.999585 
L 236.066986 -144.634199 
L 241.406699 -139.103163 
L 246.746411 -147.074083 
L 252.086124 -135.619469 
L 257.425837 -138.272717 
L 262.76555 -139.563422 
L 268.105263 -144.313349 
L 273.444976 -147.532782 
L 278.784689 -140.052682 
L 284.124402 -117.911221 
L 289.464115 -107.954916 
L 294.803828 -73.041011 
L 300.143541 -85.098911 
L 305.483254 -76.318455 
L 310.822967 -63.067103 
L 316.162679 -61.350442 
L 321.502392 -56.328459 
L 326.842105 -52.2 
L 332.181818 -57.484031 
L 337.521531 -75.280094 
L 342.861244 -86.833643 
L 348.200957 -124.076851 
L 353.54067 -157.863181 
L 358.880383 -181.85047 
L 364.220096 -197.10106 
L 369.559809 -199.087709 
L 374.899522 -198.59172 
L 380.239234 -200.007013 
L 385.578947 -180.585648 
L 390.91866 -162.492327 
L 396.258373 -136.236042 
L 401.598086 -131.107722 
L 406.937799 -129.639564 
L 412.277512 -136.853058 
L 417.617225 -150.471511 
L 422.956938 -122.275058 
L 428.296651 -103.828242 
L 433.636364 -109.706897 
L 438.976077 -113.303838 
L 444.315789 -118.608281 
L 449.655502 -123.703464 
L 454.995215 -106.950283 
L 460.334928 -98.748208 
L 465.674641 -114.280274 
L 471.014354 -118.31553 
L 476.354067 -121.594673 
L 481.69378 -139.406977 
L 487.033493 -190.554099 
L 492.373206 -211.739032 
L 497.712919 -210.578118 
L 503.052632 -199.25666 
L 508.392344 -190.211617 
L 513.732057 -194.873752 
L 519.07177 -192.800724 
L 524.411483 -185.628294 
L 529.751196 -163.042216 
L 535.090909 -170.619413 
L 540.430622 -151.355561 
L 545.770335 -135.804735 
L 551.110048 -109.013874 
L 556.449761 -106.098895 
L 561.789474 -102.990328 
L 567.129187 -104.119106 
L 572.4689 -89.918715 
L 577.808612 -85.470977 
L 583.148325 -62.660907 
L 588.488038 -95.529229 
L 593.827751 -114.664854 
L 599.167464 -122.30616 
L 604.507177 -159.460687 
L 609.84689 -189.364282 
L 615.186603 -205.223337 
L 620.526316 -218.666799 
L 625.866029 -215.541409 
L 631.205742 -204.783922 
L 636.545455 -195.461144 
L 641.885167 -198.273069 
L 647.22488 -172.929506 
L 652.564593 -168.84557 
L 657.904306 -162.172166 
L 663.244019 -143.435717 
L 668.583732 -152.681585 
L 673.923445 -143.255523 
L 679.263158 -124.598641 
L 684.602871 -123.744857 
L 689.942584 -122.415402 
L 695.282297 -113.276773 
L 700.62201 -119.624206 
L 705.961722 -105.9349 
L 711.301435 -88.665275 
L 716.641148 -82.174888 
L 721.980861 -105.177326 
L 727.320574 -111.462818 
L 732.660287 -159.040113 
L 738 -192.532919 
L 743.339713 -198.131017 
L 748.679426 -204.772712 
L 754.019139 -210.57948 
L 759.358852 -210.248684 
L 764.698565 -204.595866 
L 770.038278 -199.241577 
L 775.37799 -190.868647 
L 780.717703 -150.531302 
L 786.057416 -134.588904 
L 791.397129 -142.323269 
L 796.736842 -157.999668 
L 802.076555 -150.070256 
L 807.416268 -98.666621 
L 812.755981 -105.328552 
L 818.095694 -111.023025 
L 823.435407 -55.603218 
L 828.77512 -60.73789 
L 834.114833 -79.343334 
L 839.454545 -77.717787 
L 844.794258 -69.601164 
L 850.133971 -84.706297 
L 855.473684 -102.218197 
L 860.813397 -113.589549 
L 866.15311 -146.249627 
L 871.492823 -186.211156 
L 876.832536 -204.046995 
L 882.172249 -193.259834 
L 887.511962 -198.342018 
L 892.851675 -195.625844 
L 898.191388 -186.136774 
L 903.5311 -161.51745 
L 908.870813 -144.099673 
L 914.210526 -154.148233 
L 919.550239 -142.864114 
L 924.889952 -137.390424 
L 930.229665 -143.56083 
L 935.569378 -130.921833 
L 940.909091 -141.997709 
L 946.248804 -123.673593 
L 951.588517 -115.359453 
L 956.92823 -123.00345 
L 962.267943 -115.774364 
L 967.607656 -97.867703 
L 972.947368 -82.457727 
L 978.287081 -94.025669 
L 983.626794 -110.392666 
L 988.966507 -148.418424 
L 994.30622 -182.512096 
L 999.645933 -196.097625 
L 1004.985646 -178.527161 
L 1010.325359 -188.839407 
L 1015.665072 -189.151443 
L 1021.004785 -179.388758 
L 1026.344498 -172.62945 
L 1031.684211 -149.941203 
L 1037.023923 -136.390682 
L 1042.363636 -143.84357 
L 1047.703349 -125.259266 
L 1053.043062 -118.176564 
L 1058.382775 -137.083737 
L 1063.722488 -101.737996 
L 1069.062201 -99.207695 
L 1074.401914 -87.449953 
L 1079.741627 -64.763306 
L 1085.08134 -69.467483 
L 1090.421053 -66.085023 
L 1095.760766 -67.447073 
L 1101.100478 -95.970056 
L 1106.440191 -82.952436 
L 1111.779904 -75.218793 
L 1117.119617 -97.906798 
L 1122.45933 -112.856758 
L 1127.799043 -143.174871 
L 1133.138756 -180.273332 
L 1138.478469 -192.347145 
L 1143.818182 -195.875546 
L 1149.157895 -190.865298 
L 1154.497608 -186.732191 
L 1159.837321 -175.257833 
L 1165.177033 -174.485931 
L 1170.516746 -165.125059 
L 1175.856459 -141.636861 
L 1181.196172 -128.709609 
L 1186.535885 -147.671765 
L 1191.875598 -152.630345 
L 1197.215311 -139.569166 
L 1202.555024 -123.647464 
L 1207.894737 -117.910532 
L 1213.23445 -99.409111 
L 1218.574163 -90.782503 
L 1223.913876 -74.817767 
L 1229.253589 -73.76196 
L 1234.593301 -85.801174 
L 1239.933014 -118.87845 
L 1245.272727 -158.6824 
L 1245.272727 -244.215585 
L 1245.272727 -244.215585 
L 1239.933014 -204.411651 
L 1234.593301 -171.334363 
L 1229.253589 -159.295149 
L 1223.913876 -160.350956 
L 1218.574163 -176.315692 
L 1213.23445 -184.942312 
L 1207.894737 -203.443733 
L 1202.555024 -209.180649 
L 1197.215311 -225.102351 
L 1191.875598 -238.16353 
L 1186.535885 -233.204949 
L 1181.196172 -214.242794 
L 1175.856459 -227.170046 
L 1170.516746 -250.658244 
L 1165.177033 -260.019116 
L 1159.837321 -260.791018 
L 1154.497608 -272.265375 
L 1149.157895 -276.398483 
L 1143.818182 -281.408731 
L 1138.478469 -277.880329 
L 1133.138756 -265.806517 
L 1127.799043 -228.708056 
L 1122.45933 -198.389943 
L 1117.119617 -183.439983 
L 1111.779904 -160.751982 
L 1106.440191 -168.485625 
L 1101.100478 -181.503245 
L 1095.760766 -152.980262 
L 1090.421053 -151.618212 
L 1085.08134 -155.000672 
L 1079.741627 -150.296503 
L 1074.401914 -172.983142 
L 1069.062201 -184.74088 
L 1063.722488 -187.271181 
L 1058.382775 -222.616922 
L 1053.043062 -203.709765 
L 1047.703349 -210.792451 
L 1042.363636 -229.376755 
L 1037.023923 -221.923867 
L 1031.684211 -235.474388 
L 1026.344498 -258.162635 
L 1021.004785 -264.921943 
L 1015.665072 -274.684628 
L 1010.325359 -274.372592 
L 1004.985646 -264.060346 
L 999.645933 -281.63081 
L 994.30622 -268.045281 
L 988.966507 -233.951609 
L 983.626794 -195.925867 
L 978.287081 -179.558858 
L 972.947368 -167.990916 
L 967.607656 -183.400905 
L 962.267943 -201.307549 
L 956.92823 -208.536635 
L 951.588517 -200.892638 
L 946.248804 -209.206778 
L 940.909091 -227.530893 
L 935.569378 -216.455018 
L 930.229665 -229.094015 
L 924.889952 -222.923609 
L 919.550239 -228.397299 
L 914.210526 -239.681418 
L 908.870813 -229.632858 
L 903.5311 -247.050635 
L 898.191388 -271.669958 
L 892.851675 -281.159029 
L 887.511962 -283.875203 
L 882.172249 -278.793019 
L 876.832536 -289.58018 
L 871.492823 -271.74434 
L 866.15311 -231.782812 
L 860.813397 -199.12275 
L 855.473684 -187.751398 
L 850.133971 -170.239494 
L 844.794258 -155.134353 
L 839.454545 -163.250984 
L 834.114833 -164.876523 
L 828.77512 -146.271079 
L 823.435407 -141.136407 
L 818.095694 -196.55621 
L 812.755981 -190.861753 
L 807.416268 -184.199822 
L 802.076555 -235.60344 
L 796.736842 -243.532853 
L 791.397129 -227.856454 
L 786.057416 -220.122089 
L 780.717703 -236.064487 
L 775.37799 -276.401831 
L 770.038278 -284.774762 
L 764.698565 -290.129051 
L 759.358852 -295.781869 
L 754.019139 -296.112665 
L 748.679426 -290.305897 
L 743.339713 -283.664202 
L 738 -278.066104 
L 732.660287 -244.573298 
L 727.320574 -196.996003 
L 721.980861 -190.710527 
L 716.641148 -167.708077 
L 711.301435 -174.198464 
L 705.961722 -191.468101 
L 700.62201 -205.157391 
L 695.282297 -198.809975 
L 689.942584 -207.948603 
L 684.602871 -209.278042 
L 679.263158 -210.131826 
L 673.923445 -228.788707 
L 668.583732 -238.21477 
L 663.244019 -228.968902 
L 657.904306 -247.705351 
L 652.564593 -254.378755 
L 647.22488 -258.462691 
L 641.885167 -283.806253 
L 636.545455 -280.994329 
L 631.205742 -290.317107 
L 625.866029 -301.074594 
L 620.526316 -304.2 
L 615.186603 -290.756522 
L 609.84689 -274.897467 
L 604.507177 -244.993871 
L 599.167464 -207.839361 
L 593.827751 -200.198055 
L 588.488038 -181.062418 
L 583.148325 -148.194096 
L 577.808612 -171.004174 
L 572.4689 -175.451912 
L 567.129187 -189.652307 
L 561.789474 -188.523529 
L 556.449761 -191.632096 
L 551.110048 -194.547059 
L 545.770335 -221.33792 
L 540.430622 -236.888745 
L 535.090909 -256.152598 
L 529.751196 -248.5754 
L 524.411483 -271.161479 
L 519.07177 -278.333909 
L 513.732057 -280.406937 
L 508.392344 -275.744801 
L 503.052632 -284.789845 
L 497.712919 -296.111303 
L 492.373206 -297.272217 
L 487.033493 -276.087284 
L 481.69378 -224.940161 
L 476.354067 -207.127874 
L 471.014354 -203.848714 
L 465.674641 -199.813459 
L 460.334928 -184.281393 
L 454.995215 -192.483484 
L 449.655502 -209.236649 
L 444.315789 -204.141466 
L 438.976077 -198.837023 
L 433.636364 -195.240082 
L 428.296651 -189.361427 
L 422.956938 -207.808259 
L 417.617225 -236.004696 
L 412.277512 -222.386243 
L 406.937799 -215.172749 
L 401.598086 -216.640907 
L 396.258373 -221.769227 
L 390.91866 -248.025512 
L 385.578947 -266.118833 
L 380.239234 -285.540197 
L 374.899522 -284.124904 
L 369.559809 -284.620894 
L 364.220096 -282.634245 
L 358.880383 -267.383655 
L 353.54067 -243.396365 
L 348.200957 -209.610036 
L 342.861244 -172.366832 
L 337.521531 -160.813283 
L 332.181818 -143.017228 
L 326.842105 -137.733193 
L 321.502392 -141.861648 
L 316.162679 -146.883631 
L 310.822967 -148.600292 
L 305.483254 -161.851644 
L 300.143541 -170.6321 
L 294.803828 -158.574208 
L 289.464115 -193.488117 
L 284.124402 -203.444406 
L 278.784689 -225.585867 
L 273.444976 -233.065967 
L 268.105263 -229.846534 
L 262.76555 -225.096607 
L 257.425837 -223.805902 
L 252.086124 -221.152654 
L 246.746411 -232.607267 
L 241.406699 -224.636347 
L 236.066986 -230.167384 
L 230.727273 -250.532769 
z
" style="stroke: #0000ff; stroke-opacity: 0.05"/>
    </defs>
    <g clip-path="url(#p76b3043702)">
     <use xlink:href="#m89a83de6c0" x="0" y="360" style="fill: #0000ff; fill-opacity: 0.05; stroke: #0000ff; stroke-opacity: 0.05"/>
    </g>
   </g>
   <g id="matplotlib.axis_1">
    <g id="xtick_1">
     <g id="line2d_1">
      <defs>
       <path id="m0baa7ac00d" d="M 0 0 
L 0 3.5 
" style="stroke: #000000; stroke-width: 0.8"/>
      </defs>
      <g>
       <use xlink:href="#m0baa7ac00d" x="230.727273" y="320.4" style="stroke: #000000; stroke-width: 0.8"/>
      </g>
     </g>
     <g id="text_1">
      <!-- 0 -->
      <g transform="translate(227.546023 334.998438) scale(0.1 -0.1)">
       <defs>
        <path id="DejaVuSans-30" d="M 2034 4250 
Q 1547 4250 1301 3770 
Q 1056 3291 1056 2328 
Q 1056 1369 1301 889 
Q 1547 409 2034 409 
Q 2525 409 2770 889 
Q 3016 1369 3016 2328 
Q 3016 3291 2770 3770 
Q 2525 4250 2034 4250 
z
M 2034 4750 
Q 2819 4750 3233 4129 
Q 3647 3509 3647 2328 
Q 3647 1150 3233 529 
Q 2819 -91 2034 -91 
Q 1250 -91 836 529 
Q 422 1150 422 2328 
Q 422 3509 836 4129 
Q 1250 4750 2034 4750 
z
" transform="scale(0.015625)"/>
       </defs>
       <use xlink:href="#DejaVuSans-30"/>
      </g>
     </g>
    </g>
    <g id="xtick_2">
     <g id="line2d_2">
      <g>
       <use xlink:href="#m0baa7ac00d" x="364.220096" y="320.4" style="stroke: #000000; stroke-width: 0.8"/>
      </g>
     </g>
     <g id="text_2">
      <!-- 25 -->
      <g transform="translate(357.857596 334.998438) scale(0.1 -0.1)">
       <defs>
        <path id="DejaVuSans-32" d="M 1228 531 
L 3431 531 
L 3431 0 
L 469 0 
L 469 531 
Q 828 903 1448 1529 
Q 2069 2156 2228 2338 
Q 2531 2678 2651 2914 
Q 2772 3150 2772 3378 
Q 2772 3750 2511 3984 
Q 2250 4219 1831 4219 
Q 1534 4219 1204 4116 
Q 875 4013 500 3803 
L 500 4441 
Q 881 4594 1212 4672 
Q 1544 4750 1819 4750 
Q 2544 4750 2975 4387 
Q 3406 4025 3406 3419 
Q 3406 3131 3298 2873 
Q 3191 2616 2906 2266 
Q 2828 2175 2409 1742 
Q 1991 1309 1228 531 
z
" transform="scale(0.015625)"/>
        <path id="DejaVuSans-35" d="M 691 4666 
L 3169 4666 
L 3169 4134 
L 1269 4134 
L 1269 2991 
Q 1406 3038 1543 3061 
Q 1681 3084 1819 3084 
Q 2600 3084 3056 2656 
Q 3513 2228 3513 1497 
Q 3513 744 3044 326 
Q 2575 -91 1722 -91 
Q 1428 -91 1123 -41 
Q 819 9 494 109 
L 494 744 
Q 775 591 1075 516 
Q 1375 441 1709 441 
Q 2250 441 2565 725 
Q 2881 1009 2881 1497 
Q 2881 1984 2565 2268 
Q 2250 2553 1709 2553 
Q 1456 2553 1204 2497 
Q 953 2441 691 2322 
L 691 4666 
z
" transform="scale(0.015625)"/>
       </defs>
       <use xlink:href="#DejaVuSans-32"/>
       <use xlink:href="#DejaVuSans-35" x="63.623047"/>
      </g>
     </g>
    </g>
    <g id="xtick_3">
     <g id="line2d_3">
      <g>
       <use xlink:href="#m0baa7ac00d" x="497.712919" y="320.4" style="stroke: #000000; stroke-width: 0.8"/>
      </g>
     </g>
     <g id="text_3">
      <!-- 50 -->
      <g transform="translate(491.350419 334.998438) scale(0.1 -0.1)">
       <use xlink:href="#DejaVuSans-35"/>
       <use xlink:href="#DejaVuSans-30" x="63.623047"/>
      </g>
     </g>
    </g>
    <g id="xtick_4">
     <g id="line2d_4">
      <g>
       <use xlink:href="#m0baa7ac00d" x="631.205742" y="320.4" style="stroke: #000000; stroke-width: 0.8"/>
      </g>
     </g>
     <g id="text_4">
      <!-- 75 -->
      <g transform="translate(624.843242 334.998438) scale(0.1 -0.1)">
       <defs>
        <path id="DejaVuSans-37" d="M 525 4666 
L 3525 4666 
L 3525 4397 
L 1831 0 
L 1172 0 
L 2766 4134 
L 525 4134 
L 525 4666 
z
" transform="scale(0.015625)"/>
       </defs>
       <use xlink:href="#DejaVuSans-37"/>
       <use xlink:href="#DejaVuSans-35" x="63.623047"/>
      </g>
     </g>
    </g>
    <g id="xtick_5">
     <g id="line2d_5">
      <g>
       <use xlink:href="#m0baa7ac00d" x="764.698565" y="320.4" style="stroke: #000000; stroke-width: 0.8"/>
      </g>
     </g>
     <g id="text_5">
      <!-- 100 -->
      <g transform="translate(755.154815 334.998438) scale(0.1 -0.1)">
       <defs>
        <path id="DejaVuSans-31" d="M 794 531 
L 1825 531 
L 1825 4091 
L 703 3866 
L 703 4441 
L 1819 4666 
L 2450 4666 
L 2450 531 
L 3481 531 
L 3481 0 
L 794 0 
L 794 531 
z
" transform="scale(0.015625)"/>
       </defs>
       <use xlink:href="#DejaVuSans-31"/>
       <use xlink:href="#DejaVuSans-30" x="63.623047"/>
       <use xlink:href="#DejaVuSans-30" x="127.246094"/>
      </g>
     </g>
    </g>
    <g id="xtick_6">
     <g id="line2d_6">
      <g>
       <use xlink:href="#m0baa7ac00d" x="898.191388" y="320.4" style="stroke: #000000; stroke-width: 0.8"/>
      </g>
     </g>
     <g id="text_6">
      <!-- 125 -->
      <g transform="translate(888.647638 334.998438) scale(0.1 -0.1)">
       <use xlink:href="#DejaVuSans-31"/>
       <use xlink:href="#DejaVuSans-32" x="63.623047"/>
       <use xlink:href="#DejaVuSans-35" x="127.246094"/>
      </g>
     </g>
    </g>
    <g id="xtick_7">
     <g id="line2d_7">
      <g>
       <use xlink:href="#m0baa7ac00d" x="1031.684211" y="320.4" style="stroke: #000000; stroke-width: 0.8"/>
      </g>
     </g>
     <g id="text_7">
      <!-- 150 -->
      <g transform="translate(1022.140461 334.998438) scale(0.1 -0.1)">
       <use xlink:href="#DejaVuSans-31"/>
       <use xlink:href="#DejaVuSans-35" x="63.623047"/>
       <use xlink:href="#DejaVuSans-30" x="127.246094"/>
      </g>
     </g>
    </g>
    <g id="xtick_8">
     <g id="line2d_8">
      <g>
       <use xlink:href="#m0baa7ac00d" x="1165.177033" y="320.4" style="stroke: #000000; stroke-width: 0.8"/>
      </g>
     </g>
     <g id="text_8">
      <!-- 175 -->
      <g transform="translate(1155.633283 334.998438) scale(0.1 -0.1)">
       <use xlink:href="#DejaVuSans-31"/>
       <use xlink:href="#DejaVuSans-37" x="63.623047"/>
       <use xlink:href="#DejaVuSans-35" x="127.246094"/>
      </g>
     </g>
    </g>
    <g id="text_9">
     <!-- Amostras -->
     <g transform="translate(714.360937 348.676562) scale(0.1 -0.1)">
      <defs>
       <path id="DejaVuSans-41" d="M 2188 4044 
L 1331 1722 
L 3047 1722 
L 2188 4044 
z
M 1831 4666 
L 2547 4666 
L 4325 0 
L 3669 0 
L 3244 1197 
L 1141 1197 
L 716 0 
L 50 0 
L 1831 4666 
z
" transform="scale(0.015625)"/>
       <path id="DejaVuSans-6d" d="M 3328 2828 
Q 3544 3216 3844 3400 
Q 4144 3584 4550 3584 
Q 5097 3584 5394 3201 
Q 5691 2819 5691 2113 
L 5691 0 
L 5113 0 
L 5113 2094 
Q 5113 2597 4934 2840 
Q 4756 3084 4391 3084 
Q 3944 3084 3684 2787 
Q 3425 2491 3425 1978 
L 3425 0 
L 2847 0 
L 2847 2094 
Q 2847 2600 2669 2842 
Q 2491 3084 2119 3084 
Q 1678 3084 1418 2786 
Q 1159 2488 1159 1978 
L 1159 0 
L 581 0 
L 581 3500 
L 1159 3500 
L 1159 2956 
Q 1356 3278 1631 3431 
Q 1906 3584 2284 3584 
Q 2666 3584 2933 3390 
Q 3200 3197 3328 2828 
z
" transform="scale(0.015625)"/>
       <path id="DejaVuSans-6f" d="M 1959 3097 
Q 1497 3097 1228 2736 
Q 959 2375 959 1747 
Q 959 1119 1226 758 
Q 1494 397 1959 397 
Q 2419 397 2687 759 
Q 2956 1122 2956 1747 
Q 2956 2369 2687 2733 
Q 2419 3097 1959 3097 
z
M 1959 3584 
Q 2709 3584 3137 3096 
Q 3566 2609 3566 1747 
Q 3566 888 3137 398 
Q 2709 -91 1959 -91 
Q 1206 -91 779 398 
Q 353 888 353 1747 
Q 353 2609 779 3096 
Q 1206 3584 1959 3584 
z
" transform="scale(0.015625)"/>
       <path id="DejaVuSans-73" d="M 2834 3397 
L 2834 2853 
Q 2591 2978 2328 3040 
Q 2066 3103 1784 3103 
Q 1356 3103 1142 2972 
Q 928 2841 928 2578 
Q 928 2378 1081 2264 
Q 1234 2150 1697 2047 
L 1894 2003 
Q 2506 1872 2764 1633 
Q 3022 1394 3022 966 
Q 3022 478 2636 193 
Q 2250 -91 1575 -91 
Q 1294 -91 989 -36 
Q 684 19 347 128 
L 347 722 
Q 666 556 975 473 
Q 1284 391 1588 391 
Q 1994 391 2212 530 
Q 2431 669 2431 922 
Q 2431 1156 2273 1281 
Q 2116 1406 1581 1522 
L 1381 1569 
Q 847 1681 609 1914 
Q 372 2147 372 2553 
Q 372 3047 722 3315 
Q 1072 3584 1716 3584 
Q 2034 3584 2315 3537 
Q 2597 3491 2834 3397 
z
" transform="scale(0.015625)"/>
       <path id="DejaVuSans-74" d="M 1172 4494 
L 1172 3500 
L 2356 3500 
L 2356 3053 
L 1172 3053 
L 1172 1153 
Q 1172 725 1289 603 
Q 1406 481 1766 481 
L 2356 481 
L 2356 0 
L 1766 0 
Q 1100 0 847 248 
Q 594 497 594 1153 
L 594 3053 
L 172 3053 
L 172 3500 
L 594 3500 
L 594 4494 
L 1172 4494 
z
" transform="scale(0.015625)"/>
       <path id="DejaVuSans-72" d="M 2631 2963 
Q 2534 3019 2420 3045 
Q 2306 3072 2169 3072 
Q 1681 3072 1420 2755 
Q 1159 2438 1159 1844 
L 1159 0 
L 581 0 
L 581 3500 
L 1159 3500 
L 1159 2956 
Q 1341 3275 1631 3429 
Q 1922 3584 2338 3584 
Q 2397 3584 2469 3576 
Q 2541 3569 2628 3553 
L 2631 2963 
z
" transform="scale(0.015625)"/>
       <path id="DejaVuSans-61" d="M 2194 1759 
Q 1497 1759 1228 1600 
Q 959 1441 959 1056 
Q 959 750 1161 570 
Q 1363 391 1709 391 
Q 2188 391 2477 730 
Q 2766 1069 2766 1631 
L 2766 1759 
L 2194 1759 
z
M 3341 1997 
L 3341 0 
L 2766 0 
L 2766 531 
Q 2569 213 2275 61 
Q 1981 -91 1556 -91 
Q 1019 -91 701 211 
Q 384 513 384 1019 
Q 384 1609 779 1909 
Q 1175 2209 1959 2209 
L 2766 2209 
L 2766 2266 
Q 2766 2663 2505 2880 
Q 2244 3097 1772 3097 
Q 1472 3097 1187 3025 
Q 903 2953 641 2809 
L 641 3341 
Q 956 3463 1253 3523 
Q 1550 3584 1831 3584 
Q 2591 3584 2966 3190 
Q 3341 2797 3341 1997 
z
" transform="scale(0.015625)"/>
      </defs>
      <use xlink:href="#DejaVuSans-41"/>
      <use xlink:href="#DejaVuSans-6d" x="68.408203"/>
      <use xlink:href="#DejaVuSans-6f" x="165.820312"/>
      <use xlink:href="#DejaVuSans-73" x="227.001953"/>
      <use xlink:href="#DejaVuSans-74" x="279.101562"/>
      <use xlink:href="#DejaVuSans-72" x="318.310547"/>
      <use xlink:href="#DejaVuSans-61" x="359.423828"/>
      <use xlink:href="#DejaVuSans-73" x="420.703125"/>
     </g>
    </g>
   </g>
   <g id="matplotlib.axis_2">
    <g id="ytick_1">
     <g id="line2d_9">
      <defs>
       <path id="m5b9c239013" d="M 0 0 
L -3.5 0 
" style="stroke: #000000; stroke-width: 0.8"/>
      </defs>
      <g>
       <use xlink:href="#m5b9c239013" x="180" y="298.029715" style="stroke: #000000; stroke-width: 0.8"/>
      </g>
     </g>
     <g id="text_10">
      <!-- 2 -->
      <g transform="translate(166.6375 301.828934) scale(0.1 -0.1)">
       <use xlink:href="#DejaVuSans-32"/>
      </g>
     </g>
    </g>
    <g id="ytick_2">
     <g id="line2d_10">
      <g>
       <use xlink:href="#m5b9c239013" x="180" y="263.609957" style="stroke: #000000; stroke-width: 0.8"/>
      </g>
     </g>
     <g id="text_11">
      <!-- 4 -->
      <g transform="translate(166.6375 267.409176) scale(0.1 -0.1)">
       <defs>
        <path id="DejaVuSans-34" d="M 2419 4116 
L 825 1625 
L 2419 1625 
L 2419 4116 
z
M 2253 4666 
L 3047 4666 
L 3047 1625 
L 3713 1625 
L 3713 1100 
L 3047 1100 
L 3047 0 
L 2419 0 
L 2419 1100 
L 313 1100 
L 313 1709 
L 2253 4666 
z
" transform="scale(0.015625)"/>
       </defs>
       <use xlink:href="#DejaVuSans-34"/>
      </g>
     </g>
    </g>
    <g id="ytick_3">
     <g id="line2d_11">
      <g>
       <use xlink:href="#m5b9c239013" x="180" y="229.1902" style="stroke: #000000; stroke-width: 0.8"/>
      </g>
     </g>
     <g id="text_12">
      <!-- 6 -->
      <g transform="translate(166.6375 232.989418) scale(0.1 -0.1)">
       <defs>
        <path id="DejaVuSans-36" d="M 2113 2584 
Q 1688 2584 1439 2293 
Q 1191 2003 1191 1497 
Q 1191 994 1439 701 
Q 1688 409 2113 409 
Q 2538 409 2786 701 
Q 3034 994 3034 1497 
Q 3034 2003 2786 2293 
Q 2538 2584 2113 2584 
z
M 3366 4563 
L 3366 3988 
Q 3128 4100 2886 4159 
Q 2644 4219 2406 4219 
Q 1781 4219 1451 3797 
Q 1122 3375 1075 2522 
Q 1259 2794 1537 2939 
Q 1816 3084 2150 3084 
Q 2853 3084 3261 2657 
Q 3669 2231 3669 1497 
Q 3669 778 3244 343 
Q 2819 -91 2113 -91 
Q 1303 -91 875 529 
Q 447 1150 447 2328 
Q 447 3434 972 4092 
Q 1497 4750 2381 4750 
Q 2619 4750 2861 4703 
Q 3103 4656 3366 4563 
z
" transform="scale(0.015625)"/>
       </defs>
       <use xlink:href="#DejaVuSans-36"/>
      </g>
     </g>
    </g>
    <g id="ytick_4">
     <g id="line2d_12">
      <g>
       <use xlink:href="#m5b9c239013" x="180" y="194.770442" style="stroke: #000000; stroke-width: 0.8"/>
      </g>
     </g>
     <g id="text_13">
      <!-- 8 -->
      <g transform="translate(166.6375 198.569661) scale(0.1 -0.1)">
       <defs>
        <path id="DejaVuSans-38" d="M 2034 2216 
Q 1584 2216 1326 1975 
Q 1069 1734 1069 1313 
Q 1069 891 1326 650 
Q 1584 409 2034 409 
Q 2484 409 2743 651 
Q 3003 894 3003 1313 
Q 3003 1734 2745 1975 
Q 2488 2216 2034 2216 
z
M 1403 2484 
Q 997 2584 770 2862 
Q 544 3141 544 3541 
Q 544 4100 942 4425 
Q 1341 4750 2034 4750 
Q 2731 4750 3128 4425 
Q 3525 4100 3525 3541 
Q 3525 3141 3298 2862 
Q 3072 2584 2669 2484 
Q 3125 2378 3379 2068 
Q 3634 1759 3634 1313 
Q 3634 634 3220 271 
Q 2806 -91 2034 -91 
Q 1263 -91 848 271 
Q 434 634 434 1313 
Q 434 1759 690 2068 
Q 947 2378 1403 2484 
z
M 1172 3481 
Q 1172 3119 1398 2916 
Q 1625 2713 2034 2713 
Q 2441 2713 2670 2916 
Q 2900 3119 2900 3481 
Q 2900 3844 2670 4047 
Q 2441 4250 2034 4250 
Q 1625 4250 1398 4047 
Q 1172 3844 1172 3481 
z
" transform="scale(0.015625)"/>
       </defs>
       <use xlink:href="#DejaVuSans-38"/>
      </g>
     </g>
    </g>
    <g id="ytick_5">
     <g id="line2d_13">
      <g>
       <use xlink:href="#m5b9c239013" x="180" y="160.350684" style="stroke: #000000; stroke-width: 0.8"/>
      </g>
     </g>
     <g id="text_14">
      <!-- 10 -->
      <g transform="translate(160.275 164.149903) scale(0.1 -0.1)">
       <use xlink:href="#DejaVuSans-31"/>
       <use xlink:href="#DejaVuSans-30" x="63.623047"/>
      </g>
     </g>
    </g>
    <g id="ytick_6">
     <g id="line2d_14">
      <g>
       <use xlink:href="#m5b9c239013" x="180" y="125.930926" style="stroke: #000000; stroke-width: 0.8"/>
      </g>
     </g>
     <g id="text_15">
      <!-- 12 -->
      <g transform="translate(160.275 129.730145) scale(0.1 -0.1)">
       <use xlink:href="#DejaVuSans-31"/>
       <use xlink:href="#DejaVuSans-32" x="63.623047"/>
      </g>
     </g>
    </g>
    <g id="ytick_7">
     <g id="line2d_15">
      <g>
       <use xlink:href="#m5b9c239013" x="180" y="91.511168" style="stroke: #000000; stroke-width: 0.8"/>
      </g>
     </g>
     <g id="text_16">
      <!-- 14 -->
      <g transform="translate(160.275 95.310387) scale(0.1 -0.1)">
       <use xlink:href="#DejaVuSans-31"/>
       <use xlink:href="#DejaVuSans-34" x="63.623047"/>
      </g>
     </g>
    </g>
    <g id="ytick_8">
     <g id="line2d_16">
      <g>
       <use xlink:href="#m5b9c239013" x="180" y="57.091411" style="stroke: #000000; stroke-width: 0.8"/>
      </g>
     </g>
     <g id="text_17">
      <!-- 16 -->
      <g transform="translate(160.275 60.890629) scale(0.1 -0.1)">
       <use xlink:href="#DejaVuSans-31"/>
       <use xlink:href="#DejaVuSans-36" x="63.623047"/>
      </g>
     </g>
    </g>
    <g id="text_18">
     <!-- Velocidade do Vento (m/s) -->
     <g transform="translate(154.195312 247.344531) rotate(-90) scale(0.1 -0.1)">
      <defs>
       <path id="DejaVuSans-56" d="M 1831 0 
L 50 4666 
L 709 4666 
L 2188 738 
L 3669 4666 
L 4325 4666 
L 2547 0 
L 1831 0 
z
" transform="scale(0.015625)"/>
       <path id="DejaVuSans-65" d="M 3597 1894 
L 3597 1613 
L 953 1613 
Q 991 1019 1311 708 
Q 1631 397 2203 397 
Q 2534 397 2845 478 
Q 3156 559 3463 722 
L 3463 178 
Q 3153 47 2828 -22 
Q 2503 -91 2169 -91 
Q 1331 -91 842 396 
Q 353 884 353 1716 
Q 353 2575 817 3079 
Q 1281 3584 2069 3584 
Q 2775 3584 3186 3129 
Q 3597 2675 3597 1894 
z
M 3022 2063 
Q 3016 2534 2758 2815 
Q 2500 3097 2075 3097 
Q 1594 3097 1305 2825 
Q 1016 2553 972 2059 
L 3022 2063 
z
" transform="scale(0.015625)"/>
       <path id="DejaVuSans-6c" d="M 603 4863 
L 1178 4863 
L 1178 0 
L 603 0 
L 603 4863 
z
" transform="scale(0.015625)"/>
       <path id="DejaVuSans-63" d="M 3122 3366 
L 3122 2828 
Q 2878 2963 2633 3030 
Q 2388 3097 2138 3097 
Q 1578 3097 1268 2742 
Q 959 2388 959 1747 
Q 959 1106 1268 751 
Q 1578 397 2138 397 
Q 2388 397 2633 464 
Q 2878 531 3122 666 
L 3122 134 
Q 2881 22 2623 -34 
Q 2366 -91 2075 -91 
Q 1284 -91 818 406 
Q 353 903 353 1747 
Q 353 2603 823 3093 
Q 1294 3584 2113 3584 
Q 2378 3584 2631 3529 
Q 2884 3475 3122 3366 
z
" transform="scale(0.015625)"/>
       <path id="DejaVuSans-69" d="M 603 3500 
L 1178 3500 
L 1178 0 
L 603 0 
L 603 3500 
z
M 603 4863 
L 1178 4863 
L 1178 4134 
L 603 4134 
L 603 4863 
z
" transform="scale(0.015625)"/>
       <path id="DejaVuSans-64" d="M 2906 2969 
L 2906 4863 
L 3481 4863 
L 3481 0 
L 2906 0 
L 2906 525 
Q 2725 213 2448 61 
Q 2172 -91 1784 -91 
Q 1150 -91 751 415 
Q 353 922 353 1747 
Q 353 2572 751 3078 
Q 1150 3584 1784 3584 
Q 2172 3584 2448 3432 
Q 2725 3281 2906 2969 
z
M 947 1747 
Q 947 1113 1208 752 
Q 1469 391 1925 391 
Q 2381 391 2643 752 
Q 2906 1113 2906 1747 
Q 2906 2381 2643 2742 
Q 2381 3103 1925 3103 
Q 1469 3103 1208 2742 
Q 947 2381 947 1747 
z
" transform="scale(0.015625)"/>
       <path id="DejaVuSans-20" transform="scale(0.015625)"/>
       <path id="DejaVuSans-6e" d="M 3513 2113 
L 3513 0 
L 2938 0 
L 2938 2094 
Q 2938 2591 2744 2837 
Q 2550 3084 2163 3084 
Q 1697 3084 1428 2787 
Q 1159 2491 1159 1978 
L 1159 0 
L 581 0 
L 581 3500 
L 1159 3500 
L 1159 2956 
Q 1366 3272 1645 3428 
Q 1925 3584 2291 3584 
Q 2894 3584 3203 3211 
Q 3513 2838 3513 2113 
z
" transform="scale(0.015625)"/>
       <path id="DejaVuSans-28" d="M 1984 4856 
Q 1566 4138 1362 3434 
Q 1159 2731 1159 2009 
Q 1159 1288 1364 580 
Q 1569 -128 1984 -844 
L 1484 -844 
Q 1016 -109 783 600 
Q 550 1309 550 2009 
Q 550 2706 781 3412 
Q 1013 4119 1484 4856 
L 1984 4856 
z
" transform="scale(0.015625)"/>
       <path id="DejaVuSans-2f" d="M 1625 4666 
L 2156 4666 
L 531 -594 
L 0 -594 
L 1625 4666 
z
" transform="scale(0.015625)"/>
       <path id="DejaVuSans-29" d="M 513 4856 
L 1013 4856 
Q 1481 4119 1714 3412 
Q 1947 2706 1947 2009 
Q 1947 1309 1714 600 
Q 1481 -109 1013 -844 
L 513 -844 
Q 928 -128 1133 580 
Q 1338 1288 1338 2009 
Q 1338 2731 1133 3434 
Q 928 4138 513 4856 
z
" transform="scale(0.015625)"/>
      </defs>
      <use xlink:href="#DejaVuSans-56"/>
      <use xlink:href="#DejaVuSans-65" x="60.658203"/>
      <use xlink:href="#DejaVuSans-6c" x="122.181641"/>
      <use xlink:href="#DejaVuSans-6f" x="149.964844"/>
      <use xlink:href="#DejaVuSans-63" x="211.146484"/>
      <use xlink:href="#DejaVuSans-69" x="266.126953"/>
      <use xlink:href="#DejaVuSans-64" x="293.910156"/>
      <use xlink:href="#DejaVuSans-61" x="357.386719"/>
      <use xlink:href="#DejaVuSans-64" x="418.666016"/>
      <use xlink:href="#DejaVuSans-65" x="482.142578"/>
      <use xlink:href="#DejaVuSans-20" x="543.666016"/>
      <use xlink:href="#DejaVuSans-64" x="575.453125"/>
      <use xlink:href="#DejaVuSans-6f" x="638.929688"/>
      <use xlink:href="#DejaVuSans-20" x="700.111328"/>
      <use xlink:href="#DejaVuSans-56" x="731.898438"/>
      <use xlink:href="#DejaVuSans-65" x="792.556641"/>
      <use xlink:href="#DejaVuSans-6e" x="854.080078"/>
      <use xlink:href="#DejaVuSans-74" x="917.458984"/>
      <use xlink:href="#DejaVuSans-6f" x="956.667969"/>
      <use xlink:href="#DejaVuSans-20" x="1017.849609"/>
      <use xlink:href="#DejaVuSans-28" x="1049.636719"/>
      <use xlink:href="#DejaVuSans-6d" x="1088.650391"/>
      <use xlink:href="#DejaVuSans-2f" x="1186.0625"/>
      <use xlink:href="#DejaVuSans-73" x="1219.753906"/>
      <use xlink:href="#DejaVuSans-29" x="1271.853516"/>
     </g>
    </g>
   </g>
   <g id="line2d_17">
    <path d="M 230.727273 152.233823 
L 236.066986 172.599209 
L 241.406699 178.130245 
L 246.746411 170.159325 
L 252.086124 181.613938 
L 257.425837 178.960691 
L 262.76555 177.669986 
L 268.105263 172.920059 
L 273.444976 169.700625 
L 278.784689 177.180726 
L 284.124402 199.322186 
L 289.464115 209.278484 
L 294.803828 244.192393 
L 300.143541 232.134492 
L 305.483254 240.914948 
L 310.822967 254.1663 
L 316.162679 255.882962 
L 321.502392 260.904944 
L 326.842105 265.033403 
L 332.181818 259.749373 
L 337.521531 241.953309 
L 342.861244 230.39976 
L 348.200957 193.156556 
L 353.54067 159.370227 
L 358.880383 135.382937 
L 364.220096 120.132348 
L 369.559809 118.145699 
L 374.899522 118.641688 
L 380.239234 117.226395 
L 385.578947 136.647759 
L 390.91866 154.74108 
L 396.258373 180.997365 
L 401.598086 186.125685 
L 406.937799 187.593843 
L 412.277512 180.380349 
L 417.617225 166.761896 
L 422.956938 194.958342 
L 428.296651 213.405166 
L 433.636364 207.52651 
L 438.976077 203.92957 
L 444.315789 198.625126 
L 449.655502 193.529943 
L 454.995215 210.283116 
L 460.334928 218.4852 
L 465.674641 202.953134 
L 471.014354 198.917878 
L 476.354067 195.638727 
L 481.69378 177.826431 
L 487.033493 126.679309 
L 492.373206 105.494376 
L 497.712919 106.655289 
L 503.052632 117.976747 
L 508.392344 127.021791 
L 513.732057 122.359655 
L 519.07177 124.432684 
L 524.411483 131.605113 
L 529.751196 154.191192 
L 535.090909 146.613994 
L 540.430622 165.877847 
L 545.770335 181.428673 
L 551.110048 208.219533 
L 556.449761 211.134505 
L 561.789474 214.243071 
L 567.129187 213.114293 
L 572.4689 227.314689 
L 577.808612 231.762426 
L 583.148325 254.572496 
L 588.488038 221.704174 
L 593.827751 202.568545 
L 599.167464 194.92724 
L 604.507177 157.772721 
L 609.84689 127.869125 
L 615.186603 112.010071 
L 620.526316 98.566609 
L 625.866029 101.691998 
L 631.205742 112.449486 
L 636.545455 121.772264 
L 641.885167 118.960339 
L 647.22488 144.303902 
L 652.564593 148.387838 
L 657.904306 155.061241 
L 663.244019 173.797691 
L 668.583732 164.551822 
L 673.923445 173.977885 
L 679.263158 192.634766 
L 684.602871 193.488551 
L 689.942584 194.817997 
L 695.282297 203.956626 
L 700.62201 197.609201 
L 705.961722 211.2985 
L 711.301435 228.568129 
L 716.641148 235.058515 
L 721.980861 212.056073 
L 727.320574 205.77059 
L 732.660287 158.193294 
L 738 124.700489 
L 743.339713 119.10239 
L 748.679426 112.460695 
L 754.019139 106.653927 
L 759.358852 106.984723 
L 764.698565 112.637541 
L 770.038278 117.99183 
L 775.37799 126.364761 
L 780.717703 166.702105 
L 786.057416 182.644503 
L 791.397129 174.910138 
L 796.736842 159.23374 
L 802.076555 167.163152 
L 807.416268 218.566779 
L 812.755981 211.904847 
L 818.095694 206.210382 
L 823.435407 261.630185 
L 828.77512 256.495514 
L 834.114833 237.89007 
L 839.454545 239.515617 
L 844.794258 247.63224 
L 850.133971 232.527107 
L 855.473684 215.015203 
L 860.813397 203.643851 
L 866.15311 170.98378 
L 871.492823 131.022252 
L 876.832536 113.186412 
L 882.172249 123.973574 
L 887.511962 118.89139 
L 892.851675 121.607563 
L 898.191388 131.096634 
L 903.5311 155.715957 
L 908.870813 173.133735 
L 914.210526 163.085174 
L 919.550239 174.369293 
L 924.889952 179.842984 
L 930.229665 173.672578 
L 935.569378 186.311575 
L 940.909091 175.235699 
L 946.248804 193.559814 
L 951.588517 201.873955 
L 956.92823 194.229958 
L 962.267943 201.459044 
L 967.607656 219.365696 
L 972.947368 234.775677 
L 978.287081 223.207734 
L 983.626794 206.840734 
L 988.966507 168.814984 
L 994.30622 134.721312 
L 999.645933 121.135782 
L 1004.985646 138.706247 
L 1010.325359 128.394001 
L 1015.665072 128.081964 
L 1021.004785 137.84465 
L 1026.344498 144.603957 
L 1031.684211 167.292204 
L 1037.023923 180.842726 
L 1042.363636 173.389837 
L 1047.703349 191.974142 
L 1053.043062 199.056835 
L 1058.382775 180.14967 
L 1063.722488 215.495411 
L 1069.062201 218.025712 
L 1074.401914 229.78345 
L 1079.741627 252.470097 
L 1085.08134 247.76592 
L 1090.421053 251.148381 
L 1095.760766 249.78633 
L 1101.100478 221.263348 
L 1106.440191 234.280968 
L 1111.779904 242.01461 
L 1117.119617 219.326609 
L 1122.45933 204.37665 
L 1127.799043 174.058537 
L 1133.138756 136.960075 
L 1138.478469 124.886263 
L 1143.818182 121.357862 
L 1149.157895 126.368109 
L 1154.497608 130.501217 
L 1159.837321 141.975575 
L 1165.177033 142.747477 
L 1170.516746 152.108349 
L 1175.856459 175.596547 
L 1181.196172 188.523799 
L 1186.535885 169.561643 
L 1191.875598 164.603062 
L 1197.215311 177.664241 
L 1202.555024 193.585943 
L 1207.894737 199.322868 
L 1213.23445 217.824288 
L 1218.574163 226.450901 
L 1223.913876 242.415636 
L 1229.253589 243.471444 
L 1234.593301 231.432229 
L 1239.933014 198.35495 
L 1245.272727 158.551007 
L 1245.272727 158.551007 
" clip-path="url(#p76b3043702)" style="fill: none; stroke: #0000ff; stroke-width: 1.5; stroke-linecap: square"/>
   </g>
   <g id="line2d_18">
    <path d="M 230.727273 172.942578 
L 236.066986 182.130742 
L 241.406699 166.163798 
L 246.746411 184.090756 
L 252.086124 181.65269 
L 257.425837 178.115103 
L 262.76555 172.024718 
L 268.105263 167.091219 
L 273.444976 174.587078 
L 278.784689 198.853007 
L 284.124402 209.188496 
L 289.464115 228.798197 
L 294.803828 217.889046 
L 300.143541 229.228444 
L 305.483254 244.602602 
L 310.822967 247.759409 
L 316.162679 256.726006 
L 321.502392 266.707736 
L 326.842105 265.082358 
L 332.181818 251.343138 
L 337.521531 240.395743 
L 342.861244 196.395819 
L 348.200957 158.725307 
L 353.54067 133.216441 
L 358.880383 109.285149 
L 364.220096 111.331212 
L 369.559809 111.990924 
L 374.899522 110.011788 
L 380.239234 136.95481 
L 385.578947 155.254648 
L 390.91866 183.803924 
L 396.258373 188.001223 
L 401.598086 189.320646 
L 406.937799 178.774815 
L 412.277512 159.480629 
L 417.617225 179.27199 
L 422.956938 195.793472 
L 428.296651 193.431895 
L 433.636364 191.25883 
L 438.976077 187.254289 
L 444.315789 183.048752 
L 449.655502 204.685244 
L 454.995215 214.925122 
L 460.334928 209.22674 
L 465.674641 215.594395 
L 471.014354 213.643942 
L 476.354067 192.590524 
L 481.69378 133.29293 
L 487.033493 96.052664 
L 492.373206 93.318206 
L 497.712919 110.68106 
L 503.052632 126.227318 
L 508.392344 116.647153 
L 513.732057 111.828386 
L 519.07177 122.842708 
L 524.411483 150.560175 
L 529.751196 136.295098 
L 535.090909 161.211178 
L 540.430622 174.558396 
L 545.770335 188.957327 
L 551.110048 193.575311 
L 556.449761 198.613981 
L 561.789474 198.403639 
L 567.129187 211.645684 
L 572.4689 217.802997 
L 577.808612 249.851615 
L 583.148325 218.051584 
L 588.488038 209.523132 
L 593.827751 207.218921 
L 599.167464 169.615335 
L 604.507177 133.350296 
L 609.84689 107.000059 
L 615.186603 68.899299 
L 620.526316 82.571593 
L 625.866029 94.522898 
L 631.205742 112.669759 
L 636.545455 109.01744 
L 641.885167 143.341587 
L 647.22488 141.343329 
L 652.564593 144.785305 
L 657.904306 163.180752 
L 663.244019 151.927404 
L 668.583732 161.201617 
L 673.923445 171.795254 
L 679.263158 171.231152 
L 684.602871 172.263745 
L 689.942584 182.408012 
L 695.282297 178.411496 
L 700.62201 196.195036 
L 705.961722 217.726508 
L 711.301435 231.456167 
L 716.641148 217.133723 
L 721.980861 220.547016 
L 727.320574 168.248106 
L 732.660287 128.158649 
L 738 119.792735 
L 743.339713 107.430306 
L 748.679426 86.778452 
L 754.019139 92.553323 
L 759.358852 100.577836 
L 764.698565 108.395972 
L 770.038278 117.937894 
L 775.37799 166.928682 
L 780.717703 180.036874 
L 786.057416 165.198133 
L 791.397129 141.524988 
L 796.736842 149.59451 
L 802.076555 195.143323 
L 807.416268 245.195387 
L 812.755981 250.157569 
L 818.095694 255.397021 
L 823.435407 245.271876 
L 828.77512 224.562654 
L 834.114833 228.444439 
L 839.454545 248.082822 
L 844.794258 245.400795 
L 850.133971 229.021085 
L 855.473684 213.663064 
L 860.813397 172.034279 
L 866.15311 117.249498 
L 871.492823 94.197822 
L 876.832536 110.451596 
L 882.172249 104.064819 
L 887.511962 103.720621 
L 892.851675 124.037839 
L 898.191388 154.958256 
L 903.5311 173.124238 
L 908.870813 156.335045 
L 914.210526 170.370658 
L 919.550239 173.114678 
L 924.889952 160.102097 
L 930.229665 164.385445 
L 935.569378 154.394154 
L 940.909091 174.434101 
L 946.248804 186.270674 
L 951.588517 181.93952 
L 956.92823 195.516202 
L 962.267943 213.940335 
L 967.607656 235.60566 
L 972.947368 233.272765 
L 978.287081 215.737811 
L 983.626794 176.298505 
L 988.966507 137.78662 
L 994.30622 115.662365 
L 999.645933 143.848322 
L 1004.985646 128.35943 
L 1010.325359 126.217758 
L 1015.665072 139.517169 
L 1021.004785 146.381998 
L 1026.344498 171.986475 
L 1031.684211 187.265022 
L 1037.023923 177.665735 
L 1042.363636 198.451443 
L 1047.703349 203.786506 
L 1053.043062 178.277641 
L 1058.382775 198.814764 
L 1063.722488 199.254572 
L 1069.062201 214.858195 
L 1074.401914 242.001999 
L 1079.741627 241.065016 
L 1085.08134 248.044578 
L 1090.421053 244.631285 
L 1095.760766 216.206302 
L 1101.100478 242.671271 
L 1106.440191 259.890711 
L 1111.779904 230.595673 
L 1117.119617 215.393614 
L 1122.45933 184.511442 
L 1127.799043 138.51326 
L 1133.138756 121.771871 
L 1138.478469 116.07349 
L 1143.818182 121.781432 
L 1149.157895 120.97948 
L 1154.497608 138.538612 
L 1159.837321 140.44459 
L 1165.177033 151.650135 
L 1170.516746 179.635309 
L 1175.856459 193.154625 
L 1181.196172 159.576239 
L 1186.535885 144.345497 
L 1191.875598 155.971726 
L 1197.215311 174.625322 
L 1202.555024 184.004707 
L 1207.894737 204.876465 
L 1213.23445 216.474012 
L 1218.574163 237.039817 
L 1223.913876 244.334893 
L 1229.253589 242.66171 
L 1234.593301 205.603104 
L 1239.933014 153.457171 
L 1245.272727 119.037414 
L 1245.272727 119.037414 
" clip-path="url(#p76b3043702)" style="fill: none; stroke: #ffa500; stroke-width: 1.5; stroke-linecap: square"/>
   </g>
   <g id="patch_3">
    <path d="M 180 320.4 
L 180 43.2 
" style="fill: none; stroke: #000000; stroke-width: 0.8; stroke-linejoin: miter; stroke-linecap: square"/>
   </g>
   <g id="patch_4">
    <path d="M 1296 320.4 
L 1296 43.2 
" style="fill: none; stroke: #000000; stroke-width: 0.8; stroke-linejoin: miter; stroke-linecap: square"/>
   </g>
   <g id="patch_5">
    <path d="M 180 320.4 
L 1296 320.4 
" style="fill: none; stroke: #000000; stroke-width: 0.8; stroke-linejoin: miter; stroke-linecap: square"/>
   </g>
   <g id="patch_6">
    <path d="M 180 43.2 
L 1296 43.2 
" style="fill: none; stroke: #000000; stroke-width: 0.8; stroke-linejoin: miter; stroke-linecap: square"/>
   </g>
   <g id="text_19">
    <!-- Previsão do vento para 1 hora(s) à frente com 7 camadas -->
    <g transform="translate(564.882187 37.2) scale(0.12 -0.12)">
     <defs>
      <path id="DejaVuSans-50" d="M 1259 4147 
L 1259 2394 
L 2053 2394 
Q 2494 2394 2734 2622 
Q 2975 2850 2975 3272 
Q 2975 3691 2734 3919 
Q 2494 4147 2053 4147 
L 1259 4147 
z
M 628 4666 
L 2053 4666 
Q 2838 4666 3239 4311 
Q 3641 3956 3641 3272 
Q 3641 2581 3239 2228 
Q 2838 1875 2053 1875 
L 1259 1875 
L 1259 0 
L 628 0 
L 628 4666 
z
" transform="scale(0.015625)"/>
      <path id="DejaVuSans-76" d="M 191 3500 
L 800 3500 
L 1894 563 
L 2988 3500 
L 3597 3500 
L 2284 0 
L 1503 0 
L 191 3500 
z
" transform="scale(0.015625)"/>
      <path id="DejaVuSans-e3" d="M 2194 1759 
Q 1497 1759 1228 1600 
Q 959 1441 959 1056 
Q 959 750 1161 570 
Q 1363 391 1709 391 
Q 2188 391 2477 730 
Q 2766 1069 2766 1631 
L 2766 1759 
L 2194 1759 
z
M 3341 1997 
L 3341 0 
L 2766 0 
L 2766 531 
Q 2569 213 2275 61 
Q 1981 -91 1556 -91 
Q 1019 -91 701 211 
Q 384 513 384 1019 
Q 384 1609 779 1909 
Q 1175 2209 1959 2209 
L 2766 2209 
L 2766 2266 
Q 2766 2663 2505 2880 
Q 2244 3097 1772 3097 
Q 1472 3097 1187 3025 
Q 903 2953 641 2809 
L 641 3341 
Q 956 3463 1253 3523 
Q 1550 3584 1831 3584 
Q 2591 3584 2966 3190 
Q 3341 2797 3341 1997 
z
M 1844 4281 
L 1666 4453 
Q 1597 4516 1545 4545 
Q 1494 4575 1453 4575 
Q 1334 4575 1278 4461 
Q 1222 4347 1216 4091 
L 825 4091 
Q 831 4513 990 4742 
Q 1150 4972 1434 4972 
Q 1553 4972 1653 4928 
Q 1753 4884 1869 4781 
L 2047 4609 
Q 2116 4547 2167 4517 
Q 2219 4488 2259 4488 
Q 2378 4488 2434 4602 
Q 2491 4716 2497 4972 
L 2888 4972 
Q 2881 4550 2722 4320 
Q 2563 4091 2278 4091 
Q 2159 4091 2059 4134 
Q 1959 4178 1844 4281 
z
" transform="scale(0.015625)"/>
      <path id="DejaVuSans-70" d="M 1159 525 
L 1159 -1331 
L 581 -1331 
L 581 3500 
L 1159 3500 
L 1159 2969 
Q 1341 3281 1617 3432 
Q 1894 3584 2278 3584 
Q 2916 3584 3314 3078 
Q 3713 2572 3713 1747 
Q 3713 922 3314 415 
Q 2916 -91 2278 -91 
Q 1894 -91 1617 61 
Q 1341 213 1159 525 
z
M 3116 1747 
Q 3116 2381 2855 2742 
Q 2594 3103 2138 3103 
Q 1681 3103 1420 2742 
Q 1159 2381 1159 1747 
Q 1159 1113 1420 752 
Q 1681 391 2138 391 
Q 2594 391 2855 752 
Q 3116 1113 3116 1747 
z
" transform="scale(0.015625)"/>
      <path id="DejaVuSans-68" d="M 3513 2113 
L 3513 0 
L 2938 0 
L 2938 2094 
Q 2938 2591 2744 2837 
Q 2550 3084 2163 3084 
Q 1697 3084 1428 2787 
Q 1159 2491 1159 1978 
L 1159 0 
L 581 0 
L 581 4863 
L 1159 4863 
L 1159 2956 
Q 1366 3272 1645 3428 
Q 1925 3584 2291 3584 
Q 2894 3584 3203 3211 
Q 3513 2838 3513 2113 
z
" transform="scale(0.015625)"/>
      <path id="DejaVuSans-e0" d="M 2194 1759 
Q 1497 1759 1228 1600 
Q 959 1441 959 1056 
Q 959 750 1161 570 
Q 1363 391 1709 391 
Q 2188 391 2477 730 
Q 2766 1069 2766 1631 
L 2766 1759 
L 2194 1759 
z
M 3341 1997 
L 3341 0 
L 2766 0 
L 2766 531 
Q 2569 213 2275 61 
Q 1981 -91 1556 -91 
Q 1019 -91 701 211 
Q 384 513 384 1019 
Q 384 1609 779 1909 
Q 1175 2209 1959 2209 
L 2766 2209 
L 2766 2266 
Q 2766 2663 2505 2880 
Q 2244 3097 1772 3097 
Q 1472 3097 1187 3025 
Q 903 2953 641 2809 
L 641 3341 
Q 956 3463 1253 3523 
Q 1550 3584 1831 3584 
Q 2591 3584 2966 3190 
Q 3341 2797 3341 1997 
z
M 1403 5119 
L 2284 3950 
L 1806 3950 
L 788 5119 
L 1403 5119 
z
" transform="scale(0.015625)"/>
      <path id="DejaVuSans-66" d="M 2375 4863 
L 2375 4384 
L 1825 4384 
Q 1516 4384 1395 4259 
Q 1275 4134 1275 3809 
L 1275 3500 
L 2222 3500 
L 2222 3053 
L 1275 3053 
L 1275 0 
L 697 0 
L 697 3053 
L 147 3053 
L 147 3500 
L 697 3500 
L 697 3744 
Q 697 4328 969 4595 
Q 1241 4863 1831 4863 
L 2375 4863 
z
" transform="scale(0.015625)"/>
     </defs>
     <use xlink:href="#DejaVuSans-50"/>
     <use xlink:href="#DejaVuSans-72" x="58.552734"/>
     <use xlink:href="#DejaVuSans-65" x="97.416016"/>
     <use xlink:href="#DejaVuSans-76" x="158.939453"/>
     <use xlink:href="#DejaVuSans-69" x="218.119141"/>
     <use xlink:href="#DejaVuSans-73" x="245.902344"/>
     <use xlink:href="#DejaVuSans-e3" x="298.001953"/>
     <use xlink:href="#DejaVuSans-6f" x="359.28125"/>
     <use xlink:href="#DejaVuSans-20" x="420.462891"/>
     <use xlink:href="#DejaVuSans-64" x="452.25"/>
     <use xlink:href="#DejaVuSans-6f" x="515.726562"/>
     <use xlink:href="#DejaVuSans-20" x="576.908203"/>
     <use xlink:href="#DejaVuSans-76" x="608.695312"/>
     <use xlink:href="#DejaVuSans-65" x="667.875"/>
     <use xlink:href="#DejaVuSans-6e" x="729.398438"/>
     <use xlink:href="#DejaVuSans-74" x="792.777344"/>
     <use xlink:href="#DejaVuSans-6f" x="831.986328"/>
     <use xlink:href="#DejaVuSans-20" x="893.167969"/>
     <use xlink:href="#DejaVuSans-70" x="924.955078"/>
     <use xlink:href="#DejaVuSans-61" x="988.431641"/>
     <use xlink:href="#DejaVuSans-72" x="1049.710938"/>
     <use xlink:href="#DejaVuSans-61" x="1090.824219"/>
     <use xlink:href="#DejaVuSans-20" x="1152.103516"/>
     <use xlink:href="#DejaVuSans-31" x="1183.890625"/>
     <use xlink:href="#DejaVuSans-20" x="1247.513672"/>
     <use xlink:href="#DejaVuSans-68" x="1279.300781"/>
     <use xlink:href="#DejaVuSans-6f" x="1342.679688"/>
     <use xlink:href="#DejaVuSans-72" x="1403.861328"/>
     <use xlink:href="#DejaVuSans-61" x="1444.974609"/>
     <use xlink:href="#DejaVuSans-28" x="1506.253906"/>
     <use xlink:href="#DejaVuSans-73" x="1545.267578"/>
     <use xlink:href="#DejaVuSans-29" x="1597.367188"/>
     <use xlink:href="#DejaVuSans-20" x="1636.380859"/>
     <use xlink:href="#DejaVuSans-e0" x="1668.167969"/>
     <use xlink:href="#DejaVuSans-20" x="1729.447266"/>
     <use xlink:href="#DejaVuSans-66" x="1761.234375"/>
     <use xlink:href="#DejaVuSans-72" x="1796.439453"/>
     <use xlink:href="#DejaVuSans-65" x="1835.302734"/>
     <use xlink:href="#DejaVuSans-6e" x="1896.826172"/>
     <use xlink:href="#DejaVuSans-74" x="1960.205078"/>
     <use xlink:href="#DejaVuSans-65" x="1999.414062"/>
     <use xlink:href="#DejaVuSans-20" x="2060.9375"/>
     <use xlink:href="#DejaVuSans-63" x="2092.724609"/>
     <use xlink:href="#DejaVuSans-6f" x="2147.705078"/>
     <use xlink:href="#DejaVuSans-6d" x="2208.886719"/>
     <use xlink:href="#DejaVuSans-20" x="2306.298828"/>
     <use xlink:href="#DejaVuSans-37" x="2338.085938"/>
     <use xlink:href="#DejaVuSans-20" x="2401.708984"/>
     <use xlink:href="#DejaVuSans-63" x="2433.496094"/>
     <use xlink:href="#DejaVuSans-61" x="2488.476562"/>
     <use xlink:href="#DejaVuSans-6d" x="2549.755859"/>
     <use xlink:href="#DejaVuSans-61" x="2647.167969"/>
     <use xlink:href="#DejaVuSans-64" x="2708.447266"/>
     <use xlink:href="#DejaVuSans-61" x="2771.923828"/>
     <use xlink:href="#DejaVuSans-73" x="2833.203125"/>
    </g>
   </g>
   <g id="legend_1">
    <g id="patch_7">
     <path d="M 1217.86875 80.55625 
L 1289 80.55625 
Q 1291 80.55625 1291 78.55625 
L 1291 50.2 
Q 1291 48.2 1289 48.2 
L 1217.86875 48.2 
Q 1215.86875 48.2 1215.86875 50.2 
L 1215.86875 78.55625 
Q 1215.86875 80.55625 1217.86875 80.55625 
z
" style="fill: #ffffff; opacity: 0.8; stroke: #cccccc; stroke-linejoin: miter"/>
    </g>
    <g id="line2d_19">
     <path d="M 1219.86875 56.298437 
L 1229.86875 56.298437 
L 1239.86875 56.298437 
" style="fill: none; stroke: #0000ff; stroke-width: 1.5; stroke-linecap: square"/>
    </g>
    <g id="text_20">
     <!-- Predito -->
     <g transform="translate(1247.86875 59.798437) scale(0.1 -0.1)">
      <use xlink:href="#DejaVuSans-50"/>
      <use xlink:href="#DejaVuSans-72" x="58.552734"/>
      <use xlink:href="#DejaVuSans-65" x="97.416016"/>
      <use xlink:href="#DejaVuSans-64" x="158.939453"/>
      <use xlink:href="#DejaVuSans-69" x="222.416016"/>
      <use xlink:href="#DejaVuSans-74" x="250.199219"/>
      <use xlink:href="#DejaVuSans-6f" x="289.408203"/>
     </g>
    </g>
    <g id="line2d_20">
     <path d="M 1219.86875 70.976562 
L 1229.86875 70.976562 
L 1239.86875 70.976562 
" style="fill: none; stroke: #ffa500; stroke-width: 1.5; stroke-linecap: square"/>
    </g>
    <g id="text_21">
     <!-- Original -->
     <g transform="translate(1247.86875 74.476562) scale(0.1 -0.1)">
      <defs>
       <path id="DejaVuSans-4f" d="M 2522 4238 
Q 1834 4238 1429 3725 
Q 1025 3213 1025 2328 
Q 1025 1447 1429 934 
Q 1834 422 2522 422 
Q 3209 422 3611 934 
Q 4013 1447 4013 2328 
Q 4013 3213 3611 3725 
Q 3209 4238 2522 4238 
z
M 2522 4750 
Q 3503 4750 4090 4092 
Q 4678 3434 4678 2328 
Q 4678 1225 4090 567 
Q 3503 -91 2522 -91 
Q 1538 -91 948 565 
Q 359 1222 359 2328 
Q 359 3434 948 4092 
Q 1538 4750 2522 4750 
z
" transform="scale(0.015625)"/>
       <path id="DejaVuSans-67" d="M 2906 1791 
Q 2906 2416 2648 2759 
Q 2391 3103 1925 3103 
Q 1463 3103 1205 2759 
Q 947 2416 947 1791 
Q 947 1169 1205 825 
Q 1463 481 1925 481 
Q 2391 481 2648 825 
Q 2906 1169 2906 1791 
z
M 3481 434 
Q 3481 -459 3084 -895 
Q 2688 -1331 1869 -1331 
Q 1566 -1331 1297 -1286 
Q 1028 -1241 775 -1147 
L 775 -588 
Q 1028 -725 1275 -790 
Q 1522 -856 1778 -856 
Q 2344 -856 2625 -561 
Q 2906 -266 2906 331 
L 2906 616 
Q 2728 306 2450 153 
Q 2172 0 1784 0 
Q 1141 0 747 490 
Q 353 981 353 1791 
Q 353 2603 747 3093 
Q 1141 3584 1784 3584 
Q 2172 3584 2450 3431 
Q 2728 3278 2906 2969 
L 2906 3500 
L 3481 3500 
L 3481 434 
z
" transform="scale(0.015625)"/>
      </defs>
      <use xlink:href="#DejaVuSans-4f"/>
      <use xlink:href="#DejaVuSans-72" x="78.710938"/>
      <use xlink:href="#DejaVuSans-69" x="119.824219"/>
      <use xlink:href="#DejaVuSans-67" x="147.607422"/>
      <use xlink:href="#DejaVuSans-69" x="211.083984"/>
      <use xlink:href="#DejaVuSans-6e" x="238.867188"/>
      <use xlink:href="#DejaVuSans-61" x="302.246094"/>
      <use xlink:href="#DejaVuSans-6c" x="363.525391"/>
     </g>
    </g>
   </g>
  </g>
 </g>
 <defs>
  <clipPath id="p76b3043702">
   <rect x="180" y="43.2" width="1116" height="277.2"/>
  </clipPath>
 </defs>
</svg>
