<?xml version="1.0" encoding="utf-8" standalone="no"?>
<!DOCTYPE svg PUBLIC "-//W3C//DTD SVG 1.1//EN"
  "http://www.w3.org/Graphics/SVG/1.1/DTD/svg11.dtd">
<svg xmlns:xlink="http://www.w3.org/1999/xlink" width="1440pt" height="360pt" viewBox="0 0 1440 360" xmlns="http://www.w3.org/2000/svg" version="1.1">
 <metadata>
  <rdf:RDF xmlns:dc="http://purl.org/dc/elements/1.1/" xmlns:cc="http://creativecommons.org/ns#" xmlns:rdf="http://www.w3.org/1999/02/22-rdf-syntax-ns#">
   <cc:Work>
    <dc:type rdf:resource="http://purl.org/dc/dcmitype/StillImage"/>
    <dc:date>2023-08-21T14:42:42.408937</dc:date>
    <dc:format>image/svg+xml</dc:format>
    <dc:creator>
     <cc:Agent>
      <dc:title>Matplotlib v3.7.1, https://matplotlib.org/</dc:title>
     </cc:Agent>
    </dc:creator>
   </cc:Work>
  </rdf:RDF>
 </metadata>
 <defs>
  <style type="text/css">*{stroke-linejoin: round; stroke-linecap: butt}</style>
 </defs>
 <g id="figure_1">
  <g id="patch_1">
   <path d="M 0 360 
L 1440 360 
L 1440 0 
L 0 0 
z
" style="fill: #ffffff"/>
  </g>
  <g id="axes_1">
   <g id="patch_2">
    <path d="M 180 320.4 
L 1296 320.4 
L 1296 43.2 
L 180 43.2 
z
" style="fill: #ffffff"/>
   </g>
   <g id="PolyCollection_1">
    <defs>
     <path id="mcbba903eff" d="M 230.727273 -293.180601 
L 230.727273 -218.886688 
L 236.066986 -174.595909 
L 241.406699 -167.080015 
L 246.746411 -182.587483 
L 252.086124 -166.075706 
L 257.425837 -166.390454 
L 262.76555 -167.997505 
L 268.105263 -169.240131 
L 273.444976 -169.921591 
L 278.784689 -162.728303 
L 284.124402 -149.460138 
L 289.464115 -145.369925 
L 294.803828 -110.962511 
L 300.143541 -119.312606 
L 305.483254 -111.592832 
L 310.822967 -96.28115 
L 316.162679 -92.257186 
L 321.502392 -87.091782 
L 326.842105 -81.937817 
L 332.181818 -83.313932 
L 337.521531 -95.123381 
L 342.861244 -109.496285 
L 348.200957 -151.767908 
L 353.54067 -188.19042 
L 358.880383 -206.272789 
L 364.220096 -221.342324 
L 369.559809 -214.480333 
L 374.899522 -209.933502 
L 380.239234 -207.609925 
L 385.578947 -190.352187 
L 390.91866 -178.031371 
L 396.258373 -158.780808 
L 401.598086 -155.778254 
L 406.937799 -153.95063 
L 412.277512 -156.603794 
L 417.617225 -159.879459 
L 422.956938 -147.367308 
L 428.296651 -133.781479 
L 433.636364 -138.61844 
L 438.976077 -141.453453 
L 444.315789 -145.917555 
L 449.655502 -150.588284 
L 454.995215 -135.924146 
L 460.334928 -128.529417 
L 465.674641 -141.841657 
L 471.014354 -146.365043 
L 476.354067 -144.872926 
L 481.69378 -160.392598 
L 487.033493 -205.727446 
L 492.373206 -223.172264 
L 497.712919 -219.837383 
L 503.052632 -207.669262 
L 508.392344 -195.681332 
L 513.732057 -195.228438 
L 519.07177 -194.063606 
L 524.411483 -183.696052 
L 529.751196 -170.464452 
L 535.090909 -173.624849 
L 540.430622 -162.292428 
L 545.770335 -158.62513 
L 551.110048 -138.535627 
L 556.449761 -135.602304 
L 561.789474 -132.718969 
L 567.129187 -133.255425 
L 572.4689 -119.58477 
L 577.808612 -114.884607 
L 583.148325 -93.103711 
L 588.488038 -126.552209 
L 593.827751 -141.535077 
L 599.167464 -146.709937 
L 604.507177 -177.025321 
L 609.84689 -201.7396 
L 615.186603 -219.199498 
L 620.526316 -229.906087 
L 625.866029 -216.201471 
L 631.205742 -198.732291 
L 636.545455 -190.94041 
L 641.885167 -198.1813 
L 647.22488 -181.727391 
L 652.564593 -181.994643 
L 657.904306 -177.855419 
L 663.244019 -168.704902 
L 668.583732 -168.917903 
L 673.923445 -164.158085 
L 679.263158 -150.767022 
L 684.602871 -151.564794 
L 689.942584 -152.306408 
L 695.282297 -144.204888 
L 700.62201 -150.811369 
L 705.961722 -136.867937 
L 711.301435 -118.662608 
L 716.641148 -112.350246 
L 721.980861 -132.897109 
L 727.320574 -138.923294 
L 732.660287 -177.964508 
L 738 -204.907386 
L 743.339713 -209.504289 
L 748.679426 -213.85765 
L 754.019139 -219.899854 
L 759.358852 -206.719657 
L 764.698565 -202.973626 
L 770.038278 -197.104134 
L 775.37799 -189.729519 
L 780.717703 -167.649114 
L 786.057416 -159.612162 
L 791.397129 -166.574567 
L 796.736842 -171.81591 
L 802.076555 -167.713175 
L 807.416268 -130.212036 
L 812.755981 -149.279916 
L 818.095694 -150.385033 
L 823.435407 -52.2 
L 828.77512 -73.185123 
L 834.114833 -107.966633 
L 839.454545 -104.504266 
L 844.794258 -100.568535 
L 850.133971 -114.619135 
L 855.473684 -127.966003 
L 860.813397 -139.213521 
L 866.15311 -172.47425 
L 871.492823 -213.253757 
L 876.832536 -221.993653 
L 882.172249 -210.282302 
L 887.511962 -206.450089 
L 892.851675 -203.011599 
L 898.191388 -189.908454 
L 903.5311 -174.649689 
L 908.870813 -165.098167 
L 914.210526 -171.665228 
L 919.550239 -162.540057 
L 924.889952 -160.915382 
L 930.229665 -163.914287 
L 935.569378 -154.43694 
L 940.909091 -163.647172 
L 946.248804 -151.667721 
L 951.588517 -145.353951 
L 956.92823 -151.560206 
L 962.267943 -144.083406 
L 967.607656 -131.400586 
L 972.947368 -120.703574 
L 978.287081 -123.863374 
L 983.626794 -136.39433 
L 988.966507 -165.344069 
L 994.30622 -188.670461 
L 999.645933 -197.734615 
L 1004.985646 -184.458334 
L 1010.325359 -192.139036 
L 1015.665072 -188.483714 
L 1021.004785 -180.373223 
L 1026.344498 -174.66913 
L 1031.684211 -162.916171 
L 1037.023923 -155.543419 
L 1042.363636 -158.084888 
L 1047.703349 -150.846224 
L 1053.043062 -150.27776 
L 1058.382775 -154.599159 
L 1063.722488 -135.083351 
L 1069.062201 -132.120564 
L 1074.401914 -123.978081 
L 1079.741627 -108.319416 
L 1085.08134 -115.696846 
L 1090.421053 -113.325394 
L 1095.760766 -107.294644 
L 1101.100478 -128.86911 
L 1106.440191 -113.421841 
L 1111.779904 -105.296936 
L 1117.119617 -126.403958 
L 1122.45933 -137.928554 
L 1127.799043 -159.398631 
L 1133.138756 -184.249844 
L 1138.478469 -189.671666 
L 1143.818182 -189.514004 
L 1149.157895 -186.136441 
L 1154.497608 -189.495457 
L 1159.837321 -179.471797 
L 1165.177033 -168.054147 
L 1170.516746 -164.23329 
L 1175.856459 -155.854806 
L 1181.196172 -152.381689 
L 1186.535885 -162.563419 
L 1191.875598 -169.14326 
L 1197.215311 -164.970559 
L 1202.555024 -151.749164 
L 1207.894737 -147.006168 
L 1213.23445 -132.420952 
L 1218.574163 -125.466307 
L 1223.913876 -112.986677 
L 1229.253589 -113.571122 
L 1234.593301 -117.592906 
L 1239.933014 -143.349816 
L 1245.272727 -180.622608 
L 1245.272727 -254.916521 
L 1245.272727 -254.916521 
L 1239.933014 -217.643729 
L 1234.593301 -191.88682 
L 1229.253589 -187.865028 
L 1223.913876 -187.280591 
L 1218.574163 -199.76022 
L 1213.23445 -206.714857 
L 1207.894737 -221.300081 
L 1202.555024 -226.043077 
L 1197.215311 -239.264473 
L 1191.875598 -243.437173 
L 1186.535885 -236.857333 
L 1181.196172 -226.675602 
L 1175.856459 -230.148719 
L 1170.516746 -238.527203 
L 1165.177033 -242.348061 
L 1159.837321 -253.76571 
L 1154.497608 -263.78937 
L 1149.157895 -260.430354 
L 1143.818182 -263.807917 
L 1138.478469 -263.965579 
L 1133.138756 -258.543757 
L 1127.799043 -233.692544 
L 1122.45933 -212.222467 
L 1117.119617 -200.697878 
L 1111.779904 -179.590849 
L 1106.440191 -187.715754 
L 1101.100478 -203.163023 
L 1095.760766 -181.588557 
L 1090.421053 -187.619307 
L 1085.08134 -189.99076 
L 1079.741627 -182.613329 
L 1074.401914 -198.271994 
L 1069.062201 -206.414478 
L 1063.722488 -209.377257 
L 1058.382775 -228.893072 
L 1053.043062 -224.571673 
L 1047.703349 -225.140137 
L 1042.363636 -232.378802 
L 1037.023923 -229.837332 
L 1031.684211 -237.210085 
L 1026.344498 -248.963043 
L 1021.004785 -254.667136 
L 1015.665072 -262.777627 
L 1010.325359 -266.432949 
L 1004.985646 -258.752247 
L 999.645933 -272.028528 
L 994.30622 -262.964374 
L 988.966507 -239.637982 
L 983.626794 -210.688244 
L 978.287081 -198.157287 
L 972.947368 -194.997495 
L 967.607656 -205.694499 
L 962.267943 -218.377319 
L 956.92823 -225.854119 
L 951.588517 -219.647864 
L 946.248804 -225.961635 
L 940.909091 -237.941085 
L 935.569378 -228.730853 
L 930.229665 -238.2082 
L 924.889952 -235.209295 
L 919.550239 -236.83397 
L 914.210526 -245.959141 
L 908.870813 -239.39208 
L 903.5311 -248.943602 
L 898.191388 -264.202367 
L 892.851675 -277.305512 
L 887.511962 -280.744002 
L 882.172249 -284.576215 
L 876.832536 -296.287567 
L 871.492823 -287.54767 
L 866.15311 -246.768163 
L 860.813397 -213.507442 
L 855.473684 -202.259916 
L 850.133971 -188.913048 
L 844.794258 -174.862448 
L 839.454545 -178.79818 
L 834.114833 -182.260547 
L 828.77512 -147.479032 
L 823.435407 -126.493917 
L 818.095694 -224.678946 
L 812.755981 -223.57383 
L 807.416268 -204.505957 
L 802.076555 -242.007088 
L 796.736842 -246.109823 
L 791.397129 -240.86848 
L 786.057416 -233.906076 
L 780.717703 -241.943027 
L 775.37799 -264.023432 
L 770.038278 -271.398047 
L 764.698565 -277.267539 
L 759.358852 -281.01357 
L 754.019139 -294.193767 
L 748.679426 -288.151563 
L 743.339713 -283.798202 
L 738 -279.2013 
L 732.660287 -252.258422 
L 727.320574 -213.217207 
L 721.980861 -207.191022 
L 716.641148 -186.64416 
L 711.301435 -192.956522 
L 705.961722 -211.16185 
L 700.62201 -225.105283 
L 695.282297 -218.498809 
L 689.942584 -226.600322 
L 684.602871 -225.858707 
L 679.263158 -225.060935 
L 673.923445 -238.451999 
L 668.583732 -243.211817 
L 663.244019 -242.998815 
L 657.904306 -252.149332 
L 652.564593 -256.288556 
L 647.22488 -256.021305 
L 641.885167 -272.475214 
L 636.545455 -265.234323 
L 631.205742 -273.026205 
L 625.866029 -290.495384 
L 620.526316 -304.2 
L 615.186603 -293.493411 
L 609.84689 -276.033513 
L 604.507177 -251.319234 
L 599.167464 -221.00385 
L 593.827751 -215.828991 
L 588.488038 -200.846123 
L 583.148325 -167.397625 
L 577.808612 -189.178528 
L 572.4689 -193.878676 
L 567.129187 -207.549331 
L 561.789474 -207.01289 
L 556.449761 -209.896225 
L 551.110048 -212.82954 
L 545.770335 -232.919043 
L 540.430622 -236.586342 
L 535.090909 -247.918763 
L 529.751196 -244.758365 
L 524.411483 -257.989965 
L 519.07177 -268.35752 
L 513.732057 -269.522352 
L 508.392344 -269.975245 
L 503.052632 -281.963175 
L 497.712919 -294.131296 
L 492.373206 -297.466177 
L 487.033493 -280.021359 
L 481.69378 -234.686511 
L 476.354067 -219.166839 
L 471.014354 -220.658956 
L 465.674641 -216.135563 
L 460.334928 -202.823322 
L 454.995215 -210.218059 
L 449.655502 -224.882197 
L 444.315789 -220.211468 
L 438.976077 -215.747366 
L 433.636364 -212.912346 
L 428.296651 -208.075385 
L 422.956938 -221.661221 
L 417.617225 -234.173372 
L 412.277512 -230.897707 
L 406.937799 -228.244544 
L 401.598086 -230.072167 
L 396.258373 -233.074721 
L 390.91866 -252.325284 
L 385.578947 -264.6461 
L 380.239234 -281.903838 
L 374.899522 -284.227415 
L 369.559809 -288.774247 
L 364.220096 -295.636237 
L 358.880383 -280.566703 
L 353.54067 -262.484333 
L 348.200957 -226.061822 
L 342.861244 -183.790198 
L 337.521531 -169.417295 
L 332.181818 -157.607845 
L 326.842105 -156.23173 
L 321.502392 -161.385695 
L 316.162679 -166.551099 
L 310.822967 -170.575063 
L 305.483254 -185.886753 
L 300.143541 -193.606519 
L 294.803828 -185.256424 
L 289.464115 -219.663838 
L 284.124402 -223.754051 
L 278.784689 -237.022217 
L 273.444976 -244.215504 
L 268.105263 -243.534044 
L 262.76555 -242.291419 
L 257.425837 -240.684368 
L 252.086124 -240.369619 
L 246.746411 -256.881397 
L 241.406699 -241.373928 
L 236.066986 -248.889822 
L 230.727273 -293.180601 
z
" style="stroke: #0000ff; stroke-opacity: 0.05"/>
    </defs>
    <g clip-path="url(#p77df60b412)">
     <use xlink:href="#mcbba903eff" x="0" y="360" style="fill: #0000ff; fill-opacity: 0.05; stroke: #0000ff; stroke-opacity: 0.05"/>
    </g>
   </g>
   <g id="matplotlib.axis_1">
    <g id="xtick_1">
     <g id="line2d_1">
      <defs>
       <path id="m719c19fb06" d="M 0 0 
L 0 3.5 
" style="stroke: #000000; stroke-width: 0.8"/>
      </defs>
      <g>
       <use xlink:href="#m719c19fb06" x="230.727273" y="320.4" style="stroke: #000000; stroke-width: 0.8"/>
      </g>
     </g>
     <g id="text_1">
      <!-- 0 -->
      <g transform="translate(227.546023 334.998438) scale(0.1 -0.1)">
       <defs>
        <path id="DejaVuSans-30" d="M 2034 4250 
Q 1547 4250 1301 3770 
Q 1056 3291 1056 2328 
Q 1056 1369 1301 889 
Q 1547 409 2034 409 
Q 2525 409 2770 889 
Q 3016 1369 3016 2328 
Q 3016 3291 2770 3770 
Q 2525 4250 2034 4250 
z
M 2034 4750 
Q 2819 4750 3233 4129 
Q 3647 3509 3647 2328 
Q 3647 1150 3233 529 
Q 2819 -91 2034 -91 
Q 1250 -91 836 529 
Q 422 1150 422 2328 
Q 422 3509 836 4129 
Q 1250 4750 2034 4750 
z
" transform="scale(0.015625)"/>
       </defs>
       <use xlink:href="#DejaVuSans-30"/>
      </g>
     </g>
    </g>
    <g id="xtick_2">
     <g id="line2d_2">
      <g>
       <use xlink:href="#m719c19fb06" x="364.220096" y="320.4" style="stroke: #000000; stroke-width: 0.8"/>
      </g>
     </g>
     <g id="text_2">
      <!-- 25 -->
      <g transform="translate(357.857596 334.998438) scale(0.1 -0.1)">
       <defs>
        <path id="DejaVuSans-32" d="M 1228 531 
L 3431 531 
L 3431 0 
L 469 0 
L 469 531 
Q 828 903 1448 1529 
Q 2069 2156 2228 2338 
Q 2531 2678 2651 2914 
Q 2772 3150 2772 3378 
Q 2772 3750 2511 3984 
Q 2250 4219 1831 4219 
Q 1534 4219 1204 4116 
Q 875 4013 500 3803 
L 500 4441 
Q 881 4594 1212 4672 
Q 1544 4750 1819 4750 
Q 2544 4750 2975 4387 
Q 3406 4025 3406 3419 
Q 3406 3131 3298 2873 
Q 3191 2616 2906 2266 
Q 2828 2175 2409 1742 
Q 1991 1309 1228 531 
z
" transform="scale(0.015625)"/>
        <path id="DejaVuSans-35" d="M 691 4666 
L 3169 4666 
L 3169 4134 
L 1269 4134 
L 1269 2991 
Q 1406 3038 1543 3061 
Q 1681 3084 1819 3084 
Q 2600 3084 3056 2656 
Q 3513 2228 3513 1497 
Q 3513 744 3044 326 
Q 2575 -91 1722 -91 
Q 1428 -91 1123 -41 
Q 819 9 494 109 
L 494 744 
Q 775 591 1075 516 
Q 1375 441 1709 441 
Q 2250 441 2565 725 
Q 2881 1009 2881 1497 
Q 2881 1984 2565 2268 
Q 2250 2553 1709 2553 
Q 1456 2553 1204 2497 
Q 953 2441 691 2322 
L 691 4666 
z
" transform="scale(0.015625)"/>
       </defs>
       <use xlink:href="#DejaVuSans-32"/>
       <use xlink:href="#DejaVuSans-35" x="63.623047"/>
      </g>
     </g>
    </g>
    <g id="xtick_3">
     <g id="line2d_3">
      <g>
       <use xlink:href="#m719c19fb06" x="497.712919" y="320.4" style="stroke: #000000; stroke-width: 0.8"/>
      </g>
     </g>
     <g id="text_3">
      <!-- 50 -->
      <g transform="translate(491.350419 334.998438) scale(0.1 -0.1)">
       <use xlink:href="#DejaVuSans-35"/>
       <use xlink:href="#DejaVuSans-30" x="63.623047"/>
      </g>
     </g>
    </g>
    <g id="xtick_4">
     <g id="line2d_4">
      <g>
       <use xlink:href="#m719c19fb06" x="631.205742" y="320.4" style="stroke: #000000; stroke-width: 0.8"/>
      </g>
     </g>
     <g id="text_4">
      <!-- 75 -->
      <g transform="translate(624.843242 334.998438) scale(0.1 -0.1)">
       <defs>
        <path id="DejaVuSans-37" d="M 525 4666 
L 3525 4666 
L 3525 4397 
L 1831 0 
L 1172 0 
L 2766 4134 
L 525 4134 
L 525 4666 
z
" transform="scale(0.015625)"/>
       </defs>
       <use xlink:href="#DejaVuSans-37"/>
       <use xlink:href="#DejaVuSans-35" x="63.623047"/>
      </g>
     </g>
    </g>
    <g id="xtick_5">
     <g id="line2d_5">
      <g>
       <use xlink:href="#m719c19fb06" x="764.698565" y="320.4" style="stroke: #000000; stroke-width: 0.8"/>
      </g>
     </g>
     <g id="text_5">
      <!-- 100 -->
      <g transform="translate(755.154815 334.998438) scale(0.1 -0.1)">
       <defs>
        <path id="DejaVuSans-31" d="M 794 531 
L 1825 531 
L 1825 4091 
L 703 3866 
L 703 4441 
L 1819 4666 
L 2450 4666 
L 2450 531 
L 3481 531 
L 3481 0 
L 794 0 
L 794 531 
z
" transform="scale(0.015625)"/>
       </defs>
       <use xlink:href="#DejaVuSans-31"/>
       <use xlink:href="#DejaVuSans-30" x="63.623047"/>
       <use xlink:href="#DejaVuSans-30" x="127.246094"/>
      </g>
     </g>
    </g>
    <g id="xtick_6">
     <g id="line2d_6">
      <g>
       <use xlink:href="#m719c19fb06" x="898.191388" y="320.4" style="stroke: #000000; stroke-width: 0.8"/>
      </g>
     </g>
     <g id="text_6">
      <!-- 125 -->
      <g transform="translate(888.647638 334.998438) scale(0.1 -0.1)">
       <use xlink:href="#DejaVuSans-31"/>
       <use xlink:href="#DejaVuSans-32" x="63.623047"/>
       <use xlink:href="#DejaVuSans-35" x="127.246094"/>
      </g>
     </g>
    </g>
    <g id="xtick_7">
     <g id="line2d_7">
      <g>
       <use xlink:href="#m719c19fb06" x="1031.684211" y="320.4" style="stroke: #000000; stroke-width: 0.8"/>
      </g>
     </g>
     <g id="text_7">
      <!-- 150 -->
      <g transform="translate(1022.140461 334.998438) scale(0.1 -0.1)">
       <use xlink:href="#DejaVuSans-31"/>
       <use xlink:href="#DejaVuSans-35" x="63.623047"/>
       <use xlink:href="#DejaVuSans-30" x="127.246094"/>
      </g>
     </g>
    </g>
    <g id="xtick_8">
     <g id="line2d_8">
      <g>
       <use xlink:href="#m719c19fb06" x="1165.177033" y="320.4" style="stroke: #000000; stroke-width: 0.8"/>
      </g>
     </g>
     <g id="text_8">
      <!-- 175 -->
      <g transform="translate(1155.633283 334.998438) scale(0.1 -0.1)">
       <use xlink:href="#DejaVuSans-31"/>
       <use xlink:href="#DejaVuSans-37" x="63.623047"/>
       <use xlink:href="#DejaVuSans-35" x="127.246094"/>
      </g>
     </g>
    </g>
    <g id="text_9">
     <!-- Amostras -->
     <g transform="translate(714.360937 348.676562) scale(0.1 -0.1)">
      <defs>
       <path id="DejaVuSans-41" d="M 2188 4044 
L 1331 1722 
L 3047 1722 
L 2188 4044 
z
M 1831 4666 
L 2547 4666 
L 4325 0 
L 3669 0 
L 3244 1197 
L 1141 1197 
L 716 0 
L 50 0 
L 1831 4666 
z
" transform="scale(0.015625)"/>
       <path id="DejaVuSans-6d" d="M 3328 2828 
Q 3544 3216 3844 3400 
Q 4144 3584 4550 3584 
Q 5097 3584 5394 3201 
Q 5691 2819 5691 2113 
L 5691 0 
L 5113 0 
L 5113 2094 
Q 5113 2597 4934 2840 
Q 4756 3084 4391 3084 
Q 3944 3084 3684 2787 
Q 3425 2491 3425 1978 
L 3425 0 
L 2847 0 
L 2847 2094 
Q 2847 2600 2669 2842 
Q 2491 3084 2119 3084 
Q 1678 3084 1418 2786 
Q 1159 2488 1159 1978 
L 1159 0 
L 581 0 
L 581 3500 
L 1159 3500 
L 1159 2956 
Q 1356 3278 1631 3431 
Q 1906 3584 2284 3584 
Q 2666 3584 2933 3390 
Q 3200 3197 3328 2828 
z
" transform="scale(0.015625)"/>
       <path id="DejaVuSans-6f" d="M 1959 3097 
Q 1497 3097 1228 2736 
Q 959 2375 959 1747 
Q 959 1119 1226 758 
Q 1494 397 1959 397 
Q 2419 397 2687 759 
Q 2956 1122 2956 1747 
Q 2956 2369 2687 2733 
Q 2419 3097 1959 3097 
z
M 1959 3584 
Q 2709 3584 3137 3096 
Q 3566 2609 3566 1747 
Q 3566 888 3137 398 
Q 2709 -91 1959 -91 
Q 1206 -91 779 398 
Q 353 888 353 1747 
Q 353 2609 779 3096 
Q 1206 3584 1959 3584 
z
" transform="scale(0.015625)"/>
       <path id="DejaVuSans-73" d="M 2834 3397 
L 2834 2853 
Q 2591 2978 2328 3040 
Q 2066 3103 1784 3103 
Q 1356 3103 1142 2972 
Q 928 2841 928 2578 
Q 928 2378 1081 2264 
Q 1234 2150 1697 2047 
L 1894 2003 
Q 2506 1872 2764 1633 
Q 3022 1394 3022 966 
Q 3022 478 2636 193 
Q 2250 -91 1575 -91 
Q 1294 -91 989 -36 
Q 684 19 347 128 
L 347 722 
Q 666 556 975 473 
Q 1284 391 1588 391 
Q 1994 391 2212 530 
Q 2431 669 2431 922 
Q 2431 1156 2273 1281 
Q 2116 1406 1581 1522 
L 1381 1569 
Q 847 1681 609 1914 
Q 372 2147 372 2553 
Q 372 3047 722 3315 
Q 1072 3584 1716 3584 
Q 2034 3584 2315 3537 
Q 2597 3491 2834 3397 
z
" transform="scale(0.015625)"/>
       <path id="DejaVuSans-74" d="M 1172 4494 
L 1172 3500 
L 2356 3500 
L 2356 3053 
L 1172 3053 
L 1172 1153 
Q 1172 725 1289 603 
Q 1406 481 1766 481 
L 2356 481 
L 2356 0 
L 1766 0 
Q 1100 0 847 248 
Q 594 497 594 1153 
L 594 3053 
L 172 3053 
L 172 3500 
L 594 3500 
L 594 4494 
L 1172 4494 
z
" transform="scale(0.015625)"/>
       <path id="DejaVuSans-72" d="M 2631 2963 
Q 2534 3019 2420 3045 
Q 2306 3072 2169 3072 
Q 1681 3072 1420 2755 
Q 1159 2438 1159 1844 
L 1159 0 
L 581 0 
L 581 3500 
L 1159 3500 
L 1159 2956 
Q 1341 3275 1631 3429 
Q 1922 3584 2338 3584 
Q 2397 3584 2469 3576 
Q 2541 3569 2628 3553 
L 2631 2963 
z
" transform="scale(0.015625)"/>
       <path id="DejaVuSans-61" d="M 2194 1759 
Q 1497 1759 1228 1600 
Q 959 1441 959 1056 
Q 959 750 1161 570 
Q 1363 391 1709 391 
Q 2188 391 2477 730 
Q 2766 1069 2766 1631 
L 2766 1759 
L 2194 1759 
z
M 3341 1997 
L 3341 0 
L 2766 0 
L 2766 531 
Q 2569 213 2275 61 
Q 1981 -91 1556 -91 
Q 1019 -91 701 211 
Q 384 513 384 1019 
Q 384 1609 779 1909 
Q 1175 2209 1959 2209 
L 2766 2209 
L 2766 2266 
Q 2766 2663 2505 2880 
Q 2244 3097 1772 3097 
Q 1472 3097 1187 3025 
Q 903 2953 641 2809 
L 641 3341 
Q 956 3463 1253 3523 
Q 1550 3584 1831 3584 
Q 2591 3584 2966 3190 
Q 3341 2797 3341 1997 
z
" transform="scale(0.015625)"/>
      </defs>
      <use xlink:href="#DejaVuSans-41"/>
      <use xlink:href="#DejaVuSans-6d" x="68.408203"/>
      <use xlink:href="#DejaVuSans-6f" x="165.820312"/>
      <use xlink:href="#DejaVuSans-73" x="227.001953"/>
      <use xlink:href="#DejaVuSans-74" x="279.101562"/>
      <use xlink:href="#DejaVuSans-72" x="318.310547"/>
      <use xlink:href="#DejaVuSans-61" x="359.423828"/>
      <use xlink:href="#DejaVuSans-73" x="420.703125"/>
     </g>
    </g>
   </g>
   <g id="matplotlib.axis_2">
    <g id="ytick_1">
     <g id="line2d_9">
      <defs>
       <path id="mac6c9fd95e" d="M 0 0 
L -3.5 0 
" style="stroke: #000000; stroke-width: 0.8"/>
      </defs>
      <g>
       <use xlink:href="#mac6c9fd95e" x="180" y="303.751102" style="stroke: #000000; stroke-width: 0.8"/>
      </g>
     </g>
     <g id="text_10">
      <!-- 0 -->
      <g transform="translate(166.6375 307.550321) scale(0.1 -0.1)">
       <use xlink:href="#DejaVuSans-30"/>
      </g>
     </g>
    </g>
    <g id="ytick_2">
     <g id="line2d_10">
      <g>
       <use xlink:href="#mac6c9fd95e" x="180" y="271.998411" style="stroke: #000000; stroke-width: 0.8"/>
      </g>
     </g>
     <g id="text_11">
      <!-- 2 -->
      <g transform="translate(166.6375 275.79763) scale(0.1 -0.1)">
       <use xlink:href="#DejaVuSans-32"/>
      </g>
     </g>
    </g>
    <g id="ytick_3">
     <g id="line2d_11">
      <g>
       <use xlink:href="#mac6c9fd95e" x="180" y="240.24572" style="stroke: #000000; stroke-width: 0.8"/>
      </g>
     </g>
     <g id="text_12">
      <!-- 4 -->
      <g transform="translate(166.6375 244.044939) scale(0.1 -0.1)">
       <defs>
        <path id="DejaVuSans-34" d="M 2419 4116 
L 825 1625 
L 2419 1625 
L 2419 4116 
z
M 2253 4666 
L 3047 4666 
L 3047 1625 
L 3713 1625 
L 3713 1100 
L 3047 1100 
L 3047 0 
L 2419 0 
L 2419 1100 
L 313 1100 
L 313 1709 
L 2253 4666 
z
" transform="scale(0.015625)"/>
       </defs>
       <use xlink:href="#DejaVuSans-34"/>
      </g>
     </g>
    </g>
    <g id="ytick_4">
     <g id="line2d_12">
      <g>
       <use xlink:href="#mac6c9fd95e" x="180" y="208.493029" style="stroke: #000000; stroke-width: 0.8"/>
      </g>
     </g>
     <g id="text_13">
      <!-- 6 -->
      <g transform="translate(166.6375 212.292248) scale(0.1 -0.1)">
       <defs>
        <path id="DejaVuSans-36" d="M 2113 2584 
Q 1688 2584 1439 2293 
Q 1191 2003 1191 1497 
Q 1191 994 1439 701 
Q 1688 409 2113 409 
Q 2538 409 2786 701 
Q 3034 994 3034 1497 
Q 3034 2003 2786 2293 
Q 2538 2584 2113 2584 
z
M 3366 4563 
L 3366 3988 
Q 3128 4100 2886 4159 
Q 2644 4219 2406 4219 
Q 1781 4219 1451 3797 
Q 1122 3375 1075 2522 
Q 1259 2794 1537 2939 
Q 1816 3084 2150 3084 
Q 2853 3084 3261 2657 
Q 3669 2231 3669 1497 
Q 3669 778 3244 343 
Q 2819 -91 2113 -91 
Q 1303 -91 875 529 
Q 447 1150 447 2328 
Q 447 3434 972 4092 
Q 1497 4750 2381 4750 
Q 2619 4750 2861 4703 
Q 3103 4656 3366 4563 
z
" transform="scale(0.015625)"/>
       </defs>
       <use xlink:href="#DejaVuSans-36"/>
      </g>
     </g>
    </g>
    <g id="ytick_5">
     <g id="line2d_13">
      <g>
       <use xlink:href="#mac6c9fd95e" x="180" y="176.740338" style="stroke: #000000; stroke-width: 0.8"/>
      </g>
     </g>
     <g id="text_14">
      <!-- 8 -->
      <g transform="translate(166.6375 180.539557) scale(0.1 -0.1)">
       <defs>
        <path id="DejaVuSans-38" d="M 2034 2216 
Q 1584 2216 1326 1975 
Q 1069 1734 1069 1313 
Q 1069 891 1326 650 
Q 1584 409 2034 409 
Q 2484 409 2743 651 
Q 3003 894 3003 1313 
Q 3003 1734 2745 1975 
Q 2488 2216 2034 2216 
z
M 1403 2484 
Q 997 2584 770 2862 
Q 544 3141 544 3541 
Q 544 4100 942 4425 
Q 1341 4750 2034 4750 
Q 2731 4750 3128 4425 
Q 3525 4100 3525 3541 
Q 3525 3141 3298 2862 
Q 3072 2584 2669 2484 
Q 3125 2378 3379 2068 
Q 3634 1759 3634 1313 
Q 3634 634 3220 271 
Q 2806 -91 2034 -91 
Q 1263 -91 848 271 
Q 434 634 434 1313 
Q 434 1759 690 2068 
Q 947 2378 1403 2484 
z
M 1172 3481 
Q 1172 3119 1398 2916 
Q 1625 2713 2034 2713 
Q 2441 2713 2670 2916 
Q 2900 3119 2900 3481 
Q 2900 3844 2670 4047 
Q 2441 4250 2034 4250 
Q 1625 4250 1398 4047 
Q 1172 3844 1172 3481 
z
" transform="scale(0.015625)"/>
       </defs>
       <use xlink:href="#DejaVuSans-38"/>
      </g>
     </g>
    </g>
    <g id="ytick_6">
     <g id="line2d_14">
      <g>
       <use xlink:href="#mac6c9fd95e" x="180" y="144.987647" style="stroke: #000000; stroke-width: 0.8"/>
      </g>
     </g>
     <g id="text_15">
      <!-- 10 -->
      <g transform="translate(160.275 148.786866) scale(0.1 -0.1)">
       <use xlink:href="#DejaVuSans-31"/>
       <use xlink:href="#DejaVuSans-30" x="63.623047"/>
      </g>
     </g>
    </g>
    <g id="ytick_7">
     <g id="line2d_15">
      <g>
       <use xlink:href="#mac6c9fd95e" x="180" y="113.234956" style="stroke: #000000; stroke-width: 0.8"/>
      </g>
     </g>
     <g id="text_16">
      <!-- 12 -->
      <g transform="translate(160.275 117.034175) scale(0.1 -0.1)">
       <use xlink:href="#DejaVuSans-31"/>
       <use xlink:href="#DejaVuSans-32" x="63.623047"/>
      </g>
     </g>
    </g>
    <g id="ytick_8">
     <g id="line2d_16">
      <g>
       <use xlink:href="#mac6c9fd95e" x="180" y="81.482265" style="stroke: #000000; stroke-width: 0.8"/>
      </g>
     </g>
     <g id="text_17">
      <!-- 14 -->
      <g transform="translate(160.275 85.281484) scale(0.1 -0.1)">
       <use xlink:href="#DejaVuSans-31"/>
       <use xlink:href="#DejaVuSans-34" x="63.623047"/>
      </g>
     </g>
    </g>
    <g id="ytick_9">
     <g id="line2d_17">
      <g>
       <use xlink:href="#mac6c9fd95e" x="180" y="49.729574" style="stroke: #000000; stroke-width: 0.8"/>
      </g>
     </g>
     <g id="text_18">
      <!-- 16 -->
      <g transform="translate(160.275 53.528793) scale(0.1 -0.1)">
       <use xlink:href="#DejaVuSans-31"/>
       <use xlink:href="#DejaVuSans-36" x="63.623047"/>
      </g>
     </g>
    </g>
    <g id="text_19">
     <!-- Velocidade do Vento (m/s) -->
     <g transform="translate(154.195312 247.344531) rotate(-90) scale(0.1 -0.1)">
      <defs>
       <path id="DejaVuSans-56" d="M 1831 0 
L 50 4666 
L 709 4666 
L 2188 738 
L 3669 4666 
L 4325 4666 
L 2547 0 
L 1831 0 
z
" transform="scale(0.015625)"/>
       <path id="DejaVuSans-65" d="M 3597 1894 
L 3597 1613 
L 953 1613 
Q 991 1019 1311 708 
Q 1631 397 2203 397 
Q 2534 397 2845 478 
Q 3156 559 3463 722 
L 3463 178 
Q 3153 47 2828 -22 
Q 2503 -91 2169 -91 
Q 1331 -91 842 396 
Q 353 884 353 1716 
Q 353 2575 817 3079 
Q 1281 3584 2069 3584 
Q 2775 3584 3186 3129 
Q 3597 2675 3597 1894 
z
M 3022 2063 
Q 3016 2534 2758 2815 
Q 2500 3097 2075 3097 
Q 1594 3097 1305 2825 
Q 1016 2553 972 2059 
L 3022 2063 
z
" transform="scale(0.015625)"/>
       <path id="DejaVuSans-6c" d="M 603 4863 
L 1178 4863 
L 1178 0 
L 603 0 
L 603 4863 
z
" transform="scale(0.015625)"/>
       <path id="DejaVuSans-63" d="M 3122 3366 
L 3122 2828 
Q 2878 2963 2633 3030 
Q 2388 3097 2138 3097 
Q 1578 3097 1268 2742 
Q 959 2388 959 1747 
Q 959 1106 1268 751 
Q 1578 397 2138 397 
Q 2388 397 2633 464 
Q 2878 531 3122 666 
L 3122 134 
Q 2881 22 2623 -34 
Q 2366 -91 2075 -91 
Q 1284 -91 818 406 
Q 353 903 353 1747 
Q 353 2603 823 3093 
Q 1294 3584 2113 3584 
Q 2378 3584 2631 3529 
Q 2884 3475 3122 3366 
z
" transform="scale(0.015625)"/>
       <path id="DejaVuSans-69" d="M 603 3500 
L 1178 3500 
L 1178 0 
L 603 0 
L 603 3500 
z
M 603 4863 
L 1178 4863 
L 1178 4134 
L 603 4134 
L 603 4863 
z
" transform="scale(0.015625)"/>
       <path id="DejaVuSans-64" d="M 2906 2969 
L 2906 4863 
L 3481 4863 
L 3481 0 
L 2906 0 
L 2906 525 
Q 2725 213 2448 61 
Q 2172 -91 1784 -91 
Q 1150 -91 751 415 
Q 353 922 353 1747 
Q 353 2572 751 3078 
Q 1150 3584 1784 3584 
Q 2172 3584 2448 3432 
Q 2725 3281 2906 2969 
z
M 947 1747 
Q 947 1113 1208 752 
Q 1469 391 1925 391 
Q 2381 391 2643 752 
Q 2906 1113 2906 1747 
Q 2906 2381 2643 2742 
Q 2381 3103 1925 3103 
Q 1469 3103 1208 2742 
Q 947 2381 947 1747 
z
" transform="scale(0.015625)"/>
       <path id="DejaVuSans-20" transform="scale(0.015625)"/>
       <path id="DejaVuSans-6e" d="M 3513 2113 
L 3513 0 
L 2938 0 
L 2938 2094 
Q 2938 2591 2744 2837 
Q 2550 3084 2163 3084 
Q 1697 3084 1428 2787 
Q 1159 2491 1159 1978 
L 1159 0 
L 581 0 
L 581 3500 
L 1159 3500 
L 1159 2956 
Q 1366 3272 1645 3428 
Q 1925 3584 2291 3584 
Q 2894 3584 3203 3211 
Q 3513 2838 3513 2113 
z
" transform="scale(0.015625)"/>
       <path id="DejaVuSans-28" d="M 1984 4856 
Q 1566 4138 1362 3434 
Q 1159 2731 1159 2009 
Q 1159 1288 1364 580 
Q 1569 -128 1984 -844 
L 1484 -844 
Q 1016 -109 783 600 
Q 550 1309 550 2009 
Q 550 2706 781 3412 
Q 1013 4119 1484 4856 
L 1984 4856 
z
" transform="scale(0.015625)"/>
       <path id="DejaVuSans-2f" d="M 1625 4666 
L 2156 4666 
L 531 -594 
L 0 -594 
L 1625 4666 
z
" transform="scale(0.015625)"/>
       <path id="DejaVuSans-29" d="M 513 4856 
L 1013 4856 
Q 1481 4119 1714 3412 
Q 1947 2706 1947 2009 
Q 1947 1309 1714 600 
Q 1481 -109 1013 -844 
L 513 -844 
Q 928 -128 1133 580 
Q 1338 1288 1338 2009 
Q 1338 2731 1133 3434 
Q 928 4138 513 4856 
z
" transform="scale(0.015625)"/>
      </defs>
      <use xlink:href="#DejaVuSans-56"/>
      <use xlink:href="#DejaVuSans-65" x="60.658203"/>
      <use xlink:href="#DejaVuSans-6c" x="122.181641"/>
      <use xlink:href="#DejaVuSans-6f" x="149.964844"/>
      <use xlink:href="#DejaVuSans-63" x="211.146484"/>
      <use xlink:href="#DejaVuSans-69" x="266.126953"/>
      <use xlink:href="#DejaVuSans-64" x="293.910156"/>
      <use xlink:href="#DejaVuSans-61" x="357.386719"/>
      <use xlink:href="#DejaVuSans-64" x="418.666016"/>
      <use xlink:href="#DejaVuSans-65" x="482.142578"/>
      <use xlink:href="#DejaVuSans-20" x="543.666016"/>
      <use xlink:href="#DejaVuSans-64" x="575.453125"/>
      <use xlink:href="#DejaVuSans-6f" x="638.929688"/>
      <use xlink:href="#DejaVuSans-20" x="700.111328"/>
      <use xlink:href="#DejaVuSans-56" x="731.898438"/>
      <use xlink:href="#DejaVuSans-65" x="792.556641"/>
      <use xlink:href="#DejaVuSans-6e" x="854.080078"/>
      <use xlink:href="#DejaVuSans-74" x="917.458984"/>
      <use xlink:href="#DejaVuSans-6f" x="956.667969"/>
      <use xlink:href="#DejaVuSans-20" x="1017.849609"/>
      <use xlink:href="#DejaVuSans-28" x="1049.636719"/>
      <use xlink:href="#DejaVuSans-6d" x="1088.650391"/>
      <use xlink:href="#DejaVuSans-2f" x="1186.0625"/>
      <use xlink:href="#DejaVuSans-73" x="1219.753906"/>
      <use xlink:href="#DejaVuSans-29" x="1271.853516"/>
     </g>
    </g>
   </g>
   <g id="line2d_18">
    <path d="M 230.727273 103.966356 
L 236.066986 148.257135 
L 241.406699 155.773029 
L 246.746411 140.26556 
L 252.086124 156.777337 
L 257.425837 156.462589 
L 262.76555 154.855538 
L 268.105263 153.612912 
L 273.444976 152.931452 
L 278.784689 160.12474 
L 284.124402 173.392905 
L 289.464115 177.483119 
L 294.803828 211.890533 
L 300.143541 203.540438 
L 305.483254 211.260211 
L 310.822967 226.571893 
L 316.162679 230.595858 
L 326.842105 240.915226 
L 332.181818 239.539111 
L 337.521531 227.729662 
L 342.861244 213.356759 
L 348.200957 171.085135 
L 353.54067 134.662623 
L 358.880383 116.580254 
L 364.220096 101.51072 
L 369.559809 108.37271 
L 374.899522 112.919541 
L 380.239234 115.243119 
L 385.578947 132.500856 
L 390.91866 144.821673 
L 396.258373 164.072235 
L 401.598086 167.07479 
L 406.937799 168.902413 
L 412.277512 166.249249 
L 417.617225 162.973584 
L 422.956938 175.485736 
L 428.296651 189.071564 
L 433.636364 184.234603 
L 438.976077 181.39959 
L 444.315789 176.935489 
L 449.655502 172.26476 
L 454.995215 186.928897 
L 460.334928 194.323627 
L 465.674641 181.011386 
L 471.014354 176.488 
L 476.354067 177.980117 
L 481.69378 162.460445 
L 487.033493 117.125598 
L 492.373206 99.68078 
L 497.712919 103.015661 
L 508.392344 127.171712 
L 513.732057 127.624605 
L 519.07177 128.789437 
L 524.411483 139.156992 
L 529.751196 152.388592 
L 535.090909 149.228194 
L 540.430622 160.560615 
L 545.770335 164.227914 
L 551.110048 184.317416 
L 561.789474 190.134074 
L 567.129187 189.597618 
L 572.4689 203.268273 
L 577.808612 207.968436 
L 583.148325 229.749332 
L 588.488038 196.300834 
L 593.827751 181.317966 
L 599.167464 176.143107 
L 604.507177 145.827723 
L 609.84689 121.113443 
L 615.186603 103.653545 
L 620.526316 92.946957 
L 625.866029 106.651572 
L 631.205742 124.120752 
L 636.545455 131.912634 
L 641.885167 124.671743 
L 647.22488 141.125652 
L 652.564593 140.858401 
L 657.904306 144.997625 
L 663.244019 154.148142 
L 668.583732 153.93514 
L 673.923445 158.694958 
L 679.263158 172.086022 
L 689.942584 170.546635 
L 695.282297 178.648155 
L 700.62201 172.041674 
L 705.961722 185.985107 
L 711.301435 204.190435 
L 716.641148 210.502797 
L 721.980861 189.955934 
L 727.320574 183.92975 
L 732.660287 144.888535 
L 738 117.945657 
L 743.339713 113.348755 
L 748.679426 108.995393 
L 754.019139 102.95319 
L 759.358852 116.133386 
L 764.698565 119.879418 
L 770.038278 125.748909 
L 775.37799 133.123524 
L 780.717703 155.203929 
L 786.057416 163.240881 
L 791.397129 156.278476 
L 796.736842 151.037133 
L 802.076555 155.139868 
L 807.416268 192.641007 
L 812.755981 173.573127 
L 818.095694 172.46801 
L 823.435407 270.653043 
L 828.77512 249.667921 
L 834.114833 214.88641 
L 839.454545 218.348777 
L 844.794258 222.284508 
L 850.133971 208.233908 
L 855.473684 194.887041 
L 860.813397 183.639522 
L 866.15311 150.378794 
L 871.492823 109.599287 
L 876.832536 100.85939 
L 882.172249 112.570741 
L 887.511962 116.402954 
L 892.851675 119.841444 
L 898.191388 132.944589 
L 903.5311 148.203354 
L 908.870813 157.754877 
L 914.210526 151.187815 
L 919.550239 160.312986 
L 924.889952 161.937661 
L 930.229665 158.938756 
L 935.569378 168.416104 
L 940.909091 159.205871 
L 946.248804 171.185322 
L 951.588517 177.499092 
L 956.92823 171.292837 
L 962.267943 178.769638 
L 967.607656 191.452457 
L 972.947368 202.149469 
L 978.287081 198.98967 
L 983.626794 186.458713 
L 988.966507 157.508974 
L 994.30622 134.182582 
L 999.645933 125.118429 
L 1004.985646 138.39471 
L 1010.325359 130.714007 
L 1015.665072 134.36933 
L 1021.004785 142.47982 
L 1026.344498 148.183913 
L 1031.684211 159.936872 
L 1037.023923 167.309624 
L 1042.363636 164.768155 
L 1047.703349 172.00682 
L 1053.043062 172.575284 
L 1058.382775 168.253884 
L 1063.722488 187.769692 
L 1069.062201 190.732479 
L 1074.401914 198.874962 
L 1079.741627 214.533628 
L 1085.08134 207.156197 
L 1090.421053 209.52765 
L 1095.760766 215.558399 
L 1101.100478 193.983934 
L 1106.440191 209.431202 
L 1111.779904 217.556107 
L 1117.119617 196.449086 
L 1122.45933 184.924489 
L 1127.799043 163.454413 
L 1133.138756 138.603199 
L 1138.478469 133.181377 
L 1143.818182 133.339039 
L 1149.157895 136.716602 
L 1154.497608 133.357587 
L 1159.837321 143.381247 
L 1165.177033 154.798896 
L 1170.516746 158.619753 
L 1175.856459 166.998237 
L 1181.196172 170.471355 
L 1186.535885 160.289624 
L 1191.875598 153.709783 
L 1197.215311 157.882484 
L 1202.555024 171.103879 
L 1207.894737 175.846876 
L 1213.23445 190.432092 
L 1218.574163 197.386737 
L 1223.913876 209.866366 
L 1229.253589 209.281921 
L 1234.593301 205.260137 
L 1239.933014 179.503228 
L 1245.272727 142.230435 
L 1245.272727 142.230435 
" clip-path="url(#p77df60b412)" style="fill: none; stroke: #0000ff; stroke-width: 1.5; stroke-linecap: square"/>
   </g>
   <g id="line2d_19">
    <path d="M 230.727273 156.603839 
L 236.066986 165.080044 
L 241.406699 150.350323 
L 246.746411 166.888184 
L 252.086124 164.639035 
L 257.425837 161.375564 
L 262.76555 155.757101 
L 268.105263 151.205882 
L 273.444976 158.120913 
L 278.784689 180.50656 
L 284.124402 190.041187 
L 289.464115 208.131401 
L 294.803828 198.067562 
L 300.143541 208.52831 
L 305.483254 222.711178 
L 310.822967 225.623375 
L 316.162679 233.895182 
L 321.502392 243.103463 
L 326.842105 241.60403 
L 332.181818 228.929414 
L 337.521531 218.830294 
L 342.861244 178.23977 
L 348.200957 143.488214 
L 353.54067 119.955942 
L 358.880383 97.879001 
L 364.220096 99.766523 
L 369.559809 100.375116 
L 374.899522 98.549336 
L 380.239234 123.404638 
L 385.578947 140.286485 
L 390.91866 166.623578 
L 396.258373 170.495642 
L 401.598086 171.712828 
L 406.937799 161.984157 
L 412.277512 144.185009 
L 417.617225 162.442807 
L 422.956938 177.684097 
L 428.296651 175.505511 
L 433.636364 173.500829 
L 438.976077 169.806586 
L 444.315789 165.926921 
L 449.655502 185.886877 
L 454.995215 195.333303 
L 460.334928 190.076469 
L 465.674641 195.950716 
L 471.014354 194.151397 
L 476.354067 174.729334 
L 481.69378 120.026504 
L 487.033493 85.671856 
L 492.373206 83.149281 
L 497.712919 99.166749 
L 503.052632 113.508382 
L 508.392344 104.67055 
L 513.732057 100.225172 
L 519.07177 110.386033 
L 524.411483 135.95577 
L 529.751196 122.796044 
L 535.090909 145.781464 
L 540.430622 158.094453 
L 545.770335 171.377661 
L 551.110048 175.637814 
L 556.449761 180.286054 
L 561.789474 180.092011 
L 567.129187 192.307977 
L 572.4689 197.988181 
L 577.808612 227.553464 
L 583.148325 198.217506 
L 588.488038 190.349894 
L 593.827751 188.224228 
L 599.167464 153.534413 
L 604.507177 120.079425 
L 609.84689 95.770976 
L 615.186603 60.62251 
L 620.526316 73.235386 
L 625.866029 84.260626 
L 631.205742 101.00135 
L 636.545455 97.632036 
L 641.885167 129.296525 
L 647.22488 127.453105 
L 652.564593 130.628375 
L 657.904306 147.598423 
L 663.244019 137.217058 
L 668.583732 145.772644 
L 673.923445 155.545417 
L 679.263158 155.025026 
L 684.602871 155.977606 
L 689.942584 165.33583 
L 695.282297 161.64899 
L 700.62201 178.054546 
L 705.961722 197.917619 
L 711.301435 210.583415 
L 716.641148 197.370767 
L 721.980861 200.519576 
L 727.320574 152.273125 
L 732.660287 115.29006 
L 738 107.572392 
L 743.339713 96.167884 
L 748.679426 77.11627 
L 754.019139 82.443667 
L 759.358852 89.846388 
L 764.698565 97.058724 
L 770.038278 105.861276 
L 775.37799 151.055939 
L 780.717703 163.148422 
L 786.057416 149.459484 
L 791.397129 127.620688 
L 796.736842 135.064931 
L 802.076555 177.084326 
L 807.416268 223.25803 
L 812.755981 227.83571 
L 818.095694 232.669175 
L 823.435407 223.328592 
L 828.77512 204.224056 
L 834.114833 207.805054 
L 839.454545 225.921728 
L 844.794258 223.447522 
L 850.133971 208.337018 
L 855.473684 194.169037 
L 860.813397 155.765921 
L 866.15311 105.226221 
L 871.492823 83.960739 
L 876.832536 98.955065 
L 882.172249 93.063177 
L 887.511962 92.74565 
L 892.851675 111.488557 
L 898.191388 140.013059 
L 903.5311 156.771423 
L 908.870813 141.283166 
L 914.210526 154.231208 
L 919.550239 156.762603 
L 924.889952 144.758322 
L 930.229665 148.709769 
L 935.569378 139.492667 
L 940.909091 157.979789 
L 946.248804 168.899188 
L 951.588517 164.90364 
L 956.92823 177.428312 
L 962.267943 194.424823 
L 967.607656 214.411378 
L 972.947368 212.259251 
L 978.287081 196.083019 
L 983.626794 159.699727 
L 988.966507 124.171994 
L 994.30622 103.76207 
L 999.645933 129.763995 
L 1004.985646 115.475284 
L 1010.325359 113.499562 
L 1015.665072 125.768448 
L 1021.004785 132.101346 
L 1026.344498 155.721821 
L 1031.684211 169.816487 
L 1037.023923 160.961015 
L 1042.363636 180.136111 
L 1047.703349 185.057779 
L 1053.043062 161.525507 
L 1058.382775 180.471279 
L 1063.722488 180.877008 
L 1069.062201 195.271562 
L 1074.401914 220.312087 
L 1079.741627 219.447708 
L 1085.08134 225.886448 
L 1090.421053 222.737639 
L 1095.760766 196.515208 
L 1101.100478 220.9295 
L 1106.440191 236.814666 
L 1111.779904 209.789597 
L 1117.119617 195.765492 
L 1122.45933 167.276272 
L 1127.799043 124.842328 
L 1133.138756 109.398172 
L 1138.478469 104.141338 
L 1143.818182 109.406992 
L 1149.157895 108.66718 
L 1154.497608 124.865717 
L 1159.837321 126.624007 
L 1165.177033 136.961273 
L 1170.516746 162.777974 
L 1175.856459 175.249725 
L 1181.196172 144.273211 
L 1186.535885 130.222646 
L 1191.875598 140.947999 
L 1197.215311 158.156194 
L 1202.555024 166.808802 
L 1207.894737 186.063281 
L 1213.23445 196.762174 
L 1218.574163 215.734407 
L 1223.913876 222.464213 
L 1229.253589 220.92068 
L 1234.593301 186.733615 
L 1239.933014 138.628288 
L 1245.272727 106.875597 
L 1245.272727 106.875597 
" clip-path="url(#p77df60b412)" style="fill: none; stroke: #ffa500; stroke-width: 1.5; stroke-linecap: square"/>
   </g>
   <g id="patch_3">
    <path d="M 180 320.4 
L 180 43.2 
" style="fill: none; stroke: #000000; stroke-width: 0.8; stroke-linejoin: miter; stroke-linecap: square"/>
   </g>
   <g id="patch_4">
    <path d="M 1296 320.4 
L 1296 43.2 
" style="fill: none; stroke: #000000; stroke-width: 0.8; stroke-linejoin: miter; stroke-linecap: square"/>
   </g>
   <g id="patch_5">
    <path d="M 180 320.4 
L 1296 320.4 
" style="fill: none; stroke: #000000; stroke-width: 0.8; stroke-linejoin: miter; stroke-linecap: square"/>
   </g>
   <g id="patch_6">
    <path d="M 180 43.2 
L 1296 43.2 
" style="fill: none; stroke: #000000; stroke-width: 0.8; stroke-linejoin: miter; stroke-linecap: square"/>
   </g>
   <g id="text_20">
    <!-- Previsão do vento para 1 hora(s) à frente com 5 camadas -->
    <g transform="translate(564.882187 37.2) scale(0.12 -0.12)">
     <defs>
      <path id="DejaVuSans-50" d="M 1259 4147 
L 1259 2394 
L 2053 2394 
Q 2494 2394 2734 2622 
Q 2975 2850 2975 3272 
Q 2975 3691 2734 3919 
Q 2494 4147 2053 4147 
L 1259 4147 
z
M 628 4666 
L 2053 4666 
Q 2838 4666 3239 4311 
Q 3641 3956 3641 3272 
Q 3641 2581 3239 2228 
Q 2838 1875 2053 1875 
L 1259 1875 
L 1259 0 
L 628 0 
L 628 4666 
z
" transform="scale(0.015625)"/>
      <path id="DejaVuSans-76" d="M 191 3500 
L 800 3500 
L 1894 563 
L 2988 3500 
L 3597 3500 
L 2284 0 
L 1503 0 
L 191 3500 
z
" transform="scale(0.015625)"/>
      <path id="DejaVuSans-e3" d="M 2194 1759 
Q 1497 1759 1228 1600 
Q 959 1441 959 1056 
Q 959 750 1161 570 
Q 1363 391 1709 391 
Q 2188 391 2477 730 
Q 2766 1069 2766 1631 
L 2766 1759 
L 2194 1759 
z
M 3341 1997 
L 3341 0 
L 2766 0 
L 2766 531 
Q 2569 213 2275 61 
Q 1981 -91 1556 -91 
Q 1019 -91 701 211 
Q 384 513 384 1019 
Q 384 1609 779 1909 
Q 1175 2209 1959 2209 
L 2766 2209 
L 2766 2266 
Q 2766 2663 2505 2880 
Q 2244 3097 1772 3097 
Q 1472 3097 1187 3025 
Q 903 2953 641 2809 
L 641 3341 
Q 956 3463 1253 3523 
Q 1550 3584 1831 3584 
Q 2591 3584 2966 3190 
Q 3341 2797 3341 1997 
z
M 1844 4281 
L 1666 4453 
Q 1597 4516 1545 4545 
Q 1494 4575 1453 4575 
Q 1334 4575 1278 4461 
Q 1222 4347 1216 4091 
L 825 4091 
Q 831 4513 990 4742 
Q 1150 4972 1434 4972 
Q 1553 4972 1653 4928 
Q 1753 4884 1869 4781 
L 2047 4609 
Q 2116 4547 2167 4517 
Q 2219 4488 2259 4488 
Q 2378 4488 2434 4602 
Q 2491 4716 2497 4972 
L 2888 4972 
Q 2881 4550 2722 4320 
Q 2563 4091 2278 4091 
Q 2159 4091 2059 4134 
Q 1959 4178 1844 4281 
z
" transform="scale(0.015625)"/>
      <path id="DejaVuSans-70" d="M 1159 525 
L 1159 -1331 
L 581 -1331 
L 581 3500 
L 1159 3500 
L 1159 2969 
Q 1341 3281 1617 3432 
Q 1894 3584 2278 3584 
Q 2916 3584 3314 3078 
Q 3713 2572 3713 1747 
Q 3713 922 3314 415 
Q 2916 -91 2278 -91 
Q 1894 -91 1617 61 
Q 1341 213 1159 525 
z
M 3116 1747 
Q 3116 2381 2855 2742 
Q 2594 3103 2138 3103 
Q 1681 3103 1420 2742 
Q 1159 2381 1159 1747 
Q 1159 1113 1420 752 
Q 1681 391 2138 391 
Q 2594 391 2855 752 
Q 3116 1113 3116 1747 
z
" transform="scale(0.015625)"/>
      <path id="DejaVuSans-68" d="M 3513 2113 
L 3513 0 
L 2938 0 
L 2938 2094 
Q 2938 2591 2744 2837 
Q 2550 3084 2163 3084 
Q 1697 3084 1428 2787 
Q 1159 2491 1159 1978 
L 1159 0 
L 581 0 
L 581 4863 
L 1159 4863 
L 1159 2956 
Q 1366 3272 1645 3428 
Q 1925 3584 2291 3584 
Q 2894 3584 3203 3211 
Q 3513 2838 3513 2113 
z
" transform="scale(0.015625)"/>
      <path id="DejaVuSans-e0" d="M 2194 1759 
Q 1497 1759 1228 1600 
Q 959 1441 959 1056 
Q 959 750 1161 570 
Q 1363 391 1709 391 
Q 2188 391 2477 730 
Q 2766 1069 2766 1631 
L 2766 1759 
L 2194 1759 
z
M 3341 1997 
L 3341 0 
L 2766 0 
L 2766 531 
Q 2569 213 2275 61 
Q 1981 -91 1556 -91 
Q 1019 -91 701 211 
Q 384 513 384 1019 
Q 384 1609 779 1909 
Q 1175 2209 1959 2209 
L 2766 2209 
L 2766 2266 
Q 2766 2663 2505 2880 
Q 2244 3097 1772 3097 
Q 1472 3097 1187 3025 
Q 903 2953 641 2809 
L 641 3341 
Q 956 3463 1253 3523 
Q 1550 3584 1831 3584 
Q 2591 3584 2966 3190 
Q 3341 2797 3341 1997 
z
M 1403 5119 
L 2284 3950 
L 1806 3950 
L 788 5119 
L 1403 5119 
z
" transform="scale(0.015625)"/>
      <path id="DejaVuSans-66" d="M 2375 4863 
L 2375 4384 
L 1825 4384 
Q 1516 4384 1395 4259 
Q 1275 4134 1275 3809 
L 1275 3500 
L 2222 3500 
L 2222 3053 
L 1275 3053 
L 1275 0 
L 697 0 
L 697 3053 
L 147 3053 
L 147 3500 
L 697 3500 
L 697 3744 
Q 697 4328 969 4595 
Q 1241 4863 1831 4863 
L 2375 4863 
z
" transform="scale(0.015625)"/>
     </defs>
     <use xlink:href="#DejaVuSans-50"/>
     <use xlink:href="#DejaVuSans-72" x="58.552734"/>
     <use xlink:href="#DejaVuSans-65" x="97.416016"/>
     <use xlink:href="#DejaVuSans-76" x="158.939453"/>
     <use xlink:href="#DejaVuSans-69" x="218.119141"/>
     <use xlink:href="#DejaVuSans-73" x="245.902344"/>
     <use xlink:href="#DejaVuSans-e3" x="298.001953"/>
     <use xlink:href="#DejaVuSans-6f" x="359.28125"/>
     <use xlink:href="#DejaVuSans-20" x="420.462891"/>
     <use xlink:href="#DejaVuSans-64" x="452.25"/>
     <use xlink:href="#DejaVuSans-6f" x="515.726562"/>
     <use xlink:href="#DejaVuSans-20" x="576.908203"/>
     <use xlink:href="#DejaVuSans-76" x="608.695312"/>
     <use xlink:href="#DejaVuSans-65" x="667.875"/>
     <use xlink:href="#DejaVuSans-6e" x="729.398438"/>
     <use xlink:href="#DejaVuSans-74" x="792.777344"/>
     <use xlink:href="#DejaVuSans-6f" x="831.986328"/>
     <use xlink:href="#DejaVuSans-20" x="893.167969"/>
     <use xlink:href="#DejaVuSans-70" x="924.955078"/>
     <use xlink:href="#DejaVuSans-61" x="988.431641"/>
     <use xlink:href="#DejaVuSans-72" x="1049.710938"/>
     <use xlink:href="#DejaVuSans-61" x="1090.824219"/>
     <use xlink:href="#DejaVuSans-20" x="1152.103516"/>
     <use xlink:href="#DejaVuSans-31" x="1183.890625"/>
     <use xlink:href="#DejaVuSans-20" x="1247.513672"/>
     <use xlink:href="#DejaVuSans-68" x="1279.300781"/>
     <use xlink:href="#DejaVuSans-6f" x="1342.679688"/>
     <use xlink:href="#DejaVuSans-72" x="1403.861328"/>
     <use xlink:href="#DejaVuSans-61" x="1444.974609"/>
     <use xlink:href="#DejaVuSans-28" x="1506.253906"/>
     <use xlink:href="#DejaVuSans-73" x="1545.267578"/>
     <use xlink:href="#DejaVuSans-29" x="1597.367188"/>
     <use xlink:href="#DejaVuSans-20" x="1636.380859"/>
     <use xlink:href="#DejaVuSans-e0" x="1668.167969"/>
     <use xlink:href="#DejaVuSans-20" x="1729.447266"/>
     <use xlink:href="#DejaVuSans-66" x="1761.234375"/>
     <use xlink:href="#DejaVuSans-72" x="1796.439453"/>
     <use xlink:href="#DejaVuSans-65" x="1835.302734"/>
     <use xlink:href="#DejaVuSans-6e" x="1896.826172"/>
     <use xlink:href="#DejaVuSans-74" x="1960.205078"/>
     <use xlink:href="#DejaVuSans-65" x="1999.414062"/>
     <use xlink:href="#DejaVuSans-20" x="2060.9375"/>
     <use xlink:href="#DejaVuSans-63" x="2092.724609"/>
     <use xlink:href="#DejaVuSans-6f" x="2147.705078"/>
     <use xlink:href="#DejaVuSans-6d" x="2208.886719"/>
     <use xlink:href="#DejaVuSans-20" x="2306.298828"/>
     <use xlink:href="#DejaVuSans-35" x="2338.085938"/>
     <use xlink:href="#DejaVuSans-20" x="2401.708984"/>
     <use xlink:href="#DejaVuSans-63" x="2433.496094"/>
     <use xlink:href="#DejaVuSans-61" x="2488.476562"/>
     <use xlink:href="#DejaVuSans-6d" x="2549.755859"/>
     <use xlink:href="#DejaVuSans-61" x="2647.167969"/>
     <use xlink:href="#DejaVuSans-64" x="2708.447266"/>
     <use xlink:href="#DejaVuSans-61" x="2771.923828"/>
     <use xlink:href="#DejaVuSans-73" x="2833.203125"/>
    </g>
   </g>
   <g id="legend_1">
    <g id="patch_7">
     <path d="M 1217.86875 80.55625 
L 1289 80.55625 
Q 1291 80.55625 1291 78.55625 
L 1291 50.2 
Q 1291 48.2 1289 48.2 
L 1217.86875 48.2 
Q 1215.86875 48.2 1215.86875 50.2 
L 1215.86875 78.55625 
Q 1215.86875 80.55625 1217.86875 80.55625 
z
" style="fill: #ffffff; opacity: 0.8; stroke: #cccccc; stroke-linejoin: miter"/>
    </g>
    <g id="line2d_20">
     <path d="M 1219.86875 56.298437 
L 1229.86875 56.298437 
L 1239.86875 56.298437 
" style="fill: none; stroke: #0000ff; stroke-width: 1.5; stroke-linecap: square"/>
    </g>
    <g id="text_21">
     <!-- Predito -->
     <g transform="translate(1247.86875 59.798437) scale(0.1 -0.1)">
      <use xlink:href="#DejaVuSans-50"/>
      <use xlink:href="#DejaVuSans-72" x="58.552734"/>
      <use xlink:href="#DejaVuSans-65" x="97.416016"/>
      <use xlink:href="#DejaVuSans-64" x="158.939453"/>
      <use xlink:href="#DejaVuSans-69" x="222.416016"/>
      <use xlink:href="#DejaVuSans-74" x="250.199219"/>
      <use xlink:href="#DejaVuSans-6f" x="289.408203"/>
     </g>
    </g>
    <g id="line2d_21">
     <path d="M 1219.86875 70.976562 
L 1229.86875 70.976562 
L 1239.86875 70.976562 
" style="fill: none; stroke: #ffa500; stroke-width: 1.5; stroke-linecap: square"/>
    </g>
    <g id="text_22">
     <!-- Original -->
     <g transform="translate(1247.86875 74.476562) scale(0.1 -0.1)">
      <defs>
       <path id="DejaVuSans-4f" d="M 2522 4238 
Q 1834 4238 1429 3725 
Q 1025 3213 1025 2328 
Q 1025 1447 1429 934 
Q 1834 422 2522 422 
Q 3209 422 3611 934 
Q 4013 1447 4013 2328 
Q 4013 3213 3611 3725 
Q 3209 4238 2522 4238 
z
M 2522 4750 
Q 3503 4750 4090 4092 
Q 4678 3434 4678 2328 
Q 4678 1225 4090 567 
Q 3503 -91 2522 -91 
Q 1538 -91 948 565 
Q 359 1222 359 2328 
Q 359 3434 948 4092 
Q 1538 4750 2522 4750 
z
" transform="scale(0.015625)"/>
       <path id="DejaVuSans-67" d="M 2906 1791 
Q 2906 2416 2648 2759 
Q 2391 3103 1925 3103 
Q 1463 3103 1205 2759 
Q 947 2416 947 1791 
Q 947 1169 1205 825 
Q 1463 481 1925 481 
Q 2391 481 2648 825 
Q 2906 1169 2906 1791 
z
M 3481 434 
Q 3481 -459 3084 -895 
Q 2688 -1331 1869 -1331 
Q 1566 -1331 1297 -1286 
Q 1028 -1241 775 -1147 
L 775 -588 
Q 1028 -725 1275 -790 
Q 1522 -856 1778 -856 
Q 2344 -856 2625 -561 
Q 2906 -266 2906 331 
L 2906 616 
Q 2728 306 2450 153 
Q 2172 0 1784 0 
Q 1141 0 747 490 
Q 353 981 353 1791 
Q 353 2603 747 3093 
Q 1141 3584 1784 3584 
Q 2172 3584 2450 3431 
Q 2728 3278 2906 2969 
L 2906 3500 
L 3481 3500 
L 3481 434 
z
" transform="scale(0.015625)"/>
      </defs>
      <use xlink:href="#DejaVuSans-4f"/>
      <use xlink:href="#DejaVuSans-72" x="78.710938"/>
      <use xlink:href="#DejaVuSans-69" x="119.824219"/>
      <use xlink:href="#DejaVuSans-67" x="147.607422"/>
      <use xlink:href="#DejaVuSans-69" x="211.083984"/>
      <use xlink:href="#DejaVuSans-6e" x="238.867188"/>
      <use xlink:href="#DejaVuSans-61" x="302.246094"/>
      <use xlink:href="#DejaVuSans-6c" x="363.525391"/>
     </g>
    </g>
   </g>
  </g>
 </g>
 <defs>
  <clipPath id="p77df60b412">
   <rect x="180" y="43.2" width="1116" height="277.2"/>
  </clipPath>
 </defs>
</svg>
