<?xml version="1.0" encoding="utf-8" standalone="no"?>
<!DOCTYPE svg PUBLIC "-//W3C//DTD SVG 1.1//EN"
  "http://www.w3.org/Graphics/SVG/1.1/DTD/svg11.dtd">
<svg xmlns:xlink="http://www.w3.org/1999/xlink" width="1440pt" height="360pt" viewBox="0 0 1440 360" xmlns="http://www.w3.org/2000/svg" version="1.1">
 <metadata>
  <rdf:RDF xmlns:dc="http://purl.org/dc/elements/1.1/" xmlns:cc="http://creativecommons.org/ns#" xmlns:rdf="http://www.w3.org/1999/02/22-rdf-syntax-ns#">
   <cc:Work>
    <dc:type rdf:resource="http://purl.org/dc/dcmitype/StillImage"/>
    <dc:date>2023-08-21T14:19:45.406447</dc:date>
    <dc:format>image/svg+xml</dc:format>
    <dc:creator>
     <cc:Agent>
      <dc:title>Matplotlib v3.7.1, https://matplotlib.org/</dc:title>
     </cc:Agent>
    </dc:creator>
   </cc:Work>
  </rdf:RDF>
 </metadata>
 <defs>
  <style type="text/css">*{stroke-linejoin: round; stroke-linecap: butt}</style>
 </defs>
 <g id="figure_1">
  <g id="patch_1">
   <path d="M 0 360 
L 1440 360 
L 1440 0 
L 0 0 
z
" style="fill: #ffffff"/>
  </g>
  <g id="axes_1">
   <g id="patch_2">
    <path d="M 180 320.4 
L 1296 320.4 
L 1296 43.2 
L 180 43.2 
z
" style="fill: #ffffff"/>
   </g>
   <g id="PolyCollection_1">
    <defs>
     <path id="mff3979f728" d="M 230.727273 -269.350172 
L 230.727273 -190.873397 
L 236.066986 -159.180084 
L 241.406699 -148.172751 
L 246.746411 -156.39922 
L 252.086124 -142.713325 
L 257.425837 -146.061309 
L 262.76555 -147.050892 
L 268.105263 -152.014335 
L 273.444976 -153.390127 
L 278.784689 -146.718333 
L 284.124402 -127.441526 
L 289.464115 -117.226046 
L 294.803828 -77.184171 
L 300.143541 -90.402368 
L 305.483254 -83.319024 
L 310.822967 -71.176152 
L 316.162679 -70.366439 
L 321.502392 -64.479534 
L 326.842105 -58.525414 
L 332.181818 -62.310643 
L 337.521531 -73.84388 
L 342.861244 -86.61439 
L 348.200957 -131.845703 
L 353.54067 -168.727521 
L 358.880383 -191.721116 
L 364.220096 -206.646364 
L 369.559809 -206.823006 
L 374.899522 -205.392086 
L 380.239234 -206.685997 
L 385.578947 -188.889215 
L 390.91866 -172.401661 
L 396.258373 -148.760114 
L 401.598086 -142.711332 
L 406.937799 -140.526761 
L 412.277512 -145.302872 
L 417.617225 -153.968045 
L 422.956938 -125.681677 
L 428.296651 -110.334428 
L 433.636364 -116.981754 
L 438.976077 -122.047002 
L 444.315789 -128.996032 
L 449.655502 -135.775465 
L 454.995215 -119.505608 
L 460.334928 -113.008836 
L 465.674641 -131.207766 
L 471.014354 -137.617872 
L 476.354067 -137.490025 
L 481.69378 -152.337964 
L 487.033493 -199.756997 
L 492.373206 -218.167772 
L 497.712919 -215.504704 
L 503.052632 -204.019461 
L 508.392344 -196.420504 
L 513.732057 -198.536713 
L 519.07177 -194.213341 
L 524.411483 -187.218007 
L 529.751196 -169.134917 
L 535.090909 -172.570084 
L 540.430622 -155.413017 
L 545.770335 -141.637751 
L 551.110048 -112.338498 
L 556.449761 -111.81311 
L 561.789474 -110.259965 
L 567.129187 -112.599253 
L 572.4689 -99.438959 
L 577.808612 -96.30579 
L 583.148325 -71.19451 
L 588.488038 -108.839826 
L 593.827751 -130.471209 
L 599.167464 -138.321715 
L 604.507177 -175.008961 
L 609.84689 -202.866436 
L 615.186603 -213.487684 
L 620.526316 -223.144397 
L 625.866029 -222.742 
L 631.205742 -225.028588 
L 636.545455 -215.783114 
L 641.885167 -206.028529 
L 647.22488 -185.67751 
L 652.564593 -177.686634 
L 657.904306 -168.550862 
L 663.244019 -152.107227 
L 668.583732 -156.504689 
L 673.923445 -147.470846 
L 679.263158 -126.769942 
L 684.602871 -129.331241 
L 689.942584 -131.014101 
L 695.282297 -124.025002 
L 700.62201 -132.049437 
L 705.961722 -118.793733 
L 711.301435 -101.329608 
L 716.641148 -97.639957 
L 721.980861 -122.592411 
L 727.320574 -130.435063 
L 732.660287 -170.904585 
L 738 -203.381631 
L 743.339713 -207.489849 
L 748.679426 -210.617023 
L 754.019139 -211.944536 
L 759.358852 -216.729666 
L 764.698565 -207.629703 
L 770.038278 -202.063029 
L 775.37799 -193.797265 
L 780.717703 -162.423596 
L 786.057416 -148.765131 
L 791.397129 -151.342084 
L 796.736842 -159.851286 
L 802.076555 -152.204674 
L 807.416268 -101.357616 
L 812.755981 -57.675249 
L 818.095694 -56.053823 
L 823.435407 -52.2 
L 828.77512 -65.805286 
L 834.114833 -92.851065 
L 839.454545 -93.511041 
L 844.794258 -86.797533 
L 850.133971 -102.191334 
L 855.473684 -118.694028 
L 860.813397 -128.213892 
L 866.15311 -156.403258 
L 871.492823 -194.168567 
L 876.832536 -207.54012 
L 882.172249 -197.541331 
L 887.511962 -199.443419 
L 892.851675 -195.706699 
L 898.191388 -188.410985 
L 903.5311 -169.810779 
L 908.870813 -155.62778 
L 914.210526 -162.207606 
L 919.550239 -153.369208 
L 924.889952 -147.119841 
L 930.229665 -148.308105 
L 935.569378 -129.423867 
L 940.909091 -142.702616 
L 946.248804 -128.273519 
L 951.588517 -122.000831 
L 956.92823 -130.754654 
L 962.267943 -125.004356 
L 967.607656 -109.998685 
L 972.947368 -97.925642 
L 978.287081 -110.359688 
L 983.626794 -125.663684 
L 988.966507 -160.352535 
L 994.30622 -191.519926 
L 999.645933 -201.400295 
L 1004.985646 -190.190971 
L 1010.325359 -195.288096 
L 1015.665072 -194.226772 
L 1021.004785 -187.467493 
L 1026.344498 -180.637024 
L 1031.684211 -162.840082 
L 1037.023923 -153.313351 
L 1042.363636 -158.391585 
L 1047.703349 -143.951575 
L 1053.043062 -137.325533 
L 1058.382775 -147.195994 
L 1063.722488 -100.622117 
L 1069.062201 -100.89777 
L 1074.401914 -92.390632 
L 1079.741627 -74.148493 
L 1085.08134 -81.723996 
L 1090.421053 -80.645043 
L 1095.760766 -80.52311 
L 1101.100478 -110.221417 
L 1106.440191 -100.936461 
L 1111.779904 -95.449551 
L 1117.119617 -116.283612 
L 1122.45933 -130.256251 
L 1127.799043 -157.485591 
L 1133.138756 -186.157092 
L 1138.478469 -195.363609 
L 1143.818182 -197.97815 
L 1149.157895 -192.240366 
L 1154.497608 -185.81112 
L 1159.837321 -177.067428 
L 1165.177033 -177.878057 
L 1170.516746 -170.964729 
L 1175.856459 -155.02711 
L 1181.196172 -145.791758 
L 1186.535885 -150.270602 
L 1191.875598 -143.83899 
L 1197.215311 -136.265063 
L 1202.555024 -124.310474 
L 1207.894737 -121.293128 
L 1213.23445 -107.215873 
L 1218.574163 -101.332125 
L 1223.913876 -88.893552 
L 1229.253589 -91.657908 
L 1234.593301 -104.416899 
L 1239.933014 -133.432255 
L 1245.272727 -165.725828 
L 1245.272727 -244.202603 
L 1245.272727 -244.202603 
L 1239.933014 -211.90903 
L 1234.593301 -182.893675 
L 1229.253589 -170.134675 
L 1223.913876 -167.370327 
L 1218.574163 -179.808891 
L 1213.23445 -185.692648 
L 1207.894737 -199.769894 
L 1202.555024 -202.787241 
L 1197.215311 -214.741838 
L 1191.875598 -222.315766 
L 1186.535885 -228.747377 
L 1181.196172 -224.268533 
L 1175.856459 -233.503885 
L 1170.516746 -249.441504 
L 1165.177033 -256.354832 
L 1159.837321 -255.544204 
L 1154.497608 -264.287896 
L 1149.157895 -270.717141 
L 1143.818182 -276.454925 
L 1138.478469 -273.840384 
L 1133.138756 -264.633867 
L 1127.799043 -235.962366 
L 1122.45933 -208.733027 
L 1117.119617 -194.760396 
L 1111.779904 -173.926326 
L 1106.440191 -179.413236 
L 1101.100478 -188.698201 
L 1095.760766 -158.999885 
L 1090.421053 -159.121818 
L 1085.08134 -160.200771 
L 1079.741627 -152.625268 
L 1074.401914 -170.867407 
L 1069.062201 -179.374546 
L 1063.722488 -179.098893 
L 1058.382775 -225.672769 
L 1053.043062 -215.802308 
L 1047.703349 -222.42835 
L 1042.363636 -236.86836 
L 1037.023923 -231.790126 
L 1031.684211 -241.316857 
L 1026.344498 -259.113799 
L 1021.004785 -265.944268 
L 1015.665072 -272.703547 
L 1010.325359 -273.764871 
L 1004.985646 -268.667746 
L 999.645933 -279.87707 
L 994.30622 -269.996701 
L 988.966507 -238.82931 
L 983.626794 -204.140459 
L 978.287081 -188.836454 
L 972.947368 -176.402417 
L 967.607656 -188.475451 
L 962.267943 -203.48114 
L 956.92823 -209.231429 
L 951.588517 -200.477598 
L 946.248804 -206.750303 
L 940.909091 -221.179391 
L 935.569378 -207.900642 
L 930.229665 -226.78488 
L 924.889952 -225.596616 
L 919.550239 -231.845983 
L 914.210526 -240.684382 
L 908.870813 -234.104555 
L 903.5311 -248.287554 
L 898.191388 -266.88776 
L 892.851675 -274.183474 
L 887.511962 -277.920194 
L 882.172249 -276.018107 
L 876.832536 -286.016895 
L 871.492823 -272.645342 
L 866.15311 -234.880033 
L 860.813397 -206.690676 
L 855.473684 -197.170794 
L 850.133971 -180.668119 
L 844.794258 -165.274308 
L 839.454545 -171.987825 
L 834.114833 -171.327831 
L 828.77512 -144.282061 
L 823.435407 -130.676775 
L 818.095694 -134.530598 
L 812.755981 -136.152025 
L 807.416268 -179.8344 
L 802.076555 -230.681449 
L 796.736842 -238.328061 
L 791.397129 -229.818859 
L 786.057416 -227.241906 
L 780.717703 -240.900371 
L 775.37799 -272.27404 
L 770.038278 -280.539804 
L 764.698565 -286.106478 
L 759.358852 -295.206441 
L 754.019139 -290.421312 
L 748.679426 -289.093798 
L 743.339713 -285.966624 
L 738 -281.858406 
L 732.660287 -249.38136 
L 727.320574 -208.911838 
L 721.980861 -201.069177 
L 716.641148 -176.116732 
L 711.301435 -179.806383 
L 705.961722 -197.270517 
L 700.62201 -210.526212 
L 695.282297 -202.501768 
L 689.942584 -209.490876 
L 684.602871 -207.808017 
L 679.263158 -205.246717 
L 673.923445 -225.947621 
L 668.583732 -234.981464 
L 663.244019 -230.584002 
L 657.904306 -247.027637 
L 652.564593 -256.163409 
L 647.22488 -264.154285 
L 641.885167 -284.505304 
L 636.545455 -294.259889 
L 631.205742 -303.505364 
L 625.866029 -301.218775 
L 620.526316 -301.621172 
L 615.186603 -291.964459 
L 609.84689 -281.343211 
L 604.507177 -253.485736 
L 599.167464 -216.798491 
L 593.827751 -208.947985 
L 588.488038 -187.316592 
L 583.148325 -149.671285 
L 577.808612 -174.782565 
L 572.4689 -177.915734 
L 567.129187 -191.076028 
L 561.789474 -188.736731 
L 556.449761 -190.289894 
L 551.110048 -190.815264 
L 545.770335 -220.114527 
L 540.430622 -233.889792 
L 535.090909 -251.046859 
L 529.751196 -247.611692 
L 524.411483 -265.694782 
L 519.07177 -272.690116 
L 513.732057 -277.013488 
L 508.392344 -274.897279 
L 503.052632 -282.496236 
L 497.712919 -293.981479 
L 492.373206 -296.644547 
L 487.033493 -278.233772 
L 481.69378 -230.814739 
L 476.354067 -215.9668 
L 471.014354 -216.094647 
L 465.674641 -209.684542 
L 460.334928 -191.485612 
L 454.995215 -197.982383 
L 449.655502 -214.252241 
L 444.315789 -207.472807 
L 438.976077 -200.523777 
L 433.636364 -195.458529 
L 428.296651 -188.811194 
L 422.956938 -204.158461 
L 417.617225 -232.44482 
L 412.277512 -223.779647 
L 406.937799 -219.003536 
L 401.598086 -221.188107 
L 396.258373 -227.23689 
L 390.91866 -250.878436 
L 385.578947 -267.365991 
L 380.239234 -285.162772 
L 374.899522 -283.868861 
L 369.559809 -285.299781 
L 364.220096 -285.123139 
L 358.880383 -270.197891 
L 353.54067 -247.204296 
L 348.200957 -210.322478 
L 342.861244 -165.091165 
L 337.521531 -152.320656 
L 332.181818 -140.787418 
L 326.842105 -137.002189 
L 321.502392 -142.956309 
L 316.162679 -148.843214 
L 310.822967 -149.652927 
L 305.483254 -161.795799 
L 300.143541 -168.879152 
L 294.803828 -155.660946 
L 289.464115 -195.702821 
L 284.124402 -205.918292 
L 278.784689 -225.195108 
L 273.444976 -231.866902 
L 268.105263 -230.49111 
L 262.76555 -225.527667 
L 257.425837 -224.538084 
L 252.086124 -221.1901 
L 246.746411 -234.875995 
L 241.406699 -226.649526 
L 236.066986 -237.65686 
L 230.727273 -269.350172 
z
" style="stroke: #0000ff; stroke-opacity: 0.05"/>
    </defs>
    <g clip-path="url(#pb04ea6cbd3)">
     <use xlink:href="#mff3979f728" x="0" y="360" style="fill: #0000ff; fill-opacity: 0.05; stroke: #0000ff; stroke-opacity: 0.05"/>
    </g>
   </g>
   <g id="matplotlib.axis_1">
    <g id="xtick_1">
     <g id="line2d_1">
      <defs>
       <path id="m535795edef" d="M 0 0 
L 0 3.5 
" style="stroke: #000000; stroke-width: 0.8"/>
      </defs>
      <g>
       <use xlink:href="#m535795edef" x="230.727273" y="320.4" style="stroke: #000000; stroke-width: 0.8"/>
      </g>
     </g>
     <g id="text_1">
      <!-- 0 -->
      <g transform="translate(227.546023 334.998438) scale(0.1 -0.1)">
       <defs>
        <path id="DejaVuSans-30" d="M 2034 4250 
Q 1547 4250 1301 3770 
Q 1056 3291 1056 2328 
Q 1056 1369 1301 889 
Q 1547 409 2034 409 
Q 2525 409 2770 889 
Q 3016 1369 3016 2328 
Q 3016 3291 2770 3770 
Q 2525 4250 2034 4250 
z
M 2034 4750 
Q 2819 4750 3233 4129 
Q 3647 3509 3647 2328 
Q 3647 1150 3233 529 
Q 2819 -91 2034 -91 
Q 1250 -91 836 529 
Q 422 1150 422 2328 
Q 422 3509 836 4129 
Q 1250 4750 2034 4750 
z
" transform="scale(0.015625)"/>
       </defs>
       <use xlink:href="#DejaVuSans-30"/>
      </g>
     </g>
    </g>
    <g id="xtick_2">
     <g id="line2d_2">
      <g>
       <use xlink:href="#m535795edef" x="364.220096" y="320.4" style="stroke: #000000; stroke-width: 0.8"/>
      </g>
     </g>
     <g id="text_2">
      <!-- 25 -->
      <g transform="translate(357.857596 334.998438) scale(0.1 -0.1)">
       <defs>
        <path id="DejaVuSans-32" d="M 1228 531 
L 3431 531 
L 3431 0 
L 469 0 
L 469 531 
Q 828 903 1448 1529 
Q 2069 2156 2228 2338 
Q 2531 2678 2651 2914 
Q 2772 3150 2772 3378 
Q 2772 3750 2511 3984 
Q 2250 4219 1831 4219 
Q 1534 4219 1204 4116 
Q 875 4013 500 3803 
L 500 4441 
Q 881 4594 1212 4672 
Q 1544 4750 1819 4750 
Q 2544 4750 2975 4387 
Q 3406 4025 3406 3419 
Q 3406 3131 3298 2873 
Q 3191 2616 2906 2266 
Q 2828 2175 2409 1742 
Q 1991 1309 1228 531 
z
" transform="scale(0.015625)"/>
        <path id="DejaVuSans-35" d="M 691 4666 
L 3169 4666 
L 3169 4134 
L 1269 4134 
L 1269 2991 
Q 1406 3038 1543 3061 
Q 1681 3084 1819 3084 
Q 2600 3084 3056 2656 
Q 3513 2228 3513 1497 
Q 3513 744 3044 326 
Q 2575 -91 1722 -91 
Q 1428 -91 1123 -41 
Q 819 9 494 109 
L 494 744 
Q 775 591 1075 516 
Q 1375 441 1709 441 
Q 2250 441 2565 725 
Q 2881 1009 2881 1497 
Q 2881 1984 2565 2268 
Q 2250 2553 1709 2553 
Q 1456 2553 1204 2497 
Q 953 2441 691 2322 
L 691 4666 
z
" transform="scale(0.015625)"/>
       </defs>
       <use xlink:href="#DejaVuSans-32"/>
       <use xlink:href="#DejaVuSans-35" x="63.623047"/>
      </g>
     </g>
    </g>
    <g id="xtick_3">
     <g id="line2d_3">
      <g>
       <use xlink:href="#m535795edef" x="497.712919" y="320.4" style="stroke: #000000; stroke-width: 0.8"/>
      </g>
     </g>
     <g id="text_3">
      <!-- 50 -->
      <g transform="translate(491.350419 334.998438) scale(0.1 -0.1)">
       <use xlink:href="#DejaVuSans-35"/>
       <use xlink:href="#DejaVuSans-30" x="63.623047"/>
      </g>
     </g>
    </g>
    <g id="xtick_4">
     <g id="line2d_4">
      <g>
       <use xlink:href="#m535795edef" x="631.205742" y="320.4" style="stroke: #000000; stroke-width: 0.8"/>
      </g>
     </g>
     <g id="text_4">
      <!-- 75 -->
      <g transform="translate(624.843242 334.998438) scale(0.1 -0.1)">
       <defs>
        <path id="DejaVuSans-37" d="M 525 4666 
L 3525 4666 
L 3525 4397 
L 1831 0 
L 1172 0 
L 2766 4134 
L 525 4134 
L 525 4666 
z
" transform="scale(0.015625)"/>
       </defs>
       <use xlink:href="#DejaVuSans-37"/>
       <use xlink:href="#DejaVuSans-35" x="63.623047"/>
      </g>
     </g>
    </g>
    <g id="xtick_5">
     <g id="line2d_5">
      <g>
       <use xlink:href="#m535795edef" x="764.698565" y="320.4" style="stroke: #000000; stroke-width: 0.8"/>
      </g>
     </g>
     <g id="text_5">
      <!-- 100 -->
      <g transform="translate(755.154815 334.998438) scale(0.1 -0.1)">
       <defs>
        <path id="DejaVuSans-31" d="M 794 531 
L 1825 531 
L 1825 4091 
L 703 3866 
L 703 4441 
L 1819 4666 
L 2450 4666 
L 2450 531 
L 3481 531 
L 3481 0 
L 794 0 
L 794 531 
z
" transform="scale(0.015625)"/>
       </defs>
       <use xlink:href="#DejaVuSans-31"/>
       <use xlink:href="#DejaVuSans-30" x="63.623047"/>
       <use xlink:href="#DejaVuSans-30" x="127.246094"/>
      </g>
     </g>
    </g>
    <g id="xtick_6">
     <g id="line2d_6">
      <g>
       <use xlink:href="#m535795edef" x="898.191388" y="320.4" style="stroke: #000000; stroke-width: 0.8"/>
      </g>
     </g>
     <g id="text_6">
      <!-- 125 -->
      <g transform="translate(888.647638 334.998438) scale(0.1 -0.1)">
       <use xlink:href="#DejaVuSans-31"/>
       <use xlink:href="#DejaVuSans-32" x="63.623047"/>
       <use xlink:href="#DejaVuSans-35" x="127.246094"/>
      </g>
     </g>
    </g>
    <g id="xtick_7">
     <g id="line2d_7">
      <g>
       <use xlink:href="#m535795edef" x="1031.684211" y="320.4" style="stroke: #000000; stroke-width: 0.8"/>
      </g>
     </g>
     <g id="text_7">
      <!-- 150 -->
      <g transform="translate(1022.140461 334.998438) scale(0.1 -0.1)">
       <use xlink:href="#DejaVuSans-31"/>
       <use xlink:href="#DejaVuSans-35" x="63.623047"/>
       <use xlink:href="#DejaVuSans-30" x="127.246094"/>
      </g>
     </g>
    </g>
    <g id="xtick_8">
     <g id="line2d_8">
      <g>
       <use xlink:href="#m535795edef" x="1165.177033" y="320.4" style="stroke: #000000; stroke-width: 0.8"/>
      </g>
     </g>
     <g id="text_8">
      <!-- 175 -->
      <g transform="translate(1155.633283 334.998438) scale(0.1 -0.1)">
       <use xlink:href="#DejaVuSans-31"/>
       <use xlink:href="#DejaVuSans-37" x="63.623047"/>
       <use xlink:href="#DejaVuSans-35" x="127.246094"/>
      </g>
     </g>
    </g>
    <g id="text_9">
     <!-- Amostras -->
     <g transform="translate(714.360937 348.676562) scale(0.1 -0.1)">
      <defs>
       <path id="DejaVuSans-41" d="M 2188 4044 
L 1331 1722 
L 3047 1722 
L 2188 4044 
z
M 1831 4666 
L 2547 4666 
L 4325 0 
L 3669 0 
L 3244 1197 
L 1141 1197 
L 716 0 
L 50 0 
L 1831 4666 
z
" transform="scale(0.015625)"/>
       <path id="DejaVuSans-6d" d="M 3328 2828 
Q 3544 3216 3844 3400 
Q 4144 3584 4550 3584 
Q 5097 3584 5394 3201 
Q 5691 2819 5691 2113 
L 5691 0 
L 5113 0 
L 5113 2094 
Q 5113 2597 4934 2840 
Q 4756 3084 4391 3084 
Q 3944 3084 3684 2787 
Q 3425 2491 3425 1978 
L 3425 0 
L 2847 0 
L 2847 2094 
Q 2847 2600 2669 2842 
Q 2491 3084 2119 3084 
Q 1678 3084 1418 2786 
Q 1159 2488 1159 1978 
L 1159 0 
L 581 0 
L 581 3500 
L 1159 3500 
L 1159 2956 
Q 1356 3278 1631 3431 
Q 1906 3584 2284 3584 
Q 2666 3584 2933 3390 
Q 3200 3197 3328 2828 
z
" transform="scale(0.015625)"/>
       <path id="DejaVuSans-6f" d="M 1959 3097 
Q 1497 3097 1228 2736 
Q 959 2375 959 1747 
Q 959 1119 1226 758 
Q 1494 397 1959 397 
Q 2419 397 2687 759 
Q 2956 1122 2956 1747 
Q 2956 2369 2687 2733 
Q 2419 3097 1959 3097 
z
M 1959 3584 
Q 2709 3584 3137 3096 
Q 3566 2609 3566 1747 
Q 3566 888 3137 398 
Q 2709 -91 1959 -91 
Q 1206 -91 779 398 
Q 353 888 353 1747 
Q 353 2609 779 3096 
Q 1206 3584 1959 3584 
z
" transform="scale(0.015625)"/>
       <path id="DejaVuSans-73" d="M 2834 3397 
L 2834 2853 
Q 2591 2978 2328 3040 
Q 2066 3103 1784 3103 
Q 1356 3103 1142 2972 
Q 928 2841 928 2578 
Q 928 2378 1081 2264 
Q 1234 2150 1697 2047 
L 1894 2003 
Q 2506 1872 2764 1633 
Q 3022 1394 3022 966 
Q 3022 478 2636 193 
Q 2250 -91 1575 -91 
Q 1294 -91 989 -36 
Q 684 19 347 128 
L 347 722 
Q 666 556 975 473 
Q 1284 391 1588 391 
Q 1994 391 2212 530 
Q 2431 669 2431 922 
Q 2431 1156 2273 1281 
Q 2116 1406 1581 1522 
L 1381 1569 
Q 847 1681 609 1914 
Q 372 2147 372 2553 
Q 372 3047 722 3315 
Q 1072 3584 1716 3584 
Q 2034 3584 2315 3537 
Q 2597 3491 2834 3397 
z
" transform="scale(0.015625)"/>
       <path id="DejaVuSans-74" d="M 1172 4494 
L 1172 3500 
L 2356 3500 
L 2356 3053 
L 1172 3053 
L 1172 1153 
Q 1172 725 1289 603 
Q 1406 481 1766 481 
L 2356 481 
L 2356 0 
L 1766 0 
Q 1100 0 847 248 
Q 594 497 594 1153 
L 594 3053 
L 172 3053 
L 172 3500 
L 594 3500 
L 594 4494 
L 1172 4494 
z
" transform="scale(0.015625)"/>
       <path id="DejaVuSans-72" d="M 2631 2963 
Q 2534 3019 2420 3045 
Q 2306 3072 2169 3072 
Q 1681 3072 1420 2755 
Q 1159 2438 1159 1844 
L 1159 0 
L 581 0 
L 581 3500 
L 1159 3500 
L 1159 2956 
Q 1341 3275 1631 3429 
Q 1922 3584 2338 3584 
Q 2397 3584 2469 3576 
Q 2541 3569 2628 3553 
L 2631 2963 
z
" transform="scale(0.015625)"/>
       <path id="DejaVuSans-61" d="M 2194 1759 
Q 1497 1759 1228 1600 
Q 959 1441 959 1056 
Q 959 750 1161 570 
Q 1363 391 1709 391 
Q 2188 391 2477 730 
Q 2766 1069 2766 1631 
L 2766 1759 
L 2194 1759 
z
M 3341 1997 
L 3341 0 
L 2766 0 
L 2766 531 
Q 2569 213 2275 61 
Q 1981 -91 1556 -91 
Q 1019 -91 701 211 
Q 384 513 384 1019 
Q 384 1609 779 1909 
Q 1175 2209 1959 2209 
L 2766 2209 
L 2766 2266 
Q 2766 2663 2505 2880 
Q 2244 3097 1772 3097 
Q 1472 3097 1187 3025 
Q 903 2953 641 2809 
L 641 3341 
Q 956 3463 1253 3523 
Q 1550 3584 1831 3584 
Q 2591 3584 2966 3190 
Q 3341 2797 3341 1997 
z
" transform="scale(0.015625)"/>
      </defs>
      <use xlink:href="#DejaVuSans-41"/>
      <use xlink:href="#DejaVuSans-6d" x="68.408203"/>
      <use xlink:href="#DejaVuSans-6f" x="165.820312"/>
      <use xlink:href="#DejaVuSans-73" x="227.001953"/>
      <use xlink:href="#DejaVuSans-74" x="279.101562"/>
      <use xlink:href="#DejaVuSans-72" x="318.310547"/>
      <use xlink:href="#DejaVuSans-61" x="359.423828"/>
      <use xlink:href="#DejaVuSans-73" x="420.703125"/>
     </g>
    </g>
   </g>
   <g id="matplotlib.axis_2">
    <g id="ytick_1">
     <g id="line2d_9">
      <defs>
       <path id="m92c00f5507" d="M 0 0 
L -3.5 0 
" style="stroke: #000000; stroke-width: 0.8"/>
      </defs>
      <g>
       <use xlink:href="#m92c00f5507" x="180" y="304.140696" style="stroke: #000000; stroke-width: 0.8"/>
      </g>
     </g>
     <g id="text_10">
      <!-- 2 -->
      <g transform="translate(166.6375 307.939915) scale(0.1 -0.1)">
       <use xlink:href="#DejaVuSans-32"/>
      </g>
     </g>
    </g>
    <g id="ytick_2">
     <g id="line2d_10">
      <g>
       <use xlink:href="#m92c00f5507" x="180" y="266.835188" style="stroke: #000000; stroke-width: 0.8"/>
      </g>
     </g>
     <g id="text_11">
      <!-- 4 -->
      <g transform="translate(166.6375 270.634407) scale(0.1 -0.1)">
       <defs>
        <path id="DejaVuSans-34" d="M 2419 4116 
L 825 1625 
L 2419 1625 
L 2419 4116 
z
M 2253 4666 
L 3047 4666 
L 3047 1625 
L 3713 1625 
L 3713 1100 
L 3047 1100 
L 3047 0 
L 2419 0 
L 2419 1100 
L 313 1100 
L 313 1709 
L 2253 4666 
z
" transform="scale(0.015625)"/>
       </defs>
       <use xlink:href="#DejaVuSans-34"/>
      </g>
     </g>
    </g>
    <g id="ytick_3">
     <g id="line2d_11">
      <g>
       <use xlink:href="#m92c00f5507" x="180" y="229.52968" style="stroke: #000000; stroke-width: 0.8"/>
      </g>
     </g>
     <g id="text_12">
      <!-- 6 -->
      <g transform="translate(166.6375 233.328899) scale(0.1 -0.1)">
       <defs>
        <path id="DejaVuSans-36" d="M 2113 2584 
Q 1688 2584 1439 2293 
Q 1191 2003 1191 1497 
Q 1191 994 1439 701 
Q 1688 409 2113 409 
Q 2538 409 2786 701 
Q 3034 994 3034 1497 
Q 3034 2003 2786 2293 
Q 2538 2584 2113 2584 
z
M 3366 4563 
L 3366 3988 
Q 3128 4100 2886 4159 
Q 2644 4219 2406 4219 
Q 1781 4219 1451 3797 
Q 1122 3375 1075 2522 
Q 1259 2794 1537 2939 
Q 1816 3084 2150 3084 
Q 2853 3084 3261 2657 
Q 3669 2231 3669 1497 
Q 3669 778 3244 343 
Q 2819 -91 2113 -91 
Q 1303 -91 875 529 
Q 447 1150 447 2328 
Q 447 3434 972 4092 
Q 1497 4750 2381 4750 
Q 2619 4750 2861 4703 
Q 3103 4656 3366 4563 
z
" transform="scale(0.015625)"/>
       </defs>
       <use xlink:href="#DejaVuSans-36"/>
      </g>
     </g>
    </g>
    <g id="ytick_4">
     <g id="line2d_12">
      <g>
       <use xlink:href="#m92c00f5507" x="180" y="192.224172" style="stroke: #000000; stroke-width: 0.8"/>
      </g>
     </g>
     <g id="text_13">
      <!-- 8 -->
      <g transform="translate(166.6375 196.023391) scale(0.1 -0.1)">
       <defs>
        <path id="DejaVuSans-38" d="M 2034 2216 
Q 1584 2216 1326 1975 
Q 1069 1734 1069 1313 
Q 1069 891 1326 650 
Q 1584 409 2034 409 
Q 2484 409 2743 651 
Q 3003 894 3003 1313 
Q 3003 1734 2745 1975 
Q 2488 2216 2034 2216 
z
M 1403 2484 
Q 997 2584 770 2862 
Q 544 3141 544 3541 
Q 544 4100 942 4425 
Q 1341 4750 2034 4750 
Q 2731 4750 3128 4425 
Q 3525 4100 3525 3541 
Q 3525 3141 3298 2862 
Q 3072 2584 2669 2484 
Q 3125 2378 3379 2068 
Q 3634 1759 3634 1313 
Q 3634 634 3220 271 
Q 2806 -91 2034 -91 
Q 1263 -91 848 271 
Q 434 634 434 1313 
Q 434 1759 690 2068 
Q 947 2378 1403 2484 
z
M 1172 3481 
Q 1172 3119 1398 2916 
Q 1625 2713 2034 2713 
Q 2441 2713 2670 2916 
Q 2900 3119 2900 3481 
Q 2900 3844 2670 4047 
Q 2441 4250 2034 4250 
Q 1625 4250 1398 4047 
Q 1172 3844 1172 3481 
z
" transform="scale(0.015625)"/>
       </defs>
       <use xlink:href="#DejaVuSans-38"/>
      </g>
     </g>
    </g>
    <g id="ytick_5">
     <g id="line2d_13">
      <g>
       <use xlink:href="#m92c00f5507" x="180" y="154.918664" style="stroke: #000000; stroke-width: 0.8"/>
      </g>
     </g>
     <g id="text_14">
      <!-- 10 -->
      <g transform="translate(160.275 158.717882) scale(0.1 -0.1)">
       <use xlink:href="#DejaVuSans-31"/>
       <use xlink:href="#DejaVuSans-30" x="63.623047"/>
      </g>
     </g>
    </g>
    <g id="ytick_6">
     <g id="line2d_14">
      <g>
       <use xlink:href="#m92c00f5507" x="180" y="117.613155" style="stroke: #000000; stroke-width: 0.8"/>
      </g>
     </g>
     <g id="text_15">
      <!-- 12 -->
      <g transform="translate(160.275 121.412374) scale(0.1 -0.1)">
       <use xlink:href="#DejaVuSans-31"/>
       <use xlink:href="#DejaVuSans-32" x="63.623047"/>
      </g>
     </g>
    </g>
    <g id="ytick_7">
     <g id="line2d_15">
      <g>
       <use xlink:href="#m92c00f5507" x="180" y="80.307647" style="stroke: #000000; stroke-width: 0.8"/>
      </g>
     </g>
     <g id="text_16">
      <!-- 14 -->
      <g transform="translate(160.275 84.106866) scale(0.1 -0.1)">
       <use xlink:href="#DejaVuSans-31"/>
       <use xlink:href="#DejaVuSans-34" x="63.623047"/>
      </g>
     </g>
    </g>
    <g id="text_17">
     <!-- Velocidade do Vento (m/s) -->
     <g transform="translate(154.195312 247.344531) rotate(-90) scale(0.1 -0.1)">
      <defs>
       <path id="DejaVuSans-56" d="M 1831 0 
L 50 4666 
L 709 4666 
L 2188 738 
L 3669 4666 
L 4325 4666 
L 2547 0 
L 1831 0 
z
" transform="scale(0.015625)"/>
       <path id="DejaVuSans-65" d="M 3597 1894 
L 3597 1613 
L 953 1613 
Q 991 1019 1311 708 
Q 1631 397 2203 397 
Q 2534 397 2845 478 
Q 3156 559 3463 722 
L 3463 178 
Q 3153 47 2828 -22 
Q 2503 -91 2169 -91 
Q 1331 -91 842 396 
Q 353 884 353 1716 
Q 353 2575 817 3079 
Q 1281 3584 2069 3584 
Q 2775 3584 3186 3129 
Q 3597 2675 3597 1894 
z
M 3022 2063 
Q 3016 2534 2758 2815 
Q 2500 3097 2075 3097 
Q 1594 3097 1305 2825 
Q 1016 2553 972 2059 
L 3022 2063 
z
" transform="scale(0.015625)"/>
       <path id="DejaVuSans-6c" d="M 603 4863 
L 1178 4863 
L 1178 0 
L 603 0 
L 603 4863 
z
" transform="scale(0.015625)"/>
       <path id="DejaVuSans-63" d="M 3122 3366 
L 3122 2828 
Q 2878 2963 2633 3030 
Q 2388 3097 2138 3097 
Q 1578 3097 1268 2742 
Q 959 2388 959 1747 
Q 959 1106 1268 751 
Q 1578 397 2138 397 
Q 2388 397 2633 464 
Q 2878 531 3122 666 
L 3122 134 
Q 2881 22 2623 -34 
Q 2366 -91 2075 -91 
Q 1284 -91 818 406 
Q 353 903 353 1747 
Q 353 2603 823 3093 
Q 1294 3584 2113 3584 
Q 2378 3584 2631 3529 
Q 2884 3475 3122 3366 
z
" transform="scale(0.015625)"/>
       <path id="DejaVuSans-69" d="M 603 3500 
L 1178 3500 
L 1178 0 
L 603 0 
L 603 3500 
z
M 603 4863 
L 1178 4863 
L 1178 4134 
L 603 4134 
L 603 4863 
z
" transform="scale(0.015625)"/>
       <path id="DejaVuSans-64" d="M 2906 2969 
L 2906 4863 
L 3481 4863 
L 3481 0 
L 2906 0 
L 2906 525 
Q 2725 213 2448 61 
Q 2172 -91 1784 -91 
Q 1150 -91 751 415 
Q 353 922 353 1747 
Q 353 2572 751 3078 
Q 1150 3584 1784 3584 
Q 2172 3584 2448 3432 
Q 2725 3281 2906 2969 
z
M 947 1747 
Q 947 1113 1208 752 
Q 1469 391 1925 391 
Q 2381 391 2643 752 
Q 2906 1113 2906 1747 
Q 2906 2381 2643 2742 
Q 2381 3103 1925 3103 
Q 1469 3103 1208 2742 
Q 947 2381 947 1747 
z
" transform="scale(0.015625)"/>
       <path id="DejaVuSans-20" transform="scale(0.015625)"/>
       <path id="DejaVuSans-6e" d="M 3513 2113 
L 3513 0 
L 2938 0 
L 2938 2094 
Q 2938 2591 2744 2837 
Q 2550 3084 2163 3084 
Q 1697 3084 1428 2787 
Q 1159 2491 1159 1978 
L 1159 0 
L 581 0 
L 581 3500 
L 1159 3500 
L 1159 2956 
Q 1366 3272 1645 3428 
Q 1925 3584 2291 3584 
Q 2894 3584 3203 3211 
Q 3513 2838 3513 2113 
z
" transform="scale(0.015625)"/>
       <path id="DejaVuSans-28" d="M 1984 4856 
Q 1566 4138 1362 3434 
Q 1159 2731 1159 2009 
Q 1159 1288 1364 580 
Q 1569 -128 1984 -844 
L 1484 -844 
Q 1016 -109 783 600 
Q 550 1309 550 2009 
Q 550 2706 781 3412 
Q 1013 4119 1484 4856 
L 1984 4856 
z
" transform="scale(0.015625)"/>
       <path id="DejaVuSans-2f" d="M 1625 4666 
L 2156 4666 
L 531 -594 
L 0 -594 
L 1625 4666 
z
" transform="scale(0.015625)"/>
       <path id="DejaVuSans-29" d="M 513 4856 
L 1013 4856 
Q 1481 4119 1714 3412 
Q 1947 2706 1947 2009 
Q 1947 1309 1714 600 
Q 1481 -109 1013 -844 
L 513 -844 
Q 928 -128 1133 580 
Q 1338 1288 1338 2009 
Q 1338 2731 1133 3434 
Q 928 4138 513 4856 
z
" transform="scale(0.015625)"/>
      </defs>
      <use xlink:href="#DejaVuSans-56"/>
      <use xlink:href="#DejaVuSans-65" x="60.658203"/>
      <use xlink:href="#DejaVuSans-6c" x="122.181641"/>
      <use xlink:href="#DejaVuSans-6f" x="149.964844"/>
      <use xlink:href="#DejaVuSans-63" x="211.146484"/>
      <use xlink:href="#DejaVuSans-69" x="266.126953"/>
      <use xlink:href="#DejaVuSans-64" x="293.910156"/>
      <use xlink:href="#DejaVuSans-61" x="357.386719"/>
      <use xlink:href="#DejaVuSans-64" x="418.666016"/>
      <use xlink:href="#DejaVuSans-65" x="482.142578"/>
      <use xlink:href="#DejaVuSans-20" x="543.666016"/>
      <use xlink:href="#DejaVuSans-64" x="575.453125"/>
      <use xlink:href="#DejaVuSans-6f" x="638.929688"/>
      <use xlink:href="#DejaVuSans-20" x="700.111328"/>
      <use xlink:href="#DejaVuSans-56" x="731.898438"/>
      <use xlink:href="#DejaVuSans-65" x="792.556641"/>
      <use xlink:href="#DejaVuSans-6e" x="854.080078"/>
      <use xlink:href="#DejaVuSans-74" x="917.458984"/>
      <use xlink:href="#DejaVuSans-6f" x="956.667969"/>
      <use xlink:href="#DejaVuSans-20" x="1017.849609"/>
      <use xlink:href="#DejaVuSans-28" x="1049.636719"/>
      <use xlink:href="#DejaVuSans-6d" x="1088.650391"/>
      <use xlink:href="#DejaVuSans-2f" x="1186.0625"/>
      <use xlink:href="#DejaVuSans-73" x="1219.753906"/>
      <use xlink:href="#DejaVuSans-29" x="1271.853516"/>
     </g>
    </g>
   </g>
   <g id="line2d_16">
    <path d="M 230.727273 129.888215 
L 236.066986 161.581528 
L 241.406699 172.588861 
L 246.746411 164.362392 
L 252.086124 178.048288 
L 257.425837 174.700303 
L 262.76555 173.710721 
L 268.105263 168.747277 
L 273.444976 167.371485 
L 278.784689 174.04328 
L 284.124402 193.320086 
L 289.464115 203.535567 
L 294.803828 243.577441 
L 300.143541 230.359245 
L 305.483254 237.442588 
L 310.822967 249.585461 
L 316.162679 250.395173 
L 326.842105 262.236199 
L 332.181818 258.450969 
L 337.521531 246.917732 
L 342.861244 234.147223 
L 348.200957 188.915909 
L 353.54067 152.034091 
L 358.880383 129.040497 
L 364.220096 114.115248 
L 369.559809 113.938607 
L 374.899522 115.369526 
L 380.239234 114.075615 
L 385.578947 131.872397 
L 390.91866 148.359952 
L 396.258373 172.001498 
L 401.598086 178.05028 
L 406.937799 180.234851 
L 412.277512 175.45874 
L 417.617225 166.793568 
L 422.956938 195.079935 
L 428.296651 210.427184 
L 433.636364 203.779858 
L 438.976077 198.714611 
L 449.655502 184.986147 
L 454.995215 201.256004 
L 460.334928 207.752776 
L 465.674641 189.553846 
L 471.014354 183.143741 
L 476.354067 183.271588 
L 481.69378 168.423649 
L 487.033493 121.004615 
L 492.373206 102.59384 
L 497.712919 105.256908 
L 503.052632 116.742152 
L 508.392344 124.341108 
L 513.732057 122.224899 
L 519.07177 126.548271 
L 524.411483 133.543605 
L 529.751196 151.626696 
L 535.090909 148.191529 
L 540.430622 165.348595 
L 545.770335 179.123861 
L 551.110048 208.423115 
L 556.449761 208.948503 
L 561.789474 210.501648 
L 567.129187 208.16236 
L 572.4689 221.322654 
L 577.808612 224.455823 
L 583.148325 249.567103 
L 588.488038 211.921787 
L 593.827751 190.290403 
L 599.167464 182.439897 
L 604.507177 145.752651 
L 609.84689 117.895177 
L 615.186603 107.273928 
L 620.526316 97.617216 
L 625.866029 98.019613 
L 631.205742 95.733024 
L 636.545455 104.978498 
L 641.885167 114.733084 
L 647.22488 135.084103 
L 652.564593 143.074979 
L 657.904306 152.21075 
L 663.244019 168.654385 
L 668.583732 164.256923 
L 673.923445 173.290766 
L 679.263158 193.99167 
L 684.602871 191.430371 
L 689.942584 189.747511 
L 695.282297 196.73661 
L 700.62201 188.712176 
L 705.961722 201.96788 
L 711.301435 219.432005 
L 716.641148 223.121656 
L 721.980861 198.169202 
L 727.320574 190.326549 
L 732.660287 149.857027 
L 738 117.379982 
L 743.339713 113.271764 
L 748.679426 110.14459 
L 754.019139 108.817076 
L 759.358852 104.031946 
L 764.698565 113.131909 
L 770.038278 118.698583 
L 775.37799 126.964348 
L 780.717703 158.338016 
L 786.057416 171.996482 
L 791.397129 169.419528 
L 796.736842 160.910327 
L 802.076555 168.556939 
L 807.416268 219.403997 
L 812.755981 263.086363 
L 818.095694 264.70779 
L 823.435407 268.561612 
L 828.77512 254.956326 
L 834.114833 227.910548 
L 839.454545 227.250571 
L 844.794258 233.96408 
L 850.133971 218.570278 
L 855.473684 202.067585 
L 860.813397 192.547721 
L 866.15311 164.358354 
L 871.492823 126.593045 
L 876.832536 113.221493 
L 882.172249 123.220281 
L 887.511962 121.318194 
L 892.851675 125.054914 
L 898.191388 132.350627 
L 903.5311 150.950834 
L 908.870813 165.133833 
L 914.210526 158.554006 
L 919.550239 167.392405 
L 924.889952 173.641772 
L 930.229665 172.453508 
L 935.569378 191.337745 
L 940.909091 178.058997 
L 946.248804 192.488093 
L 951.588517 198.760781 
L 956.92823 190.006959 
L 962.267943 195.757256 
L 967.607656 210.762927 
L 972.947368 222.83597 
L 978.287081 210.401924 
L 983.626794 195.097929 
L 988.966507 160.409078 
L 994.30622 129.241687 
L 999.645933 119.361317 
L 1004.985646 130.570641 
L 1010.325359 125.473516 
L 1015.665072 126.534841 
L 1026.344498 140.124588 
L 1031.684211 157.92153 
L 1037.023923 167.448261 
L 1042.363636 162.370028 
L 1047.703349 176.810038 
L 1053.043062 183.436079 
L 1058.382775 173.565619 
L 1063.722488 220.139495 
L 1069.062201 219.863842 
L 1074.401914 228.370981 
L 1079.741627 246.613119 
L 1085.08134 239.037617 
L 1090.421053 240.11657 
L 1095.760766 240.238502 
L 1101.100478 210.540196 
L 1106.440191 219.825152 
L 1111.779904 225.312062 
L 1117.119617 204.478001 
L 1122.45933 190.505361 
L 1127.799043 163.276022 
L 1133.138756 134.604521 
L 1138.478469 125.398003 
L 1143.818182 122.783463 
L 1149.157895 128.521246 
L 1154.497608 134.950492 
L 1159.837321 143.694184 
L 1165.177033 142.883555 
L 1170.516746 149.796884 
L 1175.856459 165.734502 
L 1181.196172 174.969855 
L 1186.535885 170.49101 
L 1191.875598 176.922622 
L 1197.215311 184.49655 
L 1202.555024 196.451138 
L 1207.894737 199.468485 
L 1213.23445 213.54574 
L 1218.574163 219.429488 
L 1223.913876 231.868061 
L 1229.253589 229.103704 
L 1234.593301 216.344713 
L 1239.933014 187.329357 
L 1245.272727 155.035784 
L 1245.272727 155.035784 
" clip-path="url(#pb04ea6cbd3)" style="fill: none; stroke: #0000ff; stroke-width: 1.5; stroke-linecap: square"/>
   </g>
   <g id="line2d_17">
    <path d="M 230.727273 168.566262 
L 236.066986 178.52476 
L 241.406699 161.219149 
L 246.746411 180.649101 
L 252.086124 178.006628 
L 257.425837 174.172451 
L 262.76555 167.571448 
L 268.105263 162.224325 
L 273.444976 170.348636 
L 278.784689 196.649019 
L 284.124402 207.851034 
L 289.464115 229.104812 
L 294.803828 217.281038 
L 300.143541 229.57113 
L 305.483254 246.234257 
L 310.822967 249.65573 
L 316.162679 259.374086 
L 321.502392 270.192684 
L 326.842105 268.431035 
L 332.181818 253.539919 
L 337.521531 241.674695 
L 342.861244 193.98582 
L 348.200957 153.157015 
L 353.54067 125.509488 
L 358.880383 99.571797 
L 364.220096 101.789402 
L 369.559809 102.504424 
L 374.899522 100.359358 
L 380.239234 129.561281 
L 385.578947 149.395376 
L 390.91866 180.338222 
L 396.258373 184.887422 
L 401.598086 186.317466 
L 406.937799 174.887473 
L 412.277512 153.975663 
L 417.617225 175.426331 
L 422.956938 193.332973 
L 428.296651 190.773402 
L 433.636364 188.418146 
L 438.976077 184.077866 
L 444.315789 179.519736 
L 449.655502 202.97023 
L 454.995215 214.068619 
L 460.334928 207.892486 
L 465.674641 214.794004 
L 471.014354 212.680025 
L 476.354067 189.86149 
L 481.69378 125.592389 
L 487.033493 85.229902 
L 492.373206 82.266187 
L 497.712919 101.084742 
L 503.052632 117.934397 
L 508.392344 107.551031 
L 513.732057 102.328259 
L 519.07177 114.266021 
L 524.411483 144.307319 
L 529.751196 128.846259 
L 535.090909 155.851301 
L 540.430622 170.317549 
L 545.770335 185.923686 
L 551.110048 190.928841 
L 556.449761 196.389953 
L 561.789474 196.161976 
L 567.129187 210.514234 
L 572.4689 217.187775 
L 577.808612 251.923347 
L 583.148325 217.457203 
L 588.488038 208.213727 
L 593.827751 205.716331 
L 599.167464 164.960063 
L 604.507177 125.654565 
L 609.84689 97.095126 
L 615.186603 55.8 
L 620.526316 70.618578 
L 625.866029 83.57188 
L 631.205742 103.240172 
L 636.545455 99.281643 
L 641.885167 136.483525 
L 647.22488 134.317733 
L 652.564593 138.048284 
L 657.904306 157.986005 
L 663.244019 145.789177 
L 668.583732 155.840939 
L 673.923445 167.322746 
L 679.263158 166.711349 
L 684.602871 167.830515 
L 689.942584 178.825277 
L 695.282297 174.493693 
L 700.62201 193.768204 
L 705.961722 217.104873 
L 711.301435 231.985626 
L 716.641148 216.462389 
L 721.980861 220.161853 
L 727.320574 163.478205 
L 732.660287 120.02765 
L 738 110.960339 
L 743.339713 97.561444 
L 748.679426 75.17814 
L 754.019139 81.437176 
L 759.358852 90.134464 
L 764.698565 98.608072 
L 770.038278 108.949988 
L 775.37799 162.048161 
L 780.717703 176.255342 
L 786.057416 160.172523 
L 791.397129 134.514622 
L 796.736842 143.260693 
L 802.076555 192.628315 
L 807.416268 246.876741 
L 812.755981 252.254952 
L 818.095694 257.93368 
L 823.435407 246.959643 
L 828.77512 224.514161 
L 834.114833 228.721394 
L 839.454545 250.006259 
L 844.794258 247.099371 
L 850.133971 229.346387 
L 855.473684 212.700751 
L 860.813397 167.581811 
L 866.15311 108.203877 
L 871.492823 83.21955 
L 876.832536 100.836039 
L 882.172249 93.913795 
L 887.511962 93.54074 
L 892.851675 115.561352 
L 898.191388 149.074134 
L 903.5311 168.763152 
L 908.870813 150.566354 
L 914.210526 165.778712 
L 919.550239 168.75279 
L 924.889952 154.649235 
L 930.229665 159.291699 
L 935.569378 148.462738 
L 940.909091 170.182833 
L 946.248804 183.011784 
L 951.588517 178.317506 
L 956.92823 193.032457 
L 962.267943 213.001267 
L 967.607656 236.483012 
L 972.947368 233.954528 
L 978.287081 214.949444 
L 983.626794 172.203549 
L 988.966507 130.46283 
L 994.30622 106.483679 
L 999.645933 137.032745 
L 1004.985646 120.245265 
L 1010.325359 117.924035 
L 1015.665072 132.338468 
L 1021.004785 139.778844 
L 1026.344498 167.529999 
L 1031.684211 184.089499 
L 1037.023923 173.685407 
L 1042.363636 196.213788 
L 1047.703349 201.996142 
L 1053.043062 174.348616 
L 1058.382775 196.607569 
L 1063.722488 197.084251 
L 1069.062201 213.996081 
L 1074.401914 243.415619 
L 1079.741627 242.400081 
L 1085.08134 249.964809 
L 1090.421053 246.265345 
L 1095.760766 215.457213 
L 1101.100478 244.141004 
L 1106.440191 262.804121 
L 1111.779904 231.052988 
L 1117.119617 214.576389 
L 1122.45933 181.105058 
L 1127.799043 131.250391 
L 1133.138756 113.105406 
L 1138.478469 106.929272 
L 1143.818182 113.115768 
L 1149.157895 112.24658 
L 1154.497608 131.277869 
L 1159.837321 133.343644 
L 1165.177033 145.488661 
L 1170.516746 175.820111 
L 1175.856459 190.472885 
L 1181.196172 154.07929 
L 1186.535885 137.571603 
L 1191.875598 150.172574 
L 1197.215311 170.390087 
L 1202.555024 180.555838 
L 1207.894737 203.177484 
L 1213.23445 215.747367 
L 1218.574163 238.037408 
L 1223.913876 245.944104 
L 1229.253589 244.130641 
L 1234.593301 203.965044 
L 1239.933014 147.447199 
L 1245.272727 110.141691 
L 1245.272727 110.141691 
" clip-path="url(#pb04ea6cbd3)" style="fill: none; stroke: #ffa500; stroke-width: 1.5; stroke-linecap: square"/>
   </g>
   <g id="patch_3">
    <path d="M 180 320.4 
L 180 43.2 
" style="fill: none; stroke: #000000; stroke-width: 0.8; stroke-linejoin: miter; stroke-linecap: square"/>
   </g>
   <g id="patch_4">
    <path d="M 1296 320.4 
L 1296 43.2 
" style="fill: none; stroke: #000000; stroke-width: 0.8; stroke-linejoin: miter; stroke-linecap: square"/>
   </g>
   <g id="patch_5">
    <path d="M 180 320.4 
L 1296 320.4 
" style="fill: none; stroke: #000000; stroke-width: 0.8; stroke-linejoin: miter; stroke-linecap: square"/>
   </g>
   <g id="patch_6">
    <path d="M 180 43.2 
L 1296 43.2 
" style="fill: none; stroke: #000000; stroke-width: 0.8; stroke-linejoin: miter; stroke-linecap: square"/>
   </g>
   <g id="text_18">
    <!-- Previsão do vento para 1 hora(s) à frente com 8 camadas -->
    <g transform="translate(564.882187 37.2) scale(0.12 -0.12)">
     <defs>
      <path id="DejaVuSans-50" d="M 1259 4147 
L 1259 2394 
L 2053 2394 
Q 2494 2394 2734 2622 
Q 2975 2850 2975 3272 
Q 2975 3691 2734 3919 
Q 2494 4147 2053 4147 
L 1259 4147 
z
M 628 4666 
L 2053 4666 
Q 2838 4666 3239 4311 
Q 3641 3956 3641 3272 
Q 3641 2581 3239 2228 
Q 2838 1875 2053 1875 
L 1259 1875 
L 1259 0 
L 628 0 
L 628 4666 
z
" transform="scale(0.015625)"/>
      <path id="DejaVuSans-76" d="M 191 3500 
L 800 3500 
L 1894 563 
L 2988 3500 
L 3597 3500 
L 2284 0 
L 1503 0 
L 191 3500 
z
" transform="scale(0.015625)"/>
      <path id="DejaVuSans-e3" d="M 2194 1759 
Q 1497 1759 1228 1600 
Q 959 1441 959 1056 
Q 959 750 1161 570 
Q 1363 391 1709 391 
Q 2188 391 2477 730 
Q 2766 1069 2766 1631 
L 2766 1759 
L 2194 1759 
z
M 3341 1997 
L 3341 0 
L 2766 0 
L 2766 531 
Q 2569 213 2275 61 
Q 1981 -91 1556 -91 
Q 1019 -91 701 211 
Q 384 513 384 1019 
Q 384 1609 779 1909 
Q 1175 2209 1959 2209 
L 2766 2209 
L 2766 2266 
Q 2766 2663 2505 2880 
Q 2244 3097 1772 3097 
Q 1472 3097 1187 3025 
Q 903 2953 641 2809 
L 641 3341 
Q 956 3463 1253 3523 
Q 1550 3584 1831 3584 
Q 2591 3584 2966 3190 
Q 3341 2797 3341 1997 
z
M 1844 4281 
L 1666 4453 
Q 1597 4516 1545 4545 
Q 1494 4575 1453 4575 
Q 1334 4575 1278 4461 
Q 1222 4347 1216 4091 
L 825 4091 
Q 831 4513 990 4742 
Q 1150 4972 1434 4972 
Q 1553 4972 1653 4928 
Q 1753 4884 1869 4781 
L 2047 4609 
Q 2116 4547 2167 4517 
Q 2219 4488 2259 4488 
Q 2378 4488 2434 4602 
Q 2491 4716 2497 4972 
L 2888 4972 
Q 2881 4550 2722 4320 
Q 2563 4091 2278 4091 
Q 2159 4091 2059 4134 
Q 1959 4178 1844 4281 
z
" transform="scale(0.015625)"/>
      <path id="DejaVuSans-70" d="M 1159 525 
L 1159 -1331 
L 581 -1331 
L 581 3500 
L 1159 3500 
L 1159 2969 
Q 1341 3281 1617 3432 
Q 1894 3584 2278 3584 
Q 2916 3584 3314 3078 
Q 3713 2572 3713 1747 
Q 3713 922 3314 415 
Q 2916 -91 2278 -91 
Q 1894 -91 1617 61 
Q 1341 213 1159 525 
z
M 3116 1747 
Q 3116 2381 2855 2742 
Q 2594 3103 2138 3103 
Q 1681 3103 1420 2742 
Q 1159 2381 1159 1747 
Q 1159 1113 1420 752 
Q 1681 391 2138 391 
Q 2594 391 2855 752 
Q 3116 1113 3116 1747 
z
" transform="scale(0.015625)"/>
      <path id="DejaVuSans-68" d="M 3513 2113 
L 3513 0 
L 2938 0 
L 2938 2094 
Q 2938 2591 2744 2837 
Q 2550 3084 2163 3084 
Q 1697 3084 1428 2787 
Q 1159 2491 1159 1978 
L 1159 0 
L 581 0 
L 581 4863 
L 1159 4863 
L 1159 2956 
Q 1366 3272 1645 3428 
Q 1925 3584 2291 3584 
Q 2894 3584 3203 3211 
Q 3513 2838 3513 2113 
z
" transform="scale(0.015625)"/>
      <path id="DejaVuSans-e0" d="M 2194 1759 
Q 1497 1759 1228 1600 
Q 959 1441 959 1056 
Q 959 750 1161 570 
Q 1363 391 1709 391 
Q 2188 391 2477 730 
Q 2766 1069 2766 1631 
L 2766 1759 
L 2194 1759 
z
M 3341 1997 
L 3341 0 
L 2766 0 
L 2766 531 
Q 2569 213 2275 61 
Q 1981 -91 1556 -91 
Q 1019 -91 701 211 
Q 384 513 384 1019 
Q 384 1609 779 1909 
Q 1175 2209 1959 2209 
L 2766 2209 
L 2766 2266 
Q 2766 2663 2505 2880 
Q 2244 3097 1772 3097 
Q 1472 3097 1187 3025 
Q 903 2953 641 2809 
L 641 3341 
Q 956 3463 1253 3523 
Q 1550 3584 1831 3584 
Q 2591 3584 2966 3190 
Q 3341 2797 3341 1997 
z
M 1403 5119 
L 2284 3950 
L 1806 3950 
L 788 5119 
L 1403 5119 
z
" transform="scale(0.015625)"/>
      <path id="DejaVuSans-66" d="M 2375 4863 
L 2375 4384 
L 1825 4384 
Q 1516 4384 1395 4259 
Q 1275 4134 1275 3809 
L 1275 3500 
L 2222 3500 
L 2222 3053 
L 1275 3053 
L 1275 0 
L 697 0 
L 697 3053 
L 147 3053 
L 147 3500 
L 697 3500 
L 697 3744 
Q 697 4328 969 4595 
Q 1241 4863 1831 4863 
L 2375 4863 
z
" transform="scale(0.015625)"/>
     </defs>
     <use xlink:href="#DejaVuSans-50"/>
     <use xlink:href="#DejaVuSans-72" x="58.552734"/>
     <use xlink:href="#DejaVuSans-65" x="97.416016"/>
     <use xlink:href="#DejaVuSans-76" x="158.939453"/>
     <use xlink:href="#DejaVuSans-69" x="218.119141"/>
     <use xlink:href="#DejaVuSans-73" x="245.902344"/>
     <use xlink:href="#DejaVuSans-e3" x="298.001953"/>
     <use xlink:href="#DejaVuSans-6f" x="359.28125"/>
     <use xlink:href="#DejaVuSans-20" x="420.462891"/>
     <use xlink:href="#DejaVuSans-64" x="452.25"/>
     <use xlink:href="#DejaVuSans-6f" x="515.726562"/>
     <use xlink:href="#DejaVuSans-20" x="576.908203"/>
     <use xlink:href="#DejaVuSans-76" x="608.695312"/>
     <use xlink:href="#DejaVuSans-65" x="667.875"/>
     <use xlink:href="#DejaVuSans-6e" x="729.398438"/>
     <use xlink:href="#DejaVuSans-74" x="792.777344"/>
     <use xlink:href="#DejaVuSans-6f" x="831.986328"/>
     <use xlink:href="#DejaVuSans-20" x="893.167969"/>
     <use xlink:href="#DejaVuSans-70" x="924.955078"/>
     <use xlink:href="#DejaVuSans-61" x="988.431641"/>
     <use xlink:href="#DejaVuSans-72" x="1049.710938"/>
     <use xlink:href="#DejaVuSans-61" x="1090.824219"/>
     <use xlink:href="#DejaVuSans-20" x="1152.103516"/>
     <use xlink:href="#DejaVuSans-31" x="1183.890625"/>
     <use xlink:href="#DejaVuSans-20" x="1247.513672"/>
     <use xlink:href="#DejaVuSans-68" x="1279.300781"/>
     <use xlink:href="#DejaVuSans-6f" x="1342.679688"/>
     <use xlink:href="#DejaVuSans-72" x="1403.861328"/>
     <use xlink:href="#DejaVuSans-61" x="1444.974609"/>
     <use xlink:href="#DejaVuSans-28" x="1506.253906"/>
     <use xlink:href="#DejaVuSans-73" x="1545.267578"/>
     <use xlink:href="#DejaVuSans-29" x="1597.367188"/>
     <use xlink:href="#DejaVuSans-20" x="1636.380859"/>
     <use xlink:href="#DejaVuSans-e0" x="1668.167969"/>
     <use xlink:href="#DejaVuSans-20" x="1729.447266"/>
     <use xlink:href="#DejaVuSans-66" x="1761.234375"/>
     <use xlink:href="#DejaVuSans-72" x="1796.439453"/>
     <use xlink:href="#DejaVuSans-65" x="1835.302734"/>
     <use xlink:href="#DejaVuSans-6e" x="1896.826172"/>
     <use xlink:href="#DejaVuSans-74" x="1960.205078"/>
     <use xlink:href="#DejaVuSans-65" x="1999.414062"/>
     <use xlink:href="#DejaVuSans-20" x="2060.9375"/>
     <use xlink:href="#DejaVuSans-63" x="2092.724609"/>
     <use xlink:href="#DejaVuSans-6f" x="2147.705078"/>
     <use xlink:href="#DejaVuSans-6d" x="2208.886719"/>
     <use xlink:href="#DejaVuSans-20" x="2306.298828"/>
     <use xlink:href="#DejaVuSans-38" x="2338.085938"/>
     <use xlink:href="#DejaVuSans-20" x="2401.708984"/>
     <use xlink:href="#DejaVuSans-63" x="2433.496094"/>
     <use xlink:href="#DejaVuSans-61" x="2488.476562"/>
     <use xlink:href="#DejaVuSans-6d" x="2549.755859"/>
     <use xlink:href="#DejaVuSans-61" x="2647.167969"/>
     <use xlink:href="#DejaVuSans-64" x="2708.447266"/>
     <use xlink:href="#DejaVuSans-61" x="2771.923828"/>
     <use xlink:href="#DejaVuSans-73" x="2833.203125"/>
    </g>
   </g>
   <g id="legend_1">
    <g id="patch_7">
     <path d="M 1217.86875 80.55625 
L 1289 80.55625 
Q 1291 80.55625 1291 78.55625 
L 1291 50.2 
Q 1291 48.2 1289 48.2 
L 1217.86875 48.2 
Q 1215.86875 48.2 1215.86875 50.2 
L 1215.86875 78.55625 
Q 1215.86875 80.55625 1217.86875 80.55625 
z
" style="fill: #ffffff; opacity: 0.8; stroke: #cccccc; stroke-linejoin: miter"/>
    </g>
    <g id="line2d_18">
     <path d="M 1219.86875 56.298437 
L 1229.86875 56.298437 
L 1239.86875 56.298437 
" style="fill: none; stroke: #0000ff; stroke-width: 1.5; stroke-linecap: square"/>
    </g>
    <g id="text_19">
     <!-- Predito -->
     <g transform="translate(1247.86875 59.798437) scale(0.1 -0.1)">
      <use xlink:href="#DejaVuSans-50"/>
      <use xlink:href="#DejaVuSans-72" x="58.552734"/>
      <use xlink:href="#DejaVuSans-65" x="97.416016"/>
      <use xlink:href="#DejaVuSans-64" x="158.939453"/>
      <use xlink:href="#DejaVuSans-69" x="222.416016"/>
      <use xlink:href="#DejaVuSans-74" x="250.199219"/>
      <use xlink:href="#DejaVuSans-6f" x="289.408203"/>
     </g>
    </g>
    <g id="line2d_19">
     <path d="M 1219.86875 70.976562 
L 1229.86875 70.976562 
L 1239.86875 70.976562 
" style="fill: none; stroke: #ffa500; stroke-width: 1.5; stroke-linecap: square"/>
    </g>
    <g id="text_20">
     <!-- Original -->
     <g transform="translate(1247.86875 74.476562) scale(0.1 -0.1)">
      <defs>
       <path id="DejaVuSans-4f" d="M 2522 4238 
Q 1834 4238 1429 3725 
Q 1025 3213 1025 2328 
Q 1025 1447 1429 934 
Q 1834 422 2522 422 
Q 3209 422 3611 934 
Q 4013 1447 4013 2328 
Q 4013 3213 3611 3725 
Q 3209 4238 2522 4238 
z
M 2522 4750 
Q 3503 4750 4090 4092 
Q 4678 3434 4678 2328 
Q 4678 1225 4090 567 
Q 3503 -91 2522 -91 
Q 1538 -91 948 565 
Q 359 1222 359 2328 
Q 359 3434 948 4092 
Q 1538 4750 2522 4750 
z
" transform="scale(0.015625)"/>
       <path id="DejaVuSans-67" d="M 2906 1791 
Q 2906 2416 2648 2759 
Q 2391 3103 1925 3103 
Q 1463 3103 1205 2759 
Q 947 2416 947 1791 
Q 947 1169 1205 825 
Q 1463 481 1925 481 
Q 2391 481 2648 825 
Q 2906 1169 2906 1791 
z
M 3481 434 
Q 3481 -459 3084 -895 
Q 2688 -1331 1869 -1331 
Q 1566 -1331 1297 -1286 
Q 1028 -1241 775 -1147 
L 775 -588 
Q 1028 -725 1275 -790 
Q 1522 -856 1778 -856 
Q 2344 -856 2625 -561 
Q 2906 -266 2906 331 
L 2906 616 
Q 2728 306 2450 153 
Q 2172 0 1784 0 
Q 1141 0 747 490 
Q 353 981 353 1791 
Q 353 2603 747 3093 
Q 1141 3584 1784 3584 
Q 2172 3584 2450 3431 
Q 2728 3278 2906 2969 
L 2906 3500 
L 3481 3500 
L 3481 434 
z
" transform="scale(0.015625)"/>
      </defs>
      <use xlink:href="#DejaVuSans-4f"/>
      <use xlink:href="#DejaVuSans-72" x="78.710938"/>
      <use xlink:href="#DejaVuSans-69" x="119.824219"/>
      <use xlink:href="#DejaVuSans-67" x="147.607422"/>
      <use xlink:href="#DejaVuSans-69" x="211.083984"/>
      <use xlink:href="#DejaVuSans-6e" x="238.867188"/>
      <use xlink:href="#DejaVuSans-61" x="302.246094"/>
      <use xlink:href="#DejaVuSans-6c" x="363.525391"/>
     </g>
    </g>
   </g>
  </g>
 </g>
 <defs>
  <clipPath id="pb04ea6cbd3">
   <rect x="180" y="43.2" width="1116" height="277.2"/>
  </clipPath>
 </defs>
</svg>
