<?xml version="1.0" encoding="utf-8" standalone="no"?>
<!DOCTYPE svg PUBLIC "-//W3C//DTD SVG 1.1//EN"
  "http://www.w3.org/Graphics/SVG/1.1/DTD/svg11.dtd">
<svg xmlns:xlink="http://www.w3.org/1999/xlink" width="1440pt" height="360pt" viewBox="0 0 1440 360" xmlns="http://www.w3.org/2000/svg" version="1.1">
 <metadata>
  <rdf:RDF xmlns:dc="http://purl.org/dc/elements/1.1/" xmlns:cc="http://creativecommons.org/ns#" xmlns:rdf="http://www.w3.org/1999/02/22-rdf-syntax-ns#">
   <cc:Work>
    <dc:type rdf:resource="http://purl.org/dc/dcmitype/StillImage"/>
    <dc:date>2023-08-21T14:46:43.878016</dc:date>
    <dc:format>image/svg+xml</dc:format>
    <dc:creator>
     <cc:Agent>
      <dc:title>Matplotlib v3.7.1, https://matplotlib.org/</dc:title>
     </cc:Agent>
    </dc:creator>
   </cc:Work>
  </rdf:RDF>
 </metadata>
 <defs>
  <style type="text/css">*{stroke-linejoin: round; stroke-linecap: butt}</style>
 </defs>
 <g id="figure_1">
  <g id="patch_1">
   <path d="M 0 360 
L 1440 360 
L 1440 0 
L 0 0 
z
" style="fill: #ffffff"/>
  </g>
  <g id="axes_1">
   <g id="patch_2">
    <path d="M 180 320.4 
L 1296 320.4 
L 1296 43.2 
L 180 43.2 
z
" style="fill: #ffffff"/>
   </g>
   <g id="PolyCollection_1">
    <defs>
     <path id="mbebf2be4ba" d="M 230.727273 -248.557526 
L 230.727273 -180.66838 
L 236.066986 -159.619134 
L 241.406699 -151.736924 
L 246.746411 -160.118315 
L 252.086124 -147.609021 
L 257.425837 -150.738007 
L 262.76555 -152.493444 
L 268.105263 -158.05021 
L 273.444976 -161.069462 
L 278.784689 -155.045262 
L 284.124402 -135.748136 
L 289.464115 -127.220246 
L 294.803828 -97.016263 
L 300.143541 -106.747954 
L 305.483254 -97.264556 
L 310.822967 -82.225467 
L 316.162679 -78.675949 
L 321.502392 -71.093299 
L 326.842105 -65.572003 
L 332.181818 -70.07171 
L 337.521531 -83.360772 
L 342.861244 -95.908614 
L 348.200957 -137.273778 
L 353.54067 -170.335994 
L 358.880383 -192.137845 
L 364.220096 -205.297458 
L 369.559809 -207.912004 
L 374.899522 -207.265631 
L 380.239234 -210.61496 
L 385.578947 -193.462065 
L 390.91866 -176.406301 
L 396.258373 -152.068385 
L 401.598086 -146.793799 
L 406.937799 -145.814279 
L 412.277512 -152.101977 
L 417.617225 -163.445907 
L 422.956938 -144.564467 
L 428.296651 -123.469098 
L 433.636364 -128.305991 
L 438.976077 -130.067332 
L 444.315789 -133.860226 
L 449.655502 -137.568306 
L 454.995215 -121.540953 
L 460.334928 -116.706161 
L 465.674641 -145.291501 
L 471.014354 -157.150126 
L 476.354067 -152.027171 
L 481.69378 -162.173371 
L 487.033493 -207.446367 
L 492.373206 -222.62205 
L 497.712919 -218.008779 
L 503.052632 -205.386218 
L 508.392344 -199.71014 
L 513.732057 -201.758895 
L 519.07177 -196.209227 
L 524.411483 -190.499414 
L 529.751196 -172.683693 
L 535.090909 -178.722039 
L 540.430622 -162.475744 
L 545.770335 -150.395758 
L 551.110048 -131.193327 
L 556.449761 -124.818691 
L 561.789474 -118.72734 
L 567.129187 -117.233762 
L 572.4689 -99.825731 
L 577.808612 -93.648762 
L 583.148325 -70.330032 
L 588.488038 -110.867957 
L 593.827751 -145.019362 
L 599.167464 -152.657297 
L 604.507177 -188.180462 
L 609.84689 -212.91609 
L 615.186603 -220.322798 
L 620.526316 -225.483943 
L 625.866029 -231.00691 
L 631.205742 -236.310854 
L 636.545455 -222.972543 
L 641.885167 -213.992232 
L 647.22488 -191.061513 
L 652.564593 -181.96854 
L 657.904306 -172.843965 
L 663.244019 -156.321474 
L 668.583732 -163.934378 
L 673.923445 -156.811632 
L 679.263158 -146.647848 
L 684.602871 -142.882483 
L 689.942584 -140.328739 
L 695.282297 -128.366212 
L 700.62201 -134.695394 
L 705.961722 -120.215261 
L 711.301435 -100.395197 
L 716.641148 -102.016133 
L 721.980861 -136.466991 
L 727.320574 -147.128395 
L 732.660287 -184.077477 
L 738 -215.955982 
L 743.339713 -217.752012 
L 748.679426 -218.898074 
L 754.019139 -214.772684 
L 759.358852 -227.536644 
L 764.698565 -214.829397 
L 770.038278 -209.370749 
L 775.37799 -200.05414 
L 780.717703 -164.484876 
L 786.057416 -148.528868 
L 791.397129 -153.764166 
L 796.736842 -166.541015 
L 802.076555 -161.145588 
L 807.416268 -116.627624 
L 812.755981 -134.107477 
L 818.095694 -133.113015 
L 823.435407 -52.2 
L 828.77512 -65.459898 
L 834.114833 -95.519231 
L 839.454545 -95.490087 
L 844.794258 -95.416929 
L 850.133971 -119.849612 
L 855.473684 -134.004912 
L 860.813397 -136.267303 
L 866.15311 -159.205087 
L 871.492823 -193.908543 
L 876.832536 -209.860095 
L 882.172249 -198.406702 
L 887.511962 -201.27009 
L 892.851675 -196.568949 
L 898.191388 -192.283892 
L 903.5311 -173.087874 
L 908.870813 -157.817948 
L 914.210526 -166.507233 
L 919.550239 -158.137045 
L 924.889952 -152.234116 
L 930.229665 -155.943325 
L 935.569378 -150.527276 
L 940.909091 -160.672282 
L 946.248804 -141.428781 
L 951.588517 -133.655836 
L 956.92823 -142.097893 
L 962.267943 -136.656638 
L 967.607656 -114.462818 
L 972.947368 -104.441381 
L 978.287081 -126.493873 
L 983.626794 -137.23095 
L 988.966507 -172.550345 
L 994.30622 -204.860305 
L 999.645933 -209.979663 
L 1004.985646 -203.964995 
L 1010.325359 -205.381699 
L 1015.665072 -202.444095 
L 1021.004785 -196.262153 
L 1026.344498 -187.303037 
L 1031.684211 -167.04734 
L 1037.023923 -156.788144 
L 1042.363636 -164.684087 
L 1047.703349 -147.218492 
L 1053.043062 -139.826345 
L 1058.382775 -154.474141 
L 1063.722488 -124.023185 
L 1069.062201 -116.501819 
L 1074.401914 -103.716568 
L 1079.741627 -78.746259 
L 1085.08134 -87.538379 
L 1090.421053 -85.634262 
L 1095.760766 -77.610819 
L 1101.100478 -112.612621 
L 1106.440191 -113.324927 
L 1111.779904 -106.843461 
L 1117.119617 -123.940996 
L 1122.45933 -137.189712 
L 1127.799043 -166.077479 
L 1133.138756 -192.8092 
L 1138.478469 -203.455249 
L 1143.818182 -207.881388 
L 1149.157895 -200.017477 
L 1154.497608 -189.890022 
L 1159.837321 -180.280111 
L 1165.177033 -184.833806 
L 1170.516746 -178.824771 
L 1175.856459 -159.951852 
L 1181.196172 -149.133852 
L 1186.535885 -159.66665 
L 1191.875598 -176.671947 
L 1197.215311 -162.670594 
L 1202.555024 -142.295242 
L 1207.894737 -135.06448 
L 1213.23445 -114.433316 
L 1218.574163 -104.503727 
L 1223.913876 -88.307668 
L 1229.253589 -94.961795 
L 1234.593301 -117.92683 
L 1239.933014 -142.512179 
L 1245.272727 -169.179923 
L 1245.272727 -237.069061 
L 1245.272727 -237.069061 
L 1239.933014 -210.401317 
L 1234.593301 -185.815967 
L 1229.253589 -162.850924 
L 1223.913876 -156.196798 
L 1218.574163 -172.392857 
L 1213.23445 -182.322438 
L 1207.894737 -202.953618 
L 1202.555024 -210.184364 
L 1197.215311 -230.559732 
L 1191.875598 -244.561092 
L 1186.535885 -227.555771 
L 1181.196172 -217.022989 
L 1175.856459 -227.84099 
L 1170.516746 -246.713916 
L 1165.177033 -252.722951 
L 1159.837321 -248.169225 
L 1154.497608 -257.779168 
L 1149.157895 -267.906591 
L 1143.818182 -275.770533 
L 1138.478469 -271.344394 
L 1133.138756 -260.698314 
L 1127.799043 -233.966601 
L 1122.45933 -205.07885 
L 1117.119617 -191.830126 
L 1111.779904 -174.732591 
L 1106.440191 -181.214057 
L 1101.100478 -180.501743 
L 1095.760766 -145.499949 
L 1090.421053 -153.523391 
L 1085.08134 -155.427508 
L 1079.741627 -146.635389 
L 1074.401914 -171.605697 
L 1069.062201 -184.390956 
L 1063.722488 -191.912315 
L 1058.382775 -222.363279 
L 1053.043062 -207.715482 
L 1047.703349 -215.107614 
L 1042.363636 -232.573225 
L 1037.023923 -224.677266 
L 1031.684211 -234.936478 
L 1026.344498 -255.192151 
L 1021.004785 -264.151266 
L 1015.665072 -270.333208 
L 1010.325359 -273.270813 
L 1004.985646 -271.854109 
L 999.645933 -277.868809 
L 994.30622 -272.749419 
L 988.966507 -240.439458 
L 983.626794 -205.120079 
L 978.287081 -194.382994 
L 972.947368 -172.330511 
L 967.607656 -182.35194 
L 962.267943 -204.545775 
L 956.92823 -209.987015 
L 951.588517 -201.544965 
L 946.248804 -209.317919 
L 940.909091 -228.56142 
L 935.569378 -218.416397 
L 930.229665 -223.832463 
L 924.889952 -220.123253 
L 919.550239 -226.026183 
L 914.210526 -234.39637 
L 908.870813 -225.70707 
L 903.5311 -240.976988 
L 898.191388 -260.173005 
L 892.851675 -264.458094 
L 887.511962 -269.159204 
L 882.172249 -266.295848 
L 876.832536 -277.749209 
L 871.492823 -261.797656 
L 866.15311 -227.094209 
L 860.813397 -204.156424 
L 855.473684 -201.894042 
L 850.133971 -187.738742 
L 844.794258 -163.306058 
L 839.454545 -163.379217 
L 834.114833 -163.408361 
L 828.77512 -133.349024 
L 823.435407 -120.08913 
L 818.095694 -201.002153 
L 812.755981 -201.996599 
L 807.416268 -184.516762 
L 802.076555 -229.034726 
L 796.736842 -234.430137 
L 791.397129 -221.653288 
L 786.057416 -216.41799 
L 780.717703 -232.373998 
L 775.37799 -267.943254 
L 770.038278 -277.259863 
L 764.698565 -282.718543 
L 759.358852 -295.425758 
L 754.019139 -282.661798 
L 748.679426 -286.787187 
L 743.339713 -285.641126 
L 738 -283.845127 
L 732.660287 -251.966623 
L 727.320574 -215.017516 
L 721.980861 -204.356128 
L 716.641148 -169.905262 
L 711.301435 -168.284327 
L 705.961722 -188.104399 
L 700.62201 -202.584524 
L 695.282297 -196.255342 
L 689.942584 -208.217877 
L 684.602871 -210.771604 
L 679.263158 -214.536986 
L 673.923445 -224.700753 
L 668.583732 -231.823516 
L 663.244019 -224.210611 
L 657.904306 -240.733111 
L 652.564593 -249.857654 
L 647.22488 -258.950626 
L 641.885167 -281.881377 
L 636.545455 -290.861688 
L 631.205742 -304.2 
L 625.866029 -298.896055 
L 620.526316 -293.373056 
L 615.186603 -288.211944 
L 609.84689 -280.805236 
L 604.507177 -256.069607 
L 599.167464 -220.546435 
L 593.827751 -212.908484 
L 588.488038 -178.757078 
L 583.148325 -138.219158 
L 577.808612 -161.537891 
L 572.4689 -167.71486 
L 567.129187 -185.122891 
L 561.789474 -186.61647 
L 556.449761 -192.707821 
L 551.110048 -199.082449 
L 545.770335 -218.284895 
L 540.430622 -230.364865 
L 535.090909 -246.611184 
L 529.751196 -240.572806 
L 524.411483 -258.388528 
L 519.07177 -264.098373 
L 513.732057 -269.648041 
L 508.392344 -267.599254 
L 503.052632 -273.275364 
L 497.712919 -285.897892 
L 492.373206 -290.511196 
L 487.033493 -275.335481 
L 481.69378 -230.062493 
L 476.354067 -219.916293 
L 471.014354 -225.039247 
L 465.674641 -213.180622 
L 460.334928 -184.595291 
L 454.995215 -189.430083 
L 449.655502 -205.457444 
L 444.315789 -201.749348 
L 438.976077 -197.956469 
L 433.636364 -196.195128 
L 428.296651 -191.35822 
L 422.956938 -212.453605 
L 417.617225 -231.335029 
L 412.277512 -219.991114 
L 406.937799 -213.703417 
L 401.598086 -214.682937 
L 396.258373 -219.957507 
L 390.91866 -244.295446 
L 385.578947 -261.351179 
L 380.239234 -278.504074 
L 374.899522 -275.154745 
L 369.559809 -275.801117 
L 364.220096 -273.186571 
L 358.880383 -260.026959 
L 353.54067 -238.225116 
L 348.200957 -205.1629 
L 342.861244 -163.797744 
L 337.521531 -151.249902 
L 332.181818 -137.96084 
L 326.842105 -133.461128 
L 321.502392 -138.982424 
L 316.162679 -146.565079 
L 310.822967 -150.114597 
L 305.483254 -165.153686 
L 300.143541 -174.637083 
L 294.803828 -164.905392 
L 289.464115 -195.109376 
L 284.124402 -203.637258 
L 278.784689 -222.934384 
L 273.444976 -228.9586 
L 268.105263 -225.939331 
L 262.76555 -220.382566 
L 257.425837 -218.627145 
L 252.086124 -215.498142 
L 246.746411 -228.007436 
L 241.406699 -219.626046 
L 236.066986 -227.508256 
L 230.727273 -248.557526 
z
" style="stroke: #0000ff; stroke-opacity: 0.05"/>
    </defs>
    <g clip-path="url(#p9120d322a6)">
     <use xlink:href="#mbebf2be4ba" x="0" y="360" style="fill: #0000ff; fill-opacity: 0.05; stroke: #0000ff; stroke-opacity: 0.05"/>
    </g>
   </g>
   <g id="matplotlib.axis_1">
    <g id="xtick_1">
     <g id="line2d_1">
      <defs>
       <path id="me4fd6cc078" d="M 0 0 
L 0 3.5 
" style="stroke: #000000; stroke-width: 0.8"/>
      </defs>
      <g>
       <use xlink:href="#me4fd6cc078" x="230.727273" y="320.4" style="stroke: #000000; stroke-width: 0.8"/>
      </g>
     </g>
     <g id="text_1">
      <!-- 0 -->
      <g transform="translate(227.546023 334.998438) scale(0.1 -0.1)">
       <defs>
        <path id="DejaVuSans-30" d="M 2034 4250 
Q 1547 4250 1301 3770 
Q 1056 3291 1056 2328 
Q 1056 1369 1301 889 
Q 1547 409 2034 409 
Q 2525 409 2770 889 
Q 3016 1369 3016 2328 
Q 3016 3291 2770 3770 
Q 2525 4250 2034 4250 
z
M 2034 4750 
Q 2819 4750 3233 4129 
Q 3647 3509 3647 2328 
Q 3647 1150 3233 529 
Q 2819 -91 2034 -91 
Q 1250 -91 836 529 
Q 422 1150 422 2328 
Q 422 3509 836 4129 
Q 1250 4750 2034 4750 
z
" transform="scale(0.015625)"/>
       </defs>
       <use xlink:href="#DejaVuSans-30"/>
      </g>
     </g>
    </g>
    <g id="xtick_2">
     <g id="line2d_2">
      <g>
       <use xlink:href="#me4fd6cc078" x="364.220096" y="320.4" style="stroke: #000000; stroke-width: 0.8"/>
      </g>
     </g>
     <g id="text_2">
      <!-- 25 -->
      <g transform="translate(357.857596 334.998438) scale(0.1 -0.1)">
       <defs>
        <path id="DejaVuSans-32" d="M 1228 531 
L 3431 531 
L 3431 0 
L 469 0 
L 469 531 
Q 828 903 1448 1529 
Q 2069 2156 2228 2338 
Q 2531 2678 2651 2914 
Q 2772 3150 2772 3378 
Q 2772 3750 2511 3984 
Q 2250 4219 1831 4219 
Q 1534 4219 1204 4116 
Q 875 4013 500 3803 
L 500 4441 
Q 881 4594 1212 4672 
Q 1544 4750 1819 4750 
Q 2544 4750 2975 4387 
Q 3406 4025 3406 3419 
Q 3406 3131 3298 2873 
Q 3191 2616 2906 2266 
Q 2828 2175 2409 1742 
Q 1991 1309 1228 531 
z
" transform="scale(0.015625)"/>
        <path id="DejaVuSans-35" d="M 691 4666 
L 3169 4666 
L 3169 4134 
L 1269 4134 
L 1269 2991 
Q 1406 3038 1543 3061 
Q 1681 3084 1819 3084 
Q 2600 3084 3056 2656 
Q 3513 2228 3513 1497 
Q 3513 744 3044 326 
Q 2575 -91 1722 -91 
Q 1428 -91 1123 -41 
Q 819 9 494 109 
L 494 744 
Q 775 591 1075 516 
Q 1375 441 1709 441 
Q 2250 441 2565 725 
Q 2881 1009 2881 1497 
Q 2881 1984 2565 2268 
Q 2250 2553 1709 2553 
Q 1456 2553 1204 2497 
Q 953 2441 691 2322 
L 691 4666 
z
" transform="scale(0.015625)"/>
       </defs>
       <use xlink:href="#DejaVuSans-32"/>
       <use xlink:href="#DejaVuSans-35" x="63.623047"/>
      </g>
     </g>
    </g>
    <g id="xtick_3">
     <g id="line2d_3">
      <g>
       <use xlink:href="#me4fd6cc078" x="497.712919" y="320.4" style="stroke: #000000; stroke-width: 0.8"/>
      </g>
     </g>
     <g id="text_3">
      <!-- 50 -->
      <g transform="translate(491.350419 334.998438) scale(0.1 -0.1)">
       <use xlink:href="#DejaVuSans-35"/>
       <use xlink:href="#DejaVuSans-30" x="63.623047"/>
      </g>
     </g>
    </g>
    <g id="xtick_4">
     <g id="line2d_4">
      <g>
       <use xlink:href="#me4fd6cc078" x="631.205742" y="320.4" style="stroke: #000000; stroke-width: 0.8"/>
      </g>
     </g>
     <g id="text_4">
      <!-- 75 -->
      <g transform="translate(624.843242 334.998438) scale(0.1 -0.1)">
       <defs>
        <path id="DejaVuSans-37" d="M 525 4666 
L 3525 4666 
L 3525 4397 
L 1831 0 
L 1172 0 
L 2766 4134 
L 525 4134 
L 525 4666 
z
" transform="scale(0.015625)"/>
       </defs>
       <use xlink:href="#DejaVuSans-37"/>
       <use xlink:href="#DejaVuSans-35" x="63.623047"/>
      </g>
     </g>
    </g>
    <g id="xtick_5">
     <g id="line2d_5">
      <g>
       <use xlink:href="#me4fd6cc078" x="764.698565" y="320.4" style="stroke: #000000; stroke-width: 0.8"/>
      </g>
     </g>
     <g id="text_5">
      <!-- 100 -->
      <g transform="translate(755.154815 334.998438) scale(0.1 -0.1)">
       <defs>
        <path id="DejaVuSans-31" d="M 794 531 
L 1825 531 
L 1825 4091 
L 703 3866 
L 703 4441 
L 1819 4666 
L 2450 4666 
L 2450 531 
L 3481 531 
L 3481 0 
L 794 0 
L 794 531 
z
" transform="scale(0.015625)"/>
       </defs>
       <use xlink:href="#DejaVuSans-31"/>
       <use xlink:href="#DejaVuSans-30" x="63.623047"/>
       <use xlink:href="#DejaVuSans-30" x="127.246094"/>
      </g>
     </g>
    </g>
    <g id="xtick_6">
     <g id="line2d_6">
      <g>
       <use xlink:href="#me4fd6cc078" x="898.191388" y="320.4" style="stroke: #000000; stroke-width: 0.8"/>
      </g>
     </g>
     <g id="text_6">
      <!-- 125 -->
      <g transform="translate(888.647638 334.998438) scale(0.1 -0.1)">
       <use xlink:href="#DejaVuSans-31"/>
       <use xlink:href="#DejaVuSans-32" x="63.623047"/>
       <use xlink:href="#DejaVuSans-35" x="127.246094"/>
      </g>
     </g>
    </g>
    <g id="xtick_7">
     <g id="line2d_7">
      <g>
       <use xlink:href="#me4fd6cc078" x="1031.684211" y="320.4" style="stroke: #000000; stroke-width: 0.8"/>
      </g>
     </g>
     <g id="text_7">
      <!-- 150 -->
      <g transform="translate(1022.140461 334.998438) scale(0.1 -0.1)">
       <use xlink:href="#DejaVuSans-31"/>
       <use xlink:href="#DejaVuSans-35" x="63.623047"/>
       <use xlink:href="#DejaVuSans-30" x="127.246094"/>
      </g>
     </g>
    </g>
    <g id="xtick_8">
     <g id="line2d_8">
      <g>
       <use xlink:href="#me4fd6cc078" x="1165.177033" y="320.4" style="stroke: #000000; stroke-width: 0.8"/>
      </g>
     </g>
     <g id="text_8">
      <!-- 175 -->
      <g transform="translate(1155.633283 334.998438) scale(0.1 -0.1)">
       <use xlink:href="#DejaVuSans-31"/>
       <use xlink:href="#DejaVuSans-37" x="63.623047"/>
       <use xlink:href="#DejaVuSans-35" x="127.246094"/>
      </g>
     </g>
    </g>
    <g id="text_9">
     <!-- Amostras -->
     <g transform="translate(714.360937 348.676562) scale(0.1 -0.1)">
      <defs>
       <path id="DejaVuSans-41" d="M 2188 4044 
L 1331 1722 
L 3047 1722 
L 2188 4044 
z
M 1831 4666 
L 2547 4666 
L 4325 0 
L 3669 0 
L 3244 1197 
L 1141 1197 
L 716 0 
L 50 0 
L 1831 4666 
z
" transform="scale(0.015625)"/>
       <path id="DejaVuSans-6d" d="M 3328 2828 
Q 3544 3216 3844 3400 
Q 4144 3584 4550 3584 
Q 5097 3584 5394 3201 
Q 5691 2819 5691 2113 
L 5691 0 
L 5113 0 
L 5113 2094 
Q 5113 2597 4934 2840 
Q 4756 3084 4391 3084 
Q 3944 3084 3684 2787 
Q 3425 2491 3425 1978 
L 3425 0 
L 2847 0 
L 2847 2094 
Q 2847 2600 2669 2842 
Q 2491 3084 2119 3084 
Q 1678 3084 1418 2786 
Q 1159 2488 1159 1978 
L 1159 0 
L 581 0 
L 581 3500 
L 1159 3500 
L 1159 2956 
Q 1356 3278 1631 3431 
Q 1906 3584 2284 3584 
Q 2666 3584 2933 3390 
Q 3200 3197 3328 2828 
z
" transform="scale(0.015625)"/>
       <path id="DejaVuSans-6f" d="M 1959 3097 
Q 1497 3097 1228 2736 
Q 959 2375 959 1747 
Q 959 1119 1226 758 
Q 1494 397 1959 397 
Q 2419 397 2687 759 
Q 2956 1122 2956 1747 
Q 2956 2369 2687 2733 
Q 2419 3097 1959 3097 
z
M 1959 3584 
Q 2709 3584 3137 3096 
Q 3566 2609 3566 1747 
Q 3566 888 3137 398 
Q 2709 -91 1959 -91 
Q 1206 -91 779 398 
Q 353 888 353 1747 
Q 353 2609 779 3096 
Q 1206 3584 1959 3584 
z
" transform="scale(0.015625)"/>
       <path id="DejaVuSans-73" d="M 2834 3397 
L 2834 2853 
Q 2591 2978 2328 3040 
Q 2066 3103 1784 3103 
Q 1356 3103 1142 2972 
Q 928 2841 928 2578 
Q 928 2378 1081 2264 
Q 1234 2150 1697 2047 
L 1894 2003 
Q 2506 1872 2764 1633 
Q 3022 1394 3022 966 
Q 3022 478 2636 193 
Q 2250 -91 1575 -91 
Q 1294 -91 989 -36 
Q 684 19 347 128 
L 347 722 
Q 666 556 975 473 
Q 1284 391 1588 391 
Q 1994 391 2212 530 
Q 2431 669 2431 922 
Q 2431 1156 2273 1281 
Q 2116 1406 1581 1522 
L 1381 1569 
Q 847 1681 609 1914 
Q 372 2147 372 2553 
Q 372 3047 722 3315 
Q 1072 3584 1716 3584 
Q 2034 3584 2315 3537 
Q 2597 3491 2834 3397 
z
" transform="scale(0.015625)"/>
       <path id="DejaVuSans-74" d="M 1172 4494 
L 1172 3500 
L 2356 3500 
L 2356 3053 
L 1172 3053 
L 1172 1153 
Q 1172 725 1289 603 
Q 1406 481 1766 481 
L 2356 481 
L 2356 0 
L 1766 0 
Q 1100 0 847 248 
Q 594 497 594 1153 
L 594 3053 
L 172 3053 
L 172 3500 
L 594 3500 
L 594 4494 
L 1172 4494 
z
" transform="scale(0.015625)"/>
       <path id="DejaVuSans-72" d="M 2631 2963 
Q 2534 3019 2420 3045 
Q 2306 3072 2169 3072 
Q 1681 3072 1420 2755 
Q 1159 2438 1159 1844 
L 1159 0 
L 581 0 
L 581 3500 
L 1159 3500 
L 1159 2956 
Q 1341 3275 1631 3429 
Q 1922 3584 2338 3584 
Q 2397 3584 2469 3576 
Q 2541 3569 2628 3553 
L 2631 2963 
z
" transform="scale(0.015625)"/>
       <path id="DejaVuSans-61" d="M 2194 1759 
Q 1497 1759 1228 1600 
Q 959 1441 959 1056 
Q 959 750 1161 570 
Q 1363 391 1709 391 
Q 2188 391 2477 730 
Q 2766 1069 2766 1631 
L 2766 1759 
L 2194 1759 
z
M 3341 1997 
L 3341 0 
L 2766 0 
L 2766 531 
Q 2569 213 2275 61 
Q 1981 -91 1556 -91 
Q 1019 -91 701 211 
Q 384 513 384 1019 
Q 384 1609 779 1909 
Q 1175 2209 1959 2209 
L 2766 2209 
L 2766 2266 
Q 2766 2663 2505 2880 
Q 2244 3097 1772 3097 
Q 1472 3097 1187 3025 
Q 903 2953 641 2809 
L 641 3341 
Q 956 3463 1253 3523 
Q 1550 3584 1831 3584 
Q 2591 3584 2966 3190 
Q 3341 2797 3341 1997 
z
" transform="scale(0.015625)"/>
      </defs>
      <use xlink:href="#DejaVuSans-41"/>
      <use xlink:href="#DejaVuSans-6d" x="68.408203"/>
      <use xlink:href="#DejaVuSans-6f" x="165.820312"/>
      <use xlink:href="#DejaVuSans-73" x="227.001953"/>
      <use xlink:href="#DejaVuSans-74" x="279.101562"/>
      <use xlink:href="#DejaVuSans-72" x="318.310547"/>
      <use xlink:href="#DejaVuSans-61" x="359.423828"/>
      <use xlink:href="#DejaVuSans-73" x="420.703125"/>
     </g>
    </g>
   </g>
   <g id="matplotlib.axis_2">
    <g id="ytick_1">
     <g id="line2d_9">
      <defs>
       <path id="m9a0c94087d" d="M 0 0 
L -3.5 0 
" style="stroke: #000000; stroke-width: 0.8"/>
      </defs>
      <g>
       <use xlink:href="#m9a0c94087d" x="180" y="287.725651" style="stroke: #000000; stroke-width: 0.8"/>
      </g>
     </g>
     <g id="text_10">
      <!-- 2 -->
      <g transform="translate(166.6375 291.52487) scale(0.1 -0.1)">
       <use xlink:href="#DejaVuSans-32"/>
      </g>
     </g>
    </g>
    <g id="ytick_2">
     <g id="line2d_10">
      <g>
       <use xlink:href="#m9a0c94087d" x="180" y="254.35438" style="stroke: #000000; stroke-width: 0.8"/>
      </g>
     </g>
     <g id="text_11">
      <!-- 4 -->
      <g transform="translate(166.6375 258.153599) scale(0.1 -0.1)">
       <defs>
        <path id="DejaVuSans-34" d="M 2419 4116 
L 825 1625 
L 2419 1625 
L 2419 4116 
z
M 2253 4666 
L 3047 4666 
L 3047 1625 
L 3713 1625 
L 3713 1100 
L 3047 1100 
L 3047 0 
L 2419 0 
L 2419 1100 
L 313 1100 
L 313 1709 
L 2253 4666 
z
" transform="scale(0.015625)"/>
       </defs>
       <use xlink:href="#DejaVuSans-34"/>
      </g>
     </g>
    </g>
    <g id="ytick_3">
     <g id="line2d_11">
      <g>
       <use xlink:href="#m9a0c94087d" x="180" y="220.983109" style="stroke: #000000; stroke-width: 0.8"/>
      </g>
     </g>
     <g id="text_12">
      <!-- 6 -->
      <g transform="translate(166.6375 224.782327) scale(0.1 -0.1)">
       <defs>
        <path id="DejaVuSans-36" d="M 2113 2584 
Q 1688 2584 1439 2293 
Q 1191 2003 1191 1497 
Q 1191 994 1439 701 
Q 1688 409 2113 409 
Q 2538 409 2786 701 
Q 3034 994 3034 1497 
Q 3034 2003 2786 2293 
Q 2538 2584 2113 2584 
z
M 3366 4563 
L 3366 3988 
Q 3128 4100 2886 4159 
Q 2644 4219 2406 4219 
Q 1781 4219 1451 3797 
Q 1122 3375 1075 2522 
Q 1259 2794 1537 2939 
Q 1816 3084 2150 3084 
Q 2853 3084 3261 2657 
Q 3669 2231 3669 1497 
Q 3669 778 3244 343 
Q 2819 -91 2113 -91 
Q 1303 -91 875 529 
Q 447 1150 447 2328 
Q 447 3434 972 4092 
Q 1497 4750 2381 4750 
Q 2619 4750 2861 4703 
Q 3103 4656 3366 4563 
z
" transform="scale(0.015625)"/>
       </defs>
       <use xlink:href="#DejaVuSans-36"/>
      </g>
     </g>
    </g>
    <g id="ytick_4">
     <g id="line2d_12">
      <g>
       <use xlink:href="#m9a0c94087d" x="180" y="187.611837" style="stroke: #000000; stroke-width: 0.8"/>
      </g>
     </g>
     <g id="text_13">
      <!-- 8 -->
      <g transform="translate(166.6375 191.411056) scale(0.1 -0.1)">
       <defs>
        <path id="DejaVuSans-38" d="M 2034 2216 
Q 1584 2216 1326 1975 
Q 1069 1734 1069 1313 
Q 1069 891 1326 650 
Q 1584 409 2034 409 
Q 2484 409 2743 651 
Q 3003 894 3003 1313 
Q 3003 1734 2745 1975 
Q 2488 2216 2034 2216 
z
M 1403 2484 
Q 997 2584 770 2862 
Q 544 3141 544 3541 
Q 544 4100 942 4425 
Q 1341 4750 2034 4750 
Q 2731 4750 3128 4425 
Q 3525 4100 3525 3541 
Q 3525 3141 3298 2862 
Q 3072 2584 2669 2484 
Q 3125 2378 3379 2068 
Q 3634 1759 3634 1313 
Q 3634 634 3220 271 
Q 2806 -91 2034 -91 
Q 1263 -91 848 271 
Q 434 634 434 1313 
Q 434 1759 690 2068 
Q 947 2378 1403 2484 
z
M 1172 3481 
Q 1172 3119 1398 2916 
Q 1625 2713 2034 2713 
Q 2441 2713 2670 2916 
Q 2900 3119 2900 3481 
Q 2900 3844 2670 4047 
Q 2441 4250 2034 4250 
Q 1625 4250 1398 4047 
Q 1172 3844 1172 3481 
z
" transform="scale(0.015625)"/>
       </defs>
       <use xlink:href="#DejaVuSans-38"/>
      </g>
     </g>
    </g>
    <g id="ytick_5">
     <g id="line2d_13">
      <g>
       <use xlink:href="#m9a0c94087d" x="180" y="154.240566" style="stroke: #000000; stroke-width: 0.8"/>
      </g>
     </g>
     <g id="text_14">
      <!-- 10 -->
      <g transform="translate(160.275 158.039785) scale(0.1 -0.1)">
       <use xlink:href="#DejaVuSans-31"/>
       <use xlink:href="#DejaVuSans-30" x="63.623047"/>
      </g>
     </g>
    </g>
    <g id="ytick_6">
     <g id="line2d_14">
      <g>
       <use xlink:href="#m9a0c94087d" x="180" y="120.869295" style="stroke: #000000; stroke-width: 0.8"/>
      </g>
     </g>
     <g id="text_15">
      <!-- 12 -->
      <g transform="translate(160.275 124.668513) scale(0.1 -0.1)">
       <use xlink:href="#DejaVuSans-31"/>
       <use xlink:href="#DejaVuSans-32" x="63.623047"/>
      </g>
     </g>
    </g>
    <g id="ytick_7">
     <g id="line2d_15">
      <g>
       <use xlink:href="#m9a0c94087d" x="180" y="87.498023" style="stroke: #000000; stroke-width: 0.8"/>
      </g>
     </g>
     <g id="text_16">
      <!-- 14 -->
      <g transform="translate(160.275 91.297242) scale(0.1 -0.1)">
       <use xlink:href="#DejaVuSans-31"/>
       <use xlink:href="#DejaVuSans-34" x="63.623047"/>
      </g>
     </g>
    </g>
    <g id="ytick_8">
     <g id="line2d_16">
      <g>
       <use xlink:href="#m9a0c94087d" x="180" y="54.126752" style="stroke: #000000; stroke-width: 0.8"/>
      </g>
     </g>
     <g id="text_17">
      <!-- 16 -->
      <g transform="translate(160.275 57.92597) scale(0.1 -0.1)">
       <use xlink:href="#DejaVuSans-31"/>
       <use xlink:href="#DejaVuSans-36" x="63.623047"/>
      </g>
     </g>
    </g>
    <g id="text_18">
     <!-- Velocidade do Vento (m/s) -->
     <g transform="translate(154.195312 247.344531) rotate(-90) scale(0.1 -0.1)">
      <defs>
       <path id="DejaVuSans-56" d="M 1831 0 
L 50 4666 
L 709 4666 
L 2188 738 
L 3669 4666 
L 4325 4666 
L 2547 0 
L 1831 0 
z
" transform="scale(0.015625)"/>
       <path id="DejaVuSans-65" d="M 3597 1894 
L 3597 1613 
L 953 1613 
Q 991 1019 1311 708 
Q 1631 397 2203 397 
Q 2534 397 2845 478 
Q 3156 559 3463 722 
L 3463 178 
Q 3153 47 2828 -22 
Q 2503 -91 2169 -91 
Q 1331 -91 842 396 
Q 353 884 353 1716 
Q 353 2575 817 3079 
Q 1281 3584 2069 3584 
Q 2775 3584 3186 3129 
Q 3597 2675 3597 1894 
z
M 3022 2063 
Q 3016 2534 2758 2815 
Q 2500 3097 2075 3097 
Q 1594 3097 1305 2825 
Q 1016 2553 972 2059 
L 3022 2063 
z
" transform="scale(0.015625)"/>
       <path id="DejaVuSans-6c" d="M 603 4863 
L 1178 4863 
L 1178 0 
L 603 0 
L 603 4863 
z
" transform="scale(0.015625)"/>
       <path id="DejaVuSans-63" d="M 3122 3366 
L 3122 2828 
Q 2878 2963 2633 3030 
Q 2388 3097 2138 3097 
Q 1578 3097 1268 2742 
Q 959 2388 959 1747 
Q 959 1106 1268 751 
Q 1578 397 2138 397 
Q 2388 397 2633 464 
Q 2878 531 3122 666 
L 3122 134 
Q 2881 22 2623 -34 
Q 2366 -91 2075 -91 
Q 1284 -91 818 406 
Q 353 903 353 1747 
Q 353 2603 823 3093 
Q 1294 3584 2113 3584 
Q 2378 3584 2631 3529 
Q 2884 3475 3122 3366 
z
" transform="scale(0.015625)"/>
       <path id="DejaVuSans-69" d="M 603 3500 
L 1178 3500 
L 1178 0 
L 603 0 
L 603 3500 
z
M 603 4863 
L 1178 4863 
L 1178 4134 
L 603 4134 
L 603 4863 
z
" transform="scale(0.015625)"/>
       <path id="DejaVuSans-64" d="M 2906 2969 
L 2906 4863 
L 3481 4863 
L 3481 0 
L 2906 0 
L 2906 525 
Q 2725 213 2448 61 
Q 2172 -91 1784 -91 
Q 1150 -91 751 415 
Q 353 922 353 1747 
Q 353 2572 751 3078 
Q 1150 3584 1784 3584 
Q 2172 3584 2448 3432 
Q 2725 3281 2906 2969 
z
M 947 1747 
Q 947 1113 1208 752 
Q 1469 391 1925 391 
Q 2381 391 2643 752 
Q 2906 1113 2906 1747 
Q 2906 2381 2643 2742 
Q 2381 3103 1925 3103 
Q 1469 3103 1208 2742 
Q 947 2381 947 1747 
z
" transform="scale(0.015625)"/>
       <path id="DejaVuSans-20" transform="scale(0.015625)"/>
       <path id="DejaVuSans-6e" d="M 3513 2113 
L 3513 0 
L 2938 0 
L 2938 2094 
Q 2938 2591 2744 2837 
Q 2550 3084 2163 3084 
Q 1697 3084 1428 2787 
Q 1159 2491 1159 1978 
L 1159 0 
L 581 0 
L 581 3500 
L 1159 3500 
L 1159 2956 
Q 1366 3272 1645 3428 
Q 1925 3584 2291 3584 
Q 2894 3584 3203 3211 
Q 3513 2838 3513 2113 
z
" transform="scale(0.015625)"/>
       <path id="DejaVuSans-28" d="M 1984 4856 
Q 1566 4138 1362 3434 
Q 1159 2731 1159 2009 
Q 1159 1288 1364 580 
Q 1569 -128 1984 -844 
L 1484 -844 
Q 1016 -109 783 600 
Q 550 1309 550 2009 
Q 550 2706 781 3412 
Q 1013 4119 1484 4856 
L 1984 4856 
z
" transform="scale(0.015625)"/>
       <path id="DejaVuSans-2f" d="M 1625 4666 
L 2156 4666 
L 531 -594 
L 0 -594 
L 1625 4666 
z
" transform="scale(0.015625)"/>
       <path id="DejaVuSans-29" d="M 513 4856 
L 1013 4856 
Q 1481 4119 1714 3412 
Q 1947 2706 1947 2009 
Q 1947 1309 1714 600 
Q 1481 -109 1013 -844 
L 513 -844 
Q 928 -128 1133 580 
Q 1338 1288 1338 2009 
Q 1338 2731 1133 3434 
Q 928 4138 513 4856 
z
" transform="scale(0.015625)"/>
      </defs>
      <use xlink:href="#DejaVuSans-56"/>
      <use xlink:href="#DejaVuSans-65" x="60.658203"/>
      <use xlink:href="#DejaVuSans-6c" x="122.181641"/>
      <use xlink:href="#DejaVuSans-6f" x="149.964844"/>
      <use xlink:href="#DejaVuSans-63" x="211.146484"/>
      <use xlink:href="#DejaVuSans-69" x="266.126953"/>
      <use xlink:href="#DejaVuSans-64" x="293.910156"/>
      <use xlink:href="#DejaVuSans-61" x="357.386719"/>
      <use xlink:href="#DejaVuSans-64" x="418.666016"/>
      <use xlink:href="#DejaVuSans-65" x="482.142578"/>
      <use xlink:href="#DejaVuSans-20" x="543.666016"/>
      <use xlink:href="#DejaVuSans-64" x="575.453125"/>
      <use xlink:href="#DejaVuSans-6f" x="638.929688"/>
      <use xlink:href="#DejaVuSans-20" x="700.111328"/>
      <use xlink:href="#DejaVuSans-56" x="731.898438"/>
      <use xlink:href="#DejaVuSans-65" x="792.556641"/>
      <use xlink:href="#DejaVuSans-6e" x="854.080078"/>
      <use xlink:href="#DejaVuSans-74" x="917.458984"/>
      <use xlink:href="#DejaVuSans-6f" x="956.667969"/>
      <use xlink:href="#DejaVuSans-20" x="1017.849609"/>
      <use xlink:href="#DejaVuSans-28" x="1049.636719"/>
      <use xlink:href="#DejaVuSans-6d" x="1088.650391"/>
      <use xlink:href="#DejaVuSans-2f" x="1186.0625"/>
      <use xlink:href="#DejaVuSans-73" x="1219.753906"/>
      <use xlink:href="#DejaVuSans-29" x="1271.853516"/>
     </g>
    </g>
   </g>
   <g id="line2d_17">
    <path d="M 230.727273 145.387047 
L 236.066986 166.436301 
L 241.406699 174.318511 
L 246.746411 165.937121 
L 252.086124 178.446414 
L 257.425837 175.317428 
L 262.76555 173.561991 
L 268.105263 168.005226 
L 273.444976 164.985973 
L 278.784689 171.010173 
L 284.124402 190.307299 
L 289.464115 198.835189 
L 294.803828 229.039172 
L 300.143541 219.307482 
L 305.483254 228.790879 
L 310.822967 243.829968 
L 316.162679 247.379486 
L 321.502392 254.962136 
L 326.842105 260.483432 
L 332.181818 255.983725 
L 337.521531 242.694663 
L 342.861244 230.146821 
L 348.200957 188.781657 
L 353.54067 155.719441 
L 358.880383 133.917598 
L 364.220096 120.757985 
L 369.559809 118.14344 
L 374.899522 118.789812 
L 380.239234 115.440483 
L 390.91866 149.649126 
L 396.258373 173.98705 
L 401.598086 179.261636 
L 406.937799 180.241156 
L 412.277512 173.953458 
L 417.617225 162.609528 
L 422.956938 181.490968 
L 428.296651 202.586337 
L 433.636364 197.749444 
L 438.976077 195.988104 
L 449.655502 188.487129 
L 454.995215 204.514482 
L 460.334928 209.349274 
L 465.674641 180.763935 
L 471.014354 168.905309 
L 476.354067 174.028264 
L 481.69378 163.882064 
L 487.033493 118.609076 
L 492.373206 103.433377 
L 497.712919 108.046664 
L 503.052632 120.669209 
L 508.392344 126.345303 
L 513.732057 124.296532 
L 524.411483 135.556029 
L 529.751196 153.37175 
L 535.090909 147.333388 
L 540.430622 163.579691 
L 545.770335 175.659678 
L 551.110048 194.862108 
L 556.449761 201.236744 
L 561.789474 207.328095 
L 567.129187 208.821674 
L 572.4689 226.229704 
L 577.808612 232.406674 
L 583.148325 255.725403 
L 588.488038 215.187478 
L 593.827751 181.036073 
L 599.167464 173.398138 
L 604.507177 137.874966 
L 609.84689 113.139337 
L 615.186603 105.732629 
L 620.526316 100.5715 
L 625.866029 95.048518 
L 631.205742 89.744573 
L 636.545455 103.082885 
L 641.885167 112.063195 
L 647.22488 134.99393 
L 657.904306 153.211462 
L 663.244019 169.733961 
L 668.583732 162.121057 
L 673.923445 169.243804 
L 679.263158 179.407587 
L 684.602871 183.172952 
L 689.942584 185.726696 
L 695.282297 197.689223 
L 700.62201 191.360041 
L 705.961722 205.840174 
L 711.301435 225.660238 
L 716.641148 224.039303 
L 721.980861 189.588445 
L 727.320574 178.92704 
L 732.660287 141.97795 
L 738 110.099446 
L 743.339713 108.303431 
L 748.679426 107.157369 
L 754.019139 111.282759 
L 759.358852 98.518799 
L 764.698565 111.22603 
L 770.038278 116.684694 
L 775.37799 126.001303 
L 780.717703 161.570559 
L 786.057416 177.526567 
L 791.397129 172.291269 
L 796.736842 159.51442 
L 802.076555 164.909847 
L 807.416268 209.427811 
L 812.755981 191.947958 
L 818.095694 192.94242 
L 823.435407 273.855435 
L 828.77512 260.595537 
L 834.114833 230.536204 
L 844.794258 230.638506 
L 850.133971 206.205823 
L 855.473684 192.050523 
L 860.813397 189.788133 
L 866.15311 166.850348 
L 871.492823 132.146901 
L 876.832536 116.195348 
L 882.172249 127.648725 
L 887.511962 124.785353 
L 892.851675 129.486478 
L 898.191388 133.771552 
L 903.5311 152.967569 
L 908.870813 168.237487 
L 914.210526 159.548203 
L 919.550239 167.91839 
L 924.889952 173.82132 
L 930.229665 170.11211 
L 935.569378 175.528159 
L 940.909091 165.383153 
L 946.248804 184.626654 
L 951.588517 192.399599 
L 956.92823 183.957542 
L 962.267943 189.398797 
L 967.607656 211.592617 
L 972.947368 221.614054 
L 978.287081 199.561562 
L 983.626794 188.824486 
L 988.966507 153.505099 
L 994.30622 121.195138 
L 999.645933 116.075764 
L 1004.985646 122.090448 
L 1010.325359 120.673744 
L 1015.665072 123.611349 
L 1021.004785 129.793291 
L 1026.344498 138.752406 
L 1031.684211 159.008095 
L 1037.023923 169.267291 
L 1042.363636 161.371348 
L 1047.703349 178.836943 
L 1053.043062 186.229091 
L 1058.382775 171.581294 
L 1063.722488 202.03225 
L 1069.062201 209.553616 
L 1074.401914 222.338868 
L 1079.741627 247.309176 
L 1085.08134 238.517056 
L 1090.421053 240.421174 
L 1095.760766 248.444616 
L 1101.100478 213.442814 
L 1106.440191 212.730508 
L 1111.779904 219.211974 
L 1117.119617 202.114439 
L 1122.45933 188.865723 
L 1127.799043 159.977956 
L 1133.138756 133.246243 
L 1138.478469 122.600178 
L 1143.818182 118.17404 
L 1149.157895 126.037966 
L 1154.497608 136.165405 
L 1159.837321 145.775332 
L 1165.177033 141.221621 
L 1170.516746 147.230656 
L 1175.856459 166.103583 
L 1181.196172 176.921584 
L 1186.535885 166.388786 
L 1191.875598 149.38348 
L 1197.215311 163.384841 
L 1202.555024 183.760193 
L 1207.894737 190.990955 
L 1213.23445 211.622119 
L 1218.574163 221.551708 
L 1223.913876 237.747767 
L 1229.253589 231.09364 
L 1234.593301 208.128606 
L 1239.933014 183.543256 
L 1245.272727 156.875512 
L 1245.272727 156.875512 
" clip-path="url(#p9120d322a6)" style="fill: none; stroke: #0000ff; stroke-width: 1.5; stroke-linecap: square"/>
   </g>
   <g id="line2d_18">
    <path d="M 230.727273 166.448889 
L 236.066986 175.357165 
L 241.406699 159.876603 
L 246.746411 177.257473 
L 252.086124 174.893675 
L 257.425837 171.46385 
L 262.76555 165.558988 
L 268.105263 160.775772 
L 273.444976 168.043295 
L 278.784689 191.570041 
L 284.124402 201.590692 
L 289.464115 220.603047 
L 294.803828 210.026208 
L 300.143541 221.020188 
L 305.483254 235.926022 
L 310.822967 238.986667 
L 316.162679 247.680126 
L 321.502392 257.357795 
L 326.842105 255.781929 
L 332.181818 242.46123 
L 337.521531 231.847311 
L 342.861244 189.187703 
L 348.200957 152.6647 
L 353.54067 127.93288 
L 358.880383 104.730577 
L 364.220096 106.714313 
L 369.559809 107.353929 
L 374.899522 105.435081 
L 380.239234 131.557371 
L 385.578947 149.299764 
L 390.91866 176.979379 
L 396.258373 181.04882 
L 401.598086 182.328052 
L 406.937799 172.103466 
L 412.277512 153.397014 
L 417.617225 172.585496 
L 422.956938 188.603704 
L 428.296651 186.314065 
L 433.636364 184.207195 
L 438.976077 180.32464 
L 444.315789 176.247211 
L 449.655502 197.224617 
L 454.995215 207.152571 
L 460.334928 201.627772 
L 465.674641 207.801456 
L 471.014354 205.910417 
L 476.354067 185.498323 
L 481.69378 128.007039 
L 487.033493 91.901177 
L 492.373206 89.250015 
L 497.712919 106.083966 
L 503.052632 121.156658 
L 508.392344 111.868321 
L 513.732057 107.196343 
L 519.07177 117.875149 
L 524.411483 144.748293 
L 529.751196 130.917755 
L 535.090909 155.074848 
L 540.430622 168.015486 
L 545.770335 181.9758 
L 551.110048 186.453112 
L 556.449761 191.338295 
L 561.789474 191.134361 
L 567.129187 203.97303 
L 572.4689 209.94278 
L 577.808612 241.015141 
L 583.148325 210.183795 
L 588.488038 201.915135 
L 593.827751 199.681114 
L 599.167464 163.222999 
L 604.507177 128.062658 
L 609.84689 102.515095 
L 615.186603 65.574951 
L 620.526316 78.830763 
L 625.866029 90.41801 
L 631.205742 108.012086 
L 636.545455 104.471023 
L 641.885167 137.749596 
L 647.22488 135.812208 
L 652.564593 139.149336 
L 657.904306 156.984425 
L 663.244019 146.073874 
L 668.583732 155.065578 
L 673.923445 165.336514 
L 679.263158 164.789596 
L 684.602871 165.790734 
L 689.942584 175.625989 
L 695.282297 171.751214 
L 700.62201 188.993036 
L 705.961722 209.868621 
L 711.301435 223.180051 
L 716.641148 209.293894 
L 721.980861 212.603212 
L 727.320574 161.897419 
L 732.660287 123.029157 
L 738 114.918084 
L 743.339713 102.932236 
L 748.679426 82.909473 
L 754.019139 88.508432 
L 759.358852 96.288504 
L 764.698565 103.868486 
L 770.038278 113.119744 
L 775.37799 160.618187 
L 780.717703 173.327079 
L 786.057416 158.940353 
L 791.397129 135.988334 
L 796.736842 143.812044 
L 802.076555 187.97336 
L 807.416268 236.50075 
L 812.755981 241.311775 
L 818.095694 246.391624 
L 823.435407 236.574908 
L 828.77512 216.496526 
L 834.114833 220.260065 
L 839.454545 239.300229 
L 844.794258 236.699901 
L 850.133971 220.819145 
L 855.473684 205.928957 
L 860.813397 165.568258 
L 866.15311 112.452318 
L 871.492823 90.102837 
L 876.832536 105.861492 
L 882.172249 99.669267 
L 887.511962 99.335555 
L 892.851675 119.033874 
L 898.191388 149.0124 
L 903.5311 166.625015 
L 908.870813 150.347251 
L 914.210526 163.955314 
L 919.550239 166.615746 
L 924.889952 153.999551 
L 930.229665 158.152421 
L 935.569378 148.465482 
L 940.909091 167.894977 
L 946.248804 179.370987 
L 951.588517 175.171768 
L 956.92823 188.334881 
L 962.267943 206.197781 
L 967.607656 227.203143 
L 972.947368 224.941312 
L 978.287081 207.940503 
L 983.626794 169.702588 
L 988.966507 132.363843 
L 994.30622 110.913532 
L 999.645933 138.240895 
L 1004.985646 123.223822 
L 1010.325359 121.147389 
L 1015.665072 134.041677 
L 1021.004785 140.697391 
L 1026.344498 165.52191 
L 1031.684211 180.335046 
L 1037.023923 171.02817 
L 1042.363636 191.180709 
L 1047.703349 196.353256 
L 1053.043062 171.621436 
L 1058.382775 191.532962 
L 1063.722488 191.959373 
L 1069.062201 207.087682 
L 1074.401914 233.404638 
L 1079.741627 232.496198 
L 1085.08134 239.26315 
L 1090.421053 235.953832 
L 1095.760766 208.394723 
L 1101.100478 234.053523 
L 1106.440191 250.748429 
L 1111.779904 222.345769 
L 1117.119617 207.606791 
L 1122.45933 177.665344 
L 1127.799043 133.068348 
L 1133.138756 116.836932 
L 1138.478469 111.312133 
L 1143.818182 116.846202 
L 1149.157895 116.068678 
L 1154.497608 133.092928 
L 1159.837321 134.940847 
L 1165.177033 145.805051 
L 1170.516746 172.937748 
L 1175.856459 186.045241 
L 1181.196172 153.489712 
L 1186.535885 138.722925 
L 1191.875598 149.994999 
L 1197.215311 168.080374 
L 1202.555024 177.174045 
L 1207.894737 197.410014 
L 1213.23445 208.654278 
L 1218.574163 228.593613 
L 1223.913876 235.666468 
L 1229.253589 234.044254 
L 1234.593301 198.114518 
L 1239.933014 147.557042 
L 1245.272727 114.18577 
L 1245.272727 114.18577 
" clip-path="url(#p9120d322a6)" style="fill: none; stroke: #ffa500; stroke-width: 1.5; stroke-linecap: square"/>
   </g>
   <g id="patch_3">
    <path d="M 180 320.4 
L 180 43.2 
" style="fill: none; stroke: #000000; stroke-width: 0.8; stroke-linejoin: miter; stroke-linecap: square"/>
   </g>
   <g id="patch_4">
    <path d="M 1296 320.4 
L 1296 43.2 
" style="fill: none; stroke: #000000; stroke-width: 0.8; stroke-linejoin: miter; stroke-linecap: square"/>
   </g>
   <g id="patch_5">
    <path d="M 180 320.4 
L 1296 320.4 
" style="fill: none; stroke: #000000; stroke-width: 0.8; stroke-linejoin: miter; stroke-linecap: square"/>
   </g>
   <g id="patch_6">
    <path d="M 180 43.2 
L 1296 43.2 
" style="fill: none; stroke: #000000; stroke-width: 0.8; stroke-linejoin: miter; stroke-linecap: square"/>
   </g>
   <g id="text_19">
    <!-- Previsão do vento para 1 hora(s) à frente com 6 camadas -->
    <g transform="translate(564.882187 37.2) scale(0.12 -0.12)">
     <defs>
      <path id="DejaVuSans-50" d="M 1259 4147 
L 1259 2394 
L 2053 2394 
Q 2494 2394 2734 2622 
Q 2975 2850 2975 3272 
Q 2975 3691 2734 3919 
Q 2494 4147 2053 4147 
L 1259 4147 
z
M 628 4666 
L 2053 4666 
Q 2838 4666 3239 4311 
Q 3641 3956 3641 3272 
Q 3641 2581 3239 2228 
Q 2838 1875 2053 1875 
L 1259 1875 
L 1259 0 
L 628 0 
L 628 4666 
z
" transform="scale(0.015625)"/>
      <path id="DejaVuSans-76" d="M 191 3500 
L 800 3500 
L 1894 563 
L 2988 3500 
L 3597 3500 
L 2284 0 
L 1503 0 
L 191 3500 
z
" transform="scale(0.015625)"/>
      <path id="DejaVuSans-e3" d="M 2194 1759 
Q 1497 1759 1228 1600 
Q 959 1441 959 1056 
Q 959 750 1161 570 
Q 1363 391 1709 391 
Q 2188 391 2477 730 
Q 2766 1069 2766 1631 
L 2766 1759 
L 2194 1759 
z
M 3341 1997 
L 3341 0 
L 2766 0 
L 2766 531 
Q 2569 213 2275 61 
Q 1981 -91 1556 -91 
Q 1019 -91 701 211 
Q 384 513 384 1019 
Q 384 1609 779 1909 
Q 1175 2209 1959 2209 
L 2766 2209 
L 2766 2266 
Q 2766 2663 2505 2880 
Q 2244 3097 1772 3097 
Q 1472 3097 1187 3025 
Q 903 2953 641 2809 
L 641 3341 
Q 956 3463 1253 3523 
Q 1550 3584 1831 3584 
Q 2591 3584 2966 3190 
Q 3341 2797 3341 1997 
z
M 1844 4281 
L 1666 4453 
Q 1597 4516 1545 4545 
Q 1494 4575 1453 4575 
Q 1334 4575 1278 4461 
Q 1222 4347 1216 4091 
L 825 4091 
Q 831 4513 990 4742 
Q 1150 4972 1434 4972 
Q 1553 4972 1653 4928 
Q 1753 4884 1869 4781 
L 2047 4609 
Q 2116 4547 2167 4517 
Q 2219 4488 2259 4488 
Q 2378 4488 2434 4602 
Q 2491 4716 2497 4972 
L 2888 4972 
Q 2881 4550 2722 4320 
Q 2563 4091 2278 4091 
Q 2159 4091 2059 4134 
Q 1959 4178 1844 4281 
z
" transform="scale(0.015625)"/>
      <path id="DejaVuSans-70" d="M 1159 525 
L 1159 -1331 
L 581 -1331 
L 581 3500 
L 1159 3500 
L 1159 2969 
Q 1341 3281 1617 3432 
Q 1894 3584 2278 3584 
Q 2916 3584 3314 3078 
Q 3713 2572 3713 1747 
Q 3713 922 3314 415 
Q 2916 -91 2278 -91 
Q 1894 -91 1617 61 
Q 1341 213 1159 525 
z
M 3116 1747 
Q 3116 2381 2855 2742 
Q 2594 3103 2138 3103 
Q 1681 3103 1420 2742 
Q 1159 2381 1159 1747 
Q 1159 1113 1420 752 
Q 1681 391 2138 391 
Q 2594 391 2855 752 
Q 3116 1113 3116 1747 
z
" transform="scale(0.015625)"/>
      <path id="DejaVuSans-68" d="M 3513 2113 
L 3513 0 
L 2938 0 
L 2938 2094 
Q 2938 2591 2744 2837 
Q 2550 3084 2163 3084 
Q 1697 3084 1428 2787 
Q 1159 2491 1159 1978 
L 1159 0 
L 581 0 
L 581 4863 
L 1159 4863 
L 1159 2956 
Q 1366 3272 1645 3428 
Q 1925 3584 2291 3584 
Q 2894 3584 3203 3211 
Q 3513 2838 3513 2113 
z
" transform="scale(0.015625)"/>
      <path id="DejaVuSans-e0" d="M 2194 1759 
Q 1497 1759 1228 1600 
Q 959 1441 959 1056 
Q 959 750 1161 570 
Q 1363 391 1709 391 
Q 2188 391 2477 730 
Q 2766 1069 2766 1631 
L 2766 1759 
L 2194 1759 
z
M 3341 1997 
L 3341 0 
L 2766 0 
L 2766 531 
Q 2569 213 2275 61 
Q 1981 -91 1556 -91 
Q 1019 -91 701 211 
Q 384 513 384 1019 
Q 384 1609 779 1909 
Q 1175 2209 1959 2209 
L 2766 2209 
L 2766 2266 
Q 2766 2663 2505 2880 
Q 2244 3097 1772 3097 
Q 1472 3097 1187 3025 
Q 903 2953 641 2809 
L 641 3341 
Q 956 3463 1253 3523 
Q 1550 3584 1831 3584 
Q 2591 3584 2966 3190 
Q 3341 2797 3341 1997 
z
M 1403 5119 
L 2284 3950 
L 1806 3950 
L 788 5119 
L 1403 5119 
z
" transform="scale(0.015625)"/>
      <path id="DejaVuSans-66" d="M 2375 4863 
L 2375 4384 
L 1825 4384 
Q 1516 4384 1395 4259 
Q 1275 4134 1275 3809 
L 1275 3500 
L 2222 3500 
L 2222 3053 
L 1275 3053 
L 1275 0 
L 697 0 
L 697 3053 
L 147 3053 
L 147 3500 
L 697 3500 
L 697 3744 
Q 697 4328 969 4595 
Q 1241 4863 1831 4863 
L 2375 4863 
z
" transform="scale(0.015625)"/>
     </defs>
     <use xlink:href="#DejaVuSans-50"/>
     <use xlink:href="#DejaVuSans-72" x="58.552734"/>
     <use xlink:href="#DejaVuSans-65" x="97.416016"/>
     <use xlink:href="#DejaVuSans-76" x="158.939453"/>
     <use xlink:href="#DejaVuSans-69" x="218.119141"/>
     <use xlink:href="#DejaVuSans-73" x="245.902344"/>
     <use xlink:href="#DejaVuSans-e3" x="298.001953"/>
     <use xlink:href="#DejaVuSans-6f" x="359.28125"/>
     <use xlink:href="#DejaVuSans-20" x="420.462891"/>
     <use xlink:href="#DejaVuSans-64" x="452.25"/>
     <use xlink:href="#DejaVuSans-6f" x="515.726562"/>
     <use xlink:href="#DejaVuSans-20" x="576.908203"/>
     <use xlink:href="#DejaVuSans-76" x="608.695312"/>
     <use xlink:href="#DejaVuSans-65" x="667.875"/>
     <use xlink:href="#DejaVuSans-6e" x="729.398438"/>
     <use xlink:href="#DejaVuSans-74" x="792.777344"/>
     <use xlink:href="#DejaVuSans-6f" x="831.986328"/>
     <use xlink:href="#DejaVuSans-20" x="893.167969"/>
     <use xlink:href="#DejaVuSans-70" x="924.955078"/>
     <use xlink:href="#DejaVuSans-61" x="988.431641"/>
     <use xlink:href="#DejaVuSans-72" x="1049.710938"/>
     <use xlink:href="#DejaVuSans-61" x="1090.824219"/>
     <use xlink:href="#DejaVuSans-20" x="1152.103516"/>
     <use xlink:href="#DejaVuSans-31" x="1183.890625"/>
     <use xlink:href="#DejaVuSans-20" x="1247.513672"/>
     <use xlink:href="#DejaVuSans-68" x="1279.300781"/>
     <use xlink:href="#DejaVuSans-6f" x="1342.679688"/>
     <use xlink:href="#DejaVuSans-72" x="1403.861328"/>
     <use xlink:href="#DejaVuSans-61" x="1444.974609"/>
     <use xlink:href="#DejaVuSans-28" x="1506.253906"/>
     <use xlink:href="#DejaVuSans-73" x="1545.267578"/>
     <use xlink:href="#DejaVuSans-29" x="1597.367188"/>
     <use xlink:href="#DejaVuSans-20" x="1636.380859"/>
     <use xlink:href="#DejaVuSans-e0" x="1668.167969"/>
     <use xlink:href="#DejaVuSans-20" x="1729.447266"/>
     <use xlink:href="#DejaVuSans-66" x="1761.234375"/>
     <use xlink:href="#DejaVuSans-72" x="1796.439453"/>
     <use xlink:href="#DejaVuSans-65" x="1835.302734"/>
     <use xlink:href="#DejaVuSans-6e" x="1896.826172"/>
     <use xlink:href="#DejaVuSans-74" x="1960.205078"/>
     <use xlink:href="#DejaVuSans-65" x="1999.414062"/>
     <use xlink:href="#DejaVuSans-20" x="2060.9375"/>
     <use xlink:href="#DejaVuSans-63" x="2092.724609"/>
     <use xlink:href="#DejaVuSans-6f" x="2147.705078"/>
     <use xlink:href="#DejaVuSans-6d" x="2208.886719"/>
     <use xlink:href="#DejaVuSans-20" x="2306.298828"/>
     <use xlink:href="#DejaVuSans-36" x="2338.085938"/>
     <use xlink:href="#DejaVuSans-20" x="2401.708984"/>
     <use xlink:href="#DejaVuSans-63" x="2433.496094"/>
     <use xlink:href="#DejaVuSans-61" x="2488.476562"/>
     <use xlink:href="#DejaVuSans-6d" x="2549.755859"/>
     <use xlink:href="#DejaVuSans-61" x="2647.167969"/>
     <use xlink:href="#DejaVuSans-64" x="2708.447266"/>
     <use xlink:href="#DejaVuSans-61" x="2771.923828"/>
     <use xlink:href="#DejaVuSans-73" x="2833.203125"/>
    </g>
   </g>
   <g id="legend_1">
    <g id="patch_7">
     <path d="M 1217.86875 80.55625 
L 1289 80.55625 
Q 1291 80.55625 1291 78.55625 
L 1291 50.2 
Q 1291 48.2 1289 48.2 
L 1217.86875 48.2 
Q 1215.86875 48.2 1215.86875 50.2 
L 1215.86875 78.55625 
Q 1215.86875 80.55625 1217.86875 80.55625 
z
" style="fill: #ffffff; opacity: 0.8; stroke: #cccccc; stroke-linejoin: miter"/>
    </g>
    <g id="line2d_19">
     <path d="M 1219.86875 56.298437 
L 1229.86875 56.298437 
L 1239.86875 56.298437 
" style="fill: none; stroke: #0000ff; stroke-width: 1.5; stroke-linecap: square"/>
    </g>
    <g id="text_20">
     <!-- Predito -->
     <g transform="translate(1247.86875 59.798437) scale(0.1 -0.1)">
      <use xlink:href="#DejaVuSans-50"/>
      <use xlink:href="#DejaVuSans-72" x="58.552734"/>
      <use xlink:href="#DejaVuSans-65" x="97.416016"/>
      <use xlink:href="#DejaVuSans-64" x="158.939453"/>
      <use xlink:href="#DejaVuSans-69" x="222.416016"/>
      <use xlink:href="#DejaVuSans-74" x="250.199219"/>
      <use xlink:href="#DejaVuSans-6f" x="289.408203"/>
     </g>
    </g>
    <g id="line2d_20">
     <path d="M 1219.86875 70.976562 
L 1229.86875 70.976562 
L 1239.86875 70.976562 
" style="fill: none; stroke: #ffa500; stroke-width: 1.5; stroke-linecap: square"/>
    </g>
    <g id="text_21">
     <!-- Original -->
     <g transform="translate(1247.86875 74.476562) scale(0.1 -0.1)">
      <defs>
       <path id="DejaVuSans-4f" d="M 2522 4238 
Q 1834 4238 1429 3725 
Q 1025 3213 1025 2328 
Q 1025 1447 1429 934 
Q 1834 422 2522 422 
Q 3209 422 3611 934 
Q 4013 1447 4013 2328 
Q 4013 3213 3611 3725 
Q 3209 4238 2522 4238 
z
M 2522 4750 
Q 3503 4750 4090 4092 
Q 4678 3434 4678 2328 
Q 4678 1225 4090 567 
Q 3503 -91 2522 -91 
Q 1538 -91 948 565 
Q 359 1222 359 2328 
Q 359 3434 948 4092 
Q 1538 4750 2522 4750 
z
" transform="scale(0.015625)"/>
       <path id="DejaVuSans-67" d="M 2906 1791 
Q 2906 2416 2648 2759 
Q 2391 3103 1925 3103 
Q 1463 3103 1205 2759 
Q 947 2416 947 1791 
Q 947 1169 1205 825 
Q 1463 481 1925 481 
Q 2391 481 2648 825 
Q 2906 1169 2906 1791 
z
M 3481 434 
Q 3481 -459 3084 -895 
Q 2688 -1331 1869 -1331 
Q 1566 -1331 1297 -1286 
Q 1028 -1241 775 -1147 
L 775 -588 
Q 1028 -725 1275 -790 
Q 1522 -856 1778 -856 
Q 2344 -856 2625 -561 
Q 2906 -266 2906 331 
L 2906 616 
Q 2728 306 2450 153 
Q 2172 0 1784 0 
Q 1141 0 747 490 
Q 353 981 353 1791 
Q 353 2603 747 3093 
Q 1141 3584 1784 3584 
Q 2172 3584 2450 3431 
Q 2728 3278 2906 2969 
L 2906 3500 
L 3481 3500 
L 3481 434 
z
" transform="scale(0.015625)"/>
      </defs>
      <use xlink:href="#DejaVuSans-4f"/>
      <use xlink:href="#DejaVuSans-72" x="78.710938"/>
      <use xlink:href="#DejaVuSans-69" x="119.824219"/>
      <use xlink:href="#DejaVuSans-67" x="147.607422"/>
      <use xlink:href="#DejaVuSans-69" x="211.083984"/>
      <use xlink:href="#DejaVuSans-6e" x="238.867188"/>
      <use xlink:href="#DejaVuSans-61" x="302.246094"/>
      <use xlink:href="#DejaVuSans-6c" x="363.525391"/>
     </g>
    </g>
   </g>
  </g>
 </g>
 <defs>
  <clipPath id="p9120d322a6">
   <rect x="180" y="43.2" width="1116" height="277.2"/>
  </clipPath>
 </defs>
</svg>
