<?xml version="1.0" encoding="utf-8" standalone="no"?>
<!DOCTYPE svg PUBLIC "-//W3C//DTD SVG 1.1//EN"
  "http://www.w3.org/Graphics/SVG/1.1/DTD/svg11.dtd">
<svg xmlns:xlink="http://www.w3.org/1999/xlink" width="1440pt" height="360pt" viewBox="0 0 1440 360" xmlns="http://www.w3.org/2000/svg" version="1.1">
 <metadata>
  <rdf:RDF xmlns:dc="http://purl.org/dc/elements/1.1/" xmlns:cc="http://creativecommons.org/ns#" xmlns:rdf="http://www.w3.org/1999/02/22-rdf-syntax-ns#">
   <cc:Work>
    <dc:type rdf:resource="http://purl.org/dc/dcmitype/StillImage"/>
    <dc:date>2023-08-20T14:33:40.651546</dc:date>
    <dc:format>image/svg+xml</dc:format>
    <dc:creator>
     <cc:Agent>
      <dc:title>Matplotlib v3.7.1, https://matplotlib.org/</dc:title>
     </cc:Agent>
    </dc:creator>
   </cc:Work>
  </rdf:RDF>
 </metadata>
 <defs>
  <style type="text/css">*{stroke-linejoin: round; stroke-linecap: butt}</style>
 </defs>
 <g id="figure_1">
  <g id="patch_1">
   <path d="M 0 360 
L 1440 360 
L 1440 0 
L 0 0 
z
" style="fill: #ffffff"/>
  </g>
  <g id="axes_1">
   <g id="patch_2">
    <path d="M 180 320.4 
L 1296 320.4 
L 1296 43.2 
L 180 43.2 
z
" style="fill: #ffffff"/>
   </g>
   <g id="PolyCollection_1">
    <defs>
     <path id="m7d20dfd059" d="M 230.727273 -261.71297 
L 230.727273 -182.792326 
L 236.066986 -143.429216 
L 241.406699 -133.279985 
L 246.746411 -141.627662 
L 252.086124 -129.716393 
L 257.425837 -135.689869 
L 262.76555 -138.135269 
L 268.105263 -145.281822 
L 273.444976 -149.405832 
L 278.784689 -144.463681 
L 284.124402 -123.893926 
L 289.464115 -113.662308 
L 294.803828 -84.171885 
L 300.143541 -95.053441 
L 305.483254 -85.720227 
L 310.822967 -71.458382 
L 316.162679 -68.53239 
L 321.502392 -59.869409 
L 326.842105 -52.2 
L 332.181818 -55.26646 
L 337.521531 -65.045525 
L 342.861244 -75.253081 
L 348.200957 -119.049004 
L 353.54067 -157.57333 
L 358.880383 -184.527457 
L 364.220096 -201.507722 
L 369.559809 -204.543554 
L 374.899522 -205.212819 
L 380.239234 -206.45065 
L 385.578947 -187.843456 
L 390.91866 -169.608734 
L 396.258373 -143.582984 
L 401.598086 -138.105801 
L 406.937799 -137.05481 
L 412.277512 -146.205307 
L 417.617225 -162.258831 
L 422.956938 -132.66473 
L 428.296651 -115.80118 
L 433.636364 -120.225735 
L 438.976077 -123.480154 
L 444.315789 -128.896946 
L 449.655502 -134.595014 
L 454.995215 -114.754485 
L 460.334928 -105.461275 
L 465.674641 -120.244179 
L 471.014354 -122.08591 
L 476.354067 -124.292725 
L 481.69378 -138.700166 
L 487.033493 -190.520798 
L 492.373206 -214.386537 
L 497.712919 -216.865686 
L 503.052632 -207.182305 
L 508.392344 -199.098896 
L 513.732057 -205.405922 
L 519.07177 -204.36787 
L 524.411483 -198.365836 
L 529.751196 -175.828777 
L 535.090909 -183.541252 
L 540.430622 -162.23024 
L 545.770335 -145.960855 
L 551.110048 -120.045523 
L 556.449761 -118.089391 
L 561.789474 -114.1566 
L 567.129187 -114.197273 
L 572.4689 -97.993551 
L 577.808612 -92.789599 
L 583.148325 -61.928637 
L 588.488038 -100.258079 
L 593.827751 -119.250139 
L 599.167464 -124.868282 
L 604.507177 -160.599873 
L 609.84689 -188.864369 
L 615.186603 -206.402721 
L 620.526316 -224.330188 
L 625.866029 -225.279356 
L 631.205742 -219.604856 
L 636.545455 -207.459878 
L 641.885167 -208.576201 
L 647.22488 -181.58231 
L 652.564593 -176.951712 
L 657.904306 -172.297232 
L 663.244019 -154.113347 
L 668.583732 -164.286542 
L 673.923445 -154.649718 
L 679.263158 -136.163255 
L 684.602871 -137.284867 
L 689.942584 -136.943615 
L 695.282297 -127.82994 
L 700.62201 -134.216378 
L 705.961722 -117.12834 
L 711.301435 -95.233355 
L 716.641148 -87.073459 
L 721.980861 -110.162329 
L 727.320574 -114.558473 
L 732.660287 -160.301047 
L 738 -194.754085 
L 743.339713 -199.692699 
L 748.679426 -209.270158 
L 754.019139 -218.288984 
L 759.358852 -222.821279 
L 764.698565 -216.476308 
L 770.038278 -210.543208 
L 775.37799 -203.295542 
L 780.717703 -159.969166 
L 786.057416 -145.897589 
L 791.397129 -154.95499 
L 796.736842 -172.78574 
L 802.076555 -163.604254 
L 807.416268 -112.210434 
L 812.755981 -65.533827 
L 818.095694 -58.200262 
L 823.435407 -55.761013 
L 828.77512 -65.277211 
L 834.114833 -89.139678 
L 839.454545 -87.433039 
L 844.794258 -72.676686 
L 850.133971 -85.046434 
L 855.473684 -102.916878 
L 860.813397 -113.690354 
L 866.15311 -146.035772 
L 871.492823 -193.332704 
L 876.832536 -210.947279 
L 882.172249 -201.728673 
L 887.511962 -208.357052 
L 892.851675 -206.605657 
L 898.191388 -197.000119 
L 903.5311 -170.516469 
L 908.870813 -151.882667 
L 914.210526 -163.38879 
L 919.550239 -153.975197 
L 924.889952 -149.022601 
L 930.229665 -157.00607 
L 935.569378 -143.278869 
L 940.909091 -155.098577 
L 946.248804 -137.140982 
L 951.588517 -126.496747 
L 956.92823 -133.22971 
L 962.267943 -123.250113 
L 967.607656 -102.644329 
L 972.947368 -82.776063 
L 978.287081 -93.591139 
L 983.626794 -111.514891 
L 988.966507 -153.21376 
L 994.30622 -193.104481 
L 999.645933 -209.679766 
L 1004.985646 -190.935232 
L 1010.325359 -200.285278 
L 1015.665072 -202.803001 
L 1021.004785 -193.813444 
L 1026.344498 -186.628879 
L 1031.684211 -160.482861 
L 1037.023923 -146.49868 
L 1042.363636 -156.702765 
L 1047.703349 -135.644948 
L 1053.043062 -128.596401 
L 1058.382775 -151.616646 
L 1063.722488 -111.923457 
L 1069.062201 -109.378977 
L 1074.401914 -94.984961 
L 1079.741627 -68.057864 
L 1085.08134 -71.738781 
L 1090.421053 -66.006031 
L 1095.760766 -66.355191 
L 1101.100478 -99.772992 
L 1106.440191 -81.067053 
L 1111.779904 -69.642127 
L 1117.119617 -95.909189 
L 1122.45933 -111.955008 
L 1127.799043 -147.016574 
L 1133.138756 -190.137336 
L 1138.478469 -205.778211 
L 1143.818182 -211.518671 
L 1149.157895 -205.066818 
L 1154.497608 -197.198477 
L 1159.837321 -184.406793 
L 1165.177033 -191.802145 
L 1170.516746 -181.041229 
L 1175.856459 -154.417909 
L 1181.196172 -140.816892 
L 1186.535885 -158.201476 
L 1191.875598 -160.168532 
L 1197.215311 -149.349656 
L 1202.555024 -133.780393 
L 1207.894737 -126.973654 
L 1213.23445 -106.197657 
L 1218.574163 -94.817351 
L 1223.913876 -74.58741 
L 1229.253589 -71.331314 
L 1234.593301 -81.690596 
L 1239.933014 -120.159213 
L 1245.272727 -163.60389 
L 1245.272727 -242.524534 
L 1245.272727 -242.524534 
L 1239.933014 -199.07984 
L 1234.593301 -160.611228 
L 1229.253589 -150.251953 
L 1223.913876 -153.508042 
L 1218.574163 -173.737982 
L 1213.23445 -185.118285 
L 1207.894737 -205.894298 
L 1202.555024 -212.701037 
L 1197.215311 -228.2703 
L 1191.875598 -239.089176 
L 1186.535885 -237.12212 
L 1181.196172 -219.737536 
L 1175.856459 -233.338552 
L 1170.516746 -259.961873 
L 1165.177033 -270.722789 
L 1159.837321 -263.327437 
L 1154.497608 -276.119121 
L 1149.157895 -283.987462 
L 1143.818182 -290.439315 
L 1138.478469 -284.698855 
L 1133.138756 -269.05798 
L 1127.799043 -225.937218 
L 1122.45933 -190.875652 
L 1117.119617 -174.829829 
L 1111.779904 -148.562767 
L 1106.440191 -159.987693 
L 1101.100478 -178.693636 
L 1095.760766 -145.275823 
L 1090.421053 -144.926671 
L 1085.08134 -150.659413 
L 1079.741627 -146.978495 
L 1074.401914 -173.9056 
L 1069.062201 -188.299604 
L 1063.722488 -190.844101 
L 1058.382775 -230.53729 
L 1053.043062 -207.517045 
L 1047.703349 -214.565592 
L 1042.363636 -235.623409 
L 1037.023923 -225.419324 
L 1031.684211 -239.403505 
L 1026.344498 -265.549523 
L 1021.004785 -272.734088 
L 1015.665072 -281.723645 
L 1010.325359 -279.205922 
L 1004.985646 -269.855876 
L 999.645933 -288.60041 
L 994.30622 -272.025125 
L 988.966507 -232.134404 
L 983.626794 -190.435518 
L 978.287081 -172.51177 
L 972.947368 -161.696695 
L 967.607656 -181.564973 
L 962.267943 -202.170757 
L 956.92823 -212.150353 
L 951.588517 -205.417391 
L 946.248804 -216.061626 
L 940.909091 -234.019221 
L 935.569378 -222.199513 
L 930.229665 -235.926714 
L 924.889952 -227.943245 
L 919.550239 -232.895841 
L 914.210526 -242.309434 
L 908.870813 -230.803311 
L 903.5311 -249.437113 
L 898.191388 -275.920763 
L 892.851675 -285.526301 
L 887.511962 -287.277696 
L 882.172249 -280.649317 
L 876.832536 -289.867923 
L 871.492823 -272.253348 
L 866.15311 -224.956416 
L 860.813397 -192.610998 
L 855.473684 -181.837521 
L 850.133971 -163.967073 
L 844.794258 -151.597326 
L 839.454545 -166.35367 
L 834.114833 -168.060309 
L 828.77512 -144.197842 
L 823.435407 -134.681649 
L 818.095694 -137.120901 
L 812.755981 -144.454459 
L 807.416268 -191.131078 
L 802.076555 -242.524898 
L 796.736842 -251.706384 
L 791.397129 -233.875634 
L 786.057416 -224.818233 
L 780.717703 -238.88981 
L 775.37799 -282.216186 
L 770.038278 -289.463852 
L 764.698565 -295.396951 
L 759.358852 -301.741923 
L 754.019139 -297.209628 
L 748.679426 -288.190802 
L 743.339713 -278.613343 
L 738 -273.674729 
L 732.660287 -239.221691 
L 727.320574 -193.479101 
L 721.980861 -189.082956 
L 716.641148 -165.99409 
L 711.301435 -174.153986 
L 705.961722 -196.048967 
L 700.62201 -213.137022 
L 695.282297 -206.750584 
L 689.942584 -215.864259 
L 684.602871 -216.205511 
L 679.263158 -215.083899 
L 673.923445 -233.570362 
L 668.583732 -243.207186 
L 663.244019 -233.033991 
L 657.904306 -251.217876 
L 652.564593 -255.872356 
L 647.22488 -260.502954 
L 641.885167 -287.496845 
L 636.545455 -286.380521 
L 631.205742 -298.5255 
L 625.866029 -304.2 
L 620.526316 -303.250832 
L 615.186603 -285.323365 
L 609.84689 -267.785013 
L 604.507177 -239.520517 
L 599.167464 -203.788926 
L 593.827751 -198.170783 
L 588.488038 -179.178723 
L 583.148325 -140.849268 
L 577.808612 -171.710238 
L 572.4689 -176.914179 
L 567.129187 -193.117901 
L 561.789474 -193.077244 
L 556.449761 -197.010035 
L 551.110048 -198.96615 
L 545.770335 -224.881499 
L 540.430622 -241.150884 
L 535.090909 -262.461895 
L 529.751196 -254.749421 
L 524.411483 -277.28648 
L 519.07177 -283.288514 
L 513.732057 -284.326566 
L 508.392344 -278.01954 
L 503.052632 -286.102949 
L 497.712919 -295.78633 
L 492.373206 -293.307181 
L 487.033493 -269.441442 
L 481.69378 -217.62081 
L 476.354067 -203.213353 
L 471.014354 -201.006538 
L 465.674641 -199.164823 
L 460.334928 -184.381903 
L 454.995215 -193.675129 
L 449.655502 -213.515658 
L 444.315789 -207.81759 
L 438.976077 -202.400781 
L 433.636364 -199.146362 
L 428.296651 -194.721807 
L 422.956938 -211.585374 
L 417.617225 -241.179475 
L 412.277512 -225.125951 
L 406.937799 -215.975454 
L 401.598086 -217.026445 
L 396.258373 -222.503628 
L 390.91866 -248.529378 
L 385.578947 -266.7641 
L 380.239234 -285.371294 
L 374.899522 -284.133463 
L 369.559809 -283.464198 
L 364.220096 -280.428366 
L 358.880383 -263.448101 
L 353.54067 -236.493974 
L 348.200957 -197.969632 
L 342.861244 -154.173721 
L 337.521531 -143.966165 
L 332.181818 -134.187092 
L 326.842105 -131.120636 
L 321.502392 -138.79004 
L 316.162679 -147.453022 
L 310.822967 -150.379014 
L 305.483254 -164.640867 
L 300.143541 -173.974072 
L 294.803828 -163.092525 
L 289.464115 -192.582951 
L 284.124402 -202.81457 
L 278.784689 -223.384325 
L 273.444976 -228.326476 
L 268.105263 -224.202466 
L 262.76555 -217.055913 
L 257.425837 -214.610513 
L 252.086124 -208.637037 
L 246.746411 -220.548306 
L 241.406699 -212.200629 
L 236.066986 -222.34986 
L 230.727273 -261.71297 
z
" style="stroke: #0000ff; stroke-opacity: 0.05"/>
    </defs>
    <g clip-path="url(#pfeded077ef)">
     <use xlink:href="#m7d20dfd059" x="0" y="360" style="fill: #0000ff; fill-opacity: 0.05; stroke: #0000ff; stroke-opacity: 0.05"/>
    </g>
   </g>
   <g id="matplotlib.axis_1">
    <g id="xtick_1">
     <g id="line2d_1">
      <defs>
       <path id="me7c83358da" d="M 0 0 
L 0 3.5 
" style="stroke: #000000; stroke-width: 0.8"/>
      </defs>
      <g>
       <use xlink:href="#me7c83358da" x="230.727273" y="320.4" style="stroke: #000000; stroke-width: 0.8"/>
      </g>
     </g>
     <g id="text_1">
      <!-- 0 -->
      <g transform="translate(227.546023 334.998438) scale(0.1 -0.1)">
       <defs>
        <path id="DejaVuSans-30" d="M 2034 4250 
Q 1547 4250 1301 3770 
Q 1056 3291 1056 2328 
Q 1056 1369 1301 889 
Q 1547 409 2034 409 
Q 2525 409 2770 889 
Q 3016 1369 3016 2328 
Q 3016 3291 2770 3770 
Q 2525 4250 2034 4250 
z
M 2034 4750 
Q 2819 4750 3233 4129 
Q 3647 3509 3647 2328 
Q 3647 1150 3233 529 
Q 2819 -91 2034 -91 
Q 1250 -91 836 529 
Q 422 1150 422 2328 
Q 422 3509 836 4129 
Q 1250 4750 2034 4750 
z
" transform="scale(0.015625)"/>
       </defs>
       <use xlink:href="#DejaVuSans-30"/>
      </g>
     </g>
    </g>
    <g id="xtick_2">
     <g id="line2d_2">
      <g>
       <use xlink:href="#me7c83358da" x="364.220096" y="320.4" style="stroke: #000000; stroke-width: 0.8"/>
      </g>
     </g>
     <g id="text_2">
      <!-- 25 -->
      <g transform="translate(357.857596 334.998438) scale(0.1 -0.1)">
       <defs>
        <path id="DejaVuSans-32" d="M 1228 531 
L 3431 531 
L 3431 0 
L 469 0 
L 469 531 
Q 828 903 1448 1529 
Q 2069 2156 2228 2338 
Q 2531 2678 2651 2914 
Q 2772 3150 2772 3378 
Q 2772 3750 2511 3984 
Q 2250 4219 1831 4219 
Q 1534 4219 1204 4116 
Q 875 4013 500 3803 
L 500 4441 
Q 881 4594 1212 4672 
Q 1544 4750 1819 4750 
Q 2544 4750 2975 4387 
Q 3406 4025 3406 3419 
Q 3406 3131 3298 2873 
Q 3191 2616 2906 2266 
Q 2828 2175 2409 1742 
Q 1991 1309 1228 531 
z
" transform="scale(0.015625)"/>
        <path id="DejaVuSans-35" d="M 691 4666 
L 3169 4666 
L 3169 4134 
L 1269 4134 
L 1269 2991 
Q 1406 3038 1543 3061 
Q 1681 3084 1819 3084 
Q 2600 3084 3056 2656 
Q 3513 2228 3513 1497 
Q 3513 744 3044 326 
Q 2575 -91 1722 -91 
Q 1428 -91 1123 -41 
Q 819 9 494 109 
L 494 744 
Q 775 591 1075 516 
Q 1375 441 1709 441 
Q 2250 441 2565 725 
Q 2881 1009 2881 1497 
Q 2881 1984 2565 2268 
Q 2250 2553 1709 2553 
Q 1456 2553 1204 2497 
Q 953 2441 691 2322 
L 691 4666 
z
" transform="scale(0.015625)"/>
       </defs>
       <use xlink:href="#DejaVuSans-32"/>
       <use xlink:href="#DejaVuSans-35" x="63.623047"/>
      </g>
     </g>
    </g>
    <g id="xtick_3">
     <g id="line2d_3">
      <g>
       <use xlink:href="#me7c83358da" x="497.712919" y="320.4" style="stroke: #000000; stroke-width: 0.8"/>
      </g>
     </g>
     <g id="text_3">
      <!-- 50 -->
      <g transform="translate(491.350419 334.998438) scale(0.1 -0.1)">
       <use xlink:href="#DejaVuSans-35"/>
       <use xlink:href="#DejaVuSans-30" x="63.623047"/>
      </g>
     </g>
    </g>
    <g id="xtick_4">
     <g id="line2d_4">
      <g>
       <use xlink:href="#me7c83358da" x="631.205742" y="320.4" style="stroke: #000000; stroke-width: 0.8"/>
      </g>
     </g>
     <g id="text_4">
      <!-- 75 -->
      <g transform="translate(624.843242 334.998438) scale(0.1 -0.1)">
       <defs>
        <path id="DejaVuSans-37" d="M 525 4666 
L 3525 4666 
L 3525 4397 
L 1831 0 
L 1172 0 
L 2766 4134 
L 525 4134 
L 525 4666 
z
" transform="scale(0.015625)"/>
       </defs>
       <use xlink:href="#DejaVuSans-37"/>
       <use xlink:href="#DejaVuSans-35" x="63.623047"/>
      </g>
     </g>
    </g>
    <g id="xtick_5">
     <g id="line2d_5">
      <g>
       <use xlink:href="#me7c83358da" x="764.698565" y="320.4" style="stroke: #000000; stroke-width: 0.8"/>
      </g>
     </g>
     <g id="text_5">
      <!-- 100 -->
      <g transform="translate(755.154815 334.998438) scale(0.1 -0.1)">
       <defs>
        <path id="DejaVuSans-31" d="M 794 531 
L 1825 531 
L 1825 4091 
L 703 3866 
L 703 4441 
L 1819 4666 
L 2450 4666 
L 2450 531 
L 3481 531 
L 3481 0 
L 794 0 
L 794 531 
z
" transform="scale(0.015625)"/>
       </defs>
       <use xlink:href="#DejaVuSans-31"/>
       <use xlink:href="#DejaVuSans-30" x="63.623047"/>
       <use xlink:href="#DejaVuSans-30" x="127.246094"/>
      </g>
     </g>
    </g>
    <g id="xtick_6">
     <g id="line2d_6">
      <g>
       <use xlink:href="#me7c83358da" x="898.191388" y="320.4" style="stroke: #000000; stroke-width: 0.8"/>
      </g>
     </g>
     <g id="text_6">
      <!-- 125 -->
      <g transform="translate(888.647638 334.998438) scale(0.1 -0.1)">
       <use xlink:href="#DejaVuSans-31"/>
       <use xlink:href="#DejaVuSans-32" x="63.623047"/>
       <use xlink:href="#DejaVuSans-35" x="127.246094"/>
      </g>
     </g>
    </g>
    <g id="xtick_7">
     <g id="line2d_7">
      <g>
       <use xlink:href="#me7c83358da" x="1031.684211" y="320.4" style="stroke: #000000; stroke-width: 0.8"/>
      </g>
     </g>
     <g id="text_7">
      <!-- 150 -->
      <g transform="translate(1022.140461 334.998438) scale(0.1 -0.1)">
       <use xlink:href="#DejaVuSans-31"/>
       <use xlink:href="#DejaVuSans-35" x="63.623047"/>
       <use xlink:href="#DejaVuSans-30" x="127.246094"/>
      </g>
     </g>
    </g>
    <g id="xtick_8">
     <g id="line2d_8">
      <g>
       <use xlink:href="#me7c83358da" x="1165.177033" y="320.4" style="stroke: #000000; stroke-width: 0.8"/>
      </g>
     </g>
     <g id="text_8">
      <!-- 175 -->
      <g transform="translate(1155.633283 334.998438) scale(0.1 -0.1)">
       <use xlink:href="#DejaVuSans-31"/>
       <use xlink:href="#DejaVuSans-37" x="63.623047"/>
       <use xlink:href="#DejaVuSans-35" x="127.246094"/>
      </g>
     </g>
    </g>
    <g id="text_9">
     <!-- Amostras -->
     <g transform="translate(714.360937 348.676562) scale(0.1 -0.1)">
      <defs>
       <path id="DejaVuSans-41" d="M 2188 4044 
L 1331 1722 
L 3047 1722 
L 2188 4044 
z
M 1831 4666 
L 2547 4666 
L 4325 0 
L 3669 0 
L 3244 1197 
L 1141 1197 
L 716 0 
L 50 0 
L 1831 4666 
z
" transform="scale(0.015625)"/>
       <path id="DejaVuSans-6d" d="M 3328 2828 
Q 3544 3216 3844 3400 
Q 4144 3584 4550 3584 
Q 5097 3584 5394 3201 
Q 5691 2819 5691 2113 
L 5691 0 
L 5113 0 
L 5113 2094 
Q 5113 2597 4934 2840 
Q 4756 3084 4391 3084 
Q 3944 3084 3684 2787 
Q 3425 2491 3425 1978 
L 3425 0 
L 2847 0 
L 2847 2094 
Q 2847 2600 2669 2842 
Q 2491 3084 2119 3084 
Q 1678 3084 1418 2786 
Q 1159 2488 1159 1978 
L 1159 0 
L 581 0 
L 581 3500 
L 1159 3500 
L 1159 2956 
Q 1356 3278 1631 3431 
Q 1906 3584 2284 3584 
Q 2666 3584 2933 3390 
Q 3200 3197 3328 2828 
z
" transform="scale(0.015625)"/>
       <path id="DejaVuSans-6f" d="M 1959 3097 
Q 1497 3097 1228 2736 
Q 959 2375 959 1747 
Q 959 1119 1226 758 
Q 1494 397 1959 397 
Q 2419 397 2687 759 
Q 2956 1122 2956 1747 
Q 2956 2369 2687 2733 
Q 2419 3097 1959 3097 
z
M 1959 3584 
Q 2709 3584 3137 3096 
Q 3566 2609 3566 1747 
Q 3566 888 3137 398 
Q 2709 -91 1959 -91 
Q 1206 -91 779 398 
Q 353 888 353 1747 
Q 353 2609 779 3096 
Q 1206 3584 1959 3584 
z
" transform="scale(0.015625)"/>
       <path id="DejaVuSans-73" d="M 2834 3397 
L 2834 2853 
Q 2591 2978 2328 3040 
Q 2066 3103 1784 3103 
Q 1356 3103 1142 2972 
Q 928 2841 928 2578 
Q 928 2378 1081 2264 
Q 1234 2150 1697 2047 
L 1894 2003 
Q 2506 1872 2764 1633 
Q 3022 1394 3022 966 
Q 3022 478 2636 193 
Q 2250 -91 1575 -91 
Q 1294 -91 989 -36 
Q 684 19 347 128 
L 347 722 
Q 666 556 975 473 
Q 1284 391 1588 391 
Q 1994 391 2212 530 
Q 2431 669 2431 922 
Q 2431 1156 2273 1281 
Q 2116 1406 1581 1522 
L 1381 1569 
Q 847 1681 609 1914 
Q 372 2147 372 2553 
Q 372 3047 722 3315 
Q 1072 3584 1716 3584 
Q 2034 3584 2315 3537 
Q 2597 3491 2834 3397 
z
" transform="scale(0.015625)"/>
       <path id="DejaVuSans-74" d="M 1172 4494 
L 1172 3500 
L 2356 3500 
L 2356 3053 
L 1172 3053 
L 1172 1153 
Q 1172 725 1289 603 
Q 1406 481 1766 481 
L 2356 481 
L 2356 0 
L 1766 0 
Q 1100 0 847 248 
Q 594 497 594 1153 
L 594 3053 
L 172 3053 
L 172 3500 
L 594 3500 
L 594 4494 
L 1172 4494 
z
" transform="scale(0.015625)"/>
       <path id="DejaVuSans-72" d="M 2631 2963 
Q 2534 3019 2420 3045 
Q 2306 3072 2169 3072 
Q 1681 3072 1420 2755 
Q 1159 2438 1159 1844 
L 1159 0 
L 581 0 
L 581 3500 
L 1159 3500 
L 1159 2956 
Q 1341 3275 1631 3429 
Q 1922 3584 2338 3584 
Q 2397 3584 2469 3576 
Q 2541 3569 2628 3553 
L 2631 2963 
z
" transform="scale(0.015625)"/>
       <path id="DejaVuSans-61" d="M 2194 1759 
Q 1497 1759 1228 1600 
Q 959 1441 959 1056 
Q 959 750 1161 570 
Q 1363 391 1709 391 
Q 2188 391 2477 730 
Q 2766 1069 2766 1631 
L 2766 1759 
L 2194 1759 
z
M 3341 1997 
L 3341 0 
L 2766 0 
L 2766 531 
Q 2569 213 2275 61 
Q 1981 -91 1556 -91 
Q 1019 -91 701 211 
Q 384 513 384 1019 
Q 384 1609 779 1909 
Q 1175 2209 1959 2209 
L 2766 2209 
L 2766 2266 
Q 2766 2663 2505 2880 
Q 2244 3097 1772 3097 
Q 1472 3097 1187 3025 
Q 903 2953 641 2809 
L 641 3341 
Q 956 3463 1253 3523 
Q 1550 3584 1831 3584 
Q 2591 3584 2966 3190 
Q 3341 2797 3341 1997 
z
" transform="scale(0.015625)"/>
      </defs>
      <use xlink:href="#DejaVuSans-41"/>
      <use xlink:href="#DejaVuSans-6d" x="68.408203"/>
      <use xlink:href="#DejaVuSans-6f" x="165.820312"/>
      <use xlink:href="#DejaVuSans-73" x="227.001953"/>
      <use xlink:href="#DejaVuSans-74" x="279.101562"/>
      <use xlink:href="#DejaVuSans-72" x="318.310547"/>
      <use xlink:href="#DejaVuSans-61" x="359.423828"/>
      <use xlink:href="#DejaVuSans-73" x="420.703125"/>
     </g>
    </g>
   </g>
   <g id="matplotlib.axis_2">
    <g id="ytick_1">
     <g id="line2d_9">
      <defs>
       <path id="m886df54d1a" d="M 0 0 
L -3.5 0 
" style="stroke: #000000; stroke-width: 0.8"/>
      </defs>
      <g>
       <use xlink:href="#m886df54d1a" x="180" y="298.165696" style="stroke: #000000; stroke-width: 0.8"/>
      </g>
     </g>
     <g id="text_10">
      <!-- 2 -->
      <g transform="translate(166.6375 301.964915) scale(0.1 -0.1)">
       <use xlink:href="#DejaVuSans-32"/>
      </g>
     </g>
    </g>
    <g id="ytick_2">
     <g id="line2d_10">
      <g>
       <use xlink:href="#m886df54d1a" x="180" y="263.505838" style="stroke: #000000; stroke-width: 0.8"/>
      </g>
     </g>
     <g id="text_11">
      <!-- 4 -->
      <g transform="translate(166.6375 267.305056) scale(0.1 -0.1)">
       <defs>
        <path id="DejaVuSans-34" d="M 2419 4116 
L 825 1625 
L 2419 1625 
L 2419 4116 
z
M 2253 4666 
L 3047 4666 
L 3047 1625 
L 3713 1625 
L 3713 1100 
L 3047 1100 
L 3047 0 
L 2419 0 
L 2419 1100 
L 313 1100 
L 313 1709 
L 2253 4666 
z
" transform="scale(0.015625)"/>
       </defs>
       <use xlink:href="#DejaVuSans-34"/>
      </g>
     </g>
    </g>
    <g id="ytick_3">
     <g id="line2d_11">
      <g>
       <use xlink:href="#m886df54d1a" x="180" y="228.84598" style="stroke: #000000; stroke-width: 0.8"/>
      </g>
     </g>
     <g id="text_12">
      <!-- 6 -->
      <g transform="translate(166.6375 232.645198) scale(0.1 -0.1)">
       <defs>
        <path id="DejaVuSans-36" d="M 2113 2584 
Q 1688 2584 1439 2293 
Q 1191 2003 1191 1497 
Q 1191 994 1439 701 
Q 1688 409 2113 409 
Q 2538 409 2786 701 
Q 3034 994 3034 1497 
Q 3034 2003 2786 2293 
Q 2538 2584 2113 2584 
z
M 3366 4563 
L 3366 3988 
Q 3128 4100 2886 4159 
Q 2644 4219 2406 4219 
Q 1781 4219 1451 3797 
Q 1122 3375 1075 2522 
Q 1259 2794 1537 2939 
Q 1816 3084 2150 3084 
Q 2853 3084 3261 2657 
Q 3669 2231 3669 1497 
Q 3669 778 3244 343 
Q 2819 -91 2113 -91 
Q 1303 -91 875 529 
Q 447 1150 447 2328 
Q 447 3434 972 4092 
Q 1497 4750 2381 4750 
Q 2619 4750 2861 4703 
Q 3103 4656 3366 4563 
z
" transform="scale(0.015625)"/>
       </defs>
       <use xlink:href="#DejaVuSans-36"/>
      </g>
     </g>
    </g>
    <g id="ytick_4">
     <g id="line2d_12">
      <g>
       <use xlink:href="#m886df54d1a" x="180" y="194.186121" style="stroke: #000000; stroke-width: 0.8"/>
      </g>
     </g>
     <g id="text_13">
      <!-- 8 -->
      <g transform="translate(166.6375 197.98534) scale(0.1 -0.1)">
       <defs>
        <path id="DejaVuSans-38" d="M 2034 2216 
Q 1584 2216 1326 1975 
Q 1069 1734 1069 1313 
Q 1069 891 1326 650 
Q 1584 409 2034 409 
Q 2484 409 2743 651 
Q 3003 894 3003 1313 
Q 3003 1734 2745 1975 
Q 2488 2216 2034 2216 
z
M 1403 2484 
Q 997 2584 770 2862 
Q 544 3141 544 3541 
Q 544 4100 942 4425 
Q 1341 4750 2034 4750 
Q 2731 4750 3128 4425 
Q 3525 4100 3525 3541 
Q 3525 3141 3298 2862 
Q 3072 2584 2669 2484 
Q 3125 2378 3379 2068 
Q 3634 1759 3634 1313 
Q 3634 634 3220 271 
Q 2806 -91 2034 -91 
Q 1263 -91 848 271 
Q 434 634 434 1313 
Q 434 1759 690 2068 
Q 947 2378 1403 2484 
z
M 1172 3481 
Q 1172 3119 1398 2916 
Q 1625 2713 2034 2713 
Q 2441 2713 2670 2916 
Q 2900 3119 2900 3481 
Q 2900 3844 2670 4047 
Q 2441 4250 2034 4250 
Q 1625 4250 1398 4047 
Q 1172 3844 1172 3481 
z
" transform="scale(0.015625)"/>
       </defs>
       <use xlink:href="#DejaVuSans-38"/>
      </g>
     </g>
    </g>
    <g id="ytick_5">
     <g id="line2d_13">
      <g>
       <use xlink:href="#m886df54d1a" x="180" y="159.526263" style="stroke: #000000; stroke-width: 0.8"/>
      </g>
     </g>
     <g id="text_14">
      <!-- 10 -->
      <g transform="translate(160.275 163.325482) scale(0.1 -0.1)">
       <use xlink:href="#DejaVuSans-31"/>
       <use xlink:href="#DejaVuSans-30" x="63.623047"/>
      </g>
     </g>
    </g>
    <g id="ytick_6">
     <g id="line2d_14">
      <g>
       <use xlink:href="#m886df54d1a" x="180" y="124.866405" style="stroke: #000000; stroke-width: 0.8"/>
      </g>
     </g>
     <g id="text_15">
      <!-- 12 -->
      <g transform="translate(160.275 128.665624) scale(0.1 -0.1)">
       <use xlink:href="#DejaVuSans-31"/>
       <use xlink:href="#DejaVuSans-32" x="63.623047"/>
      </g>
     </g>
    </g>
    <g id="ytick_7">
     <g id="line2d_15">
      <g>
       <use xlink:href="#m886df54d1a" x="180" y="90.206547" style="stroke: #000000; stroke-width: 0.8"/>
      </g>
     </g>
     <g id="text_16">
      <!-- 14 -->
      <g transform="translate(160.275 94.005766) scale(0.1 -0.1)">
       <use xlink:href="#DejaVuSans-31"/>
       <use xlink:href="#DejaVuSans-34" x="63.623047"/>
      </g>
     </g>
    </g>
    <g id="ytick_8">
     <g id="line2d_16">
      <g>
       <use xlink:href="#m886df54d1a" x="180" y="55.546689" style="stroke: #000000; stroke-width: 0.8"/>
      </g>
     </g>
     <g id="text_17">
      <!-- 16 -->
      <g transform="translate(160.275 59.345908) scale(0.1 -0.1)">
       <use xlink:href="#DejaVuSans-31"/>
       <use xlink:href="#DejaVuSans-36" x="63.623047"/>
      </g>
     </g>
    </g>
    <g id="text_18">
     <!-- Velocidade do Vento (m/s) -->
     <g transform="translate(154.195312 247.344531) rotate(-90) scale(0.1 -0.1)">
      <defs>
       <path id="DejaVuSans-56" d="M 1831 0 
L 50 4666 
L 709 4666 
L 2188 738 
L 3669 4666 
L 4325 4666 
L 2547 0 
L 1831 0 
z
" transform="scale(0.015625)"/>
       <path id="DejaVuSans-65" d="M 3597 1894 
L 3597 1613 
L 953 1613 
Q 991 1019 1311 708 
Q 1631 397 2203 397 
Q 2534 397 2845 478 
Q 3156 559 3463 722 
L 3463 178 
Q 3153 47 2828 -22 
Q 2503 -91 2169 -91 
Q 1331 -91 842 396 
Q 353 884 353 1716 
Q 353 2575 817 3079 
Q 1281 3584 2069 3584 
Q 2775 3584 3186 3129 
Q 3597 2675 3597 1894 
z
M 3022 2063 
Q 3016 2534 2758 2815 
Q 2500 3097 2075 3097 
Q 1594 3097 1305 2825 
Q 1016 2553 972 2059 
L 3022 2063 
z
" transform="scale(0.015625)"/>
       <path id="DejaVuSans-6c" d="M 603 4863 
L 1178 4863 
L 1178 0 
L 603 0 
L 603 4863 
z
" transform="scale(0.015625)"/>
       <path id="DejaVuSans-63" d="M 3122 3366 
L 3122 2828 
Q 2878 2963 2633 3030 
Q 2388 3097 2138 3097 
Q 1578 3097 1268 2742 
Q 959 2388 959 1747 
Q 959 1106 1268 751 
Q 1578 397 2138 397 
Q 2388 397 2633 464 
Q 2878 531 3122 666 
L 3122 134 
Q 2881 22 2623 -34 
Q 2366 -91 2075 -91 
Q 1284 -91 818 406 
Q 353 903 353 1747 
Q 353 2603 823 3093 
Q 1294 3584 2113 3584 
Q 2378 3584 2631 3529 
Q 2884 3475 3122 3366 
z
" transform="scale(0.015625)"/>
       <path id="DejaVuSans-69" d="M 603 3500 
L 1178 3500 
L 1178 0 
L 603 0 
L 603 3500 
z
M 603 4863 
L 1178 4863 
L 1178 4134 
L 603 4134 
L 603 4863 
z
" transform="scale(0.015625)"/>
       <path id="DejaVuSans-64" d="M 2906 2969 
L 2906 4863 
L 3481 4863 
L 3481 0 
L 2906 0 
L 2906 525 
Q 2725 213 2448 61 
Q 2172 -91 1784 -91 
Q 1150 -91 751 415 
Q 353 922 353 1747 
Q 353 2572 751 3078 
Q 1150 3584 1784 3584 
Q 2172 3584 2448 3432 
Q 2725 3281 2906 2969 
z
M 947 1747 
Q 947 1113 1208 752 
Q 1469 391 1925 391 
Q 2381 391 2643 752 
Q 2906 1113 2906 1747 
Q 2906 2381 2643 2742 
Q 2381 3103 1925 3103 
Q 1469 3103 1208 2742 
Q 947 2381 947 1747 
z
" transform="scale(0.015625)"/>
       <path id="DejaVuSans-20" transform="scale(0.015625)"/>
       <path id="DejaVuSans-6e" d="M 3513 2113 
L 3513 0 
L 2938 0 
L 2938 2094 
Q 2938 2591 2744 2837 
Q 2550 3084 2163 3084 
Q 1697 3084 1428 2787 
Q 1159 2491 1159 1978 
L 1159 0 
L 581 0 
L 581 3500 
L 1159 3500 
L 1159 2956 
Q 1366 3272 1645 3428 
Q 1925 3584 2291 3584 
Q 2894 3584 3203 3211 
Q 3513 2838 3513 2113 
z
" transform="scale(0.015625)"/>
       <path id="DejaVuSans-28" d="M 1984 4856 
Q 1566 4138 1362 3434 
Q 1159 2731 1159 2009 
Q 1159 1288 1364 580 
Q 1569 -128 1984 -844 
L 1484 -844 
Q 1016 -109 783 600 
Q 550 1309 550 2009 
Q 550 2706 781 3412 
Q 1013 4119 1484 4856 
L 1984 4856 
z
" transform="scale(0.015625)"/>
       <path id="DejaVuSans-2f" d="M 1625 4666 
L 2156 4666 
L 531 -594 
L 0 -594 
L 1625 4666 
z
" transform="scale(0.015625)"/>
       <path id="DejaVuSans-29" d="M 513 4856 
L 1013 4856 
Q 1481 4119 1714 3412 
Q 1947 2706 1947 2009 
Q 1947 1309 1714 600 
Q 1481 -109 1013 -844 
L 513 -844 
Q 928 -128 1133 580 
Q 1338 1288 1338 2009 
Q 1338 2731 1133 3434 
Q 928 4138 513 4856 
z
" transform="scale(0.015625)"/>
      </defs>
      <use xlink:href="#DejaVuSans-56"/>
      <use xlink:href="#DejaVuSans-65" x="60.658203"/>
      <use xlink:href="#DejaVuSans-6c" x="122.181641"/>
      <use xlink:href="#DejaVuSans-6f" x="149.964844"/>
      <use xlink:href="#DejaVuSans-63" x="211.146484"/>
      <use xlink:href="#DejaVuSans-69" x="266.126953"/>
      <use xlink:href="#DejaVuSans-64" x="293.910156"/>
      <use xlink:href="#DejaVuSans-61" x="357.386719"/>
      <use xlink:href="#DejaVuSans-64" x="418.666016"/>
      <use xlink:href="#DejaVuSans-65" x="482.142578"/>
      <use xlink:href="#DejaVuSans-20" x="543.666016"/>
      <use xlink:href="#DejaVuSans-64" x="575.453125"/>
      <use xlink:href="#DejaVuSans-6f" x="638.929688"/>
      <use xlink:href="#DejaVuSans-20" x="700.111328"/>
      <use xlink:href="#DejaVuSans-56" x="731.898438"/>
      <use xlink:href="#DejaVuSans-65" x="792.556641"/>
      <use xlink:href="#DejaVuSans-6e" x="854.080078"/>
      <use xlink:href="#DejaVuSans-74" x="917.458984"/>
      <use xlink:href="#DejaVuSans-6f" x="956.667969"/>
      <use xlink:href="#DejaVuSans-20" x="1017.849609"/>
      <use xlink:href="#DejaVuSans-28" x="1049.636719"/>
      <use xlink:href="#DejaVuSans-6d" x="1088.650391"/>
      <use xlink:href="#DejaVuSans-2f" x="1186.0625"/>
      <use xlink:href="#DejaVuSans-73" x="1219.753906"/>
      <use xlink:href="#DejaVuSans-29" x="1271.853516"/>
     </g>
    </g>
   </g>
   <g id="line2d_17">
    <path d="M 230.727273 137.747352 
L 236.066986 177.110462 
L 241.406699 187.259693 
L 246.746411 178.912016 
L 252.086124 190.823285 
L 257.425837 184.849809 
L 262.76555 182.404409 
L 268.105263 175.257856 
L 273.444976 171.133846 
L 278.784689 176.075997 
L 284.124402 196.645752 
L 289.464115 206.877371 
L 294.803828 236.367797 
L 300.143541 225.486242 
L 305.483254 234.819455 
L 310.822967 249.0813 
L 316.162679 252.007292 
L 321.502392 260.670273 
L 326.842105 268.339682 
L 332.181818 265.273222 
L 337.521531 255.494157 
L 342.861244 245.286601 
L 348.200957 201.490682 
L 353.54067 162.966348 
L 358.880383 136.012221 
L 364.220096 119.031956 
L 369.559809 115.996124 
L 374.899522 115.326859 
L 380.239234 114.089028 
L 390.91866 150.930944 
L 396.258373 176.956694 
L 401.598086 182.433877 
L 406.937799 183.484868 
L 412.277512 174.334371 
L 417.617225 158.280847 
L 422.956938 187.874948 
L 428.296651 204.738507 
L 433.636364 200.313952 
L 438.976077 197.059533 
L 444.315789 191.642732 
L 449.655502 185.944664 
L 454.995215 205.785193 
L 460.334928 215.078411 
L 465.674641 200.295499 
L 471.014354 198.453776 
L 476.354067 196.246961 
L 481.69378 181.839512 
L 487.033493 130.01888 
L 492.373206 106.153141 
L 497.712919 103.673992 
L 503.052632 113.357373 
L 508.392344 121.440782 
L 513.732057 115.133756 
L 519.07177 116.171808 
L 524.411483 122.173842 
L 529.751196 144.710901 
L 535.090909 136.998427 
L 540.430622 158.309438 
L 545.770335 174.578823 
L 551.110048 200.494163 
L 556.449761 202.450287 
L 561.789474 206.383078 
L 567.129187 206.342413 
L 572.4689 222.546135 
L 577.808612 227.750084 
L 583.148325 258.611045 
L 588.488038 220.281599 
L 593.827751 201.289539 
L 599.167464 195.671396 
L 604.507177 159.939805 
L 609.84689 131.675309 
L 615.186603 114.136957 
L 620.526316 96.20949 
L 625.866029 95.260322 
L 631.205742 100.934822 
L 636.545455 113.0798 
L 641.885167 111.963477 
L 647.22488 138.957368 
L 657.904306 148.242446 
L 663.244019 166.426331 
L 668.583732 156.253136 
L 673.923445 165.88996 
L 679.263158 184.376423 
L 684.602871 183.254811 
L 689.942584 183.596063 
L 695.282297 192.709738 
L 700.62201 186.3233 
L 705.961722 203.411347 
L 711.301435 225.306327 
L 716.641148 233.466224 
L 721.980861 210.377358 
L 727.320574 205.981213 
L 732.660287 160.238631 
L 738 125.785593 
L 743.339713 120.846979 
L 748.679426 111.26952 
L 754.019139 102.250694 
L 759.358852 97.718399 
L 764.698565 104.06337 
L 770.038278 109.99647 
L 775.37799 117.244136 
L 780.717703 160.570512 
L 786.057416 174.642089 
L 791.397129 165.584688 
L 796.736842 147.753938 
L 802.076555 156.935424 
L 807.416268 208.329244 
L 812.755981 255.005855 
L 818.095694 262.33942 
L 823.435407 264.778669 
L 828.77512 255.262471 
L 834.114833 231.400004 
L 839.454545 233.106643 
L 844.794258 247.862996 
L 850.133971 235.493249 
L 855.473684 217.6228 
L 860.813397 206.849324 
L 866.15311 174.503906 
L 871.492823 127.206974 
L 876.832536 109.592399 
L 882.172249 118.811005 
L 887.511962 112.182626 
L 892.851675 113.934021 
L 898.191388 123.539559 
L 903.5311 150.023209 
L 908.870813 168.657011 
L 914.210526 157.150888 
L 919.550239 166.564481 
L 924.889952 171.517077 
L 930.229665 163.533608 
L 935.569378 177.260809 
L 940.909091 165.441101 
L 946.248804 183.398696 
L 951.588517 194.042931 
L 956.92823 187.309968 
L 962.267943 197.289565 
L 967.607656 217.895349 
L 972.947368 237.763619 
L 978.287081 226.948544 
L 983.626794 209.024796 
L 988.966507 167.325918 
L 994.30622 127.435197 
L 999.645933 110.859912 
L 1004.985646 129.604446 
L 1010.325359 120.2544 
L 1015.665072 117.736677 
L 1021.004785 126.726234 
L 1026.344498 133.910799 
L 1031.684211 160.056817 
L 1037.023923 174.040998 
L 1042.363636 163.836913 
L 1047.703349 184.89473 
L 1053.043062 191.943277 
L 1058.382775 168.923032 
L 1063.722488 208.616221 
L 1069.062201 211.160709 
L 1074.401914 225.554722 
L 1079.741627 252.481819 
L 1085.08134 248.800901 
L 1090.421053 254.533651 
L 1095.760766 254.184491 
L 1101.100478 220.766686 
L 1106.440191 239.472629 
L 1111.779904 250.897555 
L 1117.119617 224.630493 
L 1122.45933 208.58467 
L 1127.799043 173.523104 
L 1133.138756 130.402342 
L 1138.478469 114.761467 
L 1143.818182 109.021007 
L 1149.157895 115.47286 
L 1154.497608 123.341201 
L 1159.837321 136.132885 
L 1165.177033 128.737533 
L 1170.516746 139.498449 
L 1175.856459 166.121769 
L 1181.196172 179.722786 
L 1186.535885 162.338202 
L 1191.875598 160.371146 
L 1197.215311 171.190022 
L 1202.555024 186.759285 
L 1207.894737 193.566024 
L 1213.23445 214.342029 
L 1218.574163 225.722331 
L 1223.913876 245.952272 
L 1229.253589 249.208369 
L 1234.593301 238.849086 
L 1239.933014 200.380473 
L 1245.272727 156.935788 
L 1245.272727 156.935788 
" clip-path="url(#pfeded077ef)" style="fill: none; stroke: #0000ff; stroke-width: 1.5; stroke-linecap: square"/>
   </g>
   <g id="line2d_18">
    <path d="M 230.727273 172.205994 
L 236.066986 181.458251 
L 241.406699 165.379928 
L 246.746411 183.431938 
L 252.086124 180.976864 
L 257.425837 177.414601 
L 262.76555 171.281732 
L 268.105263 166.313818 
L 273.444976 173.861966 
L 278.784689 198.297166 
L 284.124402 208.704751 
L 289.464115 228.451242 
L 294.803828 217.465993 
L 300.143541 228.88449 
L 305.483254 244.365894 
L 310.822967 247.544721 
L 316.162679 256.573866 
L 321.502392 266.625225 
L 326.842105 264.98851 
L 332.181818 251.153449 
L 337.521531 240.129689 
L 342.861244 195.822837 
L 348.200957 157.889548 
L 353.54067 132.202742 
L 358.880383 108.104512 
L 364.220096 110.164849 
L 369.559809 110.829163 
L 374.899522 108.836221 
L 380.239234 135.967188 
L 385.578947 154.394679 
L 390.91866 183.143105 
L 396.258373 187.369682 
L 401.598086 188.69831 
L 406.937799 178.078915 
L 412.277512 158.650139 
L 417.617225 178.579558 
L 422.956938 195.216288 
L 428.296651 192.838238 
L 433.636364 190.650014 
L 438.976077 186.617539 
L 444.315789 182.382665 
L 449.655502 204.170086 
L 454.995215 214.481394 
L 460.334928 208.743262 
L 465.674641 215.155336 
L 471.014354 213.191277 
L 476.354067 191.990997 
L 481.69378 132.279764 
L 487.033493 94.779723 
L 492.373206 92.02619 
L 497.712919 109.510162 
L 503.052632 125.164865 
L 508.392344 115.517871 
L 513.732057 110.665491 
L 519.07177 121.756645 
L 524.411483 149.667459 
L 529.751196 135.302874 
L 535.090909 160.39276 
L 540.430622 173.833083 
L 545.770335 188.332457 
L 551.110048 192.982654 
L 556.449761 198.056471 
L 561.789474 197.844662 
L 567.129187 211.17908 
L 572.4689 217.379343 
L 577.808612 249.651522 
L 583.148325 217.629664 
L 588.488038 209.041722 
L 593.827751 206.721437 
L 599.167464 168.855541 
L 604.507177 132.33753 
L 609.84689 105.803483 
L 615.186603 67.436945 
L 620.526316 81.204612 
L 625.866029 93.239285 
L 631.205742 111.512732 
L 636.545455 107.834936 
L 641.885167 142.398517 
L 647.22488 140.386319 
L 652.564593 143.852306 
L 657.904306 162.376073 
L 663.244019 151.044226 
L 668.583732 160.383132 
L 673.923445 171.050667 
L 679.263158 170.48263 
L 684.602871 171.522426 
L 689.942584 181.737456 
L 695.282297 177.713062 
L 700.62201 195.620654 
L 705.961722 217.302321 
L 711.301435 231.127753 
L 716.641148 216.705401 
L 721.980861 220.142504 
L 727.320574 167.478775 
L 732.660287 127.109668 
L 738 118.685397 
L 743.339713 106.236731 
L 748.679426 85.440817 
L 754.019139 91.255972 
L 759.358852 99.336461 
L 764.698565 107.209133 
L 770.038278 116.817616 
L 775.37799 166.150147 
L 780.717703 179.349777 
L 786.057416 164.407527 
L 791.397129 140.569246 
L 796.736842 148.695058 
L 802.076555 194.561603 
L 807.416268 244.962813 
L 812.755981 249.95961 
L 818.095694 255.235611 
L 823.435407 245.039836 
L 828.77512 224.186153 
L 834.114833 228.095016 
L 839.454545 247.87039 
L 844.794258 245.169655 
L 850.133971 228.675685 
L 855.473684 213.210532 
L 860.813397 171.291359 
L 866.15311 116.124418 
L 871.492823 92.911942 
L 876.832536 109.279096 
L 882.172249 102.847768 
L 887.511962 102.501169 
L 892.851675 122.960113 
L 898.191388 154.096219 
L 903.5311 172.388922 
L 908.870813 155.482613 
L 914.210526 169.616133 
L 919.550239 172.379294 
L 924.889952 159.275942 
L 930.229665 163.58917 
L 935.569378 153.528182 
L 940.909091 173.707921 
L 946.248804 185.627062 
L 951.588517 181.265696 
L 956.92823 194.937084 
L 962.267943 213.489737 
L 967.607656 235.306192 
L 972.947368 232.957024 
L 978.287081 215.299752 
L 983.626794 175.58533 
L 988.966507 136.8048 
L 994.30622 114.526214 
L 999.645933 142.908787 
L 1004.985646 127.31185 
L 1010.325359 125.155238 
L 1015.665072 138.547421 
L 1021.004785 145.460137 
L 1026.344498 171.243222 
L 1031.684211 186.628347 
L 1037.023923 176.962098 
L 1042.363636 197.8928 
L 1047.703349 203.265079 
L 1053.043062 177.578273 
L 1058.382775 198.258655 
L 1063.722488 198.701531 
L 1069.062201 214.414 
L 1074.401914 241.747149 
L 1079.741627 240.803631 
L 1085.08134 247.83188 
L 1090.421053 244.394777 
L 1095.760766 215.77151 
L 1101.100478 242.421091 
L 1106.440191 259.760647 
L 1111.779904 230.261257 
L 1117.119617 214.953153 
L 1122.45933 183.855558 
L 1127.799043 137.536509 
L 1133.138756 120.678338 
L 1138.478469 114.940207 
L 1143.818182 120.687966 
L 1149.157895 119.880419 
L 1154.497608 137.562038 
L 1159.837321 139.481311 
L 1165.177033 150.765022 
L 1170.516746 178.945412 
L 1175.856459 192.559033 
L 1181.196172 158.746416 
L 1186.535885 143.40943 
L 1191.875598 155.11676 
L 1197.215311 173.900477 
L 1202.555024 183.345288 
L 1207.894737 204.362641 
L 1213.23445 216.041088 
L 1218.574163 236.750353 
L 1223.913876 244.096317 
L 1229.253589 242.411463 
L 1234.593301 205.094349 
L 1239.933014 152.584664 
L 1245.272727 117.924806 
L 1245.272727 117.924806 
" clip-path="url(#pfeded077ef)" style="fill: none; stroke: #ffa500; stroke-width: 1.5; stroke-linecap: square"/>
   </g>
   <g id="patch_3">
    <path d="M 180 320.4 
L 180 43.2 
" style="fill: none; stroke: #000000; stroke-width: 0.8; stroke-linejoin: miter; stroke-linecap: square"/>
   </g>
   <g id="patch_4">
    <path d="M 1296 320.4 
L 1296 43.2 
" style="fill: none; stroke: #000000; stroke-width: 0.8; stroke-linejoin: miter; stroke-linecap: square"/>
   </g>
   <g id="patch_5">
    <path d="M 180 320.4 
L 1296 320.4 
" style="fill: none; stroke: #000000; stroke-width: 0.8; stroke-linejoin: miter; stroke-linecap: square"/>
   </g>
   <g id="patch_6">
    <path d="M 180 43.2 
L 1296 43.2 
" style="fill: none; stroke: #000000; stroke-width: 0.8; stroke-linejoin: miter; stroke-linecap: square"/>
   </g>
   <g id="text_19">
    <!-- Previsão do vento para 1 hora(s) à frente com 2 camadas -->
    <g transform="translate(564.882187 37.2) scale(0.12 -0.12)">
     <defs>
      <path id="DejaVuSans-50" d="M 1259 4147 
L 1259 2394 
L 2053 2394 
Q 2494 2394 2734 2622 
Q 2975 2850 2975 3272 
Q 2975 3691 2734 3919 
Q 2494 4147 2053 4147 
L 1259 4147 
z
M 628 4666 
L 2053 4666 
Q 2838 4666 3239 4311 
Q 3641 3956 3641 3272 
Q 3641 2581 3239 2228 
Q 2838 1875 2053 1875 
L 1259 1875 
L 1259 0 
L 628 0 
L 628 4666 
z
" transform="scale(0.015625)"/>
      <path id="DejaVuSans-76" d="M 191 3500 
L 800 3500 
L 1894 563 
L 2988 3500 
L 3597 3500 
L 2284 0 
L 1503 0 
L 191 3500 
z
" transform="scale(0.015625)"/>
      <path id="DejaVuSans-e3" d="M 2194 1759 
Q 1497 1759 1228 1600 
Q 959 1441 959 1056 
Q 959 750 1161 570 
Q 1363 391 1709 391 
Q 2188 391 2477 730 
Q 2766 1069 2766 1631 
L 2766 1759 
L 2194 1759 
z
M 3341 1997 
L 3341 0 
L 2766 0 
L 2766 531 
Q 2569 213 2275 61 
Q 1981 -91 1556 -91 
Q 1019 -91 701 211 
Q 384 513 384 1019 
Q 384 1609 779 1909 
Q 1175 2209 1959 2209 
L 2766 2209 
L 2766 2266 
Q 2766 2663 2505 2880 
Q 2244 3097 1772 3097 
Q 1472 3097 1187 3025 
Q 903 2953 641 2809 
L 641 3341 
Q 956 3463 1253 3523 
Q 1550 3584 1831 3584 
Q 2591 3584 2966 3190 
Q 3341 2797 3341 1997 
z
M 1844 4281 
L 1666 4453 
Q 1597 4516 1545 4545 
Q 1494 4575 1453 4575 
Q 1334 4575 1278 4461 
Q 1222 4347 1216 4091 
L 825 4091 
Q 831 4513 990 4742 
Q 1150 4972 1434 4972 
Q 1553 4972 1653 4928 
Q 1753 4884 1869 4781 
L 2047 4609 
Q 2116 4547 2167 4517 
Q 2219 4488 2259 4488 
Q 2378 4488 2434 4602 
Q 2491 4716 2497 4972 
L 2888 4972 
Q 2881 4550 2722 4320 
Q 2563 4091 2278 4091 
Q 2159 4091 2059 4134 
Q 1959 4178 1844 4281 
z
" transform="scale(0.015625)"/>
      <path id="DejaVuSans-70" d="M 1159 525 
L 1159 -1331 
L 581 -1331 
L 581 3500 
L 1159 3500 
L 1159 2969 
Q 1341 3281 1617 3432 
Q 1894 3584 2278 3584 
Q 2916 3584 3314 3078 
Q 3713 2572 3713 1747 
Q 3713 922 3314 415 
Q 2916 -91 2278 -91 
Q 1894 -91 1617 61 
Q 1341 213 1159 525 
z
M 3116 1747 
Q 3116 2381 2855 2742 
Q 2594 3103 2138 3103 
Q 1681 3103 1420 2742 
Q 1159 2381 1159 1747 
Q 1159 1113 1420 752 
Q 1681 391 2138 391 
Q 2594 391 2855 752 
Q 3116 1113 3116 1747 
z
" transform="scale(0.015625)"/>
      <path id="DejaVuSans-68" d="M 3513 2113 
L 3513 0 
L 2938 0 
L 2938 2094 
Q 2938 2591 2744 2837 
Q 2550 3084 2163 3084 
Q 1697 3084 1428 2787 
Q 1159 2491 1159 1978 
L 1159 0 
L 581 0 
L 581 4863 
L 1159 4863 
L 1159 2956 
Q 1366 3272 1645 3428 
Q 1925 3584 2291 3584 
Q 2894 3584 3203 3211 
Q 3513 2838 3513 2113 
z
" transform="scale(0.015625)"/>
      <path id="DejaVuSans-e0" d="M 2194 1759 
Q 1497 1759 1228 1600 
Q 959 1441 959 1056 
Q 959 750 1161 570 
Q 1363 391 1709 391 
Q 2188 391 2477 730 
Q 2766 1069 2766 1631 
L 2766 1759 
L 2194 1759 
z
M 3341 1997 
L 3341 0 
L 2766 0 
L 2766 531 
Q 2569 213 2275 61 
Q 1981 -91 1556 -91 
Q 1019 -91 701 211 
Q 384 513 384 1019 
Q 384 1609 779 1909 
Q 1175 2209 1959 2209 
L 2766 2209 
L 2766 2266 
Q 2766 2663 2505 2880 
Q 2244 3097 1772 3097 
Q 1472 3097 1187 3025 
Q 903 2953 641 2809 
L 641 3341 
Q 956 3463 1253 3523 
Q 1550 3584 1831 3584 
Q 2591 3584 2966 3190 
Q 3341 2797 3341 1997 
z
M 1403 5119 
L 2284 3950 
L 1806 3950 
L 788 5119 
L 1403 5119 
z
" transform="scale(0.015625)"/>
      <path id="DejaVuSans-66" d="M 2375 4863 
L 2375 4384 
L 1825 4384 
Q 1516 4384 1395 4259 
Q 1275 4134 1275 3809 
L 1275 3500 
L 2222 3500 
L 2222 3053 
L 1275 3053 
L 1275 0 
L 697 0 
L 697 3053 
L 147 3053 
L 147 3500 
L 697 3500 
L 697 3744 
Q 697 4328 969 4595 
Q 1241 4863 1831 4863 
L 2375 4863 
z
" transform="scale(0.015625)"/>
     </defs>
     <use xlink:href="#DejaVuSans-50"/>
     <use xlink:href="#DejaVuSans-72" x="58.552734"/>
     <use xlink:href="#DejaVuSans-65" x="97.416016"/>
     <use xlink:href="#DejaVuSans-76" x="158.939453"/>
     <use xlink:href="#DejaVuSans-69" x="218.119141"/>
     <use xlink:href="#DejaVuSans-73" x="245.902344"/>
     <use xlink:href="#DejaVuSans-e3" x="298.001953"/>
     <use xlink:href="#DejaVuSans-6f" x="359.28125"/>
     <use xlink:href="#DejaVuSans-20" x="420.462891"/>
     <use xlink:href="#DejaVuSans-64" x="452.25"/>
     <use xlink:href="#DejaVuSans-6f" x="515.726562"/>
     <use xlink:href="#DejaVuSans-20" x="576.908203"/>
     <use xlink:href="#DejaVuSans-76" x="608.695312"/>
     <use xlink:href="#DejaVuSans-65" x="667.875"/>
     <use xlink:href="#DejaVuSans-6e" x="729.398438"/>
     <use xlink:href="#DejaVuSans-74" x="792.777344"/>
     <use xlink:href="#DejaVuSans-6f" x="831.986328"/>
     <use xlink:href="#DejaVuSans-20" x="893.167969"/>
     <use xlink:href="#DejaVuSans-70" x="924.955078"/>
     <use xlink:href="#DejaVuSans-61" x="988.431641"/>
     <use xlink:href="#DejaVuSans-72" x="1049.710938"/>
     <use xlink:href="#DejaVuSans-61" x="1090.824219"/>
     <use xlink:href="#DejaVuSans-20" x="1152.103516"/>
     <use xlink:href="#DejaVuSans-31" x="1183.890625"/>
     <use xlink:href="#DejaVuSans-20" x="1247.513672"/>
     <use xlink:href="#DejaVuSans-68" x="1279.300781"/>
     <use xlink:href="#DejaVuSans-6f" x="1342.679688"/>
     <use xlink:href="#DejaVuSans-72" x="1403.861328"/>
     <use xlink:href="#DejaVuSans-61" x="1444.974609"/>
     <use xlink:href="#DejaVuSans-28" x="1506.253906"/>
     <use xlink:href="#DejaVuSans-73" x="1545.267578"/>
     <use xlink:href="#DejaVuSans-29" x="1597.367188"/>
     <use xlink:href="#DejaVuSans-20" x="1636.380859"/>
     <use xlink:href="#DejaVuSans-e0" x="1668.167969"/>
     <use xlink:href="#DejaVuSans-20" x="1729.447266"/>
     <use xlink:href="#DejaVuSans-66" x="1761.234375"/>
     <use xlink:href="#DejaVuSans-72" x="1796.439453"/>
     <use xlink:href="#DejaVuSans-65" x="1835.302734"/>
     <use xlink:href="#DejaVuSans-6e" x="1896.826172"/>
     <use xlink:href="#DejaVuSans-74" x="1960.205078"/>
     <use xlink:href="#DejaVuSans-65" x="1999.414062"/>
     <use xlink:href="#DejaVuSans-20" x="2060.9375"/>
     <use xlink:href="#DejaVuSans-63" x="2092.724609"/>
     <use xlink:href="#DejaVuSans-6f" x="2147.705078"/>
     <use xlink:href="#DejaVuSans-6d" x="2208.886719"/>
     <use xlink:href="#DejaVuSans-20" x="2306.298828"/>
     <use xlink:href="#DejaVuSans-32" x="2338.085938"/>
     <use xlink:href="#DejaVuSans-20" x="2401.708984"/>
     <use xlink:href="#DejaVuSans-63" x="2433.496094"/>
     <use xlink:href="#DejaVuSans-61" x="2488.476562"/>
     <use xlink:href="#DejaVuSans-6d" x="2549.755859"/>
     <use xlink:href="#DejaVuSans-61" x="2647.167969"/>
     <use xlink:href="#DejaVuSans-64" x="2708.447266"/>
     <use xlink:href="#DejaVuSans-61" x="2771.923828"/>
     <use xlink:href="#DejaVuSans-73" x="2833.203125"/>
    </g>
   </g>
   <g id="legend_1">
    <g id="patch_7">
     <path d="M 1217.86875 80.55625 
L 1289 80.55625 
Q 1291 80.55625 1291 78.55625 
L 1291 50.2 
Q 1291 48.2 1289 48.2 
L 1217.86875 48.2 
Q 1215.86875 48.2 1215.86875 50.2 
L 1215.86875 78.55625 
Q 1215.86875 80.55625 1217.86875 80.55625 
z
" style="fill: #ffffff; opacity: 0.8; stroke: #cccccc; stroke-linejoin: miter"/>
    </g>
    <g id="line2d_19">
     <path d="M 1219.86875 56.298437 
L 1229.86875 56.298437 
L 1239.86875 56.298437 
" style="fill: none; stroke: #0000ff; stroke-width: 1.5; stroke-linecap: square"/>
    </g>
    <g id="text_20">
     <!-- Predito -->
     <g transform="translate(1247.86875 59.798437) scale(0.1 -0.1)">
      <use xlink:href="#DejaVuSans-50"/>
      <use xlink:href="#DejaVuSans-72" x="58.552734"/>
      <use xlink:href="#DejaVuSans-65" x="97.416016"/>
      <use xlink:href="#DejaVuSans-64" x="158.939453"/>
      <use xlink:href="#DejaVuSans-69" x="222.416016"/>
      <use xlink:href="#DejaVuSans-74" x="250.199219"/>
      <use xlink:href="#DejaVuSans-6f" x="289.408203"/>
     </g>
    </g>
    <g id="line2d_20">
     <path d="M 1219.86875 70.976562 
L 1229.86875 70.976562 
L 1239.86875 70.976562 
" style="fill: none; stroke: #ffa500; stroke-width: 1.5; stroke-linecap: square"/>
    </g>
    <g id="text_21">
     <!-- Original -->
     <g transform="translate(1247.86875 74.476562) scale(0.1 -0.1)">
      <defs>
       <path id="DejaVuSans-4f" d="M 2522 4238 
Q 1834 4238 1429 3725 
Q 1025 3213 1025 2328 
Q 1025 1447 1429 934 
Q 1834 422 2522 422 
Q 3209 422 3611 934 
Q 4013 1447 4013 2328 
Q 4013 3213 3611 3725 
Q 3209 4238 2522 4238 
z
M 2522 4750 
Q 3503 4750 4090 4092 
Q 4678 3434 4678 2328 
Q 4678 1225 4090 567 
Q 3503 -91 2522 -91 
Q 1538 -91 948 565 
Q 359 1222 359 2328 
Q 359 3434 948 4092 
Q 1538 4750 2522 4750 
z
" transform="scale(0.015625)"/>
       <path id="DejaVuSans-67" d="M 2906 1791 
Q 2906 2416 2648 2759 
Q 2391 3103 1925 3103 
Q 1463 3103 1205 2759 
Q 947 2416 947 1791 
Q 947 1169 1205 825 
Q 1463 481 1925 481 
Q 2391 481 2648 825 
Q 2906 1169 2906 1791 
z
M 3481 434 
Q 3481 -459 3084 -895 
Q 2688 -1331 1869 -1331 
Q 1566 -1331 1297 -1286 
Q 1028 -1241 775 -1147 
L 775 -588 
Q 1028 -725 1275 -790 
Q 1522 -856 1778 -856 
Q 2344 -856 2625 -561 
Q 2906 -266 2906 331 
L 2906 616 
Q 2728 306 2450 153 
Q 2172 0 1784 0 
Q 1141 0 747 490 
Q 353 981 353 1791 
Q 353 2603 747 3093 
Q 1141 3584 1784 3584 
Q 2172 3584 2450 3431 
Q 2728 3278 2906 2969 
L 2906 3500 
L 3481 3500 
L 3481 434 
z
" transform="scale(0.015625)"/>
      </defs>
      <use xlink:href="#DejaVuSans-4f"/>
      <use xlink:href="#DejaVuSans-72" x="78.710938"/>
      <use xlink:href="#DejaVuSans-69" x="119.824219"/>
      <use xlink:href="#DejaVuSans-67" x="147.607422"/>
      <use xlink:href="#DejaVuSans-69" x="211.083984"/>
      <use xlink:href="#DejaVuSans-6e" x="238.867188"/>
      <use xlink:href="#DejaVuSans-61" x="302.246094"/>
      <use xlink:href="#DejaVuSans-6c" x="363.525391"/>
     </g>
    </g>
   </g>
  </g>
 </g>
 <defs>
  <clipPath id="pfeded077ef">
   <rect x="180" y="43.2" width="1116" height="277.2"/>
  </clipPath>
 </defs>
</svg>
