<?xml version="1.0" encoding="utf-8" standalone="no"?>
<!DOCTYPE svg PUBLIC "-//W3C//DTD SVG 1.1//EN"
  "http://www.w3.org/Graphics/SVG/1.1/DTD/svg11.dtd">
<svg xmlns:xlink="http://www.w3.org/1999/xlink" width="1440pt" height="360pt" viewBox="0 0 1440 360" xmlns="http://www.w3.org/2000/svg" version="1.1">
 <metadata>
  <rdf:RDF xmlns:dc="http://purl.org/dc/elements/1.1/" xmlns:cc="http://creativecommons.org/ns#" xmlns:rdf="http://www.w3.org/1999/02/22-rdf-syntax-ns#">
   <cc:Work>
    <dc:type rdf:resource="http://purl.org/dc/dcmitype/StillImage"/>
    <dc:date>2023-08-20T14:53:51.139109</dc:date>
    <dc:format>image/svg+xml</dc:format>
    <dc:creator>
     <cc:Agent>
      <dc:title>Matplotlib v3.7.1, https://matplotlib.org/</dc:title>
     </cc:Agent>
    </dc:creator>
   </cc:Work>
  </rdf:RDF>
 </metadata>
 <defs>
  <style type="text/css">*{stroke-linejoin: round; stroke-linecap: butt}</style>
 </defs>
 <g id="figure_1">
  <g id="patch_1">
   <path d="M 0 360 
L 1440 360 
L 1440 0 
L 0 0 
z
" style="fill: #ffffff"/>
  </g>
  <g id="axes_1">
   <g id="patch_2">
    <path d="M 180 320.4 
L 1296 320.4 
L 1296 43.2 
L 180 43.2 
z
" style="fill: #ffffff"/>
   </g>
   <g id="PolyCollection_1">
    <defs>
     <path id="m310850219a" d="M 230.727273 -269.063111 
L 230.727273 -191.373459 
L 236.066986 -159.611662 
L 241.406699 -150.943835 
L 246.746411 -160.90916 
L 252.086124 -146.07041 
L 257.425837 -148.335461 
L 262.76555 -149.890081 
L 268.105263 -154.561782 
L 273.444976 -156.587173 
L 278.784689 -149.233829 
L 284.124402 -128.351241 
L 289.464115 -118.555353 
L 294.803828 -79.744078 
L 300.143541 -91.724128 
L 305.483254 -83.030192 
L 310.822967 -69.457635 
L 316.162679 -67.331629 
L 321.502392 -61.415883 
L 326.842105 -56.651108 
L 332.181818 -61.670014 
L 337.521531 -75.526313 
L 342.861244 -88.66975 
L 348.200957 -134.12786 
L 353.54067 -170.762769 
L 358.880383 -192.551581 
L 364.220096 -207.625033 
L 369.559809 -206.593682 
L 374.899522 -204.963535 
L 380.239234 -205.932932 
L 385.578947 -187.879089 
L 390.91866 -171.91292 
L 396.258373 -146.831379 
L 401.598086 -141.560273 
L 406.937799 -139.46629 
L 412.277512 -145.901171 
L 417.617225 -157.712056 
L 422.956938 -127.896449 
L 428.296651 -110.606622 
L 433.636364 -116.314698 
L 438.976077 -120.239448 
L 444.315789 -125.953619 
L 449.655502 -131.633856 
L 454.995215 -113.182166 
L 460.334928 -106.956306 
L 465.674641 -126.876942 
L 471.014354 -130.667638 
L 476.354067 -136.024221 
L 481.69378 -152.218453 
L 487.033493 -200.479737 
L 492.373206 -219.37823 
L 497.712919 -216.989404 
L 503.052632 -205.49649 
L 508.392344 -196.366722 
L 513.732057 -199.390634 
L 519.07177 -197.439995 
L 524.411483 -189.82472 
L 529.751196 -170.457564 
L 535.090909 -177.453733 
L 540.430622 -159.01532 
L 545.770335 -146.908488 
L 551.110048 -116.461996 
L 556.449761 -112.326067 
L 561.789474 -108.529787 
L 567.129187 -110.193901 
L 572.4689 -97.006428 
L 577.808612 -92.085867 
L 583.148325 -65.94414 
L 588.488038 -102.908094 
L 593.827751 -127.272186 
L 599.167464 -136.43569 
L 604.507177 -172.929412 
L 609.84689 -201.342524 
L 615.186603 -215.506588 
L 620.526316 -226.510348 
L 625.866029 -222.696458 
L 631.205742 -218.195727 
L 636.545455 -208.405752 
L 641.885167 -206.570159 
L 647.22488 -184.841736 
L 652.564593 -181.554756 
L 657.904306 -174.719739 
L 663.244019 -158.561417 
L 668.583732 -165.066603 
L 673.923445 -156.906841 
L 679.263158 -133.631704 
L 684.602871 -134.590823 
L 689.942584 -135.011171 
L 695.282297 -125.48064 
L 700.62201 -132.228204 
L 705.961722 -116.869265 
L 711.301435 -97.018058 
L 716.641148 -91.464314 
L 721.980861 -118.287344 
L 727.320574 -124.982393 
L 732.660287 -171.699369 
L 738 -204.493752 
L 743.339713 -209.541754 
L 748.679426 -214.395889 
L 754.019139 -218.97783 
L 759.358852 -218.278419 
L 764.698565 -211.419089 
L 770.038278 -206.214565 
L 775.37799 -198.373647 
L 780.717703 -163.696212 
L 786.057416 -149.476454 
L 791.397129 -157.39649 
L 796.736842 -171.478059 
L 802.076555 -164.879424 
L 807.416268 -107.064877 
L 812.755981 -59.498215 
L 818.095694 -58.543206 
L 823.435407 -52.2 
L 828.77512 -64.245393 
L 834.114833 -89.155289 
L 839.454545 -88.400571 
L 844.794258 -79.889935 
L 850.133971 -97.636938 
L 855.473684 -114.988899 
L 860.813397 -123.598479 
L 866.15311 -159.317131 
L 871.492823 -203.020309 
L 876.832536 -216.769742 
L 882.172249 -205.9003 
L 887.511962 -207.597919 
L 892.851675 -204.984455 
L 898.191388 -194.478103 
L 903.5311 -172.849141 
L 908.870813 -157.240082 
L 914.210526 -168.821355 
L 919.550239 -157.335574 
L 924.889952 -152.810726 
L 930.229665 -159.28216 
L 935.569378 -140.187939 
L 940.909091 -151.998428 
L 946.248804 -133.71639 
L 951.588517 -125.188597 
L 956.92823 -133.067138 
L 962.267943 -123.464161 
L 967.607656 -104.561484 
L 972.947368 -89.504863 
L 978.287081 -104.597757 
L 983.626794 -120.414371 
L 988.966507 -158.827697 
L 994.30622 -192.099753 
L 999.645933 -204.117748 
L 1004.985646 -189.456886 
L 1010.325359 -198.042086 
L 1015.665072 -196.952142 
L 1021.004785 -188.374635 
L 1026.344498 -181.301638 
L 1031.684211 -160.309425 
L 1037.023923 -147.975881 
L 1042.363636 -155.67716 
L 1047.703349 -136.566153 
L 1053.043062 -130.256366 
L 1058.382775 -149.305336 
L 1063.722488 -107.611241 
L 1069.062201 -106.787758 
L 1074.401914 -93.641047 
L 1079.741627 -69.559913 
L 1085.08134 -74.115145 
L 1090.421053 -71.419573 
L 1095.760766 -72.601566 
L 1101.100478 -104.760753 
L 1106.440191 -94.128085 
L 1111.779904 -86.897066 
L 1117.119617 -108.555419 
L 1122.45933 -123.636003 
L 1127.799043 -153.48299 
L 1133.138756 -188.300179 
L 1138.478469 -199.627987 
L 1143.818182 -203.015499 
L 1149.157895 -198.108306 
L 1154.497608 -196.771273 
L 1159.837321 -185.677886 
L 1165.177033 -181.435247 
L 1170.516746 -173.988684 
L 1175.856459 -152.430917 
L 1181.196172 -140.714025 
L 1186.535885 -162.182642 
L 1191.875598 -163.379955 
L 1197.215311 -153.768955 
L 1202.555024 -135.179521 
L 1207.894737 -127.689223 
L 1213.23445 -107.916248 
L 1218.574163 -98.425894 
L 1223.913876 -81.2419 
L 1229.253589 -80.759977 
L 1234.593301 -95.637949 
L 1239.933014 -127.271576 
L 1245.272727 -172.208109 
L 1245.272727 -249.897762 
L 1245.272727 -249.897762 
L 1239.933014 -204.961212 
L 1234.593301 -173.327588 
L 1229.253589 -158.449617 
L 1223.913876 -158.93154 
L 1218.574163 -176.115546 
L 1213.23445 -185.6059 
L 1207.894737 -205.378876 
L 1202.555024 -212.869174 
L 1197.215311 -231.458607 
L 1191.875598 -241.069607 
L 1186.535885 -239.872294 
L 1181.196172 -218.403677 
L 1175.856459 -230.120569 
L 1170.516746 -251.678336 
L 1165.177033 -259.1249 
L 1159.837321 -263.367538 
L 1154.497608 -274.460925 
L 1149.157895 -275.797958 
L 1143.818182 -280.705152 
L 1138.478469 -277.31764 
L 1133.138756 -265.989831 
L 1127.799043 -231.172643 
L 1122.45933 -201.325639 
L 1117.119617 -186.245055 
L 1111.779904 -164.586706 
L 1106.440191 -171.817725 
L 1101.100478 -182.450405 
L 1095.760766 -150.291206 
L 1090.421053 -149.109213 
L 1085.08134 -151.804793 
L 1079.741627 -147.249553 
L 1074.401914 -171.330695 
L 1069.062201 -184.477411 
L 1063.722488 -185.300877 
L 1058.382775 -226.994989 
L 1053.043062 -207.946018 
L 1047.703349 -214.255806 
L 1042.363636 -233.366812 
L 1037.023923 -225.665533 
L 1031.684211 -237.999078 
L 1026.344498 -258.99129 
L 1021.004785 -266.064287 
L 1015.665072 -274.641794 
L 1010.325359 -275.731738 
L 1004.985646 -267.146538 
L 999.645933 -281.807401 
L 994.30622 -269.789405 
L 988.966507 -236.517349 
L 983.626794 -198.104023 
L 978.287081 -182.287392 
L 972.947368 -167.194503 
L 967.607656 -182.25112 
L 962.267943 -201.153797 
L 956.92823 -210.756791 
L 951.588517 -202.87825 
L 946.248804 -211.406042 
L 940.909091 -229.688081 
L 935.569378 -217.877591 
L 930.229665 -236.971812 
L 924.889952 -230.500379 
L 919.550239 -235.025226 
L 914.210526 -246.511007 
L 908.870813 -234.929734 
L 903.5311 -250.538794 
L 898.191388 -272.167755 
L 892.851675 -282.674107 
L 887.511962 -285.287571 
L 882.172249 -283.589952 
L 876.832536 -294.459394 
L 871.492823 -280.709962 
L 866.15311 -237.006783 
L 860.813397 -201.288131 
L 855.473684 -192.678535 
L 850.133971 -175.326574 
L 844.794258 -157.579583 
L 839.454545 -166.090211 
L 834.114833 -166.844937 
L 828.77512 -141.935041 
L 823.435407 -129.889644 
L 818.095694 -136.232846 
L 812.755981 -137.187863 
L 807.416268 -184.75453 
L 802.076555 -242.569076 
L 796.736842 -249.167712 
L 791.397129 -235.086142 
L 786.057416 -227.166106 
L 780.717703 -241.385865 
L 775.37799 -276.063299 
L 770.038278 -283.904217 
L 764.698565 -289.108741 
L 759.358852 -295.968072 
L 754.019139 -296.667483 
L 748.679426 -292.085541 
L 743.339713 -287.231406 
L 738 -282.183405 
L 732.660287 -249.389021 
L 727.320574 -202.672045 
L 721.980861 -195.976996 
L 716.641148 -169.153954 
L 711.301435 -174.707698 
L 705.961722 -194.558918 
L 700.62201 -209.917857 
L 695.282297 -203.170276 
L 689.942584 -212.700823 
L 684.602871 -212.280475 
L 679.263158 -211.321357 
L 673.923445 -234.596493 
L 668.583732 -242.756255 
L 663.244019 -236.251069 
L 657.904306 -252.409391 
L 652.564593 -259.244408 
L 647.22488 -262.531388 
L 641.885167 -284.259811 
L 636.545455 -286.095405 
L 631.205742 -295.885379 
L 625.866029 -300.386111 
L 620.526316 -304.2 
L 615.186603 -293.196241 
L 609.84689 -279.032176 
L 604.507177 -250.619065 
L 599.167464 -214.125343 
L 593.827751 -204.961838 
L 588.488038 -180.597746 
L 583.148325 -143.63378 
L 577.808612 -169.775515 
L 572.4689 -174.696068 
L 567.129187 -187.883553 
L 561.789474 -186.219423 
L 556.449761 -190.01572 
L 551.110048 -194.151632 
L 545.770335 -224.59814 
L 540.430622 -236.704972 
L 535.090909 -255.143385 
L 529.751196 -248.147216 
L 524.411483 -267.514372 
L 519.07177 -275.129648 
L 513.732057 -277.080286 
L 508.392344 -274.056374 
L 503.052632 -283.186142 
L 497.712919 -294.679056 
L 492.373206 -297.067883 
L 487.033493 -278.16939 
L 481.69378 -229.908106 
L 476.354067 -213.713873 
L 471.014354 -208.35729 
L 465.674641 -204.566578 
L 460.334928 -184.645942 
L 454.995215 -190.871802 
L 449.655502 -209.323508 
L 444.315789 -203.643254 
L 438.976077 -197.9291 
L 433.636364 -194.00435 
L 428.296651 -188.296275 
L 422.956938 -205.586101 
L 417.617225 -235.401708 
L 412.277512 -223.590823 
L 406.937799 -217.155942 
L 401.598086 -219.249925 
L 396.258373 -224.521032 
L 390.91866 -249.602572 
L 385.578947 -265.568741 
L 380.239234 -283.622584 
L 374.899522 -282.653187 
L 369.559809 -284.283334 
L 364.220096 -285.314685 
L 358.880383 -270.241233 
L 353.54067 -248.452421 
L 348.200957 -211.817512 
L 342.861244 -166.35939 
L 337.521531 -153.215953 
L 332.181818 -139.359663 
L 326.842105 -134.340752 
L 321.502392 -139.105523 
L 316.162679 -145.021269 
L 310.822967 -147.147275 
L 305.483254 -160.719841 
L 300.143541 -169.413776 
L 294.803828 -157.433718 
L 289.464115 -196.245006 
L 284.124402 -206.040894 
L 278.784689 -226.923481 
L 273.444976 -234.276826 
L 268.105263 -232.251435 
L 262.76555 -227.579734 
L 257.425837 -226.025114 
L 252.086124 -223.760063 
L 246.746411 -238.598813 
L 241.406699 -228.633487 
L 236.066986 -237.301314 
L 230.727273 -269.063111 
z
" style="stroke: #0000ff; stroke-opacity: 0.05"/>
    </defs>
    <g clip-path="url(#ped1f3834d9)">
     <use xlink:href="#m310850219a" x="0" y="360" style="fill: #0000ff; fill-opacity: 0.05; stroke: #0000ff; stroke-opacity: 0.05"/>
    </g>
   </g>
   <g id="matplotlib.axis_1">
    <g id="xtick_1">
     <g id="line2d_1">
      <defs>
       <path id="me9256d78b8" d="M 0 0 
L 0 3.5 
" style="stroke: #000000; stroke-width: 0.8"/>
      </defs>
      <g>
       <use xlink:href="#me9256d78b8" x="230.727273" y="320.4" style="stroke: #000000; stroke-width: 0.8"/>
      </g>
     </g>
     <g id="text_1">
      <!-- 0 -->
      <g transform="translate(227.546023 334.998438) scale(0.1 -0.1)">
       <defs>
        <path id="DejaVuSans-30" d="M 2034 4250 
Q 1547 4250 1301 3770 
Q 1056 3291 1056 2328 
Q 1056 1369 1301 889 
Q 1547 409 2034 409 
Q 2525 409 2770 889 
Q 3016 1369 3016 2328 
Q 3016 3291 2770 3770 
Q 2525 4250 2034 4250 
z
M 2034 4750 
Q 2819 4750 3233 4129 
Q 3647 3509 3647 2328 
Q 3647 1150 3233 529 
Q 2819 -91 2034 -91 
Q 1250 -91 836 529 
Q 422 1150 422 2328 
Q 422 3509 836 4129 
Q 1250 4750 2034 4750 
z
" transform="scale(0.015625)"/>
       </defs>
       <use xlink:href="#DejaVuSans-30"/>
      </g>
     </g>
    </g>
    <g id="xtick_2">
     <g id="line2d_2">
      <g>
       <use xlink:href="#me9256d78b8" x="364.220096" y="320.4" style="stroke: #000000; stroke-width: 0.8"/>
      </g>
     </g>
     <g id="text_2">
      <!-- 25 -->
      <g transform="translate(357.857596 334.998438) scale(0.1 -0.1)">
       <defs>
        <path id="DejaVuSans-32" d="M 1228 531 
L 3431 531 
L 3431 0 
L 469 0 
L 469 531 
Q 828 903 1448 1529 
Q 2069 2156 2228 2338 
Q 2531 2678 2651 2914 
Q 2772 3150 2772 3378 
Q 2772 3750 2511 3984 
Q 2250 4219 1831 4219 
Q 1534 4219 1204 4116 
Q 875 4013 500 3803 
L 500 4441 
Q 881 4594 1212 4672 
Q 1544 4750 1819 4750 
Q 2544 4750 2975 4387 
Q 3406 4025 3406 3419 
Q 3406 3131 3298 2873 
Q 3191 2616 2906 2266 
Q 2828 2175 2409 1742 
Q 1991 1309 1228 531 
z
" transform="scale(0.015625)"/>
        <path id="DejaVuSans-35" d="M 691 4666 
L 3169 4666 
L 3169 4134 
L 1269 4134 
L 1269 2991 
Q 1406 3038 1543 3061 
Q 1681 3084 1819 3084 
Q 2600 3084 3056 2656 
Q 3513 2228 3513 1497 
Q 3513 744 3044 326 
Q 2575 -91 1722 -91 
Q 1428 -91 1123 -41 
Q 819 9 494 109 
L 494 744 
Q 775 591 1075 516 
Q 1375 441 1709 441 
Q 2250 441 2565 725 
Q 2881 1009 2881 1497 
Q 2881 1984 2565 2268 
Q 2250 2553 1709 2553 
Q 1456 2553 1204 2497 
Q 953 2441 691 2322 
L 691 4666 
z
" transform="scale(0.015625)"/>
       </defs>
       <use xlink:href="#DejaVuSans-32"/>
       <use xlink:href="#DejaVuSans-35" x="63.623047"/>
      </g>
     </g>
    </g>
    <g id="xtick_3">
     <g id="line2d_3">
      <g>
       <use xlink:href="#me9256d78b8" x="497.712919" y="320.4" style="stroke: #000000; stroke-width: 0.8"/>
      </g>
     </g>
     <g id="text_3">
      <!-- 50 -->
      <g transform="translate(491.350419 334.998438) scale(0.1 -0.1)">
       <use xlink:href="#DejaVuSans-35"/>
       <use xlink:href="#DejaVuSans-30" x="63.623047"/>
      </g>
     </g>
    </g>
    <g id="xtick_4">
     <g id="line2d_4">
      <g>
       <use xlink:href="#me9256d78b8" x="631.205742" y="320.4" style="stroke: #000000; stroke-width: 0.8"/>
      </g>
     </g>
     <g id="text_4">
      <!-- 75 -->
      <g transform="translate(624.843242 334.998438) scale(0.1 -0.1)">
       <defs>
        <path id="DejaVuSans-37" d="M 525 4666 
L 3525 4666 
L 3525 4397 
L 1831 0 
L 1172 0 
L 2766 4134 
L 525 4134 
L 525 4666 
z
" transform="scale(0.015625)"/>
       </defs>
       <use xlink:href="#DejaVuSans-37"/>
       <use xlink:href="#DejaVuSans-35" x="63.623047"/>
      </g>
     </g>
    </g>
    <g id="xtick_5">
     <g id="line2d_5">
      <g>
       <use xlink:href="#me9256d78b8" x="764.698565" y="320.4" style="stroke: #000000; stroke-width: 0.8"/>
      </g>
     </g>
     <g id="text_5">
      <!-- 100 -->
      <g transform="translate(755.154815 334.998438) scale(0.1 -0.1)">
       <defs>
        <path id="DejaVuSans-31" d="M 794 531 
L 1825 531 
L 1825 4091 
L 703 3866 
L 703 4441 
L 1819 4666 
L 2450 4666 
L 2450 531 
L 3481 531 
L 3481 0 
L 794 0 
L 794 531 
z
" transform="scale(0.015625)"/>
       </defs>
       <use xlink:href="#DejaVuSans-31"/>
       <use xlink:href="#DejaVuSans-30" x="63.623047"/>
       <use xlink:href="#DejaVuSans-30" x="127.246094"/>
      </g>
     </g>
    </g>
    <g id="xtick_6">
     <g id="line2d_6">
      <g>
       <use xlink:href="#me9256d78b8" x="898.191388" y="320.4" style="stroke: #000000; stroke-width: 0.8"/>
      </g>
     </g>
     <g id="text_6">
      <!-- 125 -->
      <g transform="translate(888.647638 334.998438) scale(0.1 -0.1)">
       <use xlink:href="#DejaVuSans-31"/>
       <use xlink:href="#DejaVuSans-32" x="63.623047"/>
       <use xlink:href="#DejaVuSans-35" x="127.246094"/>
      </g>
     </g>
    </g>
    <g id="xtick_7">
     <g id="line2d_7">
      <g>
       <use xlink:href="#me9256d78b8" x="1031.684211" y="320.4" style="stroke: #000000; stroke-width: 0.8"/>
      </g>
     </g>
     <g id="text_7">
      <!-- 150 -->
      <g transform="translate(1022.140461 334.998438) scale(0.1 -0.1)">
       <use xlink:href="#DejaVuSans-31"/>
       <use xlink:href="#DejaVuSans-35" x="63.623047"/>
       <use xlink:href="#DejaVuSans-30" x="127.246094"/>
      </g>
     </g>
    </g>
    <g id="xtick_8">
     <g id="line2d_8">
      <g>
       <use xlink:href="#me9256d78b8" x="1165.177033" y="320.4" style="stroke: #000000; stroke-width: 0.8"/>
      </g>
     </g>
     <g id="text_8">
      <!-- 175 -->
      <g transform="translate(1155.633283 334.998438) scale(0.1 -0.1)">
       <use xlink:href="#DejaVuSans-31"/>
       <use xlink:href="#DejaVuSans-37" x="63.623047"/>
       <use xlink:href="#DejaVuSans-35" x="127.246094"/>
      </g>
     </g>
    </g>
    <g id="text_9">
     <!-- Amostras -->
     <g transform="translate(714.360937 348.676562) scale(0.1 -0.1)">
      <defs>
       <path id="DejaVuSans-41" d="M 2188 4044 
L 1331 1722 
L 3047 1722 
L 2188 4044 
z
M 1831 4666 
L 2547 4666 
L 4325 0 
L 3669 0 
L 3244 1197 
L 1141 1197 
L 716 0 
L 50 0 
L 1831 4666 
z
" transform="scale(0.015625)"/>
       <path id="DejaVuSans-6d" d="M 3328 2828 
Q 3544 3216 3844 3400 
Q 4144 3584 4550 3584 
Q 5097 3584 5394 3201 
Q 5691 2819 5691 2113 
L 5691 0 
L 5113 0 
L 5113 2094 
Q 5113 2597 4934 2840 
Q 4756 3084 4391 3084 
Q 3944 3084 3684 2787 
Q 3425 2491 3425 1978 
L 3425 0 
L 2847 0 
L 2847 2094 
Q 2847 2600 2669 2842 
Q 2491 3084 2119 3084 
Q 1678 3084 1418 2786 
Q 1159 2488 1159 1978 
L 1159 0 
L 581 0 
L 581 3500 
L 1159 3500 
L 1159 2956 
Q 1356 3278 1631 3431 
Q 1906 3584 2284 3584 
Q 2666 3584 2933 3390 
Q 3200 3197 3328 2828 
z
" transform="scale(0.015625)"/>
       <path id="DejaVuSans-6f" d="M 1959 3097 
Q 1497 3097 1228 2736 
Q 959 2375 959 1747 
Q 959 1119 1226 758 
Q 1494 397 1959 397 
Q 2419 397 2687 759 
Q 2956 1122 2956 1747 
Q 2956 2369 2687 2733 
Q 2419 3097 1959 3097 
z
M 1959 3584 
Q 2709 3584 3137 3096 
Q 3566 2609 3566 1747 
Q 3566 888 3137 398 
Q 2709 -91 1959 -91 
Q 1206 -91 779 398 
Q 353 888 353 1747 
Q 353 2609 779 3096 
Q 1206 3584 1959 3584 
z
" transform="scale(0.015625)"/>
       <path id="DejaVuSans-73" d="M 2834 3397 
L 2834 2853 
Q 2591 2978 2328 3040 
Q 2066 3103 1784 3103 
Q 1356 3103 1142 2972 
Q 928 2841 928 2578 
Q 928 2378 1081 2264 
Q 1234 2150 1697 2047 
L 1894 2003 
Q 2506 1872 2764 1633 
Q 3022 1394 3022 966 
Q 3022 478 2636 193 
Q 2250 -91 1575 -91 
Q 1294 -91 989 -36 
Q 684 19 347 128 
L 347 722 
Q 666 556 975 473 
Q 1284 391 1588 391 
Q 1994 391 2212 530 
Q 2431 669 2431 922 
Q 2431 1156 2273 1281 
Q 2116 1406 1581 1522 
L 1381 1569 
Q 847 1681 609 1914 
Q 372 2147 372 2553 
Q 372 3047 722 3315 
Q 1072 3584 1716 3584 
Q 2034 3584 2315 3537 
Q 2597 3491 2834 3397 
z
" transform="scale(0.015625)"/>
       <path id="DejaVuSans-74" d="M 1172 4494 
L 1172 3500 
L 2356 3500 
L 2356 3053 
L 1172 3053 
L 1172 1153 
Q 1172 725 1289 603 
Q 1406 481 1766 481 
L 2356 481 
L 2356 0 
L 1766 0 
Q 1100 0 847 248 
Q 594 497 594 1153 
L 594 3053 
L 172 3053 
L 172 3500 
L 594 3500 
L 594 4494 
L 1172 4494 
z
" transform="scale(0.015625)"/>
       <path id="DejaVuSans-72" d="M 2631 2963 
Q 2534 3019 2420 3045 
Q 2306 3072 2169 3072 
Q 1681 3072 1420 2755 
Q 1159 2438 1159 1844 
L 1159 0 
L 581 0 
L 581 3500 
L 1159 3500 
L 1159 2956 
Q 1341 3275 1631 3429 
Q 1922 3584 2338 3584 
Q 2397 3584 2469 3576 
Q 2541 3569 2628 3553 
L 2631 2963 
z
" transform="scale(0.015625)"/>
       <path id="DejaVuSans-61" d="M 2194 1759 
Q 1497 1759 1228 1600 
Q 959 1441 959 1056 
Q 959 750 1161 570 
Q 1363 391 1709 391 
Q 2188 391 2477 730 
Q 2766 1069 2766 1631 
L 2766 1759 
L 2194 1759 
z
M 3341 1997 
L 3341 0 
L 2766 0 
L 2766 531 
Q 2569 213 2275 61 
Q 1981 -91 1556 -91 
Q 1019 -91 701 211 
Q 384 513 384 1019 
Q 384 1609 779 1909 
Q 1175 2209 1959 2209 
L 2766 2209 
L 2766 2266 
Q 2766 2663 2505 2880 
Q 2244 3097 1772 3097 
Q 1472 3097 1187 3025 
Q 903 2953 641 2809 
L 641 3341 
Q 956 3463 1253 3523 
Q 1550 3584 1831 3584 
Q 2591 3584 2966 3190 
Q 3341 2797 3341 1997 
z
" transform="scale(0.015625)"/>
      </defs>
      <use xlink:href="#DejaVuSans-41"/>
      <use xlink:href="#DejaVuSans-6d" x="68.408203"/>
      <use xlink:href="#DejaVuSans-6f" x="165.820312"/>
      <use xlink:href="#DejaVuSans-73" x="227.001953"/>
      <use xlink:href="#DejaVuSans-74" x="279.101562"/>
      <use xlink:href="#DejaVuSans-72" x="318.310547"/>
      <use xlink:href="#DejaVuSans-61" x="359.423828"/>
      <use xlink:href="#DejaVuSans-73" x="420.703125"/>
     </g>
    </g>
   </g>
   <g id="matplotlib.axis_2">
    <g id="ytick_1">
     <g id="line2d_9">
      <defs>
       <path id="m586f36b0bb" d="M 0 0 
L -3.5 0 
" style="stroke: #000000; stroke-width: 0.8"/>
      </defs>
      <g>
       <use xlink:href="#m586f36b0bb" x="180" y="296.919769" style="stroke: #000000; stroke-width: 0.8"/>
      </g>
     </g>
     <g id="text_10">
      <!-- 2 -->
      <g transform="translate(166.6375 300.718987) scale(0.1 -0.1)">
       <use xlink:href="#DejaVuSans-32"/>
      </g>
     </g>
    </g>
    <g id="ytick_2">
     <g id="line2d_10">
      <g>
       <use xlink:href="#m586f36b0bb" x="180" y="262.374181" style="stroke: #000000; stroke-width: 0.8"/>
      </g>
     </g>
     <g id="text_11">
      <!-- 4 -->
      <g transform="translate(166.6375 266.1734) scale(0.1 -0.1)">
       <defs>
        <path id="DejaVuSans-34" d="M 2419 4116 
L 825 1625 
L 2419 1625 
L 2419 4116 
z
M 2253 4666 
L 3047 4666 
L 3047 1625 
L 3713 1625 
L 3713 1100 
L 3047 1100 
L 3047 0 
L 2419 0 
L 2419 1100 
L 313 1100 
L 313 1709 
L 2253 4666 
z
" transform="scale(0.015625)"/>
       </defs>
       <use xlink:href="#DejaVuSans-34"/>
      </g>
     </g>
    </g>
    <g id="ytick_3">
     <g id="line2d_11">
      <g>
       <use xlink:href="#m586f36b0bb" x="180" y="227.828593" style="stroke: #000000; stroke-width: 0.8"/>
      </g>
     </g>
     <g id="text_12">
      <!-- 6 -->
      <g transform="translate(166.6375 231.627812) scale(0.1 -0.1)">
       <defs>
        <path id="DejaVuSans-36" d="M 2113 2584 
Q 1688 2584 1439 2293 
Q 1191 2003 1191 1497 
Q 1191 994 1439 701 
Q 1688 409 2113 409 
Q 2538 409 2786 701 
Q 3034 994 3034 1497 
Q 3034 2003 2786 2293 
Q 2538 2584 2113 2584 
z
M 3366 4563 
L 3366 3988 
Q 3128 4100 2886 4159 
Q 2644 4219 2406 4219 
Q 1781 4219 1451 3797 
Q 1122 3375 1075 2522 
Q 1259 2794 1537 2939 
Q 1816 3084 2150 3084 
Q 2853 3084 3261 2657 
Q 3669 2231 3669 1497 
Q 3669 778 3244 343 
Q 2819 -91 2113 -91 
Q 1303 -91 875 529 
Q 447 1150 447 2328 
Q 447 3434 972 4092 
Q 1497 4750 2381 4750 
Q 2619 4750 2861 4703 
Q 3103 4656 3366 4563 
z
" transform="scale(0.015625)"/>
       </defs>
       <use xlink:href="#DejaVuSans-36"/>
      </g>
     </g>
    </g>
    <g id="ytick_4">
     <g id="line2d_12">
      <g>
       <use xlink:href="#m586f36b0bb" x="180" y="193.283006" style="stroke: #000000; stroke-width: 0.8"/>
      </g>
     </g>
     <g id="text_13">
      <!-- 8 -->
      <g transform="translate(166.6375 197.082224) scale(0.1 -0.1)">
       <defs>
        <path id="DejaVuSans-38" d="M 2034 2216 
Q 1584 2216 1326 1975 
Q 1069 1734 1069 1313 
Q 1069 891 1326 650 
Q 1584 409 2034 409 
Q 2484 409 2743 651 
Q 3003 894 3003 1313 
Q 3003 1734 2745 1975 
Q 2488 2216 2034 2216 
z
M 1403 2484 
Q 997 2584 770 2862 
Q 544 3141 544 3541 
Q 544 4100 942 4425 
Q 1341 4750 2034 4750 
Q 2731 4750 3128 4425 
Q 3525 4100 3525 3541 
Q 3525 3141 3298 2862 
Q 3072 2584 2669 2484 
Q 3125 2378 3379 2068 
Q 3634 1759 3634 1313 
Q 3634 634 3220 271 
Q 2806 -91 2034 -91 
Q 1263 -91 848 271 
Q 434 634 434 1313 
Q 434 1759 690 2068 
Q 947 2378 1403 2484 
z
M 1172 3481 
Q 1172 3119 1398 2916 
Q 1625 2713 2034 2713 
Q 2441 2713 2670 2916 
Q 2900 3119 2900 3481 
Q 2900 3844 2670 4047 
Q 2441 4250 2034 4250 
Q 1625 4250 1398 4047 
Q 1172 3844 1172 3481 
z
" transform="scale(0.015625)"/>
       </defs>
       <use xlink:href="#DejaVuSans-38"/>
      </g>
     </g>
    </g>
    <g id="ytick_5">
     <g id="line2d_13">
      <g>
       <use xlink:href="#m586f36b0bb" x="180" y="158.737418" style="stroke: #000000; stroke-width: 0.8"/>
      </g>
     </g>
     <g id="text_14">
      <!-- 10 -->
      <g transform="translate(160.275 162.536637) scale(0.1 -0.1)">
       <use xlink:href="#DejaVuSans-31"/>
       <use xlink:href="#DejaVuSans-30" x="63.623047"/>
      </g>
     </g>
    </g>
    <g id="ytick_6">
     <g id="line2d_14">
      <g>
       <use xlink:href="#m586f36b0bb" x="180" y="124.19183" style="stroke: #000000; stroke-width: 0.8"/>
      </g>
     </g>
     <g id="text_15">
      <!-- 12 -->
      <g transform="translate(160.275 127.991049) scale(0.1 -0.1)">
       <use xlink:href="#DejaVuSans-31"/>
       <use xlink:href="#DejaVuSans-32" x="63.623047"/>
      </g>
     </g>
    </g>
    <g id="ytick_7">
     <g id="line2d_15">
      <g>
       <use xlink:href="#m586f36b0bb" x="180" y="89.646243" style="stroke: #000000; stroke-width: 0.8"/>
      </g>
     </g>
     <g id="text_16">
      <!-- 14 -->
      <g transform="translate(160.275 93.445461) scale(0.1 -0.1)">
       <use xlink:href="#DejaVuSans-31"/>
       <use xlink:href="#DejaVuSans-34" x="63.623047"/>
      </g>
     </g>
    </g>
    <g id="ytick_8">
     <g id="line2d_16">
      <g>
       <use xlink:href="#m586f36b0bb" x="180" y="55.100655" style="stroke: #000000; stroke-width: 0.8"/>
      </g>
     </g>
     <g id="text_17">
      <!-- 16 -->
      <g transform="translate(160.275 58.899874) scale(0.1 -0.1)">
       <use xlink:href="#DejaVuSans-31"/>
       <use xlink:href="#DejaVuSans-36" x="63.623047"/>
      </g>
     </g>
    </g>
    <g id="text_18">
     <!-- Velocidade do Vento (m/s) -->
     <g transform="translate(154.195312 247.344531) rotate(-90) scale(0.1 -0.1)">
      <defs>
       <path id="DejaVuSans-56" d="M 1831 0 
L 50 4666 
L 709 4666 
L 2188 738 
L 3669 4666 
L 4325 4666 
L 2547 0 
L 1831 0 
z
" transform="scale(0.015625)"/>
       <path id="DejaVuSans-65" d="M 3597 1894 
L 3597 1613 
L 953 1613 
Q 991 1019 1311 708 
Q 1631 397 2203 397 
Q 2534 397 2845 478 
Q 3156 559 3463 722 
L 3463 178 
Q 3153 47 2828 -22 
Q 2503 -91 2169 -91 
Q 1331 -91 842 396 
Q 353 884 353 1716 
Q 353 2575 817 3079 
Q 1281 3584 2069 3584 
Q 2775 3584 3186 3129 
Q 3597 2675 3597 1894 
z
M 3022 2063 
Q 3016 2534 2758 2815 
Q 2500 3097 2075 3097 
Q 1594 3097 1305 2825 
Q 1016 2553 972 2059 
L 3022 2063 
z
" transform="scale(0.015625)"/>
       <path id="DejaVuSans-6c" d="M 603 4863 
L 1178 4863 
L 1178 0 
L 603 0 
L 603 4863 
z
" transform="scale(0.015625)"/>
       <path id="DejaVuSans-63" d="M 3122 3366 
L 3122 2828 
Q 2878 2963 2633 3030 
Q 2388 3097 2138 3097 
Q 1578 3097 1268 2742 
Q 959 2388 959 1747 
Q 959 1106 1268 751 
Q 1578 397 2138 397 
Q 2388 397 2633 464 
Q 2878 531 3122 666 
L 3122 134 
Q 2881 22 2623 -34 
Q 2366 -91 2075 -91 
Q 1284 -91 818 406 
Q 353 903 353 1747 
Q 353 2603 823 3093 
Q 1294 3584 2113 3584 
Q 2378 3584 2631 3529 
Q 2884 3475 3122 3366 
z
" transform="scale(0.015625)"/>
       <path id="DejaVuSans-69" d="M 603 3500 
L 1178 3500 
L 1178 0 
L 603 0 
L 603 3500 
z
M 603 4863 
L 1178 4863 
L 1178 4134 
L 603 4134 
L 603 4863 
z
" transform="scale(0.015625)"/>
       <path id="DejaVuSans-64" d="M 2906 2969 
L 2906 4863 
L 3481 4863 
L 3481 0 
L 2906 0 
L 2906 525 
Q 2725 213 2448 61 
Q 2172 -91 1784 -91 
Q 1150 -91 751 415 
Q 353 922 353 1747 
Q 353 2572 751 3078 
Q 1150 3584 1784 3584 
Q 2172 3584 2448 3432 
Q 2725 3281 2906 2969 
z
M 947 1747 
Q 947 1113 1208 752 
Q 1469 391 1925 391 
Q 2381 391 2643 752 
Q 2906 1113 2906 1747 
Q 2906 2381 2643 2742 
Q 2381 3103 1925 3103 
Q 1469 3103 1208 2742 
Q 947 2381 947 1747 
z
" transform="scale(0.015625)"/>
       <path id="DejaVuSans-20" transform="scale(0.015625)"/>
       <path id="DejaVuSans-6e" d="M 3513 2113 
L 3513 0 
L 2938 0 
L 2938 2094 
Q 2938 2591 2744 2837 
Q 2550 3084 2163 3084 
Q 1697 3084 1428 2787 
Q 1159 2491 1159 1978 
L 1159 0 
L 581 0 
L 581 3500 
L 1159 3500 
L 1159 2956 
Q 1366 3272 1645 3428 
Q 1925 3584 2291 3584 
Q 2894 3584 3203 3211 
Q 3513 2838 3513 2113 
z
" transform="scale(0.015625)"/>
       <path id="DejaVuSans-28" d="M 1984 4856 
Q 1566 4138 1362 3434 
Q 1159 2731 1159 2009 
Q 1159 1288 1364 580 
Q 1569 -128 1984 -844 
L 1484 -844 
Q 1016 -109 783 600 
Q 550 1309 550 2009 
Q 550 2706 781 3412 
Q 1013 4119 1484 4856 
L 1984 4856 
z
" transform="scale(0.015625)"/>
       <path id="DejaVuSans-2f" d="M 1625 4666 
L 2156 4666 
L 531 -594 
L 0 -594 
L 1625 4666 
z
" transform="scale(0.015625)"/>
       <path id="DejaVuSans-29" d="M 513 4856 
L 1013 4856 
Q 1481 4119 1714 3412 
Q 1947 2706 1947 2009 
Q 1947 1309 1714 600 
Q 1481 -109 1013 -844 
L 513 -844 
Q 928 -128 1133 580 
Q 1338 1288 1338 2009 
Q 1338 2731 1133 3434 
Q 928 4138 513 4856 
z
" transform="scale(0.015625)"/>
      </defs>
      <use xlink:href="#DejaVuSans-56"/>
      <use xlink:href="#DejaVuSans-65" x="60.658203"/>
      <use xlink:href="#DejaVuSans-6c" x="122.181641"/>
      <use xlink:href="#DejaVuSans-6f" x="149.964844"/>
      <use xlink:href="#DejaVuSans-63" x="211.146484"/>
      <use xlink:href="#DejaVuSans-69" x="266.126953"/>
      <use xlink:href="#DejaVuSans-64" x="293.910156"/>
      <use xlink:href="#DejaVuSans-61" x="357.386719"/>
      <use xlink:href="#DejaVuSans-64" x="418.666016"/>
      <use xlink:href="#DejaVuSans-65" x="482.142578"/>
      <use xlink:href="#DejaVuSans-20" x="543.666016"/>
      <use xlink:href="#DejaVuSans-64" x="575.453125"/>
      <use xlink:href="#DejaVuSans-6f" x="638.929688"/>
      <use xlink:href="#DejaVuSans-20" x="700.111328"/>
      <use xlink:href="#DejaVuSans-56" x="731.898438"/>
      <use xlink:href="#DejaVuSans-65" x="792.556641"/>
      <use xlink:href="#DejaVuSans-6e" x="854.080078"/>
      <use xlink:href="#DejaVuSans-74" x="917.458984"/>
      <use xlink:href="#DejaVuSans-6f" x="956.667969"/>
      <use xlink:href="#DejaVuSans-20" x="1017.849609"/>
      <use xlink:href="#DejaVuSans-28" x="1049.636719"/>
      <use xlink:href="#DejaVuSans-6d" x="1088.650391"/>
      <use xlink:href="#DejaVuSans-2f" x="1186.0625"/>
      <use xlink:href="#DejaVuSans-73" x="1219.753906"/>
      <use xlink:href="#DejaVuSans-29" x="1271.853516"/>
     </g>
    </g>
   </g>
   <g id="line2d_17">
    <path d="M 230.727273 129.781715 
L 236.066986 161.543512 
L 241.406699 170.211339 
L 246.746411 160.246013 
L 252.086124 175.084764 
L 257.425837 172.819712 
L 262.76555 171.265092 
L 268.105263 166.593392 
L 273.444976 164.568001 
L 278.784689 171.921345 
L 284.124402 192.803932 
L 289.464115 202.599821 
L 294.803828 241.4111 
L 300.143541 229.43105 
L 305.483254 238.124986 
L 310.822967 251.697543 
L 316.162679 253.823549 
L 321.502392 259.739295 
L 326.842105 264.50407 
L 332.181818 259.485164 
L 337.521531 245.628865 
L 342.861244 232.485428 
L 348.200957 187.027314 
L 353.54067 150.392405 
L 358.880383 128.603593 
L 364.220096 113.530141 
L 369.559809 114.561492 
L 374.899522 116.191639 
L 380.239234 115.222242 
L 385.578947 133.276085 
L 390.91866 149.242254 
L 396.258373 174.323794 
L 401.598086 179.594901 
L 406.937799 181.688884 
L 412.277512 175.254003 
L 417.617225 163.443118 
L 422.956938 193.258725 
L 428.296651 210.548552 
L 433.636364 204.840476 
L 438.976077 200.915726 
L 449.655502 189.521318 
L 454.995215 207.973016 
L 460.334928 214.198876 
L 465.674641 194.27824 
L 471.014354 190.487536 
L 476.354067 185.130953 
L 481.69378 168.936721 
L 487.033493 120.675437 
L 492.373206 101.776943 
L 497.712919 104.16577 
L 503.052632 115.658684 
L 508.392344 124.788452 
L 513.732057 121.76454 
L 519.07177 123.715179 
L 524.411483 131.330454 
L 529.751196 150.69761 
L 535.090909 143.701441 
L 540.430622 162.139854 
L 545.770335 174.246686 
L 551.110048 204.693186 
L 556.449761 208.829107 
L 561.789474 212.625395 
L 567.129187 210.961273 
L 572.4689 224.14875 
L 577.808612 229.069311 
L 583.148325 255.211038 
L 588.488038 218.24708 
L 593.827751 193.882988 
L 599.167464 184.719484 
L 604.507177 148.225762 
L 609.84689 119.81265 
L 615.186603 105.648586 
L 620.526316 94.644826 
L 625.866029 98.458715 
L 631.205742 102.959447 
L 636.545455 112.749421 
L 641.885167 114.585015 
L 647.22488 136.313438 
L 652.564593 139.600418 
L 657.904306 146.435435 
L 663.244019 162.593757 
L 668.583732 156.088571 
L 673.923445 164.248333 
L 679.263158 187.523469 
L 684.602871 186.564351 
L 689.942584 186.144003 
L 695.282297 195.674542 
L 700.62201 188.92697 
L 705.961722 204.285909 
L 711.301435 224.13712 
L 716.641148 229.690864 
L 721.980861 202.86783 
L 727.320574 196.172781 
L 732.660287 149.455805 
L 738 116.661422 
L 743.339713 111.61342 
L 748.679426 106.759285 
L 754.019139 102.177343 
L 759.358852 102.876754 
L 764.698565 109.736085 
L 770.038278 114.940609 
L 775.37799 122.781527 
L 780.717703 157.458961 
L 786.057416 171.67872 
L 791.397129 163.758684 
L 796.736842 149.677115 
L 802.076555 156.27575 
L 807.416268 214.090297 
L 812.755981 261.656963 
L 818.095694 262.611972 
L 823.435407 268.955178 
L 828.77512 256.909785 
L 834.114833 231.999889 
L 839.454545 232.754607 
L 844.794258 241.265243 
L 850.133971 223.518244 
L 855.473684 206.166283 
L 860.813397 197.556695 
L 866.15311 161.838043 
L 871.492823 118.134864 
L 876.832536 104.385432 
L 882.172249 115.254874 
L 887.511962 113.557255 
L 892.851675 116.170719 
L 898.191388 126.677071 
L 903.5311 148.306033 
L 908.870813 163.915092 
L 914.210526 152.333819 
L 919.550239 163.8196 
L 924.889952 168.344448 
L 930.229665 161.873014 
L 935.569378 180.967235 
L 940.909091 169.156745 
L 946.248804 187.438784 
L 951.588517 195.966577 
L 956.92823 188.088036 
L 962.267943 197.691021 
L 967.607656 216.593698 
L 972.947368 231.650315 
L 978.287081 216.557426 
L 983.626794 200.740803 
L 988.966507 162.327477 
L 994.30622 129.055421 
L 999.645933 117.037426 
L 1004.985646 131.698288 
L 1010.325359 123.113088 
L 1015.665072 124.203032 
L 1021.004785 132.780539 
L 1026.344498 139.853536 
L 1031.684211 160.845749 
L 1037.023923 173.179293 
L 1042.363636 165.478014 
L 1047.703349 184.58902 
L 1053.043062 190.898808 
L 1058.382775 171.849838 
L 1063.722488 213.543941 
L 1069.062201 214.367415 
L 1074.401914 227.514131 
L 1079.741627 251.595265 
L 1085.08134 247.040033 
L 1090.421053 249.735605 
L 1095.760766 248.553612 
L 1101.100478 216.394421 
L 1106.440191 227.027093 
L 1111.779904 234.258112 
L 1117.119617 212.599763 
L 1122.45933 197.519179 
L 1127.799043 167.672183 
L 1133.138756 132.854995 
L 1138.478469 121.527186 
L 1143.818182 118.139674 
L 1149.157895 123.046868 
L 1154.497608 124.383901 
L 1159.837321 135.477288 
L 1165.177033 139.719927 
L 1170.516746 147.16649 
L 1175.856459 168.724257 
L 1181.196172 180.441149 
L 1186.535885 158.972532 
L 1191.875598 157.775219 
L 1197.215311 167.386219 
L 1202.555024 185.975653 
L 1207.894737 193.465951 
L 1213.23445 213.238926 
L 1218.574163 222.72928 
L 1223.913876 239.913278 
L 1229.253589 240.395201 
L 1234.593301 225.517229 
L 1239.933014 193.883606 
L 1245.272727 148.947065 
L 1245.272727 148.947065 
" clip-path="url(#ped1f3834d9)" style="fill: none; stroke: #0000ff; stroke-width: 1.5; stroke-linecap: square"/>
   </g>
   <g id="line2d_18">
    <path d="M 230.727273 171.375345 
L 236.066986 180.597098 
L 241.406699 164.571784 
L 246.746411 182.564277 
L 252.086124 180.117298 
L 257.425837 176.566779 
L 262.76555 170.454129 
L 268.105263 165.502595 
L 273.444976 173.025857 
L 278.784689 197.380496 
L 284.124402 207.753768 
L 289.464115 227.435157 
L 294.803828 216.486125 
L 300.143541 227.866977 
L 305.483254 243.29734 
L 310.822967 246.465687 
L 316.162679 255.465063 
L 321.502392 265.483284 
L 326.842105 263.851965 
L 332.181818 250.062517 
L 337.521531 239.075101 
L 342.861244 194.914325 
L 348.200957 157.106099 
L 353.54067 131.503979 
L 358.880383 107.4852 
L 364.220096 109.538743 
L 369.559809 110.200867 
L 374.899522 108.214496 
L 380.239234 135.256015 
L 385.578947 153.622752 
L 390.91866 182.276397 
L 396.258373 186.48904 
L 401.598086 187.813287 
L 406.937799 177.228903 
L 412.277512 157.864182 
L 417.617225 177.727896 
L 422.956938 194.309776 
L 428.296651 191.939566 
L 433.636364 189.758556 
L 438.976077 185.739376 
L 444.315789 181.518464 
L 449.655502 203.234054 
L 454.995215 213.511366 
L 460.334928 207.792153 
L 465.674641 214.183086 
L 471.014354 212.225502 
L 476.354067 191.095118 
L 481.69378 131.580748 
L 487.033493 94.204341 
L 492.373206 91.459886 
L 497.712919 108.886215 
L 503.052632 124.489306 
L 508.392344 114.874118 
L 513.732057 110.037735 
L 519.07177 121.092322 
L 524.411483 148.911117 
L 529.751196 134.593891 
L 535.090909 159.601058 
L 540.430622 172.997069 
L 545.770335 187.44864 
L 551.110048 192.083505 
L 556.449761 197.140595 
L 561.789474 196.929485 
L 567.129187 210.21994 
L 572.4689 216.399762 
L 577.808612 248.565542 
L 583.148325 216.649257 
L 588.488038 208.089628 
L 593.827751 205.776993 
L 599.167464 168.035938 
L 604.507177 131.638324 
L 609.84689 105.191757 
L 615.186603 66.95171 
L 620.526316 80.673986 
L 625.866029 92.668982 
L 631.205742 110.882183 
L 636.545455 107.216512 
L 641.885167 141.66614 
L 647.22488 139.660577 
L 652.564593 143.115136 
L 657.904306 161.577832 
L 663.244019 150.283345 
L 668.583732 159.591462 
L 673.923445 170.223826 
L 679.263158 169.657662 
L 684.602871 170.69403 
L 689.942584 180.875382 
L 695.282297 176.864256 
L 700.62201 194.712808 
L 705.961722 216.322993 
L 711.301435 230.102844 
L 716.641148 215.728041 
L 721.980861 219.153813 
L 727.320574 166.663711 
L 732.660287 126.427697 
L 738 118.0312 
L 743.339713 105.623577 
L 748.679426 84.896224 
L 754.019139 90.692207 
L 759.358852 98.746056 
L 764.698565 106.592773 
L 770.038278 116.169577 
L 775.37799 165.339464 
L 780.717703 178.495575 
L 786.057416 163.602588 
L 791.397129 139.8429 
L 796.736842 147.941922 
L 802.076555 193.65725 
L 807.416268 243.892291 
L 812.755981 248.872614 
L 818.095694 254.13122 
L 823.435407 243.96906 
L 828.77512 223.18413 
L 834.114833 227.080106 
L 839.454545 246.790282 
L 844.794258 244.098451 
L 850.133971 227.65886 
L 855.473684 212.244695 
L 860.813397 170.463725 
L 866.15311 115.478665 
L 871.492823 92.342718 
L 876.832536 108.655911 
L 882.172249 102.245786 
L 887.511962 101.90033 
L 892.851675 122.291822 
L 898.191388 153.325276 
L 903.5311 171.557669 
L 908.870813 154.707099 
L 914.210526 168.794022 
L 919.550239 171.548074 
L 924.889952 158.487922 
L 930.229665 162.786929 
L 935.569378 152.759112 
L 940.909091 172.87232 
L 946.248804 184.752165 
L 951.588517 180.405177 
L 956.92823 194.031492 
L 962.267943 212.522979 
L 967.607656 234.267507 
L 972.947368 231.926084 
L 978.287081 214.327026 
L 983.626794 174.74354 
L 988.966507 136.090866 
L 994.30622 113.88573 
L 999.645933 142.174728 
L 1004.985646 126.629213 
L 1010.325359 124.47971 
L 1015.665072 137.827741 
L 1021.004785 144.717666 
L 1026.344498 170.415746 
L 1031.684211 185.750148 
L 1037.023923 176.115768 
L 1042.363636 196.977464 
L 1047.703349 202.33203 
L 1053.043062 176.729912 
L 1058.382775 197.342112 
L 1063.722488 197.783528 
L 1069.062201 213.444195 
L 1074.401914 240.687229 
L 1079.741627 239.746821 
L 1085.08134 246.751899 
L 1090.421053 243.326128 
L 1095.760766 214.797229 
L 1101.100478 241.358948 
L 1106.440191 258.641338 
L 1111.779904 229.239205 
L 1117.119617 213.98157 
L 1122.45933 182.986501 
L 1127.799043 136.820162 
L 1133.138756 120.017571 
L 1138.478469 114.298357 
L 1143.818182 120.027167 
L 1149.157895 119.222283 
L 1154.497608 136.845607 
L 1159.837321 138.758552 
L 1165.177033 150.005062 
L 1170.516746 178.092543 
L 1175.856459 191.661281 
L 1181.196172 157.960142 
L 1186.535885 142.67372 
L 1191.875598 154.342452 
L 1197.215311 173.064241 
L 1202.555024 182.477914 
L 1207.894737 203.425974 
L 1213.23445 215.065918 
L 1218.574163 235.706907 
L 1223.913876 243.028652 
L 1229.253589 241.349352 
L 1234.593301 204.15527 
L 1239.933014 151.818704 
L 1245.272727 117.273117 
L 1245.272727 117.273117 
" clip-path="url(#ped1f3834d9)" style="fill: none; stroke: #ffa500; stroke-width: 1.5; stroke-linecap: square"/>
   </g>
   <g id="patch_3">
    <path d="M 180 320.4 
L 180 43.2 
" style="fill: none; stroke: #000000; stroke-width: 0.8; stroke-linejoin: miter; stroke-linecap: square"/>
   </g>
   <g id="patch_4">
    <path d="M 1296 320.4 
L 1296 43.2 
" style="fill: none; stroke: #000000; stroke-width: 0.8; stroke-linejoin: miter; stroke-linecap: square"/>
   </g>
   <g id="patch_5">
    <path d="M 180 320.4 
L 1296 320.4 
" style="fill: none; stroke: #000000; stroke-width: 0.8; stroke-linejoin: miter; stroke-linecap: square"/>
   </g>
   <g id="patch_6">
    <path d="M 180 43.2 
L 1296 43.2 
" style="fill: none; stroke: #000000; stroke-width: 0.8; stroke-linejoin: miter; stroke-linecap: square"/>
   </g>
   <g id="text_19">
    <!-- Previsão do vento para 1 hora(s) à frente com 8 camadas -->
    <g transform="translate(564.882187 37.2) scale(0.12 -0.12)">
     <defs>
      <path id="DejaVuSans-50" d="M 1259 4147 
L 1259 2394 
L 2053 2394 
Q 2494 2394 2734 2622 
Q 2975 2850 2975 3272 
Q 2975 3691 2734 3919 
Q 2494 4147 2053 4147 
L 1259 4147 
z
M 628 4666 
L 2053 4666 
Q 2838 4666 3239 4311 
Q 3641 3956 3641 3272 
Q 3641 2581 3239 2228 
Q 2838 1875 2053 1875 
L 1259 1875 
L 1259 0 
L 628 0 
L 628 4666 
z
" transform="scale(0.015625)"/>
      <path id="DejaVuSans-76" d="M 191 3500 
L 800 3500 
L 1894 563 
L 2988 3500 
L 3597 3500 
L 2284 0 
L 1503 0 
L 191 3500 
z
" transform="scale(0.015625)"/>
      <path id="DejaVuSans-e3" d="M 2194 1759 
Q 1497 1759 1228 1600 
Q 959 1441 959 1056 
Q 959 750 1161 570 
Q 1363 391 1709 391 
Q 2188 391 2477 730 
Q 2766 1069 2766 1631 
L 2766 1759 
L 2194 1759 
z
M 3341 1997 
L 3341 0 
L 2766 0 
L 2766 531 
Q 2569 213 2275 61 
Q 1981 -91 1556 -91 
Q 1019 -91 701 211 
Q 384 513 384 1019 
Q 384 1609 779 1909 
Q 1175 2209 1959 2209 
L 2766 2209 
L 2766 2266 
Q 2766 2663 2505 2880 
Q 2244 3097 1772 3097 
Q 1472 3097 1187 3025 
Q 903 2953 641 2809 
L 641 3341 
Q 956 3463 1253 3523 
Q 1550 3584 1831 3584 
Q 2591 3584 2966 3190 
Q 3341 2797 3341 1997 
z
M 1844 4281 
L 1666 4453 
Q 1597 4516 1545 4545 
Q 1494 4575 1453 4575 
Q 1334 4575 1278 4461 
Q 1222 4347 1216 4091 
L 825 4091 
Q 831 4513 990 4742 
Q 1150 4972 1434 4972 
Q 1553 4972 1653 4928 
Q 1753 4884 1869 4781 
L 2047 4609 
Q 2116 4547 2167 4517 
Q 2219 4488 2259 4488 
Q 2378 4488 2434 4602 
Q 2491 4716 2497 4972 
L 2888 4972 
Q 2881 4550 2722 4320 
Q 2563 4091 2278 4091 
Q 2159 4091 2059 4134 
Q 1959 4178 1844 4281 
z
" transform="scale(0.015625)"/>
      <path id="DejaVuSans-70" d="M 1159 525 
L 1159 -1331 
L 581 -1331 
L 581 3500 
L 1159 3500 
L 1159 2969 
Q 1341 3281 1617 3432 
Q 1894 3584 2278 3584 
Q 2916 3584 3314 3078 
Q 3713 2572 3713 1747 
Q 3713 922 3314 415 
Q 2916 -91 2278 -91 
Q 1894 -91 1617 61 
Q 1341 213 1159 525 
z
M 3116 1747 
Q 3116 2381 2855 2742 
Q 2594 3103 2138 3103 
Q 1681 3103 1420 2742 
Q 1159 2381 1159 1747 
Q 1159 1113 1420 752 
Q 1681 391 2138 391 
Q 2594 391 2855 752 
Q 3116 1113 3116 1747 
z
" transform="scale(0.015625)"/>
      <path id="DejaVuSans-68" d="M 3513 2113 
L 3513 0 
L 2938 0 
L 2938 2094 
Q 2938 2591 2744 2837 
Q 2550 3084 2163 3084 
Q 1697 3084 1428 2787 
Q 1159 2491 1159 1978 
L 1159 0 
L 581 0 
L 581 4863 
L 1159 4863 
L 1159 2956 
Q 1366 3272 1645 3428 
Q 1925 3584 2291 3584 
Q 2894 3584 3203 3211 
Q 3513 2838 3513 2113 
z
" transform="scale(0.015625)"/>
      <path id="DejaVuSans-e0" d="M 2194 1759 
Q 1497 1759 1228 1600 
Q 959 1441 959 1056 
Q 959 750 1161 570 
Q 1363 391 1709 391 
Q 2188 391 2477 730 
Q 2766 1069 2766 1631 
L 2766 1759 
L 2194 1759 
z
M 3341 1997 
L 3341 0 
L 2766 0 
L 2766 531 
Q 2569 213 2275 61 
Q 1981 -91 1556 -91 
Q 1019 -91 701 211 
Q 384 513 384 1019 
Q 384 1609 779 1909 
Q 1175 2209 1959 2209 
L 2766 2209 
L 2766 2266 
Q 2766 2663 2505 2880 
Q 2244 3097 1772 3097 
Q 1472 3097 1187 3025 
Q 903 2953 641 2809 
L 641 3341 
Q 956 3463 1253 3523 
Q 1550 3584 1831 3584 
Q 2591 3584 2966 3190 
Q 3341 2797 3341 1997 
z
M 1403 5119 
L 2284 3950 
L 1806 3950 
L 788 5119 
L 1403 5119 
z
" transform="scale(0.015625)"/>
      <path id="DejaVuSans-66" d="M 2375 4863 
L 2375 4384 
L 1825 4384 
Q 1516 4384 1395 4259 
Q 1275 4134 1275 3809 
L 1275 3500 
L 2222 3500 
L 2222 3053 
L 1275 3053 
L 1275 0 
L 697 0 
L 697 3053 
L 147 3053 
L 147 3500 
L 697 3500 
L 697 3744 
Q 697 4328 969 4595 
Q 1241 4863 1831 4863 
L 2375 4863 
z
" transform="scale(0.015625)"/>
     </defs>
     <use xlink:href="#DejaVuSans-50"/>
     <use xlink:href="#DejaVuSans-72" x="58.552734"/>
     <use xlink:href="#DejaVuSans-65" x="97.416016"/>
     <use xlink:href="#DejaVuSans-76" x="158.939453"/>
     <use xlink:href="#DejaVuSans-69" x="218.119141"/>
     <use xlink:href="#DejaVuSans-73" x="245.902344"/>
     <use xlink:href="#DejaVuSans-e3" x="298.001953"/>
     <use xlink:href="#DejaVuSans-6f" x="359.28125"/>
     <use xlink:href="#DejaVuSans-20" x="420.462891"/>
     <use xlink:href="#DejaVuSans-64" x="452.25"/>
     <use xlink:href="#DejaVuSans-6f" x="515.726562"/>
     <use xlink:href="#DejaVuSans-20" x="576.908203"/>
     <use xlink:href="#DejaVuSans-76" x="608.695312"/>
     <use xlink:href="#DejaVuSans-65" x="667.875"/>
     <use xlink:href="#DejaVuSans-6e" x="729.398438"/>
     <use xlink:href="#DejaVuSans-74" x="792.777344"/>
     <use xlink:href="#DejaVuSans-6f" x="831.986328"/>
     <use xlink:href="#DejaVuSans-20" x="893.167969"/>
     <use xlink:href="#DejaVuSans-70" x="924.955078"/>
     <use xlink:href="#DejaVuSans-61" x="988.431641"/>
     <use xlink:href="#DejaVuSans-72" x="1049.710938"/>
     <use xlink:href="#DejaVuSans-61" x="1090.824219"/>
     <use xlink:href="#DejaVuSans-20" x="1152.103516"/>
     <use xlink:href="#DejaVuSans-31" x="1183.890625"/>
     <use xlink:href="#DejaVuSans-20" x="1247.513672"/>
     <use xlink:href="#DejaVuSans-68" x="1279.300781"/>
     <use xlink:href="#DejaVuSans-6f" x="1342.679688"/>
     <use xlink:href="#DejaVuSans-72" x="1403.861328"/>
     <use xlink:href="#DejaVuSans-61" x="1444.974609"/>
     <use xlink:href="#DejaVuSans-28" x="1506.253906"/>
     <use xlink:href="#DejaVuSans-73" x="1545.267578"/>
     <use xlink:href="#DejaVuSans-29" x="1597.367188"/>
     <use xlink:href="#DejaVuSans-20" x="1636.380859"/>
     <use xlink:href="#DejaVuSans-e0" x="1668.167969"/>
     <use xlink:href="#DejaVuSans-20" x="1729.447266"/>
     <use xlink:href="#DejaVuSans-66" x="1761.234375"/>
     <use xlink:href="#DejaVuSans-72" x="1796.439453"/>
     <use xlink:href="#DejaVuSans-65" x="1835.302734"/>
     <use xlink:href="#DejaVuSans-6e" x="1896.826172"/>
     <use xlink:href="#DejaVuSans-74" x="1960.205078"/>
     <use xlink:href="#DejaVuSans-65" x="1999.414062"/>
     <use xlink:href="#DejaVuSans-20" x="2060.9375"/>
     <use xlink:href="#DejaVuSans-63" x="2092.724609"/>
     <use xlink:href="#DejaVuSans-6f" x="2147.705078"/>
     <use xlink:href="#DejaVuSans-6d" x="2208.886719"/>
     <use xlink:href="#DejaVuSans-20" x="2306.298828"/>
     <use xlink:href="#DejaVuSans-38" x="2338.085938"/>
     <use xlink:href="#DejaVuSans-20" x="2401.708984"/>
     <use xlink:href="#DejaVuSans-63" x="2433.496094"/>
     <use xlink:href="#DejaVuSans-61" x="2488.476562"/>
     <use xlink:href="#DejaVuSans-6d" x="2549.755859"/>
     <use xlink:href="#DejaVuSans-61" x="2647.167969"/>
     <use xlink:href="#DejaVuSans-64" x="2708.447266"/>
     <use xlink:href="#DejaVuSans-61" x="2771.923828"/>
     <use xlink:href="#DejaVuSans-73" x="2833.203125"/>
    </g>
   </g>
   <g id="legend_1">
    <g id="patch_7">
     <path d="M 1217.86875 80.55625 
L 1289 80.55625 
Q 1291 80.55625 1291 78.55625 
L 1291 50.2 
Q 1291 48.2 1289 48.2 
L 1217.86875 48.2 
Q 1215.86875 48.2 1215.86875 50.2 
L 1215.86875 78.55625 
Q 1215.86875 80.55625 1217.86875 80.55625 
z
" style="fill: #ffffff; opacity: 0.8; stroke: #cccccc; stroke-linejoin: miter"/>
    </g>
    <g id="line2d_19">
     <path d="M 1219.86875 56.298437 
L 1229.86875 56.298437 
L 1239.86875 56.298437 
" style="fill: none; stroke: #0000ff; stroke-width: 1.5; stroke-linecap: square"/>
    </g>
    <g id="text_20">
     <!-- Predito -->
     <g transform="translate(1247.86875 59.798437) scale(0.1 -0.1)">
      <use xlink:href="#DejaVuSans-50"/>
      <use xlink:href="#DejaVuSans-72" x="58.552734"/>
      <use xlink:href="#DejaVuSans-65" x="97.416016"/>
      <use xlink:href="#DejaVuSans-64" x="158.939453"/>
      <use xlink:href="#DejaVuSans-69" x="222.416016"/>
      <use xlink:href="#DejaVuSans-74" x="250.199219"/>
      <use xlink:href="#DejaVuSans-6f" x="289.408203"/>
     </g>
    </g>
    <g id="line2d_20">
     <path d="M 1219.86875 70.976562 
L 1229.86875 70.976562 
L 1239.86875 70.976562 
" style="fill: none; stroke: #ffa500; stroke-width: 1.5; stroke-linecap: square"/>
    </g>
    <g id="text_21">
     <!-- Original -->
     <g transform="translate(1247.86875 74.476562) scale(0.1 -0.1)">
      <defs>
       <path id="DejaVuSans-4f" d="M 2522 4238 
Q 1834 4238 1429 3725 
Q 1025 3213 1025 2328 
Q 1025 1447 1429 934 
Q 1834 422 2522 422 
Q 3209 422 3611 934 
Q 4013 1447 4013 2328 
Q 4013 3213 3611 3725 
Q 3209 4238 2522 4238 
z
M 2522 4750 
Q 3503 4750 4090 4092 
Q 4678 3434 4678 2328 
Q 4678 1225 4090 567 
Q 3503 -91 2522 -91 
Q 1538 -91 948 565 
Q 359 1222 359 2328 
Q 359 3434 948 4092 
Q 1538 4750 2522 4750 
z
" transform="scale(0.015625)"/>
       <path id="DejaVuSans-67" d="M 2906 1791 
Q 2906 2416 2648 2759 
Q 2391 3103 1925 3103 
Q 1463 3103 1205 2759 
Q 947 2416 947 1791 
Q 947 1169 1205 825 
Q 1463 481 1925 481 
Q 2391 481 2648 825 
Q 2906 1169 2906 1791 
z
M 3481 434 
Q 3481 -459 3084 -895 
Q 2688 -1331 1869 -1331 
Q 1566 -1331 1297 -1286 
Q 1028 -1241 775 -1147 
L 775 -588 
Q 1028 -725 1275 -790 
Q 1522 -856 1778 -856 
Q 2344 -856 2625 -561 
Q 2906 -266 2906 331 
L 2906 616 
Q 2728 306 2450 153 
Q 2172 0 1784 0 
Q 1141 0 747 490 
Q 353 981 353 1791 
Q 353 2603 747 3093 
Q 1141 3584 1784 3584 
Q 2172 3584 2450 3431 
Q 2728 3278 2906 2969 
L 2906 3500 
L 3481 3500 
L 3481 434 
z
" transform="scale(0.015625)"/>
      </defs>
      <use xlink:href="#DejaVuSans-4f"/>
      <use xlink:href="#DejaVuSans-72" x="78.710938"/>
      <use xlink:href="#DejaVuSans-69" x="119.824219"/>
      <use xlink:href="#DejaVuSans-67" x="147.607422"/>
      <use xlink:href="#DejaVuSans-69" x="211.083984"/>
      <use xlink:href="#DejaVuSans-6e" x="238.867188"/>
      <use xlink:href="#DejaVuSans-61" x="302.246094"/>
      <use xlink:href="#DejaVuSans-6c" x="363.525391"/>
     </g>
    </g>
   </g>
  </g>
 </g>
 <defs>
  <clipPath id="ped1f3834d9">
   <rect x="180" y="43.2" width="1116" height="277.2"/>
  </clipPath>
 </defs>
</svg>
