<?xml version="1.0" encoding="utf-8" standalone="no"?>
<!DOCTYPE svg PUBLIC "-//W3C//DTD SVG 1.1//EN"
  "http://www.w3.org/Graphics/SVG/1.1/DTD/svg11.dtd">
<svg xmlns:xlink="http://www.w3.org/1999/xlink" width="1440pt" height="360pt" viewBox="0 0 1440 360" xmlns="http://www.w3.org/2000/svg" version="1.1">
 <metadata>
  <rdf:RDF xmlns:dc="http://purl.org/dc/elements/1.1/" xmlns:cc="http://creativecommons.org/ns#" xmlns:rdf="http://www.w3.org/1999/02/22-rdf-syntax-ns#">
   <cc:Work>
    <dc:type rdf:resource="http://purl.org/dc/dcmitype/StillImage"/>
    <dc:date>2023-08-21T14:00:17.827407</dc:date>
    <dc:format>image/svg+xml</dc:format>
    <dc:creator>
     <cc:Agent>
      <dc:title>Matplotlib v3.7.1, https://matplotlib.org/</dc:title>
     </cc:Agent>
    </dc:creator>
   </cc:Work>
  </rdf:RDF>
 </metadata>
 <defs>
  <style type="text/css">*{stroke-linejoin: round; stroke-linecap: butt}</style>
 </defs>
 <g id="figure_1">
  <g id="patch_1">
   <path d="M 0 360 
L 1440 360 
L 1440 0 
L 0 0 
z
" style="fill: #ffffff"/>
  </g>
  <g id="axes_1">
   <g id="patch_2">
    <path d="M 180 320.4 
L 1296 320.4 
L 1296 43.2 
L 180 43.2 
z
" style="fill: #ffffff"/>
   </g>
   <g id="PolyCollection_1">
    <defs>
     <path id="mcc2b986e6f" d="M 230.727273 -261.096102 
L 230.727273 -184.268416 
L 236.066986 -149.959732 
L 241.406699 -138.133634 
L 246.746411 -147.899773 
L 252.086124 -132.914131 
L 257.425837 -137.124741 
L 262.76555 -139.274776 
L 268.105263 -145.967839 
L 273.444976 -149.094642 
L 278.784689 -142.919157 
L 284.124402 -122.427023 
L 289.464115 -112.758055 
L 294.803828 -89.965686 
L 300.143541 -99.670838 
L 305.483254 -90.070704 
L 310.822967 -74.978324 
L 316.162679 -71.189405 
L 321.502392 -62.198556 
L 326.842105 -53.185639 
L 332.181818 -54.636438 
L 337.521531 -64.627924 
L 342.861244 -76.06325 
L 348.200957 -122.538118 
L 353.54067 -161.056479 
L 358.880383 -185.758422 
L 364.220096 -202.761498 
L 369.559809 -203.489045 
L 374.899522 -202.779964 
L 380.239234 -205.121585 
L 385.578947 -185.396485 
L 390.91866 -167.556987 
L 396.258373 -141.115616 
L 401.598086 -135.602796 
L 406.937799 -134.579161 
L 412.277512 -142.172793 
L 417.617225 -154.806395 
L 422.956938 -134.874164 
L 428.296651 -118.519713 
L 433.636364 -122.508066 
L 438.976077 -125.021406 
L 444.315789 -129.504363 
L 449.655502 -134.167386 
L 454.995215 -115.832149 
L 460.334928 -106.943405 
L 465.674641 -123.868844 
L 471.014354 -128.5027 
L 476.354067 -127.003311 
L 481.69378 -142.343944 
L 487.033493 -194.701278 
L 492.373206 -216.526375 
L 497.712919 -214.833445 
L 503.052632 -202.457279 
L 508.392344 -193.88626 
L 513.732057 -197.991285 
L 519.07177 -195.106725 
L 524.411483 -187.862609 
L 529.751196 -167.106844 
L 535.090909 -173.772743 
L 540.430622 -154.561548 
L 545.770335 -140.402661 
L 551.110048 -123.634749 
L 556.449761 -120.675908 
L 561.789474 -116.59424 
L 567.129187 -116.257164 
L 572.4689 -100.31614 
L 577.808612 -94.365964 
L 583.148325 -64.643 
L 588.488038 -102.400843 
L 593.827751 -122.967391 
L 599.167464 -129.42923 
L 604.507177 -168.441961 
L 609.84689 -199.161128 
L 615.186603 -212.137083 
L 620.526316 -225.364947 
L 625.866029 -225.124725 
L 631.205742 -227.372314 
L 636.545455 -216.763859 
L 641.885167 -208.089943 
L 647.22488 -183.40917 
L 652.564593 -176.547444 
L 657.904306 -167.881541 
L 663.244019 -149.538323 
L 668.583732 -157.278713 
L 673.923445 -148.315421 
L 679.263158 -138.087085 
L 684.602871 -138.140028 
L 689.942584 -137.500019 
L 695.282297 -128.399902 
L 700.62201 -134.187789 
L 705.961722 -118.214542 
L 711.301435 -96.925022 
L 716.641148 -89.732876 
L 721.980861 -114.210729 
L 727.320574 -120.018334 
L 732.660287 -164.880993 
L 738 -201.345355 
L 743.339713 -206.426715 
L 748.679426 -211.287871 
L 754.019139 -215.503357 
L 759.358852 -220.692908 
L 764.698565 -211.201736 
L 770.038278 -205.325611 
L 775.37799 -196.38399 
L 780.717703 -156.754574 
L 786.057416 -141.553837 
L 791.397129 -148.268305 
L 796.736842 -162.65576 
L 802.076555 -155.328748 
L 807.416268 -115.174775 
L 812.755981 -66.120551 
L 818.095694 -60.565265 
L 823.435407 -52.2 
L 828.77512 -63.936039 
L 834.114833 -90.437241 
L 839.454545 -87.996386 
L 844.794258 -76.576871 
L 850.133971 -90.226194 
L 855.473684 -106.812424 
L 860.813397 -116.516587 
L 866.15311 -149.412702 
L 871.492823 -194.770066 
L 876.832536 -211.635633 
L 882.172249 -199.90836 
L 887.511962 -203.456137 
L 892.851675 -200.461233 
L 898.191388 -190.400475 
L 903.5311 -166.296702 
L 908.870813 -149.039762 
L 914.210526 -160.350503 
L 919.550239 -149.805527 
L 924.889952 -144.378024 
L 930.229665 -149.865165 
L 935.569378 -143.9099 
L 940.909091 -154.333563 
L 946.248804 -137.890489 
L 951.588517 -128.653532 
L 956.92823 -135.175845 
L 962.267943 -125.9747 
L 967.607656 -106.267231 
L 972.947368 -88.733634 
L 978.287081 -99.354414 
L 983.626794 -115.191288 
L 988.966507 -154.611485 
L 994.30622 -191.149677 
L 999.645933 -204.221735 
L 1004.985646 -188.307659 
L 1010.325359 -196.377428 
L 1015.665072 -196.035092 
L 1021.004785 -186.915926 
L 1026.344498 -179.039897 
L 1031.684211 -155.903676 
L 1037.023923 -143.56516 
L 1042.363636 -152.024082 
L 1047.703349 -133.98181 
L 1053.043062 -127.632168 
L 1058.382775 -145.011022 
L 1063.722488 -116.533433 
L 1069.062201 -113.436366 
L 1074.401914 -100.223461 
L 1079.741627 -74.857136 
L 1085.08134 -79.48241 
L 1090.421053 -74.19012 
L 1095.760766 -71.547269 
L 1101.100478 -103.443227 
L 1106.440191 -87.486831 
L 1111.779904 -77.003897 
L 1117.119617 -100.806921 
L 1122.45933 -115.963514 
L 1127.799043 -148.334772 
L 1133.138756 -186.176675 
L 1138.478469 -198.948003 
L 1143.818182 -203.156894 
L 1149.157895 -196.575427 
L 1154.497608 -190.508699 
L 1159.837321 -177.915668 
L 1165.177033 -179.857219 
L 1170.516746 -171.10615 
L 1175.856459 -149.124678 
L 1181.196172 -137.917938 
L 1186.535885 -152.27716 
L 1191.875598 -161.88856 
L 1197.215311 -152.089914 
L 1202.555024 -136.703901 
L 1207.894737 -130.116924 
L 1213.23445 -110.383225 
L 1218.574163 -99.625375 
L 1223.913876 -80.504742 
L 1229.253589 -79.267006 
L 1234.593301 -90.077249 
L 1239.933014 -124.24337 
L 1245.272727 -165.270997 
L 1245.272727 -242.098683 
L 1245.272727 -242.098683 
L 1239.933014 -201.071073 
L 1234.593301 -166.904939 
L 1229.253589 -156.094696 
L 1223.913876 -157.332441 
L 1218.574163 -176.453077 
L 1213.23445 -187.210928 
L 1207.894737 -206.94461 
L 1202.555024 -213.531587 
L 1197.215311 -228.9176 
L 1191.875598 -238.716246 
L 1186.535885 -229.104846 
L 1181.196172 -214.745624 
L 1175.856459 -225.952365 
L 1170.516746 -247.933836 
L 1165.177033 -256.684905 
L 1159.837321 -254.743355 
L 1154.497608 -267.336385 
L 1149.157895 -273.403113 
L 1143.818182 -279.98458 
L 1138.478469 -275.775689 
L 1133.138756 -263.004361 
L 1127.799043 -225.162458 
L 1122.45933 -192.7912 
L 1117.119617 -177.634607 
L 1111.779904 -153.831596 
L 1106.440191 -164.31453 
L 1101.100478 -180.270914 
L 1095.760766 -148.374959 
L 1090.421053 -151.01781 
L 1085.08134 -156.310108 
L 1079.741627 -151.684834 
L 1074.401914 -177.051147 
L 1069.062201 -190.264052 
L 1063.722488 -193.36112 
L 1058.382775 -221.838708 
L 1053.043062 -204.459854 
L 1047.703349 -210.809496 
L 1042.363636 -228.851768 
L 1037.023923 -220.392846 
L 1031.684211 -232.731363 
L 1026.344498 -255.867583 
L 1021.004785 -263.743612 
L 1015.665072 -272.862779 
L 1010.325359 -273.205115 
L 1004.985646 -265.135345 
L 999.645933 -281.049421 
L 994.30622 -267.977364 
L 988.966507 -231.439172 
L 983.626794 -192.018991 
L 978.287081 -176.182117 
L 972.947368 -165.561324 
L 967.607656 -183.094934 
L 962.267943 -202.802403 
L 956.92823 -212.003531 
L 951.588517 -205.481218 
L 946.248804 -214.718175 
L 940.909091 -231.161249 
L 935.569378 -220.737586 
L 930.229665 -226.692851 
L 924.889952 -221.20571 
L 919.550239 -226.633213 
L 914.210526 -237.178189 
L 908.870813 -225.867449 
L 903.5311 -243.124388 
L 898.191388 -267.228162 
L 892.851675 -277.288919 
L 887.511962 -280.283823 
L 882.172249 -276.736046 
L 876.832536 -288.46332 
L 871.492823 -271.597752 
L 866.15311 -226.240388 
L 860.813397 -193.34429 
L 855.473684 -183.640127 
L 850.133971 -167.053885 
L 844.794258 -153.404561 
L 839.454545 -164.824077 
L 834.114833 -167.264939 
L 828.77512 -140.76373 
L 823.435407 -129.02769 
L 818.095694 -137.392964 
L 812.755981 -142.948241 
L 807.416268 -192.002462 
L 802.076555 -232.156434 
L 796.736842 -239.483447 
L 791.397129 -225.095991 
L 786.057416 -218.381523 
L 780.717703 -233.58226 
L 775.37799 -273.211676 
L 770.038278 -282.153297 
L 764.698565 -288.029423 
L 759.358852 -297.520594 
L 754.019139 -292.331044 
L 748.679426 -288.115557 
L 743.339713 -283.254402 
L 738 -278.173042 
L 732.660287 -241.70868 
L 727.320574 -196.846036 
L 721.980861 -191.038432 
L 716.641148 -166.560566 
L 711.301435 -173.752708 
L 705.961722 -195.042245 
L 700.62201 -211.015475 
L 695.282297 -205.227588 
L 689.942584 -214.327705 
L 684.602871 -214.967715 
L 679.263158 -214.914771 
L 673.923445 -225.143107 
L 668.583732 -234.106399 
L 663.244019 -226.366009 
L 657.904306 -244.709227 
L 652.564593 -253.37513 
L 647.22488 -260.236857 
L 641.885167 -284.917629 
L 636.545455 -293.591545 
L 631.205742 -304.2 
L 625.866029 -301.952411 
L 620.526316 -302.192634 
L 615.186603 -288.964769 
L 609.84689 -275.988814 
L 604.507177 -245.269647 
L 599.167464 -206.256917 
L 593.827751 -199.795094 
L 588.488038 -179.228529 
L 583.148325 -141.47069 
L 577.808612 -171.193654 
L 572.4689 -177.143843 
L 567.129187 -193.08485 
L 561.789474 -193.421943 
L 556.449761 -197.503594 
L 551.110048 -200.462435 
L 545.770335 -217.230347 
L 540.430622 -231.389234 
L 535.090909 -250.600429 
L 529.751196 -243.934531 
L 524.411483 -264.690295 
L 519.07177 -271.934411 
L 513.732057 -274.818972 
L 508.392344 -270.713947 
L 503.052632 -279.284965 
L 497.712919 -291.661131 
L 492.373206 -293.354061 
L 487.033493 -271.528964 
L 481.69378 -219.17163 
L 476.354067 -203.830997 
L 471.014354 -205.330386 
L 465.674641 -200.69653 
L 460.334928 -183.771091 
L 454.995215 -192.659835 
L 449.655502 -210.995073 
L 444.315789 -206.332049 
L 438.976077 -201.849109 
L 433.636364 -199.335768 
L 428.296651 -195.347415 
L 422.956938 -211.70185 
L 417.617225 -231.634081 
L 412.277512 -219.000479 
L 406.937799 -211.406847 
L 401.598086 -212.430482 
L 396.258373 -217.943302 
L 390.91866 -244.384673 
L 385.578947 -262.224171 
L 380.239234 -281.949271 
L 374.899522 -279.60765 
L 369.559809 -280.316731 
L 364.220096 -279.589184 
L 358.880383 -262.586108 
L 353.54067 -237.884165 
L 348.200957 -199.365805 
L 342.861244 -152.890941 
L 337.521531 -141.455614 
L 332.181818 -131.464129 
L 326.842105 -130.013333 
L 321.502392 -139.026255 
L 316.162679 -148.017096 
L 310.822967 -151.806014 
L 305.483254 -166.898394 
L 300.143541 -176.498524 
L 294.803828 -166.793376 
L 289.464115 -189.585741 
L 284.124402 -199.254709 
L 278.784689 -219.746843 
L 273.444976 -225.922328 
L 268.105263 -222.795525 
L 262.76555 -216.102462 
L 257.425837 -213.952428 
L 252.086124 -209.741817 
L 246.746411 -224.727459 
L 241.406699 -214.96132 
L 236.066986 -226.787418 
L 230.727273 -261.096102 
z
" style="stroke: #0000ff; stroke-opacity: 0.05"/>
    </defs>
    <g clip-path="url(#p8526c3f3a4)">
     <use xlink:href="#mcc2b986e6f" x="0" y="360" style="fill: #0000ff; fill-opacity: 0.05; stroke: #0000ff; stroke-opacity: 0.05"/>
    </g>
   </g>
   <g id="matplotlib.axis_1">
    <g id="xtick_1">
     <g id="line2d_1">
      <defs>
       <path id="m69a49c4c98" d="M 0 0 
L 0 3.5 
" style="stroke: #000000; stroke-width: 0.8"/>
      </defs>
      <g>
       <use xlink:href="#m69a49c4c98" x="230.727273" y="320.4" style="stroke: #000000; stroke-width: 0.8"/>
      </g>
     </g>
     <g id="text_1">
      <!-- 0 -->
      <g transform="translate(227.546023 334.998438) scale(0.1 -0.1)">
       <defs>
        <path id="DejaVuSans-30" d="M 2034 4250 
Q 1547 4250 1301 3770 
Q 1056 3291 1056 2328 
Q 1056 1369 1301 889 
Q 1547 409 2034 409 
Q 2525 409 2770 889 
Q 3016 1369 3016 2328 
Q 3016 3291 2770 3770 
Q 2525 4250 2034 4250 
z
M 2034 4750 
Q 2819 4750 3233 4129 
Q 3647 3509 3647 2328 
Q 3647 1150 3233 529 
Q 2819 -91 2034 -91 
Q 1250 -91 836 529 
Q 422 1150 422 2328 
Q 422 3509 836 4129 
Q 1250 4750 2034 4750 
z
" transform="scale(0.015625)"/>
       </defs>
       <use xlink:href="#DejaVuSans-30"/>
      </g>
     </g>
    </g>
    <g id="xtick_2">
     <g id="line2d_2">
      <g>
       <use xlink:href="#m69a49c4c98" x="364.220096" y="320.4" style="stroke: #000000; stroke-width: 0.8"/>
      </g>
     </g>
     <g id="text_2">
      <!-- 25 -->
      <g transform="translate(357.857596 334.998438) scale(0.1 -0.1)">
       <defs>
        <path id="DejaVuSans-32" d="M 1228 531 
L 3431 531 
L 3431 0 
L 469 0 
L 469 531 
Q 828 903 1448 1529 
Q 2069 2156 2228 2338 
Q 2531 2678 2651 2914 
Q 2772 3150 2772 3378 
Q 2772 3750 2511 3984 
Q 2250 4219 1831 4219 
Q 1534 4219 1204 4116 
Q 875 4013 500 3803 
L 500 4441 
Q 881 4594 1212 4672 
Q 1544 4750 1819 4750 
Q 2544 4750 2975 4387 
Q 3406 4025 3406 3419 
Q 3406 3131 3298 2873 
Q 3191 2616 2906 2266 
Q 2828 2175 2409 1742 
Q 1991 1309 1228 531 
z
" transform="scale(0.015625)"/>
        <path id="DejaVuSans-35" d="M 691 4666 
L 3169 4666 
L 3169 4134 
L 1269 4134 
L 1269 2991 
Q 1406 3038 1543 3061 
Q 1681 3084 1819 3084 
Q 2600 3084 3056 2656 
Q 3513 2228 3513 1497 
Q 3513 744 3044 326 
Q 2575 -91 1722 -91 
Q 1428 -91 1123 -41 
Q 819 9 494 109 
L 494 744 
Q 775 591 1075 516 
Q 1375 441 1709 441 
Q 2250 441 2565 725 
Q 2881 1009 2881 1497 
Q 2881 1984 2565 2268 
Q 2250 2553 1709 2553 
Q 1456 2553 1204 2497 
Q 953 2441 691 2322 
L 691 4666 
z
" transform="scale(0.015625)"/>
       </defs>
       <use xlink:href="#DejaVuSans-32"/>
       <use xlink:href="#DejaVuSans-35" x="63.623047"/>
      </g>
     </g>
    </g>
    <g id="xtick_3">
     <g id="line2d_3">
      <g>
       <use xlink:href="#m69a49c4c98" x="497.712919" y="320.4" style="stroke: #000000; stroke-width: 0.8"/>
      </g>
     </g>
     <g id="text_3">
      <!-- 50 -->
      <g transform="translate(491.350419 334.998438) scale(0.1 -0.1)">
       <use xlink:href="#DejaVuSans-35"/>
       <use xlink:href="#DejaVuSans-30" x="63.623047"/>
      </g>
     </g>
    </g>
    <g id="xtick_4">
     <g id="line2d_4">
      <g>
       <use xlink:href="#m69a49c4c98" x="631.205742" y="320.4" style="stroke: #000000; stroke-width: 0.8"/>
      </g>
     </g>
     <g id="text_4">
      <!-- 75 -->
      <g transform="translate(624.843242 334.998438) scale(0.1 -0.1)">
       <defs>
        <path id="DejaVuSans-37" d="M 525 4666 
L 3525 4666 
L 3525 4397 
L 1831 0 
L 1172 0 
L 2766 4134 
L 525 4134 
L 525 4666 
z
" transform="scale(0.015625)"/>
       </defs>
       <use xlink:href="#DejaVuSans-37"/>
       <use xlink:href="#DejaVuSans-35" x="63.623047"/>
      </g>
     </g>
    </g>
    <g id="xtick_5">
     <g id="line2d_5">
      <g>
       <use xlink:href="#m69a49c4c98" x="764.698565" y="320.4" style="stroke: #000000; stroke-width: 0.8"/>
      </g>
     </g>
     <g id="text_5">
      <!-- 100 -->
      <g transform="translate(755.154815 334.998438) scale(0.1 -0.1)">
       <defs>
        <path id="DejaVuSans-31" d="M 794 531 
L 1825 531 
L 1825 4091 
L 703 3866 
L 703 4441 
L 1819 4666 
L 2450 4666 
L 2450 531 
L 3481 531 
L 3481 0 
L 794 0 
L 794 531 
z
" transform="scale(0.015625)"/>
       </defs>
       <use xlink:href="#DejaVuSans-31"/>
       <use xlink:href="#DejaVuSans-30" x="63.623047"/>
       <use xlink:href="#DejaVuSans-30" x="127.246094"/>
      </g>
     </g>
    </g>
    <g id="xtick_6">
     <g id="line2d_6">
      <g>
       <use xlink:href="#m69a49c4c98" x="898.191388" y="320.4" style="stroke: #000000; stroke-width: 0.8"/>
      </g>
     </g>
     <g id="text_6">
      <!-- 125 -->
      <g transform="translate(888.647638 334.998438) scale(0.1 -0.1)">
       <use xlink:href="#DejaVuSans-31"/>
       <use xlink:href="#DejaVuSans-32" x="63.623047"/>
       <use xlink:href="#DejaVuSans-35" x="127.246094"/>
      </g>
     </g>
    </g>
    <g id="xtick_7">
     <g id="line2d_7">
      <g>
       <use xlink:href="#m69a49c4c98" x="1031.684211" y="320.4" style="stroke: #000000; stroke-width: 0.8"/>
      </g>
     </g>
     <g id="text_7">
      <!-- 150 -->
      <g transform="translate(1022.140461 334.998438) scale(0.1 -0.1)">
       <use xlink:href="#DejaVuSans-31"/>
       <use xlink:href="#DejaVuSans-35" x="63.623047"/>
       <use xlink:href="#DejaVuSans-30" x="127.246094"/>
      </g>
     </g>
    </g>
    <g id="xtick_8">
     <g id="line2d_8">
      <g>
       <use xlink:href="#m69a49c4c98" x="1165.177033" y="320.4" style="stroke: #000000; stroke-width: 0.8"/>
      </g>
     </g>
     <g id="text_8">
      <!-- 175 -->
      <g transform="translate(1155.633283 334.998438) scale(0.1 -0.1)">
       <use xlink:href="#DejaVuSans-31"/>
       <use xlink:href="#DejaVuSans-37" x="63.623047"/>
       <use xlink:href="#DejaVuSans-35" x="127.246094"/>
      </g>
     </g>
    </g>
    <g id="text_9">
     <!-- Amostras -->
     <g transform="translate(714.360937 348.676562) scale(0.1 -0.1)">
      <defs>
       <path id="DejaVuSans-41" d="M 2188 4044 
L 1331 1722 
L 3047 1722 
L 2188 4044 
z
M 1831 4666 
L 2547 4666 
L 4325 0 
L 3669 0 
L 3244 1197 
L 1141 1197 
L 716 0 
L 50 0 
L 1831 4666 
z
" transform="scale(0.015625)"/>
       <path id="DejaVuSans-6d" d="M 3328 2828 
Q 3544 3216 3844 3400 
Q 4144 3584 4550 3584 
Q 5097 3584 5394 3201 
Q 5691 2819 5691 2113 
L 5691 0 
L 5113 0 
L 5113 2094 
Q 5113 2597 4934 2840 
Q 4756 3084 4391 3084 
Q 3944 3084 3684 2787 
Q 3425 2491 3425 1978 
L 3425 0 
L 2847 0 
L 2847 2094 
Q 2847 2600 2669 2842 
Q 2491 3084 2119 3084 
Q 1678 3084 1418 2786 
Q 1159 2488 1159 1978 
L 1159 0 
L 581 0 
L 581 3500 
L 1159 3500 
L 1159 2956 
Q 1356 3278 1631 3431 
Q 1906 3584 2284 3584 
Q 2666 3584 2933 3390 
Q 3200 3197 3328 2828 
z
" transform="scale(0.015625)"/>
       <path id="DejaVuSans-6f" d="M 1959 3097 
Q 1497 3097 1228 2736 
Q 959 2375 959 1747 
Q 959 1119 1226 758 
Q 1494 397 1959 397 
Q 2419 397 2687 759 
Q 2956 1122 2956 1747 
Q 2956 2369 2687 2733 
Q 2419 3097 1959 3097 
z
M 1959 3584 
Q 2709 3584 3137 3096 
Q 3566 2609 3566 1747 
Q 3566 888 3137 398 
Q 2709 -91 1959 -91 
Q 1206 -91 779 398 
Q 353 888 353 1747 
Q 353 2609 779 3096 
Q 1206 3584 1959 3584 
z
" transform="scale(0.015625)"/>
       <path id="DejaVuSans-73" d="M 2834 3397 
L 2834 2853 
Q 2591 2978 2328 3040 
Q 2066 3103 1784 3103 
Q 1356 3103 1142 2972 
Q 928 2841 928 2578 
Q 928 2378 1081 2264 
Q 1234 2150 1697 2047 
L 1894 2003 
Q 2506 1872 2764 1633 
Q 3022 1394 3022 966 
Q 3022 478 2636 193 
Q 2250 -91 1575 -91 
Q 1294 -91 989 -36 
Q 684 19 347 128 
L 347 722 
Q 666 556 975 473 
Q 1284 391 1588 391 
Q 1994 391 2212 530 
Q 2431 669 2431 922 
Q 2431 1156 2273 1281 
Q 2116 1406 1581 1522 
L 1381 1569 
Q 847 1681 609 1914 
Q 372 2147 372 2553 
Q 372 3047 722 3315 
Q 1072 3584 1716 3584 
Q 2034 3584 2315 3537 
Q 2597 3491 2834 3397 
z
" transform="scale(0.015625)"/>
       <path id="DejaVuSans-74" d="M 1172 4494 
L 1172 3500 
L 2356 3500 
L 2356 3053 
L 1172 3053 
L 1172 1153 
Q 1172 725 1289 603 
Q 1406 481 1766 481 
L 2356 481 
L 2356 0 
L 1766 0 
Q 1100 0 847 248 
Q 594 497 594 1153 
L 594 3053 
L 172 3053 
L 172 3500 
L 594 3500 
L 594 4494 
L 1172 4494 
z
" transform="scale(0.015625)"/>
       <path id="DejaVuSans-72" d="M 2631 2963 
Q 2534 3019 2420 3045 
Q 2306 3072 2169 3072 
Q 1681 3072 1420 2755 
Q 1159 2438 1159 1844 
L 1159 0 
L 581 0 
L 581 3500 
L 1159 3500 
L 1159 2956 
Q 1341 3275 1631 3429 
Q 1922 3584 2338 3584 
Q 2397 3584 2469 3576 
Q 2541 3569 2628 3553 
L 2631 2963 
z
" transform="scale(0.015625)"/>
       <path id="DejaVuSans-61" d="M 2194 1759 
Q 1497 1759 1228 1600 
Q 959 1441 959 1056 
Q 959 750 1161 570 
Q 1363 391 1709 391 
Q 2188 391 2477 730 
Q 2766 1069 2766 1631 
L 2766 1759 
L 2194 1759 
z
M 3341 1997 
L 3341 0 
L 2766 0 
L 2766 531 
Q 2569 213 2275 61 
Q 1981 -91 1556 -91 
Q 1019 -91 701 211 
Q 384 513 384 1019 
Q 384 1609 779 1909 
Q 1175 2209 1959 2209 
L 2766 2209 
L 2766 2266 
Q 2766 2663 2505 2880 
Q 2244 3097 1772 3097 
Q 1472 3097 1187 3025 
Q 903 2953 641 2809 
L 641 3341 
Q 956 3463 1253 3523 
Q 1550 3584 1831 3584 
Q 2591 3584 2966 3190 
Q 3341 2797 3341 1997 
z
" transform="scale(0.015625)"/>
      </defs>
      <use xlink:href="#DejaVuSans-41"/>
      <use xlink:href="#DejaVuSans-6d" x="68.408203"/>
      <use xlink:href="#DejaVuSans-6f" x="165.820312"/>
      <use xlink:href="#DejaVuSans-73" x="227.001953"/>
      <use xlink:href="#DejaVuSans-74" x="279.101562"/>
      <use xlink:href="#DejaVuSans-72" x="318.310547"/>
      <use xlink:href="#DejaVuSans-61" x="359.423828"/>
      <use xlink:href="#DejaVuSans-73" x="420.703125"/>
     </g>
    </g>
   </g>
   <g id="matplotlib.axis_2">
    <g id="ytick_1">
     <g id="line2d_9">
      <defs>
       <path id="mc466aab418" d="M 0 0 
L -3.5 0 
" style="stroke: #000000; stroke-width: 0.8"/>
      </defs>
      <g>
       <use xlink:href="#mc466aab418" x="180" y="300.18344" style="stroke: #000000; stroke-width: 0.8"/>
      </g>
     </g>
     <g id="text_10">
      <!-- 2 -->
      <g transform="translate(166.6375 303.982659) scale(0.1 -0.1)">
       <use xlink:href="#DejaVuSans-32"/>
      </g>
     </g>
    </g>
    <g id="ytick_2">
     <g id="line2d_10">
      <g>
       <use xlink:href="#mc466aab418" x="180" y="265.169281" style="stroke: #000000; stroke-width: 0.8"/>
      </g>
     </g>
     <g id="text_11">
      <!-- 4 -->
      <g transform="translate(166.6375 268.9685) scale(0.1 -0.1)">
       <defs>
        <path id="DejaVuSans-34" d="M 2419 4116 
L 825 1625 
L 2419 1625 
L 2419 4116 
z
M 2253 4666 
L 3047 4666 
L 3047 1625 
L 3713 1625 
L 3713 1100 
L 3047 1100 
L 3047 0 
L 2419 0 
L 2419 1100 
L 313 1100 
L 313 1709 
L 2253 4666 
z
" transform="scale(0.015625)"/>
       </defs>
       <use xlink:href="#DejaVuSans-34"/>
      </g>
     </g>
    </g>
    <g id="ytick_3">
     <g id="line2d_11">
      <g>
       <use xlink:href="#mc466aab418" x="180" y="230.155121" style="stroke: #000000; stroke-width: 0.8"/>
      </g>
     </g>
     <g id="text_12">
      <!-- 6 -->
      <g transform="translate(166.6375 233.95434) scale(0.1 -0.1)">
       <defs>
        <path id="DejaVuSans-36" d="M 2113 2584 
Q 1688 2584 1439 2293 
Q 1191 2003 1191 1497 
Q 1191 994 1439 701 
Q 1688 409 2113 409 
Q 2538 409 2786 701 
Q 3034 994 3034 1497 
Q 3034 2003 2786 2293 
Q 2538 2584 2113 2584 
z
M 3366 4563 
L 3366 3988 
Q 3128 4100 2886 4159 
Q 2644 4219 2406 4219 
Q 1781 4219 1451 3797 
Q 1122 3375 1075 2522 
Q 1259 2794 1537 2939 
Q 1816 3084 2150 3084 
Q 2853 3084 3261 2657 
Q 3669 2231 3669 1497 
Q 3669 778 3244 343 
Q 2819 -91 2113 -91 
Q 1303 -91 875 529 
Q 447 1150 447 2328 
Q 447 3434 972 4092 
Q 1497 4750 2381 4750 
Q 2619 4750 2861 4703 
Q 3103 4656 3366 4563 
z
" transform="scale(0.015625)"/>
       </defs>
       <use xlink:href="#DejaVuSans-36"/>
      </g>
     </g>
    </g>
    <g id="ytick_4">
     <g id="line2d_12">
      <g>
       <use xlink:href="#mc466aab418" x="180" y="195.140962" style="stroke: #000000; stroke-width: 0.8"/>
      </g>
     </g>
     <g id="text_13">
      <!-- 8 -->
      <g transform="translate(166.6375 198.940181) scale(0.1 -0.1)">
       <defs>
        <path id="DejaVuSans-38" d="M 2034 2216 
Q 1584 2216 1326 1975 
Q 1069 1734 1069 1313 
Q 1069 891 1326 650 
Q 1584 409 2034 409 
Q 2484 409 2743 651 
Q 3003 894 3003 1313 
Q 3003 1734 2745 1975 
Q 2488 2216 2034 2216 
z
M 1403 2484 
Q 997 2584 770 2862 
Q 544 3141 544 3541 
Q 544 4100 942 4425 
Q 1341 4750 2034 4750 
Q 2731 4750 3128 4425 
Q 3525 4100 3525 3541 
Q 3525 3141 3298 2862 
Q 3072 2584 2669 2484 
Q 3125 2378 3379 2068 
Q 3634 1759 3634 1313 
Q 3634 634 3220 271 
Q 2806 -91 2034 -91 
Q 1263 -91 848 271 
Q 434 634 434 1313 
Q 434 1759 690 2068 
Q 947 2378 1403 2484 
z
M 1172 3481 
Q 1172 3119 1398 2916 
Q 1625 2713 2034 2713 
Q 2441 2713 2670 2916 
Q 2900 3119 2900 3481 
Q 2900 3844 2670 4047 
Q 2441 4250 2034 4250 
Q 1625 4250 1398 4047 
Q 1172 3844 1172 3481 
z
" transform="scale(0.015625)"/>
       </defs>
       <use xlink:href="#DejaVuSans-38"/>
      </g>
     </g>
    </g>
    <g id="ytick_5">
     <g id="line2d_13">
      <g>
       <use xlink:href="#mc466aab418" x="180" y="160.126802" style="stroke: #000000; stroke-width: 0.8"/>
      </g>
     </g>
     <g id="text_14">
      <!-- 10 -->
      <g transform="translate(160.275 163.926021) scale(0.1 -0.1)">
       <use xlink:href="#DejaVuSans-31"/>
       <use xlink:href="#DejaVuSans-30" x="63.623047"/>
      </g>
     </g>
    </g>
    <g id="ytick_6">
     <g id="line2d_14">
      <g>
       <use xlink:href="#mc466aab418" x="180" y="125.112643" style="stroke: #000000; stroke-width: 0.8"/>
      </g>
     </g>
     <g id="text_15">
      <!-- 12 -->
      <g transform="translate(160.275 128.911862) scale(0.1 -0.1)">
       <use xlink:href="#DejaVuSans-31"/>
       <use xlink:href="#DejaVuSans-32" x="63.623047"/>
      </g>
     </g>
    </g>
    <g id="ytick_7">
     <g id="line2d_15">
      <g>
       <use xlink:href="#mc466aab418" x="180" y="90.098483" style="stroke: #000000; stroke-width: 0.8"/>
      </g>
     </g>
     <g id="text_16">
      <!-- 14 -->
      <g transform="translate(160.275 93.897702) scale(0.1 -0.1)">
       <use xlink:href="#DejaVuSans-31"/>
       <use xlink:href="#DejaVuSans-34" x="63.623047"/>
      </g>
     </g>
    </g>
    <g id="ytick_8">
     <g id="line2d_16">
      <g>
       <use xlink:href="#mc466aab418" x="180" y="55.084324" style="stroke: #000000; stroke-width: 0.8"/>
      </g>
     </g>
     <g id="text_17">
      <!-- 16 -->
      <g transform="translate(160.275 58.883542) scale(0.1 -0.1)">
       <use xlink:href="#DejaVuSans-31"/>
       <use xlink:href="#DejaVuSans-36" x="63.623047"/>
      </g>
     </g>
    </g>
    <g id="text_18">
     <!-- Velocidade do Vento (m/s) -->
     <g transform="translate(154.195312 247.344531) rotate(-90) scale(0.1 -0.1)">
      <defs>
       <path id="DejaVuSans-56" d="M 1831 0 
L 50 4666 
L 709 4666 
L 2188 738 
L 3669 4666 
L 4325 4666 
L 2547 0 
L 1831 0 
z
" transform="scale(0.015625)"/>
       <path id="DejaVuSans-65" d="M 3597 1894 
L 3597 1613 
L 953 1613 
Q 991 1019 1311 708 
Q 1631 397 2203 397 
Q 2534 397 2845 478 
Q 3156 559 3463 722 
L 3463 178 
Q 3153 47 2828 -22 
Q 2503 -91 2169 -91 
Q 1331 -91 842 396 
Q 353 884 353 1716 
Q 353 2575 817 3079 
Q 1281 3584 2069 3584 
Q 2775 3584 3186 3129 
Q 3597 2675 3597 1894 
z
M 3022 2063 
Q 3016 2534 2758 2815 
Q 2500 3097 2075 3097 
Q 1594 3097 1305 2825 
Q 1016 2553 972 2059 
L 3022 2063 
z
" transform="scale(0.015625)"/>
       <path id="DejaVuSans-6c" d="M 603 4863 
L 1178 4863 
L 1178 0 
L 603 0 
L 603 4863 
z
" transform="scale(0.015625)"/>
       <path id="DejaVuSans-63" d="M 3122 3366 
L 3122 2828 
Q 2878 2963 2633 3030 
Q 2388 3097 2138 3097 
Q 1578 3097 1268 2742 
Q 959 2388 959 1747 
Q 959 1106 1268 751 
Q 1578 397 2138 397 
Q 2388 397 2633 464 
Q 2878 531 3122 666 
L 3122 134 
Q 2881 22 2623 -34 
Q 2366 -91 2075 -91 
Q 1284 -91 818 406 
Q 353 903 353 1747 
Q 353 2603 823 3093 
Q 1294 3584 2113 3584 
Q 2378 3584 2631 3529 
Q 2884 3475 3122 3366 
z
" transform="scale(0.015625)"/>
       <path id="DejaVuSans-69" d="M 603 3500 
L 1178 3500 
L 1178 0 
L 603 0 
L 603 3500 
z
M 603 4863 
L 1178 4863 
L 1178 4134 
L 603 4134 
L 603 4863 
z
" transform="scale(0.015625)"/>
       <path id="DejaVuSans-64" d="M 2906 2969 
L 2906 4863 
L 3481 4863 
L 3481 0 
L 2906 0 
L 2906 525 
Q 2725 213 2448 61 
Q 2172 -91 1784 -91 
Q 1150 -91 751 415 
Q 353 922 353 1747 
Q 353 2572 751 3078 
Q 1150 3584 1784 3584 
Q 2172 3584 2448 3432 
Q 2725 3281 2906 2969 
z
M 947 1747 
Q 947 1113 1208 752 
Q 1469 391 1925 391 
Q 2381 391 2643 752 
Q 2906 1113 2906 1747 
Q 2906 2381 2643 2742 
Q 2381 3103 1925 3103 
Q 1469 3103 1208 2742 
Q 947 2381 947 1747 
z
" transform="scale(0.015625)"/>
       <path id="DejaVuSans-20" transform="scale(0.015625)"/>
       <path id="DejaVuSans-6e" d="M 3513 2113 
L 3513 0 
L 2938 0 
L 2938 2094 
Q 2938 2591 2744 2837 
Q 2550 3084 2163 3084 
Q 1697 3084 1428 2787 
Q 1159 2491 1159 1978 
L 1159 0 
L 581 0 
L 581 3500 
L 1159 3500 
L 1159 2956 
Q 1366 3272 1645 3428 
Q 1925 3584 2291 3584 
Q 2894 3584 3203 3211 
Q 3513 2838 3513 2113 
z
" transform="scale(0.015625)"/>
       <path id="DejaVuSans-28" d="M 1984 4856 
Q 1566 4138 1362 3434 
Q 1159 2731 1159 2009 
Q 1159 1288 1364 580 
Q 1569 -128 1984 -844 
L 1484 -844 
Q 1016 -109 783 600 
Q 550 1309 550 2009 
Q 550 2706 781 3412 
Q 1013 4119 1484 4856 
L 1984 4856 
z
" transform="scale(0.015625)"/>
       <path id="DejaVuSans-2f" d="M 1625 4666 
L 2156 4666 
L 531 -594 
L 0 -594 
L 1625 4666 
z
" transform="scale(0.015625)"/>
       <path id="DejaVuSans-29" d="M 513 4856 
L 1013 4856 
Q 1481 4119 1714 3412 
Q 1947 2706 1947 2009 
Q 1947 1309 1714 600 
Q 1481 -109 1013 -844 
L 513 -844 
Q 928 -128 1133 580 
Q 1338 1288 1338 2009 
Q 1338 2731 1133 3434 
Q 928 4138 513 4856 
z
" transform="scale(0.015625)"/>
      </defs>
      <use xlink:href="#DejaVuSans-56"/>
      <use xlink:href="#DejaVuSans-65" x="60.658203"/>
      <use xlink:href="#DejaVuSans-6c" x="122.181641"/>
      <use xlink:href="#DejaVuSans-6f" x="149.964844"/>
      <use xlink:href="#DejaVuSans-63" x="211.146484"/>
      <use xlink:href="#DejaVuSans-69" x="266.126953"/>
      <use xlink:href="#DejaVuSans-64" x="293.910156"/>
      <use xlink:href="#DejaVuSans-61" x="357.386719"/>
      <use xlink:href="#DejaVuSans-64" x="418.666016"/>
      <use xlink:href="#DejaVuSans-65" x="482.142578"/>
      <use xlink:href="#DejaVuSans-20" x="543.666016"/>
      <use xlink:href="#DejaVuSans-64" x="575.453125"/>
      <use xlink:href="#DejaVuSans-6f" x="638.929688"/>
      <use xlink:href="#DejaVuSans-20" x="700.111328"/>
      <use xlink:href="#DejaVuSans-56" x="731.898438"/>
      <use xlink:href="#DejaVuSans-65" x="792.556641"/>
      <use xlink:href="#DejaVuSans-6e" x="854.080078"/>
      <use xlink:href="#DejaVuSans-74" x="917.458984"/>
      <use xlink:href="#DejaVuSans-6f" x="956.667969"/>
      <use xlink:href="#DejaVuSans-20" x="1017.849609"/>
      <use xlink:href="#DejaVuSans-28" x="1049.636719"/>
      <use xlink:href="#DejaVuSans-6d" x="1088.650391"/>
      <use xlink:href="#DejaVuSans-2f" x="1186.0625"/>
      <use xlink:href="#DejaVuSans-73" x="1219.753906"/>
      <use xlink:href="#DejaVuSans-29" x="1271.853516"/>
     </g>
    </g>
   </g>
   <g id="line2d_17">
    <path d="M 230.727273 137.317741 
L 236.066986 171.626425 
L 241.406699 183.452523 
L 246.746411 173.686384 
L 252.086124 188.672026 
L 257.425837 184.461415 
L 262.76555 182.311381 
L 268.105263 175.618318 
L 273.444976 172.491515 
L 278.784689 178.667 
L 284.124402 199.159134 
L 289.464115 208.828102 
L 294.803828 231.620467 
L 300.143541 221.915319 
L 305.483254 231.515449 
L 310.822967 246.607829 
L 316.162679 250.396747 
L 326.842105 268.400514 
L 332.181818 266.949715 
L 337.521531 256.958229 
L 342.861244 245.522903 
L 348.200957 199.048038 
L 353.54067 160.529678 
L 358.880383 135.827735 
L 364.220096 118.824659 
L 369.559809 118.097112 
L 374.899522 118.806193 
L 380.239234 116.464572 
L 385.578947 136.189672 
L 390.91866 154.02917 
L 396.258373 180.470541 
L 401.598086 185.983361 
L 406.937799 187.006996 
L 412.277512 179.413364 
L 417.617225 166.779762 
L 422.956938 186.711993 
L 428.296651 203.066436 
L 433.636364 199.078083 
L 438.976077 196.564743 
L 444.315789 192.081794 
L 449.655502 187.41877 
L 454.995215 205.754008 
L 460.334928 214.642752 
L 465.674641 197.717313 
L 471.014354 193.083457 
L 476.354067 194.582846 
L 481.69378 179.242213 
L 487.033493 126.884879 
L 492.373206 105.059782 
L 497.712919 106.752712 
L 503.052632 119.128878 
L 508.392344 127.699896 
L 513.732057 123.594871 
L 519.07177 126.479432 
L 524.411483 133.723548 
L 529.751196 154.479313 
L 535.090909 147.813414 
L 540.430622 167.024609 
L 545.770335 181.183496 
L 551.110048 197.951408 
L 556.449761 200.910249 
L 561.789474 204.991908 
L 567.129187 205.328993 
L 572.4689 221.270008 
L 577.808612 227.220189 
L 583.148325 256.943153 
L 588.488038 219.185314 
L 593.827751 198.618758 
L 599.167464 192.156926 
L 604.507177 153.144196 
L 609.84689 122.425029 
L 620.526316 96.221209 
L 625.866029 96.461432 
L 631.205742 94.213843 
L 636.545455 104.822298 
L 641.885167 113.496214 
L 647.22488 138.176986 
L 652.564593 145.038713 
L 657.904306 153.704616 
L 663.244019 172.047834 
L 668.583732 164.307444 
L 673.923445 173.270736 
L 679.263158 183.499072 
L 684.602871 183.446128 
L 689.942584 184.086138 
L 695.282297 193.186255 
L 700.62201 187.398368 
L 705.961722 203.371606 
L 711.301435 224.661135 
L 716.641148 231.853277 
L 721.980861 207.37542 
L 727.320574 201.567815 
L 732.660287 156.705163 
L 738 120.240801 
L 743.339713 115.159441 
L 748.679426 110.298286 
L 754.019139 106.0828 
L 759.358852 100.893249 
L 764.698565 110.384421 
L 770.038278 116.260546 
L 775.37799 125.202167 
L 780.717703 164.831583 
L 786.057416 180.03232 
L 791.397129 173.317852 
L 796.736842 158.930397 
L 802.076555 166.257409 
L 807.416268 206.411382 
L 812.755981 255.465602 
L 818.095694 261.020888 
L 823.435407 269.386153 
L 828.77512 257.650114 
L 834.114833 231.148912 
L 839.454545 233.589766 
L 844.794258 245.009282 
L 850.133971 231.359959 
L 855.473684 214.773725 
L 860.813397 205.069562 
L 866.15311 172.173455 
L 871.492823 126.816091 
L 876.832536 109.950524 
L 882.172249 121.677797 
L 887.511962 118.13002 
L 892.851675 121.124924 
L 898.191388 131.185682 
L 903.5311 155.289455 
L 908.870813 172.546395 
L 914.210526 161.235654 
L 919.550239 171.78063 
L 924.889952 177.208133 
L 930.229665 171.720992 
L 935.569378 177.676257 
L 940.909091 167.252594 
L 946.248804 183.695668 
L 951.588517 192.932625 
L 956.92823 186.410312 
L 962.267943 195.611448 
L 967.607656 215.318917 
L 972.947368 232.852519 
L 978.287081 222.231734 
L 983.626794 206.394861 
L 988.966507 166.974671 
L 994.30622 130.43648 
L 999.645933 117.364422 
L 1004.985646 133.278498 
L 1010.325359 125.208729 
L 1015.665072 125.551064 
L 1021.004785 134.670231 
L 1026.344498 142.54626 
L 1031.684211 165.68248 
L 1037.023923 178.020997 
L 1042.363636 169.562075 
L 1047.703349 187.604347 
L 1053.043062 193.953989 
L 1058.382775 176.575135 
L 1063.722488 205.052724 
L 1069.062201 208.149791 
L 1074.401914 221.362696 
L 1079.741627 246.729017 
L 1085.08134 242.103743 
L 1090.421053 247.396033 
L 1095.760766 250.038884 
L 1101.100478 218.142929 
L 1106.440191 234.099322 
L 1111.779904 244.582255 
L 1117.119617 220.779236 
L 1122.45933 205.622643 
L 1127.799043 173.251385 
L 1133.138756 135.409482 
L 1138.478469 122.638154 
L 1143.818182 118.429263 
L 1149.157895 125.01073 
L 1154.497608 131.077458 
L 1159.837321 143.670489 
L 1165.177033 141.728938 
L 1170.516746 150.480007 
L 1175.856459 172.461478 
L 1181.196172 183.668219 
L 1186.535885 169.308997 
L 1191.875598 159.697597 
L 1197.215311 169.496243 
L 1202.555024 184.882256 
L 1207.894737 191.469233 
L 1213.23445 211.202923 
L 1218.574163 221.960774 
L 1223.913876 241.08141 
L 1229.253589 242.319147 
L 1234.593301 231.508904 
L 1239.933014 197.342779 
L 1245.272727 156.31516 
L 1245.272727 156.31516 
" clip-path="url(#p8526c3f3a4)" style="fill: none; stroke: #0000ff; stroke-width: 1.5; stroke-linecap: square"/>
   </g>
   <g id="line2d_18">
    <path d="M 230.727273 172.936149 
L 236.066986 182.282984 
L 241.406699 166.040304 
L 246.746411 184.276846 
L 252.086124 181.796677 
L 257.425837 178.197999 
L 262.76555 172.002438 
L 268.105263 166.983741 
L 273.444976 174.609048 
L 278.784689 199.29403 
L 284.124402 209.808004 
L 289.464115 229.756349 
L 294.803828 218.658806 
L 300.143541 230.194026 
L 305.483254 245.833684 
L 310.822967 249.045006 
L 316.162679 258.166449 
L 321.502392 268.320555 
L 326.842105 266.667109 
L 332.181818 252.690623 
L 337.521531 241.554175 
L 342.861244 196.794408 
L 348.200957 158.473356 
L 353.54067 132.523973 
L 358.880383 108.179406 
L 364.220096 110.260803 
L 369.559809 110.931908 
L 374.899522 108.918594 
L 380.239234 136.3269 
L 385.578947 154.942762 
L 390.91866 183.985061 
L 396.258373 188.254843 
L 401.598086 189.597053 
L 406.937799 178.869103 
L 412.277512 159.241722 
L 417.617225 179.374864 
L 422.956938 196.181659 
L 428.296651 193.7793 
L 433.636364 191.568707 
L 438.976077 187.495011 
L 444.315789 183.216848 
L 449.655502 205.226985 
L 454.995215 215.643697 
L 460.334928 209.846909 
L 465.674641 216.324528 
L 471.014354 214.340392 
L 476.354067 192.923398 
L 481.69378 132.601782 
L 487.033493 94.718407 
L 492.373206 91.936727 
L 497.712919 109.599424 
L 503.052632 125.414153 
L 508.392344 115.668546 
L 513.732057 110.766563 
L 519.07177 121.971094 
L 524.411483 150.167219 
L 529.751196 135.655795 
L 535.090909 161.002156 
L 540.430622 174.57987 
L 545.770335 189.227459 
L 551.110048 193.925192 
L 556.449761 199.050875 
L 561.789474 198.836901 
L 567.129187 212.307626 
L 572.4689 218.571271 
L 577.808612 251.173343 
L 583.148325 218.82415 
L 588.488038 210.14842 
L 593.827751 207.804416 
L 599.167464 169.551447 
L 604.507177 132.66014 
L 609.84689 105.854855 
L 615.186603 67.096125 
L 620.526316 81.004528 
L 625.866029 93.162223 
L 631.205742 111.622465 
L 636.545455 107.907074 
L 641.885167 142.823972 
L 647.22488 140.791205 
L 652.564593 144.292622 
L 657.904306 163.005744 
L 663.244019 151.558059 
L 668.583732 160.99243 
L 673.923445 171.769011 
L 679.263158 171.195167 
L 684.602871 172.245592 
L 689.942584 182.565043 
L 695.282297 178.499511 
L 700.62201 196.590158 
L 705.961722 218.493461 
L 711.301435 232.46022 
L 716.641148 217.890439 
L 721.980861 221.362677 
L 727.320574 168.160606 
L 732.660287 127.378836 
L 738 118.86845 
L 743.339713 106.292532 
L 748.679426 85.284036 
L 754.019139 91.158635 
L 759.358852 99.321725 
L 764.698565 107.274874 
L 770.038278 116.981577 
L 775.37799 166.818397 
L 780.717703 180.152957 
L 786.057416 165.057963 
L 791.397129 140.976002 
L 796.736842 149.184878 
L 802.076555 195.520282 
L 807.416268 246.436705 
L 812.755981 251.48458 
L 818.095694 256.814514 
L 823.435407 246.514515 
L 828.77512 225.447661 
L 834.114833 229.396482 
L 839.454545 249.374004 
L 844.794258 246.645661 
L 850.133971 229.983086 
L 855.473684 214.359845 
L 860.813397 172.012164 
L 866.15311 116.281293 
L 871.492823 92.831533 
L 876.832536 109.365997 
L 882.172249 102.868925 
L 887.511962 102.518784 
L 892.851675 123.186863 
L 898.191388 154.641251 
L 903.5311 173.120946 
L 908.870813 156.041817 
L 914.210526 170.319813 
L 919.550239 173.11122 
L 924.889952 159.873922 
L 930.229665 164.231241 
L 935.569378 154.067407 
L 940.909091 174.453429 
L 946.248804 186.49441 
L 951.588517 182.08846 
L 956.92823 195.899601 
L 962.267943 214.641903 
L 967.607656 236.681372 
L 972.947368 234.30819 
L 978.287081 216.470421 
L 983.626794 176.350029 
L 988.966507 137.173075 
L 994.30622 114.666752 
L 999.645933 143.339458 
L 1004.985646 127.583085 
L 1010.325359 125.404428 
L 1015.665072 138.933509 
L 1021.004785 145.916889 
L 1026.344498 171.963534 
L 1031.684211 187.50593 
L 1037.023923 177.74087 
L 1042.363636 198.885531 
L 1047.703349 204.312726 
L 1053.043062 178.363344 
L 1058.382775 199.255126 
L 1063.722488 199.702529 
L 1069.062201 215.575615 
L 1074.401914 243.18817 
L 1079.741627 242.235007 
L 1085.08134 249.3351 
L 1090.421053 245.862862 
L 1095.760766 216.947002 
L 1101.100478 243.869 
L 1106.440191 261.385806 
L 1111.779904 231.584866 
L 1117.119617 216.120279 
L 1122.45933 184.704797 
L 1127.799043 137.912263 
L 1133.138756 120.881764 
L 1138.478469 115.084976 
L 1143.818182 120.89149 
L 1149.157895 120.075689 
L 1154.497608 137.938054 
L 1159.837321 139.876946 
L 1165.177033 151.276001 
L 1170.516746 179.744458 
L 1175.856459 193.497241 
L 1181.196172 159.338984 
L 1186.535885 143.845218 
L 1191.875598 155.672224 
L 1197.215311 174.647952 
L 1202.555024 184.189311 
L 1207.894737 205.421508 
L 1213.23445 217.219335 
L 1218.574163 238.140295 
L 1223.913876 245.561352 
L 1229.253589 243.859274 
L 1234.593301 206.160696 
L 1239.933014 153.114244 
L 1245.272727 118.100085 
L 1245.272727 118.100085 
" clip-path="url(#p8526c3f3a4)" style="fill: none; stroke: #ffa500; stroke-width: 1.5; stroke-linecap: square"/>
   </g>
   <g id="patch_3">
    <path d="M 180 320.4 
L 180 43.2 
" style="fill: none; stroke: #000000; stroke-width: 0.8; stroke-linejoin: miter; stroke-linecap: square"/>
   </g>
   <g id="patch_4">
    <path d="M 1296 320.4 
L 1296 43.2 
" style="fill: none; stroke: #000000; stroke-width: 0.8; stroke-linejoin: miter; stroke-linecap: square"/>
   </g>
   <g id="patch_5">
    <path d="M 180 320.4 
L 1296 320.4 
" style="fill: none; stroke: #000000; stroke-width: 0.8; stroke-linejoin: miter; stroke-linecap: square"/>
   </g>
   <g id="patch_6">
    <path d="M 180 43.2 
L 1296 43.2 
" style="fill: none; stroke: #000000; stroke-width: 0.8; stroke-linejoin: miter; stroke-linecap: square"/>
   </g>
   <g id="text_19">
    <!-- Previsão do vento para 1 hora(s) à frente com 3 camadas -->
    <g transform="translate(564.882187 37.2) scale(0.12 -0.12)">
     <defs>
      <path id="DejaVuSans-50" d="M 1259 4147 
L 1259 2394 
L 2053 2394 
Q 2494 2394 2734 2622 
Q 2975 2850 2975 3272 
Q 2975 3691 2734 3919 
Q 2494 4147 2053 4147 
L 1259 4147 
z
M 628 4666 
L 2053 4666 
Q 2838 4666 3239 4311 
Q 3641 3956 3641 3272 
Q 3641 2581 3239 2228 
Q 2838 1875 2053 1875 
L 1259 1875 
L 1259 0 
L 628 0 
L 628 4666 
z
" transform="scale(0.015625)"/>
      <path id="DejaVuSans-76" d="M 191 3500 
L 800 3500 
L 1894 563 
L 2988 3500 
L 3597 3500 
L 2284 0 
L 1503 0 
L 191 3500 
z
" transform="scale(0.015625)"/>
      <path id="DejaVuSans-e3" d="M 2194 1759 
Q 1497 1759 1228 1600 
Q 959 1441 959 1056 
Q 959 750 1161 570 
Q 1363 391 1709 391 
Q 2188 391 2477 730 
Q 2766 1069 2766 1631 
L 2766 1759 
L 2194 1759 
z
M 3341 1997 
L 3341 0 
L 2766 0 
L 2766 531 
Q 2569 213 2275 61 
Q 1981 -91 1556 -91 
Q 1019 -91 701 211 
Q 384 513 384 1019 
Q 384 1609 779 1909 
Q 1175 2209 1959 2209 
L 2766 2209 
L 2766 2266 
Q 2766 2663 2505 2880 
Q 2244 3097 1772 3097 
Q 1472 3097 1187 3025 
Q 903 2953 641 2809 
L 641 3341 
Q 956 3463 1253 3523 
Q 1550 3584 1831 3584 
Q 2591 3584 2966 3190 
Q 3341 2797 3341 1997 
z
M 1844 4281 
L 1666 4453 
Q 1597 4516 1545 4545 
Q 1494 4575 1453 4575 
Q 1334 4575 1278 4461 
Q 1222 4347 1216 4091 
L 825 4091 
Q 831 4513 990 4742 
Q 1150 4972 1434 4972 
Q 1553 4972 1653 4928 
Q 1753 4884 1869 4781 
L 2047 4609 
Q 2116 4547 2167 4517 
Q 2219 4488 2259 4488 
Q 2378 4488 2434 4602 
Q 2491 4716 2497 4972 
L 2888 4972 
Q 2881 4550 2722 4320 
Q 2563 4091 2278 4091 
Q 2159 4091 2059 4134 
Q 1959 4178 1844 4281 
z
" transform="scale(0.015625)"/>
      <path id="DejaVuSans-70" d="M 1159 525 
L 1159 -1331 
L 581 -1331 
L 581 3500 
L 1159 3500 
L 1159 2969 
Q 1341 3281 1617 3432 
Q 1894 3584 2278 3584 
Q 2916 3584 3314 3078 
Q 3713 2572 3713 1747 
Q 3713 922 3314 415 
Q 2916 -91 2278 -91 
Q 1894 -91 1617 61 
Q 1341 213 1159 525 
z
M 3116 1747 
Q 3116 2381 2855 2742 
Q 2594 3103 2138 3103 
Q 1681 3103 1420 2742 
Q 1159 2381 1159 1747 
Q 1159 1113 1420 752 
Q 1681 391 2138 391 
Q 2594 391 2855 752 
Q 3116 1113 3116 1747 
z
" transform="scale(0.015625)"/>
      <path id="DejaVuSans-68" d="M 3513 2113 
L 3513 0 
L 2938 0 
L 2938 2094 
Q 2938 2591 2744 2837 
Q 2550 3084 2163 3084 
Q 1697 3084 1428 2787 
Q 1159 2491 1159 1978 
L 1159 0 
L 581 0 
L 581 4863 
L 1159 4863 
L 1159 2956 
Q 1366 3272 1645 3428 
Q 1925 3584 2291 3584 
Q 2894 3584 3203 3211 
Q 3513 2838 3513 2113 
z
" transform="scale(0.015625)"/>
      <path id="DejaVuSans-e0" d="M 2194 1759 
Q 1497 1759 1228 1600 
Q 959 1441 959 1056 
Q 959 750 1161 570 
Q 1363 391 1709 391 
Q 2188 391 2477 730 
Q 2766 1069 2766 1631 
L 2766 1759 
L 2194 1759 
z
M 3341 1997 
L 3341 0 
L 2766 0 
L 2766 531 
Q 2569 213 2275 61 
Q 1981 -91 1556 -91 
Q 1019 -91 701 211 
Q 384 513 384 1019 
Q 384 1609 779 1909 
Q 1175 2209 1959 2209 
L 2766 2209 
L 2766 2266 
Q 2766 2663 2505 2880 
Q 2244 3097 1772 3097 
Q 1472 3097 1187 3025 
Q 903 2953 641 2809 
L 641 3341 
Q 956 3463 1253 3523 
Q 1550 3584 1831 3584 
Q 2591 3584 2966 3190 
Q 3341 2797 3341 1997 
z
M 1403 5119 
L 2284 3950 
L 1806 3950 
L 788 5119 
L 1403 5119 
z
" transform="scale(0.015625)"/>
      <path id="DejaVuSans-66" d="M 2375 4863 
L 2375 4384 
L 1825 4384 
Q 1516 4384 1395 4259 
Q 1275 4134 1275 3809 
L 1275 3500 
L 2222 3500 
L 2222 3053 
L 1275 3053 
L 1275 0 
L 697 0 
L 697 3053 
L 147 3053 
L 147 3500 
L 697 3500 
L 697 3744 
Q 697 4328 969 4595 
Q 1241 4863 1831 4863 
L 2375 4863 
z
" transform="scale(0.015625)"/>
      <path id="DejaVuSans-33" d="M 2597 2516 
Q 3050 2419 3304 2112 
Q 3559 1806 3559 1356 
Q 3559 666 3084 287 
Q 2609 -91 1734 -91 
Q 1441 -91 1130 -33 
Q 819 25 488 141 
L 488 750 
Q 750 597 1062 519 
Q 1375 441 1716 441 
Q 2309 441 2620 675 
Q 2931 909 2931 1356 
Q 2931 1769 2642 2001 
Q 2353 2234 1838 2234 
L 1294 2234 
L 1294 2753 
L 1863 2753 
Q 2328 2753 2575 2939 
Q 2822 3125 2822 3475 
Q 2822 3834 2567 4026 
Q 2313 4219 1838 4219 
Q 1578 4219 1281 4162 
Q 984 4106 628 3988 
L 628 4550 
Q 988 4650 1302 4700 
Q 1616 4750 1894 4750 
Q 2613 4750 3031 4423 
Q 3450 4097 3450 3541 
Q 3450 3153 3228 2886 
Q 3006 2619 2597 2516 
z
" transform="scale(0.015625)"/>
     </defs>
     <use xlink:href="#DejaVuSans-50"/>
     <use xlink:href="#DejaVuSans-72" x="58.552734"/>
     <use xlink:href="#DejaVuSans-65" x="97.416016"/>
     <use xlink:href="#DejaVuSans-76" x="158.939453"/>
     <use xlink:href="#DejaVuSans-69" x="218.119141"/>
     <use xlink:href="#DejaVuSans-73" x="245.902344"/>
     <use xlink:href="#DejaVuSans-e3" x="298.001953"/>
     <use xlink:href="#DejaVuSans-6f" x="359.28125"/>
     <use xlink:href="#DejaVuSans-20" x="420.462891"/>
     <use xlink:href="#DejaVuSans-64" x="452.25"/>
     <use xlink:href="#DejaVuSans-6f" x="515.726562"/>
     <use xlink:href="#DejaVuSans-20" x="576.908203"/>
     <use xlink:href="#DejaVuSans-76" x="608.695312"/>
     <use xlink:href="#DejaVuSans-65" x="667.875"/>
     <use xlink:href="#DejaVuSans-6e" x="729.398438"/>
     <use xlink:href="#DejaVuSans-74" x="792.777344"/>
     <use xlink:href="#DejaVuSans-6f" x="831.986328"/>
     <use xlink:href="#DejaVuSans-20" x="893.167969"/>
     <use xlink:href="#DejaVuSans-70" x="924.955078"/>
     <use xlink:href="#DejaVuSans-61" x="988.431641"/>
     <use xlink:href="#DejaVuSans-72" x="1049.710938"/>
     <use xlink:href="#DejaVuSans-61" x="1090.824219"/>
     <use xlink:href="#DejaVuSans-20" x="1152.103516"/>
     <use xlink:href="#DejaVuSans-31" x="1183.890625"/>
     <use xlink:href="#DejaVuSans-20" x="1247.513672"/>
     <use xlink:href="#DejaVuSans-68" x="1279.300781"/>
     <use xlink:href="#DejaVuSans-6f" x="1342.679688"/>
     <use xlink:href="#DejaVuSans-72" x="1403.861328"/>
     <use xlink:href="#DejaVuSans-61" x="1444.974609"/>
     <use xlink:href="#DejaVuSans-28" x="1506.253906"/>
     <use xlink:href="#DejaVuSans-73" x="1545.267578"/>
     <use xlink:href="#DejaVuSans-29" x="1597.367188"/>
     <use xlink:href="#DejaVuSans-20" x="1636.380859"/>
     <use xlink:href="#DejaVuSans-e0" x="1668.167969"/>
     <use xlink:href="#DejaVuSans-20" x="1729.447266"/>
     <use xlink:href="#DejaVuSans-66" x="1761.234375"/>
     <use xlink:href="#DejaVuSans-72" x="1796.439453"/>
     <use xlink:href="#DejaVuSans-65" x="1835.302734"/>
     <use xlink:href="#DejaVuSans-6e" x="1896.826172"/>
     <use xlink:href="#DejaVuSans-74" x="1960.205078"/>
     <use xlink:href="#DejaVuSans-65" x="1999.414062"/>
     <use xlink:href="#DejaVuSans-20" x="2060.9375"/>
     <use xlink:href="#DejaVuSans-63" x="2092.724609"/>
     <use xlink:href="#DejaVuSans-6f" x="2147.705078"/>
     <use xlink:href="#DejaVuSans-6d" x="2208.886719"/>
     <use xlink:href="#DejaVuSans-20" x="2306.298828"/>
     <use xlink:href="#DejaVuSans-33" x="2338.085938"/>
     <use xlink:href="#DejaVuSans-20" x="2401.708984"/>
     <use xlink:href="#DejaVuSans-63" x="2433.496094"/>
     <use xlink:href="#DejaVuSans-61" x="2488.476562"/>
     <use xlink:href="#DejaVuSans-6d" x="2549.755859"/>
     <use xlink:href="#DejaVuSans-61" x="2647.167969"/>
     <use xlink:href="#DejaVuSans-64" x="2708.447266"/>
     <use xlink:href="#DejaVuSans-61" x="2771.923828"/>
     <use xlink:href="#DejaVuSans-73" x="2833.203125"/>
    </g>
   </g>
   <g id="legend_1">
    <g id="patch_7">
     <path d="M 1217.86875 80.55625 
L 1289 80.55625 
Q 1291 80.55625 1291 78.55625 
L 1291 50.2 
Q 1291 48.2 1289 48.2 
L 1217.86875 48.2 
Q 1215.86875 48.2 1215.86875 50.2 
L 1215.86875 78.55625 
Q 1215.86875 80.55625 1217.86875 80.55625 
z
" style="fill: #ffffff; opacity: 0.8; stroke: #cccccc; stroke-linejoin: miter"/>
    </g>
    <g id="line2d_19">
     <path d="M 1219.86875 56.298437 
L 1229.86875 56.298437 
L 1239.86875 56.298437 
" style="fill: none; stroke: #0000ff; stroke-width: 1.5; stroke-linecap: square"/>
    </g>
    <g id="text_20">
     <!-- Predito -->
     <g transform="translate(1247.86875 59.798437) scale(0.1 -0.1)">
      <use xlink:href="#DejaVuSans-50"/>
      <use xlink:href="#DejaVuSans-72" x="58.552734"/>
      <use xlink:href="#DejaVuSans-65" x="97.416016"/>
      <use xlink:href="#DejaVuSans-64" x="158.939453"/>
      <use xlink:href="#DejaVuSans-69" x="222.416016"/>
      <use xlink:href="#DejaVuSans-74" x="250.199219"/>
      <use xlink:href="#DejaVuSans-6f" x="289.408203"/>
     </g>
    </g>
    <g id="line2d_20">
     <path d="M 1219.86875 70.976562 
L 1229.86875 70.976562 
L 1239.86875 70.976562 
" style="fill: none; stroke: #ffa500; stroke-width: 1.5; stroke-linecap: square"/>
    </g>
    <g id="text_21">
     <!-- Original -->
     <g transform="translate(1247.86875 74.476562) scale(0.1 -0.1)">
      <defs>
       <path id="DejaVuSans-4f" d="M 2522 4238 
Q 1834 4238 1429 3725 
Q 1025 3213 1025 2328 
Q 1025 1447 1429 934 
Q 1834 422 2522 422 
Q 3209 422 3611 934 
Q 4013 1447 4013 2328 
Q 4013 3213 3611 3725 
Q 3209 4238 2522 4238 
z
M 2522 4750 
Q 3503 4750 4090 4092 
Q 4678 3434 4678 2328 
Q 4678 1225 4090 567 
Q 3503 -91 2522 -91 
Q 1538 -91 948 565 
Q 359 1222 359 2328 
Q 359 3434 948 4092 
Q 1538 4750 2522 4750 
z
" transform="scale(0.015625)"/>
       <path id="DejaVuSans-67" d="M 2906 1791 
Q 2906 2416 2648 2759 
Q 2391 3103 1925 3103 
Q 1463 3103 1205 2759 
Q 947 2416 947 1791 
Q 947 1169 1205 825 
Q 1463 481 1925 481 
Q 2391 481 2648 825 
Q 2906 1169 2906 1791 
z
M 3481 434 
Q 3481 -459 3084 -895 
Q 2688 -1331 1869 -1331 
Q 1566 -1331 1297 -1286 
Q 1028 -1241 775 -1147 
L 775 -588 
Q 1028 -725 1275 -790 
Q 1522 -856 1778 -856 
Q 2344 -856 2625 -561 
Q 2906 -266 2906 331 
L 2906 616 
Q 2728 306 2450 153 
Q 2172 0 1784 0 
Q 1141 0 747 490 
Q 353 981 353 1791 
Q 353 2603 747 3093 
Q 1141 3584 1784 3584 
Q 2172 3584 2450 3431 
Q 2728 3278 2906 2969 
L 2906 3500 
L 3481 3500 
L 3481 434 
z
" transform="scale(0.015625)"/>
      </defs>
      <use xlink:href="#DejaVuSans-4f"/>
      <use xlink:href="#DejaVuSans-72" x="78.710938"/>
      <use xlink:href="#DejaVuSans-69" x="119.824219"/>
      <use xlink:href="#DejaVuSans-67" x="147.607422"/>
      <use xlink:href="#DejaVuSans-69" x="211.083984"/>
      <use xlink:href="#DejaVuSans-6e" x="238.867188"/>
      <use xlink:href="#DejaVuSans-61" x="302.246094"/>
      <use xlink:href="#DejaVuSans-6c" x="363.525391"/>
     </g>
    </g>
   </g>
  </g>
 </g>
 <defs>
  <clipPath id="p8526c3f3a4">
   <rect x="180" y="43.2" width="1116" height="277.2"/>
  </clipPath>
 </defs>
</svg>
